<?xml version="1.0" standalone="no"?>
<!DOCTYPE svg PUBLIC "-//W3C//DTD SVG 1.1//EN" "http://www.w3.org/Graphics/SVG/1.1/DTD/svg11.dtd" >
<svg xmlns="http://www.w3.org/2000/svg">
<metadata></metadata>
<defs>
<font id="alethia_proitalic" horiz-adv-x="1495" >
<font-face units-per-em="2048" ascent="1536" descent="-512" />
<missing-glyph horiz-adv-x="546" />
<glyph unicode="&#xfb01;" horiz-adv-x="1277" d="M170 907l14 76h142l28 141q26 137 108.5 232.5t200.5 140.5t263 45q70 0 125.5 -12.5t87 -29t54 -39.5t30.5 -37t12 -27q24 -40 16 -84q-10 -52 -54 -88.5t-97 -36.5q-51 0 -81 36.5t-20 88.5q7 45 44 80t83 43q-73 47 -176 47q-149 0 -255 -85.5t-136 -236.5l-35 -178 h637l-147 -754q-13 -79 5 -115t71 -36q30 0 60.5 11t45.5 23l16 11l-12 -62q-3 -3 -8.5 -8t-25.5 -18t-42 -23t-57.5 -18t-73.5 -8q-111 0 -156 66t-20 194l129 661h-436l-199 -1020q-76 -413 -374 -413q-39 0 -75.5 7t-60 17t-41.5 20.5t-26 17.5l-8 7l43 64 q57 -33 127 -33q75 0 128 64t85 223l202 1046h-141z" />
<glyph unicode="&#xfb02;" horiz-adv-x="1277" d="M170 907l14 76h142l39 201q70 358 342 358q41 0 77 -8.5t58 -21t38 -25t22 -21.5l7 -8l-41 -49q-5 5 -14 12t-38.5 19t-59.5 12q-140 0 -183 -221l-49 -248h437l108 553h199l-252 -1307q-15 -78 3.5 -114.5t70.5 -36.5q30 0 61 11t47 23l16 11l-12 -62q-3 -3 -8.5 -8 t-25.5 -18t-42 -23t-57.5 -18t-73.5 -8q-111 0 -156.5 66t-19.5 194l127 661h-436l-199 -1020q-76 -413 -374 -413q-39 0 -75.5 7t-60 17t-41.5 20.5t-26 17.5l-8 7l43 64q57 -33 127 -33q75 0 128 64t85 223l202 1046h-141z" />
<glyph horiz-adv-x="0" />
<glyph horiz-adv-x="682" />
<glyph unicode=" "  horiz-adv-x="546" />
<glyph unicode="&#x09;" horiz-adv-x="546" />
<glyph unicode="&#xa0;" horiz-adv-x="546" />
<glyph unicode="!" horiz-adv-x="546" d="M197 434l174 1000h198l-215 -1000h-157zM86 111q10 52 54.5 88.5t95.5 36.5q52 0 81.5 -36t20.5 -89q-10 -53 -54 -89t-96 -36q-53 0 -82.5 36.5t-19.5 88.5z" />
<glyph unicode="&#x22;" horiz-adv-x="655" d="M213 920l76 514h176l-127 -514h-125zM510 920l76 514h176l-127 -514h-125z" />
<glyph unicode="#" horiz-adv-x="1601" d="M793 0l116 410h-395l-117 -410h-104l117 410h-297v82h319l129 452h-303v82h326l116 408h109l-117 -408h395l117 408h107l-117 -408h295v-82h-320l-129 -452h312v-82h-336l-117 -410h-106zM668 944l-129 -452h395l129 452h-395z" />
<glyph unicode="$" horiz-adv-x="1308" d="M506 -102l16 92q-247 12 -353 124t-73 314h205q-27 -144 32.5 -246.5t203.5 -124.5l110 578l-39 20q-44 21 -73.5 36t-66.5 35.5t-60.5 37t-50.5 39t-43 43.5t-31 47.5t-20.5 54.5t-5.5 62t7 71q30 161 169 258.5t372 106.5l18 90h92l-18 -90q234 -7 330.5 -111 t60.5 -293h-205q27 136 -24 225t-174 109l-109 -561q20 -11 43 -20q49 -23 86 -42.5t74.5 -41t65 -41t53 -42.5t42 -45.5t29.5 -48.5t18.5 -54t5.5 -60t-7 -68q-36 -172 -180.5 -265t-391.5 -99l-16 -90h-92zM973 305q9 50 0.5 87.5t-41 71.5t-77.5 62.5t-122 67.5 l-106 -541q129 3 225 66t121 186zM477 1137q-4 -35 -5 -62t12 -52.5t28.5 -45.5t44.5 -41.5t59.5 -39.5t73.5 -40l103 526q-128 -6 -212 -72t-104 -173z" />
<glyph unicode="%" horiz-adv-x="1533" d="M209 0l1139 1434h98l-1141 -1434h-96zM236 1085q31 159 133.5 264t228.5 105q125 0 186.5 -105t30.5 -264q-31 -158 -133.5 -263t-226.5 -105q-126 0 -188 104.5t-31 263.5zM371 1085q-25 -125 3.5 -205.5t94.5 -80.5q68 0 128 80.5t85 205.5t-4 206t-96 81 q-68 0 -127 -80.5t-84 -206.5zM831 346q31 160 134 264.5t229 104.5q125 0 186.5 -104.5t30.5 -264.5q-31 -159 -132.5 -262.5t-227.5 -103.5t-188.5 104t-31.5 262zM967 346q-25 -126 3.5 -206.5t96.5 -80.5q66 0 126 81t85 206q25 127 -3.5 208t-96.5 81 q-67 0 -126.5 -81.5t-84.5 -207.5z" />
<glyph unicode="&#x26;" horiz-adv-x="1411" d="M1155 709h148q-47 -224 -226 -422l195 -287h-264l-95 141q-218 -157 -467 -157q-199 0 -304.5 101t-73.5 267q12 61 42 116.5t67.5 98t92.5 84t105.5 71.5t116.5 64q-71 117 -96.5 200t-10.5 163q26 132 148 215.5t292 83.5q167 0 247 -81t56 -210q-11 -53 -38.5 -100.5 t-60.5 -82t-86 -71.5t-95 -61t-107 -58q6 -10 54 -79l219 -326q108 159 141 330zM528 66q182 0 342 143l-256 387q-27 36 -59 88q-117 -70 -189 -149t-94 -189q-28 -135 47.5 -207.5t208.5 -72.5zM586 1188q-12 -59 11 -130t85 -177q139 72 217.5 139t95.5 154 q17 86 -33.5 139t-142.5 53q-91 0 -155 -51.5t-78 -126.5z" />
<glyph unicode="'" horiz-adv-x="360" d="M213 920l76 514h176l-127 -514h-125z" />
<glyph unicode="(" horiz-adv-x="571" d="M381 -307h-94q-6 7 -15 19.5t-34.5 57t-46.5 95.5t-43 133t-32 170.5t-5.5 208t28.5 244.5q24 123 65 240t87 205.5t96 167t95.5 132.5t82.5 93.5t59 58.5l21 18h96q-12 -12 -33.5 -35t-80.5 -107t-111 -181t-110.5 -257t-92.5 -335q-33 -172 -38.5 -331t11 -262.5 t37.5 -183t39 -115.5z" />
<glyph unicode=")" horiz-adv-x="571" d="M-2 -307h-92q12 13 33.5 37.5t81 112t111.5 186.5t110 259.5t92 332.5q25 128 34 247t4 208t-16.5 167t-28 130.5t-31.5 90t-26 54.5l-10 18h96q6 -7 15 -19.5t35 -56.5t47.5 -94.5t43.5 -131.5t32.5 -168t6.5 -204.5t-28 -240.5q-24 -125 -65.5 -244t-88 -209 t-97 -169.5t-96.5 -134t-82.5 -94.5t-58.5 -58z" />
<glyph unicode="*" horiz-adv-x="917" d="M698 1434l-63 -289l291 96l10 -84l-293 -84l131 -227l-82 -53l-119 237l-208 -235l-60 51l213 227l-254 84l43 84l252 -96l51 289h88z" />
<glyph unicode="+" horiz-adv-x="972" d="M844 594h-316v-315h-82v315h-319v82h319v317h82v-317h316v-82z" />
<glyph unicode="," horiz-adv-x="432" d="M31 -281h-111l160 465h196z" />
<glyph unicode="-" horiz-adv-x="716" d="M614 506h-512v82h512v-82z" />
<glyph unicode="." horiz-adv-x="432" d="M31 111q9 52 52.5 88.5t96.5 36.5t82 -36.5t19 -88.5q-10 -53 -54 -89t-96 -36q-51 0 -80.5 36.5t-19.5 88.5z" />
<glyph unicode="/" horiz-adv-x="960" d="M-141 -307l1222 1843h95l-1227 -1843h-90z" />
<glyph unicode="0" horiz-adv-x="1351" d="M174 717q39 207 143.5 374.5t251 262t305.5 94.5t268 -94.5t148.5 -261.5t-0.5 -375q-41 -207 -145 -375t-250 -263t-305 -95q-119 0 -212.5 55.5t-147 153.5t-71.5 232.5t15 291.5zM387 717q-37 -196 -22.5 -343t77.5 -232t162 -85q98 0 193 83.5t169.5 234.5t112.5 342 q35 196 20.5 342t-77.5 230.5t-162 84.5q-150 0 -284 -184.5t-189 -472.5z" />
<glyph unicode="1" horiz-adv-x="854" d="M283 1190l374 244l19 -2l2 2h153l-278 -1434h-205l246 1274l-338 -221z" />
<glyph unicode="2" horiz-adv-x="1214" d="M27 0l28 158q3 16 53.5 54t130 91t176 119t195 145t183.5 160t146 174t77 178q24 118 -38 202.5t-181 84.5q-129 0 -236 -106.5t-133 -239.5h-197q16 84 65.5 161t123.5 136.5t177.5 95t219.5 35.5q114 0 201 -34t134.5 -90.5t65.5 -128t3 -148.5q-18 -93 -83 -188 t-155.5 -174t-195.5 -153.5t-207 -134.5t-186 -107.5t-137 -82t-56 -49.5h858l-29 -158h-1003z" />
<glyph unicode="3" horiz-adv-x="1310" d="M121 373h194q-1 -6 -1 -17.5t3 -43t11 -60.5t28 -64.5t49 -61t78.5 -43t112.5 -17.5q157 0 257.5 95.5t129.5 244.5q31 165 -61.5 254.5t-335.5 89.5l14 81l512 453h-739l28 150h910l-21 -107l-577 -500q278 -15 396 -115t83 -288q-27 -137 -116.5 -238t-218.5 -151.5 t-282 -50.5q-77 0 -142 13.5t-109.5 36t-80 51.5t-56 61t-35.5 64.5t-20.5 61.5t-8.5 51.5t-3 36.5z" />
<glyph unicode="4" horiz-adv-x="1251" d="M707 0l67 356h-700l8 52q11 11 30.5 30t77.5 82t112.5 129t124 163.5t124.5 192t102.5 209t67.5 220.5h205q-19 -97 -68 -203.5t-113 -200t-136.5 -183.5t-141.5 -160.5t-125.5 -125t-90.5 -83.5l-34 -29h576l84 428l77 106h148l-105 -534h183l-19 -93h-182l-68 -356 h-204z" />
<glyph unicode="5" horiz-adv-x="1269" d="M96 373h197q-1 -6 -1.5 -17.5t2 -43t10 -60.5t26 -64.5t46.5 -61t76 -43t109 -17.5q147 0 241.5 90.5t127.5 249.5q36 188 -47.5 278t-266.5 90q-76 0 -157.5 -14t-124.5 -28l-43 -13l-23 29l207 686h756l-31 -150h-680l-137 -436q157 35 285 35q267 0 387.5 -130 t79.5 -341q-39 -199 -193.5 -313.5t-396.5 -114.5q-80 0 -147 13.5t-111.5 36t-80 51.5t-55 61t-33 64.5t-17.5 61.5t-5.5 51.5t-0.5 36.5z" />
<glyph unicode="6" horiz-adv-x="1318" d="M866 1374q-82 0 -153 -39.5t-122 -104t-93 -156.5t-69.5 -188.5t-47.5 -207.5q64 110 174 171.5t250 61.5q91 0 169 -32t133 -89.5t77.5 -147t1.5 -196.5q-41 -210 -205.5 -336t-390.5 -126q-114 0 -200 34t-138 96.5t-80.5 150t-26.5 194t23 229.5q37 190 108.5 337.5 t167.5 238.5t207.5 137.5t235.5 46.5q151 0 260.5 -74t142.5 -203h-190q-19 95 -78.5 149t-155.5 54zM731 803q-135 0 -240 -86t-139 -203q-44 -455 236 -455q140 0 244 96t137 265t-31 276t-207 107z" />
<glyph unicode="7" horiz-adv-x="1185" d="M276 1434h992l-21 -107q-13 -13 -35 -37.5t-88.5 -103.5t-129 -162.5t-143 -208.5t-145 -248t-121.5 -274t-85 -293h-205q26 131 85 273t133 263.5t158 238t162.5 207t142.5 159.5t103 106l39 37h-870z" />
<glyph unicode="8" horiz-adv-x="1236" d="M1219 1083q-13 -69 -47 -127t-84 -102t-94 -72.5t-101 -58.5q142 -82 200 -166.5t35 -208.5q-33 -166 -182 -263t-401 -97q-254 0 -372.5 98.5t-84.5 267.5q11 58 40.5 111t64 90t85 73.5t89 58.5t90.5 48q-111 70 -155.5 148.5t-22.5 195.5q34 166 174 267.5t368 101.5 q224 0 327 -100t71 -265zM594 659l-37 19q-36 -22 -63.5 -40.5t-65 -50t-63.5 -62.5t-48.5 -74t-31.5 -89q-27 -136 48.5 -222.5t233.5 -86.5q135 0 230.5 66t120.5 194q6 31 6.5 55.5t-7.5 48t-17 41t-33.5 39t-44.5 36t-61.5 38.5t-74 41t-92.5 47zM487 1128 q-6 -30 -6.5 -54.5t5 -47.5t15.5 -42t28.5 -39t40 -37t54 -37.5t66.5 -39.5t82 -43l16 -10q34 24 53.5 38.5t55 46.5t57.5 60.5t43.5 70.5t30.5 87q27 135 -36.5 218t-198.5 83q-124 0 -204 -69t-102 -185z" />
<glyph unicode="9" horiz-adv-x="1294" d="M532 57q69 0 128.5 25.5t105 75t82 110t66 142t50 159.5t40.5 174q-61 -102 -162 -157.5t-236 -55.5q-199 0 -299.5 121t-60.5 334q41 216 196 339.5t385 123.5q528 0 394 -688q-74 -385 -255.5 -580.5t-453.5 -195.5q-336 0 -401 276h190q35 -203 231 -203zM684 639 q131 0 225 77t125 193q16 137 10.5 240t-57 163t-149.5 60q-142 0 -244.5 -96t-136.5 -279q-32 -158 25 -258t202 -100z" />
<glyph unicode=":" horiz-adv-x="432" d="M31 111q9 52 52.5 88.5t96.5 36.5t82 -36.5t19 -88.5q-10 -53 -54 -89t-96 -36q-51 0 -80.5 36.5t-19.5 88.5zM178 870q10 52 54.5 89.5t95.5 37.5q52 0 81.5 -37t18.5 -90q-9 -51 -53 -88t-96 -37t-82 37t-19 88z" />
<glyph unicode=";" horiz-adv-x="432" d="M31 -281h-111l160 465h196zM178 870q10 52 54.5 89.5t95.5 37.5q52 0 81.5 -37t18.5 -90q-9 -51 -53 -88t-96 -37t-82 37t-19 88z" />
<glyph unicode="&#x3c;" horiz-adv-x="972" d="M834 289l-697 280v88l697 283v-88l-588 -240l588 -235v-88z" />
<glyph unicode="=" horiz-adv-x="972" d="M844 719h-717v82h717v-82zM844 401h-717v82h717v-82z" />
<glyph unicode="&#x3e;" horiz-adv-x="972" d="M834 569l-697 -280v88l586 235l-586 238v88l697 -281v-88z" />
<glyph unicode="?" horiz-adv-x="1267" d="M420 111q9 52 52.5 88.5t96.5 36.5t82 -36.5t19 -88.5q-10 -53 -54 -89t-96 -36q-51 0 -80.5 36.5t-19.5 88.5zM532 434l62 361q226 83 329 160t124 186q21 110 -39 175.5t-191 65.5q-141 0 -234 -92t-126 -258h-205q41 200 182 308t387 108q238 0 344 -98.5t74 -262.5 q-29 -148 -152 -239.5t-348 -165.5l-51 -248h-156z" />
<glyph unicode="@" horiz-adv-x="2164" d="M1653 -109l14 -73q-11 -9 -31.5 -24t-91.5 -54t-149 -68.5t-201 -53.5t-250 -24q-246 0 -430 84t-285.5 245.5t-101.5 381.5q0 163 56 322t160 291t241 233.5t308.5 158t352.5 56.5q231 0 412 -89t281 -248.5t100 -362.5q0 -89 -19.5 -182t-60.5 -183t-98.5 -160.5 t-140 -113.5t-177.5 -43q-108 0 -165.5 47.5t-65.5 128.5q-151 -174 -369 -174q-177 0 -284 107.5t-107 285.5q0 112 44 222.5t119.5 198.5t186.5 142.5t234 54.5q115 0 193.5 -47t115.5 -133l92 166h106q-149 -770 -149 -811q0 -54 24 -81.5t66 -27.5q64 0 121 61t93 153.5 t56.5 196t20.5 194.5q0 180 -82 322.5t-229.5 222t-333.5 79.5q-151 0 -295 -54.5t-259.5 -150.5t-203.5 -219.5t-136 -270t-48 -294.5q0 -288 180.5 -446t499.5 -158q112 0 223.5 20t191.5 48t143.5 56t95.5 48zM748 336q0 -128 63.5 -202.5t173.5 -74.5q94 0 179 83 t137 204.5t67 249.5q21 148 -35 238t-176 90q-103 0 -199.5 -92.5t-153 -228.5t-56.5 -267z" />
<glyph unicode="A" d="M1141 0l-111 428h-692l-275 -428h-104l909 1434h113l391 -1434h-231zM831 1198l-442 -690h621z" />
<glyph unicode="B" horiz-adv-x="1423" d="M117 0l147 760l131 674h525q230 0 340.5 -94t78.5 -263q-25 -125 -114.5 -209t-231.5 -120q166 -29 243.5 -125.5t49.5 -243.5q-35 -177 -190 -278t-391 -101h-588zM772 702h-313l-123 -622h315q170 0 283.5 81t140.5 228q29 148 -52.5 230.5t-250.5 82.5zM838 1354h-254 l-111 -572h256q165 0 272.5 73.5t133.5 211.5q27 138 -52.5 212.5t-244.5 74.5z" />
<glyph unicode="C" horiz-adv-x="1576" d="M1272 428h205q-85 -221 -271.5 -332.5t-433.5 -111.5q-121 0 -220.5 26.5t-169 74.5t-119 115.5t-71.5 149t-26 176t18 195.5q30 157 102.5 289.5t180 230t254.5 152.5t317 55q94 0 175.5 -16.5t149.5 -52t115.5 -87.5t72 -127.5t20.5 -167.5h-205q11 175 -81.5 276 t-268.5 101q-126 0 -234.5 -56t-184 -150t-126 -208t-74.5 -241q-17 -87 -19 -169t10.5 -156t43 -135.5t76.5 -106.5t113.5 -70t150.5 -25q169 0 303 95.5t197 275.5z" />
<glyph unicode="D" horiz-adv-x="1542" d="M117 0l278 1434h469q157 0 285.5 -52.5t212 -146.5t116.5 -231.5t1 -298.5q-29 -149 -104.5 -278.5t-183 -224t-249 -148.5t-295.5 -54h-530zM848 1354h-264l-248 -1274h326q134 0 258 75.5t217 218.5t129 328q38 195 -4 344t-150 228.5t-264 79.5z" />
<glyph unicode="E" horiz-adv-x="1339" d="M117 0l278 1434h1014l-16 -80h-809l-113 -582h748l-17 -80h-747l-119 -612h829l-14 -80h-1034z" />
<glyph unicode="F" horiz-adv-x="1288" d="M117 0l278 1434h1014l-16 -80h-809l-113 -582h686l-16 -80h-686l-133 -692h-205z" />
<glyph unicode="G" horiz-adv-x="1607" d="M911 592l15 80h569l-86 -445q-104 -122 -266.5 -182.5t-354.5 -60.5q-127 0 -231 26.5t-176 75t-123.5 116t-74 149.5t-27 175.5t17.5 194.5q31 157 103.5 289.5t180 230t254 152.5t316.5 55q94 0 175.5 -16.5t149.5 -52t115.5 -87.5t72 -127.5t20.5 -167.5h-205 q11 175 -81.5 276t-268.5 101q-126 0 -234.5 -56t-184.5 -150.5t-127 -209.5t-75 -243q-17 -86 -18.5 -167t12 -155t45.5 -135t80.5 -106t120.5 -70t161 -25q117 0 229.5 40t186.5 118l72 377h-363z" />
<glyph unicode="H" horiz-adv-x="1658" d="M1171 0l134 692h-850l-133 -692h-205l278 1434h205l-129 -662h850l129 662h205l-279 -1434h-205z" />
<glyph unicode="I" horiz-adv-x="604" d="M117 0l278 1434h205l-278 -1434h-205z" />
<glyph unicode="J" horiz-adv-x="1083" d="M1106 1434l-182 -932q-51 -257 -197 -387.5t-352 -130.5q-84 0 -151.5 24t-106 59t-63 77t-32 76.5t-4.5 58.5h84q-2 -25 11 -56.5t40 -63.5t77 -53.5t112 -21.5q138 0 239 98t134 271l190 981h201z" />
<glyph unicode="K" horiz-adv-x="1368" d="M117 0l280 1434h199l-279 -1434h-200zM985 0l-524 719l852 715h112q-162 -141 -426 -363t-321 -270l567 -801h-260z" />
<glyph unicode="L" horiz-adv-x="1198" d="M117 0l278 1434h205l-264 -1354h749l-14 -80h-954z" />
<glyph unicode="M" horiz-adv-x="1888" d="M117 0l278 1434h213l318 -1162l751 1151l2 11h205l-278 -1434h-205l237 1227l-751 -1166h-125l-328 1158l-235 -1219h-82z" />
<glyph unicode="N" horiz-adv-x="1587" d="M420 1141l-221 -1141h-82l278 1434h82l803 -1141l221 1141h82l-278 -1434h-82z" />
<glyph unicode="O" horiz-adv-x="1689" d="M174 717q39 207 165.5 374.5t312 262t392.5 94.5q155 0 279.5 -55t200 -153t106 -232t-1.5 -291q-41 -208 -166.5 -375.5t-310 -262.5t-391.5 -95q-155 0 -280 55.5t-201 153.5t-107 232.5t2 291.5zM387 717q-31 -145 -14.5 -266.5t67 -209t137 -136t195.5 -48.5 q147 0 280.5 83.5t230 234.5t134.5 342q36 191 -1.5 341t-139 233t-248.5 83q-223 0 -404.5 -184.5t-236.5 -472.5z" />
<glyph unicode="P" horiz-adv-x="1314" d="M117 0l114 594l2 8l162 832h479q237 0 365.5 -116.5t93.5 -303.5q-37 -188 -210.5 -304t-411.5 -116h-275l-114 -594h-205zM807 1354h-223l-131 -680h223q168 0 291 92t153 246q29 154 -58.5 248t-254.5 94z" />
<glyph unicode="Q" horiz-adv-x="1689" d="M174 717q39 207 165.5 374.5t312 262t392.5 94.5q155 0 279.5 -55t200 -153t106 -232t-1.5 -291q-39 -203 -161 -367.5t-298 -259.5q105 -117 215 -117q61 0 139 31.5t125 62.5l48 31l-17 -75q-7 -7 -19 -19.5t-50.5 -43.5t-78.5 -55t-99 -43.5t-115 -19.5 q-47 0 -87.5 15t-76 47t-57 57t-54.5 70q-136 -47 -282 -47q-155 0 -280 55.5t-201 153.5t-107 232.5t2 291.5zM848 334q51 0 99.5 -25.5t77.5 -54t73 -80.5q117 88 200.5 228t118.5 315q36 191 -1.5 341t-139 233t-248.5 83q-223 0 -404.5 -184.5t-236.5 -472.5 q-37 -197 -0.5 -344.5t137.5 -231.5l2 25q7 7 18.5 18t48 40t72.5 51.5t87 40.5t96 18zM772 57q109 0 215 47q-89 111 -180 111q-104 0 -250 -98q91 -60 215 -60z" />
<glyph unicode="R" horiz-adv-x="1368" d="M117 0l123 635l2 8l153 791h494q238 0 360.5 -107t87.5 -293q-30 -151 -143.5 -250t-286.5 -133l307 -651h-221l-299 635h-250l-122 -635h-205zM821 1354h-237l-123 -639h237q170 0 283 82t143 235q29 154 -52.5 238t-250.5 84z" />
<glyph unicode="S" horiz-adv-x="1320" d="M483 1137q-12 -61 0.5 -104.5t68.5 -86.5t104 -68.5t165 -80.5l4 -2q49 -23 86 -42.5t74.5 -41t65 -41t53 -42.5t42 -45.5t29.5 -48.5t18.5 -54t5.5 -60t-7 -68q-36 -176 -188 -270t-412 -94q-281 0 -402.5 112.5t-87.5 327.5h205q-31 -162 47.5 -268.5t259.5 -106.5 q86 0 160 24.5t131 83t74 144.5q19 98 -41 161q-49 54 -209 133q-34 17 -115 56q-44 21 -73.5 36t-66.5 35.5t-60.5 37t-50.5 39t-43 43.5t-31 47.5t-20.5 54.5t-5.5 62t7 71q32 169 184 268t408 99q257 0 363 -104t69 -302h-204q30 153 -37 245t-222 95q-140 3 -233 -64 t-115 -181z" />
<glyph unicode="T" horiz-adv-x="1347" d="M225 1354l17 80h1257l-16 -80h-527l-262 -1354h-205l263 1354h-527z" />
<glyph unicode="U" horiz-adv-x="1536" d="M1300 532l177 902h82l-175 -891q-50 -254 -231.5 -406.5t-447.5 -152.5q-268 0 -413 154t-95 405l174 891h204l-176 -902q-21 -116 -0.5 -203.5t74.5 -146.5t131 -89t170 -30q88 0 170 28t154 83t125.5 147t76.5 211z" />
<glyph unicode="V" d="M469 1434l305 -1201l772 1201h105l-910 -1434h-112l-391 1434h231z" />
<glyph unicode="W" horiz-adv-x="2263" d="M1405 1434l242 -1174l665 1174h111l-811 -1434h-117l-215 989l-580 -989h-108l-354 1434h219l286 -1168l506 862l-65 306h221z" />
<glyph unicode="X" horiz-adv-x="1415" d="M504 1434l317 -590l555 590h101l-615 -664l416 -770h-248l-348 645l-602 -645h-100l661 719l-383 715h246z" />
<glyph unicode="Y" horiz-adv-x="1298" d="M485 0l119 614l-366 820h241l307 -670l570 670h98l-631 -746l-133 -688h-205z" />
<glyph unicode="Z" horiz-adv-x="1310" d="M-10 37l1171 1317h-882l16 80h1143l2 -37l-1172 -1319h895l-14 -78h-1155z" />
<glyph unicode="[" horiz-adv-x="763" d="M41 -307l358 1843h516l-14 -80h-319l-328 -1683h319l-16 -80h-516z" />
<glyph unicode="\" horiz-adv-x="960" d="M307 1536l510 -1843h-92l-510 1843h92z" />
<glyph unicode="]" horiz-adv-x="761" d="M434 -307h-516l16 80h316l328 1683h-318l16 80h517z" />
<glyph unicode="^" horiz-adv-x="1081" d="M297 993h-96l432 441h209l258 -441h-94l-289 342z" />
<glyph unicode="_" horiz-adv-x="1024" d="M1024 -186h-1024v84h1024v-84z" />
<glyph unicode="`" horiz-adv-x="645" d="M688 1118h-82l-313 342h217z" />
<glyph unicode="a" horiz-adv-x="1308" d="M1192 983l-145 -739q-14 -78 4.5 -115t70.5 -37q30 0 61 12t47 24l15 11l-14 -78q-3 -3 -8.5 -8t-25 -18t-41.5 -23t-57.5 -18t-72.5 -8q-89 0 -126.5 46.5t-25.5 143.5q-153 -190 -387 -190q-206 0 -313.5 142t-64.5 361q43 221 206.5 364.5t370.5 143.5q113 0 190 -47 t115 -133l92 166h109zM903 492q38 197 -16 314.5t-185 117.5q-134 0 -242.5 -120t-146.5 -315q-38 -193 24 -311.5t195 -118.5t233 117.5t138 315.5z" />
<glyph unicode="b" horiz-adv-x="1261" d="M92 0l297 1536h199l-131 -674q141 135 334 135q210 0 316.5 -141.5t63.5 -363.5q-41 -220 -204 -363t-373 -143q-223 0 -305 178l-90 -164h-107zM379 492q-39 -198 14.5 -315.5t186.5 -117.5t242 120t147 313q38 195 -24 313.5t-197 118.5q-131 0 -231 -117.5 t-138 -314.5z" />
<glyph unicode="c" horiz-adv-x="1136" d="M315 500q-36 -187 40.5 -293.5t240.5 -106.5q59 0 119 14t104.5 33.5t80.5 40t54.5 34t18.5 14.5l-15 -78q0 -2 -19 -19t-59 -42.5t-90.5 -50.5t-124 -42.5t-149.5 -17.5q-226 0 -338 141t-69 362q43 223 209 365.5t384 142.5q169 0 281 -89.5t109 -241.5h-177 q-1 120 -61.5 191t-153.5 71q-130 0 -240.5 -124t-144.5 -304z" />
<glyph unicode="d" horiz-adv-x="1308" d="M688 997q191 0 279 -135l131 674h200l-254 -1307q-13 -79 5 -115t71 -36q30 0 61 11t47 23l15 11l-12 -62q-3 -3 -8.5 -8t-25 -18t-41.5 -23t-57.5 -18t-72.5 -8q-89 0 -126.5 46.5t-25.5 143.5q-71 -90 -168.5 -140t-213.5 -50q-210 0 -317 142.5t-66 363.5 q43 221 205.5 363t373.5 142zM903 492q38 197 -16 314.5t-185 117.5q-135 0 -243 -118.5t-146 -313.5q-38 -193 24.5 -313t197.5 -120q131 0 230.5 117.5t137.5 315.5z" />
<glyph unicode="e" horiz-adv-x="1169" d="M1079 700q-19 -93 -93 -148t-238 -84t-441 -30q-17 -164 64.5 -251t238.5 -87q100 0 197 33t145 65l47 33l-14 -79q-7 -7 -20.5 -18t-58.5 -39.5t-94.5 -50.5t-127.5 -40t-158 -18q-236 0 -347.5 141.5t-69.5 361.5q44 223 213 364.5t415 141.5q190 0 278.5 -81 t63.5 -214zM715 928q-93 0 -177.5 -60.5t-139.5 -151t-79 -194.5q221 1 348.5 22.5t177.5 58.5t62 99q20 103 -32.5 164.5t-159.5 61.5z" />
<glyph unicode="f" horiz-adv-x="778" d="M573 1231l-49 -248h295l-14 -76h-295l-199 -1020q-76 -413 -374 -413q-39 0 -75.5 7t-60 17t-41.5 20.5t-26 17.5l-8 7l43 64q57 -33 127 -33q75 0 128 64t85 223l202 1046h-141l14 76h142l39 201q35 180 128.5 269t235.5 89q44 0 82 -8.5t61 -21t39 -25t23 -21.5l6 -8 l-41 -49q-6 5 -17 12t-44.5 19t-67.5 12q-70 0 -121.5 -53.5t-75.5 -167.5z" />
<glyph unicode="g" horiz-adv-x="1257" d="M784 -82l39 201q-139 -133 -336 -133q-206 0 -313.5 142t-64.5 361q43 221 206.5 364.5t370.5 143.5q113 0 190 -47t115 -133l92 166h109l-205 -1055q-41 -212 -198 -333t-377 -121q-188 0 -301.5 89t-112.5 242h178q2 -120 64 -192t168 -72q137 0 239 99.5t137 277.5z M903 492q38 197 -16 314.5t-185 117.5q-134 0 -242.5 -120t-146.5 -315q-38 -193 24 -311.5t195 -118.5t233 117.5t138 315.5z" />
<glyph unicode="h" horiz-adv-x="1269" d="M92 0l297 1536h199l-137 -702q80 77 181.5 120t209.5 43q167 0 247.5 -94t49.5 -250l-125 -653h-201l123 633q26 136 -16 213.5t-144 77.5q-111 0 -217 -93.5t-158 -252.5l-110 -578h-199z" />
<glyph unicode="i" horiz-adv-x="598" d="M315 1286q9 52 53 88.5t97 36.5q52 0 81.5 -36t20.5 -89q-10 -52 -54 -88.5t-97 -36.5t-82 36.5t-19 88.5zM139 246l144 737h198l-145 -754q-15 -78 3.5 -114.5t70.5 -36.5q30 0 61.5 11t47.5 23l16 11l-13 -62q-3 -3 -8.5 -8t-25.5 -18t-42 -23t-57.5 -18t-73.5 -8 q-111 0 -156.5 66t-19.5 194z" />
<glyph unicode="j" horiz-adv-x="555" d="M489 983l-213 -1096q-42 -220 -137 -316.5t-235 -96.5q-40 0 -77 7t-61 17t-42 20.5t-26 17.5l-9 7l45 64q57 -33 127 -33q75 0 128 64t83 223l219 1122h198zM324 1286q9 52 52.5 88.5t96.5 36.5q52 0 81.5 -36t20.5 -89q-10 -52 -54 -88.5t-97 -36.5q-52 0 -81 36.5 t-19 88.5z" />
<glyph unicode="k" horiz-adv-x="1087" d="M737 0l-354 471l-92 -471h-199l297 1536h199l-187 -969q120 73 214.5 143t143.5 117.5t81 84t40 54.5l9 17h145q-1 -5 -5.5 -16t-32.5 -49.5t-71.5 -83t-134.5 -118.5t-210 -155l385 -561h-228z" />
<glyph unicode="l" horiz-adv-x="598" d="M139 246l250 1290h199l-252 -1307q-15 -78 3.5 -114.5t70.5 -36.5q30 0 61.5 11t47.5 23l16 11l-13 -62q-3 -3 -8.5 -8t-25.5 -18t-42 -23t-57.5 -18t-73.5 -8q-111 0 -156.5 66t-19.5 194z" />
<glyph unicode="m" horiz-adv-x="1943" d="M795 924q-102 0 -193 -86.5t-143 -237.5l-117 -600h-199l144 754q29 151 -74 151q-30 0 -61.5 -11.5t-47.5 -23.5l-16 -12l14 62l8.5 8.5t25.5 18.5t42 23t57.5 18.5t73.5 8.5q176 0 185 -161q155 161 366 161q114 0 186 -51t93 -141q77 92 179 142t216 50 q158 0 233.5 -95t44.5 -249l-124 -653h-201l123 633q28 139 -9.5 215t-132.5 76q-107 0 -202.5 -95t-143.5 -260l-108 -569h-201l123 633q28 139 -9 215t-132 76z" />
<glyph unicode="n" horiz-adv-x="1320" d="M827 924q-109 0 -212.5 -89t-157.5 -241l-115 -594h-199l144 754q29 151 -74 151q-30 0 -61.5 -11.5t-47.5 -23.5l-16 -12l14 62l8.5 8.5t25.5 18.5t42 23t57.5 18.5t73.5 8.5q89 0 136.5 -43.5t48.5 -128.5q80 82 183 127t216 45q167 0 247.5 -94t49.5 -250l-125 -653 h-201l123 633q26 136 -16 213.5t-144 77.5z" />
<glyph unicode="o" horiz-adv-x="1206" d="M109 492q43 221 213.5 363t390.5 142q146 0 249 -66t144.5 -182t13.5 -260q-43 -220 -212 -361.5t-390 -141.5t-336.5 142.5t-72.5 363.5zM313 492q-38 -195 23 -317t194 -122q132 0 241 122t147 317q38 192 -24 314t-194 122q-133 0 -241 -120.5t-146 -315.5z" />
<glyph unicode="p" horiz-adv-x="1308" d="M649 -14q-194 0 -284 133l-123 -631h-199l244 1266q29 151 -74 151q-30 0 -61.5 -11.5t-47.5 -23.5l-16 -12l14 62q3 3 9 8.5t25.5 18.5t42 23t58 18.5t72.5 8.5q176 0 146 -194q153 194 389 194q137 0 233.5 -68t134.5 -184.5t11 -257.5q-41 -216 -204.5 -358.5 t-369.5 -142.5zM430 492q-38 -197 16 -315t185 -118q135 0 243 118.5t146 311.5t-25 314t-196 121t-231.5 -117t-137.5 -315z" />
<glyph unicode="q" horiz-adv-x="1257" d="M1192 983l-291 -1495h-201l121 631q-139 -133 -334 -133q-206 0 -313.5 142.5t-64.5 363.5q43 218 206 361.5t369 143.5q114 0 191.5 -47t115.5 -133l92 166h109zM903 492q38 197 -16 314.5t-185 117.5q-134 0 -242.5 -120.5t-146.5 -314.5q-38 -193 24 -311.5 t195 -118.5t233 117.5t138 315.5z" />
<glyph unicode="r" horiz-adv-x="874" d="M811 840q-114 0 -212 -70.5t-148 -212.5l-109 -557h-199l144 754q29 151 -74 151q-30 0 -61.5 -11.5t-47.5 -23.5l-16 -12l14 62l8.5 8.5t25.5 18.5t42 23t57.5 18.5t73.5 8.5q97 0 144 -51t41 -149q87 94 196 147t225 53l-34 -172q-21 15 -70 15z" />
<glyph unicode="s" horiz-adv-x="1017" d="M360 772q-8 -38 2 -66.5t53 -57t66 -39.5t102 -44q30 -13 46 -20q70 -31 113.5 -57.5t77.5 -61t44.5 -76.5t-0.5 -96q-25 -125 -139 -195.5t-299 -70.5q-195 0 -284 79t-66 228h188q-22 -111 27 -175.5t158 -64.5q86 0 151.5 41t79.5 121q3 17 3.5 32t-3.5 28.5t-9 24.5 t-17.5 23t-22.5 21t-30 20.5t-35 20t-42.5 20.5t-47.5 21t-54 23q-26 11 -44 18.5t-41.5 18.5t-39 20t-34 21t-30.5 24t-24.5 26.5t-18.5 30.5t-10.5 34.5t-4.5 39.5t5 45q24 121 136 193.5t290 72.5q177 0 265.5 -74t62.5 -216h-184q21 106 -29 163.5t-146 57.5 q-90 0 -146 -44.5t-69 -109.5z" />
<glyph unicode="t" horiz-adv-x="849" d="M170 907l14 76h140l36 184l215 72l-51 -256h355l-15 -76h-354l-123 -641q-17 -87 16.5 -135.5t114.5 -48.5q47 0 92 18.5t66 37.5l22 18l23 -37q-4 -6 -11 -15t-32.5 -32.5t-56.5 -41.5t-82.5 -33t-108.5 -15q-138 0 -203.5 76t-40.5 202l123 647h-139z" />
<glyph unicode="u" horiz-adv-x="1320" d="M518 59q112 0 217.5 92t157.5 252l113 580h198l-145 -754q-15 -78 3.5 -114.5t70.5 -36.5q30 0 61 11t47 23l16 11l-12 -62q-3 -3 -8.5 -8t-25.5 -18t-42 -23t-57.5 -18t-73.5 -8q-183 0 -186 172q-80 -82 -183 -127t-216 -45q-166 0 -247 94.5t-50 249.5l127 653h198 l-123 -633q-26 -137 15 -214t145 -77z" />
<glyph unicode="v" horiz-adv-x="1142" d="M397 983l193 -760q92 120 173.5 242.5t131.5 211.5t86.5 160.5t52.5 108.5l15 37h116q-5 -15 -16.5 -43.5t-58.5 -125.5t-108 -203t-172.5 -272.5t-244.5 -338.5h-112l-277 983h221z" />
<glyph unicode="w" horiz-adv-x="1708" d="M1176 0h-107l-141 571q-140 -258 -379 -571h-107l-266 983h219l183 -754q197 267 311 506l-62 248h211l166 -750q84 118 157.5 239t117.5 208t76.5 159t45.5 107t13 37h115q-4 -15 -13.5 -43.5t-51 -125.5t-97 -203t-160 -272.5t-231.5 -338.5z" />
<glyph unicode="x" horiz-adv-x="1069" d="M410 983l184 -348l338 348h135l-420 -446l285 -537h-227l-216 401l-380 -401h-138l465 502l-256 481h230z" />
<glyph unicode="y" horiz-adv-x="1132" d="M391 983l207 -752q128 198 234.5 386t149.5 277l42 89h129q-12 -28 -36 -78t-110 -211t-185.5 -327t-264.5 -408t-346 -471h-150q209 261 392 524l-287 971h225z" />
<glyph unicode="z" horiz-adv-x="1107" d="M18 37l824 866h-645l16 80h897l-8 -37l-823 -868h655l-14 -78h-908z" />
<glyph unicode="{" horiz-adv-x="780" d="M117 584l12 59q2 0 23.5 5.5t29 7.5t28.5 8.5t31.5 12t27.5 16t26 21t17.5 26t11.5 32.5l84 434q35 172 174 261t356 89l-14 -81q-62 0 -108.5 -11.5t-90 -41t-73.5 -86t-46 -140.5l-80 -414q-14 -69 -87.5 -116t-139.5 -54q63 -7 118.5 -53t43.5 -115l-80 -411 q-30 -154 26 -217.5t181 -63.5l-17 -80q-213 0 -319 92t-74 259l84 432q4 23 -2 42t-14.5 30t-30.5 22.5t-31.5 15t-37.5 11.5t-29 8z" />
<glyph unicode="|" horiz-adv-x="471" d="M188 -307v1843h93v-1843h-93z" />
<glyph unicode="}" horiz-adv-x="780" d="M735 643l-10 -59q-2 0 -21 -4.5t-25.5 -6.5t-25.5 -7.5t-28 -10t-25 -12t-25 -16t-19.5 -19t-16.5 -24t-9 -29.5l-84 -432q-35 -172 -175 -261.5t-357 -89.5l16 80q61 0 108 12t90 41.5t73.5 86.5t46.5 141l80 411q14 69 87 115t140 53q-28 3 -58 16t-56.5 33.5 t-40.5 52.5t-7 68l80 414q30 154 -26 217.5t-181 63.5l15 79q213 0 320 -92.5t75 -257.5l-84 -434q-4 -23 2 -42t15 -30.5t30 -22.5t31.5 -14.5t36 -11t28.5 -8.5z" />
<glyph unicode="~" horiz-adv-x="1093" d="M442 741q59 0 125.5 -28t129 -56t110.5 -28q38 0 90.5 27.5t85.5 55.5l33 27l-15 -77q-5 -7 -15 -18.5t-40.5 -40.5t-60.5 -51.5t-73 -41t-81 -18.5q-55 0 -126 28.5t-136.5 57t-106.5 28.5q-43 0 -96 -30t-84 -60l-32 -29l14 78q5 7 14 19t38 42.5t60 53.5t76.5 42 t89.5 19z" />
<glyph unicode="&#xa1;" horiz-adv-x="546" d="M6 -436l215 999h158l-174 -999h-199zM238 887q11 53 54 89t95 36q53 0 82 -36t18 -89q-9 -52 -52.5 -88.5t-96.5 -36.5q-52 0 -81 36.5t-19 88.5z" />
<glyph unicode="&#xa2;" horiz-adv-x="1150" d="M453 -135l22 123q-206 12 -306.5 150.5t-59.5 350.5q41 214 197.5 354.5t363.5 151.5l24 123h92l-24 -125q146 -16 239.5 -103t90.5 -224h-162q-2 107 -49.5 175t-132.5 83l-158 -826q62 1 124.5 15t107 34t80 40.5t53.5 34t18 14.5l-15 -78q0 -2 -17 -17t-52 -38.5 t-79.5 -47t-109.5 -43t-133 -24.5l-22 -123h-92zM299 504q-32 -161 17.5 -267t183.5 -131l157 818q-131 -17 -227.5 -131.5t-130.5 -288.5z" />
<glyph unicode="&#xa3;" horiz-adv-x="1257" d="M1042 1020q17 86 -4.5 164t-81.5 129t-147 51q-120 0 -215 -82t-119 -211q-15 -80 6 -208t21 -179h360l-16 -86h-352q0 -3 -1 -8.5t-1 -7.5q-7 -36 -19.5 -78t-29 -84t-32 -80t-34.5 -77.5t-31 -64t-26 -52.5t-15 -31h754l-23 -115h-993l23 115h88q131 303 163 458l5 25 h-162l16 86h150q-3 45 -19 93t-29.5 79t-21.5 83t4 105q16 80 63.5 153t118.5 129t169.5 89t209.5 33q114 0 203 -34.5t140.5 -93.5t71.5 -136.5t3 -163.5h-197z" />
<glyph unicode="&#xa4;" horiz-adv-x="968" d="M184 614q21 121 113 213l-107 134l70 59l107 -135q104 71 227 71q118 0 197 -69l157 131l47 -57l-155 -134q52 -85 30 -213q-23 -120 -112 -215l104 -129l-69 -57l-105 129q-109 -72 -227 -72q-123 0 -201 72l-154 -129l-47 57l154 131q-53 91 -29 213zM279 614 q-20 -106 37 -176.5t163 -70.5t190.5 70.5t104.5 176.5q20 105 -37 176.5t-162 71.5q-106 0 -191 -71t-105 -177z" />
<glyph unicode="&#xa5;" horiz-adv-x="1300" d="M485 0l39 207h-258l17 84h258l39 194h-261l17 82h260l8 47l-366 820h241l307 -670l570 670h98l-631 -746l-22 -121h262l-16 -82h-263l-39 -194h265l-17 -84h-264l-39 -207h-205z" />
<glyph unicode="&#xa6;" horiz-adv-x="471" d="M188 -307v819h93v-819h-93zM281 1536v-819h-93v819h93z" />
<glyph unicode="&#xa7;" horiz-adv-x="1247" d="M449 1151q-10 -47 -0.5 -81.5t54.5 -68t80 -52.5t128 -63q69 -33 108 -52q205 -99 279 -184t49 -214q-25 -122 -113 -202.5t-237 -112.5q42 -22 72 -39t59 -36.5t45.5 -37t32.5 -39.5t19.5 -44t6.5 -51t-6 -60q-31 -162 -180.5 -251t-394.5 -89q-272 0 -385.5 111 t-83.5 309h213q-29 -154 45 -247t243 -93q126 0 221.5 55t116.5 160q10 50 -0.5 86t-58 71.5t-84.5 55t-132 63.5q-59 28 -91 43q-36 17 -63.5 31t-58 31t-53.5 32t-46.5 33t-39.5 35.5t-31 38t-23.5 42.5t-14 46.5t-5 52t6.5 57.5q22 115 110 197t234 115 q-33 16 -57.5 29.5t-49.5 29t-43 31t-34 33.5t-25 37.5t-14.5 42t-5.5 48.5t6 56q30 156 180 249t389 93q245 0 354 -102t74 -295h-211q26 144 -41 228.5t-215 88.5q-133 4 -221.5 -56.5t-107.5 -160.5zM311 526q-21 -101 60.5 -169.5t298.5 -176.5q104 13 188 71t103 148 q9 51 -9.5 94.5t-69.5 85.5t-115 78t-167 84q-118 -9 -196 -68.5t-93 -146.5z" />
<glyph unicode="&#xa8;" horiz-adv-x="837" d="M260 1288q7 42 43 72.5t78 30.5t66.5 -30.5t15.5 -72.5q-7 -41 -43.5 -70.5t-79.5 -29.5q-41 0 -65 29.5t-15 70.5zM711 1288q7 43 43 73t77 30q42 0 66.5 -30.5t15.5 -72.5q-7 -41 -43 -70.5t-79 -29.5q-41 0 -65 29.5t-15 70.5z" />
<glyph unicode="&#xa9;" horiz-adv-x="1701" d="M174 717q39 204 167 371.5t313.5 263.5t389.5 96t352 -96t209.5 -263.5t22.5 -371.5t-166 -372t-312.5 -264.5t-389.5 -96.5t-352.5 96.5t-210.5 264.5t-23 372zM260 717q-29 -138 -1.5 -256t94.5 -205t176.5 -136.5t244.5 -49.5q181 0 344.5 84.5t275.5 233t148 329.5 q29 137 1 255t-94.5 204.5t-177 136t-245.5 49.5q-180 0 -343 -84.5t-275 -232.5t-148 -328zM666 715q-29 -155 21.5 -249.5t156.5 -94.5q82 0 156 58.5t114 164.5h148q-46 -127 -170.5 -205t-268.5 -78q-174 0 -265.5 113.5t-57.5 290.5q35 175 170 288t307 113 q144 0 238 -79.5t92 -198.5h-146q-2 96 -53.5 158.5t-132.5 62.5q-104 0 -191.5 -95.5t-117.5 -248.5z" />
<glyph unicode="&#xaa;" horiz-adv-x="821" d="M866 1434l-86 -439q-18 -90 45 -90q17 0 35 6.5t28 13.5l9 7l-10 -51q-5 -5 -15 -13t-43.5 -21t-70.5 -13q-106 0 -94 106q-88 -106 -226 -106q-123 0 -186.5 86t-38.5 217q26 133 123.5 219t220.5 86q127 0 178 -101l60 93h71zM678 1139q23 117 -6 186.5t-101 69.5 q-74 0 -136 -71t-85 -187q-21 -115 12.5 -184.5t106.5 -69.5t129.5 68.5t79.5 187.5z" />
<glyph unicode="&#xab;" horiz-adv-x="956" d="M483 283l-16 -80l-363 319l15 66l485 321l-14 -82l-332 -272zM852 283l-16 -80l-363 319l14 66l486 321l-15 -82l-331 -272z" />
<glyph unicode="&#xac;" horiz-adv-x="972" d="M762 422v194h-635v82h717v-276h-82z" />
<glyph unicode="&#xad;" horiz-adv-x="716" d="M614 506h-512v82h512v-82z" />
<glyph unicode="&#xae;" horiz-adv-x="1701" d="M174 717q39 204 167 371.5t313.5 263.5t389.5 96t352 -96t209.5 -263.5t22.5 -371.5t-166 -372t-312.5 -264.5t-389.5 -96.5t-352.5 96.5t-210.5 264.5t-23 372zM260 717q-29 -138 -1.5 -256t94.5 -205t176.5 -136.5t244.5 -49.5q181 0 344.5 84.5t275.5 233t148 329.5 q29 137 1 255t-94.5 204.5t-177 136t-245.5 49.5q-180 0 -343 -84.5t-275 -232.5t-148 -328zM555 369l61 309l2 8l78 399h283q132 0 201.5 -54.5t50.5 -147.5q-13 -69 -66.5 -118t-136.5 -71l152 -325h-181l-143 309h-70l-61 -309h-170zM922 1026h-68l-57 -289h69 q74 0 125 36.5t64 107.5q14 71 -22.5 108t-110.5 37z" />
<glyph unicode="&#xaf;" horiz-adv-x="737" d="M809 1270h-553l16 82h553z" />
<glyph unicode="&#xb0;" horiz-adv-x="663" d="M242 1204q22 103 104.5 173.5t183.5 70.5q103 0 158 -70.5t33 -173.5q-20 -105 -102.5 -175.5t-184.5 -70.5q-101 0 -156.5 71t-35.5 175zM330 1204q-12 -68 22.5 -112.5t100.5 -44.5q65 0 117.5 45t64.5 112q12 66 -22.5 112t-98.5 46q-66 0 -119 -46t-65 -112z" />
<glyph unicode="&#xb1;" horiz-adv-x="972" d="M854 748h-315v-316h-82v316h-320v83h320v316h82v-316h315v-83zM854 205h-717v84h717v-84z" />
<glyph unicode="&#xb2;" horiz-adv-x="655" d="M133 717l17 90q2 9 48 40t111 75.5t131.5 96.5t118 116t62.5 122q11 57 -17 97.5t-82 40.5q-62 0 -112.5 -53.5t-63.5 -118.5h-113q16 90 98 154.5t201 64.5q115 0 169 -61t38 -144q-12 -62 -68 -126t-128 -112.5t-142.5 -88.5t-120 -67t-51.5 -36h430l-16 -90h-510z" />
<glyph unicode="&#xb3;" horiz-adv-x="700" d="M176 905h113q0 -3 -0.5 -8.5t1 -21t5 -30t13 -32t23 -30t36.5 -21t53 -8.5q75 0 121 45.5t59 118.5q16 81 -27.5 124t-160.5 43l10 48l246 215h-365l16 86h461l-14 -62l-283 -242q137 -9 197 -59t41 -143q-20 -104 -106.5 -161.5t-206.5 -57.5q-50 0 -90 11t-63.5 28 t-40.5 38t-24 42t-10.5 38t-3.5 28v11z" />
<glyph unicode="&#xb4;" horiz-adv-x="1118" d="M485 1118h-82l310 342h217z" />
<glyph unicode="&#xb6;" horiz-adv-x="1384" d="M1022 1434l-162 -832l-2 -8l-176 -901h-154l177 901q-236 0 -355 115t-82 305q36 189 196.5 304.5t395.5 115.5h162zM1382 1434l-340 -1741h-153l340 1741h153z" />
<glyph unicode="&#xb7;" horiz-adv-x="432" d="M129 614q9 52 52.5 88.5t94.5 36.5q53 0 83 -36.5t20 -88.5q-9 -52 -53 -88.5t-97 -36.5t-82 36.5t-18 88.5z" />
<glyph unicode="&#xb8;" horiz-adv-x="532" d="M135 0h82l-29 -96q63 0 99 -40t24 -104q-14 -68 -73 -104.5t-132 -36.5q-81 0 -118 39.5t-27 95.5l80 2v-7t3.5 -15t10 -19t22 -15t36.5 -7q36 0 60 20t32 54q8 48 -26 69t-89 21z" />
<glyph unicode="&#xb9;" horiz-adv-x="471" d="M254 1311l188 123h99l-140 -717h-116l121 626l-166 -110z" />
<glyph unicode="&#xba;" horiz-adv-x="757" d="M215 1139q25 132 126.5 217.5t233.5 85.5q133 0 202 -86t44 -219q-26 -131 -128.5 -217t-233.5 -86q-133 0 -201.5 86.5t-42.5 218.5zM352 1139q-23 -117 9.5 -188.5t105.5 -71.5t133.5 71.5t83.5 188.5q23 114 -10.5 186t-106.5 72t-133.5 -71t-81.5 -187z" />
<glyph unicode="&#xbb;" horiz-adv-x="946" d="M401 203l17 80l332 272l-226 272l15 82l362 -321l-14 -66zM33 203l16 80l332 272l-225 272l14 82l362 -321l-14 -66z" />
<glyph unicode="&#xbc;" horiz-adv-x="1357" d="M104 0l1139 1434h98l-1140 -1434h-97zM1012 0l32 172h-346l7 29q11 10 28.5 28.5t65.5 76.5t87 116t78 139.5t54 155.5h117q-13 -65 -55 -139.5t-85 -129t-99 -112.5t-76.5 -76.5t-39.5 -34.5h275l39 205l45 62h84l-52 -267h91l-11 -53h-90l-33 -172h-116zM254 1311 l188 123h99l-140 -717h-116l121 626l-166 -110z" />
<glyph unicode="&#xbd;" horiz-adv-x="1404" d="M741 0l17 90q2 9 48 40t111 75.5t131.5 97t118 116.5t62.5 122q11 57 -17 97t-82 40q-62 0 -112.5 -53.5t-63.5 -118.5h-112q16 90 98 154.5t201 64.5q115 0 169 -61t38 -144q-12 -62 -68 -126t-128 -112.5t-142.5 -88.5t-120 -67t-51.5 -36h430l-17 -90h-510zM94 0 l1139 1434h98l-1141 -1434h-96zM254 1311l188 123h99l-140 -717h-116l121 626l-166 -110z" />
<glyph unicode="&#xbe;" horiz-adv-x="1511" d="M258 0l1139 1434h98l-1141 -1434h-96zM176 905h113q0 -3 -0.5 -8.5t1 -21t5 -30t13 -32t23 -30t36.5 -21t53 -8.5q75 0 121 45.5t59 118.5q16 81 -27.5 124t-160.5 43l10 48l246 215h-365l16 86h461l-14 -62l-283 -242q137 -9 197 -59t41 -143q-20 -104 -106.5 -161.5 t-206.5 -57.5q-50 0 -90 11t-63.5 28t-40.5 38t-24 42t-10.5 38t-3.5 28v11zM1165 0l33 172h-346l6 29q11 10 28.5 28.5t65.5 76.5t87 116t78 139.5t54 155.5h117q-13 -65 -55 -139.5t-84.5 -129t-98.5 -112.5t-77 -77t-39 -34h274l39 205l45 62h84l-51 -267h90l-10 -53h-90 l-33 -172h-117z" />
<glyph unicode="&#xbf;" horiz-adv-x="1267" d="M852 887q-9 -52 -53 -88.5t-97 -36.5q-52 0 -81 36.5t-19 88.5q11 53 54 89t96 36q52 0 81 -36t19 -89zM741 563l-61 -360q-227 -83 -330.5 -160.5t-124.5 -185.5q-21 -110 38.5 -176t191.5 -66q141 0 234.5 91t125.5 259h205q-39 -200 -180 -308t-387 -108 q-239 0 -345.5 98.5t-74.5 262.5q29 148 152.5 239.5t349.5 165.5l51 248h155z" />
<glyph unicode="&#xc0;" d="M1141 0l-111 428h-692l-275 -428h-104l909 1434h113l391 -1434h-231zM831 1198l-442 -690h621zM1075 1569h-80l-313 342h217z" />
<glyph unicode="&#xc1;" d="M1141 0l-111 428h-692l-275 -428h-104l909 1434h113l391 -1434h-231zM831 1198l-442 -690h621zM901 1569h-82l311 342h218z" />
<glyph unicode="&#xc2;" d="M1141 0l-111 428h-692l-275 -428h-104l909 1434h113l391 -1434h-231zM831 1198l-442 -690h621zM676 1569h-82l334 352h178l194 -352h-79l-222 266z" />
<glyph unicode="&#xc3;" d="M1141 0l-111 428h-692l-275 -428h-104l909 1434h113l391 -1434h-231zM831 1198l-442 -690h621zM879 1868q52 0 102 -21t94.5 -42t83.5 -21q32 0 79.5 25t78.5 50l31 25l-15 -78l-17 -17t-41.5 -38.5t-59 -48.5t-63.5 -38t-60 -17q-58 0 -149.5 43t-129.5 43 q-36 0 -83.5 -27.5t-77.5 -54.5l-29 -27l14 78q6 7 16.5 18t40.5 39.5t58.5 50.5t64 40t62.5 18z" />
<glyph unicode="&#xc4;" d="M1141 0l-111 428h-692l-275 -428h-104l909 1434h113l391 -1434h-231zM831 1198l-442 -690h621zM655 1739q7 42 43 72t78 30q43 0 67 -29.5t15 -72.5q-7 -41 -43.5 -71t-77.5 -30t-65.5 30t-16.5 71zM1106 1739q7 42 43 72t78 30q43 0 67 -29.5t15 -72.5q-7 -41 -43.5 -71 t-77.5 -30t-65.5 30t-16.5 71z" />
<glyph unicode="&#xc5;" d="M1141 0l-111 428h-692l-275 -428h-104l909 1434h113l391 -1434h-231zM831 1198l-442 -690h621zM776 1759q17 86 90.5 147.5t159.5 61.5q87 0 136 -61t32 -148q-17 -88 -89.5 -148.5t-160.5 -60.5q-87 0 -136 61t-32 148zM862 1759q-9 -53 20 -88t81 -35q51 0 92.5 35.5 t50.5 87.5q11 51 -17 86t-79 35q-52 0 -94.5 -35t-53.5 -86z" />
<glyph unicode="&#xc6;" horiz-adv-x="1699" d="M604 0l82 428h-356l-287 -428h-106l946 1434h860l-17 -80h-655l-113 -582h594l-16 -80h-594l-119 -612h676l-14 -80h-881zM383 508h319l132 672z" />
<glyph unicode="&#xc7;" horiz-adv-x="1527" d="M1237 428h205q-56 -146 -160 -245.5t-234.5 -147t-287.5 -51.5l-23 -80q63 0 99 -40t24 -104q-14 -68 -73 -104.5t-132 -36.5q-81 0 -118 39.5t-27 95.5l80 2v-7t3.5 -15t10 -19t22 -15t36.5 -7q36 0 60 20t32 54q8 48 -26 69t-89 21l39 129q-110 6 -200.5 36t-153.5 79 t-107.5 116t-64 146.5t-22 170t19.5 187.5q30 157 102.5 289.5t179.5 230t254 152.5t318 55q94 0 175.5 -16.5t149 -52t114.5 -87.5t71.5 -127.5t19.5 -167.5h-205q12 175 -80.5 276t-269.5 101q-101 0 -191.5 -37t-159 -99.5t-123.5 -147t-90.5 -178t-54.5 -193.5 q-18 -105 -19.5 -201.5t25 -181t72 -146.5t122 -97.5t175.5 -35.5q171 0 305 95.5t197 275.5z" />
<glyph unicode="&#xc8;" horiz-adv-x="1339" d="M117 0l278 1434h1014l-16 -80h-809l-113 -582h748l-17 -80h-747l-119 -612h829l-14 -80h-1034zM1059 1569h-80l-313 342h217z" />
<glyph unicode="&#xc9;" horiz-adv-x="1339" d="M117 0l278 1434h1014l-16 -80h-809l-113 -582h748l-17 -80h-747l-119 -612h829l-14 -80h-1034zM823 1569h-80l312 342h217z" />
<glyph unicode="&#xca;" horiz-adv-x="1339" d="M117 0l278 1434h1014l-16 -80h-809l-113 -582h748l-17 -80h-747l-119 -612h829l-14 -80h-1034zM639 1569h-82l334 352h178l195 -352h-80l-221 266z" />
<glyph unicode="&#xcb;" horiz-adv-x="1339" d="M117 0l278 1434h1014l-16 -80h-809l-113 -582h748l-17 -80h-747l-119 -612h829l-14 -80h-1034zM616 1739q9 42 45 72t78 30q41 0 65 -29.5t17 -72.5q-8 -41 -44 -71t-79 -30q-41 0 -65.5 30t-16.5 71zM1067 1739q9 42 45 72t78 30q41 0 65 -29.5t17 -72.5q-8 -41 -44 -71 t-79 -30q-41 0 -65.5 30t-16.5 71z" />
<glyph unicode="&#xcc;" horiz-adv-x="604" d="M117 0l278 1434h205l-278 -1434h-205zM672 1569h-80l-313 342h217z" />
<glyph unicode="&#xcd;" horiz-adv-x="604" d="M117 0l278 1434h205l-278 -1434h-205zM457 1569h-82l311 342h217z" />
<glyph unicode="&#xce;" horiz-adv-x="604" d="M117 0l278 1434h205l-278 -1434h-205zM252 1569h-82l334 352h178l195 -352h-80l-222 266z" />
<glyph unicode="&#xcf;" horiz-adv-x="604" d="M117 0l278 1434h205l-278 -1434h-205zM229 1739q9 42 45 72t78 30q41 0 65 -29.5t17 -72.5q-8 -41 -44 -71t-79 -30q-41 0 -65.5 30t-16.5 71zM680 1739q9 42 45 72t78 30q41 0 65 -29.5t17 -72.5q-8 -41 -44 -71t-79 -30q-41 0 -65.5 30t-16.5 71z" />
<glyph unicode="&#xd0;" horiz-adv-x="1568" d="M143 0l131 676h-170l15 82h172l131 676h467q157 0 285 -52.5t212 -146.5t116.5 -231.5t0.5 -298.5q-39 -199 -155 -359t-293 -253t-383 -93h-529zM788 676h-311l-115 -596h324q135 0 259.5 75.5t217.5 218.5t129 328q38 195 -4.5 344t-151 228.5t-264.5 79.5h-262 l-116 -596h309z" />
<glyph unicode="&#xd1;" horiz-adv-x="1587" d="M420 1141l-221 -1141h-82l278 1434h82l803 -1141l221 1141h82l-278 -1434h-82zM965 1868q52 0 102 -21t94.5 -42t83.5 -21q32 0 79.5 25t78.5 50l31 25l-15 -78l-17 -17t-41.5 -38.5t-59 -48.5t-63.5 -38t-60 -17q-58 0 -149.5 43t-129.5 43q-36 0 -83.5 -27.5 t-77.5 -54.5l-29 -27l14 78q6 7 16.5 18t40.5 39.5t58.5 50.5t64 40t62.5 18z" />
<glyph unicode="&#xd2;" horiz-adv-x="1689" d="M174 717q39 207 165.5 374.5t312 262t392.5 94.5q155 0 279.5 -55t200 -153t106 -232t-1.5 -291q-41 -208 -166.5 -375.5t-310 -262.5t-391.5 -95q-155 0 -280 55.5t-201 153.5t-107 232.5t2 291.5zM387 717q-31 -145 -14.5 -266.5t67 -209t137 -136t195.5 -48.5 q147 0 280.5 83.5t230 234.5t134.5 342q36 191 -1.5 341t-139 233t-248.5 83q-223 0 -404.5 -184.5t-236.5 -472.5zM1214 1569h-81l-312 342h217z" />
<glyph unicode="&#xd3;" horiz-adv-x="1689" d="M174 717q39 207 165.5 374.5t312 262t392.5 94.5q155 0 279.5 -55t200 -153t106 -232t-1.5 -291q-41 -208 -166.5 -375.5t-310 -262.5t-391.5 -95q-155 0 -280 55.5t-201 153.5t-107 232.5t2 291.5zM387 717q-31 -145 -14.5 -266.5t67 -209t137 -136t195.5 -48.5 q147 0 280.5 83.5t230 234.5t134.5 342q36 191 -1.5 341t-139 233t-248.5 83q-223 0 -404.5 -184.5t-236.5 -472.5zM997 1569h-79l311 342h217z" />
<glyph unicode="&#xd4;" horiz-adv-x="1689" d="M174 717q39 207 165.5 374.5t312 262t392.5 94.5q155 0 279.5 -55t200 -153t106 -232t-1.5 -291q-41 -208 -166.5 -375.5t-310 -262.5t-391.5 -95q-155 0 -280 55.5t-201 153.5t-107 232.5t2 291.5zM387 717q-31 -145 -14.5 -266.5t67 -209t137 -136t195.5 -48.5 q147 0 280.5 83.5t230 234.5t134.5 342q36 191 -1.5 341t-139 233t-248.5 83q-223 0 -404.5 -184.5t-236.5 -472.5zM793 1569h-80l334 352h178l194 -352h-82l-219 266z" />
<glyph unicode="&#xd5;" horiz-adv-x="1689" d="M174 717q39 207 165.5 374.5t312 262t392.5 94.5q155 0 279.5 -55t200 -153t106 -232t-1.5 -291q-41 -208 -166.5 -375.5t-310 -262.5t-391.5 -95q-155 0 -280 55.5t-201 153.5t-107 232.5t2 291.5zM387 717q-31 -145 -14.5 -266.5t67 -209t137 -136t195.5 -48.5 q147 0 280.5 83.5t230 234.5t134.5 342q36 191 -1.5 341t-139 233t-248.5 83q-223 0 -404.5 -184.5t-236.5 -472.5zM995 1868q52 0 102 -21t95 -42t84 -21q32 0 79 25t78 50l31 25l-14 -78l-17 -17t-42 -38.5t-59.5 -48.5t-63.5 -38t-60 -17q-58 0 -149 43t-129 43 q-36 0 -83.5 -27.5t-77.5 -54.5l-30 -27l15 78q6 7 16.5 18t40.5 39.5t58 50.5t63.5 40t62.5 18z" />
<glyph unicode="&#xd6;" horiz-adv-x="1689" d="M174 717q39 207 165.5 374.5t312 262t392.5 94.5q155 0 279.5 -55t200 -153t106 -232t-1.5 -291q-41 -208 -166.5 -375.5t-310 -262.5t-391.5 -95q-155 0 -280 55.5t-201 153.5t-107 232.5t2 291.5zM387 717q-31 -145 -14.5 -266.5t67 -209t137 -136t195.5 -48.5 q147 0 280.5 83.5t230 234.5t134.5 342q36 191 -1.5 341t-139 233t-248.5 83q-223 0 -404.5 -184.5t-236.5 -472.5zM772 1739q7 42 43 72t78 30q43 0 67 -29.5t15 -72.5q-7 -41 -43.5 -71t-77.5 -30t-65.5 30t-16.5 71zM1223 1739q7 42 42.5 72t77.5 30q43 0 67 -29.5 t15 -72.5q-7 -41 -43 -71t-77 -30t-65.5 30t-16.5 71z" />
<glyph unicode="&#xd7;" horiz-adv-x="1013" d="M768 317l-264 263l-260 -261l-58 58l260 260l-264 266l60 58l264 -265l260 262l59 -57l-262 -262l262 -262z" />
<glyph unicode="&#xd8;" horiz-adv-x="1701" d="M354 -55l78 116q-160 90 -230 263.5t-28 392.5q39 207 165.5 374.5t312 262t392.5 94.5q152 0 281 -55l59 88h93l-84 -125q148 -93 211 -261t24 -378q-41 -208 -166.5 -375.5t-310 -262.5t-391.5 -95q-140 0 -258 45l-58 -84h-90zM387 717q-35 -185 -5 -326t118 -229 l764 1138q-99 74 -236 74q-223 0 -404.5 -184.5t-236.5 -472.5zM1417 717q31 172 5 306t-103 224l-760 -1132q92 -58 213 -58q147 0 280.5 83.5t230 234.5t134.5 342z" />
<glyph unicode="&#xd9;" horiz-adv-x="1566" d="M1315 532l176 902h82l-174 -891q-48 -253 -230 -406t-448 -153q-132 0 -238 40t-174.5 111.5t-95 177t-2.5 230.5l174 891h205l-176 -902q-21 -116 -1 -203.5t74 -146.5t131 -89t170 -30q88 0 170.5 28t154.5 83t125.5 147t76.5 211zM1143 1569h-82l-311 342h217z" />
<glyph unicode="&#xda;" horiz-adv-x="1566" d="M1315 532l176 902h82l-174 -891q-48 -253 -230 -406t-448 -153q-132 0 -238 40t-174.5 111.5t-95 177t-2.5 230.5l174 891h205l-176 -902q-21 -116 -1 -203.5t74 -146.5t131 -89t170 -30q88 0 170.5 28t154.5 83t125.5 147t76.5 211zM905 1569h-80l312 342h217z" />
<glyph unicode="&#xdb;" horiz-adv-x="1566" d="M1315 532l176 902h82l-174 -891q-48 -253 -230 -406t-448 -153q-132 0 -238 40t-174.5 111.5t-95 177t-2.5 230.5l174 891h205l-176 -902q-21 -116 -1 -203.5t74 -146.5t131 -89t170 -30q88 0 170.5 28t154.5 83t125.5 147t76.5 211zM741 1569h-79l333 352h179l194 -352 h-82l-219 266z" />
<glyph unicode="&#xdc;" horiz-adv-x="1566" d="M1315 532l176 902h82l-174 -891q-48 -253 -230 -406t-448 -153q-132 0 -238 40t-174.5 111.5t-95 177t-2.5 230.5l174 891h205l-176 -902q-21 -116 -1 -203.5t74 -146.5t131 -89t170 -30q88 0 170.5 28t154.5 83t125.5 147t76.5 211zM721 1739q7 42 43 72t78 30 q43 0 67 -29.5t15 -72.5q-7 -41 -43.5 -71t-77.5 -30t-65.5 30t-16.5 71zM1171 1739q7 42 43 72t78 30q43 0 67 -29.5t15 -72.5q-7 -41 -43.5 -71t-77.5 -30t-65.5 30t-16.5 71z" />
<glyph unicode="&#xdd;" horiz-adv-x="1298" d="M485 0l119 614l-366 820h241l307 -670l570 670h98l-631 -746l-133 -688h-205zM782 1569h-80l312 342h217z" />
<glyph unicode="&#xde;" horiz-adv-x="1304" d="M117 0l63 328l162 839l53 267h205l-53 -267h258q156 0 269 -52t163.5 -148t26.5 -219q-35 -188 -208 -304t-411 -116h-260l-63 -328h-205zM739 1087h-207l-131 -679h207q169 0 292.5 92t152.5 245q30 154 -58 248t-256 94z" />
<glyph unicode="&#xdf;" horiz-adv-x="1409" d="M612 748q12 60 40.5 108t63 77t74.5 60.5t74 58.5t62 72t39 101q21 103 -27.5 170t-149.5 67q-97 0 -168.5 -69t-97.5 -193l-231 -1200h-199l223 1153q35 184 157.5 291.5t315.5 107.5q186 0 281.5 -97t69.5 -232q-12 -64 -49 -115t-82 -86t-89.5 -69t-80.5 -79.5 t-47 -101.5q-8 -39 -2.5 -65.5t40 -51.5t55 -35t92.5 -40q52 -22 81 -35q69 -30 113.5 -56.5t78 -61t44 -77t-0.5 -96.5q-24 -125 -137.5 -195.5t-300.5 -70.5q-195 0 -284 78.5t-64 226.5h186q-20 -111 29 -174.5t158 -63.5q88 0 151.5 41t79.5 123q8 41 -1.5 70t-44.5 55 t-79.5 47.5t-124.5 56.5q-5 2 -8 3q-32 13 -53.5 23t-48 23t-43 23.5t-35 25.5t-29.5 29.5t-20.5 33.5t-13 39.5t-3 45.5t5.5 54z" />
<glyph unicode="&#xe0;" horiz-adv-x="1218" d="M1192 983l-148 -754q-13 -79 5 -115t71 -36q30 0 61 11t47 23l15 11l-12 -62q-3 -3 -8.5 -8t-25 -18t-41.5 -23t-57.5 -18t-72.5 -8q-89 0 -126.5 46.5t-25.5 143.5q-153 -190 -387 -190q-206 0 -313.5 142t-64.5 361q43 221 206.5 364.5t370.5 143.5q113 0 190 -47 t115 -133l92 166h109zM903 492q38 197 -16 314.5t-185 117.5q-134 0 -242.5 -120t-146.5 -315q-38 -193 24 -311.5t195 -118.5t233 117.5t138 315.5zM897 1118h-80l-315 342h217z" />
<glyph unicode="&#xe1;" horiz-adv-x="1218" d="M1192 983l-148 -754q-13 -79 5 -115t71 -36q30 0 61 11t47 23l15 11l-12 -62q-3 -3 -8.5 -8t-25 -18t-41.5 -23t-57.5 -18t-72.5 -8q-89 0 -126.5 46.5t-25.5 143.5q-153 -190 -387 -190q-206 0 -313.5 142t-64.5 361q43 221 206.5 364.5t370.5 143.5q113 0 190 -47 t115 -133l92 166h109zM903 492q38 197 -16 314.5t-185 117.5q-134 0 -242.5 -120t-146.5 -315q-38 -193 24 -311.5t195 -118.5t233 117.5t138 315.5zM682 1118h-80l309 342h217z" />
<glyph unicode="&#xe2;" horiz-adv-x="1218" d="M1192 983l-148 -754q-13 -79 5 -115t71 -36q30 0 61 11t47 23l15 11l-12 -62q-3 -3 -8.5 -8t-25 -18t-41.5 -23t-57.5 -18t-72.5 -8q-89 0 -126.5 46.5t-25.5 143.5q-153 -190 -387 -190q-206 0 -313.5 142t-64.5 361q43 221 206.5 364.5t370.5 143.5q113 0 190 -47 t115 -133l92 166h109zM903 492q38 197 -16 314.5t-185 117.5q-134 0 -242.5 -120t-146.5 -315q-38 -193 24 -311.5t195 -118.5t233 117.5t138 315.5zM477 1118h-82l332 352h178l197 -352h-80l-223 266z" />
<glyph unicode="&#xe3;" horiz-adv-x="1218" d="M1192 983l-148 -754q-13 -79 5 -115t71 -36q30 0 61 11t47 23l15 11l-12 -62q-3 -3 -8.5 -8t-25 -18t-41.5 -23t-57.5 -18t-72.5 -8q-89 0 -126.5 46.5t-25.5 143.5q-153 -190 -387 -190q-206 0 -313.5 142t-64.5 361q43 221 206.5 364.5t370.5 143.5q113 0 190 -47 t115 -133l92 166h109zM903 492q38 197 -16 314.5t-185 117.5q-134 0 -242.5 -120t-146.5 -315q-38 -193 24 -311.5t195 -118.5t233 117.5t138 315.5zM690 1417q52 0 101.5 -21t94 -42t83.5 -21q31 0 78 25.5t79 50.5l31 25l-16 -78q-6 -7 -16.5 -17.5t-41.5 -38t-59 -48.5 t-63 -38.5t-60 -17.5q-58 0 -149 43t-129 43q-36 0 -83.5 -27t-77.5 -54l-30 -27l14 77q6 7 16.5 18t41 39.5t59 50.5t64.5 40t63 18z" />
<glyph unicode="&#xe4;" horiz-adv-x="1218" d="M1192 983l-148 -754q-13 -79 5 -115t71 -36q30 0 61 11t47 23l15 11l-12 -62q-3 -3 -8.5 -8t-25 -18t-41.5 -23t-57.5 -18t-72.5 -8q-89 0 -126.5 46.5t-25.5 143.5q-153 -190 -387 -190q-206 0 -313.5 142t-64.5 361q43 221 206.5 364.5t370.5 143.5q113 0 190 -47 t115 -133l92 166h109zM903 492q38 197 -16 314.5t-185 117.5q-134 0 -242.5 -120t-146.5 -315q-38 -193 24 -311.5t195 -118.5t233 117.5t138 315.5zM905 1288q7 42 43 72.5t78 30.5t66.5 -30.5t15.5 -72.5q-7 -41 -43.5 -70.5t-79.5 -29.5q-41 0 -65 29.5t-15 70.5z M455 1288q7 43 43 73t77 30q42 0 66.5 -30.5t15.5 -72.5q-7 -41 -43 -70.5t-79 -29.5q-41 0 -65 29.5t-15 70.5z" />
<glyph unicode="&#xe5;" horiz-adv-x="1218" d="M1192 983l-148 -754q-13 -79 5 -115t71 -36q30 0 61 11t47 23l15 11l-12 -62q-3 -3 -8.5 -8t-25 -18t-41.5 -23t-57.5 -18t-72.5 -8q-89 0 -126.5 46.5t-25.5 143.5q-153 -190 -387 -190q-206 0 -313.5 142t-64.5 361q43 221 206.5 364.5t370.5 143.5q113 0 190 -47 t115 -133l92 166h109zM903 492q38 197 -16 314.5t-185 117.5q-134 0 -242.5 -120t-146.5 -315q-38 -193 24 -311.5t195 -118.5t233 117.5t138 315.5zM578 1309q15 86 88 147.5t159 61.5q87 0 136 -61t34 -148q-19 -88 -91.5 -148.5t-158.5 -60.5q-88 0 -137 61t-30 148z M664 1309q-11 -53 17.5 -88t80.5 -35q51 0 93 35.5t52 87.5q9 51 -19 86t-79 35q-52 0 -94 -35t-51 -86z" />
<glyph unicode="&#xe6;" horiz-adv-x="1851" d="M713 995q235 0 284 -143q168 143 418 143q190 0 278.5 -81t63.5 -214q-19 -93 -93 -148t-238 -84t-441 -30q-17 -164 64.5 -251t238.5 -87q100 0 197 33t145 65l47 33l-14 -79q-7 -7 -20.5 -18t-58.5 -39.5t-94.5 -50.5t-127.5 -40t-158 -18q-150 0 -251.5 59.5 t-145.5 165.5q-146 -225 -422 -225q-156 0 -241 72t-60 200q13 69 53.5 122.5t100 85t128 52t147.5 27.5t147.5 6.5t138.5 -6.5q15 49 43 110q19 130 -26 198.5t-148 68.5q-101 0 -181 -67t-104 -191l-180 -11q23 113 100.5 192.5t182 114.5t227.5 35zM1393 928 q-93 0 -177.5 -60.5t-139.5 -151t-79 -194.5q221 1 348.5 22.5t177.5 58.5t62 99q20 103 -32.5 164.5t-159.5 61.5zM272 252q-17 -87 29.5 -134.5t142.5 -47.5q246 0 330 323q4 56 10 84q-54 1 -115 2t-126.5 -12.5t-120.5 -36t-96 -68.5t-54 -110z" />
<glyph unicode="&#xe7;" horiz-adv-x="1136" d="M315 500q-36 -187 40.5 -293.5t240.5 -106.5q59 0 119 14t104.5 33.5t80.5 40t54.5 34t18.5 14.5l-15 -78q0 -2 -17 -17.5t-53 -39.5t-81.5 -47.5t-112 -42.5t-135.5 -23l-24 -84q63 0 98.5 -39.5t23.5 -104.5q-14 -68 -72.5 -104.5t-131.5 -36.5q-81 0 -118.5 40 t-27.5 95l80 2v-7t3.5 -15t10 -19t22 -15t36.5 -7q36 0 60 20t32 54q8 48 -26 69t-89 21l41 131q-208 12 -308.5 150.5t-59.5 350.5q43 223 209 365.5t384 142.5q169 0 281 -89.5t109 -241.5h-177q-1 120 -61.5 191t-153.5 71q-130 0 -240.5 -124t-144.5 -304z" />
<glyph unicode="&#xe8;" horiz-adv-x="1169" d="M1079 700q-18 -92 -92 -147.5t-238.5 -84.5t-441.5 -30q-17 -164 64.5 -251t238.5 -87q63 0 126.5 13.5t109 33t82 38.5t54.5 33l19 13l-16 -79q-7 -7 -20 -18t-58 -39.5t-94.5 -50.5t-127 -40t-157.5 -18q-158 0 -263.5 66t-144 179.5t-9.5 257.5q42 223 211.5 364.5 t416.5 141.5q189 0 277 -81t63 -214zM717 928q-71 0 -137.5 -35t-116.5 -93t-86.5 -129.5t-54.5 -148.5q167 1 278 12t175.5 35t94 55t39.5 78q19 103 -33 164.5t-159 61.5zM887 1118h-82l-313 342h217z" />
<glyph unicode="&#xe9;" horiz-adv-x="1169" d="M1079 700q-18 -92 -92 -147.5t-238.5 -84.5t-441.5 -30q-17 -164 64.5 -251t238.5 -87q63 0 126.5 13.5t109 33t82 38.5t54.5 33l19 13l-16 -79q-7 -7 -20 -18t-58 -39.5t-94.5 -50.5t-127 -40t-157.5 -18q-158 0 -263.5 66t-144 179.5t-9.5 257.5q42 223 211.5 364.5 t416.5 141.5q189 0 277 -81t63 -214zM717 928q-71 0 -137.5 -35t-116.5 -93t-86.5 -129.5t-54.5 -148.5q167 1 278 12t175.5 35t94 55t39.5 78q19 103 -33 164.5t-159 61.5zM670 1118h-80l309 342h217z" />
<glyph unicode="&#xea;" horiz-adv-x="1169" d="M1079 700q-18 -92 -92 -147.5t-238.5 -84.5t-441.5 -30q-17 -164 64.5 -251t238.5 -87q63 0 126.5 13.5t109 33t82 38.5t54.5 33l19 13l-16 -79q-7 -7 -20 -18t-58 -39.5t-94.5 -50.5t-127 -40t-157.5 -18q-158 0 -263.5 66t-144 179.5t-9.5 257.5q42 223 211.5 364.5 t416.5 141.5q189 0 277 -81t63 -214zM717 928q-71 0 -137.5 -35t-116.5 -93t-86.5 -129.5t-54.5 -148.5q167 1 278 12t175.5 35t94 55t39.5 78q19 103 -33 164.5t-159 61.5zM475 1118h-80l332 352h178l197 -352h-82l-221 266z" />
<glyph unicode="&#xeb;" horiz-adv-x="1169" d="M1079 700q-18 -92 -92 -147.5t-238.5 -84.5t-441.5 -30q-17 -164 64.5 -251t238.5 -87q63 0 126.5 13.5t109 33t82 38.5t54.5 33l19 13l-16 -79q-7 -7 -20 -18t-58 -39.5t-94.5 -50.5t-127 -40t-157.5 -18q-158 0 -263.5 66t-144 179.5t-9.5 257.5q42 223 211.5 364.5 t416.5 141.5q189 0 277 -81t63 -214zM717 928q-71 0 -137.5 -35t-116.5 -93t-86.5 -129.5t-54.5 -148.5q167 1 278 12t175.5 35t94 55t39.5 78q19 103 -33 164.5t-159 61.5zM453 1288q9 43 44 73t76 30q43 0 67.5 -30t16.5 -73q-9 -41 -45 -70.5t-77 -29.5t-65 29.5 t-17 70.5zM903 1288q9 43 44.5 73t76.5 30q43 0 67.5 -30t16.5 -73q-9 -41 -45.5 -70.5t-77.5 -29.5t-65 29.5t-17 70.5z" />
<glyph unicode="&#xec;" horiz-adv-x="598" d="M139 246l144 737h198l-145 -754q-15 -78 3.5 -114.5t70.5 -36.5q30 0 61.5 11t47.5 23l16 11l-13 -62q-3 -3 -8.5 -8t-25.5 -18t-42 -23t-57.5 -18t-73.5 -8q-111 0 -156.5 66t-19.5 194zM557 1118h-80l-315 342h217z" />
<glyph unicode="&#xed;" horiz-adv-x="598" d="M139 246l144 737h198l-145 -754q-15 -78 3.5 -114.5t70.5 -36.5q30 0 61.5 11t47.5 23l16 11l-13 -62q-3 -3 -8.5 -8t-25.5 -18t-42 -23t-57.5 -18t-73.5 -8q-111 0 -156.5 66t-19.5 194zM342 1118h-82l309 342h217z" />
<glyph unicode="&#xee;" horiz-adv-x="598" d="M139 246l144 737h198l-145 -754q-15 -78 3.5 -114.5t70.5 -36.5q30 0 61.5 11t47.5 23l16 11l-13 -62q-3 -3 -8.5 -8t-25.5 -18t-42 -23t-57.5 -18t-73.5 -8q-111 0 -156.5 66t-19.5 194zM137 1118h-82l332 352h178l197 -352h-80l-223 266z" />
<glyph unicode="&#xef;" horiz-adv-x="598" d="M115 1288q7 42 43 72.5t78 30.5t66 -30.5t15 -72.5q-7 -41 -43 -70.5t-79 -29.5q-41 0 -65 29.5t-15 70.5zM565 1288q7 42 43 72.5t78 30.5t66.5 -30.5t15.5 -72.5q-7 -41 -43.5 -70.5t-79.5 -29.5q-41 0 -65 29.5t-15 70.5zM139 246l144 737h198l-145 -754 q-15 -78 3.5 -114.5t70.5 -36.5q30 0 61.5 11t47.5 23l16 11l-13 -62q-3 -3 -8.5 -8t-25.5 -18t-42 -23t-57.5 -18t-73.5 -8q-111 0 -156.5 66t-19.5 194z" />
<glyph unicode="&#xf0;" horiz-adv-x="1224" d="M639 1210l160 136q-57 49 -124.5 83.5t-106.5 44.5l-38 9l74 67q6 -1 16.5 -3t43.5 -11t65.5 -22t77.5 -37.5t84 -55.5l151 129l48 -57l-142 -119q288 -276 182 -825q-35 -183 -125 -311.5t-212.5 -190t-268.5 -61.5q-228 0 -343 141t-72 362q43 222 212.5 365t389.5 143 q105 0 184 -45.5t115 -122.5h10q-5 288 -168 465l-168 -141zM311 492q-37 -195 24.5 -317t192.5 -122q133 0 242 122t145 317q38 193 -23 314.5t-194 121.5q-132 0 -240.5 -120.5t-146.5 -315.5z" />
<glyph unicode="&#xf1;" horiz-adv-x="1320" d="M827 924q-109 0 -212.5 -89t-157.5 -241l-115 -594h-199l144 754q29 151 -74 151q-30 0 -61.5 -11.5t-47.5 -23.5l-16 -12l14 62l8.5 8.5t25.5 18.5t42 23t57.5 18.5t73.5 8.5q89 0 136.5 -43.5t48.5 -128.5q80 82 183 127t216 45q167 0 247.5 -94t49.5 -250l-125 -653 h-201l123 633q26 136 -16 213.5t-144 77.5zM752 1417q52 0 101.5 -21t93.5 -42t83 -21q31 0 78.5 25.5t79.5 50.5l31 25l-17 -78q-6 -7 -16.5 -17.5t-41 -38t-59 -48.5t-63 -38.5t-59.5 -17.5q-58 0 -149.5 43t-129.5 43q-36 0 -83.5 -27t-76.5 -54l-30 -27l14 77 q6 7 16.5 18t41 39.5t59 50.5t64.5 40t63 18z" />
<glyph unicode="&#xf2;" horiz-adv-x="1206" d="M109 492q43 221 213.5 363t390.5 142q146 0 249 -66t144.5 -182t13.5 -260q-43 -220 -212 -361.5t-390 -141.5t-336.5 142.5t-72.5 363.5zM313 492q-38 -195 23 -317t194 -122q132 0 241 122t147 317q38 192 -24 314t-194 122q-133 0 -241 -120.5t-146 -315.5zM887 1118 h-82l-313 342h217z" />
<glyph unicode="&#xf3;" horiz-adv-x="1206" d="M109 492q43 221 213.5 363t390.5 142q146 0 249 -66t144.5 -182t13.5 -260q-43 -220 -212 -361.5t-390 -141.5t-336.5 142.5t-72.5 363.5zM313 492q-38 -195 23 -317t194 -122q132 0 241 122t147 317q38 192 -24 314t-194 122q-133 0 -241 -120.5t-146 -315.5zM670 1118 h-80l309 342h217z" />
<glyph unicode="&#xf4;" horiz-adv-x="1206" d="M109 492q43 221 213.5 363t390.5 142q146 0 249 -66t144.5 -182t13.5 -260q-43 -220 -212 -361.5t-390 -141.5t-336.5 142.5t-72.5 363.5zM313 492q-38 -195 23 -317t194 -122q132 0 241 122t147 317q38 192 -24 314t-194 122q-133 0 -241 -120.5t-146 -315.5zM465 1118 h-80l332 352h178l197 -352h-82l-222 266z" />
<glyph unicode="&#xf5;" horiz-adv-x="1206" d="M109 492q43 221 213.5 363t390.5 142q146 0 249 -66t144.5 -182t13.5 -260q-43 -220 -212 -361.5t-390 -141.5t-336.5 142.5t-72.5 363.5zM313 492q-38 -195 23 -317t194 -122q132 0 241 122t147 317q38 192 -24 314t-194 122q-133 0 -241 -120.5t-146 -315.5zM668 1417 q52 0 101.5 -21t93.5 -42t83 -21q32 0 80 25.5t80 50.5l31 25l-17 -78q-6 -7 -17 -17.5t-41.5 -38t-59 -48.5t-63.5 -38.5t-60 -17.5q-58 0 -149.5 43t-129.5 43q-35 0 -82.5 -27t-77.5 -54l-30 -27l14 77q6 7 16.5 18t41.5 39.5t59.5 50.5t64 40t62.5 18z" />
<glyph unicode="&#xf6;" horiz-adv-x="1206" d="M109 492q43 221 213.5 363t390.5 142q146 0 249 -66t144.5 -182t13.5 -260q-43 -220 -212 -361.5t-390 -141.5t-336.5 142.5t-72.5 363.5zM313 492q-38 -195 23 -317t194 -122q132 0 241 122t147 317q38 192 -24 314t-194 122q-133 0 -241 -120.5t-146 -315.5zM442 1288 q9 43 44.5 73t76.5 30q43 0 67.5 -30t16.5 -73q-9 -41 -45.5 -70.5t-77.5 -29.5t-65 29.5t-17 70.5zM893 1288q9 43 44.5 73t76.5 30q43 0 67.5 -30t16.5 -73q-9 -41 -45.5 -70.5t-77.5 -29.5t-65 29.5t-17 70.5z" />
<glyph unicode="&#xf7;" horiz-adv-x="1013" d="M885 594h-758v82h758v-82zM418 317q0 40 26.5 67.5t63.5 27.5q38 0 65 -27.5t27 -67.5q0 -37 -27 -64.5t-65 -27.5q-37 0 -63.5 27.5t-26.5 64.5zM418 950q0 38 26.5 66t63.5 28q38 0 65 -28t27 -66t-27 -65t-65 -27q-37 0 -63.5 27t-26.5 65z" />
<glyph unicode="&#xf8;" horiz-adv-x="1206" d="M203 -61l71 108q-105 62 -149.5 179t-15.5 266q43 221 213.5 363t390.5 142q85 0 168 -26l49 76h92l-72 -109q107 -64 153 -182.5t17 -266.5q-43 -220 -212 -361.5t-390 -141.5q-94 0 -176 28l-49 -75h-90zM922 492q44 218 -41 342l-486 -738q55 -43 135 -43 q135 0 245.5 122t146.5 317zM307 492q-40 -211 37 -338l483 735q-55 39 -127 39q-135 0 -245 -120.5t-148 -315.5z" />
<glyph unicode="&#xf9;" horiz-adv-x="1320" d="M518 59q112 0 217.5 92t157.5 252l113 580h198l-145 -754q-15 -78 3.5 -114.5t70.5 -36.5q30 0 61 11t47 23l16 11l-12 -62q-3 -3 -8.5 -8t-25.5 -18t-42 -23t-57.5 -18t-73.5 -8q-183 0 -186 172q-80 -82 -183 -127t-216 -45q-166 0 -247 94.5t-50 249.5l127 653h198 l-123 -633q-26 -137 15 -214t145 -77zM918 1118h-80l-316 342h217z" />
<glyph unicode="&#xfa;" horiz-adv-x="1320" d="M518 59q112 0 217.5 92t157.5 252l113 580h198l-145 -754q-15 -78 3.5 -114.5t70.5 -36.5q30 0 61 11t47 23l16 11l-12 -62q-3 -3 -8.5 -8t-25.5 -18t-42 -23t-57.5 -18t-73.5 -8q-183 0 -186 172q-80 -82 -183 -127t-216 -45q-166 0 -247 94.5t-50 249.5l127 653h198 l-123 -633q-26 -137 15 -214t145 -77zM702 1118h-81l309 342h217z" />
<glyph unicode="&#xfb;" horiz-adv-x="1320" d="M518 59q112 0 217.5 92t157.5 252l113 580h198l-145 -754q-15 -78 3.5 -114.5t70.5 -36.5q30 0 61 11t47 23l16 11l-12 -62q-3 -3 -8.5 -8t-25.5 -18t-42 -23t-57.5 -18t-73.5 -8q-183 0 -186 172q-80 -82 -183 -127t-216 -45q-166 0 -247 94.5t-50 249.5l127 653h198 l-123 -633q-26 -137 15 -214t145 -77zM498 1118h-82l332 352h178l196 -352h-80l-223 266z" />
<glyph unicode="&#xfc;" horiz-adv-x="1320" d="M518 59q112 0 217.5 92t157.5 252l113 580h198l-145 -754q-15 -78 3.5 -114.5t70.5 -36.5q30 0 61 11t47 23l16 11l-12 -62q-3 -3 -8.5 -8t-25.5 -18t-42 -23t-57.5 -18t-73.5 -8q-183 0 -186 172q-80 -82 -183 -127t-216 -45q-166 0 -247 94.5t-50 249.5l127 653h198 l-123 -633q-26 -137 15 -214t145 -77zM926 1288q7 42 43 72.5t78 30.5t66 -30.5t15 -72.5q-7 -41 -43 -70.5t-79 -29.5q-41 0 -65 29.5t-15 70.5zM475 1288q7 42 43 72.5t78 30.5t66.5 -30.5t15.5 -72.5q-7 -41 -43.5 -70.5t-79.5 -29.5q-41 0 -65 29.5t-15 70.5z" />
<glyph unicode="&#xfd;" horiz-adv-x="1132" d="M391 983l207 -752q128 198 234.5 386t149.5 277l42 89h129q-12 -28 -36 -78t-110 -211t-185.5 -327t-264.5 -408t-346 -471h-150q209 261 392 524l-287 971h225zM653 1118h-80l310 342h217z" />
<glyph unicode="&#xfe;" horiz-adv-x="1255" d="M-8 -512l379 1946h198l-110 -572q141 135 334 135q137 0 233.5 -68t134 -184.5t10.5 -257.5q-41 -216 -204 -358.5t-369 -142.5q-199 0 -285 135l-123 -633h-198zM379 492q-38 -197 16 -315t185 -118q135 0 243 118.5t146 311.5t-25 314t-196 121t-231.5 -117 t-137.5 -315z" />
<glyph unicode="&#xff;" horiz-adv-x="1132" d="M391 983l207 -752q128 198 234.5 386t149.5 277l42 89h129q-12 -28 -36 -78t-110 -211t-185.5 -327t-264.5 -408t-346 -471h-150q209 261 392 524l-287 971h225zM877 1288q9 43 44 73t76 30q43 0 67.5 -30t16.5 -73q-9 -41 -45.5 -70.5t-77.5 -29.5t-65 29.5t-16 70.5z M426 1288q9 43 44.5 73t76.5 30q43 0 67.5 -30t16.5 -73q-9 -41 -45.5 -70.5t-77.5 -29.5t-65 29.5t-17 70.5z" />
<glyph unicode="&#x152;" horiz-adv-x="2185" d="M1001 0l7 33q-101 -49 -234 -49q-202 0 -349 95t-208.5 262.5t-21.5 373.5q39 206 166.5 374.5t310 263.5t381.5 95q132 0 221 -47l6 33h963l-17 -80h-758l-112 -582h696l-16 -80h-697l-118 -612h778l-14 -80h-984zM1022 111l-14 -78l262 1345l-13 -57q-89 53 -208 53 q-223 0 -404.5 -184.5t-236.5 -472.5q-31 -145 -14.5 -266.5t67 -209t137 -136t195.5 -48.5q114 0 229 54z" />
<glyph unicode="&#x153;" horiz-adv-x="1982" d="M109 492q43 221 213.5 363t390.5 142q132 0 225 -56t137 -155q172 209 471 209q190 0 278.5 -81t63.5 -214q-19 -93 -93 -148t-238 -84t-441 -30q-17 -164 64.5 -251t238.5 -87q63 0 126 13.5t108.5 33t82 38.5t54.5 33l18 13l-14 -79q-7 -7 -20.5 -18t-58.5 -39.5 t-94.5 -50.5t-127.5 -40t-158 -18q-142 0 -236.5 53.5t-137.5 150.5q-81 -97 -195.5 -150.5t-247.5 -53.5q-221 0 -336.5 142.5t-72.5 363.5zM313 492q-38 -195 23 -317t194 -122q132 0 241 122t147 317q38 192 -24 314t-194 122q-133 0 -241 -120.5t-146 -315.5zM1524 928 q-93 0 -177.5 -60.5t-139.5 -151t-79 -194.5q221 1 348.5 22.5t177.5 58.5t62 99q20 103 -32.5 164.5t-159.5 61.5z" />
<glyph unicode="&#x178;" horiz-adv-x="1298" d="M485 0l119 614l-366 820h241l307 -670l570 670h98l-631 -746l-133 -688h-205zM596 1739q9 42 45 72t78 30q41 0 65 -29.5t17 -72.5q-8 -41 -44 -71t-79 -30q-41 0 -65.5 30t-16.5 71zM1047 1739q9 43 45 72.5t77 29.5t65 -29.5t17 -72.5q-8 -41 -44 -71t-79 -30 q-41 0 -65 30t-16 71z" />
<glyph unicode="&#x2c6;" horiz-adv-x="890" d="M307 1118h-80l332 352h178l197 -352h-82l-221 266z" />
<glyph unicode="&#x2dc;" horiz-adv-x="858" d="M496 1417q52 0 101.5 -21t93.5 -42t83 -21q31 0 78.5 25.5t79.5 50.5l31 25l-17 -78q-6 -7 -16.5 -17.5t-41 -38t-59 -48.5t-63 -38.5t-59.5 -17.5q-58 0 -149.5 43t-129.5 43q-36 0 -83.5 -27t-76.5 -54l-30 -27l14 77q6 7 16.5 18t41 39.5t59 50.5t64.5 40t63 18z" />
<glyph unicode="&#x2000;" horiz-adv-x="984" />
<glyph unicode="&#x2001;" horiz-adv-x="1968" />
<glyph unicode="&#x2002;" horiz-adv-x="984" />
<glyph unicode="&#x2003;" horiz-adv-x="1968" />
<glyph unicode="&#x2004;" horiz-adv-x="656" />
<glyph unicode="&#x2005;" horiz-adv-x="492" />
<glyph unicode="&#x2006;" horiz-adv-x="328" />
<glyph unicode="&#x2007;" horiz-adv-x="328" />
<glyph unicode="&#x2008;" horiz-adv-x="246" />
<glyph unicode="&#x2009;" horiz-adv-x="393" />
<glyph unicode="&#x200a;" horiz-adv-x="109" />
<glyph unicode="&#x2010;" horiz-adv-x="716" d="M614 506h-512v82h512v-82z" />
<glyph unicode="&#x2011;" horiz-adv-x="716" d="M614 506h-512v82h512v-82z" />
<glyph unicode="&#x2012;" horiz-adv-x="716" d="M614 506h-512v82h512v-82z" />
<glyph unicode="&#x2013;" horiz-adv-x="1024" d="M881 532h-738v82h738v-82z" />
<glyph unicode="&#x2014;" horiz-adv-x="2048" d="M1905 532h-1762v82h1762v-82z" />
<glyph unicode="&#x2018;" horiz-adv-x="432" d="M457 1536h112l-159 -465h-197z" />
<glyph unicode="&#x2019;" horiz-adv-x="432" d="M293 1071h-111l160 465h197z" />
<glyph unicode="&#x201a;" horiz-adv-x="432" d="M31 -281h-111l160 465h196z" />
<glyph unicode="&#x201c;" horiz-adv-x="733" d="M754 1536h112l-159 -465h-197zM457 1536h112l-159 -465h-197z" />
<glyph unicode="&#x201d;" horiz-adv-x="733" d="M293 1071h-111l160 465h197zM590 1071h-111l160 465h197z" />
<glyph unicode="&#x201e;" horiz-adv-x="733" d="M328 -281h-113l162 465h196zM31 -281h-111l160 465h196z" />
<glyph unicode="&#x2022;" horiz-adv-x="544" d="M119 614q15 79 81 135t144 56q80 0 125.5 -56t30.5 -135q-15 -78 -83 -134t-147 -56q-78 0 -122 56t-29 134z" />
<glyph unicode="&#x2026;" horiz-adv-x="1298" d="M31 111q9 52 52.5 88.5t96.5 36.5t82 -36.5t19 -88.5q-10 -53 -54 -89t-96 -36q-51 0 -80.5 36.5t-19.5 88.5zM463 111q10 52 54 88.5t95 36.5q52 0 82 -36t21 -89q-10 -53 -53.5 -89t-96.5 -36t-82.5 36.5t-19.5 88.5zM897 111q9 52 53 88.5t97 36.5t82 -36.5t18 -88.5 t-54 -88.5t-96 -36.5q-51 0 -80.5 36.5t-19.5 88.5z" />
<glyph unicode="&#x202f;" horiz-adv-x="393" />
<glyph unicode="&#x2039;" horiz-adv-x="589" d="M483 283l-16 -80l-363 319l15 66l485 321l-14 -82l-332 -272z" />
<glyph unicode="&#x203a;" horiz-adv-x="589" d="M156 827l14 82l362 -321l-14 -66l-485 -319l16 80l332 272z" />
<glyph unicode="&#x205f;" horiz-adv-x="492" />
<glyph unicode="&#x20ac;" horiz-adv-x="1705" d="M1167 514h-653q2 -98 26 -179.5t71 -144.5t123 -98t175 -35q171 0 305 95.5t197 275.5h205q-85 -221 -271.5 -332.5t-433.5 -111.5q-149 0 -264.5 39.5t-188.5 111t-111 167t-42 212.5h-192l18 82h176q2 46 17 125q7 37 22 100h-172l16 84h187q97 247 306 395t495 148 q118 0 215.5 -27t170.5 -81t111 -142t33 -203l-205 2q12 175 -80.5 276t-269.5 101q-103 0 -194 -37t-160.5 -103t-122.5 -148t-90 -181h659l-16 -84h-670q-15 -53 -24 -102q-14 -76 -19 -123h670z" />
<glyph unicode="&#x2122;" horiz-adv-x="1705" d="M1176 1434l135 -521l319 510l2 11h168l-139 -717h-168l109 557l-330 -535h-96l-148 531l-106 -553h-62l139 717h177zM225 1374l13 60h649l-13 -60h-239l-127 -657h-170l127 657h-240z" />
<glyph unicode="&#x25fc;" horiz-adv-x="983" d="M0 983h983v-983h-983v983z" />
</font>
</defs>
</svg>
