<svg width="73" height="73" viewBox="0 0 73 73" fill="none" xmlns="http://www.w3.org/2000/svg">
<path d="M55.065 39.1896C54.5621 38.8022 53.9765 38.5364 53.3538 38.4128C52.7312 38.2893 52.0884 38.3113 51.4757 38.4772L50.6826 38.6608C54.6758 34.9486 56.6953 31.2693 56.6953 27.6874C56.6953 23.0315 52.9518 19.2421 48.3491 19.2421C47.0511 19.234 45.769 19.5284 44.6045 20.102C43.4401 20.6756 42.4253 21.5127 41.6406 22.5468C40.856 21.5127 39.8412 20.6756 38.6767 20.102C37.5123 19.5284 36.2302 19.234 34.9321 19.2421C30.3294 19.2421 26.5859 23.0315 26.5859 27.6874C26.5859 29.7767 27.2524 31.8164 28.6587 33.9957C27.5059 34.1735 26.4404 34.7159 25.6184 35.5434L21.3572 39.8046H15.9375C15.2558 39.8046 14.602 40.0754 14.12 40.5574C13.638 41.0395 13.3672 41.6932 13.3672 42.3749V49.7187C13.3672 50.4004 13.638 51.0541 14.12 51.5362C14.602 52.0182 15.2558 52.289 15.9375 52.289H35.0312C35.1216 52.289 35.2116 52.2779 35.2993 52.2559L47.0493 49.3184C47.1049 49.3037 47.1595 49.2853 47.2127 49.2634L54.3398 46.2304L54.4004 46.2029C55.0305 45.8882 55.5702 45.4182 55.9686 44.8373C56.3669 44.2564 56.6108 43.5836 56.6773 42.8824C56.7438 42.1812 56.6307 41.4746 56.3486 40.8292C56.0665 40.1837 55.6248 39.6208 55.065 39.1932V39.1896ZM34.9321 21.4452C36.1436 21.4291 37.3323 21.7747 38.3462 22.438C39.3601 23.1013 40.153 24.052 40.6235 25.1685C40.7065 25.3706 40.8477 25.5434 41.0291 25.665C41.2106 25.7866 41.424 25.8515 41.6425 25.8515C41.8609 25.8515 42.0744 25.7866 42.2558 25.665C42.4372 25.5434 42.5784 25.3706 42.6614 25.1685C43.1319 24.052 43.9248 23.1013 44.9387 22.438C45.9526 21.7747 47.1413 21.4291 48.3528 21.4452C51.6795 21.4452 54.4922 24.3038 54.4922 27.6874C54.4922 31.4034 51.5216 35.582 45.9 39.7587L43.17 40.3866C43.4422 39.6642 43.5352 38.8866 43.441 38.1204C43.3468 37.3542 43.0681 36.6222 42.6289 35.9874C42.1897 35.3525 41.6031 34.8336 40.9193 34.4752C40.2356 34.1168 39.4751 33.9296 38.7031 33.9296H31.2988C29.5895 31.6659 28.7891 29.6721 28.7891 27.6874C28.7891 24.3038 31.6017 21.4452 34.9321 21.4452ZM15.5703 49.7187V42.3749C15.5703 42.2775 15.609 42.1841 15.6779 42.1153C15.7467 42.0464 15.8401 42.0077 15.9375 42.0077H20.7109V50.0859H15.9375C15.8401 50.0859 15.7467 50.0472 15.6779 49.9783C15.609 49.9095 15.5703 49.8161 15.5703 49.7187ZM53.442 44.2109L46.4287 47.1979L34.8954 50.0859H22.9141V41.3633L27.1753 37.1003C27.4815 36.7924 27.8457 36.5484 28.2469 36.3823C28.6481 36.2163 29.0782 36.1314 29.5124 36.1327H38.7031C39.3848 36.1327 40.0386 36.4035 40.5206 36.8856C41.0026 37.3676 41.2734 38.0214 41.2734 38.703C41.2734 39.3847 41.0026 40.0385 40.5206 40.5205C40.0386 41.0026 39.3848 41.2734 38.7031 41.2734H33.5625C33.2703 41.2734 32.9902 41.3894 32.7836 41.596C32.577 41.8026 32.4609 42.0828 32.4609 42.3749C32.4609 42.6671 32.577 42.9473 32.7836 43.1538C32.9902 43.3604 33.2703 43.4765 33.5625 43.4765H39.4375C39.5203 43.4766 39.6028 43.4673 39.6835 43.4489L51.9843 40.6198L52.0284 40.6087C52.4913 40.4825 52.9846 40.5318 53.4135 40.7471C53.8423 40.9625 54.1765 41.3286 54.3518 41.7754C54.5271 42.2221 54.5312 42.7178 54.3633 43.1673C54.1954 43.6168 53.8673 43.9885 53.442 44.2109Z" fill="url(#paint0_linear_2410_6607)"/>
<defs>
<linearGradient id="paint0_linear_2410_6607" x1="13.3672" y1="34.4944" x2="56.6958" y2="34.4944" gradientUnits="userSpaceOnUse">
<stop stop-color="#BE6552"/>
<stop offset="0.490144" stop-color="#ECA9A0"/>
<stop offset="1" stop-color="#BE6552"/>
</linearGradient>
</defs>
</svg>
