<svg width="73" height="73" viewBox="0 0 73 73" fill="none" xmlns="http://www.w3.org/2000/svg">
<path d="M43.9949 48.5209C45.8184 41.1782 49.9566 36.2285 57.1462 34.1648C49.9452 32.1264 45.8432 27.1299 43.993 19.9236C43.1135 23.3144 41.7221 26.407 39.3998 28.9949C37.0794 31.5808 34.1918 33.2138 30.8931 34.2115C31.0777 34.2817 31.2585 34.3636 31.447 34.4181C33.7045 35.0631 35.747 36.1388 37.5839 37.6257C37.7647 37.7718 37.9512 37.9589 38.035 38.1674C38.1835 38.5396 38.1092 38.9118 37.7837 39.1749C37.4087 39.4789 37.0128 39.4282 36.6397 39.1691C35.9849 38.715 35.3587 38.2103 34.6829 37.7913C32.7166 36.5734 30.5676 35.8329 28.2967 35.5679C26.6635 35.3769 25.0093 35.3886 23.3647 35.3106C23.0639 35.297 22.7594 35.3204 22.4624 35.2775C21.8514 35.1898 21.4612 34.6909 21.5031 34.0907C21.5449 33.4983 21.9523 33.0891 22.5709 33.0735C23.8234 33.0384 25.0778 33.0716 26.3265 32.9956C30.3601 32.75 34.0434 31.5399 37.1042 28.7298C39.3541 26.6623 40.8217 24.0783 41.7487 21.1591C42.573 18.5634 42.9365 15.8937 42.8985 13.1655C42.8946 12.842 42.8832 12.5146 42.9156 12.1931C42.9784 11.5617 43.4371 11.1622 44.0425 11.1798C44.6268 11.1973 45.0627 11.6533 45.0837 12.2827C45.1236 13.4656 45.097 14.6524 45.2017 15.8294C45.5519 19.7716 46.6426 23.4644 49.0163 26.6564C51.3729 29.827 54.5593 31.6568 58.3264 32.5142C60.4335 32.9936 62.5674 33.0462 64.7107 33.0345C64.9791 33.0345 65.2532 33.0287 65.5178 33.0657C66.1193 33.1476 66.5 33.5938 66.5 34.1823C66.5 34.7533 66.0965 35.221 65.5007 35.2853C65.139 35.3243 64.7716 35.3087 64.408 35.2989C61.6327 35.2268 58.8917 35.4665 56.2534 36.4077C51.4109 38.1363 48.2283 41.5738 46.4789 46.4514C45.4682 49.2692 45.0761 52.1942 45.0856 55.1836C45.0856 55.4759 45.097 55.7682 45.0761 56.0585C45.0247 56.7445 44.5869 57.1888 43.9911 57.179C43.361 57.1693 42.927 56.7113 42.9042 56.0098C42.8699 55.0062 42.8851 53.9987 42.8128 52.9971C42.5406 49.24 41.6079 45.6933 39.5502 42.515C39.455 42.3669 39.3579 42.2168 39.2837 42.0551C39.0724 41.5972 39.2038 41.1002 39.5864 40.8586C39.9861 40.6072 40.5172 40.7124 40.8008 41.147C41.1872 41.7394 41.5679 42.3416 41.8972 42.9671C42.7176 44.5261 43.3667 46.1591 43.7817 47.8837C43.8217 48.0513 43.8883 48.2111 43.9949 48.5268V48.5209Z" fill="url(#paint0_linear_2504_5644)"/>
<path d="M19.5358 19.1599C17.6195 18.2528 16.3495 16.8482 15.5084 14.882C14.6449 16.8256 13.3711 18.2603 11.5804 19.1035C12.3634 19.7251 13.2025 20.2566 13.8657 20.9551C14.5194 21.6462 14.9933 22.5063 15.5646 23.3194C15.6264 23.1974 15.707 23.0208 15.8025 22.8518C16.0666 22.3861 16.5125 22.2171 16.9433 22.4143C17.3854 22.6171 17.6064 23.0753 17.3854 23.5504C16.696 25.0433 16.4656 26.617 16.4488 28.2433C16.4432 28.7916 16.0385 29.1597 15.5253 29.1785C15.0214 29.1973 14.6056 28.8498 14.5475 28.2996C14.4744 27.6179 14.4819 26.9269 14.3976 26.2471C13.9518 22.696 11.6459 20.3505 8.00071 20.1721C7.48558 20.1476 6.97046 20.1382 6.4572 20.112C5.8709 20.0819 5.49813 19.712 5.50001 19.1786C5.50001 18.6322 5.90649 18.251 6.49467 18.2096C7.47247 18.1439 8.47275 18.1758 9.42058 17.9655C11.792 17.4416 13.3318 15.958 14.0605 13.6219C14.4089 12.5046 14.5194 11.3647 14.5475 10.2041C14.5606 9.63326 14.8678 9.25768 15.3324 9.19195C15.9636 9.09993 16.4038 9.51307 16.46 10.1985C16.5331 11.083 16.5705 11.9788 16.7466 12.8445C17.3385 15.759 19.2361 17.7158 22.2575 18.097C22.9506 18.1852 23.6568 18.189 24.3574 18.2115C25.0598 18.2322 25.5 18.589 25.5 19.1749C25.5 19.7664 25.0785 20.1251 24.3555 20.1326C23.1997 20.1458 22.044 20.1645 20.9369 20.557C20.5848 20.681 20.2457 20.8443 19.8992 20.9795C19.3447 21.1955 18.8539 21.0472 18.6498 20.6096C18.44 20.1627 18.6329 19.6913 19.1424 19.3984C19.2473 19.3383 19.3503 19.2725 19.5395 19.1561L19.5358 19.1599Z" fill="url(#paint1_linear_2504_5644)"/>
<path d="M21.4042 51.6803C23.3671 52.6607 24.6357 54.1403 25.4971 56.1978C26.351 54.1422 27.612 52.643 29.5468 51.7039C29.3442 51.5797 29.2184 51.5047 29.0927 51.4258C28.6461 51.1437 28.4828 50.6643 28.6742 50.2086C28.86 49.7667 29.3273 49.5813 29.8283 49.7588C30.4908 49.9936 31.1382 50.321 31.8194 50.4493C32.6752 50.613 33.5572 50.6249 34.4298 50.686C35.1335 50.7334 35.5164 51.0865 35.4995 51.7059C35.4826 52.3194 35.0697 52.6943 34.3885 52.6923C33.103 52.6883 31.8326 52.7554 30.6071 53.2545C28.6442 54.0535 27.4394 55.5745 26.9177 57.6537C26.6343 58.7841 26.5593 59.9756 26.4354 61.1455C26.366 61.8044 26.0713 62.1792 25.4896 62.1792C24.9097 62.1792 24.5457 61.8044 24.5419 61.1475C24.5325 59.5061 24.313 57.9201 23.628 56.4188C22.6503 54.2725 20.9669 53.1776 18.8032 52.8225C18.0676 52.7021 17.3075 52.7238 16.5588 52.6943C15.9001 52.6686 15.5135 52.3214 15.5004 51.7118C15.4872 51.0806 15.8344 50.7235 16.51 50.6959C17.7898 50.6426 19.0716 50.6446 20.297 50.1494C22.2487 49.3603 23.521 47.8965 24.0465 45.8035C24.3336 44.6573 24.4124 43.45 24.5363 42.2644C24.6038 41.6134 24.9454 41.1695 25.5046 41.1794C26.0545 41.1892 26.4429 41.6035 26.4317 42.2427C26.4054 43.9116 26.715 45.4977 27.3625 47.0226C27.6027 47.5849 27.415 48.1017 26.959 48.3167C26.4973 48.5337 26.0469 48.3246 25.7655 47.7644C25.6885 47.6105 25.6134 47.4527 25.4896 47.1982C24.6339 49.2084 23.369 50.7156 21.4023 51.6803H21.4042Z" fill="url(#paint2_linear_2504_5644)"/>
<defs>
<linearGradient id="paint0_linear_2504_5644" x1="21.5" y1="32.4099" x2="66.5" y2="32.4099" gradientUnits="userSpaceOnUse">
<stop stop-color="#BE6552"/>
<stop offset="0.490144" stop-color="#ECA9A0"/>
<stop offset="1" stop-color="#BE6552"/>
</linearGradient>
<linearGradient id="paint1_linear_2504_5644" x1="5.5" y1="18.41" x2="25.5" y2="18.41" gradientUnits="userSpaceOnUse">
<stop stop-color="#BE6552"/>
<stop offset="0.490144" stop-color="#ECA9A0"/>
<stop offset="1" stop-color="#BE6552"/>
</linearGradient>
<linearGradient id="paint2_linear_2504_5644" x1="15.5" y1="50.8715" x2="35.5" y2="50.8715" gradientUnits="userSpaceOnUse">
<stop stop-color="#BE6552"/>
<stop offset="0.490144" stop-color="#ECA9A0"/>
<stop offset="1" stop-color="#BE6552"/>
</linearGradient>
</defs>
</svg>
