<svg width="73" height="73" viewBox="0 0 73 73" fill="none" xmlns="http://www.w3.org/2000/svg">
<path d="M60.7401 60.1791C56.4278 58.9349 52.172 57.6765 47.9021 56.4889C47.28 56.3192 46.4599 56.3899 45.8661 56.6444C44.2401 57.3513 42.6566 58.1714 41.0872 59.0197C40.3378 59.4297 39.7158 59.4439 38.9523 59.0197C37.397 58.1572 35.8135 57.3513 34.1734 56.6444C33.5796 56.3899 32.7595 56.2909 32.1374 56.4606C28.2068 57.5493 24.3046 58.7228 20.3881 59.868C20.0064 59.9811 19.6105 60.0236 19.1581 60.1084C19.0308 59.7266 18.9318 59.3873 18.7622 58.8925C20.6992 58.3269 22.5796 57.7614 24.4601 57.2099C26.7506 56.5454 29.0269 55.8526 31.3315 55.2305C32.2505 54.976 32.6605 54.5377 32.6323 53.5339C32.5757 50.5506 32.7736 51.003 30.1014 50.9748C27.1464 50.9606 24.1914 50.9465 21.2223 50.9748C20.2609 50.9748 19.9357 50.6072 19.9357 49.6881C19.964 47.4542 19.9074 45.2344 19.9498 43.0005C19.964 42.0108 19.6105 41.6715 18.6066 41.6856C15.3406 41.728 15.6658 42.0532 15.6516 38.6741C15.6516 34.6587 15.5668 30.6433 15.6799 26.642C15.7365 24.7616 16.1889 22.8953 16.401 21.0148C16.4434 20.5765 16.3727 19.9544 16.0899 19.6575C13.9267 17.4094 12.6825 14.7796 12.329 11.6833C12.1735 10.2977 12.3573 10.0149 13.7712 10.0149C20.784 10.0149 27.7968 10.1139 34.7955 9.98661C41.2993 9.85936 47.4355 15.1897 47.4072 22.6266C47.3789 32.6793 47.4072 42.7319 47.4072 52.7704C47.4072 54.9053 47.4072 54.8771 49.4573 55.4709C53.0344 56.4889 56.5832 57.5776 60.1745 58.5531C61.1783 58.8218 61.3904 59.2177 60.7259 60.1649L60.7401 60.1791ZM38.5705 40.8514L38.104 41.0352C38.104 41.7846 38.104 42.5339 38.104 43.2833C38.104 44.5181 37.5054 45.1355 36.3083 45.1355C34.3289 45.1355 32.3353 45.1638 30.3559 45.1355C29.4652 45.1213 28.7865 45.2627 28.1644 46.0404C27.3302 47.0725 26.1143 47.0442 24.9266 46.6625C23.9228 46.3514 23.4138 45.6303 23.3431 44.5841C23.2866 43.5519 23.6683 42.6612 24.6439 42.3219C25.7891 41.926 27.1606 41.6856 28.0513 42.7319C28.8006 43.6085 29.6066 43.6933 30.5963 43.665C31.6143 43.6368 32.6181 43.665 33.6361 43.665C36.8739 43.665 36.8456 43.665 36.8315 40.3849C36.8315 39.5507 36.5911 39.1689 35.7569 38.9569C33.4806 38.3489 31.9112 36.8785 31.2184 34.6304C30.0732 30.9402 31.996 27.4055 35.8135 26.3027C37.298 25.8785 36.7325 24.8181 36.7749 23.9698C36.8173 22.9518 35.969 23.277 35.4459 23.2629C32.2505 23.2063 29.041 23.1498 25.8457 23.178C23.329 23.1922 20.9113 22.8953 18.7198 21.5804C18.0694 21.1986 17.73 21.3824 17.6311 22.0752C17.4755 23.0649 17.2069 24.0688 17.2069 25.0585C17.1504 29.1446 17.1787 33.2448 17.1787 37.3309C17.1787 40.2293 17.1786 40.2576 20.0205 40.3566C21.0102 40.3849 21.3637 40.7666 21.3354 41.7563C21.2788 43.9054 21.3778 46.0545 21.293 48.2036C21.2364 49.4195 21.703 49.7164 22.8341 49.7023C26.0719 49.6457 29.3238 49.7023 32.5616 49.6599C33.5937 49.6457 34.0603 49.9285 33.9754 51.0313C33.9047 51.9928 33.9896 52.9825 33.9472 53.9439C33.9189 54.6367 34.1451 55.0609 34.7955 55.3719C36.3366 56.093 37.8212 56.9272 39.3764 57.62C39.7723 57.8038 40.4085 57.7331 40.8186 57.5493C42.289 56.8848 43.717 56.093 45.1733 55.4143C45.8661 55.0891 46.0782 54.6367 46.0641 53.9015C46.0216 51.3424 46.0075 48.7974 46.0641 46.2383C46.0782 45.3617 45.753 45.0224 44.9188 44.9093C42.8829 44.6123 41.1721 43.6792 39.744 42.2088C39.334 41.7846 38.9664 41.3039 38.5705 40.8514ZM25.2094 11.3581C21.7596 11.3581 18.3239 11.3581 14.874 11.3581C14.1671 11.3581 13.7005 11.4429 13.7995 12.3619C14.3367 17.1125 19.1156 21.6511 23.838 21.7359C27.811 21.8066 31.7839 21.7359 35.7428 21.7642C36.5345 21.7642 36.8032 21.5097 36.8032 20.7179C36.7749 18.2436 36.8032 15.7693 36.8032 13.3092C36.8032 11.4288 36.7607 11.3722 34.8096 11.3722C31.6143 11.3722 28.4048 11.3722 25.2094 11.3722V11.3581ZM46.0499 43.4812C46.0499 43.0712 46.0499 42.6329 46.0499 42.2088C46.0499 35.606 46.1206 29.0032 46.0216 22.4004C45.951 17.777 43.6888 14.4262 39.532 12.4043C38.3443 11.8246 38.1181 11.966 38.1181 13.2951C38.1181 17.0984 38.1322 20.9158 38.0898 24.7192C38.0898 25.6382 38.3726 26.0765 39.2774 26.331C42.0911 27.1369 43.9432 29.3991 44.0705 32.3682C44.1553 34.5738 43.1798 37.2461 40.2248 38.6034C39.9137 38.7448 39.6168 38.9286 39.3199 39.0841C40.2672 41.6149 43.5474 43.7923 46.0499 43.4812ZM42.6425 32.5944C42.6425 29.696 40.2813 27.3772 37.397 27.4055C34.5975 27.4338 32.2505 29.8232 32.2646 32.6368C32.2646 35.507 34.6541 37.8399 37.5525 37.8116C40.4085 37.7833 42.6566 35.4929 42.6425 32.6086V32.5944ZM26.1426 45.8707C26.7364 45.192 27.104 44.7679 27.4858 44.3578C27.0333 44.0609 26.6233 43.6085 26.1284 43.4812C25.4639 43.3116 24.6863 43.5802 24.7994 44.4144C24.856 44.8527 25.5205 45.2203 26.1567 45.8848L26.1426 45.8707Z" fill="url(#paint0_linear_2410_6645)"/>
<defs>
<linearGradient id="paint0_linear_2410_6645" x1="12.2832" y1="33.1511" x2="61.1085" y2="33.1511" gradientUnits="userSpaceOnUse">
<stop stop-color="#BE6552"/>
<stop offset="0.490144" stop-color="#ECA9A0"/>
<stop offset="1" stop-color="#BE6552"/>
</linearGradient>
</defs>
</svg>
