<svg width="73" height="73" viewBox="0 0 73 73" fill="none" xmlns="http://www.w3.org/2000/svg">
<path d="M47.2604 47.7606C46.8276 47.735 46.4813 47.7008 46.135 47.7008C39.5034 47.7008 32.8632 47.7179 26.2316 47.6752C25.2966 47.6752 24.9417 47.9401 24.8638 48.8717C24.7339 50.3417 23.7903 51.1279 22.3185 51.1536C20.8035 51.1707 19.2884 51.1792 17.782 51.1536C16.267 51.1279 15.1935 50.1109 15.2367 48.6153C15.3493 44.795 15.4791 40.9748 15.7216 37.1546C15.8168 35.5991 16.6392 34.2744 17.9898 33.4454C19.1585 32.7275 19.1845 31.719 19.2105 30.5311C18.994 30.5909 18.8036 30.6166 18.8036 30.6593C18.6651 32.1549 17.7561 32.1293 16.596 31.8558C15.583 31.6165 14.5355 31.5139 13.5053 31.3601C12.6222 31.2319 12.1634 30.8559 12.1893 29.8559C12.2759 26.275 11.7911 26.7621 15.3579 26.7365C15.7475 26.7365 16.1371 26.7365 16.518 26.7365C18.3188 26.7365 18.3015 26.7365 18.6478 28.4458C18.6997 28.7107 19.02 28.9244 19.2191 29.1637C19.4356 28.9244 19.7646 28.7193 19.8338 28.4458C20.1195 27.3775 20.3186 26.2835 20.561 25.2067C21.1065 22.7881 23.0197 21.207 25.5304 21.1984C32.6294 21.1728 39.7285 21.1728 46.8276 21.1984C49.4248 21.1984 51.2948 22.7624 51.8662 25.2751C52.0999 26.3177 52.299 27.3689 52.5761 28.403C52.6453 28.668 52.983 28.856 53.1994 29.0782C53.3552 28.8304 53.6323 28.5911 53.6583 28.3347C53.8314 26.745 53.8141 26.745 55.3897 26.745C56.5498 26.745 57.7186 26.7365 58.8787 26.745C59.1817 26.745 59.7271 26.7878 59.7444 26.8818C59.9349 28.0526 60.1513 29.2406 60.1253 30.42C60.1253 30.7448 59.3635 31.2234 58.8873 31.3345C57.5714 31.6421 56.2295 31.8472 54.8876 31.984C54.5586 32.0182 54.1344 31.6763 53.866 31.3943C53.6669 31.1977 53.6496 30.8217 53.3812 30.5738C53.1388 31.4712 53.1215 32.5224 53.866 33.001C56.3507 34.5735 56.8442 36.9751 56.9567 39.5561C57.0866 42.4191 57.1472 45.2907 57.1905 48.1623C57.2164 50.2391 56.2382 51.1707 54.1431 51.1792C52.9397 51.1792 51.7363 51.1792 50.5329 51.1792C48.4638 51.1792 47.6241 50.4186 47.373 48.3418C47.3557 48.188 47.3124 48.0427 47.2604 47.7863V47.7606ZM42.9837 46.2736C43.633 46.2736 44.0918 46.2736 44.542 46.2736C46.4813 46.2736 48.4292 46.2394 50.3598 46.3078C50.6974 46.3163 51.0177 46.7693 51.3467 47.0256C51.0351 47.2479 50.7494 47.5213 50.4031 47.6752C50.178 47.7777 49.8663 47.7179 49.5979 47.7008C48.9659 47.6581 48.7755 47.9828 48.8188 48.5384C48.8794 49.3075 49.2863 49.7605 50.0654 49.7776C51.5372 49.8032 53.0176 49.8032 54.4894 49.7776C55.3205 49.7605 55.7793 49.2904 55.7447 48.4529C55.6062 44.8634 55.5542 41.2654 55.2858 37.6759C55.0867 35.1205 53.2773 33.6847 50.6541 33.6847C41.0271 33.6847 31.4001 33.6847 21.7731 33.6847C19.1239 33.6847 17.2106 35.1547 17.0202 37.7443C16.7431 41.3252 16.7518 44.9318 16.6652 48.5298C16.6479 49.299 17.0635 49.769 17.8599 49.7861C19.3317 49.8118 20.8034 49.8032 22.2839 49.7861C23.2015 49.769 23.6171 49.2306 23.5825 48.3674C23.5392 47.4188 22.7427 47.8632 22.2579 47.7008C21.8423 47.5555 21.4614 47.2906 21.0718 47.0769C21.4614 46.8205 21.851 46.359 22.2579 46.3419C23.998 46.2565 25.7468 46.3078 27.4956 46.3078C29.7292 46.3078 29.4349 46.4701 29.4262 44.4104C29.4262 43.6327 29.634 43.1199 30.4997 43.1114C34.3003 43.1028 38.1096 43.1028 41.9102 43.1114C42.672 43.1114 43.0356 43.5216 43.001 44.2822C42.975 44.889 43.001 45.4958 43.001 46.2992L42.9837 46.2736ZM51.7969 32.1976C51.7969 31.9071 51.8315 31.7105 51.7969 31.531C51.3554 29.403 50.9745 27.2578 50.4204 25.1554C49.9702 23.4547 48.5158 22.4206 46.6977 22.412C39.7198 22.3864 32.7333 22.3864 25.7555 22.412C23.7037 22.412 22.2406 23.6769 21.825 25.6596C21.5307 27.0442 21.2277 28.4201 20.9506 29.8047C20.8035 30.5653 20.6996 31.343 20.5697 32.1891H51.8056L51.7969 32.1976ZM30.9586 46.1966H41.3907C41.7111 44.5814 41.6418 44.4874 40.2047 44.4874C37.5728 44.4874 34.941 44.4874 32.3091 44.4874C30.7854 44.4874 30.7854 44.4959 30.9586 46.1966ZM15.4532 27.8561C14.8645 28.0356 14.1546 28.0868 13.7304 28.4629C13.5312 28.6338 13.8169 29.8303 14.0247 29.873C15.0549 30.0781 16.1371 30.061 17.202 30.1038C17.2193 30.1038 17.2539 29.8987 17.2712 29.779C17.5483 28.3261 17.2366 28.0099 15.4532 27.8561ZM55.1993 30.4713C56.2035 30.326 57.0952 30.1807 57.9956 30.0696C58.7921 29.967 58.7921 29.4372 58.7921 28.8218C58.7834 28.027 58.2207 28.1637 57.7359 28.1467C57.3549 28.1381 56.9654 28.1467 56.5758 28.1467C55.5658 28.1467 55.0781 28.6537 55.1127 29.6679C55.1127 29.8559 55.1473 30.0354 55.1993 30.4798V30.4713Z" fill="url(#paint0_linear_2410_6567)"/>
<path d="M49.1131 41.9577C48.256 41.9577 47.3643 42.1201 46.5678 41.915C45.7367 41.6928 44.7931 41.274 44.2736 40.6415C43.2607 39.428 43.91 37.8982 45.4597 37.5563C47.3037 37.1375 49.165 36.77 51.0264 36.4282C52.7319 36.112 54.2989 37.2059 54.4201 38.7357C54.5846 40.6672 53.4764 41.9321 51.5631 41.9662C50.7493 41.9833 49.9355 41.9662 49.1217 41.9662L49.1131 41.9577ZM49.1564 40.5219C50.0135 40.5219 50.8879 40.633 51.7103 40.4792C52.1605 40.3937 52.8098 39.8895 52.8617 39.5049C52.9397 39.0092 52.654 38.24 52.2557 37.958C51.8748 37.6845 51.1389 37.8041 50.5849 37.8982C49.1737 38.1375 47.7712 38.4109 46.386 38.7613C45.9791 38.8639 45.6415 39.257 45.2692 39.5134C45.7107 39.8467 46.1176 40.3852 46.6111 40.4792C47.4336 40.6415 48.308 40.5219 49.165 40.5219H49.1564Z" fill="url(#paint1_linear_2410_6567)"/>
<path d="M23.695 41.9663C22.8033 41.9663 21.9116 42.0005 21.0199 41.9663C19.3577 41.8894 18.4053 40.7099 18.4833 38.9067C18.5525 37.4025 19.6953 36.2231 21.219 36.4197C23.392 36.7017 25.5563 37.1717 27.6947 37.676C28.5951 37.8896 29.0972 38.6417 28.9847 39.6075C28.8462 40.7698 27.738 41.8723 26.6039 41.9406C25.6429 42.0005 24.6646 41.9492 23.695 41.9492V41.9663ZM23.695 40.6843C23.695 40.6843 23.695 40.7441 23.695 40.7698C24.6906 40.6929 25.7035 40.6843 26.6818 40.4877C27.0194 40.4194 27.3398 39.9066 27.5043 39.5305C27.5562 39.4194 27.0887 38.9152 26.7944 38.8554C25.1062 38.4708 23.4093 38.1204 21.7038 37.8384C20.561 37.6503 19.955 38.1033 19.8598 39.0263C19.7645 39.975 20.3533 40.5989 21.4874 40.6758C22.2233 40.727 22.9591 40.6843 23.695 40.6843Z" fill="url(#paint2_linear_2410_6567)"/>
<defs>
<linearGradient id="paint0_linear_2410_6567" x1="12.1883" y1="35.0253" x2="60.1275" y2="35.0253" gradientUnits="userSpaceOnUse">
<stop stop-color="#BE6552"/>
<stop offset="0.490144" stop-color="#ECA9A0"/>
<stop offset="1" stop-color="#BE6552"/>
</linearGradient>
<linearGradient id="paint1_linear_2410_6567" x1="43.7865" y1="38.979" x2="54.4362" y2="38.979" gradientUnits="userSpaceOnUse">
<stop stop-color="#BE6552"/>
<stop offset="0.490144" stop-color="#ECA9A0"/>
<stop offset="1" stop-color="#BE6552"/>
</linearGradient>
<linearGradient id="paint2_linear_2410_6567" x1="18.4788" y1="38.9751" x2="29.0003" y2="38.9751" gradientUnits="userSpaceOnUse">
<stop stop-color="#BE6552"/>
<stop offset="0.490144" stop-color="#ECA9A0"/>
<stop offset="1" stop-color="#BE6552"/>
</linearGradient>
</defs>
</svg>
