<svg width="73" height="73" viewBox="0 0 73 73" fill="none" xmlns="http://www.w3.org/2000/svg">
<path d="M36.5552 59.8278C31.8779 59.8278 27.3057 58.4408 23.4167 55.8423C19.5277 53.2438 16.4966 49.5503 14.7067 45.2291C12.9167 40.9079 12.4484 36.1529 13.3609 31.5656C14.2734 26.9782 16.5257 22.7644 19.833 19.4571C23.1404 16.1497 27.3541 13.8974 31.9415 12.9849C36.5289 12.0724 41.2839 12.5408 45.6051 14.3307C49.9263 16.1206 53.6197 19.1517 56.2183 23.0407C58.8168 26.9297 60.2038 31.5019 60.2038 36.1792C60.1966 42.449 57.7028 48.46 53.2694 52.8934C48.8359 57.3268 42.825 59.8207 36.5552 59.8278ZM36.5552 13.8819C32.1452 13.8819 27.8342 15.1896 24.1674 17.6397C20.5007 20.0897 17.6428 23.5721 15.9551 27.6464C14.2675 31.7207 13.8259 36.2039 14.6863 40.5292C15.5466 44.8544 17.6702 48.8274 20.7886 51.9457C23.9069 55.0641 27.8799 57.1877 32.2052 58.048C36.5304 58.9084 41.0137 58.4668 45.088 56.7792C49.1623 55.0916 52.6446 52.2337 55.0947 48.5669C57.5447 44.9001 58.8524 40.5892 58.8524 36.1792C58.8458 30.2676 56.4945 24.6 52.3144 20.4199C48.1343 16.2398 42.4667 13.8885 36.5552 13.8819Z" fill="url(#paint0_linear_2410_6639)"/>
<path d="M36.5552 55.0981C32.8133 55.0981 29.1556 53.9885 26.0444 51.9097C22.9332 49.8309 20.5083 46.8761 19.0764 43.4191C17.6444 39.9622 17.2698 36.1582 17.9998 32.4883C18.7298 28.8184 20.5316 25.4473 23.1775 22.8015C25.8233 20.1556 29.1943 18.3538 32.8643 17.6238C36.5342 16.8938 40.3381 17.2685 43.7951 18.7004C47.2521 20.1323 50.2068 22.5572 52.2857 25.6684C54.3645 28.7796 55.4741 32.4374 55.4741 36.1792C55.4685 41.1951 53.4735 46.004 49.9267 49.5508C46.3799 53.0975 41.5711 55.0926 36.5552 55.0981ZM36.5552 18.6116C33.0806 18.6116 29.6841 19.6419 26.7951 21.5723C23.9062 23.5026 21.6545 26.2463 20.3248 29.4564C18.9952 32.6664 18.6473 36.1987 19.3251 39.6064C20.003 43.0142 21.6761 46.1445 24.133 48.6013C26.5899 51.0582 29.7201 52.7313 33.1279 53.4092C36.5357 54.087 40.0679 53.7391 43.278 52.4095C46.488 51.0798 49.2317 48.8282 51.1621 45.9392C53.0924 43.0502 54.1227 39.6537 54.1227 36.1792C54.1175 31.5216 52.265 27.0562 48.9716 23.7628C45.6781 20.4693 41.2128 18.6168 36.5552 18.6116Z" fill="url(#paint1_linear_2410_6639)"/>
<path d="M40.6092 54.6386C40.43 54.6386 40.2582 54.5674 40.1315 54.4407C40.0047 54.314 39.9335 54.1421 39.9335 53.9629V49.017C39.9371 45.7924 41.2196 42.701 43.4997 40.421C45.7798 38.1409 48.8712 36.8584 52.0957 36.8548H54.7444C54.9236 36.8548 55.0954 36.926 55.2221 37.0527C55.3489 37.1794 55.42 37.3513 55.42 37.5305C55.42 37.7097 55.3489 37.8815 55.2221 38.0082C55.0954 38.135 54.9236 38.2061 54.7444 38.2061H52.0957C49.2295 38.2094 46.4816 39.3494 44.4549 41.3761C42.4282 43.4028 41.2881 46.1507 41.2849 49.017V53.9629C41.2849 54.1421 41.2137 54.314 41.087 54.4407C40.9603 54.5674 40.7884 54.6386 40.6092 54.6386ZM32.5011 54.6386C32.3219 54.6386 32.1501 54.5674 32.0233 54.4407C31.8966 54.314 31.8254 54.1421 31.8254 53.9629V49.017C31.8222 46.1507 30.6822 43.4028 28.6555 41.3761C26.6288 39.3494 23.8808 38.2094 21.0146 38.2061H18.366C18.1868 38.2061 18.0149 38.135 17.8882 38.0082C17.7615 37.8815 17.6903 37.7097 17.6903 37.5305C17.6903 37.3513 17.7615 37.1794 17.8882 37.0527C18.0149 36.926 18.1868 36.8548 18.366 36.8548H21.0146C24.2391 36.8584 27.3306 38.1409 29.6106 40.421C31.8907 42.701 33.1732 45.7924 33.1768 49.017V53.9629C33.1768 54.1421 33.1056 54.314 32.9789 54.4407C32.8522 54.5674 32.6803 54.6386 32.5011 54.6386ZM54.339 32.8007C54.2721 32.8007 54.2056 32.7907 54.1417 32.771C42.6851 29.2243 30.4239 29.2243 18.9673 32.771C18.8819 32.7989 18.7917 32.8095 18.7021 32.8022C18.6125 32.7948 18.5253 32.7697 18.4455 32.7282C18.3658 32.6867 18.2951 32.6297 18.2376 32.5605C18.1802 32.4914 18.1371 32.4115 18.1109 32.3254C18.0848 32.2394 18.076 32.1491 18.0852 32.0596C18.0944 31.9702 18.1214 31.8835 18.1645 31.8046C18.2077 31.7257 18.2661 31.6563 18.3364 31.6002C18.4068 31.5442 18.4876 31.5028 18.5741 31.4784C30.2866 27.8513 42.8224 27.8513 54.5349 31.4784C54.69 31.5254 54.823 31.6266 54.9097 31.7635C54.9964 31.9003 55.031 32.0638 55.0073 32.2241C54.9835 32.3844 54.903 32.5308 54.7803 32.6366C54.6576 32.7425 54.501 32.8007 54.339 32.8007ZM36.5552 40.4865C35.5923 40.4855 34.6692 40.1025 33.9883 39.4216C33.3075 38.7408 32.9245 37.8177 32.9234 36.8548V33.8987C32.9234 33.7195 32.9946 33.5476 33.1213 33.4209C33.248 33.2942 33.4199 33.223 33.5991 33.223H39.5113C39.6905 33.223 39.8623 33.2942 39.989 33.4209C40.1157 33.5476 40.1869 33.7195 40.1869 33.8987V36.8548C40.1859 37.8177 39.8029 38.7408 39.122 39.4216C38.4412 40.1025 37.518 40.4855 36.5552 40.4865ZM34.2748 34.5744V36.8548C34.2748 37.4596 34.515 38.0396 34.9427 38.4673C35.3703 38.8949 35.9504 39.1352 36.5552 39.1352C37.16 39.1352 37.74 38.8949 38.1677 38.4673C38.5953 38.0396 38.8356 37.4596 38.8356 36.8548V34.5744H34.2748Z" fill="url(#paint2_linear_2410_6639)"/>
<defs>
<linearGradient id="paint0_linear_2410_6639" x1="12.9065" y1="34.36" x2="60.2038" y2="34.36" gradientUnits="userSpaceOnUse">
<stop stop-color="#BE6552"/>
<stop offset="0.490144" stop-color="#ECA9A0"/>
<stop offset="1" stop-color="#BE6552"/>
</linearGradient>
<linearGradient id="paint1_linear_2410_6639" x1="17.6362" y1="34.7238" x2="55.4741" y2="34.7238" gradientUnits="userSpaceOnUse">
<stop stop-color="#BE6552"/>
<stop offset="0.490144" stop-color="#ECA9A0"/>
<stop offset="1" stop-color="#BE6552"/>
</linearGradient>
<linearGradient id="paint2_linear_2410_6639" x1="17.6903" y1="40.7029" x2="55.42" y2="40.7029" gradientUnits="userSpaceOnUse">
<stop stop-color="#BE6552"/>
<stop offset="0.490144" stop-color="#ECA9A0"/>
<stop offset="1" stop-color="#BE6552"/>
</linearGradient>
</defs>
</svg>
