<svg width="73" height="73" viewBox="0 0 73 73" fill="none" xmlns="http://www.w3.org/2000/svg">
<path d="M54.9857 33.6012C55.1337 33.7423 55.3053 33.9038 55.5139 34.1027C55.6669 33.9565 55.8267 33.8069 55.9832 33.6556C56.4188 33.234 56.9218 33.2051 57.2834 33.5808C57.6181 33.9293 57.5811 34.4512 57.1758 34.8609C54.9891 37.0743 52.8024 39.2877 50.6056 41.4909C50.3971 41.7 50.323 41.9057 50.323 42.1947C50.3315 46.8765 50.3298 51.5599 50.3281 56.2417C50.3281 57.9604 49.2802 59.0178 47.5796 59.0178C37.642 59.0178 27.7061 59.0178 17.7685 59.0178C16.0444 59.0178 15.0049 57.9638 15.0049 56.2128C15.0049 42.8033 15.0049 29.392 15.0049 15.9825C15.0049 14.2281 16.0393 13.1792 17.7685 13.1792C27.7061 13.1792 37.642 13.1792 47.5796 13.1792C49.2835 13.1792 50.3281 14.2349 50.3298 15.9553C50.3298 19.4913 50.3298 23.029 50.3298 26.5649C50.3298 26.6737 50.3399 26.7825 50.35 26.9593C51.4702 26.2402 52.6325 26.0311 53.8688 26.4238C54.6678 26.6771 55.3188 27.1531 55.815 27.8348C56.2388 28.4162 56.4962 29.0639 56.5618 29.7881C56.6274 30.5089 56.5702 31.2229 56.2119 31.8485C55.8671 32.452 55.418 32.996 54.9891 33.6029L54.9857 33.6012ZM48.6057 39.9269C48.4762 40.0459 48.3735 40.1309 48.2794 40.2261C44.9909 43.5462 41.7059 46.8697 38.409 50.1829C38.2206 50.3733 37.9633 50.5484 37.7093 50.6096C36.5537 50.8918 35.3864 51.1298 34.2258 51.3865C33.267 51.599 32.2376 51.6636 31.6219 52.6173C31.6001 52.6513 31.558 52.6717 31.5244 52.6972C31.1594 52.9539 30.7136 52.9165 30.4159 52.602C30.1232 52.2943 30.1014 51.8251 30.3873 51.4817C30.5572 51.276 30.7843 51.1145 30.9357 50.8986C31.114 50.6436 31.3091 50.3665 31.3764 50.0707C31.7044 48.6546 31.9735 47.2233 32.3032 45.8089C32.399 45.3975 32.5319 44.9232 32.8095 44.641C37.9616 39.4016 43.1356 34.1843 48.313 28.9704C48.5502 28.7307 48.6511 28.4995 48.6511 28.1595C48.6393 24.1136 48.6444 20.0693 48.6444 16.0233C48.6444 15.1512 48.3769 14.8792 47.5191 14.8792C37.6101 14.8792 27.7027 14.8792 17.7937 14.8792C16.9628 14.8792 16.6853 15.158 16.6853 15.9961C16.6853 29.4056 16.6853 42.8152 16.6853 56.2247C16.6853 57.0356 16.9678 57.3212 17.7736 57.3212C27.696 57.3212 37.6185 57.3212 47.5409 57.3212C48.3668 57.3212 48.6427 57.039 48.6427 56.1958C48.6427 52.0937 48.6427 47.9916 48.6427 43.8896V43.4612C48.5401 43.4731 48.4846 43.4765 48.4324 43.485C48.0237 43.5581 47.7058 43.4085 47.5123 43.0515C47.3122 42.6826 47.408 42.3392 47.6873 42.0434C47.8218 41.9006 47.9463 41.7374 48.1061 41.6269C48.7116 41.2087 48.7066 40.6171 48.6057 39.9303V39.9269ZM37.8573 48.1531C41.9599 44.0239 46.0792 39.8776 50.1616 35.7687C49.1574 34.7504 48.1229 33.7015 47.1456 32.7104C43.0481 36.8363 38.9288 40.9826 34.8397 45.0983C35.8489 46.12 36.8834 47.1672 37.8573 48.1531ZM48.4358 31.3317C49.4753 32.3874 50.5047 33.4346 51.4938 34.4376C52.4525 33.5009 53.4853 32.5863 54.4054 31.568C55.1573 30.735 55.0076 29.4056 54.2086 28.6032C53.4113 27.8025 52.0993 27.6733 51.2717 28.4366C50.2625 29.3682 49.3441 30.3967 48.4358 31.3317ZM36.1887 49.4247C35.3006 48.5339 34.4478 47.6805 33.5984 46.8306C33.3746 47.8778 33.1425 48.9691 32.8902 50.1506C34.0525 49.8956 35.1223 49.6593 36.1887 49.4247ZM50.3533 39.184C51.6384 37.8937 52.9336 36.5949 54.2406 35.2825C54.0993 35.1278 53.9327 34.9459 53.7494 34.7453C53.6165 34.8643 53.5206 34.9425 53.4332 35.0292C52.5804 35.886 51.7629 36.7802 50.8664 37.586C50.3298 38.0688 50.249 38.5975 50.355 39.1823L50.3533 39.184Z" fill="url(#paint0_linear_2410_6652)"/>
<path d="M32.5045 22.3431C29.005 22.3431 25.5073 22.3431 22.0079 22.3431C21.8695 22.3431 21.7294 22.3514 21.5911 22.3364C21.1509 22.2865 20.8275 21.9155 20.8392 21.4879C20.8508 21.077 21.1743 20.7327 21.5977 20.6877C21.7211 20.6744 21.8478 20.6827 21.9729 20.6827C28.9984 20.6827 36.0239 20.6827 43.0477 20.6827C43.1728 20.6827 43.2995 20.6761 43.4228 20.6894C43.8463 20.736 44.1664 21.0853 44.1747 21.4963C44.1831 21.9222 43.8546 22.2915 43.4145 22.3381C43.2778 22.353 43.1377 22.3447 42.9977 22.3447C39.4983 22.3447 36.0005 22.3447 32.5011 22.3447L32.5045 22.3431Z" fill="url(#paint1_linear_2410_6652)"/>
<path d="M32.476 26.5086C28.9766 26.5086 25.4788 26.5086 21.9793 26.5086C21.8409 26.5086 21.6992 26.5169 21.5642 26.4986C21.1457 26.4421 20.8339 26.0797 20.8389 25.6691C20.8439 25.2568 21.1607 24.906 21.5825 24.8561C21.7059 24.8412 21.8326 24.8495 21.9576 24.8495C28.9966 24.8495 36.0355 24.8495 43.0745 24.8495C43.1862 24.8495 43.2979 24.8428 43.4079 24.8545C43.8497 24.8993 44.1798 25.2601 44.1748 25.689C44.1698 26.098 43.8514 26.4521 43.4313 26.5036C43.2945 26.5203 43.1545 26.5119 43.0145 26.5119C39.5016 26.5119 35.9888 26.5119 32.476 26.5119V26.5086Z" fill="url(#paint2_linear_2410_6652)"/>
<path d="M32.5093 30.679C29.0099 30.679 25.5122 30.679 22.0128 30.679C21.8744 30.679 21.7344 30.6873 21.596 30.6723C21.1559 30.624 20.8291 30.2562 20.8391 29.8285C20.8491 29.4157 21.1692 29.0696 21.5927 29.023C21.716 29.0096 21.8427 29.0163 21.9678 29.0163C28.9933 29.0163 36.0187 29.0163 43.0426 29.0163C43.1676 29.0163 43.2943 29.0096 43.4177 29.0213C43.8411 29.0662 44.1629 29.4124 44.1746 29.8235C44.1863 30.2496 43.8595 30.6224 43.421 30.6706C43.2843 30.6856 43.1443 30.6773 43.0042 30.6773C39.5048 30.6773 36.0071 30.6773 32.5077 30.6773L32.5093 30.679Z" fill="url(#paint3_linear_2410_6652)"/>
<path d="M26.2453 34.8466C24.8028 34.8466 23.3587 34.8466 21.9162 34.8466C21.2342 34.8466 20.8456 34.5479 20.839 34.024C20.8323 33.4967 21.2242 33.1814 21.8945 33.1814C24.8095 33.1814 27.7228 33.1814 30.6378 33.1814C31.2815 33.1814 31.6667 33.4901 31.6734 34.004C31.68 34.5296 31.2848 34.8466 30.6161 34.8483C29.1586 34.8483 27.7011 34.8483 26.2453 34.8483V34.8466Z" fill="url(#paint4_linear_2410_6652)"/>
<defs>
<linearGradient id="paint0_linear_2410_6652" x1="15.0049" y1="34.3354" x2="57.5098" y2="34.3354" gradientUnits="userSpaceOnUse">
<stop stop-color="#BE6552"/>
<stop offset="0.490144" stop-color="#ECA9A0"/>
<stop offset="1" stop-color="#BE6552"/>
</linearGradient>
<linearGradient id="paint1_linear_2410_6652" x1="20.8389" y1="21.4495" x2="44.1749" y2="21.4495" gradientUnits="userSpaceOnUse">
<stop stop-color="#BE6552"/>
<stop offset="0.490144" stop-color="#ECA9A0"/>
<stop offset="1" stop-color="#BE6552"/>
</linearGradient>
<linearGradient id="paint2_linear_2410_6652" x1="20.8389" y1="25.6165" x2="44.1749" y2="25.6165" gradientUnits="userSpaceOnUse">
<stop stop-color="#BE6552"/>
<stop offset="0.490144" stop-color="#ECA9A0"/>
<stop offset="1" stop-color="#BE6552"/>
</linearGradient>
<linearGradient id="paint3_linear_2410_6652" x1="20.8389" y1="29.7837" x2="44.1749" y2="29.7837" gradientUnits="userSpaceOnUse">
<stop stop-color="#BE6552"/>
<stop offset="0.490144" stop-color="#ECA9A0"/>
<stop offset="1" stop-color="#BE6552"/>
</linearGradient>
<linearGradient id="paint4_linear_2410_6652" x1="20.8389" y1="33.9507" x2="31.6734" y2="33.9507" gradientUnits="userSpaceOnUse">
<stop stop-color="#BE6552"/>
<stop offset="0.490144" stop-color="#ECA9A0"/>
<stop offset="1" stop-color="#BE6552"/>
</linearGradient>
</defs>
</svg>
