<svg width="24" height="25" viewBox="0 0 24 25" fill="none" xmlns="http://www.w3.org/2000/svg">
<path fill-rule="evenodd" clip-rule="evenodd" d="M16.8532 14.3708C16.6162 14.2522 15.454 13.6811 15.2376 13.6015C15.0212 13.5228 14.8637 13.4838 14.7054 13.7208C14.5479 13.9563 14.0953 14.4893 13.9577 14.6468C13.8193 14.8051 13.6817 14.8242 13.4454 14.7064C13.2091 14.5871 12.4471 14.3381 11.5442 13.5331C10.8418 12.9063 10.3669 12.1323 10.2293 11.8952C10.0917 11.659 10.2142 11.5309 10.3327 11.4132C10.4393 11.3074 10.569 11.1371 10.6875 10.9995C10.806 10.8611 10.845 10.7625 10.9237 10.6042C11.0033 10.4467 10.9635 10.309 10.9039 10.1905C10.845 10.072 10.3725 8.90821 10.1752 8.43491C9.98349 7.97432 9.7886 8.03717 9.64382 8.02921C9.50541 8.02285 9.3479 8.02126 9.1904 8.02126C9.03289 8.02126 8.77675 8.08012 8.56038 8.31717C8.34321 8.55343 7.73308 9.12538 7.73308 10.2892C7.73308 11.4521 8.57947 12.5762 8.698 12.7345C8.81652 12.892 10.3645 15.28 12.7358 16.3038C13.3006 16.5472 13.7405 16.6927 14.0834 16.8009C14.6498 16.9815 15.1652 16.956 15.5725 16.8948C16.0259 16.8272 16.971 16.3228 17.1682 15.7708C17.3647 15.2187 17.3647 14.7454 17.3058 14.6468C17.247 14.5481 17.0895 14.4893 16.8524 14.3708H16.8532ZM12.5401 20.2597H12.537C11.1285 20.2599 9.74594 19.8813 8.53413 19.1635L8.24776 18.9933L5.27109 19.7744L6.06577 16.8725L5.87883 16.575C5.09142 15.3216 4.67471 13.871 4.67686 12.3908C4.67846 8.05546 8.2056 4.52832 12.5433 4.52832C14.6434 4.52832 16.6178 5.34766 18.1021 6.83361C18.8343 7.56273 19.4146 8.42979 19.8094 9.38462C20.2043 10.3395 20.4059 11.3631 20.4026 12.3964C20.401 16.7317 16.8739 20.2597 12.5401 20.2597ZM19.2317 5.70483C18.3552 4.82259 17.3124 4.12305 16.1636 3.64677C15.0148 3.17049 13.7829 2.92693 12.5394 2.93021C7.3258 2.93021 3.08114 7.17408 3.07955 12.39C3.07713 14.05 3.51258 15.6812 4.34197 17.1191L3 22.0216L8.01468 20.7059C9.40189 21.4617 10.9564 21.8577 12.5362 21.8578H12.5401C17.7537 21.8578 21.9984 17.6139 22 12.3972C22.0038 11.1541 21.7611 9.92253 21.286 8.7738C20.8108 7.62508 20.1126 6.58198 19.2317 5.70483Z" fill="#D3A188"/>
</svg>
