<svg width="33" height="48" viewBox="0 0 33 48" fill="none" xmlns="http://www.w3.org/2000/svg">
<path d="M16.5798 0.391596C22.9936 0.374687 28.6765 4.65536 30.4194 10.8234C31.0555 13.0723 31.1088 15.3473 30.6822 17.6392C30.0227 21.1823 28.6583 24.4719 27.0571 27.6729C24.3112 33.1594 20.9476 38.2582 17.2431 43.1385C16.8139 43.7043 16.343 43.6991 15.9307 43.1229C12.29 38.0527 8.93931 32.803 6.12585 27.2229C4.97081 24.9323 3.94324 22.5858 3.17971 20.1314C2.51895 18.0099 2.06499 15.8546 2.264 13.616C2.62951 9.50445 4.4232 6.13949 7.62168 3.52894C9.18645 2.25163 10.9671 1.37754 12.9156 0.857255C14.1136 0.537277 15.3376 0.382491 16.5798 0.390296V0.391596ZM16.6084 41.6843C16.6786 41.6024 16.7371 41.5412 16.7866 41.4749C17.3459 40.7036 17.9143 39.9387 18.4606 39.1583C21.4614 34.8698 24.241 30.4487 26.4756 25.7049C27.7048 23.097 28.748 20.424 29.3021 17.578C29.8081 14.9753 29.7092 12.4103 28.6674 9.95971C26.6473 5.20817 23.0326 2.45974 17.9052 1.83019C15.119 1.4881 12.4617 2.07863 10.0449 3.53544C6.2143 5.84552 4.07461 9.24951 3.63366 13.6967C3.42165 15.8377 3.90161 17.8941 4.54807 19.9154C5.33761 22.3842 6.3951 24.7398 7.57485 27.0434C10.1529 32.0824 13.1732 36.8508 16.4315 41.4736C16.4796 41.5412 16.5394 41.6011 16.611 41.683L16.6084 41.6843Z" fill="url(#paint0_linear_625_1307)"/>
<path d="M15.8709 47.2983C13.4711 47.2462 11.0829 47.0615 8.71041 46.7207C6.73721 46.4372 4.77833 46.0717 2.9326 45.2717C2.29395 44.9947 1.68391 44.663 1.20134 44.1466C0.449524 43.3402 0.459929 42.3555 1.23126 41.5699C1.88422 40.9039 2.71798 40.5332 3.57386 40.2158C5.18545 39.6175 6.86989 39.3131 8.56083 39.0478C9.04079 38.9723 9.39589 39.2247 9.44402 39.6383C9.48954 40.0324 9.20468 40.3316 8.73642 40.4057C6.91671 40.6919 5.10221 41.0132 3.40606 41.7702C3.00544 41.9484 2.62303 42.1903 2.27834 42.4609C1.91544 42.7457 1.90373 43.0722 2.28614 43.3154C2.87407 43.6887 3.49321 44.049 4.14618 44.2793C6.47837 45.1026 8.91202 45.4434 11.3652 45.6737C13.9068 45.9117 16.451 45.9364 18.9978 45.8518C21.8178 45.7582 24.6169 45.4668 27.3641 44.7892C28.3942 44.5342 29.4114 44.2311 30.3466 43.7122C30.5352 43.6081 30.7173 43.4845 30.8786 43.3441C31.2467 43.0241 31.2766 42.7366 30.8838 42.4635C30.3908 42.1214 29.8601 41.8131 29.306 41.5855C27.9481 41.0262 26.5108 40.7452 25.0683 40.5059C24.5558 40.4213 24.0394 40.3602 23.5243 40.2848C23.0977 40.2223 22.8571 40.0142 22.8219 39.6851C22.7699 39.1935 23.1003 38.8631 23.6232 38.9268C24.3542 39.0153 25.0852 39.1141 25.8084 39.2455C27.247 39.5082 28.6817 39.8074 30.024 40.4044C30.612 40.6659 31.1986 40.9767 31.702 41.3722C32.8323 42.2619 32.8024 43.5171 31.6825 44.4237C30.7798 45.1547 29.7106 45.5423 28.6154 45.861C25.8955 46.6531 23.1003 46.9744 20.2855 47.1422C18.8157 47.2293 17.3407 47.2514 15.8683 47.3022L15.8709 47.2983Z" fill="url(#paint1_linear_625_1307)"/>
<path d="M16.6474 22.9942C12.1092 23.0254 8.35531 19.3548 8.32539 14.8517C8.29418 10.2328 11.9674 6.49067 16.5954 6.49457C21.1271 6.49717 24.8081 10.1041 24.8524 14.7346C24.8953 19.2286 21.183 22.963 16.6474 22.9942ZM16.5811 21.6285C20.3207 21.6623 23.4476 18.5796 23.4853 14.8244C23.523 11.0341 20.4455 7.88114 16.6773 7.85252C12.8389 7.82391 9.72497 10.8819 9.69375 14.7125C9.66254 18.5067 12.7361 21.5934 16.5811 21.6285Z" fill="url(#paint2_linear_625_1307)"/>
<defs>
<linearGradient id="paint0_linear_625_1307" x1="2.2168" y1="20.3141" x2="30.9582" y2="20.3141" gradientUnits="userSpaceOnUse">
<stop stop-color="#BE6552"/>
<stop offset="0.490144" stop-color="#ECA9A0"/>
<stop offset="1" stop-color="#BE6552"/>
</linearGradient>
<linearGradient id="paint1_linear_625_1307" x1="0.645019" y1="42.7881" x2="32.5362" y2="42.7881" gradientUnits="userSpaceOnUse">
<stop stop-color="#BE6552"/>
<stop offset="0.490144" stop-color="#ECA9A0"/>
<stop offset="1" stop-color="#BE6552"/>
</linearGradient>
<linearGradient id="paint2_linear_625_1307" x1="8.3252" y1="14.1099" x2="24.8527" y2="14.1099" gradientUnits="userSpaceOnUse">
<stop stop-color="#BE6552"/>
<stop offset="0.490144" stop-color="#ECA9A0"/>
<stop offset="1" stop-color="#BE6552"/>
</linearGradient>
</defs>
</svg>
