<svg width="19" height="16" viewBox="0 0 19 16" fill="none" xmlns="http://www.w3.org/2000/svg">
<path d="M10.6025 15.1474C10.4972 15.0419 10.438 14.8989 10.438 14.7499C10.438 14.6008 10.4972 14.4579 10.6025 14.3524L16.3916 8.56238L1.25001 8.56238C1.10082 8.56238 0.957748 8.50312 0.85226 8.39763C0.746771 8.29214 0.687507 8.14907 0.687507 7.99988C0.687507 7.8507 0.746771 7.70763 0.85226 7.60214C0.957748 7.49665 1.10082 7.43738 1.25001 7.43738L16.3916 7.43738L10.6025 1.64738C10.5031 1.54075 10.4491 1.39972 10.4516 1.25399C10.4542 1.10827 10.5132 0.969228 10.6163 0.866168C10.7194 0.763108 10.8584 0.704074 11.0041 0.701503C11.1498 0.698932 11.2909 0.753024 11.3975 0.852384L18.1475 7.60238C18.2528 7.70785 18.312 7.85082 18.312 7.99988C18.312 8.14895 18.2528 8.29192 18.1475 8.39738L11.3975 15.1474C11.292 15.2527 11.1491 15.3119 11 15.3119C10.8509 15.3119 10.708 15.2527 10.6025 15.1474Z" fill="white"/>
</svg>
