<svg width="265" height="166" viewBox="0 0 265 166" fill="none" xmlns="http://www.w3.org/2000/svg">
<path d="M89.9161 46.8313C100.037 46.8313 110.159 46.8271 120.28 46.8409C120.966 46.8419 121.666 46.9147 122.333 47.0694C123.465 47.3321 124.384 47.9917 125.093 48.9013C125.482 49.4003 125.799 49.9603 126.104 50.5175C126.44 51.1323 126.957 51.4558 127.618 51.5786C127.838 51.6194 128.067 51.6167 128.292 51.6169C131.278 51.6192 134.265 51.5837 137.25 51.6349C138.516 51.6565 139.376 51.1776 139.901 50.0503C140.188 49.4335 140.578 48.8815 141.073 48.4235C141.855 47.6999 142.722 47.1411 143.825 46.9856C144.704 46.862 145.579 46.8304 146.461 46.8306C166.321 46.8319 186.182 46.83 206.042 46.8397C206.585 46.8399 207.145 46.8983 207.664 47.044C208.278 47.2165 208.732 47.612 208.987 48.2563C209.29 49.0243 209.142 49.7298 208.787 50.3903C208.355 51.1954 207.844 51.9587 207.347 52.7271C207.044 53.1948 206.585 53.4591 206.046 53.5843C205.844 53.6314 205.636 53.6567 205.435 53.7058C205.05 53.7989 204.74 53.9935 204.541 54.3526C204.223 54.9269 203.891 55.4931 203.57 56.0659C203.299 56.5495 203.023 57.0231 202.584 57.386C202.182 57.7187 201.719 57.8993 201.216 57.9544C200.48 58.0349 199.981 58.3981 199.622 59.0425C199.187 59.8249 198.751 60.6091 198.123 61.27C197.405 62.0255 196.592 62.5921 195.568 62.8622C194.717 63.0864 193.888 63.3899 193.043 63.6396C192.234 63.879 191.413 64.0829 190.604 64.3231C189.71 64.5882 188.825 64.8858 187.932 65.1522C187.087 65.4038 186.235 65.628 185.389 65.8733C184.177 66.2247 182.969 66.5882 181.758 66.9388C180.995 67.1593 180.226 67.3544 179.466 67.5808C178.639 67.8271 177.822 68.1067 176.995 68.3528C176.134 68.6093 175.258 68.8198 174.403 69.0927C173.353 69.4272 172.275 69.6628 171.275 70.1681C170.303 70.6595 169.53 71.3321 168.964 72.2476C168.316 73.2966 167.468 74.1372 166.394 74.7433C165.778 75.0907 165.134 75.3651 164.442 75.5413C163.522 75.7757 162.616 76.0669 161.7 76.3233C161.351 76.4212 160.991 76.4796 160.641 76.5741C158.669 77.1067 156.701 77.6493 154.728 78.1792C153.794 78.4302 152.851 78.6493 151.918 78.9036C151.053 79.1392 150.198 79.4128 149.334 79.6503C148.417 79.9021 147.493 80.1247 146.575 80.3718C145.292 80.7175 144.013 81.0812 142.727 81.4214C142.312 81.5313 141.885 81.648 141.46 81.664C140.547 81.6985 139.646 81.5411 138.894 81.0007C138.225 80.5192 137.614 79.9521 137.005 79.3921C135.846 78.3267 134.713 77.2343 133.558 76.1646C133.179 75.8136 132.534 75.814 132.126 76.1815C131.485 76.7583 130.876 77.3696 130.252 77.9647C129.594 78.5919 128.925 79.2073 128.279 79.846C127.785 80.3349 127.259 80.7759 126.649 81.1142C125.457 81.7745 124.218 81.7653 122.941 81.4142C121.941 81.139 120.929 80.906 119.928 80.6323C119.012 80.3817 118.107 80.0898 117.192 79.8382C116.225 79.573 115.25 79.344 114.283 79.0806C113.417 78.8446 112.562 78.5722 111.697 78.3362C110.563 78.0271 109.422 77.7423 108.286 77.4394C107.167 77.1411 106.051 76.8321 104.933 76.5296C103.583 76.1638 102.223 75.8276 100.883 75.4251C100.023 75.1665 99.2435 74.7126 98.513 74.1853C97.8161 73.6821 97.27 73.0394 96.8218 72.3147C95.8843 70.7991 94.4763 69.9716 92.8011 69.5126C91.9026 69.2665 91.0132 68.9884 90.1181 68.7298C89.0722 68.4276 88.0235 68.1343 86.9778 67.8314C85.0548 67.2745 83.1313 66.7181 81.2108 66.1524C79.9687 65.7866 78.7329 65.3991 77.4915 65.031C76.547 64.7509 75.5954 64.4942 74.6515 64.212C73.7757 63.9501 72.9079 63.6614 72.0329 63.3972C71.3542 63.1921 70.6665 63.0167 69.9884 62.8099C69.1649 62.5589 68.4501 62.1331 67.8339 61.5177C67.2538 60.9384 66.8007 60.2802 66.4167 59.5653C66.3511 59.4433 66.2849 59.3218 66.2169 59.2009C65.8335 58.5183 65.314 58.0517 64.4888 57.9446C63.4007 57.8034 62.7171 57.0999 62.2157 56.1761C61.894 55.5833 61.5589 54.9978 61.2179 54.4159C60.9571 53.9714 60.5647 53.706 60.047 53.6507C59.0843 53.5481 58.4429 53.0198 57.9936 52.1851C57.7079 51.6538 57.3489 51.1626 57.0409 50.6427C56.553 49.8188 56.4349 48.9388 56.8411 48.063C57.1038 47.4966 57.5933 47.1647 58.229 47.0011C58.8089 46.8517 59.3839 46.8315 59.969 46.8315C69.9515 46.8315 79.9339 46.8315 89.9161 46.8315V46.8313ZM166.764 53.223H98.9812C98.8737 54.0337 98.914 63.4341 99.0216 63.7855C100.716 63.9089 166.349 63.8435 166.764 63.7128V53.223ZM140.838 51.7276C140.863 51.7728 140.888 51.8179 140.913 51.8628H141.582C162.034 51.8628 182.486 51.8632 202.937 51.8608C203.562 51.8608 204.188 51.8622 204.809 51.8089C205.324 51.7646 205.869 51.6839 206.209 51.2364C206.585 50.7431 206.907 50.2091 207.244 49.6876C207.309 49.588 207.35 49.4671 207.376 49.3503C207.475 48.9048 207.281 48.6495 206.821 48.6155C206.665 48.604 206.509 48.6124 206.352 48.6124C185.9 48.6124 165.449 48.6124 144.997 48.6124C144.893 48.6124 144.789 48.6093 144.685 48.613C143.685 48.6485 142.807 48.9819 142.181 49.7782C141.694 50.3972 141.283 51.0757 140.838 51.7276ZM124.919 51.8628C124.53 51.2325 124.226 50.695 123.876 50.1896C123.673 49.8954 123.412 49.6341 123.147 49.3901C122.484 48.7786 121.664 48.612 120.792 48.612C110.429 48.6126 100.066 48.6124 89.7034 48.6124C79.3405 48.6124 69.5333 48.6124 59.4481 48.6124C59.2745 48.6124 59.1001 48.6024 58.9276 48.6167C58.3837 48.6618 58.1931 48.9655 58.3872 49.4673C58.4185 49.548 58.453 49.6282 58.4956 49.7034C58.6743 50.0187 58.8444 50.3397 59.0399 50.6444C59.4718 51.3171 60.0481 51.7735 60.8856 51.8112C61.2665 51.8284 61.6472 51.8606 62.028 51.8606C82.771 51.863 103.514 51.8628 124.257 51.8628C124.445 51.8628 124.634 51.8628 124.919 51.8628H124.919ZM62.6382 53.3856C62.9778 54.0337 63.2556 54.586 63.5556 55.1259C63.6798 55.3493 63.8347 55.5612 64.0048 55.7524C64.4554 56.2589 65.0686 56.3843 65.7036 56.3882C66.5511 56.3935 67.3991 56.3675 68.2462 56.3355C69.5255 56.287 70.805 56.2358 72.0829 56.1595C73.2724 56.0886 74.4587 55.9685 75.6481 55.8972C77.0302 55.8144 78.4146 55.773 79.7966 55.6917C81.1771 55.6106 82.5552 55.4905 83.9356 55.4106C85.1116 55.3427 86.2896 55.3108 87.4663 55.2571C88.3833 55.2153 89.3001 55.172 90.2163 55.1153C91.4937 55.0366 92.7696 54.9384 94.047 54.8608C94.9802 54.8042 95.9149 54.772 96.8483 54.7185C97.1015 54.704 97.3524 54.6513 97.6144 54.6147V53.1874C97.3991 53.1874 97.2134 53.1874 97.0276 53.1874C95.5046 53.1874 93.9817 53.1808 92.4587 53.1888C89.1456 53.2062 85.8325 53.2317 82.5194 53.2526C81.9827 53.256 81.446 53.2503 80.9093 53.2536C79.2437 53.2638 77.5782 53.279 75.9126 53.2866C74.8019 53.2919 73.6907 53.305 72.5804 53.2829C71.4614 53.2606 70.3437 53.3093 69.2247 53.3009C67.3036 53.2864 65.3819 53.3536 63.4604 53.3853C63.2206 53.3892 62.9806 53.3858 62.6386 53.3858L62.6382 53.3856ZM168.15 54.6073C168.385 54.6286 168.572 54.6511 168.759 54.6614C169.416 54.6978 170.074 54.7226 170.73 54.7649C171.988 54.8462 173.246 54.9437 174.504 55.0204C175.455 55.0784 176.407 55.1073 177.357 55.1622C179.222 55.2698 181.085 55.3878 182.95 55.4989C183.589 55.537 184.229 55.5622 184.868 55.603C186.145 55.6847 187.421 55.7972 188.699 55.8513C189.752 55.8958 190.802 55.9235 191.854 56.039C193.04 56.169 194.238 56.1831 195.432 56.2446C196.416 56.2954 197.4 56.3628 198.385 56.3831C199.042 56.3968 199.702 56.3663 200.357 56.3089C200.971 56.255 201.49 55.9175 201.852 55.4616C202.274 54.9292 202.576 54.3005 202.927 53.7114C202.998 53.5921 203.052 53.4628 203.102 53.3628C202.682 53.3356 202.31 53.2927 201.938 53.2907C198.59 53.2741 195.242 53.2644 191.893 53.2532C191.409 53.2517 190.924 53.2569 190.44 53.2524C188.342 53.2321 186.244 53.2019 184.146 53.1897C182.311 53.179 180.476 53.1913 178.641 53.1866C175.292 53.1782 171.943 53.1644 168.595 53.1554C168.448 53.155 168.301 53.1817 168.15 53.1962V54.6073ZM131.05 65.1446C130.922 65.5589 130.817 65.9239 130.697 66.2843C130.042 68.2495 129.384 70.2136 128.728 72.178C128.684 72.3093 128.646 72.4423 128.601 72.573C128.346 73.3056 128.09 74.0378 127.834 74.7702C127.44 75.8964 127.059 77.0272 126.645 78.1462C126.49 78.5669 126.258 78.9595 126.016 79.4579C126.253 79.3042 126.415 79.23 126.538 79.1138C127.54 78.1646 128.534 77.2067 129.532 76.2528C130.155 75.6565 130.752 75.0302 131.5 74.5774C132.232 74.1345 132.99 74.0733 133.79 74.3587C134.564 74.6347 135.111 75.2218 135.697 75.7485C136.128 76.1353 136.504 76.5814 136.921 76.9837C137.616 77.654 138.32 78.3146 139.029 78.9694C139.178 79.1075 139.366 79.2038 139.594 79.3585C137.723 74.6413 136.379 69.8542 134.693 65.1671C134.582 65.1593 134.481 65.1458 134.38 65.1458C133.288 65.1442 132.196 65.1448 131.05 65.1448L131.05 65.1446ZM126.402 65.1692C125.819 66.0901 125.256 66.9784 124.694 67.8677C124.298 68.495 123.902 69.1226 123.509 69.7519C122.869 70.7776 122.232 71.8056 121.592 72.8315C120.991 73.7966 120.386 74.7599 119.785 75.7251C119.272 76.5481 118.737 77.3528 117.962 77.962C117.879 78.0267 117.808 78.106 117.722 78.188C118.202 78.3306 118.629 78.4704 119.064 78.5841C120.201 78.8817 121.341 79.1661 122.479 79.4593C123.264 79.6614 124.12 79.3468 124.594 78.7202C125.009 78.172 125.244 77.5356 125.481 76.9126C125.918 75.7692 126.273 74.5948 126.669 73.4356C127.154 72.0126 127.65 70.5927 128.136 69.1698C128.421 68.3376 128.694 67.5017 128.977 66.6688C129.142 66.1823 129.316 65.6987 129.502 65.169H126.402V65.1692ZM148.013 78.2126C147.62 77.831 147.234 77.5485 146.968 77.1798C146.375 76.3585 145.834 75.4987 145.285 74.6458C144.885 74.0228 144.511 73.3823 144.116 72.7554C143.629 71.9823 143.125 71.2198 142.641 70.4448C142.057 69.5093 141.492 68.5618 140.908 67.6263C140.443 66.8815 139.954 66.1517 139.492 65.4052C139.379 65.221 139.26 65.1378 139.041 65.1407C138.278 65.1515 137.514 65.1435 136.751 65.1458C136.601 65.1462 136.451 65.161 136.264 65.1714C136.323 65.4095 136.357 65.6138 136.423 65.8077C136.727 66.706 137.04 67.6011 137.349 68.4976C137.686 69.4729 138.025 70.4478 138.36 71.4237C138.978 73.2194 139.578 75.0212 140.219 76.8083C140.433 77.4036 140.724 77.9765 141.027 78.5333C141.46 79.3265 142.36 79.6892 143.238 79.4606C144.024 79.2564 144.804 79.0314 145.589 78.8257C146.372 78.6206 147.159 78.4282 148.013 78.213L148.013 78.2126ZM97.6179 55.9681C97.4378 56.0044 97.322 56.0425 97.2042 56.0493C95.7876 56.1335 94.3706 56.2142 92.9536 56.2933C91.7616 56.3599 90.5689 56.4167 89.3772 56.4901C88.4306 56.5485 87.4854 56.6349 86.5388 56.6923C85.6753 56.7446 84.8097 56.7608 83.9466 56.8181C82.5515 56.9105 81.1587 57.0372 79.7634 57.1233C78.3815 57.2087 76.9978 57.2595 75.6151 57.33C74.7683 57.3731 73.9214 57.4185 73.0753 57.4733C71.7667 57.5583 70.4587 57.6526 69.1503 57.7425C68.6042 57.78 68.0581 57.8161 67.4208 57.8591C67.7249 58.4044 67.9813 58.8833 68.2554 59.3519C68.7095 60.1288 69.4366 60.4259 70.2948 60.4646C70.5886 60.4778 70.8866 60.481 71.178 60.4474C71.9661 60.3565 72.7499 60.2267 73.5386 60.1427C75.3597 59.9489 77.1833 59.778 79.005 59.5884C80.5341 59.4292 82.0618 59.2569 83.5899 59.0894C85.0827 58.9255 86.5751 58.7587 88.0679 58.5958C89.7663 58.4106 91.4646 58.2231 93.164 58.0466C94.2479 57.9341 95.3347 57.8474 96.4187 57.7335C96.8226 57.6911 97.2216 57.6046 97.6181 57.539V55.9677L97.6179 55.9681ZM198.246 57.8839C197.687 57.8423 197.154 57.7964 196.62 57.7644C195.222 57.6808 193.824 57.6091 192.427 57.522C191.201 57.4456 189.977 57.3521 188.752 57.2708C187.493 57.1874 186.235 57.1089 184.976 57.0298C183.888 56.9614 182.8 56.8882 181.712 56.8296C180.26 56.7515 178.807 56.6972 177.355 56.6103C176.097 56.5349 174.841 56.4183 173.583 56.338C172.149 56.2464 170.714 56.1704 169.279 56.097C168.909 56.078 168.537 56.094 168.147 56.094C168.138 56.6413 168.099 57.1343 168.166 57.6265C168.468 57.6659 168.707 57.7032 168.946 57.7274C170.648 57.8995 172.35 58.0644 174.051 58.2405C175.683 58.4095 177.313 58.5905 178.944 58.7644C180.44 58.9237 181.937 59.0761 183.433 59.2399C185.184 59.4319 186.935 59.6341 188.687 59.8306C190.437 60.0269 192.186 60.2378 193.938 60.4087C194.556 60.4688 195.186 60.4605 195.807 60.4263C196.318 60.3981 196.818 60.1868 197.133 59.7993C197.542 59.2948 197.843 58.7013 198.184 58.1419C198.225 58.0739 198.224 57.9802 198.246 57.8837V57.8839ZM110.178 76.1366C110.478 76.2409 110.731 76.3464 110.994 76.4173C111.809 76.6378 112.629 76.8454 113.447 77.0577C113.715 77.1272 113.991 77.1735 114.249 77.2689C115.289 77.6519 116.174 77.2987 117.013 76.7142C117.716 76.2251 118.107 75.4774 118.561 74.7919C119.219 73.7991 119.826 72.7724 120.463 71.7651C121.078 70.7907 121.704 69.8228 122.326 68.8521C122.837 68.0532 123.366 67.2644 123.854 66.4519C124.105 66.0353 124.493 65.6903 124.6 65.1448C123.49 65.1448 122.416 65.1347 121.342 65.1556C121.175 65.1589 120.978 65.269 120.853 65.3899C120.445 65.786 120.064 66.211 119.671 66.623C119.029 67.2948 118.385 67.9646 117.744 68.6366C117.137 69.2728 116.533 69.9118 115.926 70.5478C115.33 71.172 114.737 71.7993 114.133 72.4157C113.58 72.9804 112.971 73.496 112.464 74.0989C111.815 74.8714 111.057 75.5017 110.178 76.1368V76.1366ZM141.054 65.1446C141.411 65.7024 141.719 66.1753 142.017 66.6546C142.492 67.4171 142.949 68.1905 143.434 68.9468C143.852 69.6001 144.308 70.2296 144.73 70.8806C145.152 71.5313 145.551 72.1972 145.964 72.8536C146.471 73.6573 146.986 74.4556 147.49 75.2606C147.869 75.8661 148.297 76.4315 148.886 76.8456C149.597 77.3448 150.393 77.5747 151.249 77.3655C152.457 77.0702 153.652 76.7241 154.85 76.3917C155.07 76.3308 155.279 76.2323 155.58 76.1183C154.478 75.4323 153.648 74.5856 152.833 73.7214C151.84 72.6688 150.844 71.6194 149.842 70.5747C148.961 69.6544 148.067 68.7454 147.185 67.8259C146.385 66.9921 145.597 66.147 144.791 65.3187C144.697 65.222 144.526 65.154 144.39 65.1522C143.314 65.1388 142.239 65.1448 141.054 65.1448L141.054 65.1446ZM118.941 65.2524C118.928 65.2163 118.916 65.1804 118.903 65.1442C117.97 65.1442 117.036 65.1802 116.106 65.1325C115.394 65.0962 114.772 65.2056 114.274 65.7509C114.229 65.7997 114.154 65.8196 114.099 65.8599C113.177 66.5263 112.257 67.1944 111.336 67.8606C110.497 68.4673 109.658 69.0743 108.817 69.6771C108.017 70.2497 107.201 70.8005 106.415 71.3909C105.424 72.1356 104.445 72.8956 103.37 73.521C103.091 73.6833 102.819 73.8565 102.492 74.056C102.803 74.1515 103.048 74.2368 103.297 74.3007C103.75 74.4163 104.21 74.5034 104.659 74.6304C105.438 74.8505 106.209 75.0944 106.985 75.3216C107.1 75.3552 107.225 75.3538 107.345 75.3655C108.013 75.431 108.609 75.1858 109.178 74.8958C110.23 74.3603 110.988 73.4673 111.802 72.6493C112.652 71.795 113.476 70.914 114.315 70.0481C114.687 69.6642 115.072 69.2933 115.443 68.9083C116.1 68.2271 116.75 67.539 117.403 66.855C117.915 66.3198 118.429 65.7866 118.941 65.2524H118.941ZM163.285 74.0743C163.114 73.9632 163.058 73.9253 163.001 73.8901C162.295 73.4577 161.574 73.0489 160.888 72.587C160.26 72.1642 159.677 71.6751 159.063 71.2315C158.183 70.5952 157.287 69.9802 156.406 69.3437C155.586 68.7505 154.782 68.1347 153.962 67.5403C152.959 66.8132 151.944 66.103 150.944 65.373C150.739 65.2233 150.544 65.1358 150.283 65.139C149.208 65.1521 148.133 65.1431 147.058 65.1464C146.953 65.1468 146.849 65.1751 146.7 65.197C147.379 65.8933 148.014 66.5419 148.647 67.1937C149.39 67.9593 150.126 68.7319 150.873 69.4935C151.647 70.2812 152.431 71.0579 153.209 71.8415C153.972 72.611 154.718 73.3997 155.501 74.1489C156.081 74.704 156.772 75.1185 157.561 75.2855C157.972 75.3724 158.433 75.3728 158.842 75.2819C159.648 75.1034 160.432 74.8259 161.229 74.6048C161.877 74.4251 162.531 74.2679 163.285 74.0745V74.0743ZM72.7458 61.7399C72.7401 61.7845 72.7347 61.829 72.729 61.8735C73.0923 61.9694 73.4577 62.0583 73.8185 62.1628C74.8288 62.4552 75.83 62.7821 76.8481 63.0438C78.5169 63.473 80.213 63.4239 81.906 63.2167C82.556 63.1372 83.1954 62.9749 83.8437 62.8774C84.9048 62.7179 85.9722 62.5981 87.0315 62.4292C88.4474 62.2034 89.8571 61.9403 91.2714 61.7056C91.9718 61.5894 92.6778 61.5077 93.3794 61.3985C94.1808 61.2737 94.981 61.1413 95.78 61.0019C96.3886 60.8956 96.9946 60.7735 97.5821 60.6622C97.6831 60.0274 97.6665 59.3448 97.537 58.938C89.2794 59.8714 81.0126 60.8056 72.7458 61.7399ZM192.997 61.8647C192.993 61.8331 192.989 61.8017 192.985 61.77C192.922 61.7501 192.861 61.719 192.797 61.7118C191.562 61.5714 190.327 61.4351 189.092 61.295C187.548 61.1202 186.004 60.9394 184.46 60.7679C183.515 60.6628 182.567 60.578 181.623 60.4696C180.835 60.3792 180.052 60.2544 179.264 60.1679C177.41 59.9642 175.553 59.7815 173.698 59.5763C172.188 59.4093 170.681 59.219 169.172 59.0456C168.838 59.0073 168.501 58.9956 168.16 58.9714V60.6401C168.554 60.7306 168.92 60.8366 169.294 60.8964C170.811 61.1397 172.332 61.3644 173.85 61.6058C174.412 61.6952 174.968 61.8243 175.53 61.9146C176.792 62.1171 178.056 62.3019 179.318 62.5026C180.409 62.6763 181.5 62.8577 182.589 63.0431C183.665 63.2261 184.744 63.3919 185.837 63.3608C186.647 63.3378 187.469 63.3132 188.261 63.1595C189.275 62.9624 190.265 62.6378 191.263 62.3622C191.842 62.2022 192.419 62.0308 192.996 61.8646L192.997 61.8647ZM168.635 69.8144C168.56 69.7903 168.499 69.7567 168.434 69.7519C166.933 69.6362 165.624 68.9374 164.285 68.3499C163.434 67.9769 162.625 67.5105 161.79 67.0987C160.613 66.5177 159.426 65.9542 158.25 65.3704C157.947 65.22 157.643 65.1392 157.304 65.1413C156.072 65.1491 154.839 65.1439 153.607 65.1452C153.476 65.1452 153.346 65.156 153.169 65.164C153.234 65.2519 153.255 65.2995 153.291 65.3255C154.344 66.081 155.401 66.8298 156.451 67.589C157.291 68.1956 158.112 68.8269 158.958 69.4245C160.225 70.3206 161.498 71.2103 162.786 72.0765C163.477 72.5415 164.232 72.8821 165.072 72.9987C165.582 73.0692 166.046 72.9827 166.416 72.6126C166.732 72.2952 167.039 71.9638 167.314 71.6106C167.758 71.0405 168.172 70.4474 168.635 69.8147V69.8144ZM112.654 65.1442H112.09C110.876 65.1442 109.662 65.1532 108.449 65.1392C108.054 65.1345 107.703 65.23 107.355 65.4028C106.195 65.9774 105.03 66.5403 103.866 67.1065C103.463 67.3028 103.054 67.4886 102.654 67.6923C102.195 67.9259 101.754 68.1956 101.287 68.4105C100.645 68.706 99.9845 68.9593 99.3364 69.2411C98.745 69.4983 98.1271 69.6437 97.4901 69.7235C97.3421 69.7421 97.1962 69.7788 97.0179 69.8132C97.3269 70.1724 97.6343 70.4745 97.8757 70.8226C98.2948 71.4265 98.6999 72.0259 99.2405 72.545C99.6681 72.9556 100.108 73.0612 100.644 72.9862C101.775 72.828 102.706 72.2349 103.617 71.6052C104.324 71.1161 105.017 70.6065 105.718 70.1083C106.518 69.5396 107.319 68.9735 108.12 68.4054C109.09 67.7165 110.061 67.0294 111.029 66.3364C111.542 65.9683 112.048 65.5892 112.654 65.1444L112.654 65.1442ZM168.132 62.0864C168.132 62.6501 168.128 63.1161 168.133 63.5819C168.138 63.9962 168.142 63.9985 168.538 64.1144C169.15 64.2933 169.762 64.4735 170.376 64.6439C170.843 64.7731 171.318 64.8722 171.781 65.013C172.771 65.314 173.753 65.6464 174.776 65.8167C175.593 65.9526 176.412 66.0948 177.236 66.1683C177.946 66.2317 178.642 66.0435 179.327 65.8644C180.11 65.6597 180.89 65.4462 181.666 65.2167C182.206 65.0569 182.736 64.8638 183.389 64.6458C178.249 63.7835 173.229 62.9415 168.132 62.0864ZM82.4368 64.6288C82.4431 64.6564 82.4495 64.6839 82.4558 64.7112C83.3653 64.9755 84.2761 65.236 85.1845 65.505C86.421 65.8712 87.6364 66.2501 88.9743 66.098C90.5298 65.9212 92.0399 65.5694 93.5421 65.1657C94.4927 64.9103 95.4286 64.6003 96.3735 64.3233C96.6722 64.2358 96.979 64.1761 97.2819 64.1032C97.4601 64.0605 97.6292 63.9858 97.6335 63.7782C97.6448 63.2306 97.6374 62.6825 97.6374 62.0804C92.5142 62.9394 87.4755 63.7841 82.437 64.6288H82.4368ZM160.937 65.1444C161.303 65.3487 161.59 65.5339 161.896 65.6759C162.961 66.1688 164.05 66.6134 165.098 67.1403C166.042 67.6155 166.993 68.037 168.033 68.2683C168.91 68.4634 169.771 68.4911 170.641 68.2776C171.63 68.0351 172.619 67.7911 173.606 67.5401C173.908 67.4634 174.226 67.4157 174.54 67.1874C174.033 67.0704 173.591 66.9876 173.16 66.8647C172.079 66.5567 171.003 66.2317 169.926 65.9114C169.479 65.7786 169.037 65.6339 168.589 65.5062C167.857 65.2974 167.127 65.1179 166.347 65.1341C164.734 65.1677 163.12 65.1442 161.506 65.1442H160.937L160.937 65.1444ZM91.2417 67.1647C91.2405 67.2159 91.2394 67.2669 91.2384 67.3181C92.3728 67.604 93.5042 67.9021 94.6429 68.17C95.0933 68.2761 95.5573 68.3358 96.0187 68.38C96.7854 68.4532 97.5347 68.3249 98.27 68.111C98.5839 68.0198 98.9077 67.9483 99.2052 67.8183C99.7071 67.5987 100.187 67.3294 100.685 67.0991C101.702 66.6282 102.727 66.1741 103.745 65.703C104.076 65.5495 104.394 65.3647 104.767 65.1685C104.65 65.156 104.599 65.1458 104.548 65.1458C102.64 65.1448 100.733 65.1435 98.8249 65.1468C98.6706 65.147 98.5108 65.1597 98.363 65.2005C97.3481 65.4808 96.3351 65.7675 95.3229 66.0575C94.2429 66.3669 93.1657 66.6868 92.0845 66.9919C91.8091 67.0696 91.5229 67.1083 91.2417 67.1649V67.1647Z" fill="white"/>
<path d="M152.134 118.523C151.975 118.535 151.873 118.549 151.771 118.549C150.731 118.551 149.691 118.55 148.602 118.55C148.257 114.93 147.916 111.336 147.574 107.743C147.54 107.732 147.507 107.721 147.474 107.71C147.091 108.41 146.707 109.109 146.324 109.809C146.034 110.338 145.737 110.863 145.46 111.398C145.048 112.193 144.655 112.997 144.247 113.794C143.973 114.328 143.671 114.849 143.411 115.389C143.103 116.028 142.827 116.681 142.536 117.328C142.465 117.485 142.394 117.642 142.319 117.797C142.082 118.288 141.78 118.437 141.256 118.306C141.167 118.284 141.07 118.211 141.018 118.134C140.883 117.934 140.758 117.724 140.652 117.507C139.879 115.929 139.123 114.341 138.337 112.768C137.72 111.536 137.065 110.322 136.43 109.098C136.226 108.703 136.031 108.303 135.741 107.911C135.717 108.014 135.682 108.116 135.671 108.221C135.509 109.731 135.352 111.242 135.19 112.752C135.093 113.66 134.974 114.567 134.895 115.476C134.822 116.304 134.792 117.134 134.738 117.963C134.726 118.147 134.691 118.33 134.664 118.528H131.896C132.665 112.669 133.431 106.838 134.203 100.953C134.71 100.859 135.224 100.906 135.736 100.924C135.802 100.926 135.879 101.012 135.927 101.076C136.009 101.186 136.082 101.305 136.143 101.429C136.55 102.243 136.949 103.062 137.359 103.875C137.87 104.891 138.384 105.907 138.907 106.917C139.621 108.296 140.336 109.675 141.071 111.042C141.379 111.617 141.74 112.163 142.123 112.796C142.455 112.195 142.761 111.664 143.046 111.121C143.833 109.622 144.605 108.116 145.395 106.619C146.128 105.232 146.871 103.85 147.621 102.473C147.868 102.02 148.142 101.581 148.42 101.147C148.486 101.045 148.618 100.926 148.726 100.919C149.154 100.893 149.585 100.909 150.04 100.909C150.74 106.797 151.434 112.633 152.134 118.522V118.523Z" fill="white"/>
<path d="M94.652 100.336C96.0537 100.242 97.5071 100.644 98.8723 101.296C99.7489 101.714 100.548 102.295 101.204 103.056C101.574 103.485 101.952 103.895 102.246 104.384C102.676 105.099 103.002 105.852 103.252 106.647C103.722 108.146 103.738 109.668 103.595 111.211C103.521 112.013 103.3 112.78 103.016 113.513C102.632 114.507 102.122 115.452 101.326 116.202C100.939 116.566 100.569 116.95 100.164 117.292C99.8496 117.557 99.5139 117.813 99.1502 118C97.4571 118.873 95.6549 119.302 93.7487 119.128C92.6137 119.024 91.5115 118.732 90.4823 118.22C89.086 117.524 87.9032 116.593 87.0352 115.264C86.5971 114.593 86.244 113.901 85.9883 113.147C85.3678 111.317 85.3178 109.455 85.6475 107.571C85.883 106.224 86.4022 104.983 87.2094 103.888C87.8875 102.967 88.7147 102.186 89.7276 101.616C91.4475 100.649 92.5955 100.334 94.6522 100.336L94.652 100.336ZM99.969 109.379C99.9242 108.955 99.9285 108.196 99.7489 107.484C99.4934 106.471 99.1487 105.489 98.4865 104.623C97.8811 103.832 97.1813 103.176 96.2725 102.831C94.7645 102.258 93.2821 102.392 91.9209 103.314C90.5768 104.224 89.8715 105.576 89.4582 107.084C89.2729 107.76 89.1977 108.48 89.1676 109.184C89.0912 110.965 89.3276 112.688 90.2588 114.265C91.0028 115.525 92.0231 116.37 93.4565 116.789C94.5147 117.097 95.483 116.935 96.4256 116.524C97.8487 115.903 98.7369 114.734 99.3166 113.346C99.8 112.189 99.9686 110.952 99.969 109.379V109.379Z" fill="white"/>
<path d="M121.718 118.53H120.076C116.464 114.504 112.883 110.512 109.32 106.541C109.234 106.572 109.215 106.575 109.202 106.585C109.19 106.593 109.179 106.609 109.175 106.623C109.167 106.656 109.162 106.691 109.16 106.725C109.157 106.777 109.157 106.829 109.157 106.881C109.156 110.696 109.155 114.51 109.154 118.325C109.154 118.359 109.147 118.394 109.141 118.428C109.138 118.443 109.127 118.458 109.1 118.511H106.58V100.936C107.169 100.874 107.753 100.902 108.334 100.919C108.421 100.922 108.521 101.002 108.587 101.073C109.466 102.019 110.345 102.965 111.213 103.92C111.803 104.569 112.367 105.241 112.961 105.887C113.776 106.775 114.615 107.643 115.432 108.53C116.509 109.698 117.575 110.878 118.648 112.051C118.75 112.162 118.867 112.26 119.058 112.44C119.069 112.176 119.083 111.997 119.083 111.818C119.085 108.402 119.084 104.986 119.084 101.57C119.084 101.368 119.084 101.165 119.084 100.936H121.718V118.529L121.718 118.53Z" fill="white"/>
<path d="M211.435 106.486C211.435 108.582 211.435 110.573 211.435 112.564C211.435 114.537 211.435 116.51 211.435 118.517H208.91C208.808 118.143 208.784 101.577 208.895 100.906C209.415 100.906 209.948 100.895 210.48 100.915C210.599 100.92 210.741 101.009 210.827 101.102C211.591 101.921 212.344 102.751 213.102 103.576C214.118 104.679 215.137 105.779 216.151 106.884C216.938 107.741 217.715 108.607 218.504 109.463C219.403 110.438 220.31 111.405 221.215 112.375C221.222 112.383 221.246 112.376 221.322 112.376V100.936H223.94V118.542C223.423 118.542 222.893 118.552 222.364 118.531C222.274 118.528 222.181 118.397 222.105 118.311C221.094 117.181 220.088 116.047 219.076 114.918C217.614 113.288 216.149 111.661 214.685 110.034C213.674 108.912 212.661 107.791 211.648 106.671C211.615 106.634 211.573 106.605 211.436 106.486L211.435 106.486Z" fill="white"/>
<path d="M171.997 100.944C172.537 100.9 173.083 100.827 173.632 100.814C174.949 100.783 176.268 100.762 177.586 100.773C178.576 100.781 179.558 100.948 180.486 101.279C181.164 101.521 181.72 101.992 182.23 102.523C182.89 103.212 183.239 104.023 183.453 104.932C183.596 105.538 183.58 106.111 183.447 106.716C183.224 107.728 182.757 108.59 182.033 109.319C181.464 109.891 180.753 110.252 180.044 110.612C179.969 110.65 179.889 110.679 179.732 110.746C180.033 111.116 180.302 111.459 180.583 111.791C181.752 113.174 182.926 114.552 184.096 115.934C184.733 116.685 185.367 117.437 186 118.19C186.053 118.253 186.091 118.33 186.173 118.458C185.995 118.482 185.868 118.513 185.741 118.513C184.717 118.517 183.692 118.484 182.67 118.53C182.215 118.55 181.962 118.332 181.719 118.032C181.027 117.175 180.338 116.315 179.651 115.454C178.866 114.47 178.086 113.482 177.303 112.497C177.067 112.2 176.822 111.909 176.594 111.606C176.332 111.257 176.003 111.094 175.565 111.171C175.48 111.185 175.393 111.185 175.232 111.198C175.198 111.794 175.221 112.394 175.217 112.993C175.213 113.6 175.216 114.206 175.216 114.813V116.634C175.216 117.236 175.216 117.839 175.216 118.477H172.012C171.905 118.067 171.89 101.503 171.996 100.945L171.997 100.944ZM175.249 102.891V109.022C176.333 109.216 177.344 109.175 178.374 108.779C179.662 108.284 180.646 106.631 180.143 105.086C179.94 104.464 179.637 103.94 179.104 103.523C178.685 103.195 178.203 103.086 177.729 102.951C176.916 102.719 176.088 102.801 175.249 102.891H175.249Z" fill="white"/>
<path d="M161.316 100.567H162.692C165.235 106.523 167.784 112.494 170.356 118.517H166.484C165.902 116.88 165.328 115.187 164.593 113.557H158.23C157.52 115.147 157.029 116.821 156.48 118.514H153.361C153.986 116.979 154.691 115.513 155.342 114.025C155.998 112.525 156.674 111.034 157.334 109.536C157.988 108.053 158.627 106.564 159.285 105.083C159.948 103.588 160.626 102.099 161.316 100.567ZM163.653 111.342C163.529 110.739 161.966 107.052 161.401 106.022C160.647 107.795 159.883 109.541 159.169 111.342H163.653Z" fill="white"/>
<path d="M58.2106 118.529H54.3419C53.7142 116.862 53.0952 115.219 52.4722 113.564H46.0614C45.3731 115.164 44.8464 116.836 44.3265 118.526H41.1782C43.8456 112.514 46.4987 106.535 49.1462 100.567H50.4632C50.5487 100.716 50.6683 100.883 50.747 101.067C51.0247 101.718 51.2794 102.378 51.5604 103.026C51.8272 103.642 52.1267 104.244 52.3929 104.861C52.7827 105.764 53.1524 106.675 53.5366 107.58C54.0485 108.787 54.57 109.989 55.0794 111.196C55.5149 112.228 55.9306 113.269 56.3712 114.299C56.9667 115.691 57.5776 117.076 58.2106 118.529ZM51.586 111.346C50.8714 109.531 50.0845 107.806 49.3149 106.074C49.2784 106.074 49.2419 106.074 49.2054 106.074C48.4671 107.817 47.7286 109.56 46.9724 111.346H51.586Z" fill="white"/>
<path d="M69.5372 104.603C69.1618 104.634 68.7866 104.664 68.3876 104.697C68.2626 104.478 68.1628 104.258 68.0216 104.068C67.8282 103.808 67.6446 103.51 67.3845 103.337C66.4808 102.736 65.4759 102.507 64.4165 102.815C63.5087 103.079 62.7507 103.558 62.4155 104.525C62.2845 104.903 62.2673 105.249 62.4112 105.631C62.6542 106.275 63.079 106.723 63.6774 107.057C64.4991 107.515 65.4024 107.762 66.2606 108.123C67.0552 108.458 67.8769 108.729 68.606 109.212C69.9519 110.102 70.7165 111.314 70.7302 112.951C70.7353 113.572 70.7536 114.19 70.5356 114.797C70.081 116.064 69.2968 117.049 68.1616 117.771C66.5612 118.79 64.7958 119.01 62.9503 118.915C61.803 118.856 60.7538 118.479 59.7325 118.002C59.473 117.88 59.2521 117.677 58.9917 117.496V113.718C59.4183 113.641 59.845 113.69 60.2571 113.69C60.5558 114.169 60.8134 114.657 61.1396 115.093C62.2255 116.546 64.1362 117.026 65.7802 116.31C66.3356 116.068 66.8233 115.801 67.1624 115.279C67.8562 114.212 67.5468 112.629 66.4851 111.918C65.9339 111.549 65.3237 111.308 64.6997 111.097C63.8022 110.794 62.8825 110.531 62.055 110.07C61.0718 109.522 60.1743 108.827 59.6562 107.8C59.2169 106.93 58.995 106.001 59.2251 104.993C59.3976 104.237 59.6487 103.514 60.1118 102.913C60.721 102.123 61.4747 101.477 62.4005 101.039C64.0011 100.282 65.6497 100.278 67.3204 100.683C67.9878 100.845 68.6288 101.114 69.2847 101.326C69.4933 101.394 69.6003 101.509 69.5983 101.737C69.5909 102.639 69.5931 103.54 69.5884 104.442C69.5882 104.49 69.5589 104.538 69.5376 104.603L69.5372 104.603Z" fill="white"/>
<path d="M79.8381 103.317V118.521H76.5117C76.4633 117.678 76.4949 116.835 76.4893 115.994C76.4838 115.162 76.4881 114.33 76.4881 113.498V103.386C74.6428 103.362 72.8662 103.573 71.0654 103.712V100.935H85.132C85.1777 101.858 85.1518 102.751 85.1473 103.698C83.3861 103.571 81.6596 103.447 79.8379 103.316L79.8381 103.317Z" fill="white"/>
<path d="M199.008 100.941V103.713C197.26 103.591 195.55 103.37 193.775 103.366V118.45C193.369 118.569 191.198 118.599 190.416 118.501C190.405 118.298 190.382 118.082 190.382 117.866C190.38 113.254 190.381 108.643 190.381 104.031C190.381 103.827 190.381 103.623 190.381 103.377C188.532 103.357 186.754 103.592 184.938 103.707V100.941H199.008V100.941Z" fill="white"/>
<path d="M201.324 100.936H204.555C204.667 101.35 204.679 118.017 204.568 118.524H201.324V100.936Z" fill="white"/>
<path d="M132.953 55.3779H133.6C134.307 56.7293 135.007 58.068 135.745 59.4777C136.511 58.0607 137.23 56.7314 137.96 55.3828H138.559C138.736 55.9123 139.391 61.1451 139.35 61.7127H137.95C137.898 61.123 137.843 60.5293 137.794 59.935C137.745 59.3414 137.703 58.7471 137.602 58.1436C136.88 59.2475 136.362 60.4387 135.764 61.6027C135.491 61.6984 135.301 61.6648 135.156 61.348C134.805 60.5797 134.418 59.8277 134.038 59.073C133.915 58.8293 133.769 58.5971 133.525 58.368C133.392 59.4764 133.258 60.585 133.121 61.7164H132.131C132.051 61.2166 132.692 56.2596 132.954 55.3781L132.953 55.3779Z" fill="white"/>
<path d="M116.152 58.4484C115.996 57.7544 116.29 57.0702 116.696 56.4687C117.182 55.7478 117.892 55.2798 118.784 55.1569C119.845 55.0107 120.832 55.1987 121.652 55.9196C122.288 56.4784 122.618 57.2265 122.715 58.0564C122.79 58.695 122.722 59.3296 122.474 59.9378C122.12 60.8048 121.49 61.3671 120.633 61.723C119.023 62.3913 117.026 61.5679 116.405 60.0441C116.201 59.5417 116.12 59.0534 116.151 58.4485L116.152 58.4484ZM117.589 58.5421C117.496 59.1845 117.704 59.7577 118.057 60.2942C118.545 61.0362 119.615 61.2558 120.281 60.7441C120.838 60.3161 121.133 59.7689 121.242 59.0991C121.366 58.3417 121.252 57.6232 120.855 56.9601C120.119 55.73 118.637 55.9517 118.083 56.7792C117.72 57.3224 117.512 57.8792 117.589 58.5419L117.589 58.5421Z" fill="white"/>
<path d="M127.88 55.3743H128.85C128.959 55.7508 128.982 61.1489 128.879 61.6952C128.49 61.8227 128.196 61.7223 127.926 61.3965C127.3 60.6407 126.654 59.9012 125.997 59.1717C125.567 58.693 125.104 58.2436 124.568 57.6916V61.7036H123.461V55.4055C123.902 55.2957 124.253 55.3438 124.588 55.7416C125.221 56.492 125.92 57.1866 126.585 57.9092C126.991 58.3494 127.386 58.7987 127.88 59.2149V55.3739L127.88 55.3743Z" fill="white"/>
<path d="M148.963 58.9355C149.722 59.843 150.456 60.7215 151.275 61.7008C150.671 61.7008 150.205 61.739 149.752 61.682C149.569 61.659 149.385 61.4498 149.249 61.2863C148.686 60.6101 148.143 59.918 147.588 59.2353C147.541 59.1775 147.459 59.1484 147.308 59.0512C147.247 59.9762 147.312 60.8308 147.264 61.7111H145.956V55.314C146.087 55.2937 146.201 55.2594 146.315 55.2613C147.112 55.275 147.909 55.2955 148.706 55.315C149.405 55.3322 150.079 56.1422 150.18 56.6137C150.317 57.2476 150.201 58.1486 149.524 58.5555C149.348 58.6615 149.182 58.7861 148.963 58.9357L148.963 58.9355ZM147.303 58.2049C148.094 58.3287 148.522 58.1596 148.822 57.6369C149.055 57.2328 148.947 56.8842 148.663 56.5515C148.281 56.1045 147.798 56.1963 147.303 56.2148V58.2049Z" fill="white"/>
<path d="M163.009 59.1177V55.4028H164.008C164.121 55.747 164.15 61.0803 164.036 61.6903C163.642 61.8421 163.355 61.7026 163.093 61.3911C162.462 60.6401 161.817 59.9005 161.169 59.1643C160.804 58.7507 160.423 58.3514 160.045 57.9503C159.978 57.88 159.887 57.8325 159.717 57.7087V61.7024H158.695C158.577 61.3581 158.545 56.0345 158.663 55.4005C159.147 55.2655 159.495 55.4188 159.819 55.8192C160.251 56.3538 160.759 56.8268 161.229 57.3325C161.638 57.7735 162.037 58.2239 162.442 58.6688C162.591 58.8333 162.745 58.9942 162.897 59.1567C162.934 59.1436 162.972 59.1305 163.009 59.1175L163.009 59.1177Z" fill="white"/>
<path d="M140.699 61.7186H139.444C140.418 59.5375 141.369 57.4074 142.333 55.25H142.954C143.862 57.3773 144.766 59.4957 145.697 61.6771C145.202 61.8059 144.713 61.7221 144.186 61.7406C144.071 61.484 143.957 61.2373 143.852 60.9867C143.819 60.9084 143.819 60.8174 143.794 60.7354C143.639 60.2282 143.293 59.9746 142.754 59.9746C142.288 59.9746 141.822 59.9746 141.326 59.9746C141.115 60.56 140.913 61.123 140.698 61.7186H140.699ZM143.092 59.0061C142.871 58.473 142.665 57.9758 142.409 57.357C142.169 57.9621 141.972 58.4607 141.757 59.0061H143.092Z" fill="white"/>
<path d="M105.463 61.7075C105.274 61.2097 105.084 60.7298 104.912 60.2433C104.853 60.0747 104.773 59.9747 104.585 59.9755C103.945 59.978 103.305 59.9765 102.65 59.9765C102.43 60.5673 102.221 61.1284 102.002 61.7183H100.767C101.738 59.5368 102.693 57.3933 103.651 55.2407H104.258C105.176 57.3812 106.09 59.5128 107.031 61.7073H105.463V61.7075ZM103.822 57.512C103.782 57.5196 103.742 57.5272 103.702 57.5349C103.502 58.0122 103.301 58.4896 103.083 59.0106H104.443C104.222 58.478 104.022 57.995 103.822 57.5122L103.822 57.512Z" fill="white"/>
<path d="M106.989 59.8542H107.59C107.837 60.2223 108.056 60.634 108.537 60.8151C108.98 60.9817 109.679 60.8405 109.958 60.4637C110.175 60.1717 110.133 59.6983 109.823 59.4874C109.556 59.3057 109.242 59.1921 108.949 59.0497C108.594 58.8778 108.217 58.7417 107.888 58.5298C106.8 57.8278 106.832 56.5913 107.665 55.7981C108.267 55.2258 108.979 55.0637 109.776 55.2141C111.049 55.4546 110.877 55.3725 110.87 56.6067C110.869 56.6553 110.84 56.7038 110.822 56.7585C110.558 56.8676 110.37 56.8028 110.201 56.5647C109.89 56.126 109.17 56.0067 108.721 56.296C108.34 56.5411 108.298 57.1446 108.663 57.4116C108.87 57.5628 109.106 57.6799 109.341 57.7839C109.734 57.9571 110.149 58.0846 110.534 58.2719C111.35 58.6682 111.515 59.8206 111.259 60.4434C111.03 60.9981 110.626 61.3631 110.083 61.6171C109.114 62.0704 108.179 62.0253 107.265 61.4923C107.148 61.4241 107.01 61.2786 107.001 61.1598C106.969 60.7329 106.989 60.3022 106.989 59.8542H106.989Z" fill="white"/>
<path d="M111.171 55.3835H116.204V56.4585C115.621 56.4159 115.059 56.3749 114.43 56.329V61.7364C114.009 61.7364 113.65 61.755 113.295 61.7237C113.203 61.7155 113.093 61.5649 113.048 61.4563C113.005 61.3522 113.035 61.2175 113.034 61.0962C113.034 59.7271 113.034 58.3579 113.034 56.989C113.034 56.7999 113.034 56.6106 113.034 56.386C112.405 56.2493 111.808 56.4743 111.171 56.4042V55.3833L111.171 55.3835Z" fill="white"/>
<path d="M150.413 56.3998V55.4421C150.781 55.338 154.87 55.3148 155.507 55.4166V56.4556C154.903 56.4152 154.313 56.3757 153.665 56.3322V61.713H152.379C152.318 59.95 152.385 58.1906 152.341 56.4177C151.702 56.2111 151.083 56.4857 150.413 56.3996V56.3998Z" fill="white"/>
<path d="M156.106 55.3735H157.318C157.429 55.7646 157.447 61.1661 157.339 61.7151H156.128C156.015 61.3071 155.996 55.9716 156.106 55.3735Z" fill="white"/>
</svg>
