<svg width="304" height="167" viewBox="0 0 304 167" fill="none" xmlns="http://www.w3.org/2000/svg">
<path d="M96.0025 35.8682C109.312 35.8682 122.622 35.8626 135.931 35.8808C136.833 35.8821 137.754 35.9779 138.631 36.1813C140.119 36.5267 141.328 37.3941 142.26 38.5902C142.771 39.2464 143.189 39.9827 143.59 40.7155C144.032 41.524 144.711 41.9493 145.581 42.1109C145.869 42.1645 146.171 42.161 146.467 42.1612C150.394 42.1643 154.321 42.1175 158.246 42.1848C159.912 42.2133 161.042 41.5836 161.732 40.1011C162.11 39.29 162.623 38.5642 163.274 37.9619C164.302 37.0104 165.442 36.2756 166.893 36.0711C168.048 35.9085 169.199 35.8669 170.359 35.8672C196.475 35.869 222.592 35.8664 248.709 35.8793C249.422 35.8795 250.158 35.9563 250.841 36.1479C251.649 36.3747 252.246 36.8948 252.58 37.7421C252.979 38.752 252.784 39.6797 252.318 40.5483C251.75 41.607 251.077 42.6107 250.424 43.6211C250.026 44.2362 249.422 44.5837 248.714 44.7483C248.448 44.8102 248.175 44.8436 247.909 44.9081C247.404 45.0306 246.996 45.2864 246.734 45.7587C246.316 46.5138 245.879 47.2584 245.457 48.0117C245.101 48.6476 244.738 49.2704 244.161 49.7476C243.632 50.185 243.023 50.4226 242.362 50.495C241.394 50.6008 240.738 51.0786 240.266 51.9259C239.694 52.9547 239.12 53.9859 238.295 54.8551C237.351 55.8485 236.282 56.5936 234.935 56.9488C233.816 57.2436 232.725 57.6428 231.615 57.971C230.55 58.2859 229.471 58.554 228.407 58.8699C227.231 59.2185 226.068 59.6099 224.893 59.9602C223.783 60.291 222.662 60.5859 221.549 60.9084C219.956 61.3705 218.367 61.8485 216.774 62.3095C215.772 62.5994 214.76 62.856 213.76 63.1537C212.673 63.4776 211.598 63.8454 210.511 64.169C209.379 64.5062 208.228 64.7831 207.102 65.1419C205.722 65.5818 204.304 65.8916 202.99 66.556C201.711 67.2022 200.695 68.0867 199.951 69.2905C199.098 70.67 197.984 71.7754 196.572 72.5724C195.761 73.0293 194.914 73.3902 194.004 73.6218C192.794 73.93 191.603 74.313 190.399 74.6502C189.94 74.7789 189.466 74.8557 189.006 74.98C186.413 75.6804 183.824 76.3938 181.231 77.0906C180.002 77.4207 178.762 77.7088 177.535 78.0432C176.398 78.353 175.274 78.7128 174.137 79.0251C172.932 79.3562 171.716 79.649 170.51 79.9739C168.821 80.4285 167.139 80.9067 165.449 81.3541C164.903 81.4987 164.342 81.6521 163.783 81.6731C162.582 81.7186 161.397 81.5116 160.409 80.8009C159.529 80.1678 158.725 79.4219 157.924 78.6856C156.401 77.2846 154.91 75.8481 153.392 74.4414C152.894 73.9798 152.045 73.9804 151.508 74.4637C150.666 75.2222 149.865 76.0261 149.044 76.8086C148.179 77.6333 147.3 78.4426 146.45 79.2825C145.8 79.9253 145.109 80.5053 144.306 80.9501C142.739 81.8185 141.109 81.8064 139.43 81.3446C138.115 80.9827 136.784 80.6763 135.469 80.3165C134.264 79.987 133.074 79.603 131.87 79.2722C130.599 78.9234 129.316 78.6224 128.045 78.2759C126.907 77.9657 125.782 77.6074 124.644 77.2971C123.153 76.8906 121.652 76.5161 120.158 76.1177C118.687 75.7256 117.22 75.3192 115.75 74.9214C113.974 74.4404 112.186 73.9983 110.424 73.469C109.293 73.1289 108.268 72.5321 107.307 71.8386C106.391 71.177 105.673 70.3317 105.083 69.3789C103.851 67.3858 101.999 66.2976 99.7962 65.6941C98.6148 65.3704 97.4452 65.0047 96.2681 64.6647C94.8927 64.2673 93.5138 63.8816 92.1387 63.4832C89.6099 62.751 87.0806 62.0193 84.5551 61.2755C82.9216 60.7944 81.2966 60.2848 79.6642 59.8007C78.4221 59.4324 77.1708 59.0949 75.9295 58.7238C74.7779 58.3794 73.6367 57.9998 72.4861 57.6523C71.5936 57.3826 70.6893 57.152 69.7976 56.88C68.7147 56.5499 67.7747 55.99 66.9644 55.1807C66.2016 54.419 65.6057 53.5534 65.1008 52.6134C65.0145 52.4529 64.9274 52.2931 64.8381 52.1342C64.3339 51.2365 63.6507 50.6229 62.5656 50.4822C61.1347 50.2965 60.2358 49.3714 59.5765 48.1565C59.1535 47.377 58.7128 46.607 58.2643 45.8419C57.9215 45.2574 57.4055 44.9083 56.7246 44.8356C55.4587 44.7008 54.6152 44.0061 54.0245 42.9083C53.6487 42.2098 53.1767 41.5638 52.7716 40.8801C52.1301 39.7968 51.9747 38.6395 52.5089 37.4878C52.8543 36.743 53.498 36.3066 54.334 36.0914C55.0965 35.8949 55.8526 35.8685 56.6221 35.8685C69.749 35.8685 82.8759 35.8685 96.0025 35.8685V35.8682ZM197.057 44.2732H107.923C107.782 45.3393 107.835 57.7008 107.976 58.1629C110.204 58.3252 196.512 58.2391 197.057 58.0673V44.2732ZM162.965 42.3068C162.998 42.3662 163.031 42.4255 163.064 42.4846H163.944C190.838 42.4846 217.731 42.4851 244.626 42.482C245.446 42.482 246.27 42.4838 247.087 42.4137C247.764 42.3554 248.48 42.2493 248.928 41.6609C249.422 41.0121 249.846 40.3099 250.289 39.6242C250.374 39.4932 250.428 39.3342 250.463 39.1806C250.593 38.5948 250.338 38.2591 249.732 38.2144C249.528 38.1993 249.322 38.2103 249.116 38.2103C222.222 38.2103 195.328 38.2103 168.434 38.2103C168.297 38.2103 168.16 38.2062 168.023 38.2111C166.709 38.2578 165.553 38.6962 164.73 39.7434C164.091 40.5573 163.55 41.4495 162.965 42.3068ZM142.032 42.4846C141.52 41.6558 141.12 40.9489 140.66 40.2843C140.392 39.8975 140.05 39.5538 139.702 39.233C138.829 38.4289 137.751 38.2098 136.604 38.2098C122.977 38.2106 109.35 38.2103 95.7228 38.2103C82.0956 38.2103 69.1991 38.2103 55.9371 38.2103C55.7088 38.2103 55.4795 38.1972 55.2527 38.216C54.5374 38.2753 54.2867 38.6747 54.542 39.3345C54.5831 39.4405 54.6286 39.5461 54.6846 39.645C54.9196 40.0595 55.1433 40.4818 55.4004 40.8824C55.9682 41.767 56.7261 42.3672 57.8275 42.4168C58.3283 42.4394 58.8289 42.4817 59.3297 42.4817C86.6067 42.4848 113.884 42.4846 141.161 42.4846C141.409 42.4846 141.656 42.4846 142.032 42.4846H142.032ZM60.132 44.4871C60.5787 45.3393 60.9439 46.0656 61.3384 46.7755C61.5018 47.0693 61.7054 47.348 61.9291 47.5995C62.5216 48.2654 63.3281 48.4303 64.1631 48.4355C65.2775 48.4424 66.3927 48.4082 67.5066 48.3661C69.1889 48.3024 70.8714 48.2351 72.5519 48.1347C74.116 48.0415 75.676 47.8835 77.2401 47.7898C79.0575 47.6809 80.878 47.6264 82.6953 47.5196C84.5107 47.413 86.3229 47.255 88.1382 47.15C89.6846 47.0606 91.2336 47.0188 92.781 46.9481C93.9869 46.8932 95.1925 46.8361 96.3973 46.7617C98.077 46.6582 99.7549 46.529 101.435 46.427C102.662 46.3525 103.891 46.3101 105.118 46.2398C105.451 46.2208 105.781 46.1514 106.126 46.1034V44.2264C105.843 44.2264 105.598 44.2264 105.354 44.2264C103.351 44.2264 101.349 44.2177 99.346 44.2282C94.9893 44.2511 90.6326 44.2847 86.2759 44.3122C85.5701 44.3166 84.8643 44.3091 84.1585 44.3135C81.9682 44.3269 79.7782 44.3469 77.5879 44.3569C76.1273 44.3638 74.6661 44.381 73.206 44.352C71.7346 44.3227 70.2647 44.3867 68.7933 44.3757C66.2671 44.3566 63.7401 44.445 61.2133 44.4866C60.8979 44.4917 60.5823 44.4874 60.1326 44.4874L60.132 44.4871ZM198.879 46.0936C199.189 46.1216 199.435 46.1512 199.681 46.1648C200.545 46.2125 201.41 46.2452 202.273 46.3009C203.927 46.4077 205.581 46.5359 207.236 46.6368C208.486 46.7131 209.738 46.7511 210.988 46.8233C213.439 46.9648 215.89 47.1199 218.342 47.2661C219.183 47.3162 220.024 47.3493 220.865 47.403C222.544 47.5103 224.221 47.6583 225.902 47.7294C227.287 47.788 228.668 47.8244 230.051 47.9762C231.61 48.1473 233.186 48.1658 234.755 48.2467C236.05 48.3135 237.343 48.4021 238.639 48.4288C239.502 48.4468 240.371 48.4067 241.232 48.3312C242.039 48.2603 242.722 47.8165 243.198 47.217C243.754 46.5169 244.15 45.6901 244.611 44.9155C244.705 44.7586 244.776 44.5886 244.842 44.4571C244.29 44.4214 243.801 44.3649 243.312 44.3623C238.909 44.3405 234.506 44.3276 230.102 44.313C229.465 44.3109 228.828 44.3179 228.191 44.312C225.432 44.2852 222.674 44.2454 219.915 44.2295C217.502 44.2154 215.089 44.2316 212.676 44.2254C208.272 44.2144 203.868 44.1961 199.465 44.1843C199.272 44.1838 199.078 44.219 198.879 44.238V46.0936ZM150.093 59.9502C149.925 60.4949 149.787 60.975 149.629 61.4488C148.768 64.0331 147.903 66.6158 147.04 69.1991C146.983 69.3717 146.933 69.5466 146.873 69.7184C146.538 70.6818 146.201 71.6447 145.864 72.6078C145.346 74.0887 144.845 75.5758 144.302 77.0472C144.097 77.6005 143.792 78.1167 143.474 78.7721C143.785 78.57 143.999 78.4724 144.16 78.3196C145.478 77.0714 146.785 75.8119 148.097 74.5575C148.917 73.7733 149.702 72.9497 150.685 72.3543C151.648 71.7718 152.645 71.6914 153.697 72.0667C154.714 72.4296 155.434 73.2016 156.205 73.8943C156.771 74.4029 157.266 74.9895 157.814 75.5185C158.727 76.4 159.653 77.2686 160.585 78.1298C160.782 78.3114 161.03 78.438 161.329 78.6414C158.869 72.4383 157.101 66.1433 154.884 59.9797C154.739 59.9694 154.605 59.9517 154.472 59.9517C153.036 59.9497 151.601 59.9504 150.094 59.9504L150.093 59.9502ZM143.982 59.9825C143.215 61.1935 142.474 62.3616 141.736 63.531C141.214 64.3559 140.694 65.1812 140.177 66.0087C139.335 67.3576 138.498 68.7093 137.657 70.0585C136.866 71.3275 136.071 72.5942 135.28 73.8635C134.606 74.9458 133.903 76.004 132.882 76.805C132.774 76.8901 132.681 76.9943 132.567 77.1022C133.198 77.2897 133.76 77.4736 134.332 77.6231C135.827 78.0145 137.326 78.3884 138.823 78.7739C139.855 79.0398 140.98 78.626 141.603 77.8021C142.149 77.0811 142.458 76.2444 142.771 75.4251C143.345 73.9215 143.812 72.3772 144.332 70.8529C144.971 68.9816 145.622 67.1144 146.262 65.2433C146.636 64.1489 146.996 63.0497 147.367 61.9545C147.585 61.3148 147.814 60.6788 148.058 59.9823H143.982V59.9825ZM172.4 77.1346C171.883 76.6327 171.376 76.2613 171.026 75.7764C170.245 74.6964 169.534 73.5658 168.813 72.4442C168.286 71.6249 167.795 70.7827 167.275 69.9583C166.635 68.9417 165.972 67.9391 165.336 66.9199C164.567 65.6897 163.825 64.4438 163.056 63.2135C162.445 62.2342 161.803 61.2744 161.195 60.2928C161.046 60.0506 160.89 59.9412 160.601 59.945C159.598 59.9592 158.594 59.9486 157.591 59.9517C157.393 59.9522 157.196 59.9718 156.95 59.9854C157.027 60.2985 157.072 60.5671 157.159 60.8221C157.559 62.0033 157.97 63.1804 158.377 64.3593C158.82 65.6419 159.265 66.9238 159.706 68.2072C160.518 70.5686 161.307 72.9379 162.151 75.2879C162.432 76.0707 162.814 76.824 163.214 77.5563C163.783 78.5993 164.966 79.0762 166.121 78.7757C167.154 78.5071 168.18 78.2112 169.212 77.9408C170.243 77.6711 171.277 77.4181 172.4 77.1351L172.4 77.1346ZM106.13 47.883C105.894 47.9308 105.741 47.9809 105.586 47.9898C103.724 48.1005 101.86 48.2066 99.9968 48.3106C98.4294 48.3982 96.8609 48.473 95.2939 48.5695C94.049 48.6463 92.8062 48.7598 91.5613 48.8354C90.4258 48.9042 89.2876 48.9255 88.1526 49.0008C86.318 49.1222 84.4865 49.2889 82.6517 49.4022C80.8346 49.5144 79.0149 49.5812 77.1967 49.6739C76.0831 49.7307 74.9695 49.7903 73.8568 49.8624C72.136 49.9742 70.416 50.0982 68.6955 50.2164C67.9774 50.2657 67.2592 50.3132 66.4212 50.3697C66.8211 51.0868 67.1583 51.7165 67.5186 52.3327C68.1158 53.3544 69.072 53.745 70.2005 53.7959C70.5868 53.8133 70.9787 53.8175 71.3619 53.7733C72.3983 53.6539 73.429 53.4831 74.4661 53.3726C76.8608 53.1178 79.2589 52.8931 81.6544 52.6437C83.6652 52.4344 85.6741 52.2079 87.6836 51.9875C89.6466 51.772 91.6091 51.5527 93.5721 51.3385C95.8055 51.095 98.0387 50.8484 100.273 50.6163C101.699 50.4683 103.128 50.3543 104.553 50.2045C105.084 50.1488 105.609 50.035 106.131 49.9487V47.8825L106.13 47.883ZM238.457 50.4023C237.722 50.3476 237.02 50.2872 236.318 50.2451C234.48 50.1352 232.642 50.0409 230.804 49.9264C229.193 49.826 227.582 49.7029 225.971 49.5961C224.317 49.4864 222.662 49.3832 221.007 49.2792C219.576 49.1893 218.145 49.093 216.714 49.0159C214.805 48.9132 212.894 48.8418 210.985 48.7275C209.33 48.6283 207.679 48.475 206.024 48.3695C204.138 48.249 202.251 48.1491 200.364 48.0525C199.878 48.0276 199.389 48.0487 198.876 48.0487C198.865 48.7683 198.813 49.4166 198.902 50.0638C199.299 50.1157 199.612 50.1647 199.927 50.1966C202.164 50.4229 204.403 50.6396 206.639 50.8713C208.785 51.0935 210.93 51.3315 213.075 51.5601C215.042 51.7697 217.01 51.97 218.977 52.1855C221.28 52.438 223.583 52.7038 225.886 52.9622C228.187 53.2203 230.487 53.4977 232.792 53.7224C233.604 53.8015 234.432 53.7905 235.249 53.7455C235.921 53.7086 236.579 53.4307 236.992 52.9211C237.531 52.2577 237.926 51.4772 238.374 50.7416C238.429 50.6522 238.428 50.5289 238.457 50.4021V50.4023ZM122.647 74.4047C123.041 74.5418 123.374 74.6805 123.719 74.7737C124.792 75.0637 125.87 75.3367 126.945 75.6159C127.297 75.7073 127.661 75.7682 128 75.8935C129.367 76.3972 130.531 75.9328 131.635 75.1641C132.559 74.521 133.073 73.5378 133.671 72.6363C134.536 71.3308 135.334 69.9807 136.171 68.6561C136.981 67.3748 137.804 66.1019 138.621 64.8254C139.294 63.775 139.989 62.7376 140.631 61.6692C140.961 61.1214 141.472 60.6678 141.611 59.9504C140.153 59.9504 138.739 59.9371 137.327 59.9646C137.108 59.9689 136.848 60.1138 136.685 60.2728C136.148 60.7936 135.647 61.3525 135.13 61.8942C134.286 62.7777 133.44 63.6584 132.596 64.5422C131.798 65.3787 131.004 66.219 130.206 67.0553C129.422 67.8761 128.643 68.7011 127.848 69.5117C127.121 70.2542 126.319 70.9322 125.653 71.7251C124.8 72.7409 123.802 73.5697 122.647 74.4049V74.4047ZM163.249 59.9502C163.718 60.6837 164.124 61.3055 164.516 61.9358C165.14 62.9385 165.741 63.9555 166.378 64.95C166.929 65.8091 167.527 66.6369 168.083 67.4929C168.638 68.3487 169.162 69.2243 169.706 70.0875C170.372 71.1444 171.049 72.1941 171.712 73.2527C172.211 74.0489 172.773 74.7925 173.548 75.337C174.482 75.9934 175.53 76.2957 176.655 76.0207C178.243 75.6323 179.815 75.1772 181.391 74.7401C181.68 74.6599 181.955 74.5305 182.351 74.3805C180.901 73.4785 179.81 72.3651 178.738 71.2286C177.433 69.8445 176.122 68.4646 174.806 67.0907C173.646 65.8805 172.471 64.6852 171.311 63.476C170.259 62.3796 169.222 61.2683 168.163 60.179C168.039 60.0519 167.814 59.9625 167.635 59.9602C166.221 59.9425 164.807 59.9504 163.249 59.9504L163.249 59.9502ZM134.17 60.092C134.154 60.0444 134.137 59.9972 134.12 59.9497C132.894 59.9497 131.665 59.9969 130.443 59.9343C129.506 59.8865 128.687 60.0303 128.033 60.7474C127.974 60.8116 127.876 60.8378 127.802 60.8907C126.591 61.767 125.381 62.6457 124.169 63.5217C123.066 64.3195 121.964 65.1177 120.857 65.9103C119.805 66.6634 118.732 67.3876 117.698 68.1641C116.395 69.1434 115.108 70.1427 113.694 70.9651C113.328 71.1785 112.97 71.4063 112.54 71.6686C112.949 71.7942 113.271 71.9064 113.599 71.9904C114.194 72.1424 114.799 72.257 115.39 72.4239C116.413 72.7134 117.428 73.0342 118.448 73.3329C118.599 73.3771 118.763 73.3753 118.922 73.3907C119.8 73.4767 120.583 73.1544 121.332 72.773C122.715 72.0687 123.712 70.8945 124.783 69.8188C125.901 68.6954 126.983 67.5369 128.086 66.3983C128.576 65.8934 129.083 65.4056 129.571 64.8994C130.434 64.0036 131.288 63.0987 132.148 62.1993C132.821 61.4956 133.496 60.7944 134.171 60.092H134.17ZM192.482 71.6927C192.257 71.5466 192.185 71.4968 192.109 71.4505C191.181 70.8819 190.232 70.3443 189.33 69.7369C188.505 69.1809 187.739 68.5377 186.931 67.9545C185.773 67.1177 184.595 66.3089 183.437 65.4719C182.358 64.6919 181.301 63.8821 180.223 63.1005C178.904 62.1443 177.569 61.2105 176.254 60.2504C175.984 60.0537 175.729 59.9386 175.385 59.9427C173.972 59.9599 172.558 59.9481 171.144 59.9525C171.007 59.953 170.869 59.9902 170.673 60.019C171.566 60.9346 172.401 61.7876 173.233 62.6446C174.211 63.6514 175.178 64.6675 176.161 65.6689C177.178 66.7047 178.21 67.7261 179.232 68.7566C180.236 69.7685 181.217 70.8056 182.247 71.7908C183.01 72.5208 183.918 73.0658 184.956 73.2854C185.496 73.3997 186.102 73.4002 186.64 73.2807C187.7 73.046 188.731 72.681 189.779 72.3903C190.631 72.154 191.491 71.9472 192.482 71.693V71.6927ZM73.4236 55.473C73.4161 55.5316 73.4089 55.5901 73.4015 55.6487C73.8792 55.7748 74.3597 55.8917 74.8341 56.0291C76.1627 56.4136 77.4793 56.8435 78.8181 57.1877C81.0125 57.7519 83.2429 57.6875 85.4692 57.415C86.3239 57.3104 87.1648 57.097 88.0172 56.9688C89.4126 56.759 90.8162 56.6016 92.2093 56.3794C94.0711 56.0825 95.925 55.7365 97.7847 55.4278C98.7057 55.275 99.6342 55.1676 100.557 55.0241C101.611 54.86 102.663 54.6858 103.714 54.5024C104.514 54.3627 105.311 54.2022 106.083 54.0558C106.216 53.2211 106.194 52.3234 106.024 51.7885C95.1652 53.0159 84.2944 54.2443 73.4236 55.473ZM231.553 55.6371C231.548 55.5955 231.543 55.5542 231.538 55.5126C231.456 55.4864 231.375 55.4455 231.291 55.436C229.667 55.2514 228.043 55.0721 226.418 54.8879C224.388 54.6581 222.359 54.4202 220.328 54.1947C219.085 54.0566 217.839 53.9451 216.597 53.8026C215.561 53.6836 214.531 53.5195 213.495 53.4057C211.057 53.1379 208.615 52.8977 206.176 52.6278C204.19 52.4082 202.208 52.158 200.223 51.93C199.785 51.8796 199.341 51.8642 198.893 51.8324V54.0268C199.411 54.1457 199.893 54.2852 200.384 54.3637C202.38 54.6838 204.38 54.9791 206.376 55.2966C207.115 55.4142 207.846 55.584 208.585 55.7026C210.244 55.969 211.907 56.2119 213.566 56.476C215.001 56.7043 216.435 56.9429 217.868 57.1866C219.282 57.4273 220.702 57.6453 222.138 57.6045C223.204 57.5742 224.285 57.5418 225.326 57.3397C226.66 57.0806 227.961 56.6537 229.274 56.2913C230.036 56.0809 230.793 55.8554 231.553 55.6369L231.553 55.6371ZM199.518 66.0909C199.42 66.0593 199.338 66.0151 199.254 66.0087C197.279 65.8566 195.559 64.9377 193.797 64.1651C192.678 63.6746 191.614 63.0612 190.517 62.5198C188.968 61.7557 187.408 61.0148 185.861 60.2471C185.463 60.0493 185.063 59.943 184.618 59.9458C182.997 59.9561 181.376 59.9492 179.755 59.951C179.584 59.951 179.413 59.9651 179.181 59.9756C179.266 60.0912 179.293 60.1539 179.34 60.188C180.725 61.1815 182.116 62.1662 183.497 63.1645C184.6 63.9622 185.681 64.7923 186.792 65.5782C188.459 66.7566 190.133 67.9265 191.826 69.0655C192.735 69.6771 193.727 70.125 194.833 70.2783C195.503 70.371 196.114 70.2573 196.6 69.7706C197.016 69.3532 197.42 68.9174 197.781 68.453C198.365 67.7033 198.91 66.9233 199.518 66.0914V66.0909ZM125.903 59.9497H125.161C123.565 59.9497 121.969 59.9615 120.373 59.943C119.854 59.9368 119.392 60.0624 118.934 60.2897C117.409 61.0453 115.877 61.7855 114.347 62.5301C113.816 62.7882 113.279 63.0325 112.753 63.3003C112.15 63.6075 111.569 63.9622 110.955 64.2447C110.112 64.6333 109.242 64.9664 108.39 65.3371C107.613 65.6753 106.8 65.8664 105.962 65.9714C105.768 65.9958 105.576 66.0441 105.341 66.0893C105.748 66.5617 106.152 66.959 106.469 67.4167C107.021 68.2108 107.553 68.999 108.264 69.6817C108.826 70.2216 109.405 70.3605 110.109 70.2619C111.596 70.0539 112.821 69.2738 114.019 68.4458C114.949 67.8027 115.86 67.1326 116.782 66.4774C117.834 65.7295 118.888 64.9852 119.94 64.2381C121.216 63.3322 122.494 62.4286 123.765 61.5174C124.441 61.0333 125.106 60.5347 125.903 59.9499L125.903 59.9497ZM198.857 55.9286C198.857 56.6699 198.851 57.2827 198.858 57.8952C198.865 58.44 198.87 58.4431 199.391 58.5954C200.195 58.8306 201 59.0677 201.808 59.2917C202.421 59.4617 203.046 59.5919 203.655 59.7771C204.956 60.1729 206.248 60.61 207.594 60.834C208.668 61.0127 209.745 61.1997 210.828 61.2963C211.762 61.3797 212.677 61.1321 213.578 60.8966C214.607 60.6275 215.634 60.3467 216.654 60.045C217.363 59.8349 218.06 59.5809 218.919 59.2942C212.16 58.1603 205.559 57.0531 198.857 55.9286ZM86.1673 59.2719C86.1755 59.3081 86.1839 59.3443 86.1922 59.3803C87.3882 59.7278 88.5859 60.0704 89.7804 60.424C91.4064 60.9056 93.0047 61.4039 94.7641 61.2038C96.8095 60.9714 98.7954 60.5088 100.771 59.9779C102.021 59.642 103.251 59.2344 104.494 58.8702C104.887 58.7551 105.29 58.6765 105.689 58.5807C105.923 58.5245 106.145 58.4264 106.151 58.1534C106.166 57.4332 106.156 56.7125 106.156 55.9207C99.419 57.0502 92.7931 58.1611 86.1675 59.2719H86.1673ZM189.395 59.9499C189.876 60.2186 190.253 60.4621 190.656 60.6488C192.057 61.297 193.489 61.8816 194.866 62.5745C196.109 63.1994 197.359 63.7537 198.726 64.0578C199.879 64.3143 201.012 64.3508 202.156 64.0701C203.457 63.7511 204.757 63.4303 206.055 63.1003C206.452 62.9993 206.87 62.9367 207.283 62.6364C206.617 62.4826 206.035 62.3737 205.468 62.2121C204.046 61.8071 202.632 61.3797 201.215 60.9585C200.628 60.7839 200.046 60.5936 199.457 60.4256C198.494 60.151 197.535 59.915 196.509 59.9363C194.388 59.9805 192.265 59.9497 190.143 59.9497H189.396L189.395 59.9499ZM97.7457 62.6066C97.7441 62.6739 97.7426 62.741 97.7413 62.8083C99.233 63.1843 100.721 63.5762 102.218 63.9286C102.81 64.068 103.421 64.1466 104.027 64.2047C105.036 64.301 106.021 64.1322 106.988 63.851C107.401 63.7311 107.826 63.6371 108.218 63.466C108.878 63.1773 109.509 62.8232 110.163 62.5203C111.501 61.9011 112.849 61.304 114.187 60.6845C114.623 60.4826 115.04 60.2396 115.531 59.9815C115.378 59.9651 115.31 59.9517 115.243 59.9517C112.734 59.9504 110.226 59.9486 107.718 59.953C107.515 59.9533 107.305 59.97 107.11 60.0236C105.776 60.3922 104.443 60.7692 103.113 61.1506C101.692 61.5575 100.276 61.9782 98.8539 62.3793C98.4918 62.4816 98.1155 62.5324 97.7457 62.6069V62.6066Z" fill="white"/>
<path d="M177.818 130.143C177.609 130.159 177.476 130.177 177.342 130.178C175.974 130.18 174.606 130.179 173.174 130.179C172.721 125.418 172.272 120.693 171.822 115.967C171.778 115.953 171.734 115.938 171.691 115.924C171.187 116.844 170.682 117.764 170.178 118.685C169.798 119.381 169.407 120.071 169.042 120.775C168.501 121.82 167.984 122.877 167.447 123.924C167.087 124.627 166.69 125.312 166.347 126.023C165.943 126.862 165.58 127.721 165.197 128.571C165.105 128.778 165.01 128.985 164.911 129.189C164.6 129.834 164.204 130.03 163.514 129.858C163.397 129.829 163.269 129.734 163.201 129.632C163.024 129.369 162.86 129.093 162.72 128.808C161.703 126.732 160.71 124.644 159.675 122.576C158.864 120.955 158.003 119.359 157.169 117.749C156.899 117.23 156.643 116.705 156.262 116.188C156.23 116.324 156.184 116.458 156.169 116.596C155.957 118.582 155.75 120.568 155.538 122.554C155.41 123.749 155.254 124.941 155.149 126.137C155.054 127.225 155.014 128.317 154.943 129.407C154.927 129.65 154.881 129.89 154.846 130.15H151.205C152.217 122.446 153.224 114.777 154.24 107.038C154.906 106.915 155.583 106.977 156.255 107.001C156.342 107.004 156.443 107.116 156.506 107.201C156.615 107.345 156.71 107.502 156.791 107.664C157.326 108.735 157.85 109.812 158.389 110.882C159.062 112.218 159.737 113.553 160.425 114.881C161.365 116.694 162.304 118.508 163.27 120.306C163.676 121.061 164.151 121.779 164.654 122.612C165.09 121.822 165.493 121.123 165.868 120.41C166.903 118.439 167.918 116.458 168.957 114.489C169.92 112.665 170.898 110.849 171.884 109.037C172.208 108.442 172.569 107.865 172.935 107.294C173.022 107.159 173.195 107.003 173.337 106.995C173.901 106.96 174.467 106.98 175.065 106.98C175.985 114.723 176.898 122.398 177.818 130.143V130.143Z" fill="white"/>
<path d="M102.23 106.227C104.073 106.104 105.984 106.632 107.78 107.489C108.932 108.04 109.983 108.803 110.846 109.804C111.332 110.367 111.829 110.907 112.217 111.55C112.782 112.49 113.21 113.481 113.538 114.527C114.158 116.496 114.178 118.498 113.99 120.528C113.892 121.582 113.602 122.591 113.229 123.555C112.723 124.862 112.054 126.105 111.006 127.091C110.498 127.57 110.011 128.074 109.478 128.524C109.065 128.872 108.623 129.209 108.145 129.455C105.919 130.603 103.549 131.167 101.042 130.938C99.5497 130.801 98.1003 130.418 96.7468 129.744C94.9107 128.829 93.3553 127.605 92.2139 125.857C91.6378 124.975 91.1735 124.065 90.8373 123.073C90.0213 120.667 89.9555 118.219 90.3891 115.741C90.6988 113.97 91.3815 112.338 92.443 110.897C93.3347 109.687 94.4224 108.659 95.7544 107.91C98.0161 106.639 99.5258 106.224 102.23 106.227L102.23 106.227ZM109.222 118.118C109.163 117.561 109.169 116.563 108.932 115.626C108.596 114.295 108.143 113.002 107.272 111.865C106.476 110.825 105.556 109.961 104.361 109.507C102.378 108.754 100.429 108.931 98.6387 110.143C96.8711 111.339 95.9437 113.117 95.4002 115.1C95.1565 115.99 95.0576 116.936 95.018 117.862C94.9176 120.204 95.2284 122.47 96.453 124.544C97.4313 126.201 98.773 127.312 100.658 127.862C102.049 128.268 103.323 128.055 104.562 127.514C106.434 126.698 107.602 125.16 108.364 123.335C109 121.813 109.221 120.187 109.222 118.118V118.118Z" fill="white"/>
<path d="M137.822 130.151H135.663C130.913 124.858 126.204 119.608 121.519 114.386C121.405 114.427 121.381 114.431 121.363 114.444C121.347 114.455 121.332 114.475 121.328 114.494C121.318 114.538 121.31 114.583 121.308 114.628C121.304 114.697 121.305 114.765 121.305 114.834C121.303 119.85 121.302 124.866 121.3 129.882C121.3 129.927 121.292 129.973 121.283 130.017C121.279 130.038 121.265 130.057 121.23 130.127H117.916V107.016C118.69 106.935 119.457 106.971 120.222 106.994C120.336 106.997 120.468 107.103 120.555 107.197C121.71 108.44 122.866 109.684 124.008 110.94C124.784 111.793 125.526 112.677 126.306 113.526C127.379 114.694 128.481 115.835 129.556 117.001C130.973 118.538 132.374 120.089 133.785 121.631C133.919 121.778 134.073 121.907 134.324 122.143C134.339 121.796 134.357 121.561 134.357 121.325C134.359 116.834 134.359 112.342 134.359 107.85C134.359 107.583 134.359 107.317 134.359 107.016H137.822V130.151L137.822 130.151Z" fill="white"/>
<path d="M255.8 114.315C255.8 117.071 255.8 119.689 255.8 122.307C255.8 124.902 255.8 127.496 255.8 130.135H252.48C252.346 129.643 252.314 107.859 252.46 106.977C253.144 106.977 253.844 106.962 254.543 106.989C254.7 106.995 254.887 107.112 255 107.234C256.005 108.312 256.995 109.403 257.992 110.487C259.327 111.939 260.668 113.385 262.002 114.838C263.036 115.965 264.058 117.104 265.095 118.229C266.277 119.511 267.47 120.783 268.66 122.059C268.67 122.069 268.701 122.06 268.801 122.06V107.016H272.243V130.168C271.564 130.168 270.866 130.182 270.171 130.154C270.053 130.15 269.931 129.977 269.83 129.864C268.501 128.378 267.178 126.887 265.847 125.402C263.925 123.259 261.999 121.119 260.073 118.98C258.744 117.504 257.411 116.031 256.08 114.557C256.036 114.509 255.981 114.471 255.8 114.315L255.8 114.315Z" fill="white"/>
<path d="M203.938 107.027C204.648 106.968 205.367 106.872 206.088 106.856C207.821 106.815 209.554 106.787 211.288 106.802C212.59 106.813 213.881 107.032 215.102 107.467C215.993 107.785 216.725 108.405 217.395 109.104C218.263 110.009 218.722 111.075 219.003 112.271C219.191 113.068 219.171 113.822 218.996 114.617C218.703 115.948 218.088 117.081 217.135 118.039C216.387 118.792 215.453 119.267 214.52 119.74C214.421 119.79 214.316 119.828 214.11 119.916C214.506 120.403 214.86 120.854 215.229 121.291C216.767 123.109 218.31 124.922 219.849 126.738C220.686 127.725 221.52 128.715 222.353 129.706C222.422 129.789 222.472 129.889 222.58 130.058C222.346 130.089 222.179 130.129 222.012 130.13C220.666 130.135 219.318 130.092 217.974 130.152C217.375 130.179 217.042 129.892 216.723 129.497C215.813 128.37 214.907 127.24 214.004 126.107C212.972 124.813 211.945 123.515 210.916 122.219C210.605 121.828 210.283 121.446 209.984 121.047C209.64 120.588 209.206 120.373 208.63 120.475C208.519 120.494 208.404 120.494 208.192 120.51C208.147 121.295 208.178 122.084 208.173 122.871C208.167 123.669 208.172 124.467 208.172 125.265V127.659C208.172 128.451 208.172 129.243 208.172 130.083H203.958C203.818 129.543 203.798 107.762 203.938 107.028L203.938 107.027ZM208.215 109.587V117.649C209.641 117.905 210.969 117.85 212.324 117.33C214.018 116.679 215.312 114.505 214.651 112.474C214.384 111.655 213.985 110.966 213.284 110.418C212.733 109.987 212.1 109.843 211.476 109.666C210.407 109.361 209.318 109.469 208.215 109.587H208.215Z" fill="white"/>
<path d="M189.894 106.531H191.702C195.046 114.362 198.399 122.214 201.781 130.135H196.689C195.924 127.982 195.168 125.755 194.202 123.612H185.835C184.901 125.704 184.255 127.905 183.533 130.131H179.433C180.254 128.113 181.181 126.185 182.037 124.228C182.9 122.256 183.789 120.294 184.657 118.324C185.517 116.375 186.357 114.416 187.222 112.469C188.094 110.503 188.986 108.546 189.894 106.531ZM192.966 120.699C192.803 119.907 190.748 115.058 190.005 113.704C189.014 116.036 188.009 118.332 187.069 120.699H192.966Z" fill="white"/>
<path d="M54.3093 130.151H49.2219C48.3964 127.96 47.5825 125.798 46.7632 123.623H38.333C37.4279 125.726 36.7353 127.925 36.0516 130.147H31.9116C35.4192 122.242 38.9081 114.379 42.3895 106.532H44.1213C44.2338 106.727 44.391 106.947 44.4945 107.189C44.8597 108.044 45.1947 108.912 45.5642 109.765C45.9151 110.575 46.3088 111.367 46.6589 112.178C47.1715 113.365 47.6577 114.563 48.1629 115.754C48.8361 117.34 49.5218 118.921 50.1917 120.508C50.7644 121.866 51.311 123.234 51.8904 124.589C52.6735 126.419 53.4768 128.24 54.3093 130.151ZM45.5979 120.705C44.6581 118.319 43.6233 116.051 42.6114 113.773C42.5634 113.773 42.5153 113.773 42.4673 113.773C41.4965 116.065 40.5254 118.357 39.5309 120.705H45.5979Z" fill="white"/>
<path d="M69.2043 111.839C68.7106 111.879 68.2172 111.919 67.6925 111.961C67.5281 111.674 67.3969 111.384 67.2112 111.135C66.9569 110.793 66.7155 110.401 66.3734 110.173C65.185 109.384 63.8636 109.082 62.4705 109.487C61.2768 109.835 60.28 110.464 59.8392 111.736C59.6669 112.233 59.6443 112.688 59.8336 113.19C60.1531 114.038 60.7117 114.627 61.4987 115.066C62.5792 115.668 63.767 115.992 64.8956 116.468C65.9404 116.908 67.0209 117.264 67.9797 117.899C69.7495 119.07 70.755 120.663 70.773 122.816C70.7797 123.633 70.8038 124.445 70.5172 125.244C69.9193 126.91 68.8881 128.204 67.3954 129.154C65.2908 130.494 62.9693 130.783 60.5425 130.659C59.0338 130.581 57.6541 130.085 56.3111 129.458C55.9698 129.298 55.6793 129.03 55.3369 128.792V123.825C55.8978 123.723 56.459 123.788 57.001 123.787C57.3937 124.418 57.7324 125.059 58.1613 125.633C59.5893 127.543 62.102 128.174 64.2638 127.233C64.9942 126.915 65.6355 126.564 66.0814 125.878C66.9937 124.475 66.5868 122.392 65.1907 121.458C64.4659 120.973 63.6635 120.655 62.8429 120.378C61.6628 119.98 60.4533 119.634 59.3651 119.028C58.0722 118.307 56.8921 117.393 56.2107 116.043C55.633 114.899 55.3413 113.677 55.6438 112.352C55.8706 111.357 56.2009 110.406 56.8099 109.617C57.6109 108.577 58.6021 107.728 59.8195 107.152C61.9242 106.156 64.0922 106.151 66.2892 106.683C67.1668 106.896 68.0097 107.251 68.8722 107.53C69.1465 107.619 69.2872 107.77 69.2846 108.07C69.2749 109.255 69.2777 110.441 69.2715 111.626C69.2713 111.689 69.2328 111.753 69.2048 111.839L69.2043 111.839Z" fill="white"/>
<path d="M82.7494 110.147V130.141H78.3752C78.3115 129.032 78.3532 127.924 78.3457 126.818C78.3385 125.724 78.3442 124.629 78.3442 123.535V110.239C75.9176 110.207 73.5814 110.484 71.2134 110.667V107.015H89.711C89.7711 108.229 89.7369 109.403 89.731 110.648C87.4151 110.482 85.1447 110.319 82.7492 110.146L82.7494 110.147Z" fill="white"/>
<path d="M239.457 107.023V110.668C237.16 110.507 234.911 110.217 232.577 110.212V130.047C232.043 130.203 229.188 130.242 228.159 130.115C228.145 129.847 228.115 129.563 228.115 129.278C228.113 123.214 228.113 117.15 228.113 111.086C228.113 110.817 228.113 110.549 228.113 110.226C225.682 110.2 223.344 110.508 220.956 110.66V107.022H239.457V107.023Z" fill="white"/>
<path d="M242.503 107.016H246.753C246.899 107.561 246.915 129.478 246.768 130.145H242.503V107.016Z" fill="white"/>
<path d="M152.596 47.1074H153.447C154.376 48.8845 155.297 50.6448 156.266 52.4987C157.274 50.6353 158.22 48.8873 159.179 47.1138H159.968C160.2 47.8101 161.062 54.6913 161.008 55.4376H159.167C159.098 54.6622 159.026 53.8815 158.961 53.0999C158.897 52.3194 158.841 51.5378 158.709 50.7442C157.76 52.1959 157.078 53.7623 156.292 55.293C155.932 55.4189 155.683 55.3747 155.492 54.9581C155.031 53.9477 154.522 52.9589 154.022 51.9665C153.86 51.646 153.668 51.3406 153.348 51.0393C153.172 52.4969 152.997 53.9547 152.817 55.4425H151.514C151.409 54.7853 152.252 48.2668 152.596 47.1077L152.596 47.1074Z" fill="white"/>
<path d="M130.502 51.1447C130.297 50.2321 130.684 49.3325 131.217 48.5414C131.857 47.5934 132.791 46.978 133.963 46.8165C135.359 46.6241 136.657 46.8714 137.735 47.8194C138.571 48.5542 139.005 49.5379 139.133 50.6292C139.231 51.4691 139.142 52.3035 138.816 53.1033C138.35 54.2434 137.522 54.9828 136.395 55.4508C134.278 56.3297 131.651 55.2469 130.835 53.243C130.566 52.5825 130.46 51.9404 130.502 51.1449L130.502 51.1447ZM132.392 51.268C132.269 52.1127 132.543 52.8665 133.007 53.572C133.649 54.5478 135.056 54.8364 135.932 54.1635C136.664 53.6008 137.052 52.8812 137.196 52.0005C137.359 51.0045 137.209 50.0596 136.687 49.1876C135.719 47.57 133.77 47.8616 133.042 48.9498C132.564 49.664 132.29 50.3963 132.392 51.2677L132.392 51.268Z" fill="white"/>
<path d="M145.925 47.1026H147.2C147.344 47.5978 147.373 54.6963 147.238 55.4146C146.727 55.5823 146.34 55.4503 145.985 55.0219C145.162 54.028 144.313 53.0556 143.449 52.0963C142.883 51.4668 142.274 50.8758 141.57 50.15V55.4257H140.114V47.1437C140.694 46.9994 141.155 47.0626 141.596 47.5858C142.428 48.5725 143.347 49.4858 144.222 50.4361C144.756 51.015 145.276 51.6058 145.925 52.1531V47.1021L145.925 47.1026Z" fill="white"/>
<path d="M173.649 51.7853C174.646 52.9786 175.612 54.1338 176.688 55.4216C175.895 55.4216 175.282 55.4719 174.685 55.3969C174.445 55.3666 174.203 55.0916 174.024 54.8766C173.285 53.9874 172.571 53.0772 171.841 52.1796C171.779 52.1035 171.671 52.0653 171.472 51.9374C171.392 53.1537 171.478 54.2777 171.415 55.4352H169.694V47.0231C169.867 46.9964 170.017 46.9511 170.166 46.9537C171.214 46.9717 172.262 46.9987 173.31 47.0243C174.229 47.0469 175.115 48.112 175.249 48.732C175.429 49.5657 175.277 50.7505 174.387 51.2855C174.155 51.425 173.937 51.5888 173.648 51.7856L173.649 51.7853ZM171.466 50.8245C172.505 50.9873 173.068 50.7649 173.464 50.0776C173.77 49.5462 173.627 49.0878 173.254 48.6504C172.752 48.0625 172.117 48.1832 171.466 48.2076V50.8245Z" fill="white"/>
<path d="M192.119 52.0249V47.1398H193.433C193.581 47.5924 193.62 54.6058 193.47 55.4079C192.952 55.6075 192.575 55.4241 192.23 55.0144C191.401 54.0269 190.553 53.0543 189.7 52.0862C189.22 51.5423 188.719 51.0173 188.221 50.4897C188.134 50.3973 188.015 50.3349 187.791 50.172V55.4238H186.446C186.291 54.971 186.249 47.9704 186.405 47.1368C187.041 46.9593 187.498 47.1609 187.924 47.6874C188.493 48.3904 189.162 49.0124 189.778 49.6774C190.316 50.2573 190.841 50.8496 191.373 51.4346C191.57 51.6509 191.772 51.8625 191.972 52.0762C192.021 52.059 192.07 52.0418 192.12 52.0246L192.119 52.0249Z" fill="white"/>
<path d="M162.781 55.4446H161.131C162.412 52.5765 163.663 49.7755 164.929 46.9385H165.746C166.94 49.7359 168.13 52.5216 169.354 55.3902C168.703 55.5594 168.059 55.4493 167.367 55.4736C167.216 55.1362 167.065 54.8118 166.927 54.4823C166.884 54.3793 166.884 54.2596 166.851 54.1517C166.648 53.4848 166.192 53.1513 165.484 53.1513C164.871 53.1513 164.259 53.1513 163.605 53.1513C163.329 53.9211 163.062 54.6615 162.78 55.4446H162.781ZM165.927 51.8777C165.637 51.1768 165.366 50.5229 165.029 49.7092C164.715 50.5049 164.456 51.1606 164.172 51.8777H165.927Z" fill="white"/>
<path d="M116.446 55.4306C116.198 54.7759 115.948 54.1449 115.722 53.5051C115.643 53.2834 115.539 53.1519 115.292 53.153C114.45 53.1563 113.609 53.1543 112.747 53.1543C112.458 53.9312 112.183 54.6691 111.894 55.4447H110.271C111.548 52.5761 112.803 49.7573 114.064 46.9268H114.862C116.069 49.7414 117.271 52.5445 118.508 55.4303H116.446V55.4306ZM114.288 49.9135C114.235 49.9235 114.183 49.9335 114.131 49.9436C113.867 50.5713 113.603 51.199 113.316 51.8842H115.105C114.815 51.1838 114.551 50.5487 114.288 49.9138L114.288 49.9135Z" fill="white"/>
<path d="M118.453 52.9936H119.243C119.568 53.4777 119.855 54.0191 120.488 54.2572C121.071 54.4763 121.99 54.2906 122.357 53.7952C122.642 53.4112 122.588 52.7886 122.18 52.5113C121.828 52.2724 121.416 52.1229 121.03 51.9357C120.564 51.7097 120.067 51.5307 119.635 51.252C118.205 50.3289 118.246 48.7029 119.342 47.6599C120.133 46.9074 121.07 46.6942 122.118 46.892C123.791 47.2081 123.565 47.1002 123.556 48.7232C123.556 48.7871 123.516 48.8508 123.493 48.9228C123.146 49.0663 122.899 48.9811 122.677 48.668C122.268 48.0911 121.321 47.9342 120.73 48.3146C120.229 48.6369 120.175 49.4305 120.655 49.7816C120.926 49.9804 121.236 50.1345 121.546 50.2711C122.063 50.499 122.608 50.6667 123.115 50.913C124.187 51.4341 124.405 52.9494 124.067 53.7685C123.767 54.4979 123.236 54.9779 122.522 55.3118C121.247 55.9079 120.017 55.8486 118.815 55.1477C118.662 55.0581 118.48 54.8667 118.469 54.7106C118.427 54.1491 118.452 53.5828 118.452 52.9936H118.453Z" fill="white"/>
<path d="M123.952 47.1145H130.57V48.5281C129.804 48.4721 129.065 48.4182 128.237 48.3579V55.4686C127.685 55.4686 127.212 55.493 126.746 55.4519C126.624 55.4411 126.48 55.2431 126.421 55.1003C126.364 54.9634 126.403 54.7862 126.403 54.6267C126.402 52.8263 126.402 51.0259 126.402 49.2257C126.402 48.9771 126.402 48.7282 126.402 48.4329C125.576 48.2531 124.789 48.5489 123.952 48.4567V47.1143L123.952 47.1145Z" fill="white"/>
<path d="M175.556 48.4508V47.1915C176.039 47.0546 181.416 47.0241 182.254 47.1579V48.5243C181.459 48.4711 180.684 48.4192 179.832 48.3619V55.4378H178.14C178.06 53.1193 178.149 50.8057 178.091 48.4744C177.251 48.2027 176.437 48.5638 175.556 48.4505V48.4508Z" fill="white"/>
<path d="M183.042 47.1011H184.636C184.782 47.6153 184.806 54.7183 184.663 55.4403H183.07C182.922 54.9037 182.897 47.8875 183.042 47.1011Z" fill="white"/>
</svg>
