<svg width="264" height="149" viewBox="0 0 264 149" fill="none" xmlns="http://www.w3.org/2000/svg">
<path d="M76.0025 26.8682C89.312 26.8682 102.622 26.8626 115.931 26.8808C116.833 26.8821 117.754 26.9779 118.631 27.1813C120.119 27.5267 121.328 28.3941 122.26 29.5902C122.771 30.2464 123.189 30.9827 123.59 31.7155C124.032 32.524 124.711 32.9493 125.581 33.1109C125.869 33.1645 126.171 33.161 126.467 33.1612C130.394 33.1643 134.321 33.1175 138.246 33.1848C139.912 33.2133 141.042 32.5836 141.732 31.1011C142.11 30.29 142.623 29.5642 143.274 28.9619C144.302 28.0104 145.442 27.2756 146.893 27.0711C148.048 26.9085 149.199 26.8669 150.359 26.8672C176.475 26.869 202.592 26.8664 228.709 26.8793C229.422 26.8795 230.158 26.9563 230.841 27.1479C231.649 27.3747 232.246 27.8948 232.58 28.7421C232.979 29.752 232.784 30.6797 232.318 31.5483C231.75 32.607 231.077 33.6107 230.424 34.6211C230.026 35.2362 229.422 35.5837 228.714 35.7483C228.448 35.8102 228.175 35.8436 227.909 35.9081C227.404 36.0306 226.996 36.2864 226.734 36.7587C226.316 37.5138 225.879 38.2584 225.457 39.0117C225.101 39.6476 224.738 40.2704 224.161 40.7476C223.632 41.185 223.023 41.4226 222.362 41.495C221.394 41.6008 220.738 42.0786 220.266 42.9259C219.694 43.9547 219.12 44.9859 218.295 45.8551C217.351 46.8485 216.282 47.5936 214.935 47.9488C213.816 48.2436 212.725 48.6428 211.615 48.971C210.55 49.2859 209.471 49.554 208.407 49.8699C207.231 50.2185 206.068 50.6099 204.893 50.9602C203.783 51.291 202.662 51.5859 201.549 51.9084C199.956 52.3705 198.367 52.8485 196.774 53.3095C195.772 53.5994 194.76 53.856 193.76 54.1537C192.673 54.4776 191.598 54.8454 190.511 55.169C189.379 55.5062 188.228 55.7831 187.102 56.1419C185.722 56.5818 184.304 56.8916 182.99 57.556C181.711 58.2022 180.695 59.0867 179.951 60.2905C179.098 61.67 177.984 62.7754 176.572 63.5724C175.761 64.0293 174.914 64.3902 174.004 64.6218C172.794 64.93 171.603 65.313 170.399 65.6502C169.94 65.7789 169.466 65.8557 169.006 65.98C166.413 66.6804 163.824 67.3938 161.231 68.0906C160.002 68.4207 158.762 68.7088 157.535 69.0432C156.398 69.353 155.274 69.7128 154.137 70.0251C152.932 70.3562 151.716 70.649 150.51 70.9739C148.821 71.4285 147.139 71.9067 145.449 72.3541C144.903 72.4987 144.342 72.6521 143.783 72.6731C142.582 72.7186 141.397 72.5116 140.409 71.8009C139.529 71.1678 138.725 70.4219 137.924 69.6856C136.401 68.2846 134.91 66.8481 133.392 65.4414C132.894 64.9798 132.045 64.9804 131.508 65.4637C130.666 66.2222 129.865 67.0261 129.044 67.8086C128.179 68.6333 127.3 69.4426 126.45 70.2825C125.8 70.9253 125.109 71.5053 124.306 71.9501C122.739 72.8185 121.109 72.8064 119.43 72.3446C118.115 71.9827 116.784 71.6763 115.469 71.3165C114.264 70.987 113.074 70.603 111.87 70.2722C110.599 69.9234 109.316 69.6224 108.045 69.2759C106.907 68.9657 105.782 68.6074 104.644 68.2971C103.153 67.8906 101.652 67.5161 100.158 67.1177C98.6873 66.7256 97.22 66.3192 95.7504 65.9214C93.9739 65.4403 92.1858 64.9983 90.4241 64.469C89.2925 64.1289 88.268 63.5321 87.3074 62.8386C86.391 62.177 85.6729 61.3317 85.0835 60.3789C83.8507 58.3858 81.9991 57.2976 79.7962 56.6941C78.6148 56.3704 77.4452 56.0047 76.2681 55.6647C74.8927 55.2673 73.5138 54.8816 72.1387 54.4832C69.6099 53.751 67.0806 53.0193 64.5551 52.2755C62.9216 51.7944 61.2966 51.2848 59.6642 50.8007C58.4221 50.4324 57.1708 50.0949 55.9295 49.7238C54.7779 49.3794 53.6367 48.9998 52.4861 48.6523C51.5936 48.3826 50.6893 48.152 49.7976 47.88C48.7147 47.5499 47.7747 46.99 46.9644 46.1807C46.2016 45.419 45.6057 44.5534 45.1008 43.6134C45.0145 43.4529 44.9274 43.2931 44.8381 43.1341C44.3339 42.2365 43.6507 41.6229 42.5656 41.4822C41.1347 41.2965 40.2358 40.3714 39.5765 39.1565C39.1535 38.377 38.7128 37.607 38.2643 36.8419C37.9215 36.2574 37.4055 35.9083 36.7246 35.8356C35.4587 35.7008 34.6152 35.0061 34.0245 33.9083C33.6487 33.2098 33.1767 32.5638 32.7716 31.8801C32.1301 30.7968 31.9747 29.6395 32.5089 28.4878C32.8543 27.743 33.498 27.3066 34.334 27.0914C35.0965 26.8949 35.8526 26.8685 36.6221 26.8685C49.749 26.8685 62.8759 26.8685 76.0025 26.8685V26.8682ZM177.057 35.2732H87.9231C87.7818 36.3393 87.8347 48.7008 87.9762 49.1629C90.204 49.3252 176.512 49.2391 177.057 49.0673V35.2732ZM142.965 33.3068C142.998 33.3662 143.031 33.4255 143.064 33.4846H143.944C170.838 33.4846 197.731 33.4851 224.626 33.482C225.446 33.482 226.27 33.4838 227.087 33.4137C227.764 33.3554 228.48 33.2493 228.928 32.6609C229.422 32.0121 229.846 31.3099 230.289 30.6242C230.374 30.4932 230.428 30.3342 230.463 30.1806C230.593 29.5948 230.338 29.2591 229.732 29.2144C229.528 29.1993 229.322 29.2103 229.116 29.2103C202.222 29.2103 175.328 29.2103 148.434 29.2103C148.297 29.2103 148.16 29.2062 148.023 29.2111C146.709 29.2578 145.553 29.6962 144.73 30.7434C144.091 31.5573 143.55 32.4495 142.965 33.3068ZM122.032 33.4846C121.52 32.6558 121.12 31.9489 120.66 31.2843C120.392 30.8975 120.05 30.5538 119.702 30.233C118.829 29.4289 117.751 29.2098 116.604 29.2098C102.977 29.2106 89.35 29.2103 75.7228 29.2103C62.0956 29.2103 49.1991 29.2103 35.9371 29.2103C35.7088 29.2103 35.4795 29.1972 35.2527 29.216C34.5374 29.2753 34.2867 29.6747 34.542 30.3345C34.5831 30.4405 34.6286 30.5461 34.6846 30.645C34.9196 31.0595 35.1433 31.4818 35.4004 31.8824C35.9682 32.767 36.7261 33.3672 37.8275 33.4168C38.3283 33.4394 38.8289 33.4817 39.3297 33.4817C66.6067 33.4848 93.884 33.4846 121.161 33.4846C121.409 33.4846 121.656 33.4846 122.032 33.4846H122.032ZM40.132 35.4871C40.5787 36.3393 40.9439 37.0656 41.3384 37.7755C41.5018 38.0693 41.7054 38.348 41.9291 38.5995C42.5216 39.2654 43.3281 39.4303 44.1631 39.4355C45.2775 39.4424 46.3927 39.4082 47.5066 39.3661C49.1889 39.3024 50.8714 39.2351 52.5519 39.1347C54.116 39.0415 55.676 38.8835 57.2401 38.7898C59.0575 38.6809 60.878 38.6264 62.6953 38.5196C64.5107 38.413 66.3229 38.255 68.1382 38.15C69.6846 38.0606 71.2336 38.0188 72.781 37.9481C73.9869 37.8932 75.1925 37.8361 76.3973 37.7617C78.077 37.6582 79.7549 37.529 81.4346 37.427C82.6618 37.3525 83.891 37.3101 85.1184 37.2398C85.4513 37.2208 85.7813 37.1514 86.1257 37.1034V35.2264C85.8427 35.2264 85.5984 35.2264 85.3542 35.2264C83.3514 35.2264 81.3488 35.2177 79.346 35.2282C74.9893 35.2511 70.6326 35.2847 66.2759 35.3122C65.5701 35.3166 64.8643 35.3091 64.1585 35.3135C61.9682 35.3269 59.7782 35.3469 57.5879 35.3569C56.1273 35.3638 54.6661 35.381 53.206 35.352C51.7346 35.3227 50.2647 35.3867 48.7933 35.3757C46.2671 35.3566 43.7401 35.445 41.2133 35.4866C40.8979 35.4917 40.5823 35.4874 40.1326 35.4874L40.132 35.4871ZM178.879 37.0936C179.189 37.1216 179.435 37.1512 179.681 37.1648C180.545 37.2125 181.41 37.2452 182.273 37.3009C183.927 37.4077 185.581 37.5359 187.236 37.6368C188.486 37.7131 189.738 37.7511 190.988 37.8233C193.439 37.9648 195.89 38.1199 198.342 38.2661C199.183 38.3162 200.024 38.3493 200.865 38.403C202.544 38.5103 204.221 38.6583 205.902 38.7294C207.287 38.788 208.668 38.8244 210.051 38.9762C211.61 39.1473 213.186 39.1658 214.755 39.2467C216.05 39.3135 217.343 39.4021 218.639 39.4288C219.502 39.4468 220.371 39.4067 221.232 39.3312C222.039 39.2603 222.722 38.8165 223.198 38.217C223.754 37.5169 224.15 36.6901 224.611 35.9155C224.705 35.7586 224.776 35.5886 224.842 35.4571C224.29 35.4214 223.801 35.3649 223.312 35.3623C218.909 35.3405 214.506 35.3276 210.102 35.313C209.465 35.3109 208.828 35.3179 208.191 35.312C205.432 35.2852 202.674 35.2454 199.915 35.2295C197.502 35.2154 195.089 35.2316 192.676 35.2254C188.272 35.2144 183.868 35.1961 179.465 35.1843C179.272 35.1838 179.078 35.219 178.879 35.238V37.0936ZM130.093 50.9502C129.925 51.4949 129.787 51.975 129.629 52.4488C128.768 55.0331 127.903 57.6158 127.04 60.1991C126.983 60.3717 126.933 60.5466 126.873 60.7184C126.538 61.6818 126.201 62.6447 125.864 63.6078C125.346 65.0887 124.845 66.5758 124.302 68.0472C124.097 68.6005 123.792 69.1167 123.474 69.7721C123.785 69.57 123.999 69.4724 124.16 69.3196C125.478 68.0714 126.785 66.8119 128.097 65.5575C128.917 64.7733 129.702 63.9497 130.685 63.3543C131.648 62.7718 132.645 62.6914 133.697 63.0667C134.714 63.4296 135.434 64.2016 136.205 64.8943C136.771 65.4029 137.266 65.9895 137.814 66.5185C138.727 67.4 139.653 68.2686 140.585 69.1298C140.782 69.3114 141.03 69.438 141.329 69.6414C138.869 63.4383 137.101 57.1433 134.884 50.9797C134.739 50.9694 134.605 50.9517 134.472 50.9517C133.036 50.9497 131.601 50.9504 130.094 50.9504L130.093 50.9502ZM123.982 50.9825C123.215 52.1935 122.474 53.3616 121.736 54.531C121.214 55.3559 120.694 56.1812 120.177 57.0087C119.335 58.3576 118.498 59.7093 117.657 61.0585C116.866 62.3275 116.071 63.5942 115.28 64.8635C114.606 65.9458 113.903 67.004 112.882 67.805C112.774 67.8901 112.681 67.9943 112.567 68.1022C113.198 68.2897 113.76 68.4736 114.332 68.6231C115.827 69.0145 117.326 69.3884 118.823 69.7739C119.855 70.0398 120.98 69.626 121.604 68.8021C122.149 68.0811 122.458 67.2444 122.771 66.4251C123.345 64.9215 123.812 63.3772 124.332 61.8529C124.971 59.9816 125.622 58.1144 126.262 56.2433C126.636 55.1489 126.996 54.0497 127.367 52.9545C127.585 52.3148 127.814 51.6788 128.058 50.9823H123.982V50.9825ZM152.4 68.1346C151.883 67.6327 151.376 67.2613 151.026 66.7764C150.245 65.6964 149.534 64.5658 148.813 63.4442C148.286 62.6249 147.795 61.7827 147.275 60.9583C146.635 59.9417 145.972 58.9391 145.336 57.9199C144.567 56.6897 143.825 55.4438 143.056 54.2135C142.445 53.2342 141.803 52.2744 141.195 51.2928C141.046 51.0506 140.89 50.9412 140.601 50.945C139.598 50.9592 138.594 50.9486 137.591 50.9517C137.393 50.9522 137.196 50.9718 136.95 50.9854C137.027 51.2985 137.072 51.5671 137.159 51.8221C137.559 53.0033 137.97 54.1804 138.377 55.3593C138.82 56.6419 139.265 57.9238 139.706 59.2072C140.518 61.5686 141.307 63.9379 142.151 66.2879C142.432 67.0707 142.814 67.824 143.214 68.5563C143.783 69.5993 144.966 70.0762 146.121 69.7757C147.154 69.5071 148.18 69.2112 149.212 68.9408C150.243 68.6711 151.277 68.4181 152.4 68.1351L152.4 68.1346ZM86.1303 38.883C85.8935 38.9308 85.7412 38.9809 85.5864 38.9898C83.7235 39.1005 81.8602 39.2066 79.9968 39.3106C78.4294 39.3982 76.8609 39.473 75.2939 39.5695C74.049 39.6463 72.8062 39.7598 71.5613 39.8354C70.4258 39.9042 69.2876 39.9255 68.1526 40.0008C66.318 40.1222 64.4865 40.2889 62.6517 40.4022C60.8346 40.5144 59.0149 40.5812 57.1967 40.6739C56.0831 40.7307 54.9695 40.7903 53.8568 40.8624C52.136 40.9742 50.416 41.0982 48.6955 41.2164C47.9774 41.2657 47.2592 41.3132 46.4212 41.3697C46.8211 42.0868 47.1583 42.7165 47.5187 43.3327C48.1158 44.3544 49.072 44.745 50.2005 44.7959C50.5868 44.8133 50.9787 44.8175 51.3619 44.7733C52.3983 44.6539 53.429 44.4831 54.4661 44.3726C56.8608 44.1178 59.2589 43.8931 61.6544 43.6437C63.6652 43.4344 65.6741 43.2079 67.6836 42.9875C69.6466 42.772 71.6091 42.5527 73.5721 42.3385C75.8055 42.095 78.0387 41.8484 80.2734 41.6163C81.6989 41.4683 83.1279 41.3543 84.5534 41.2045C85.0845 41.1488 85.6092 41.035 86.1306 40.9487V38.8825L86.1303 38.883ZM218.457 41.4023C217.722 41.3476 217.02 41.2872 216.318 41.2451C214.48 41.1352 212.642 41.0409 210.804 40.9264C209.193 40.826 207.582 40.7029 205.971 40.5961C204.317 40.4864 202.662 40.3832 201.007 40.2792C199.576 40.1893 198.145 40.093 196.714 40.0159C194.805 39.9132 192.894 39.8418 190.985 39.7275C189.33 39.6283 187.679 39.475 186.024 39.3695C184.138 39.249 182.251 39.1491 180.364 39.0525C179.878 39.0276 179.389 39.0487 178.876 39.0487C178.865 39.7683 178.813 40.4166 178.902 41.0638C179.299 41.1157 179.612 41.1647 179.927 41.1966C182.164 41.4229 184.403 41.6396 186.639 41.8713C188.785 42.0935 190.93 42.3315 193.075 42.5601C195.042 42.7697 197.01 42.97 198.977 43.1855C201.28 43.438 203.583 43.7038 205.886 43.9622C208.187 44.2203 210.487 44.4977 212.792 44.7224C213.604 44.8015 214.432 44.7905 215.249 44.7455C215.921 44.7086 216.579 44.4307 216.992 43.9211C217.531 43.2577 217.926 42.4772 218.374 41.7416C218.429 41.6522 218.428 41.5289 218.457 41.4021V41.4023ZM102.647 65.4047C103.041 65.5418 103.374 65.6805 103.719 65.7737C104.792 66.0637 105.87 66.3367 106.945 66.6159C107.297 66.7073 107.661 66.7682 108 66.8935C109.367 67.3972 110.531 66.9328 111.635 66.1641C112.559 65.521 113.073 64.5378 113.671 63.6363C114.536 62.3308 115.334 60.9807 116.171 59.6562C116.981 58.3748 117.804 57.1019 118.621 55.8254C119.294 54.775 119.989 53.7376 120.631 52.6692C120.961 52.1214 121.472 51.6678 121.611 50.9504C120.153 50.9504 118.739 50.9371 117.327 50.9646C117.108 50.9689 116.848 51.1138 116.685 51.2728C116.148 51.7936 115.647 52.3525 115.13 52.8942C114.286 53.7777 113.44 54.6584 112.596 55.5422C111.798 56.3787 111.004 57.219 110.206 58.0553C109.422 58.8761 108.643 59.7011 107.848 60.5117C107.121 61.2542 106.319 61.9322 105.653 62.7251C104.8 63.7409 103.802 64.5697 102.647 65.4049V65.4047ZM143.249 50.9502C143.718 51.6837 144.124 52.3055 144.516 52.9358C145.14 53.9385 145.741 54.9555 146.378 55.95C146.929 56.8091 147.527 57.6369 148.083 58.4929C148.638 59.3487 149.162 60.2243 149.706 61.0875C150.372 62.1444 151.049 63.1941 151.712 64.2527C152.211 65.0489 152.773 65.7925 153.548 66.337C154.482 66.9934 155.53 67.2957 156.655 67.0207C158.243 66.6323 159.815 66.1772 161.391 65.7401C161.68 65.6599 161.955 65.5305 162.351 65.3805C160.901 64.4785 159.81 63.3651 158.738 62.2286C157.433 60.8445 156.122 59.4646 154.806 58.0907C153.646 56.8805 152.471 55.6852 151.311 54.476C150.259 53.3796 149.222 52.2683 148.163 51.179C148.039 51.0519 147.814 50.9625 147.635 50.9602C146.221 50.9425 144.807 50.9504 143.249 50.9504L143.249 50.9502ZM114.17 51.092C114.154 51.0444 114.137 50.9972 114.12 50.9497C112.894 50.9497 111.665 50.9969 110.443 50.9343C109.506 50.8865 108.687 51.0303 108.033 51.7474C107.974 51.8116 107.876 51.8378 107.802 51.8907C106.591 52.767 105.381 53.6457 104.169 54.5217C103.066 55.3195 101.964 56.1177 100.857 56.9103C99.8053 57.6634 98.7322 58.3876 97.6985 59.1641C96.3948 60.1434 95.1075 61.1427 93.6944 61.9651C93.3277 62.1785 92.9696 62.4063 92.5405 62.6686C92.9493 62.7942 93.2706 62.9064 93.5989 62.9904C94.194 63.1424 94.7993 63.257 95.39 63.4239C96.4133 63.7134 97.4275 64.0342 98.4479 64.3329C98.5987 64.3771 98.7633 64.3753 98.9221 64.3907C99.7997 64.4767 100.583 64.1544 101.332 63.773C102.715 63.0687 103.712 61.8945 104.783 60.8188C105.901 59.6954 106.983 58.5369 108.086 57.3983C108.576 56.8934 109.083 56.4056 109.571 55.8994C110.434 55.0036 111.288 54.0987 112.148 53.1993C112.821 52.4956 113.496 51.7944 114.171 51.092H114.17ZM172.482 62.6927C172.257 62.5466 172.185 62.4968 172.109 62.4505C171.181 61.8819 170.232 61.3443 169.33 60.7369C168.505 60.1809 167.739 59.5377 166.931 58.9545C165.773 58.1177 164.595 57.3089 163.437 56.4719C162.358 55.6919 161.301 54.8821 160.223 54.1005C158.904 53.1443 157.569 52.2105 156.254 51.2504C155.984 51.0537 155.729 50.9386 155.385 50.9427C153.972 50.9599 152.558 50.9481 151.144 50.9525C151.007 50.953 150.869 50.9902 150.673 51.019C151.566 51.9346 152.401 52.7876 153.233 53.6446C154.211 54.6514 155.178 55.6675 156.161 56.6689C157.178 57.7047 158.21 58.7261 159.232 59.7566C160.236 60.7685 161.217 61.8056 162.247 62.7908C163.01 63.5208 163.919 64.0658 164.956 64.2854C165.496 64.3997 166.102 64.4002 166.64 64.2807C167.7 64.046 168.731 63.681 169.779 63.3903C170.631 63.154 171.491 62.9472 172.482 62.693V62.6927ZM53.4236 46.473C53.4161 46.5316 53.4089 46.5901 53.4015 46.6487C53.8792 46.7748 54.3597 46.8917 54.8341 47.0291C56.1627 47.4136 57.4793 47.8435 58.8181 48.1877C61.0126 48.7519 63.2429 48.6875 65.4692 48.415C66.3239 48.3104 67.1648 48.097 68.0172 47.9688C69.4126 47.759 70.8162 47.6016 72.2093 47.3794C74.0711 47.0825 75.925 46.7365 77.7847 46.4278C78.7057 46.275 79.6342 46.1676 80.5567 46.0241C81.6105 45.86 82.6628 45.6858 83.7135 45.5024C84.5138 45.3627 85.3108 45.2022 86.0833 45.0558C86.2161 44.2211 86.1943 43.3234 86.024 42.7885C75.1652 44.0159 64.2944 45.2443 53.4236 46.473ZM211.553 46.6371C211.548 46.5955 211.543 46.5542 211.538 46.5126C211.456 46.4864 211.375 46.4455 211.291 46.436C209.667 46.2514 208.043 46.0721 206.418 45.8879C204.388 45.6581 202.359 45.4202 200.328 45.1947C199.085 45.0566 197.839 44.9451 196.597 44.8026C195.561 44.6836 194.531 44.5195 193.495 44.4057C191.057 44.1379 188.615 43.8977 186.176 43.6278C184.19 43.4082 182.208 43.158 180.223 42.93C179.785 42.8796 179.341 42.8642 178.893 42.8324V45.0268C179.411 45.1457 179.893 45.2852 180.384 45.3637C182.38 45.6838 184.38 45.9791 186.376 46.2966C187.115 46.4142 187.846 46.584 188.585 46.7026C190.244 46.969 191.907 47.2119 193.566 47.476C195.001 47.7043 196.435 47.9429 197.868 48.1866C199.282 48.4273 200.702 48.6453 202.138 48.6045C203.204 48.5742 204.285 48.5418 205.326 48.3397C206.66 48.0806 207.961 47.6537 209.274 47.2913C210.036 47.0809 210.793 46.8554 211.553 46.6369L211.553 46.6371ZM179.518 57.0909C179.42 57.0593 179.338 57.0151 179.254 57.0087C177.279 56.8566 175.559 55.9377 173.797 55.1651C172.678 54.6746 171.614 54.0612 170.517 53.5198C168.968 52.7557 167.408 52.0148 165.861 51.2471C165.463 51.0493 165.063 50.943 164.618 50.9458C162.997 50.9561 161.376 50.9492 159.755 50.951C159.584 50.951 159.413 50.9651 159.181 50.9756C159.266 51.0912 159.293 51.1539 159.34 51.188C160.725 52.1815 162.116 53.1662 163.497 54.1645C164.6 54.9622 165.681 55.7923 166.792 56.5782C168.459 57.7566 170.133 58.9265 171.826 60.0655C172.735 60.6771 173.727 61.125 174.833 61.2783C175.503 61.371 176.114 61.2573 176.6 60.7706C177.016 60.3532 177.42 59.9174 177.781 59.453C178.365 58.7033 178.91 57.9233 179.518 57.0914V57.0909ZM105.903 50.9497H105.161C103.565 50.9497 101.969 50.9615 100.373 50.943C99.8544 50.9368 99.3923 51.0624 98.9341 51.2897C97.4093 52.0453 95.877 52.7855 94.3468 53.5301C93.8162 53.7882 93.2786 54.0325 92.7528 54.3003C92.1498 54.6075 91.5694 54.9622 90.9553 55.2447C90.1115 55.6333 89.2424 55.9664 88.3902 56.3371C87.6125 56.6753 86.7999 56.8664 85.9624 56.9714C85.7677 56.9958 85.5758 57.0441 85.3413 57.0893C85.7477 57.5617 86.1519 57.959 86.4694 58.4167C87.0205 59.2108 87.5532 59.999 88.2641 60.6817C88.8263 61.2216 89.4053 61.3605 90.1095 61.2619C91.5963 61.0539 92.8214 60.2738 94.0188 59.4458C94.9488 58.8027 95.8603 58.1326 96.7818 57.4774C97.8336 56.7295 98.8879 55.9852 99.9404 55.2381C101.216 54.3322 102.494 53.4286 103.765 52.5174C104.441 52.0333 105.106 51.5347 105.903 50.9499L105.903 50.9497ZM178.857 46.9286C178.857 47.6699 178.851 48.2827 178.858 48.8952C178.865 49.44 178.87 49.4431 179.391 49.5954C180.195 49.8306 181 50.0677 181.808 50.2917C182.421 50.4617 183.046 50.5919 183.655 50.7771C184.956 51.1729 186.248 51.61 187.594 51.834C188.668 52.0127 189.745 52.1997 190.828 52.2963C191.762 52.3797 192.677 52.1321 193.578 51.8966C194.607 51.6275 195.634 51.3467 196.654 51.045C197.363 50.8349 198.06 50.5809 198.919 50.2942C192.16 49.1603 185.559 48.0531 178.857 46.9286ZM66.1673 50.2719C66.1755 50.3081 66.1839 50.3443 66.1922 50.3803C67.3882 50.7278 68.5859 51.0704 69.7804 51.424C71.4064 51.9056 73.0047 52.4039 74.7641 52.2038C76.8095 51.9714 78.7954 51.5088 80.7707 50.9779C82.0207 50.642 83.2515 50.2344 84.494 49.8702C84.8867 49.7551 85.2902 49.6765 85.6886 49.5807C85.9228 49.5245 86.1452 49.4264 86.1509 49.1534C86.1658 48.4332 86.156 47.7125 86.156 46.9207C79.419 48.0502 72.7931 49.1611 66.1675 50.2719H66.1673ZM169.395 50.9499C169.876 51.2186 170.253 51.4621 170.656 51.6488C172.057 52.297 173.489 52.8816 174.866 53.5745C176.109 54.1994 177.359 54.7537 178.726 55.0578C179.879 55.3143 181.012 55.3508 182.156 55.0701C183.457 54.7511 184.757 54.4303 186.055 54.1003C186.452 53.9993 186.87 53.9367 187.283 53.6364C186.617 53.4826 186.035 53.3737 185.468 53.2121C184.046 52.8071 182.632 52.3797 181.215 51.9585C180.628 51.7839 180.046 51.5936 179.457 51.4256C178.494 51.151 177.535 50.915 176.509 50.9363C174.388 50.9805 172.265 50.9497 170.143 50.9497H169.396L169.395 50.9499ZM77.7457 53.6066C77.7441 53.6739 77.7426 53.741 77.7413 53.8083C79.233 54.1843 80.7209 54.5762 82.2182 54.9286C82.8105 55.068 83.4207 55.1466 84.0274 55.2047C85.0357 55.301 86.0209 55.1322 86.9879 54.851C87.4006 54.7311 87.8265 54.6371 88.2176 54.466C88.8777 54.1773 89.5088 53.8232 90.1632 53.5203C91.5013 52.9011 92.8494 52.304 94.1873 51.6845C94.6234 51.4826 95.0405 51.2396 95.531 50.9815C95.378 50.9651 95.3104 50.9517 95.2429 50.9517C92.7344 50.9504 90.2261 50.9486 87.7176 50.953C87.5147 50.9533 87.3046 50.97 87.1102 51.0236C85.7756 51.3922 84.4434 51.7692 83.1125 52.1506C81.6922 52.5575 80.2758 52.9782 78.8539 53.3793C78.4918 53.4816 78.1155 53.5324 77.7457 53.6069V53.6066Z" fill="white"/>
<path d="M157.818 121.143C157.609 121.159 157.476 121.177 157.342 121.178C155.974 121.18 154.606 121.179 153.174 121.179C152.721 116.418 152.272 111.693 151.822 106.967C151.778 106.953 151.734 106.938 151.691 106.924C151.187 107.844 150.682 108.764 150.178 109.685C149.798 110.381 149.407 111.071 149.042 111.775C148.501 112.82 147.984 113.877 147.447 114.924C147.087 115.627 146.69 116.312 146.347 117.023C145.943 117.862 145.58 118.721 145.197 119.571C145.105 119.778 145.01 119.985 144.911 120.189C144.6 120.834 144.204 121.03 143.514 120.858C143.397 120.829 143.269 120.734 143.201 120.632C143.024 120.369 142.86 120.093 142.72 119.808C141.703 117.732 140.71 115.644 139.675 113.576C138.864 111.955 138.003 110.359 137.169 108.749C136.899 108.23 136.643 107.705 136.262 107.188C136.23 107.324 136.184 107.458 136.169 107.596C135.957 109.582 135.75 111.568 135.538 113.554C135.41 114.749 135.254 115.941 135.149 117.137C135.054 118.225 135.014 119.317 134.943 120.407C134.927 120.65 134.881 120.89 134.846 121.15H131.205C132.217 113.446 133.224 105.777 134.24 98.0383C134.906 97.915 135.583 97.9766 136.255 98.0008C136.342 98.0038 136.443 98.1161 136.506 98.2008C136.615 98.3454 136.71 98.5024 136.791 98.6642C137.326 99.7354 137.85 100.812 138.389 101.882C139.062 103.218 139.737 104.553 140.425 105.881C141.365 107.694 142.304 109.508 143.27 111.306C143.676 112.061 144.151 112.779 144.654 113.612C145.09 112.822 145.493 112.123 145.868 111.41C146.903 109.439 147.918 107.458 148.957 105.489C149.92 103.665 150.898 101.849 151.884 100.037C152.208 99.4416 152.569 98.865 152.935 98.2941C153.022 98.1592 153.195 98.0033 153.337 97.9946C153.901 97.9602 154.467 97.9805 155.065 97.9805C155.985 105.723 156.898 113.398 157.818 121.143V121.143Z" fill="white"/>
<path d="M82.23 97.2274C84.0733 97.1036 85.9844 97.6324 87.7797 98.4895C88.9324 99.0396 89.9828 99.8034 90.8456 100.804C91.332 101.367 91.8295 101.907 92.2165 102.55C92.7821 103.49 93.2097 104.481 93.5385 105.527C94.1577 107.496 94.178 109.498 93.99 111.528C93.8924 112.582 93.6017 113.591 93.2287 114.555C92.7233 115.862 92.0537 117.105 91.0061 118.091C90.4975 118.57 90.0111 119.074 89.4782 119.524C89.0649 119.872 88.6234 120.209 88.1452 120.455C85.9187 121.603 83.5488 122.167 81.0421 121.938C79.5497 121.801 78.1003 121.418 76.7468 120.744C74.9107 119.829 73.3553 118.605 72.2139 116.857C71.6378 115.975 71.1735 115.065 70.8373 114.073C70.0213 111.667 69.9555 109.219 70.3891 106.741C70.6988 104.97 71.3815 103.338 72.443 101.897C73.3347 100.687 74.4224 99.6591 75.7544 98.9104C78.0161 97.6388 79.5258 97.2238 82.2302 97.2271L82.23 97.2274ZM89.2218 109.118C89.163 108.561 89.1687 107.563 88.9324 106.626C88.5964 105.295 88.1431 104.002 87.2725 102.865C86.4763 101.825 85.556 100.961 84.361 100.507C82.3779 99.7541 80.4285 99.9306 78.6387 101.143C76.8711 102.339 75.9437 104.117 75.4002 106.1C75.1565 106.99 75.0576 107.936 75.018 108.862C74.9176 111.204 75.2284 113.47 76.453 115.544C77.4313 117.201 78.773 118.312 80.6579 118.862C82.0494 119.268 83.3228 119.055 84.5623 118.514C86.4336 117.698 87.6017 116.16 88.364 114.335C88.9997 112.813 89.2213 111.187 89.2218 109.118V109.118Z" fill="white"/>
<path d="M117.822 121.151H115.663C110.913 115.858 106.204 110.608 101.519 105.386C101.405 105.427 101.381 105.431 101.363 105.444C101.347 105.455 101.332 105.475 101.328 105.494C101.318 105.538 101.31 105.583 101.308 105.628C101.304 105.697 101.305 105.765 101.305 105.834C101.303 110.85 101.302 115.866 101.3 120.882C101.3 120.927 101.292 120.973 101.283 121.017C101.279 121.038 101.265 121.057 101.23 121.127H97.9155V98.0162C98.6901 97.9348 99.4573 97.9713 100.222 97.9936C100.336 97.9969 100.468 98.1033 100.555 98.1965C101.71 99.4401 102.866 100.684 104.008 101.94C104.784 102.793 105.526 103.677 106.306 104.526C107.379 105.694 108.481 106.835 109.556 108.001C110.973 109.538 112.374 111.089 113.785 112.631C113.919 112.778 114.073 112.907 114.324 113.143C114.339 112.796 114.357 112.561 114.357 112.325C114.359 107.834 114.359 103.342 114.359 98.8499C114.359 98.5833 114.359 98.317 114.359 98.0159H117.822V121.151L117.822 121.151Z" fill="white"/>
<path d="M235.8 105.315C235.8 108.071 235.8 110.689 235.8 113.307C235.8 115.902 235.8 118.496 235.8 121.135H232.48C232.346 120.643 232.314 98.8588 232.46 97.9773C233.144 97.9773 233.844 97.9624 234.543 97.9889C234.7 97.9948 234.887 98.1124 235 98.2342C236.005 99.3116 236.995 100.403 237.992 101.487C239.327 102.939 240.668 104.385 242.002 105.838C243.036 106.965 244.058 108.104 245.095 109.229C246.277 110.511 247.47 111.783 248.66 113.059C248.67 113.069 248.701 113.06 248.801 113.06V98.0161H252.243V121.168C251.564 121.168 250.866 121.182 250.171 121.154C250.053 121.15 249.931 120.977 249.83 120.864C248.501 119.378 247.178 117.887 245.847 116.402C243.925 114.259 241.999 112.119 240.073 109.98C238.744 108.504 237.411 107.031 236.08 105.557C236.036 105.509 235.981 105.471 235.8 105.315L235.8 105.315Z" fill="white"/>
<path d="M183.938 98.0273C184.648 97.9682 185.367 97.8724 186.088 97.8557C187.821 97.8154 189.554 97.7871 191.288 97.8018C192.59 97.8128 193.881 98.0316 195.102 98.4675C195.993 98.7854 196.725 99.4049 197.395 100.104C198.263 101.009 198.722 102.075 199.003 103.271C199.191 104.068 199.171 104.822 198.996 105.617C198.703 106.948 198.088 108.081 197.135 109.039C196.387 109.792 195.453 110.267 194.52 110.74C194.421 110.79 194.316 110.828 194.11 110.916C194.506 111.403 194.86 111.854 195.229 112.291C196.767 114.109 198.31 115.922 199.849 117.738C200.686 118.725 201.52 119.715 202.353 120.706C202.422 120.789 202.472 120.889 202.58 121.058C202.346 121.089 202.179 121.129 202.012 121.13C200.666 121.135 199.318 121.092 197.974 121.152C197.375 121.179 197.042 120.892 196.723 120.497C195.813 119.37 194.907 118.24 194.004 117.107C192.972 115.813 191.945 114.515 190.916 113.219C190.605 112.828 190.283 112.446 189.984 112.047C189.64 111.588 189.206 111.373 188.63 111.475C188.519 111.494 188.404 111.494 188.192 111.51C188.147 112.295 188.178 113.084 188.173 113.871C188.167 114.669 188.172 115.467 188.172 116.265V118.659C188.172 119.451 188.172 120.243 188.172 121.083H183.958C183.818 120.543 183.798 98.7623 183.938 98.0275L183.938 98.0273ZM188.215 100.587V108.649C189.641 108.905 190.969 108.85 192.324 108.33C194.018 107.679 195.312 105.505 194.651 103.474C194.384 102.655 193.985 101.966 193.284 101.418C192.733 100.987 192.1 100.843 191.476 100.666C190.407 100.361 189.318 100.469 188.215 100.587H188.215Z" fill="white"/>
<path d="M169.894 97.5312H171.702C175.046 105.362 178.399 113.214 181.781 121.135H176.689C175.924 118.982 175.168 116.755 174.202 114.612H165.835C164.901 116.704 164.255 118.905 163.533 121.131H159.433C160.254 119.113 161.181 117.185 162.037 115.228C162.9 113.256 163.789 111.294 164.657 109.324C165.517 107.375 166.357 105.416 167.222 103.469C168.094 101.503 168.986 99.5459 169.894 97.5312ZM172.966 111.699C172.803 110.907 170.748 106.058 170.005 104.704C169.014 107.036 168.009 109.332 167.069 111.699H172.966Z" fill="white"/>
<path d="M34.3093 121.151H29.2218C28.3964 118.96 27.5825 116.798 26.7632 114.623H18.333C17.4279 116.726 16.7353 118.925 16.0516 121.147H11.9116C15.4192 113.242 18.9081 105.379 22.3895 97.5317H24.1213C24.2338 97.7272 24.391 97.9468 24.4945 98.1892C24.8597 99.0442 25.1947 99.9121 25.5642 100.765C25.9151 101.575 26.3088 102.367 26.6589 103.178C27.1715 104.365 27.6577 105.563 28.1629 106.754C28.8361 108.34 29.5218 109.921 30.1917 111.508C30.7644 112.866 31.311 114.234 31.8904 115.589C32.6735 117.419 33.4769 119.24 34.3093 121.151ZM25.5979 111.705C24.6581 109.319 23.6233 107.051 22.6114 104.773C22.5634 104.773 22.5153 104.773 22.4673 104.773C21.4965 107.065 20.5254 109.357 19.5309 111.705H25.5979Z" fill="white"/>
<path d="M49.2043 102.839C48.7106 102.879 48.2172 102.919 47.6925 102.961C47.5281 102.674 47.3969 102.384 47.2112 102.135C46.9569 101.793 46.7155 101.401 46.3734 101.173C45.185 100.384 43.8636 100.082 42.4705 100.487C41.2768 100.835 40.28 101.464 39.8392 102.736C39.6669 103.233 39.6443 103.688 39.8336 104.19C40.1531 105.038 40.7117 105.627 41.4987 106.066C42.5792 106.668 43.767 106.992 44.8956 107.468C45.9404 107.908 47.0209 108.264 47.9797 108.899C49.7495 110.07 50.755 111.663 50.773 113.816C50.7797 114.633 50.8038 115.445 50.5172 116.244C49.9193 117.91 48.8881 119.204 47.3954 120.154C45.2908 121.494 42.9693 121.783 40.5425 121.659C39.0338 121.581 37.6541 121.085 36.3111 120.458C35.9698 120.298 35.6793 120.03 35.3369 119.792V114.825C35.8978 114.723 36.459 114.788 37.001 114.787C37.3937 115.418 37.7324 116.059 38.1613 116.633C39.5893 118.543 42.102 119.174 44.2638 118.233C44.9942 117.915 45.6355 117.564 46.0814 116.878C46.9937 115.475 46.5868 113.392 45.1907 112.458C44.4659 111.973 43.6635 111.655 42.8429 111.378C41.6628 110.98 40.4533 110.634 39.3651 110.028C38.0722 109.307 36.8921 108.393 36.2107 107.043C35.633 105.899 35.3413 104.677 35.6438 103.352C35.8706 102.357 36.2009 101.406 36.8099 100.617C37.6109 99.5771 38.6021 98.728 39.8195 98.1519C41.9242 97.1559 44.0922 97.151 46.2892 97.6835C47.1668 97.8961 48.0097 98.2508 48.8722 98.5297C49.1465 98.6186 49.2872 98.7696 49.2846 99.0701C49.2749 100.255 49.2777 101.441 49.2716 102.626C49.2713 102.689 49.2328 102.753 49.2048 102.839L49.2043 102.839Z" fill="white"/>
<path d="M62.7494 101.147V121.141H58.3752C58.3115 120.032 58.3532 118.924 58.3457 117.818C58.3385 116.724 58.3442 115.629 58.3442 114.535V101.239C55.9176 101.207 53.5814 101.484 51.2134 101.667V98.0151H69.711C69.7711 99.2287 69.7369 100.403 69.731 101.648C67.4151 101.482 65.1447 101.319 62.7492 101.146L62.7494 101.147Z" fill="white"/>
<path d="M219.457 98.0227V101.668C217.16 101.507 214.911 101.217 212.577 101.212V121.047C212.043 121.203 209.188 121.242 208.159 121.115C208.145 120.847 208.115 120.563 208.115 120.278C208.113 114.214 208.113 108.15 208.113 102.086C208.113 101.817 208.113 101.549 208.113 101.226C205.682 101.2 203.344 101.508 200.956 101.66V98.0225H219.457V98.0227Z" fill="white"/>
<path d="M222.503 98.0156H226.753C226.899 98.5611 226.915 120.478 226.768 121.145H222.503V98.0156Z" fill="white"/>
<path d="M132.596 38.1074H133.447C134.376 39.8845 135.297 41.6448 136.266 43.4987C137.274 41.6353 138.22 39.8873 139.179 38.1138H139.968C140.2 38.8101 141.062 45.6913 141.008 46.4376H139.167C139.098 45.6623 139.026 44.8815 138.961 44.0999C138.897 43.3194 138.841 42.5378 138.709 41.7442C137.76 43.1959 137.078 44.7623 136.292 46.293C135.932 46.4189 135.683 46.3747 135.493 45.9581C135.031 44.9477 134.522 43.9589 134.022 42.9665C133.86 42.646 133.668 42.3406 133.348 42.0393C133.172 43.4969 132.997 44.9547 132.817 46.4425H131.514C131.409 45.7853 132.252 39.2668 132.596 38.1077L132.596 38.1074Z" fill="white"/>
<path d="M110.502 42.1447C110.297 41.2321 110.684 40.3325 111.217 39.5414C111.857 38.5934 112.791 37.978 113.963 37.8165C115.359 37.6241 116.657 37.8714 117.735 38.8194C118.571 39.5542 119.005 40.5379 119.133 41.6292C119.231 42.4691 119.142 43.3035 118.816 44.1033C118.35 45.2434 117.522 45.9828 116.395 46.4508C114.278 47.3297 111.651 46.2469 110.835 44.243C110.566 43.5825 110.46 42.9404 110.502 42.1449L110.502 42.1447ZM112.392 42.268C112.269 43.1127 112.543 43.8665 113.007 44.572C113.649 45.5478 115.056 45.8364 115.932 45.1635C116.664 44.6008 117.052 43.8812 117.196 43.0005C117.359 42.0045 117.209 41.0596 116.687 40.1876C115.719 38.57 113.77 38.8616 113.042 39.9498C112.564 40.664 112.29 41.3963 112.392 42.2677L112.392 42.268Z" fill="white"/>
<path d="M125.925 38.1026H127.2C127.344 38.5978 127.373 45.6963 127.238 46.4146C126.727 46.5823 126.34 46.4503 125.985 46.0219C125.162 45.028 124.313 44.0556 123.449 43.0963C122.883 42.4668 122.274 41.8758 121.57 41.15V46.4257H120.114V38.1437C120.694 37.9994 121.155 38.0626 121.596 38.5858C122.428 39.5725 123.347 40.4858 124.222 41.4361C124.756 42.015 125.276 42.6058 125.925 43.1531V38.1021L125.925 38.1026Z" fill="white"/>
<path d="M153.649 42.7853C154.646 43.9786 155.612 45.1338 156.688 46.4216C155.895 46.4216 155.282 46.4719 154.685 46.3969C154.445 46.3666 154.203 46.0916 154.024 45.8766C153.285 44.9874 152.571 44.0772 151.841 43.1796C151.779 43.1035 151.671 43.0653 151.472 42.9374C151.392 44.1537 151.478 45.2777 151.415 46.4352H149.694V38.0231C149.867 37.9964 150.017 37.9511 150.166 37.9537C151.214 37.9717 152.262 37.9987 153.31 38.0243C154.229 38.0469 155.115 39.112 155.249 39.732C155.429 40.5657 155.277 41.7505 154.387 42.2855C154.155 42.425 153.937 42.5888 153.648 42.7856L153.649 42.7853ZM151.466 41.8245C152.505 41.9873 153.068 41.7649 153.464 41.0776C153.77 40.5462 153.627 40.0878 153.254 39.6504C152.752 39.0625 152.117 39.1832 151.466 39.2076V41.8245Z" fill="white"/>
<path d="M172.119 43.0249V38.1398H173.433C173.581 38.5924 173.62 45.6058 173.47 46.4079C172.952 46.6075 172.575 46.4241 172.23 46.0144C171.401 45.0269 170.553 44.0543 169.7 43.0862C169.22 42.5423 168.719 42.0173 168.221 41.4897C168.134 41.3973 168.015 41.3349 167.791 41.172V46.4238H166.446C166.291 45.971 166.249 38.9704 166.405 38.1368C167.041 37.9593 167.498 38.1609 167.924 38.6874C168.493 39.3904 169.162 40.0124 169.778 40.6774C170.316 41.2573 170.841 41.8496 171.373 42.4346C171.57 42.6509 171.772 42.8625 171.972 43.0762C172.021 43.059 172.07 43.0418 172.12 43.0246L172.119 43.0249Z" fill="white"/>
<path d="M142.781 46.4446H141.131C142.412 43.5765 143.663 40.7755 144.929 37.9385H145.746C146.94 40.7359 148.13 43.5216 149.354 46.3902C148.703 46.5594 148.059 46.4493 147.367 46.4736C147.216 46.1362 147.065 45.8118 146.927 45.4823C146.884 45.3793 146.884 45.2596 146.851 45.1517C146.648 44.4848 146.192 44.1513 145.484 44.1513C144.871 44.1513 144.259 44.1513 143.605 44.1513C143.329 44.9211 143.062 45.6615 142.78 46.4446H142.781ZM145.927 42.8777C145.637 42.1768 145.366 41.5229 145.029 40.7092C144.715 41.5049 144.456 42.1606 144.172 42.8777H145.927Z" fill="white"/>
<path d="M96.4461 46.4306C96.1977 45.7759 95.9476 45.1449 95.7218 44.5051C95.6435 44.2834 95.5392 44.1519 95.2919 44.153C94.4502 44.1563 93.6086 44.1543 92.7474 44.1543C92.4582 44.9312 92.1834 45.6691 91.8945 46.4447H90.271C91.5482 43.5761 92.8034 40.7573 94.0639 37.9268H94.8619C96.0688 40.7414 97.2705 43.5445 98.5077 46.4303H96.4461V46.4306ZM94.2877 40.9135C94.2353 40.9235 94.1831 40.9335 94.1307 40.9436C93.867 41.5713 93.6034 42.199 93.3158 42.8842H95.1052C94.8147 42.1838 94.5512 41.5487 94.2879 40.9138L94.2877 40.9135Z" fill="white"/>
<path d="M98.4527 43.9936H99.2428C99.5677 44.4777 99.8553 45.0191 100.488 45.2572C101.071 45.4763 101.99 45.2906 102.357 44.7952C102.642 44.4112 102.588 43.7886 102.18 43.5113C101.828 43.2724 101.416 43.1229 101.03 42.9357C100.564 42.7097 100.067 42.5307 99.6355 42.252C98.2049 41.3289 98.2465 39.7029 99.3422 38.6599C100.133 37.9074 101.07 37.6942 102.118 37.892C103.791 38.2081 103.565 38.1002 103.556 39.7232C103.556 39.7871 103.516 39.8508 103.493 39.9228C103.146 40.0663 102.899 39.9811 102.677 39.668C102.268 39.0911 101.321 38.9342 100.73 39.3146C100.229 39.6369 100.175 40.4305 100.655 40.7816C100.926 40.9804 101.236 41.1345 101.546 41.2711C102.063 41.499 102.608 41.6667 103.115 41.913C104.187 42.4341 104.405 43.9494 104.067 44.7685C103.767 45.4979 103.236 45.9779 102.522 46.3118C101.247 46.9079 100.017 46.8486 98.8154 46.1477C98.6618 46.0581 98.4805 45.8667 98.4689 45.7106C98.427 45.1491 98.4525 44.5828 98.4525 43.9936H98.4527Z" fill="white"/>
<path d="M103.952 38.1145H110.57V39.5281C109.804 39.4721 109.065 39.4182 108.237 39.3579V46.4686C107.685 46.4686 107.212 46.493 106.746 46.4519C106.624 46.4411 106.48 46.2431 106.421 46.1003C106.364 45.9634 106.403 45.7862 106.403 45.6267C106.402 43.8263 106.402 42.0259 106.402 40.2257C106.402 39.9771 106.402 39.7282 106.402 39.4329C105.576 39.2531 104.789 39.5489 103.952 39.4567V38.1143L103.952 38.1145Z" fill="white"/>
<path d="M155.556 39.4508V38.1915C156.039 38.0546 161.416 38.0241 162.254 38.1579V39.5243C161.459 39.4711 160.684 39.4192 159.832 39.3619V46.4378H158.14C158.06 44.1193 158.149 41.8057 158.091 39.4744C157.251 39.2027 156.437 39.5638 155.556 39.4505V39.4508Z" fill="white"/>
<path d="M163.042 38.1011H164.636C164.782 38.6153 164.806 45.7183 164.663 46.4403H163.07C162.922 45.9037 162.897 38.8875 163.042 38.1011Z" fill="white"/>
</svg>
