<svg width="224" height="166" viewBox="0 0 224 166" fill="none" xmlns="http://www.w3.org/2000/svg">
<g clip-path="url(#clip0_2061_4031)">
<path d="M163.39 54.7539C157.011 54.7539 151.089 56.8496 146.26 60.4031C141.431 56.8496 135.508 54.7539 129.13 54.7539C122.752 54.7539 116.829 56.8496 112 60.4031C107.171 56.8496 101.339 54.7539 94.8702 54.7539C88.492 54.7539 82.5695 56.8496 77.7403 60.4031C73.0023 56.8496 67.0797 54.7539 60.6105 54.7539C44.8474 54.7539 32 67.4191 32 82.9999C32 98.5808 44.8474 111.246 60.6105 111.246C66.9886 111.246 72.9112 109.15 77.7403 105.597C82.5695 109.15 88.492 111.246 94.8702 111.246C101.248 111.246 107.171 109.15 112 105.597C116.738 109.15 122.661 111.246 129.13 111.246C135.508 111.246 141.431 109.15 146.26 105.597C150.998 109.15 156.92 111.246 163.39 111.246C179.153 111.246 192 98.5808 192 82.9999C192 67.4191 179.153 54.7539 163.39 54.7539ZM146.26 97.5785C142.797 93.6605 140.702 88.558 140.702 82.9999C140.702 77.4418 142.797 72.3393 146.26 68.4213C149.722 72.3393 151.818 77.4418 151.818 82.9999C151.818 88.558 149.722 93.6605 146.26 97.5785ZM112 97.5785C108.538 93.6605 106.442 88.558 106.442 82.9999C106.442 77.4418 108.538 72.3393 112 68.4213C115.462 72.3393 117.558 77.4418 117.558 82.9999C117.558 88.558 115.462 93.6605 112 97.5785ZM77.7403 97.5785C74.2779 93.6605 72.1822 88.558 72.1822 82.9999C72.1822 77.4418 74.2779 72.3393 77.7403 68.4213C81.2027 72.3393 83.2984 77.4418 83.2984 82.9999C83.3897 88.558 81.2027 93.6605 77.7403 97.5785ZM37.9225 82.9999C37.9225 70.6992 48.1275 60.6765 60.6105 60.6765C65.2574 60.6765 69.631 62.0432 73.2756 64.5033C68.902 69.4236 66.2597 75.8928 66.2597 82.9999C66.2597 90.107 68.902 96.5762 73.2756 101.496C69.631 103.866 65.3485 105.323 60.6105 105.323C48.1275 105.323 37.9225 95.3006 37.9225 82.9999ZM82.205 101.496C86.5786 96.5762 89.2209 90.107 89.2209 82.9999C89.2209 75.8928 86.5786 69.4236 82.205 64.5033C85.8496 62.1343 90.1321 60.6765 94.8702 60.6765C99.6082 60.6765 103.891 62.0432 107.535 64.5033C103.162 69.4236 100.428 75.8928 100.428 82.9999C100.428 90.107 103.071 96.5762 107.535 101.496C103.891 103.866 99.6082 105.323 94.8702 105.323C90.2232 105.323 85.8496 103.866 82.205 101.496ZM116.465 101.496C120.838 96.5762 123.572 90.107 123.572 82.9999C123.572 75.8928 120.929 69.4236 116.465 64.5033C120.109 62.1343 124.392 60.6765 129.13 60.6765C133.868 60.6765 138.15 62.0432 141.795 64.5033C137.421 69.4236 134.688 75.8928 134.688 82.9999C134.688 90.107 137.33 96.5762 141.795 101.496C138.15 103.866 133.868 105.323 129.13 105.323C124.392 105.323 120.109 103.866 116.465 101.496ZM163.39 105.323C158.743 105.323 154.369 103.957 150.724 101.496C155.098 96.5762 157.831 90.107 157.831 82.9999C157.831 75.8928 155.189 69.4236 150.724 64.5033C154.369 62.1343 158.651 60.6765 163.39 60.6765C175.872 60.6765 186.077 70.6992 186.077 82.9999C186.077 95.3006 175.872 105.323 163.39 105.323Z" fill="white"/>
</g>
<defs>
<clipPath id="clip0_2061_4031">
<rect width="160" height="56.492" fill="white" transform="translate(32 54.7539)"/>
</clipPath>
</defs>
</svg>
