<svg width="327" height="166" viewBox="0 0 327 166" fill="none" xmlns="http://www.w3.org/2000/svg">
<path d="M111.883 89.8055C112.765 91.4711 115.332 90.9985 115.698 89.3241C116.754 90.8651 119.198 90.1457 119.431 88.5246C120.454 89.6409 122.482 89.194 122.941 87.7485C122.935 87.7697 122.948 87.7274 122.941 87.7485C130.464 84.6498 135.97 79.0438 138.124 72.3515C138.581 72.1601 138.981 71.8532 139.284 71.4609C141.611 72.009 144.211 73.1053 145.169 70.5013C147.222 71.0495 151.528 72.4849 152.831 68.9948C155.842 69.4062 160.22 69.6797 160.769 66.5275C163.368 66.5275 167.883 66.1162 167.883 63.1008C170.484 63.1008 174.999 61.3185 174.451 59.2626C176.778 58.9891 179.926 56.5219 179.926 54.8774C182.252 54.1925 184.853 52.4102 184.305 50.0809C185.672 49.2581 187.999 48.2986 187.999 46.9287C187.999 45.5589 186.904 44.4615 185.672 44.4615C184.44 44.4615 179.788 44.7439 178.146 44.7439C176.505 44.7439 156.662 44.4693 152.01 44.7439C147.358 45.0175 141.473 45.1464 138.599 44.8729C136.482 44.6683 129.27 44.2547 124.939 45.4144C115.768 40.8624 104.233 40.8613 95.0594 45.4144C90.7301 44.2558 83.5167 44.6694 81.3987 44.8707C78.5247 45.1453 72.6413 45.0152 67.9878 44.7417C63.3354 44.4671 43.4927 44.7417 41.8509 44.7417C40.2091 44.7417 35.5567 44.4593 34.3245 44.4593C33.0923 44.4593 32 45.5567 32 46.9265C32 48.2974 34.3267 49.257 35.6955 50.0787C35.1471 52.4091 37.748 54.1903 40.0736 54.8752C40.0736 56.5197 43.2207 58.9869 45.5475 59.2604C45.0002 61.3174 49.516 63.0986 52.1158 63.0986C52.1158 66.1128 56.6316 66.5253 59.2314 66.5253C59.7787 69.6774 64.158 69.4039 67.1685 68.9925C68.4718 72.4838 72.7789 71.0484 74.8314 70.4991C75.7894 73.1042 78.3893 72.0068 80.716 71.4586C81.0335 71.8723 81.4331 72.1591 81.876 72.3492C84.0296 79.0427 89.5367 84.6487 97.0586 87.7474C97.052 87.7263 97.0642 87.7686 97.0586 87.7474C97.5182 89.1929 99.5463 89.6398 100.569 88.5235C100.802 90.1446 103.246 90.8629 104.302 89.3229C104.667 90.9974 107.235 91.4699 108.116 89.8044C108.326 91.3621 111.673 91.3621 111.883 89.8055Z" fill="black"/>
<path d="M123.589 92.2417C124.946 95.3248 129.233 94.6829 131.801 93.7209C135.226 98.901 140.923 103.117 147.937 105.665L142.365 115.053C131.535 110.363 123.518 102.511 119.984 93.2651C121.235 93.1275 122.454 92.7815 123.589 92.2417Z" fill="white"/>
<path d="M141.559 117.491C129.602 112.471 120.813 103.689 117.173 93.1612C117.774 93.2914 118.397 93.3417 119.02 93.3305C122.586 102.907 130.818 111.046 141.954 115.878C141.729 116.389 141.596 116.935 141.559 117.491ZM147.815 117.772C147.814 117.778 147.812 117.784 147.81 117.789C146.037 122.124 140.78 119.616 143.159 115.523L148.824 105.977C149.863 106.327 150.927 106.64 152.017 106.919C152.039 107.066 147.877 117.575 147.815 117.772ZM153.806 119.121C152.709 123.458 147.45 122.136 148.687 118.076L153.19 107.198C154.261 107.44 155.352 107.645 156.461 107.81C156.473 107.851 153.806 119.121 153.806 119.121ZM159.98 119.806C159.589 124.473 153.826 123.663 154.859 119.015C154.859 119.019 157.433 107.972 157.442 107.948C158.524 108.084 159.62 108.188 160.734 108.251C160.773 108.352 159.984 119.713 159.98 119.806ZM160.983 119.735C160.983 119.737 161.597 108.439 161.606 108.411C162.684 108.456 164.277 108.488 165.387 108.376C165.439 108.473 166.154 119.618 166.165 119.709C166.513 124.277 160.708 124.37 160.983 119.735ZM35.7954 48.8829C36.312 48.4903 37.4236 48.5108 38.8291 48.4326C45.9801 48.4326 62.5914 48.8922 65.8216 48.8922C69.0518 48.8922 91.8914 51.4153 95.4659 52.5633C97.081 53.0229 97.4272 54.6268 95.4659 54.7421C93.5046 54.8575 69.1229 55.2036 65.6625 55.2036C62.9788 55.2036 49.0194 55.1571 40.9514 53.5662C36.5871 52.7047 34.244 50.0588 35.7954 48.8829ZM43.6501 57.3768C47.8029 57.4922 68.5652 57.6076 70.9887 57.4922C73.4104 57.3768 92.2133 56.346 94.4048 56.2307C99.1453 55.9832 100.68 58.082 95.6736 59.2133C93.1359 59.7883 69.7199 62.4248 51.9557 62.0806C48.6095 62.196 44.1123 60.4749 42.9576 58.8691C41.8048 57.2633 43.0736 57.3768 43.6501 57.3768ZM51.7255 64.9479C54.6095 64.9479 88.6369 62.4248 95.7897 60.9344C102.01 59.9929 100.607 63.171 98.0954 63.6864C95.9843 64.1199 70.7567 68.9614 57.9538 69.1902C53.685 69.0767 48.7255 65.0614 51.7255 64.9479ZM60.3755 72.0575C64.4142 71.5979 91.2906 67.3556 98.5576 65.4056C105.13 63.7124 103.803 68.0552 101.442 68.7325C99.338 69.3354 76.4329 74.8783 71.2189 75.1555C69.0082 75.2711 66.7914 75.1224 64.6163 74.7127C57.2502 73.2483 60.3755 72.0575 60.3755 72.0575ZM71.2189 78.0209C74.1029 77.4479 97.5189 72.171 104.209 69.6498C107.47 68.5204 108.45 71.704 106.401 72.6306C105.132 73.2037 87.1378 80.6575 78.6019 81.1171C75.4878 81.1171 69.7274 79.4499 71.2189 78.0209ZM109.399 73.2037C106.747 74.4652 90.5982 81.2325 84.368 82.6094C83.5034 82.8382 82.5901 83.2178 82.6631 83.696C83.217 87.3578 94.6818 84.243 95.4771 83.99C99.8864 82.5852 108.875 79.3048 112.687 75.6114C111.765 75.1537 109.631 73.6633 109.399 73.2037ZM114.244 77.1036C112.515 78.2498 101.21 84.1016 96.0199 85.7055C93.3081 86.6042 96.1621 89.3766 101.458 87.875C107.312 86.9726 115.859 80.0863 117.244 78.8248C116.552 78.4805 115.053 77.5632 114.244 77.1036ZM119.552 80.2016C117.461 81.6232 113.438 84.2802 110.883 85.9753C109.83 86.6749 107.314 88.0574 107.369 89.1626C107.395 89.6911 108.405 90.694 113.022 89.0268C115.893 87.8583 119.369 85.4822 122.32 81.2343C121.743 81.0594 120.243 80.544 119.552 80.2016ZM124.742 81.9209C123.66 82.9964 122.262 84.4663 120.894 85.8209C119.634 87.4359 116.827 88.5988 117.793 90.4651C118.839 92.4858 122.133 89.5775 123.319 88.4649C124.996 86.8889 126.615 84.8068 127.223 82.7229C126.415 82.494 125.492 82.2651 124.742 81.9209Z" fill="white"/>
<path d="M84.6001 47.975C87.6001 47.975 97.7491 48.6634 101.442 48.6634C112.049 48.6634 126.403 46.8027 136.27 48.8178C142.403 50.0701 143.282 51.8358 143.282 53.7337C143.282 56.2028 141.207 57.6858 139.736 58.7575C138.007 60.0191 132.699 63.1152 132.469 71.144C131.086 70.5709 129.125 70.2267 130.51 67.3594C132.926 62.5533 138.359 56.6996 129.067 54.2063C127.601 53.8137 125.795 53.557 123.589 53.4825C116.784 53.2537 106.916 53.2034 103.569 52.6304C100.225 52.0573 87.5982 49.1249 84.9463 48.7825C83.7916 48.6615 83.7916 48.0885 84.6001 47.975Z" fill="white"/>
<path d="M111.267 54.9484C113.688 54.9484 121.105 54.8982 123.592 55.0154C130.472 55.341 135.385 58.6735 130.416 64.9272C129.443 66.1497 126.841 68.7118 125.803 69.6291C124.88 70.3175 123.149 69.1695 124.648 67.4503C122.687 68.5964 120.265 68.3676 121.418 65.731C119.687 67.1079 116.804 67.2214 118.534 63.6675C117.381 64.5848 114.151 64.4713 116.226 61.7175C114.497 62.2906 112.536 61.258 113.804 59.5387C111.613 59.8848 110.344 58.2772 112.652 57.0175C110.46 57.585 109.884 55.0619 111.267 54.9484ZM104.499 53.7297C103.566 53.6702 99.5138 53.0152 99.6111 55.1866C99.7084 57.3599 104.209 56.5393 105.134 56.3681C106.837 56.0537 108.197 55.5364 108.158 54.8349C108.119 54.1149 106.345 53.8451 104.499 53.7297ZM104.664 57.4529C103.68 57.5273 100.141 57.3543 100.693 59.3415C100.867 59.9667 102.168 61.2319 106.519 60.1806C108.426 59.7192 109.414 58.7033 109.414 57.8957C109.414 57.1905 106.85 57.2873 104.664 57.4529ZM107.458 60.6793C106.758 60.7947 102.701 61.07 103.38 63.1037C103.856 64.5216 104.586 64.0731 105.823 64.2201C106.639 64.3169 112.683 62.6237 111.738 60.696C111.458 60.1229 109.68 60.3165 107.458 60.6793ZM109.464 63.5615C105.441 65.1858 105.493 66.2855 105.677 66.879C105.858 67.4744 107.703 68.2094 111.521 66.3543C113.454 65.4147 113.479 64.3467 113.003 63.5912C112.41 62.6442 110.909 62.9772 109.464 63.5615ZM112.281 66.2929C108.093 67.7442 108.332 69.069 108.663 69.8468C109.028 70.7064 110.352 71.6219 113.848 69.4077C115.959 68.0717 117.332 66.9516 116.956 66.0622C116.615 65.2547 114.619 65.4649 112.281 66.2929ZM113.92 70.4645C112.822 71.1269 112.322 72.0238 113.015 73.0453C114.254 74.8762 117.907 71.6461 118.824 70.658C119.505 69.9249 119.941 69.1546 119.556 68.5908C119.157 68.0103 117.918 68.055 113.92 70.4645ZM120.534 70.7753C115.657 73.2481 116.125 74.4464 116.804 74.958C117.555 75.5237 119.323 76.1172 122.28 72.7197C123.577 71.2311 122.864 69.6012 120.534 70.7753ZM122.969 73.369C121.94 74.5134 119.527 76.2382 121.395 77.5239C122.969 78.6068 123.892 77.4179 124.667 76.681C129.147 72.3959 127.665 69.6831 122.969 73.369Z" fill="white"/>
<path d="M137.687 50.9072C141.112 52.6097 142.528 54.4182 139.012 56.8892C138.581 57.1906 139.113 57.9405 139.543 57.6391C143.413 54.9225 142.581 52.1036 138.1 50.0866C137.629 49.8522 137.217 50.6727 137.687 50.9072Z" fill="black"/>
<path d="M184.694 89.7262C184.694 86.0681 180.905 82.41 176.696 81.1485C175.571 80.8954 175.749 79.9018 176.625 79.5092C177.467 79.1297 182.379 75.7246 182.31 71.4358C182.31 67.2735 177.396 60.9658 163.079 60.9658C154.657 60.9658 147.639 62.8581 143.428 66.3915C144.409 67.1488 145.534 68.2838 145.534 69.5454V92.6307C145.393 94.0187 144.691 95.1537 143.567 96.4153C147.347 99.0835 154.116 101.629 163.835 101.597C174.222 101.344 184.694 98.3038 184.694 89.7262Z" fill="white"/>
<path d="M163.79 78.6146C168.257 78.6146 171.879 75.7389 171.879 72.1916C171.879 68.6442 168.257 65.7686 163.79 65.7686C159.323 65.7686 155.702 68.6442 155.702 72.1916C155.702 75.7389 159.323 78.6146 163.79 78.6146Z" fill="black"/>
<path d="M164.832 96.3799C169.84 96.3799 173.9 93.3442 173.9 89.5996C173.9 85.855 169.84 82.8193 164.832 82.8193C159.825 82.8193 155.765 85.855 155.765 89.5996C155.765 93.3442 159.825 96.3799 164.832 96.3799Z" fill="black"/>
<path d="M128.651 78.5233C128.967 76.9585 129.475 75.4384 130.152 73.9777C130.113 73.92 128.913 72.3943 125.958 76.6403C124.326 78.9829 127.208 79.9263 128.651 78.5233ZM128.556 85.7353C127.339 87.1401 126.192 88.3198 125.434 89.2613C123.851 91.2298 127.97 93.6561 130.19 90.8577C129.42 89.2292 128.871 87.5068 128.556 85.7353ZM185.329 49.0392C185.982 48.6716 186.669 48.3675 187.38 48.1312C172.611 41.2095 154.388 41.2095 139.62 48.1312C140.387 48.3954 141.076 48.6968 141.669 49.0392C155.346 43.1167 171.772 43.1688 185.329 49.0392Z" fill="white"/>
<path d="M192.128 67.2496C190.47 61.515 186.33 59.1817 184.725 58.0653C181.496 55.8232 181.672 52.5094 184.431 49.6532C171.25 44.1289 155.595 44.1922 142.569 49.6532C145.328 52.5094 145.502 55.8232 142.276 58.0653C140.67 59.1817 136.528 61.515 134.872 67.2496C148.951 52.8238 178.049 52.822 192.128 67.2496ZM203.412 92.2421C202.053 95.3252 197.765 94.6833 195.199 93.7213C191.775 98.9014 186.078 103.118 179.062 105.665L184.635 115.054C195.465 110.363 203.481 102.511 207.018 93.2654C205.766 93.1284 204.547 92.7824 203.412 92.2421Z" fill="white"/>
<path d="M185.441 117.491C197.398 112.471 206.188 103.689 209.827 93.1612C209.22 93.2886 208.6 93.3454 207.979 93.3305C204.414 102.907 196.182 111.046 185.046 115.878C185.27 116.389 185.404 116.935 185.441 117.491ZM179.183 117.772L179.19 117.789C180.963 122.124 186.22 119.616 183.841 115.523L178.176 105.977C177.137 106.327 176.074 106.64 174.983 106.919C174.961 107.066 179.123 117.575 179.183 117.772ZM173.192 119.121C174.291 123.458 179.548 122.136 178.311 118.076C178.311 118.076 174.044 107.762 173.808 107.198C172.739 107.44 171.648 107.645 170.538 107.81C170.527 107.851 173.192 119.121 173.192 119.121ZM167.02 119.806C167.411 124.473 173.172 123.663 172.139 119.015C172.14 119.019 169.567 107.972 169.556 107.948C168.474 108.084 167.376 108.188 166.264 108.251C166.227 108.352 167.016 119.713 167.02 119.806ZM291.204 48.8829C290.688 48.4903 289.576 48.5108 288.171 48.4326C281.02 48.4326 264.408 48.8922 261.178 48.8922C257.948 48.8922 235.108 51.4153 231.534 52.5633C229.919 53.0229 229.573 54.6268 231.534 54.7421C233.495 54.8575 257.875 55.2036 261.335 55.2036C264.021 55.2036 277.98 55.1571 286.047 53.5662C290.415 52.7047 292.758 50.0588 291.204 48.8829ZM283.348 57.3768C279.195 57.4922 258.435 57.6076 256.011 57.4922C253.589 57.3768 234.787 56.346 232.595 56.2307C227.855 55.9832 226.318 58.082 231.326 59.2133C233.862 59.7883 257.28 62.4248 275.042 62.0806C278.387 62.196 282.886 60.4749 284.04 58.8691C285.195 57.2633 283.926 57.3768 283.348 57.3768ZM275.274 64.9479C272.39 64.9479 238.363 62.4248 231.21 60.9344C224.989 59.9929 226.393 63.171 228.905 63.6864C231.016 64.1199 256.241 68.9614 269.046 69.1902C273.313 69.0767 278.272 65.0614 275.274 64.9479ZM266.624 72.0575C262.588 71.5979 235.709 67.3556 228.444 65.4056C221.871 63.7124 223.196 68.0552 225.56 68.7325C227.662 69.3354 250.567 74.8783 255.781 75.1555C257.992 75.2711 260.208 75.1224 262.384 74.7127C269.75 73.2483 266.624 72.0575 266.624 72.0575ZM255.781 78.021C252.897 77.4479 229.481 72.171 222.79 69.6498C219.532 68.5204 218.55 71.704 220.599 72.6306C221.868 73.2037 239.862 80.6575 248.398 81.1171C251.512 81.1171 257.272 79.4499 255.781 78.021ZM217.599 73.2037C220.251 74.4652 236.402 81.2325 242.63 82.6094C243.495 82.8382 244.408 83.2178 244.335 83.696C243.781 87.3578 232.316 84.243 231.521 83.99C227.113 82.5852 218.123 79.3048 214.311 75.6114C215.235 75.1537 217.369 73.6633 217.599 73.2037ZM212.754 77.1036C214.483 78.2498 225.788 84.1016 230.978 85.7055C233.69 86.6042 230.836 89.3766 225.54 87.875C219.686 86.9726 211.138 80.0863 209.754 78.8248C210.448 78.4805 211.947 77.5632 212.754 77.1036ZM207.45 80.2017C209.538 81.6232 213.564 84.2802 216.119 85.9753C217.172 86.6749 219.687 88.0574 219.633 89.1626C219.607 89.6911 218.596 90.694 213.979 89.0268C211.109 87.8583 207.633 85.4822 204.682 81.2343C205.256 81.0594 206.755 80.544 207.45 80.2017ZM202.256 81.9209C203.338 82.9964 204.738 84.4663 206.106 85.8209C207.367 87.4359 210.175 88.5988 209.207 90.4651C208.161 92.4858 204.867 89.5776 203.682 88.4649C202.006 86.8889 200.385 84.8068 199.777 82.7229C200.585 82.494 201.508 82.2651 202.256 81.9209Z" fill="white"/>
<path d="M242.4 47.975C239.4 47.975 229.251 48.6634 225.559 48.6634C214.949 48.6634 200.595 46.8027 190.73 48.8178C184.597 50.0701 183.718 51.8358 183.718 53.7337C183.718 56.2028 185.791 57.6858 187.262 58.7575C188.993 60.0191 194.301 63.1152 194.531 71.144C195.914 70.5709 197.876 70.2267 196.493 67.3594C194.075 62.5533 188.644 56.6996 197.935 54.2063C199.401 53.8137 201.207 53.557 203.415 53.4825C210.22 53.2537 220.088 53.2034 223.433 52.6304C226.777 52.0573 239.404 49.1249 242.056 48.7825C243.209 48.6615 243.209 48.0885 242.4 47.975Z" fill="white"/>
<path d="M215.731 54.9484C213.31 54.9484 205.893 54.8982 203.406 55.0154C196.526 55.341 191.614 58.6735 196.582 64.9272C197.555 66.1497 200.157 68.7118 201.196 69.6291C202.118 70.3175 203.849 69.1695 202.348 67.4503C204.312 68.5964 206.733 68.3676 205.58 65.731C207.31 67.1079 210.194 67.2214 208.464 63.6675C209.617 64.5848 212.847 64.4713 210.77 61.7175C212.501 62.2906 214.462 61.258 213.192 59.5387C215.385 59.8848 216.654 58.2772 214.345 57.0175C216.54 57.585 217.116 55.0619 215.731 54.9484ZM222.501 53.7297C223.434 53.6702 227.486 53.0152 227.389 55.1866C227.292 57.3599 222.791 56.5393 221.866 56.3681C220.163 56.0537 218.802 55.5364 218.842 54.8349C218.881 54.1149 220.655 53.8451 222.501 53.7297ZM222.338 57.4529C223.32 57.5273 226.861 57.3543 226.307 59.3415C226.133 59.9667 224.834 61.2319 220.483 60.1806C218.574 59.7192 217.588 58.7033 217.588 57.8957C217.588 57.1905 220.15 57.2873 222.338 57.4529ZM219.54 60.6793C220.24 60.7947 224.297 61.07 223.618 63.1037C223.142 64.5216 222.413 64.0731 221.176 64.2201C220.36 64.3169 214.315 62.6237 215.26 60.696C215.542 60.1229 217.32 60.3165 219.54 60.6793ZM217.535 63.5615C221.557 65.1858 221.505 66.2855 221.323 66.879C221.14 67.4744 219.297 68.2094 215.479 66.3543C213.545 65.4147 213.519 64.3467 213.995 63.5912C214.59 62.6442 216.091 62.9772 217.535 63.5615ZM214.717 66.2929C218.905 67.7442 218.666 69.069 218.335 69.8468C217.97 70.7064 216.647 71.6219 213.149 69.4077C211.038 68.0717 209.664 66.9516 210.042 66.0622C210.385 65.2547 212.38 65.4649 214.717 66.2929ZM213.078 70.4645C214.176 71.1269 214.676 72.0238 213.983 73.0453C212.746 74.8762 209.091 71.6461 208.174 70.658C207.495 69.9249 207.057 69.1546 207.443 68.5908C207.841 68.0103 209.082 68.055 213.078 70.4645ZM206.466 70.7753C211.343 73.2481 210.875 74.4464 210.196 74.958C209.445 75.5237 207.676 76.1172 204.72 72.7197C203.423 71.2311 204.136 69.6012 206.466 70.7753ZM204.029 73.369C205.058 74.5134 207.471 76.2382 205.605 77.5239C204.029 78.6068 203.106 77.4179 202.333 76.681C197.853 72.3959 199.335 69.6831 204.029 73.369Z" fill="white"/>
<path d="M189.314 50.9072C185.889 52.6097 184.472 54.4182 187.99 56.8892C188.419 57.1906 187.887 57.9405 187.457 57.6391C183.589 54.9225 184.421 52.1036 188.902 50.0866C189.372 49.8522 189.783 50.6727 189.314 50.9072Z" fill="black"/>
<path d="M198.349 78.5234C198.031 76.9586 197.525 75.4385 196.846 73.9778C196.885 73.9202 198.085 72.3944 201.04 76.6404C202.674 78.983 199.792 79.9264 198.349 78.5234ZM198.442 85.7354C199.659 87.1402 200.808 88.3199 201.566 89.2614C203.149 91.2299 199.03 93.6562 196.811 90.8578C197.58 89.2186 198.134 87.503 198.442 85.7354Z" fill="white"/>
</svg>
