<svg width="264" height="83" viewBox="0 0 264 83" fill="none" xmlns="http://www.w3.org/2000/svg">
<g clip-path="url(#clip0_413_1644)">
<path d="M80.3827 48.2357C81.2652 49.9012 83.8317 49.4287 84.1981 47.7542C85.2537 49.2953 87.6981 48.5759 87.9313 46.9548C88.9536 48.0711 90.9818 47.6241 91.4413 46.1787C91.4347 46.1998 91.448 46.1576 91.4413 46.1787C98.9644 43.08 104.47 37.4739 106.624 30.7817C107.081 30.5903 107.481 30.2834 107.784 29.891C110.111 30.4392 112.711 31.5355 113.669 28.9315C115.722 29.4797 120.028 30.9151 121.331 27.4249C124.342 27.8363 128.72 28.1098 129.269 24.9577C131.868 24.9577 136.383 24.5463 136.383 21.531C138.984 21.531 143.499 19.7486 142.951 17.6928C145.278 17.4193 148.426 14.9521 148.426 13.3076C150.752 12.6227 153.353 10.8404 152.805 8.51105C154.172 7.68827 156.499 6.72874 156.499 5.35892C156.499 3.98911 155.404 2.8917 154.172 2.8917C152.94 2.8917 148.288 3.17411 146.646 3.17411C145.005 3.17411 125.162 2.89948 120.51 3.17411C115.858 3.44763 109.973 3.57661 107.099 3.30309C104.982 3.09851 97.7699 2.68489 93.4395 3.84457C84.268 -0.707398 72.7331 -0.70851 63.5594 3.84457C59.2301 2.68601 52.0167 3.09962 49.8987 3.30086C47.0247 3.57549 41.1413 3.44541 36.4878 3.17189C31.8354 2.89726 11.9927 3.17189 10.3509 3.17189C8.70906 3.17189 4.05671 2.88948 2.82451 2.88948C1.59232 2.88948 0.5 3.98688 0.5 5.3567C0.5 6.72762 2.82673 7.68716 4.19547 8.50883C3.64709 10.8393 6.24801 12.6205 8.57363 13.3054C8.57363 14.9498 11.7207 17.4171 14.0475 17.6906C13.5002 19.7475 18.016 21.5287 20.6158 21.5287C20.6158 24.543 25.1316 24.9555 27.7314 24.9555C28.2787 28.1076 32.658 27.8341 35.6685 27.4227C36.9718 30.914 41.2789 29.4785 43.3314 28.9293C44.2894 31.5344 46.8893 30.437 49.216 29.8888C49.5335 30.3024 49.9331 30.5893 50.376 30.7794C52.5296 37.4728 58.0367 43.0788 65.5586 46.1776C65.552 46.1565 65.5642 46.1987 65.5586 46.1776C66.0182 47.623 68.0463 48.07 69.0687 46.9537C69.3018 48.5748 71.7462 49.293 72.8019 47.7531C73.1672 49.4276 75.7348 49.9001 76.6162 48.2346C76.826 49.7923 80.1729 49.7923 80.3827 48.2357Z" fill="black"/>
<path d="M92.0886 50.6721C93.4454 53.7552 97.733 53.1133 100.301 52.1513C103.726 57.3314 109.422 61.5477 116.437 64.095L110.865 73.4839C100.035 68.7932 92.0175 60.9411 88.4841 51.6955C89.7349 51.5579 90.9534 51.212 92.0886 50.6721Z" fill="white"/>
<path d="M110.059 75.9215C98.1018 70.9014 89.3133 62.119 85.6733 51.5914C86.274 51.7216 86.8972 51.7719 87.5204 51.7607C91.0856 61.3375 99.3183 69.4761 110.454 74.3083C110.229 74.8194 110.096 75.3651 110.059 75.9215ZM116.315 76.2024C116.314 76.2081 116.312 76.2137 116.31 76.2192C114.537 80.5545 109.28 78.0463 111.659 73.9529L117.324 64.4077C118.363 64.7575 119.427 65.07 120.517 65.3491C120.539 65.4961 116.377 76.0052 116.315 76.2024ZM122.306 77.5514C121.209 81.8886 115.95 80.5657 117.187 76.5057L121.69 65.6282C122.761 65.8701 123.852 66.0748 124.961 66.2404C124.973 66.2813 122.306 77.5514 122.306 77.5514ZM128.48 78.2361C128.089 82.9027 122.326 82.0933 123.359 77.4454C123.359 77.4491 125.933 66.4023 125.942 66.3781C127.024 66.5139 128.12 66.6181 129.234 66.6814C129.273 66.7819 128.484 78.1431 128.48 78.2361ZM129.483 78.1654C129.483 78.1673 130.097 66.8693 130.106 66.8414C131.184 66.8861 132.777 66.9177 133.887 66.806C133.939 66.9028 134.654 78.0482 134.665 78.1394C135.013 82.7073 129.208 82.8003 129.483 78.1654ZM4.29544 7.31307C4.81197 6.92047 5.92363 6.94094 7.32912 6.86279C14.4801 6.86279 31.0914 7.32238 34.3216 7.32238C37.5518 7.32238 60.3914 9.84544 63.9659 10.9935C65.581 11.4531 65.9272 13.057 63.9659 13.1723C62.0046 13.2877 37.6229 13.6338 34.1625 13.6338C31.4788 13.6338 17.5194 13.5872 9.45138 11.9964C5.08708 11.1349 2.74398 8.48902 4.29544 7.31307ZM12.1501 15.807C16.3029 15.9224 37.0652 16.0377 39.4887 15.9224C41.9104 15.807 60.7133 14.7762 62.9048 14.6608C67.6453 14.4134 69.1799 16.5122 64.1736 17.6435C61.6359 18.2184 38.2199 20.855 20.4557 20.5108C17.1095 20.6261 12.6123 18.905 11.4576 17.2993C10.3048 15.6935 11.5736 15.807 12.1501 15.807ZM20.2255 23.3781C23.1095 23.3781 57.1369 20.855 64.2897 19.3646C70.5105 18.4231 69.1069 21.6011 66.5954 22.1165C64.4843 22.5501 39.2567 27.3915 26.4538 27.6204C22.185 27.5069 17.2255 23.4916 20.2255 23.3781ZM28.8755 30.4877C32.9142 30.0281 59.7906 25.7858 67.0576 23.8358C73.6303 22.1426 72.3034 26.4854 69.9416 27.1627C67.838 27.7655 44.9329 33.3085 39.7189 33.5857C37.5082 33.7013 35.2914 33.5526 33.1163 33.1429C25.7502 31.6785 28.8755 30.4877 28.8755 30.4877ZM39.7189 36.4511C42.6029 35.878 66.0189 30.6012 72.7095 28.08C75.9696 26.9506 76.9503 30.1342 74.901 31.0608C73.6321 31.6339 55.6378 39.0877 47.1019 39.5473C43.9878 39.5473 38.2274 37.8801 39.7189 36.4511ZM77.8991 31.6339C75.2472 32.8954 59.0982 39.6626 52.868 41.0395C52.0034 41.2684 51.0901 41.648 51.1631 42.1262C51.717 45.788 63.1818 42.6732 63.9771 42.4201C68.3864 41.0153 77.3751 37.735 81.1873 34.0416C80.2647 33.5838 78.1312 32.0934 77.8991 31.6339ZM82.7444 35.5338C81.0152 36.68 69.7095 42.5318 64.5199 44.1357C61.8081 45.0344 64.6621 47.8068 69.9584 46.3052C75.8124 45.4028 84.3595 38.5165 85.7444 37.2549C85.0519 36.9107 83.5529 35.9934 82.7444 35.5338ZM88.0519 38.6318C85.9615 40.0534 81.9378 42.7104 79.3832 44.4055C78.3296 45.1051 75.8143 46.4876 75.8686 47.5928C75.8948 48.1212 76.9054 49.1241 81.5223 47.457C84.3932 46.2885 87.8685 43.9124 90.8199 39.6645C90.2435 39.4896 88.7425 38.9742 88.0519 38.6318ZM93.2416 40.3511C92.1599 41.4265 90.7618 42.8965 89.3938 44.251C88.1343 45.8661 85.3271 47.029 86.2927 48.8953C87.3389 50.916 90.6327 48.0077 91.8192 46.895C93.4961 45.3191 95.1149 43.237 95.7232 41.153C94.9147 40.9242 93.992 40.6953 93.2416 40.3511Z" fill="white"/>
<path d="M53.1001 6.40489C56.1001 6.40489 66.2491 7.09334 69.9416 7.09334C80.5492 7.09334 94.9035 5.23267 104.77 7.24777C110.903 8.5 111.782 10.2658 111.782 12.1637C111.782 14.6328 109.707 16.1157 108.236 17.1875C106.507 18.449 101.199 21.5451 100.969 29.5739C99.5859 29.0008 97.6246 28.6566 99.0095 25.7893C101.426 20.9832 106.859 15.1296 97.5666 12.6363C96.1012 12.2437 94.2952 11.9869 92.0888 11.9125C85.284 11.6836 75.4157 11.6334 72.0695 11.0603C68.7251 10.4872 56.0982 7.55478 53.4463 7.21242C52.2916 7.09148 52.2916 6.51839 53.1001 6.40489Z" fill="white"/>
<path d="M79.7667 13.3789C82.1884 13.3789 89.6051 13.3286 92.0923 13.4458C98.9719 13.7715 103.885 17.1039 98.9158 23.3576C97.9426 24.5801 95.3412 27.1422 94.3026 28.0595C93.3799 28.748 91.6488 27.5999 93.1479 25.8807C91.1865 27.0268 88.7648 26.798 89.9177 24.1614C88.1865 25.5383 85.3044 25.6518 87.0337 22.0979C85.8809 23.0153 82.6507 22.9017 84.7262 20.148C82.9969 20.721 81.0356 19.6884 82.3045 17.9691C80.1129 18.3152 78.8441 16.7076 81.1516 15.4479C78.9601 16.0154 78.3837 13.4924 79.7667 13.3789ZM72.9994 12.1601C72.0655 12.1006 68.0138 11.4456 68.1111 13.617C68.2084 15.7903 72.7093 14.9697 73.6339 14.7985C75.3369 14.4841 76.6975 13.9668 76.6582 13.2654C76.6189 12.5453 74.8447 12.2755 72.9994 12.1601ZM73.1641 15.8833C72.1797 15.9577 68.6407 15.7847 69.1928 17.7719C69.3669 18.3971 70.6676 19.6623 75.0188 18.611C76.9258 18.1496 77.914 17.1337 77.914 16.3262C77.914 15.621 75.35 15.7177 73.1641 15.8833ZM75.9582 19.1097C75.2583 19.2251 71.2009 19.5004 71.8803 21.5342C72.3556 22.952 73.0855 22.5036 74.3226 22.6506C75.1385 22.7473 81.1834 21.0541 80.2383 19.1265C79.9576 18.5534 78.1797 18.7469 75.9582 19.1097ZM77.9645 21.9919C73.9408 23.6162 73.9932 24.7159 74.1766 25.3095C74.3581 25.9049 76.2034 26.6398 80.0212 24.7847C81.9545 23.8451 81.9788 22.7771 81.5035 22.0217C80.9102 21.0746 79.4093 21.4076 77.9645 21.9919ZM80.7811 24.7233C76.5927 26.1747 76.8322 27.4995 77.1635 28.2772C77.5284 29.1368 78.8516 30.0523 82.3475 27.8381C84.4585 26.5021 85.8322 25.382 85.456 24.4926C85.1154 23.6851 83.1186 23.8953 80.7811 24.7233ZM82.4205 28.895C81.3219 29.5574 80.8222 30.4542 81.5147 31.4757C82.7536 33.3066 86.4068 30.0765 87.3238 29.0885C88.005 28.3554 88.4411 27.585 88.0555 27.0213C87.6569 26.4407 86.418 26.4854 82.4205 28.895ZM89.0343 29.2057C84.1572 31.6785 84.6251 32.8768 85.3044 33.3885C86.0549 33.9541 87.8235 34.5477 90.7804 31.1501C92.0774 29.6616 91.3643 28.0316 89.0343 29.2057ZM91.4691 31.7995C90.4398 32.9438 88.0275 34.6686 89.8952 35.9543C91.4691 37.0372 92.3918 35.8483 93.1666 35.1115C97.6469 30.8263 96.1647 28.1135 91.4691 31.7995Z" fill="white"/>
<path d="M106.187 9.33733C109.612 11.0398 111.028 12.8484 107.512 15.3194C107.081 15.6208 107.613 16.3707 108.043 16.0692C111.913 13.3527 111.081 10.5337 106.6 8.51678C106.129 8.28233 105.717 9.10289 106.187 9.33733Z" fill="black"/>
<path d="M153.194 48.1566C153.194 44.4985 149.405 40.8404 145.196 39.5789C144.071 39.3258 144.249 38.3323 145.125 37.9396C145.967 37.5601 150.879 34.1551 150.81 29.8662C150.81 25.7039 145.896 19.3962 131.579 19.3962C123.157 19.3962 116.139 21.2885 111.928 24.8219C112.909 25.5792 114.034 26.7142 114.034 27.9758V51.0611C113.893 52.4491 113.191 53.5841 112.067 54.8457C115.847 57.5139 122.616 60.0593 132.335 60.0276C142.722 59.7746 153.194 56.7343 153.194 48.1566Z" fill="white"/>
<path d="M132.29 37.0445C136.757 37.0445 140.379 34.1688 140.379 30.6215C140.379 27.0742 136.757 24.1985 132.29 24.1985C127.823 24.1985 124.201 27.0742 124.201 30.6215C124.201 34.1688 127.823 37.0445 132.29 37.0445Z" fill="black"/>
<path d="M133.332 54.8103C138.34 54.8103 142.4 51.7747 142.4 48.03C142.4 44.2854 138.34 41.2498 133.332 41.2498C128.325 41.2498 124.265 44.2854 124.265 48.03C124.265 51.7747 128.325 54.8103 133.332 54.8103Z" fill="black"/>
<path d="M97.1509 36.9535C97.4672 35.3887 97.9744 33.8685 98.6519 32.4079C98.6126 32.3502 97.413 30.8245 94.4579 35.0705C92.8259 37.4131 95.708 38.3565 97.1509 36.9535ZM97.0555 44.1655C95.839 45.5703 94.6918 46.7499 93.9339 47.6914C92.3506 49.66 96.4697 52.0863 98.6893 49.2879C97.9202 47.6594 97.3708 45.937 97.0555 44.1655ZM153.829 7.46938C154.482 7.10177 155.169 6.79769 155.88 6.56138C141.11 -0.360303 122.888 -0.360303 108.12 6.56138C108.887 6.82559 109.576 7.12702 110.169 7.46938C123.846 1.54688 140.272 1.59898 153.829 7.46938Z" fill="white"/>
<path d="M160.628 25.6795C158.97 19.9449 154.83 17.6117 153.224 16.4953C149.996 14.2531 150.172 10.9393 152.931 8.08317C139.75 2.55885 124.095 2.62212 111.069 8.08317C113.828 10.9393 114.002 14.2531 110.775 16.4953C109.17 17.6117 105.028 19.9449 103.372 25.6795C117.451 11.2538 146.549 11.2519 160.628 25.6795ZM171.911 50.672C170.553 53.7551 166.265 53.1132 163.699 52.1512C160.274 57.3313 154.578 61.5476 147.561 64.0948L153.135 73.4838C163.965 68.793 171.981 60.941 175.518 51.6954C174.266 51.5583 173.047 51.2123 171.911 50.672Z" fill="white"/>
<path d="M153.941 75.9215C165.898 70.9014 174.689 62.119 178.327 51.5914C177.72 51.7187 177.1 51.7756 176.48 51.7607C172.914 61.3376 164.682 69.4761 153.546 74.3083C153.771 74.8194 153.904 75.3651 153.941 75.9215ZM147.683 76.2024L147.691 76.2192C149.463 80.5545 154.72 78.0463 152.341 73.9529L146.676 64.4077C145.638 64.7575 144.575 65.07 143.483 65.3491C143.461 65.4961 147.623 76.0052 147.683 76.2024ZM141.692 77.5514C142.791 81.8886 148.048 80.5657 146.811 76.5057C146.811 76.5057 142.544 66.192 142.308 65.6283C141.24 65.8701 140.149 66.0748 139.039 66.2404C139.027 66.2813 141.692 77.5514 141.692 77.5514ZM135.52 78.2361C135.911 82.9027 141.672 82.0933 140.639 77.4454C140.641 77.4491 138.067 66.4023 138.056 66.3781C136.974 66.5139 135.876 66.6181 134.764 66.6814C134.727 66.7819 135.517 78.1431 135.52 78.2361ZM259.705 7.31307C259.188 6.92047 258.076 6.94094 256.671 6.86279C249.52 6.86279 232.909 7.32238 229.679 7.32238C226.448 7.32238 203.609 9.84544 200.034 10.9935C198.419 11.4531 198.073 13.057 200.034 13.1723C201.996 13.2877 226.375 13.6338 229.836 13.6338C232.521 13.6338 246.481 13.5872 254.547 11.9964C258.915 11.1349 261.258 8.48902 259.705 7.31307ZM251.848 15.807C247.695 15.9224 226.935 16.0377 224.511 15.9224C222.09 15.807 203.287 14.7762 201.095 14.6608C196.355 14.4134 194.818 16.5122 199.826 17.6435C202.362 18.2184 225.78 20.855 243.543 20.5108C246.887 20.6261 251.386 18.905 252.541 17.2993C253.695 15.6935 252.426 15.807 251.848 15.807ZM243.775 23.3781C240.891 23.3781 206.863 20.855 199.71 19.3646C193.49 18.4231 194.893 21.6011 197.405 22.1165C199.516 22.5501 224.742 27.3915 237.546 27.6204C241.813 27.5069 246.773 23.4916 243.775 23.3781ZM235.125 30.4877C231.088 30.0281 204.209 25.7858 196.944 23.8358C190.372 22.1426 191.697 26.4854 194.06 27.1627C196.162 27.7655 219.067 33.3085 224.281 33.5857C226.492 33.7013 228.709 33.5526 230.884 33.1429C238.25 31.6785 235.125 30.4877 235.125 30.4877ZM224.281 36.4511C221.397 35.878 197.981 30.6012 191.291 28.08C188.032 26.9506 187.05 30.1342 189.099 31.0608C190.368 31.6339 208.362 39.0877 216.898 39.5473C220.012 39.5473 225.773 37.8801 224.281 36.4511ZM186.099 31.6339C188.751 32.8954 204.902 39.6626 211.13 41.0395C211.995 41.2684 212.908 41.648 212.835 42.1262C212.281 45.788 200.816 42.6732 200.021 42.4201C195.614 41.0153 186.623 37.735 182.811 34.0416C183.735 33.5838 185.869 32.0934 186.099 31.6339ZM181.254 35.5338C182.983 36.68 194.289 42.5318 199.478 44.1357C202.19 45.0344 199.336 47.8068 194.04 46.3052C188.186 45.4028 179.639 38.5165 178.254 37.2549C178.948 36.9107 180.447 35.9934 181.254 35.5338ZM175.95 38.6318C178.039 40.0534 182.064 42.7104 184.619 44.4055C185.672 45.1051 188.188 46.4876 188.133 47.5928C188.107 48.1212 187.097 49.1241 182.48 47.457C179.609 46.2885 176.133 43.9124 173.182 39.6645C173.757 39.4896 175.256 38.9742 175.95 38.6318ZM170.757 40.3511C171.838 41.4266 173.238 42.8965 174.606 44.251C175.868 45.8661 178.675 47.029 177.707 48.8953C176.661 50.916 173.367 48.0077 172.183 46.8951C170.506 45.3191 168.885 43.237 168.277 41.153C169.085 40.9242 170.008 40.6953 170.757 40.3511Z" fill="white"/>
<path d="M210.9 6.40489C207.9 6.40489 197.751 7.09334 194.059 7.09334C183.449 7.09334 169.095 5.23267 159.23 7.24777C153.097 8.5 152.218 10.2658 152.218 12.1637C152.218 14.6328 154.291 16.1157 155.762 17.1875C157.493 18.449 162.801 21.5451 163.031 29.5739C164.414 29.0008 166.376 28.6566 164.993 25.7893C162.575 20.9832 157.144 15.1296 166.435 12.6363C167.901 12.2437 169.707 11.9869 171.915 11.9125C178.72 11.6836 188.588 11.6334 191.933 11.0603C195.277 10.4872 207.904 7.55478 210.556 7.21242C211.709 7.09148 211.709 6.51839 210.9 6.40489Z" fill="white"/>
<path d="M184.231 13.3789C181.81 13.3789 174.393 13.3286 171.906 13.4458C165.026 13.7715 160.114 17.1039 165.082 23.3576C166.055 24.5801 168.657 27.1422 169.696 28.0595C170.618 28.748 172.349 27.5999 170.848 25.8807C172.812 27.0268 175.233 26.798 174.08 24.1614C175.81 25.5383 178.694 25.6518 176.964 22.0979C178.117 23.0153 181.347 22.9017 179.27 20.148C181.001 20.721 182.962 19.6884 181.692 17.9691C183.885 18.3152 185.154 16.7076 182.845 15.4479C185.04 16.0154 185.616 13.4924 184.231 13.3789ZM191.001 12.1601C191.934 12.1006 195.986 11.4456 195.889 13.617C195.792 15.7903 191.291 14.9697 190.366 14.7985C188.663 14.4841 187.302 13.9668 187.342 13.2654C187.381 12.5453 189.155 12.2755 191.001 12.1601ZM190.838 15.8833C191.82 15.9577 195.361 15.7847 194.807 17.7719C194.633 18.3971 193.334 19.6623 188.983 18.611C187.074 18.1496 186.088 17.1337 186.088 16.3262C186.088 15.621 188.65 15.7177 190.838 15.8833ZM188.04 19.1097C188.74 19.2251 192.797 19.5004 192.118 21.5342C191.642 22.952 190.913 22.5036 189.676 22.6506C188.86 22.7473 182.815 21.0541 183.76 19.1265C184.042 18.5534 185.82 18.7469 188.04 19.1097ZM186.035 21.9919C190.057 23.6162 190.005 24.7159 189.823 25.3095C189.64 25.9049 187.797 26.6398 183.979 24.7847C182.045 23.8451 182.019 22.7771 182.495 22.0217C183.09 21.0746 184.591 21.4076 186.035 21.9919ZM183.217 24.7233C187.405 26.1747 187.166 27.4995 186.835 28.2772C186.47 29.1368 185.147 30.0523 181.649 27.8381C179.538 26.5021 178.164 25.382 178.542 24.4926C178.885 23.6851 180.88 23.8953 183.217 24.7233ZM181.578 28.895C182.676 29.5574 183.176 30.4542 182.483 31.4757C181.246 33.3066 177.591 30.0765 176.674 29.0885C175.995 28.3554 175.557 27.585 175.943 27.0213C176.341 26.4407 177.582 26.4854 181.578 28.895ZM174.966 29.2057C179.843 31.6785 179.375 32.8768 178.696 33.3885C177.945 33.9541 176.176 34.5477 173.22 31.1501C171.923 29.6616 172.636 28.0316 174.966 29.2057ZM172.529 31.7995C173.558 32.9438 175.971 34.6686 174.105 35.9543C172.529 37.0372 171.606 35.8483 170.833 35.1115C166.353 30.8263 167.835 28.1135 172.529 31.7995Z" fill="white"/>
<path d="M157.814 9.33733C154.389 11.0398 152.972 12.8484 156.49 15.3194C156.919 15.6208 156.387 16.3707 155.957 16.0692C152.089 13.3527 152.921 10.5337 157.402 8.51678C157.872 8.28233 158.283 9.10289 157.814 9.33733Z" fill="black"/>
<path d="M166.849 36.9534C166.531 35.3886 166.025 33.8684 165.346 32.4078C165.385 32.3501 166.585 30.8243 169.54 35.0704C171.174 37.413 168.292 38.3563 166.849 36.9534ZM166.942 44.1653C168.159 45.5701 169.308 46.7498 170.066 47.6913C171.649 49.6599 167.53 52.0862 165.311 49.2877C166.08 47.6485 166.634 45.933 166.942 44.1653Z" fill="white"/>
</g>
<defs>
<clipPath id="clip0_413_1644">
<rect width="263" height="82" fill="white" transform="translate(0.5 0.430176)"/>
</clipPath>
</defs>
</svg>
