<svg width="165" height="166" viewBox="0 0 165 166" fill="none" xmlns="http://www.w3.org/2000/svg">
<g clip-path="url(#clip0_2055_3566)">
<path d="M75.4999 119C86.9855 119 97.7835 114.527 105.905 106.405C114.027 98.2837 118.5 87.4855 118.5 75.9999C118.5 64.5145 114.027 53.7163 105.905 45.5946C97.7837 37.4728 86.9855 33 75.4999 33C51.7896 33 32.5 52.2896 32.5 75.9999C32.5 87.4855 36.9728 98.2837 45.0946 106.405C53.2163 114.527 64.0145 119 75.4999 119Z" fill="black"/>
<path d="M34.23 82.9999C34.23 70.1069 39.251 57.9852 48.3681 48.8681C57.4852 39.7508 69.6067 34.73 82.4999 34.73C95.3931 34.73 107.515 39.7508 116.632 48.8681C125.749 57.9852 130.77 70.1067 130.77 82.9999C130.77 109.616 109.116 131.27 82.4999 131.27C69.6067 131.27 57.4852 126.249 48.3681 117.132C39.251 108.015 34.23 95.8931 34.23 82.9999Z" fill="white"/>
<path d="M82.4998 36.7192C56.9401 36.7192 36.2192 57.4401 36.2192 82.9998C36.2192 108.56 56.9401 129.281 82.4998 129.281C108.06 129.281 128.78 108.56 128.78 82.9998C128.78 57.4401 108.06 36.7192 82.4998 36.7192Z" fill="black"/>
<path d="M82.5 112.563C66.1733 112.563 52.9375 99.3269 52.9375 83C52.9375 66.6733 66.1733 53.4375 82.5 53.4375C98.8267 53.4375 112.063 66.6733 112.063 83C112.063 99.3269 98.8269 112.563 82.5 112.563Z" fill="white"/>
<path d="M54.8394 83H82.5V55.3394C67.2236 55.3394 54.8394 67.7238 54.8394 83ZM82.5 83V110.661C97.7763 110.661 110.161 98.2765 110.161 83H82.5Z" fill="black"/>
<path d="M60.7749 54.7938C59.795 53.8414 58.2803 53.5543 56.8582 54.436C57.1298 53.7321 57.0189 53.0137 56.8747 52.6173C56.262 51.5002 56.0482 51.3604 55.5433 50.9367C53.9088 49.5652 52.1886 50.7361 50.9584 52.2023L45.0142 59.2861L54.3583 67.127L60.6269 59.6566C62.0592 57.9497 62.2807 56.2574 60.7749 54.7938ZM84.0482 51.4278L87.2572 42.9221V51.4278H89.6961V39.2461H86.0318L82.6988 47.968H82.7333L79.4003 39.2461H75.7361V51.4278H78.1748V42.9221L81.384 51.4278H84.0482ZM116.838 56.4957L112.247 62.9966L119.365 59.6171L121.25 61.9447L110.046 67.3759L107.834 64.6223L112.241 58.1784L112.215 58.1461L104.995 61.117L102.761 58.3808L110.404 48.5506L112.289 50.8781L107.503 57.1385L114.816 53.9987L116.838 56.4957Z" fill="white"/>
<path d="M52.2573 53.9557C52.6709 53.4626 53.6057 53.4829 54.2069 53.9872C54.8679 54.5418 54.8695 55.3282 54.4256 55.857L50.8956 60.0638L48.687 58.2104L52.2573 53.9557ZM58.5379 58.9184L54.8162 63.3536L52.4824 61.3954L56.2342 56.924C56.6579 56.4191 57.6025 56.272 58.2396 56.8068C58.9608 57.4116 59.0322 58.3294 58.5379 58.9184Z" fill="black"/>
</g>
<defs>
<clipPath id="clip0_2055_3566">
<rect width="100" height="100" fill="white" transform="translate(32.5 33)"/>
</clipPath>
</defs>
</svg>
