<svg width="304" height="167" viewBox="0 0 304 167" fill="none" xmlns="http://www.w3.org/2000/svg">
<g clip-path="url(#clip0_2003_2548)">
<path d="M89.7803 130.327V107.649H104.885V115.133H141.316V91.1045H126.902V96.9967H111.785V67.2375H126.862V73.1193H141.316V51.8428H104.935V59.3372H89.8028V36.6832C89.9929 36.6742 90.1966 36.6562 90.4017 36.6562C122.232 36.6562 154.062 36.6397 185.892 36.6622C199.885 36.6727 211.626 47.4345 212.848 61.3363C213.512 68.8727 211.381 75.566 206.568 81.4043C206.469 81.5241 206.378 81.6469 206.273 81.7802C206.821 82.4091 207.387 83.0021 207.887 83.6459C214.533 92.1976 216.273 101.681 212.459 111.801C208.645 121.924 201.074 127.912 190.438 129.924C188.802 130.234 187.1 130.311 185.429 130.312C153.774 130.335 122.121 130.329 90.4661 130.329C90.2565 130.329 90.0468 130.329 89.7788 130.329L89.7803 130.327ZM161.35 115.136C161.547 115.151 161.7 115.174 161.853 115.174C169.831 115.174 177.811 115.18 185.789 115.171C188.174 115.168 190.446 114.673 192.482 113.378C195.85 111.234 197.498 108.056 197.775 104.154C198.06 100.15 196.949 96.6104 193.867 93.8836C191.515 91.8023 188.673 91.064 185.585 91.067C177.724 91.0775 169.861 91.07 162 91.0715C161.792 91.0715 161.585 91.0895 161.35 91.1V115.135V115.136ZM161.36 51.8308V73.1283C161.57 73.1402 161.741 73.1597 161.911 73.1597C169.87 73.1597 177.83 73.1822 185.789 73.1372C186.963 73.1312 188.179 72.9635 189.302 72.6251C197.462 70.1694 198.337 59.6637 193.5 54.8271C191.293 52.6199 188.569 51.7964 185.522 51.7994C177.68 51.8054 169.837 51.8009 161.995 51.8024C161.787 51.8024 161.577 51.8203 161.36 51.8308Z" fill="white"/>
</g>
<defs>
<clipPath id="clip0_2003_2548">
<rect width="150" height="150" fill="white" transform="translate(77 8.43018)"/>
</clipPath>
</defs>
</svg>
