<svg width="175" height="166" viewBox="0 0 175 166" fill="none" xmlns="http://www.w3.org/2000/svg">
<g clip-path="url(#clip0_2055_3728)">
<path d="M41.8722 117.391V100.761H52.9486V106.249H79.6651V88.6278H69.0949V92.9488H58.0086V71.1254H69.0653V75.4387H79.6651V59.8359H52.986V65.3319H41.8887V48.7189C42.0281 48.7123 42.1775 48.6991 42.3279 48.6991C65.67 48.6991 89.0121 48.687 112.354 48.7035C122.616 48.7112 131.226 56.6031 132.122 66.7978C132.608 72.3245 131.046 77.2329 127.517 81.5144C127.444 81.6022 127.377 81.6923 127.3 81.79C127.702 82.2512 128.117 82.6861 128.484 83.1582C133.357 89.4294 134.633 96.3836 131.836 103.806C129.04 111.229 123.488 115.62 115.688 117.096C114.488 117.323 113.24 117.379 112.015 117.38C88.8012 117.397 65.5887 117.392 42.3751 117.392C42.2214 117.392 42.0677 117.392 41.8711 117.392L41.8722 117.391ZM94.3565 106.251C94.5014 106.262 94.6134 106.279 94.7254 106.279C100.576 106.279 106.428 106.283 112.278 106.276C114.028 106.274 115.693 105.912 117.187 104.962C119.656 103.389 120.865 101.059 121.069 98.1977C121.277 95.2614 120.462 92.6655 118.203 90.6659C116.477 89.1395 114.393 88.5982 112.129 88.6004C106.364 88.6081 100.598 88.6026 94.833 88.6037C94.6804 88.6037 94.5289 88.6168 94.3565 88.6245V106.25V106.251ZM94.3642 59.8271V75.4453C94.5179 75.454 94.6431 75.4683 94.7682 75.4683C100.605 75.4683 106.442 75.4848 112.278 75.4518C113.139 75.4475 114.031 75.3245 114.854 75.0763C120.839 73.2754 121.48 65.5712 117.934 62.0244C116.315 60.4058 114.318 59.8019 112.083 59.8041C106.332 59.8085 100.58 59.8052 94.8297 59.8063C94.6771 59.8063 94.5234 59.8194 94.3642 59.8271Z" fill="white"/>
</g>
<defs>
<clipPath id="clip0_2055_3728">
<rect width="110" height="110" fill="white" transform="translate(32.5 28)"/>
</clipPath>
</defs>
</svg>
