<svg width="190" height="166" viewBox="0 0 190 166" fill="none" xmlns="http://www.w3.org/2000/svg">
<path d="M94.5618 59.4122C115.179 59.4122 135.814 59.4122 156.431 59.4122C156.639 59.4122 156.961 59.2986 157.056 59.4879C157.188 59.7151 156.904 59.9044 156.772 60.0748C154.197 63.7287 151.603 67.3825 149.01 71.0363C148.858 71.2635 148.764 71.5096 148.707 71.7747C147.533 78.0789 146.359 84.3643 145.166 90.6686C145.034 91.3501 144.864 92.0127 144.674 92.6943C144.144 94.7389 142.838 96.0831 140.945 96.935C138.862 97.8816 136.628 98.336 134.432 98.8282C128.563 100.153 122.676 101.365 116.769 102.558C111.354 103.637 105.921 104.697 100.487 105.644C98.7079 105.965 96.9094 106.249 95.1298 106.571C94.3157 106.723 93.5584 106.496 92.8012 106.363C81.764 104.508 70.7835 102.312 59.822 99.9641C56.9255 99.3393 54.0289 98.7524 51.1702 97.9952C50.2615 97.7491 49.3717 97.4462 48.4819 97.0865C46.1344 96.1399 44.7145 94.4549 44.1844 91.9749C43.2946 87.6774 42.5184 83.3609 41.7232 79.0445C41.2689 76.6023 40.8145 74.1601 40.3602 71.7179C40.3223 71.4718 40.2087 71.2446 40.0573 71.0363C37.4447 67.3636 34.851 63.6908 32.2384 59.9991C32.2195 59.9612 32.1816 59.9234 32.1627 59.8855C32.087 59.7719 31.9355 59.6583 32.0302 59.5069C32.1059 59.3933 32.2574 59.4311 32.371 59.4311C32.5035 59.4311 32.6171 59.4311 32.7496 59.4311C53.3474 59.4311 73.9641 59.4311 94.5618 59.4311V59.4122ZM94.5618 61.7408C76.198 61.7408 57.8153 61.7408 39.4514 61.7408C39.2432 61.7408 38.9403 61.6272 38.8456 61.8355C38.751 62.0248 39.016 62.2141 39.1296 62.3845C41.0796 65.1675 43.0106 67.9315 44.9606 70.7145C45.1499 70.9985 45.2824 71.2824 45.3392 71.6232C45.9072 75.0877 46.4751 78.5522 47.0809 81.9978C47.6489 85.3298 48.1411 88.6807 48.8795 91.9938C49.1824 93.3758 49.7503 94.5875 51.0755 95.3069C51.8518 95.7234 52.6658 96.0073 53.5177 96.1967C59.273 97.5219 65.0472 98.7335 70.8403 99.8884C77.9776 101.327 85.1338 102.728 92.3279 103.94C93.1987 104.091 94.0507 104.356 94.9405 104.224C96.2468 104.034 97.5531 103.807 98.8594 103.58C105.031 102.52 111.184 101.327 117.337 100.078C123.527 98.8282 129.718 97.5408 135.871 96.1209C138.351 95.553 139.885 94.152 140.339 91.5584C140.812 88.8701 141.304 86.2007 141.759 83.5124C142.365 79.9343 142.951 76.3372 143.576 72.7591C143.69 72.0776 143.671 71.3582 144.125 70.7334C146.094 67.9504 148.044 65.1675 149.994 62.3656C150.108 62.1952 150.373 62.0059 150.278 61.8165C150.164 61.6272 149.88 61.7408 149.653 61.7408C131.308 61.7408 112.945 61.7408 94.5997 61.7408H94.5618Z" fill="white"/>
<path d="M127.843 73.5161C132.273 73.5161 136.703 73.5161 141.133 73.5161C141.815 73.5161 141.834 73.5351 141.72 74.2166C141.361 76.2991 141.001 78.3816 140.679 80.4641C140.622 80.8048 140.471 80.9374 140.149 80.9184C140.016 80.9184 139.903 80.9184 139.77 80.9184C131.44 80.9184 123.129 80.9184 114.799 80.9184C113.739 80.9184 113.928 80.8995 113.909 80.0097C113.909 78.0787 113.909 76.1287 113.909 74.1977C113.909 73.535 113.909 73.535 114.591 73.535C119.002 73.535 123.413 73.535 127.843 73.535V73.5161Z" fill="white"/>
<path d="M62.0364 81.9414C66.2393 81.9414 70.4611 81.9414 74.6639 81.9414C75.3454 81.9414 75.3454 81.9414 75.3454 82.6229C75.3454 84.6108 75.3454 86.5986 75.3454 88.5864C75.3454 89.2869 75.3454 89.2869 74.6828 89.2869C66.6368 89.2869 58.5719 89.2869 50.5259 89.2869C50.0715 89.2869 49.9011 89.1544 49.8254 88.7001C49.4846 86.6176 49.1249 84.5351 48.7463 82.4715C48.6706 82.0361 48.822 81.9414 49.2385 81.9414C53.5171 81.9414 57.7768 81.9414 62.0553 81.9414H62.0364Z" fill="white"/>
<path d="M85.2284 90.3467C87.9167 90.3467 90.624 90.3467 93.3123 90.3467C93.7856 90.3467 93.937 90.4792 93.937 90.9525C93.937 94.6253 93.937 98.298 93.937 101.971C93.937 102.596 93.937 102.614 93.2934 102.501C90.3589 101.99 87.4245 101.479 84.509 100.948C82.0668 100.494 79.6246 100.021 77.1824 99.5665C76.4819 99.4339 76.4819 99.4339 76.4819 98.7335C76.4819 96.1587 76.4819 93.5651 76.4819 90.9904C76.4819 90.3656 76.4819 90.3656 77.1256 90.3656C79.8329 90.3656 82.5401 90.3656 85.2663 90.3656L85.2284 90.3467Z" fill="white"/>
<path d="M70.3671 71.1499C77.9776 71.1499 85.5882 71.1499 93.2177 71.1499C93.6847 71.1499 93.9182 71.3834 93.9182 71.8504C93.9182 72.6834 93.9182 73.5164 93.9182 74.3494C93.9182 74.6901 93.8235 74.8227 93.4638 74.8227C92.8959 74.8037 92.3279 74.8227 91.76 74.8227C77.2961 74.8227 62.8133 74.8227 48.3494 74.8227C48.179 74.8227 48.0086 74.8227 47.8382 74.8227C47.5921 74.8227 47.4596 74.728 47.4217 74.4819C47.2703 73.5542 47.1188 72.6266 46.9484 71.6989C46.8727 71.2635 47.0242 71.1688 47.4407 71.1688C53.0066 71.1688 58.5726 71.1688 64.1385 71.1688C66.221 71.1688 68.3035 71.1688 70.386 71.1688L70.3671 71.1499Z" fill="white"/>
<path d="M117.356 87.9799C124.436 87.9799 131.517 87.9799 138.597 87.9799C138.768 87.9799 138.938 87.9799 139.108 87.9799C139.317 87.9799 139.392 88.0745 139.354 88.2828C139.146 89.324 138.957 90.3464 138.749 91.3876C138.711 91.5958 138.578 91.6716 138.389 91.6905C138.218 91.6905 138.048 91.6905 137.878 91.6905C123.944 91.6905 110.01 91.6905 96.0574 91.6905C95.9438 91.6905 95.8302 91.6905 95.7356 91.6905C95.3191 91.7284 95.1866 91.558 95.1866 91.1415C95.2055 90.2706 95.2244 89.3998 95.1866 88.5478C95.1676 88.0177 95.4137 87.9609 95.8492 87.9609C102.93 87.9609 110.01 87.9609 117.091 87.9609C117.185 87.9609 117.28 87.9609 117.375 87.9609L117.356 87.9799Z" fill="white"/>
<path d="M103.99 65.1106C106.716 65.1106 109.442 65.1106 112.169 65.1106C112.793 65.1106 112.812 65.1295 112.812 65.7354C112.812 67.78 112.812 69.8246 112.812 71.8693C112.812 72.4561 112.774 72.494 112.206 72.494C106.735 72.494 101.264 72.494 95.8116 72.494C95.3572 72.494 95.1679 72.3615 95.1868 71.8693C95.2058 69.8057 95.2058 67.7421 95.1868 65.6786C95.1868 65.2242 95.3194 65.0728 95.7737 65.0728C98.5188 65.0728 101.264 65.0728 103.99 65.0728V65.1106Z" fill="white"/>
<path d="M95.1865 97.5597C95.1865 96.1019 95.1865 94.6631 95.1865 93.2054C95.1865 92.751 95.338 92.5995 95.7734 92.5995C97.9127 92.5995 100.071 92.5995 102.21 92.5995C113.967 92.5995 125.742 92.5995 137.499 92.5995C137.745 92.5995 138.124 92.467 138.237 92.7321C138.351 93.035 138.048 93.2811 137.84 93.4704C137.158 94.133 136.268 94.3791 135.379 94.5874C127.617 96.4427 119.798 97.9762 111.979 99.5096C107.398 100.399 102.816 101.213 98.2345 102.046C97.4015 102.198 96.5496 102.312 95.7166 102.463C95.319 102.539 95.1865 102.425 95.1865 102.009C95.2055 100.513 95.1865 99.0174 95.1865 97.5218V97.5597ZM126.973 94.0194C126.765 94.0194 126.67 93.9815 126.556 93.9815C116.731 93.9815 106.886 93.9815 97.0608 93.9815C96.6632 93.9815 96.5496 94.1141 96.5496 94.5117C96.5496 96.5184 96.5496 98.5063 96.5496 100.513C96.5496 100.93 96.6821 101.005 97.0608 100.948C99.2379 100.551 101.434 100.191 103.611 99.7747C108.893 98.7713 114.194 97.8058 119.457 96.6888C121.464 96.2723 123.471 95.8747 125.383 95.0985C125.951 94.8713 126.5 94.6063 126.973 94.0384V94.0194Z" fill="white"/>
<path d="M68.512 65.1111C76.7095 65.1111 84.9069 65.1111 93.1044 65.1111C93.6471 65.1111 93.9185 65.3888 93.9185 65.9441C93.9185 67.1369 93.9185 68.3485 93.9185 69.5412C93.9185 69.9577 93.7859 70.0902 93.3694 70.0902C92.5554 70.0902 92.5554 70.0902 92.5554 69.2572C92.5554 68.481 92.5554 67.7048 92.5554 66.9475C92.5554 66.6257 92.4607 66.4742 92.1199 66.4932C91.9874 66.4932 91.8738 66.4932 91.7413 66.4932C79.909 66.4932 68.0577 66.4932 56.2253 66.4932C56.1306 66.4932 56.036 66.4932 55.9413 66.4932C55.5627 66.4742 55.487 66.5689 55.6952 66.9097C56.2442 67.8184 56.7554 68.746 57.2855 69.6548C57.4748 69.9577 57.4369 70.0902 57.0394 70.0902C53.6316 70.0902 50.2239 70.0902 46.8162 70.0902C46.5322 70.0902 46.3618 69.9766 46.1915 69.7494C45.2449 68.3864 44.2983 67.0422 43.3517 65.6791C43.257 65.5466 43.0677 65.3951 43.1434 65.2247C43.2381 65.0354 43.4842 65.1111 43.6735 65.1111C51.9467 65.1111 60.2199 65.1111 68.512 65.1111Z" fill="white"/>
<path d="M117.848 81.9408C125.118 81.9408 132.388 81.9408 139.658 81.9408C140.453 81.9408 140.434 81.9408 140.32 82.6981C140.112 83.9286 139.904 85.1403 139.715 86.3708C139.658 86.8063 139.487 86.9767 139.014 86.9767C135.89 86.9577 132.767 86.9767 129.643 86.9767C129.075 86.9767 129.037 86.9388 129.132 86.3898C129.264 85.481 129.378 84.5723 129.51 83.6825C129.548 83.3986 129.454 83.3039 129.189 83.3039C129.075 83.3039 128.961 83.3039 128.867 83.3039C118.341 83.3039 107.815 83.3039 97.2696 83.3039C96.8026 83.3039 96.5691 83.5374 96.5691 84.0044C96.5691 84.7995 96.5691 85.6136 96.5691 86.4087C96.5691 86.8063 96.4177 86.9767 96.0201 86.9767C95.2061 86.9767 95.2061 86.9767 95.2061 86.1815C95.2061 84.9888 95.2061 83.7961 95.2061 82.5845C95.2061 81.9408 95.2061 81.9219 95.8687 81.9219C103.195 81.9219 110.522 81.9219 117.867 81.9219L117.848 81.9408Z" fill="white"/>
<path d="M70.8022 75.8833C78.2614 75.8833 85.7205 75.8833 93.1796 75.8833C93.6718 75.8833 93.9179 76.1357 93.9179 76.6405C93.9179 77.909 93.9179 79.1585 93.9179 80.4269C93.9179 80.7677 93.8043 80.9002 93.4636 80.8812C92.5548 80.8623 92.5548 80.8812 92.5548 79.9915C92.5548 79.1963 92.5548 78.4201 92.5548 77.625C92.5548 77.2842 92.4412 77.1138 92.0815 77.1517C91.949 77.1517 91.8354 77.1517 91.7029 77.1517C81.0822 77.1517 70.4425 77.1517 59.8218 77.1517C59.7082 77.1517 59.5946 77.1517 59.5 77.1517C59.1024 77.1138 58.9509 77.2842 59.0077 77.6818C59.1024 78.5148 59.1971 79.3478 59.2728 80.1618C59.3485 80.8434 59.3106 80.8812 58.648 80.8812C55.4486 80.8812 52.2491 80.8812 49.0496 80.8812C48.6521 80.8812 48.4627 80.7866 48.387 80.3512C48.1788 79.007 47.9516 77.6818 47.7055 76.3566C47.6487 76.0347 47.7244 75.8643 48.0841 75.8833C48.2356 75.8833 48.4059 75.8833 48.5574 75.8833C55.9597 75.8833 63.381 75.8833 70.7833 75.8833H70.8022Z" fill="white"/>
<path d="M128.298 70.0707C123.735 70.0707 119.154 70.0707 114.591 70.0707C113.929 70.0707 113.929 70.0707 113.929 69.427C113.929 68.9158 113.929 68.3857 113.929 67.8746C113.929 67.5717 114.023 67.4392 114.345 67.4392C114.894 67.4392 115.443 67.4013 115.992 67.4013C125.08 67.4013 134.186 67.4013 143.273 67.4013C143.614 67.4013 144.087 67.2688 144.257 67.5338C144.409 67.7799 143.992 68.0828 143.822 68.3668C143.614 68.7076 143.33 68.9916 143.159 69.3513C142.856 69.9571 142.402 70.1085 141.739 70.0896C137.272 70.0517 132.785 70.0896 128.317 70.0896L128.298 70.0707Z" fill="white"/>
<path d="M63.0406 92.6375C66.9216 92.6375 70.8026 92.6375 74.6836 92.6375C75.3652 92.6375 75.3652 92.6375 75.3652 93.338C75.3652 93.7734 75.3652 94.2278 75.3652 94.6632C75.3652 95.3069 75.3652 95.3258 74.7026 95.3258C71.9385 95.3258 69.1934 95.3258 66.4294 95.3258C63.3624 95.3258 60.2765 95.4205 57.2096 95.288C55.3921 95.2122 53.5936 94.7579 51.9276 93.9627C51.5111 93.7734 51.1703 93.4516 50.9242 93.054C50.7349 92.7511 50.8296 92.6186 51.1703 92.6375C51.549 92.6375 51.9276 92.6375 52.3063 92.6375C55.8844 92.6375 59.4625 92.6375 63.0406 92.6375Z" fill="white"/>
<path d="M104.009 78.571C101.283 78.571 98.5564 78.571 95.8302 78.571C95.1865 78.571 95.1865 78.571 95.1865 77.9084C95.1865 77.3972 95.1865 76.905 95.1865 76.3939C95.1865 76.0152 95.3001 75.8638 95.6977 75.8638C96.5307 75.8827 97.3637 75.8638 98.1967 75.8638C102.835 75.8638 107.492 75.8638 112.13 75.8638C112.585 75.8638 112.812 76.091 112.812 76.5453C112.812 76.9997 112.812 77.454 112.812 77.9084C112.812 78.5332 112.812 78.5521 112.187 78.5521C109.461 78.5521 106.735 78.5521 104.009 78.5521V78.571Z" fill="white"/>
<path d="M85.153 86.9766C82.4646 86.9766 79.7953 86.9766 77.1069 86.9766C76.4443 86.9766 76.4443 86.9766 76.4443 86.3329C76.4443 85.8218 76.4443 85.2917 76.4443 84.7805C76.4443 84.4398 76.5579 84.2883 76.9176 84.3072C77.5424 84.3072 78.1861 84.3072 78.8108 84.3072C83.6573 84.3072 88.5228 84.3072 93.3693 84.3072C93.8237 84.3072 93.9373 84.4587 93.9184 84.8752C93.8994 85.3863 93.8805 85.9164 93.9184 86.4276C93.9373 86.882 93.748 86.9955 93.3315 86.9955C91.9684 86.9955 90.6242 86.9955 89.2612 86.9955C87.8981 86.9955 86.516 86.9955 85.153 86.9955V86.9766Z" fill="white"/>
</svg>
