<svg width="164" height="166" viewBox="0 0 164 166" fill="none" xmlns="http://www.w3.org/2000/svg">
<path d="M88.5217 121.006C87.4723 121.456 87.4723 120.706 88.072 120.406C91.3703 118.907 94.069 116.208 95.7181 113.06C93.0195 114.709 91.0705 114.409 88.9715 115.759C86.8726 117.108 85.973 119.807 83.5742 121.456C86.2729 124.155 88.3718 124.904 89.8711 124.904C91.0705 125.054 92.2699 124.904 93.4693 124.604C96.4678 124.005 99.0165 122.505 101.415 122.056C96.1679 120.256 91.3703 119.957 88.5217 121.006Z" fill="white"/>
<path d="M76.9775 125.504C73.6791 126.403 69.0315 128.203 64.3838 128.203C64.6836 128.652 65.1334 129.102 65.5832 129.552C65.883 129.702 66.033 129.702 66.3328 129.702C71.4303 128.652 75.3283 126.553 79.6761 125.354C78.7766 125.354 77.7271 125.354 76.9775 125.504Z" fill="white"/>
<path d="M103.514 117.708C100.816 117.858 98.267 118.607 95.8682 119.507C98.8667 119.207 102.765 122.655 107.262 119.657C107.862 119.207 109.961 118.307 111.011 117.708C109.211 117.708 106.663 117.258 103.514 117.708Z" fill="white"/>
<path d="M93.6191 118.757C98.4167 117.558 102.465 114.11 104.414 109.462C102.015 111.111 100.666 110.661 97.817 113.36C96.7676 114.409 95.5682 117.408 93.6191 118.757Z" fill="white"/>
<path d="M72.6295 36.1486C67.2322 35.5489 64.5335 37.4979 62.4346 39.8967C63.634 39.8967 64.8334 39.8967 65.8828 39.7468C68.4316 39.1471 70.8304 37.7978 72.6295 36.1486Z" fill="white"/>
<path d="M60.6357 43.9445C62.7346 43.6446 64.6837 42.7451 66.3328 41.3957C63.1844 40.6461 60.036 41.6956 57.7871 43.9445C58.6867 44.0944 59.5862 44.0944 60.6357 43.9445Z" fill="white"/>
<path d="M49.5414 47.9927C51.6403 46.1936 53.1396 43.9447 54.0391 41.396C50.291 42.8952 47.7423 46.1936 47.1426 50.2416C47.2925 49.9417 48.6418 48.7423 49.5414 47.9927Z" fill="white"/>
<path d="M51.0405 48.1425C51.9401 48.1425 52.8396 48.1425 53.8891 47.9926C55.8381 47.5428 57.6372 46.6433 59.1365 45.144C56.138 44.5443 52.9896 45.7437 51.0405 48.1425Z" fill="white"/>
<path d="M54.1888 49.4917C49.5411 49.6416 47.742 51.1409 45.793 54.2893C46.6925 53.9894 47.5921 53.6896 48.4916 53.3898C50.5906 52.6401 52.5396 51.2908 54.1888 49.4917Z" fill="white"/>
<path d="M62.2848 37.0479C57.6372 38.5471 55.988 40.1963 54.7886 43.7945C58.9865 42.4452 60.6357 40.3462 62.2848 37.0479Z" fill="white"/>
<path d="M44.5937 62.835C40.8456 64.784 38.5967 68.832 39.1964 73.0299C39.6462 72.4302 39.946 71.6805 40.3958 71.0808C42.3448 68.682 43.6942 65.8335 44.5937 62.835Z" fill="white"/>
<path d="M33.3491 85.6235C33.649 86.673 33.7989 87.5726 33.9488 88.622C34.5485 92.9699 39.0463 94.769 40.8454 96.2682C39.3461 92.0703 36.7974 88.3222 33.3491 85.6235Z" fill="white"/>
<path d="M52.3897 108.712C51.79 107.513 51.3402 105.114 50.2907 103.015C49.2413 101.366 48.1918 99.7165 46.9924 98.2173C46.0928 103.465 49.841 106.613 52.3897 108.712Z" fill="white"/>
<path d="M60.7855 114.409C59.4361 113.06 58.3866 109.762 57.1872 108.562C54.9384 106.163 54.3387 106.313 52.3896 104.064C52.9893 108.712 56.2877 112.76 60.7855 114.409Z" fill="white"/>
<path d="M36.1978 95.3687C36.3477 95.8184 37.0973 97.1678 37.697 98.3672C39.1963 101.666 42.4946 103.465 45.9429 104.514C43.9939 100.766 40.2457 97.7675 36.1978 95.3687Z" fill="white"/>
<path d="M46.2427 111.71C46.6925 112.01 47.7419 112.91 48.7914 113.809C52.0898 116.658 56.2877 115.309 60.0358 116.058C54.7884 112.46 49.541 112.31 46.2427 111.71Z" fill="white"/>
<path d="M41.2954 104.514C41.5953 104.814 42.4948 106.163 43.2444 107.063C46.2429 110.961 50.7407 110.511 53.2894 111.411C49.9911 107.962 45.7932 105.564 41.2954 104.514Z" fill="white"/>
<path d="M45.3432 98.0673C45.6431 93.4196 43.0944 91.6205 42.7945 89.2217C41.745 93.1197 42.1948 96.568 45.793 101.216C45.4932 100.166 45.3432 99.1167 45.3432 98.0673Z" fill="white"/>
<path d="M40.6958 91.9207C40.8457 90.7213 40.9957 89.6718 41.1456 88.6224C41.8952 85.324 41.4454 83.375 41.1456 80.2266C38.297 84.5744 38.5969 87.8727 40.6958 91.9207Z" fill="white"/>
<path d="M35.2981 85.3239C36.0478 85.9236 36.7974 87.123 37.3971 87.8726C37.547 83.2249 36.0478 78.5772 33.3491 74.8291C33.9488 78.1275 32.2996 82.3254 35.2981 85.3239Z" fill="white"/>
<path d="M38.4467 81.4259C38.7465 80.8262 39.1963 80.0766 39.6461 79.4769C42.3447 76.3285 41.895 73.6298 42.7945 70.9312C40.0959 73.6298 37.9969 75.8787 38.4467 81.4259Z" fill="white"/>
<path d="M37.9972 67.9325C39.9462 63.7346 40.8458 60.2863 39.9462 55.9385C39.1966 57.8875 37.0977 60.1364 37.0977 63.1349C37.2476 64.4842 38.1471 67.7826 37.9972 67.9325Z" fill="white"/>
<path d="M36.7975 77.8276C37.3972 73.03 38.2967 70.6312 36.0479 65.2339C35.4482 67.6327 33.1993 71.5307 35.2982 75.2789C35.748 76.0285 36.3477 76.928 36.7975 77.8276Z" fill="white"/>
<path d="M49.0915 54.7393C45.1935 55.7887 42.3449 58.9372 41.2954 62.6853C41.4453 62.5354 43.0945 61.336 43.9941 60.8862C46.093 59.237 47.8921 57.1381 49.0915 54.7393Z" fill="white"/>
<path d="M41.5952 58.3375C43.994 55.339 45.4933 51.5909 45.7931 47.6929C45.0435 48.5924 44.2939 49.492 43.5442 50.3915C42.3448 51.8908 41.5952 53.6899 41.4453 55.6389C41.2954 56.5384 41.5952 57.2881 41.5952 58.3375Z" fill="white"/>
<path d="M101.565 39.8967C99.4661 37.4979 96.6175 35.5489 91.3701 36.1486C93.3191 37.9477 95.568 39.1471 97.9668 39.7468C99.1662 39.8967 100.366 39.8967 101.565 39.8967Z" fill="white"/>
<path d="M97.8169 41.246C99.3161 42.7452 101.265 43.6448 103.364 43.9446C104.264 44.0945 105.313 44.0945 106.213 43.9446C104.114 41.6957 100.965 40.6463 97.8169 41.246Z" fill="white"/>
<path d="M114.459 47.9927C115.208 48.7423 116.708 49.9417 116.857 50.0917C116.258 46.1936 113.709 42.7453 109.961 41.2461C111.01 43.9447 112.51 46.1936 114.459 47.9927Z" fill="white"/>
<path d="M112.96 48.1422C111.011 45.7434 108.012 44.6939 105.014 45.1437C106.363 46.643 108.312 47.5425 110.261 47.9923C111.161 48.1422 112.06 48.1422 112.96 48.1422Z" fill="white"/>
<path d="M109.811 49.4917C111.46 51.2908 113.409 52.6401 115.508 53.5397C116.408 53.8395 117.307 54.1394 118.207 54.4392C116.408 51.1409 114.459 49.6416 109.811 49.4917Z" fill="white"/>
<path d="M109.361 43.7945C108.012 40.1963 106.363 38.5471 101.865 37.0479C103.514 40.3462 105.164 42.4452 109.361 43.7945Z" fill="white"/>
<path d="M123.754 71.2307C124.204 71.8304 124.654 72.4301 124.953 73.1798C125.403 68.9819 123.304 64.784 119.556 62.9849C120.306 65.8334 121.805 68.682 123.754 71.2307Z" fill="white"/>
<path d="M123.154 96.1183C124.953 94.6191 129.451 92.82 130.051 88.4721C130.201 87.4227 130.351 86.5231 130.651 85.4736C127.202 88.3222 124.654 92.0703 123.154 96.1183Z" fill="white"/>
<path d="M117.008 98.2173C115.808 99.7165 114.759 101.366 113.709 103.015C112.66 104.964 112.21 107.363 111.61 108.712C114.159 106.613 117.907 103.465 117.008 98.2173Z" fill="white"/>
<path d="M111.61 104.064C109.661 106.313 109.211 106.013 106.813 108.562C105.613 109.912 104.414 113.21 103.214 114.409C107.862 112.91 111.01 108.862 111.61 104.064Z" fill="white"/>
<path d="M118.207 104.364C121.505 103.165 124.954 101.366 126.453 98.2173C127.053 97.0179 127.652 95.6685 127.952 95.2188C123.904 97.7675 120.156 100.766 118.207 104.364Z" fill="white"/>
<path d="M115.358 113.809C116.408 112.91 117.457 112.01 117.907 111.71C114.609 112.46 109.361 112.46 104.114 116.208C107.862 115.309 112.06 116.658 115.358 113.809Z" fill="white"/>
<path d="M110.71 111.411C113.259 110.361 117.907 110.811 120.755 107.063C121.505 106.013 122.405 104.814 122.704 104.514C119.706 105.414 114.609 106.913 110.71 111.411Z" fill="white"/>
<path d="M121.355 89.2217C121.056 91.6205 118.507 93.4196 118.807 98.0673C118.807 99.1167 118.657 100.166 118.507 101.216C121.805 96.568 122.405 93.1197 121.355 89.2217Z" fill="white"/>
<path d="M122.855 88.6223C123.154 89.6718 123.304 90.8712 123.304 92.0706C125.403 88.0226 125.703 84.7243 122.705 80.3765C122.555 83.375 122.105 85.1741 122.855 88.6223Z" fill="white"/>
<path d="M126.603 87.8726C127.202 87.123 128.102 86.0735 128.702 85.3239C131.7 82.3254 130.051 78.1275 130.651 74.8291C127.952 78.5772 126.453 83.2249 126.603 87.8726Z" fill="white"/>
<path d="M121.206 70.9312C122.105 73.6298 121.655 76.3285 124.354 79.4769C124.804 80.0766 125.254 80.8262 125.553 81.4259C126.003 75.8787 124.054 73.6298 121.206 70.9312Z" fill="white"/>
<path d="M126.753 63.1349C126.753 60.1364 124.804 58.0374 123.904 55.9385C123.005 60.2863 123.904 63.7346 125.853 67.9325C125.853 67.7826 126.753 64.4842 126.753 63.1349Z" fill="white"/>
<path d="M127.203 77.8276C127.652 76.928 128.102 76.0285 128.702 75.2789C130.651 71.5307 128.402 67.6327 127.952 65.2339C125.853 70.6312 126.603 73.03 127.203 77.8276Z" fill="white"/>
<path d="M120.006 60.8862C120.906 61.4859 122.405 62.5354 122.555 62.6853C121.655 58.7872 118.657 55.7887 114.909 54.7393C116.108 57.1381 117.907 59.237 120.006 60.8862Z" fill="white"/>
<path d="M122.705 55.6389C122.705 53.6899 121.955 51.8908 120.756 50.3915C120.006 49.492 118.957 48.5924 118.357 47.6929C118.507 51.5909 120.006 55.339 122.555 58.3375C122.405 57.2881 122.705 56.5384 122.705 55.6389Z" fill="white"/>
<path d="M75.1782 116.208C72.4795 114.409 69.481 114.409 68.1317 113.51C69.9308 116.508 72.4795 119.057 75.628 120.706C76.2277 121.006 76.5275 121.906 75.478 121.456C72.4795 120.256 66.3326 120.706 62.5845 122.655C65.1332 123.255 68.2816 125.054 71.7299 125.354C74.7284 125.654 77.1272 124.304 80.7254 124.454C85.3731 124.754 86.1227 127.303 97.0672 130.002C97.517 130.151 97.9668 130.002 98.2666 129.702C98.5665 129.402 99.0163 128.952 99.3161 128.502C90.0208 127.903 85.0732 124.904 81.1752 121.606C79.0762 119.657 76.6774 117.258 75.1782 116.208Z" fill="white"/>
<path d="M67.9823 119.507C65.5834 118.457 62.8848 117.858 60.3361 117.708C57.1876 117.408 54.7888 117.858 52.9897 117.708C54.0392 118.307 56.1382 119.357 56.7379 119.657C61.0857 122.655 64.9837 119.057 67.9823 119.507Z" fill="white"/>
<path d="M70.2311 118.757C68.432 117.258 67.0827 114.409 66.0332 113.36C63.0347 110.661 61.8353 111.111 59.4365 109.462C61.3855 114.11 65.4335 117.558 70.2311 118.757Z" fill="white"/>
<path d="M66.6328 70.781L66.333 70.9309C66.1831 70.9309 66.0331 70.9309 65.7333 70.9309C65.2835 70.781 64.8337 70.781 64.5339 70.9309L63.9342 71.0809C63.6343 71.2308 63.6343 71.0809 63.6343 70.9309C63.6343 70.781 63.6343 70.781 63.7843 70.6311C63.9342 70.3312 63.9342 70.0314 63.6343 69.7315C63.3345 69.5816 63.0346 69.7315 62.8847 69.8815L62.285 70.3312C62.1351 70.4812 62.1351 70.6311 62.4349 70.6311C62.7348 70.6311 62.7348 70.9309 62.7348 71.2308C62.7348 71.5306 62.7348 71.6806 62.5849 71.9804C62.4349 72.2803 62.5849 72.73 63.0346 72.88H63.1846C63.7843 72.88 64.384 72.88 64.8337 72.88C65.5834 72.88 66.1831 72.4302 66.4829 71.6806C66.4829 71.5306 66.7828 71.2308 66.7828 71.0809C66.7828 70.9309 66.7828 70.6311 66.6328 70.781Z" fill="white"/>
<path d="M78.0269 70.781L77.727 70.9309C77.5771 70.9309 77.4272 70.9309 77.2772 70.9309C76.8275 70.781 76.3777 70.781 75.9279 70.9309L75.3282 71.0809C75.0283 71.2308 75.0283 71.0809 75.0283 70.9309L75.1783 70.6311C75.3282 70.3312 75.3282 70.0314 75.1783 69.7315C74.8784 69.5816 74.5786 69.7315 74.4286 69.8815L73.8289 70.3312C73.679 70.4812 73.679 70.6311 73.9789 70.6311C74.2787 70.6311 74.2787 70.9309 74.2787 71.2308C74.2787 71.5306 74.1288 71.6806 74.1288 71.9804C73.9789 72.2803 74.1288 72.73 74.5786 72.88C74.7285 72.88 74.7285 72.88 74.8784 72.88C75.4781 72.88 76.0778 72.88 76.5276 72.88C77.2772 72.88 77.8769 72.4302 78.1768 71.6806C78.1768 71.5306 78.4766 71.2308 78.4766 71.0809C78.4766 70.9309 78.1768 70.6311 78.0269 70.781Z" fill="white"/>
<path d="M82.075 55.3389C82.9745 55.3389 83.8741 54.5893 83.8741 53.5398C83.8741 52.4903 83.1245 51.7407 82.075 51.7407C81.0255 51.7407 80.2759 52.4903 80.2759 53.5398C80.2759 54.5893 81.0255 55.3389 82.075 55.3389Z" fill="white"/>
<path d="M74.7285 55.9387C75.628 55.7887 76.3777 54.8892 76.2277 53.9896C76.0778 53.0901 75.1783 52.3405 74.2787 52.4904C73.3792 52.6403 72.6295 53.5399 72.7795 54.4394C72.9294 55.4889 73.8289 56.0886 74.7285 55.9387Z" fill="white"/>
<path d="M66.6329 54.4392C65.7333 54.7391 65.1336 55.6386 65.4335 56.5382C65.7333 57.4377 66.6329 58.0374 67.5324 57.7376H67.6823C68.5819 57.4377 69.0317 56.3882 68.7318 55.4887C68.432 54.7391 67.5324 54.1394 66.6329 54.4392Z" fill="white"/>
<path d="M59.4362 57.4376C58.5367 57.8874 58.2368 58.9369 58.6866 59.6865C58.9865 60.586 59.886 61.0358 60.7856 60.736C61.6851 60.4361 62.1349 59.5366 61.835 58.637C61.835 58.4871 61.6851 58.1872 61.5352 58.0373C61.2353 57.4376 60.1859 56.9878 59.4362 57.4376Z" fill="white"/>
<path d="M89.2716 55.9387C90.1711 56.0886 91.0707 55.339 91.2206 54.4394C91.3705 53.5399 90.6209 52.6403 89.7213 52.4904C88.8218 52.3405 87.9222 53.0901 87.7723 53.9896C87.6224 54.8892 88.2221 55.7887 89.2716 55.9387Z" fill="white"/>
<path d="M96.3177 57.7375C97.2172 58.0374 98.2667 57.5876 98.5665 56.6881C98.8664 55.7885 98.4166 54.739 97.5171 54.4392C96.6175 54.1393 95.568 54.5891 95.2682 55.4887C94.8184 56.3882 95.4181 57.4377 96.3177 57.7375Z" fill="white"/>
<path d="M103.064 60.4364C103.964 60.8862 105.013 60.5863 105.463 59.6868C105.913 58.7872 105.613 57.7377 104.714 57.4379C103.814 56.9881 102.765 57.288 102.315 58.0376C101.865 58.9371 102.165 59.9866 102.915 60.4364C102.915 60.4364 102.915 60.4364 103.064 60.4364Z" fill="white"/>
<path d="M85.6732 87.2727C85.9731 87.2727 85.9731 87.5726 85.9731 87.8724C85.9731 88.1723 85.8232 88.3222 85.8232 88.622C85.6732 89.0718 85.8232 89.3717 86.2729 89.5216H86.4229C87.0226 89.5216 87.6223 89.5216 88.072 89.5216C88.8217 89.5216 89.4214 89.0718 89.7212 88.3222C89.8711 88.1723 89.8711 87.8724 90.0211 87.7225C90.171 87.4226 89.8711 87.2727 89.7212 87.4226C89.5713 87.4226 89.4214 87.4226 89.4214 87.4226C89.2714 87.4226 89.1215 87.4226 88.9716 87.4226C88.5218 87.2727 88.072 87.2727 87.6223 87.4226C87.4723 87.5726 87.3224 87.5726 87.0226 87.5726C86.7227 87.7225 86.7227 87.5726 86.7227 87.4226L86.8726 87.1228C87.0226 86.8229 87.0226 86.5231 86.8726 86.2232C86.5728 86.0733 86.2729 86.2232 86.123 86.3732L85.5233 86.8229C85.2235 86.9729 85.3734 87.2727 85.6732 87.2727Z" fill="white"/>
<path d="M96.3179 87.2727C96.6178 87.2727 96.6178 87.5725 96.6178 87.8724C96.6178 88.1722 96.6178 88.3222 96.4678 88.622C96.3179 89.0718 96.4678 89.3716 96.9176 89.5216H97.0675C97.6672 89.5216 98.2669 89.5216 98.7167 89.5216C99.4663 89.5216 100.066 89.0718 100.366 88.3222C100.516 88.1722 100.516 87.8724 100.666 87.7225C100.816 87.4226 100.516 87.2727 100.366 87.4226C100.216 87.4226 100.216 87.5725 100.066 87.5725C99.9161 87.5725 99.7662 87.5725 99.4663 87.5725C99.0166 87.4226 98.5668 87.4226 98.2669 87.5725C98.117 87.7225 97.9671 87.7225 97.6672 87.7225C97.3674 87.8724 97.3674 87.7225 97.3674 87.5725C97.3674 87.4226 97.3674 87.4226 97.5173 87.2727C97.6672 86.9728 97.6672 86.673 97.3674 86.3731C97.0675 86.2232 96.7677 86.3731 96.6178 86.5231L96.0181 86.9728C96.0181 86.9728 96.168 87.2727 96.3179 87.2727Z" fill="white"/>
<path d="M68.5816 81.1257C68.8814 81.1257 68.8814 81.4256 68.8814 81.7254C68.8814 82.0253 68.7315 82.1752 68.7315 82.475C68.5816 82.9248 68.7315 83.2247 69.1813 83.3746H69.3312C69.9309 83.3746 70.5306 83.3746 70.9804 83.3746C71.73 83.3746 72.3297 82.9248 72.6296 82.1752C72.6296 82.0253 72.9294 81.7254 72.9294 81.5755C73.0793 81.2756 72.7795 81.1257 72.6296 81.2756C72.4796 81.2756 72.4796 81.4256 72.3297 81.4256C72.1798 81.4256 72.0299 81.4256 71.73 81.4256C71.2802 81.2756 70.8305 81.2756 70.5306 81.4256L69.9309 81.5755C69.6311 81.5755 69.6311 81.5755 69.6311 81.4256C69.6311 81.2756 69.6311 81.2756 69.781 81.1257C69.9309 80.8259 69.9309 80.526 69.6311 80.2262C69.3312 80.0762 69.0314 80.2262 68.8814 80.3761C68.7315 80.526 68.4317 80.6759 68.2817 80.8259C68.2817 80.8259 68.4317 81.1257 68.5816 81.1257Z" fill="white"/>
<path d="M90.4706 97.6179C90.7704 97.6179 90.7704 97.9178 90.7704 98.2176C90.7704 98.5175 90.6205 98.6674 90.6205 98.9672C90.4706 99.417 90.6205 99.7168 91.0703 99.8668H91.2202C91.8199 99.8668 92.4196 99.8668 92.8694 99.8668C93.619 99.8668 94.2187 99.417 94.5185 98.6674C94.5185 98.5175 94.8184 98.2176 94.8184 98.0677C94.8184 97.9178 94.6685 97.6179 94.5185 97.7678C94.3686 97.7678 94.3686 97.9178 94.2187 97.9178C94.0688 97.9178 93.9188 97.9178 93.7689 97.9178C93.3191 97.7678 92.8694 97.7678 92.4196 97.9178C92.2697 98.0677 92.1197 98.0677 91.8199 98.0677C91.52 98.2176 91.52 98.0677 91.52 97.9178L91.67 97.6179C91.8199 97.318 91.8199 97.0182 91.67 96.7184C91.3701 96.5684 91.0703 96.7183 90.9203 96.8683L90.3206 97.3181C90.1707 97.468 90.1707 97.7678 90.4706 97.6179Z" fill="white"/>
<path d="M70.3809 53.0899C68.7317 51.2908 66.033 51.1409 64.2339 52.7901C63.4843 53.5397 63.0345 54.4393 62.8846 55.4887C62.135 54.889 61.2354 54.5892 60.186 54.5892C57.7872 54.5892 55.8381 56.5382 55.9881 58.937C55.9881 60.7361 57.1875 62.3853 58.9866 62.985V66.8831H51.0405L58.8366 75.1289V95.5187C58.8366 98.967 60.186 101.516 64.5338 101.966C68.8816 102.415 73.6792 103.015 75.9281 103.315C78.9266 103.615 80.4258 104.064 82.2249 106.613C83.8741 104.214 85.5233 103.615 88.5218 103.315C90.7707 103.015 95.7182 102.565 99.9161 101.966C104.114 101.366 105.613 98.967 105.613 95.5187V75.2789L113.259 67.033H105.313V63.1349C107.562 62.5352 108.912 60.1364 108.312 57.7376C107.712 55.4887 105.313 54.1394 102.915 54.7391C102.315 54.889 101.865 55.1889 101.415 55.4887C101.115 53.0899 99.0165 51.4408 96.6177 51.7406C95.5683 51.8905 94.6687 52.3403 93.9191 53.0899C93.3194 50.8411 90.9206 49.4917 88.5218 50.0914C87.4723 50.3913 86.7227 50.991 86.123 51.8905C85.0735 49.7916 82.5248 48.7421 80.4258 49.7916C79.5263 50.2414 78.7767 50.991 78.3269 51.8905C76.9776 49.9415 74.2789 49.4917 72.3299 50.8411C71.2804 51.2908 70.6807 52.1904 70.3809 53.0899ZM60.036 73.9295L55.0885 68.6821H81.6252V73.9295H60.036ZM70.6807 98.3673H61.0855C60.7857 97.6177 60.4858 96.8681 60.4858 96.1184H70.6807V98.3673ZM70.6807 92.6702H60.4858V85.1739H70.6807V92.6702ZM81.6252 103.615C80.2759 102.565 78.6267 101.966 76.9776 101.816L71.5803 101.216V93.5697H81.7752L81.6252 103.615ZM81.6252 90.1214H71.5803V88.0225H81.7752L81.6252 90.1214ZM81.6252 84.4243H60.4858V79.1769H81.6252V84.4243ZM81.6252 78.2774H60.4858V74.8291H81.6252V78.2774ZM82.3749 68.6821H92.5698V76.1784H82.3749V68.6821ZM92.5698 79.6267V81.8756H82.3749V79.7766L92.5698 79.6267ZM99.3164 100.316L87.0225 101.666C85.3734 101.816 83.7242 102.415 82.3749 103.465V95.6687H103.514C103.514 98.3673 102.615 100.016 99.3164 100.316ZM103.514 94.919H82.3749V91.3208H103.514V94.919ZM103.514 90.5712H82.3749V85.1739H103.514V90.5712ZM103.514 84.5742H93.4693V77.078H103.664V84.5742H103.514ZM106.513 71.3808L104.414 73.4798H93.4693V71.2309L106.513 71.3808ZM73.9791 51.1409C75.7782 50.8411 77.4273 52.0405 77.7272 53.8396C77.7272 54.1394 77.7272 54.4393 77.7272 54.889L78.9266 54.7391C78.7767 54.4393 78.7767 54.1394 78.7767 53.6896C78.6267 51.8905 79.9761 50.3913 81.7752 50.2414C83.5743 50.0914 85.0735 51.4408 85.2234 53.2399C85.2234 53.3898 85.2234 53.5397 85.2234 53.6896C85.2234 53.9895 85.2234 54.2893 85.0735 54.7391L86.2729 54.889C86.2729 54.5892 86.2729 54.2893 86.2729 53.8396C86.4228 52.0405 88.072 50.8411 89.8711 50.991C91.6702 51.1409 92.8696 52.7901 92.7197 54.5892C92.7197 55.039 92.5698 55.4887 92.2699 55.7886L93.6192 56.0884C93.6192 55.7886 93.6192 55.4887 93.7692 55.1889C94.3689 53.5397 96.168 52.6402 97.8171 53.2399C99.4663 53.8396 100.366 55.6387 99.7662 57.2878C99.6162 57.5877 99.4663 57.8876 99.3164 58.0375L100.516 58.4872C100.516 58.1874 100.666 57.8875 100.816 57.5877C101.565 55.9385 103.514 55.3388 105.163 56.2384C106.813 56.988 107.412 58.937 106.513 60.5862C106.213 61.1859 105.763 61.6357 105.163 61.9355L101.115 64.1844L100.516 60.1364C99.7662 59.8366 99.0165 59.3868 98.117 59.0869L95.1185 61.4857L93.9191 57.5877C93.1695 57.2878 92.2699 57.1379 91.3704 56.988L88.5218 59.9865L86.7227 56.2384C85.8231 56.0884 85.0735 56.0884 84.174 56.0884L81.9251 59.3868L79.5263 56.0884C78.6267 56.0884 77.8771 56.2384 76.9776 56.2384L75.1785 59.9865L72.3299 56.988C71.4303 57.1379 70.6807 57.2878 69.7812 57.5877L68.5818 61.4857L65.2834 59.0869C64.5338 59.3868 63.7842 59.6866 62.8846 60.1364L62.4348 64.1844L58.3869 61.9355C56.8876 61.036 56.2879 59.0869 57.0375 57.5877C57.9371 56.0884 59.8861 55.4887 61.3854 56.2384C61.9851 56.5382 62.4348 56.988 62.7347 57.5877C62.8846 57.8875 63.0345 58.1874 63.0345 58.4872L64.2339 58.0375C64.084 57.7376 63.9341 57.4378 63.7842 57.1379C63.4843 55.3388 64.6837 53.6896 66.4828 53.3898C68.2819 53.0899 69.9311 54.2893 70.2309 56.0884L71.4303 55.7886C71.2804 55.4887 71.1305 55.1889 71.1305 54.889C71.1305 52.94 72.18 51.2908 73.9791 51.1409Z" fill="white"/>
</svg>
