<svg width="216" height="166" viewBox="0 0 216 166" fill="none" xmlns="http://www.w3.org/2000/svg">
<g clip-path="url(#clip0_2061_4298)">
<path d="M107.7 133C103.604 124.616 99.4805 116.246 95.4294 107.838C94.6366 106.195 93.5556 104.994 91.997 104.039C83.2222 98.6697 74.5496 93.1292 65.7117 87.8679C62.1862 85.7688 59.6877 83.1051 58.8679 79.0901C58.4384 76.979 57.2463 75.7658 55.4144 74.7778C52.2072 73.0511 49.1201 71.0991 45.973 69.2613C43.6667 67.9129 42.0781 65.976 41.3423 63.4204C38.6216 53.928 35.9429 44.4204 33.2432 34.9189C33.1772 34.6877 33.0481 34.4745 32.949 34.2523C32.973 33.6487 32.6426 32.7748 33.8469 33.0541C37.7598 35.2493 41.7057 37.3934 45.5826 39.6517C50.3303 42.4174 55.042 45.2493 59.7207 48.1352C60.4655 48.5946 61.1502 49.3934 61.5075 50.1922C65.7057 59.6156 64.5225 57.5616 72.0541 62.2913C78.7417 66.4895 85.4264 70.6967 92.1321 74.8619C94.2072 76.1502 95.6216 77.937 96.6637 80.1111C100.267 87.6307 103.91 95.1352 107.541 102.643C107.64 102.85 107.778 103.039 108.033 103.456C109.694 100.036 111.258 96.8228 112.814 93.6066C115.009 89.0661 117.216 84.5316 119.387 79.979C120.45 77.7508 121.988 76.015 124.108 74.7057C132.231 69.6937 140.348 64.6697 148.384 59.5165C149.748 58.6427 150.832 57.2192 151.805 55.8769C152.58 54.8048 153.147 53.5135 153.529 52.2343C154.279 49.7207 155.898 48.1412 158.141 46.8799C165.895 42.5286 173.583 38.0601 181.294 33.6337C181.595 33.4625 181.868 33.2463 182.153 33.0541C183.36 32.7748 183.027 33.6487 183.054 34.2553C181.949 38.1832 180.868 42.1171 179.736 46.0361C178.075 51.7898 176.387 57.5316 174.7 63.2763C173.916 65.94 172.297 67.946 169.898 69.3454C166.276 71.4595 162.646 73.5676 159.072 75.7598C158.465 76.1322 157.997 76.8589 157.67 77.5225C157.276 78.3183 157.075 79.2132 156.835 80.0781C155.961 83.2132 154.108 85.4955 151.294 87.2042C141.991 92.8619 132.745 98.6096 123.532 104.414C122.459 105.09 121.474 106.195 120.907 107.33C116.64 115.853 112.489 124.435 108.303 132.997H107.703L107.7 133ZM163.093 53.5225C162.174 54.0271 161.64 54.2943 161.129 54.6036C150.114 61.2943 139.081 67.958 128.114 74.7298C126.958 75.4445 125.907 76.6487 125.291 77.8679C120.441 87.4475 115.913 97.1922 110.847 106.652C108.682 110.697 109.486 114.694 109.333 118.781C112.036 113.799 114.559 108.766 117.186 103.787C117.646 102.913 118.42 102.075 119.258 101.547C130.174 94.6877 141.117 87.8709 152.078 81.0871C153.826 80.006 154.991 78.6156 155.598 76.6367C156.814 72.6757 158.141 68.7508 159.423 64.8078C160.607 61.1682 161.79 57.5286 163.093 53.5225ZM106.511 118.82C106.607 118.796 106.703 118.775 106.799 118.751C106.799 116.402 106.862 114.051 106.769 111.706C106.733 110.748 106.538 109.715 106.117 108.862C101.006 98.4655 95.8649 88.0811 90.6426 77.7388C90.0691 76.6006 89.0901 75.4805 88.012 74.8138C77.6487 68.3934 67.2282 62.0661 56.8168 55.7237C55.6487 55.012 54.4294 54.3784 52.967 53.5586C53.1472 54.1922 53.2282 54.5165 53.3303 54.8349C55.7027 62.1472 58.1051 69.4475 60.4354 76.7718C61.033 78.6457 62.1411 79.973 63.7898 80.997C74.7448 87.7928 85.6937 94.6006 96.6036 101.471C97.5556 102.072 98.4114 103.051 98.9429 104.051C101.535 108.937 104.003 113.889 106.514 118.82H106.511ZM158.94 48.8198C158.973 48.958 159.006 49.0961 159.039 49.2313C160.97 49.2313 162.898 49.2222 164.829 49.2313C166.402 49.2403 166.574 49.4715 166.09 51.015C165.508 52.8709 164.892 54.7177 164.294 56.5706C162.853 61.015 161.414 65.4625 159.886 70.1802C160.511 69.8529 160.892 69.6697 161.258 69.4595C164.237 67.7238 167.189 65.946 170.195 64.2613C171.637 63.4535 172.553 62.3574 173.012 60.7658C175.195 53.1892 177.417 45.6246 179.619 38.0511C179.715 37.7177 179.703 37.3514 179.784 36.5976C172.619 40.7988 165.784 44.8078 158.946 48.8168L158.94 48.8198ZM56.1081 70.2973C55.8769 69.5256 55.7478 69.0601 55.6006 68.6036C53.7117 62.7628 51.8108 56.928 49.9369 51.0841C49.4084 49.4355 49.5646 49.2403 51.2493 49.2313C53.1562 49.2222 55.0601 49.2313 56.967 49.2313L57.0541 48.8168C50.1922 44.7958 43.3303 40.7778 36.2613 36.6337C36.2613 37.2283 36.2162 37.4325 36.2673 37.6096C38.5796 45.5646 40.8799 53.5195 43.2553 61.4565C43.4835 62.2132 44.039 63.0631 44.6937 63.4715C48.3664 65.7628 52.1171 67.931 56.1111 70.3003L56.1081 70.2973Z" fill="white"/>
<path d="M143.673 70.835C143.58 71.6878 143.508 72.3185 143.405 73.2524C146.15 71.5707 148.691 70.0122 151.234 68.4536C151.303 68.5257 151.369 68.5978 151.439 68.6668C150.448 70.6548 149.622 72.7539 148.396 74.5888C147.76 75.5407 146.439 76.0542 145.39 76.7119C143.946 77.6188 142.138 78.2044 142.411 80.4866C142.436 80.6969 142.15 81.0272 141.922 81.1713C139.58 82.6638 137.222 84.1293 134.736 85.6848V83.3545C132.132 84.9641 129.655 86.4987 127.177 88.0302C128.619 84.7899 129.381 81.1443 133.159 79.6098C134.64 79.0092 136.024 78.1593 135.901 76.1683C135.886 75.9311 136.108 75.5827 136.324 75.4476C138.709 73.9281 141.114 72.4386 143.673 70.844V70.835Z" fill="white"/>
<path d="M81.2612 77.4175C85.1591 79.6517 89.057 81.8829 92.9519 84.1202C93.123 84.2193 93.3272 84.3364 93.4083 84.4986C94.9218 87.5046 96.4203 90.5196 97.9218 93.5316C97.8257 93.6187 97.7326 93.7028 97.6365 93.7899C93.5465 91.3544 89.4534 88.916 84.9729 86.2463C86.3843 89.5646 87.6365 92.5106 88.8888 95.4535C88.8197 95.5196 88.7477 95.5886 88.6786 95.6547C87.5975 94.9941 86.5164 94.3364 85.4413 93.6667C82.2972 91.7178 79.1501 89.7748 76.0269 87.7959C75.5915 87.5196 75.096 87.1292 74.9218 86.6817C73.9038 84.0331 72.9699 81.3484 72.0089 78.6787L71.9639 78.6998C73.093 79.3004 74.2431 79.8679 75.3513 80.5106C78.3753 82.2613 81.3843 84.0421 84.7266 86.0061C84.3963 85.1953 84.2131 84.7478 84.0329 84.3034C83.111 82.0091 82.1891 79.7178 81.2672 77.4235L81.2612 77.4175Z" fill="white"/>
<path d="M72.0027 78.6787C68.1048 76.4445 64.1919 74.2373 60.333 71.943C59.7204 71.5796 59.1558 70.8739 58.9066 70.2012C58.0627 67.928 57.369 65.5946 56.5132 62.961C60.6123 65.3244 64.3991 67.5045 68.5822 69.9129C67.5012 67.012 66.5612 64.4835 65.4711 61.5586C66.372 62.0841 66.9516 62.4054 67.5132 62.7478C70.4982 64.5706 73.4832 66.3874 76.4501 68.2343C76.8976 68.5135 77.4291 68.8619 77.6273 69.3093C78.7835 71.9039 79.8525 74.5376 80.9486 77.1592C77.0087 74.8979 73.0687 72.6367 68.8675 70.2253C69.9636 73.2283 70.9576 75.964 71.9546 78.6967L71.9997 78.6757L72.0027 78.6787Z" fill="white"/>
<path d="M172.799 48.0388C173.249 47.9577 174.195 47.5853 174.357 47.7986C174.711 48.27 174.669 49.0418 174.787 49.6844C172.579 49.9998 171.198 51.261 170.72 53.237C170.708 53.285 170.666 53.3481 170.684 53.3781C171.675 55.1229 169.814 55.7895 169.321 57.0388C168.907 56.7685 168.513 56.5073 168.024 56.1859C168.468 55.5583 169.045 54.9757 169.324 54.273C169.588 53.6184 169.54 52.8376 169.681 51.6904C168.603 52.5253 167.844 53.1109 167.03 53.7415C167.447 50.9938 168.651 49.5523 170.225 49.5974C170.94 47.9907 171.624 46.4502 172.309 44.9097C172.57 44.9757 172.835 45.0418 173.096 45.1079C172.988 46.1499 172.883 47.192 172.796 48.0358L172.799 48.0388Z" fill="white"/>
<path d="M171.838 57.7387C171.297 58.3363 170.85 59.087 170.195 59.5014C168.471 60.5885 166.654 61.5285 164.874 62.5255C164.754 62.4414 164.633 62.3573 164.51 62.2732C164.889 61.7057 165.141 60.9339 165.666 60.6035C167.519 59.4354 169.468 58.4174 171.381 57.3423C171.531 57.4744 171.684 57.6096 171.835 57.7417L171.838 57.7387Z" fill="white"/>
<path d="M39.4351 45.6846C42.5733 47.5284 45.7204 49.3602 48.8405 51.2341C49.1889 51.4443 49.5162 51.8497 49.6453 52.2341C50.4681 54.6846 51.2339 57.156 52.1498 60.0299C51.1438 59.4473 50.4381 59.0449 49.7414 58.6365C47.285 57.1951 44.8225 55.7657 42.3811 54.3002C41.9757 54.0569 41.4561 53.7326 41.327 53.3362C40.5282 50.8798 39.8255 48.3933 39.0928 45.9188L39.4351 45.6906V45.6846Z" fill="white"/>
<path d="M55.1501 48.7538C53.3423 48.7538 51.5345 48.7778 49.7267 48.7267C49.4804 48.7207 49.1171 48.3844 49.021 48.1231C48.5465 46.8408 48.1441 45.5285 47.5825 43.8198C50.3663 45.4925 52.7957 46.952 55.2282 48.4144C55.2011 48.5285 55.1771 48.6426 55.1501 48.7538Z" fill="white"/>
</g>
<defs>
<clipPath id="clip0_2061_4298">
<rect width="150.15" height="100" fill="white" transform="translate(32.9248 33)"/>
</clipPath>
</defs>
</svg>
