<svg width="304" height="167" viewBox="0 0 304 167" fill="none" xmlns="http://www.w3.org/2000/svg">
<g clip-path="url(#clip0_2003_2409)">
<path d="M151.676 137.376C147.257 128.33 142.808 119.3 138.437 110.228C137.582 108.456 136.416 107.16 134.734 106.13C125.267 100.337 115.91 94.3589 106.374 88.6824C102.571 86.4176 99.875 83.5438 98.9905 79.2119C98.5272 76.9342 97.2409 75.6252 95.2645 74.5592C91.8042 72.6962 88.4735 70.5902 85.0779 68.6074C82.5896 67.1526 80.8757 65.0628 80.0819 62.3056C77.1464 52.0639 74.2563 41.8061 71.3436 31.5547C71.2723 31.3052 71.133 31.0752 71.0261 30.8354C71.052 30.1842 70.6956 29.2414 71.9948 29.5427C76.2165 31.9111 80.4739 34.2245 84.6567 36.661C89.7792 39.645 94.8627 42.7003 99.9107 45.814C100.714 46.3097 101.453 47.1715 101.838 48.0334C106.368 58.2005 105.091 55.9843 113.217 61.0873C120.433 65.6168 127.645 70.1561 134.88 74.65C137.119 76.0399 138.645 77.9677 139.769 80.3135C143.657 88.4264 147.587 96.5232 151.504 104.623C151.611 104.847 151.76 105.051 152.036 105.501C153.827 101.811 155.516 98.3441 157.194 94.874C159.562 89.9752 161.944 85.0828 164.286 80.1709C165.433 77.7668 167.092 75.8941 169.38 74.4815C178.144 69.0739 186.901 63.6534 195.572 58.0936C197.043 57.1507 198.212 55.615 199.262 54.1667C200.098 53.01 200.71 51.6168 201.122 50.2366C201.932 47.5247 203.678 45.8204 206.098 44.4596C214.464 39.7649 222.759 34.9438 231.079 30.168C231.403 29.9833 231.698 29.75 232.005 29.5427C233.308 29.2414 232.948 30.1842 232.977 30.8387C231.785 35.0766 230.619 39.321 229.397 43.5492C227.606 49.757 225.785 55.9519 223.964 62.15C223.118 65.0239 221.372 67.1882 218.783 68.6981C214.876 70.979 210.958 73.2535 207.103 75.6187C206.448 76.0205 205.943 76.8046 205.59 77.5206C205.165 78.3792 204.948 79.3447 204.689 80.2778C203.746 83.6604 201.747 86.1228 198.711 87.9664C188.674 94.0705 178.698 100.272 168.757 106.535C167.601 107.264 166.538 108.456 165.926 109.681C161.322 118.876 156.844 128.136 152.327 137.373H151.679L151.676 137.376ZM211.441 51.6265C210.45 52.1708 209.873 52.4592 209.322 52.7929C197.438 60.0116 185.534 67.2012 173.702 74.5074C172.454 75.2785 171.32 76.5778 170.656 77.8932C165.423 88.2288 160.538 98.7426 155.072 108.949C152.736 113.313 153.604 117.625 153.439 122.035C156.355 116.66 159.076 111.23 161.911 105.858C162.407 104.915 163.243 104.011 164.147 103.441C175.924 96.0404 187.731 88.6856 199.557 81.3665C201.443 80.2001 202.7 78.7 203.354 76.5648C204.666 72.2912 206.098 68.0566 207.482 63.8024C208.758 59.8756 210.035 55.9487 211.441 51.6265ZM150.393 122.077C150.497 122.051 150.6 122.028 150.704 122.003C150.704 119.469 150.772 116.932 150.672 114.402C150.633 113.368 150.422 112.253 149.969 111.333C144.454 100.116 138.907 88.9124 133.273 77.7539C132.654 76.5259 131.598 75.3174 130.435 74.5981C119.253 67.671 108.011 60.8443 96.7776 54.0014C95.5172 53.2336 94.2018 52.5499 92.6239 51.6654C92.8183 52.349 92.9058 52.699 93.0159 53.0424C95.5755 60.9318 98.1675 68.8082 100.682 76.7106C101.327 78.7324 102.522 80.1644 104.301 81.2693C116.12 88.6014 127.933 95.9465 139.704 103.36C140.731 104.008 141.655 105.064 142.228 106.143C145.024 111.414 147.688 116.757 150.396 122.077H150.393ZM206.96 46.5527C206.996 46.7017 207.032 46.8508 207.067 46.9966C209.15 46.9966 211.231 46.9868 213.314 46.9966C215.012 47.0063 215.196 47.2558 214.675 48.9211C214.046 50.9234 213.382 52.916 212.737 54.9151C211.182 59.7103 209.63 64.5088 207.981 69.5988C208.655 69.2456 209.066 69.048 209.462 68.8212C212.676 66.9485 215.861 65.0304 219.104 63.2128C220.659 62.3412 221.647 61.1586 222.143 59.4414C224.498 51.2669 226.896 43.1053 229.271 34.934C229.375 34.5744 229.362 34.1791 229.449 33.3659C221.718 37.8986 214.344 42.224 206.967 46.5494L206.96 46.5527ZM96.0129 69.7252C95.7635 68.8925 95.6241 68.3903 95.4654 67.8978C93.4274 61.596 91.3765 55.3007 89.3547 48.9956C88.7845 47.2169 88.953 47.0063 90.7706 46.9966C92.828 46.9868 94.8822 46.9966 96.9396 46.9966L97.0335 46.5494C89.6301 42.2111 82.2267 37.876 74.5998 33.4048C74.5998 34.0463 74.5512 34.2666 74.6063 34.4578C77.1011 43.0405 79.5829 51.6233 82.1457 60.1866C82.392 61.0031 82.9914 61.92 83.6977 62.3606C87.6602 64.8328 91.707 67.172 96.0162 69.7284L96.0129 69.7252Z" fill="white"/>
<path d="M190.488 70.3052C190.387 71.2253 190.31 71.9057 190.199 72.9134C193.161 71.099 195.902 69.4174 198.646 67.7358C198.721 67.8136 198.792 67.8914 198.866 67.9659C197.797 70.1108 196.906 72.3755 195.584 74.3552C194.897 75.3822 193.472 75.9363 192.341 76.6458C190.783 77.6243 188.832 78.2561 189.127 80.7185C189.153 80.9453 188.845 81.3017 188.599 81.4572C186.072 83.0675 183.528 84.6486 180.846 86.327V83.8127C178.036 85.5494 175.363 87.205 172.69 88.8574C174.246 85.3614 175.069 81.4281 179.145 79.7724C180.742 79.1244 182.235 78.2075 182.103 76.0594C182.086 75.8034 182.326 75.4276 182.559 75.2818C185.132 73.6424 187.727 72.0353 190.488 70.3149V70.3052Z" fill="white"/>
<path d="M123.151 77.4072C127.357 79.8178 131.562 82.2251 135.764 84.6389C135.949 84.7458 136.169 84.8722 136.257 85.0471C137.89 88.2904 139.507 91.5433 141.127 94.7931C141.023 94.887 140.923 94.9777 140.819 95.0717C136.406 92.4441 131.99 89.8132 127.156 86.9328C128.679 90.513 130.03 93.6915 131.381 96.8667C131.306 96.9379 131.228 97.0125 131.154 97.0837C129.988 96.3709 128.821 95.6614 127.661 94.9389C124.269 92.8361 120.873 90.7398 117.504 88.6047C117.034 88.3066 116.499 87.8854 116.312 87.4026C115.213 84.5449 114.206 81.6484 113.169 78.768L113.12 78.7907C114.338 79.4387 115.579 80.0511 116.775 80.7444C120.038 82.6333 123.284 84.5547 126.89 86.6736C126.534 85.7988 126.336 85.3161 126.142 84.8365C125.147 82.3612 124.152 79.8891 123.158 77.4137L123.151 77.4072Z" fill="white"/>
<path d="M113.162 78.7681C108.957 76.3576 104.735 73.9762 100.571 71.5008C99.9105 71.1088 99.3014 70.3474 99.0325 69.6216C98.122 67.1689 97.3736 64.6514 96.4502 61.81C100.873 64.3598 104.958 66.7121 109.472 69.3106C108.305 66.1807 107.291 63.4526 106.115 60.2969C107.087 60.8639 107.712 61.2106 108.318 61.5799C111.539 63.5466 114.759 65.5068 117.961 67.4994C118.443 67.8007 119.017 68.1766 119.231 68.6593C120.478 71.4587 121.631 74.3002 122.814 77.1287C118.563 74.689 114.312 72.2492 109.78 69.6475C110.962 72.8875 112.035 75.8392 113.11 78.7876L113.159 78.7649L113.162 78.7681Z" fill="white"/>
<path d="M221.913 45.7101C222.399 45.6226 223.419 45.2208 223.594 45.4509C223.976 45.9595 223.931 46.7922 224.057 47.4856C221.676 47.8258 220.186 49.1866 219.67 51.3185C219.657 51.3703 219.612 51.4384 219.632 51.4708C220.701 53.3532 218.692 54.0725 218.161 55.4203C217.713 55.1287 217.289 54.8469 216.761 54.5002C217.24 53.823 217.863 53.1945 218.164 52.4363C218.449 51.73 218.397 50.8876 218.549 49.6499C217.386 50.5506 216.567 51.1824 215.688 51.8628C216.139 48.8982 217.438 47.343 219.136 47.3916C219.907 45.6582 220.646 43.9961 221.384 42.334C221.666 42.4053 221.951 42.4765 222.233 42.5478C222.117 43.6721 222.003 44.7964 221.909 45.7068L221.913 45.7101Z" fill="white"/>
<path d="M220.876 56.1757C220.293 56.8205 219.81 57.6305 219.104 58.0776C217.244 59.2505 215.284 60.2646 213.362 61.3403C213.233 61.2496 213.103 61.1588 212.97 61.0681C213.378 60.4558 213.651 59.6231 214.218 59.2667C216.217 58.0063 218.319 56.908 220.383 55.748C220.545 55.8906 220.711 56.0364 220.873 56.179L220.876 56.1757Z" fill="white"/>
<path d="M78.0241 43.1699C81.4099 45.1593 84.8055 47.1357 88.1718 49.1574C88.5477 49.3842 88.9008 49.8216 89.0401 50.2364C89.9279 52.8802 90.7541 55.5467 91.7423 58.6474C90.6569 58.0188 89.8955 57.5847 89.1438 57.144C86.4935 55.5888 83.8367 54.0466 81.2026 52.4655C80.7652 52.203 80.2047 51.8531 80.0653 51.4254C79.2035 48.7751 78.4453 46.0924 77.6548 43.4226L78.0241 43.1764V43.1699Z" fill="white"/>
<path d="M94.9793 46.4815C93.0288 46.4815 91.0783 46.5074 89.1278 46.4524C88.8621 46.4459 88.4701 46.083 88.3664 45.8011C87.8545 44.4176 87.4203 43.0018 86.8145 41.1582C89.8179 42.9629 92.4391 44.5375 95.0635 46.1154C95.0343 46.2385 95.0084 46.3616 94.9793 46.4815Z" fill="white"/>
</g>
<defs>
<clipPath id="clip0_2003_2409">
<rect width="162" height="107.892" fill="white" transform="translate(71 29.4844)"/>
</clipPath>
</defs>
</svg>
