<svg width="53" height="45" viewBox="0 0 53 45" fill="none" xmlns="http://www.w3.org/2000/svg">
<path d="M15.6798 17.9681C15.3963 17.354 14.9392 16.9974 14.3815 16.7551C13.2569 16.269 12.0577 16.2751 10.8646 16.2538C10.7762 16.2523 10.6863 16.263 10.5979 16.2614C10.2749 16.2553 9.98688 16.1761 9.8467 15.8485C9.71413 15.5422 9.82993 15.2862 10.0265 15.0439C11.305 13.4744 12.9354 12.42 14.8981 11.9857C16.5407 11.6215 18.2184 11.4036 19.8885 11.1842C22.0644 10.8992 24.1779 10.4421 26.1589 9.44704C27.7558 8.64553 29.4655 8.1701 31.2285 7.88973C31.483 7.84859 31.5729 7.75868 31.5607 7.50421C31.5424 7.09888 31.5409 6.69203 31.5607 6.28822C31.5744 5.99718 31.4601 5.91032 31.1828 5.92709C30.5504 5.96518 29.9729 5.82194 29.5066 5.35871C29.1104 4.96557 28.891 4.49625 28.888 3.93397C28.8849 3.41436 28.8804 2.89474 28.888 2.37513C28.9047 1.31915 29.7154 0.429252 30.7744 0.414014C32.9443 0.382015 35.1172 0.382015 37.2871 0.414014C38.3751 0.430776 39.1644 1.30543 39.1827 2.39951C39.1918 2.89322 39.1903 3.38845 39.1827 3.88368C39.169 5.05243 38.3416 5.89356 37.1759 5.92861C36.7401 5.94182 36.5222 6.16988 36.5222 6.61279C36.5222 7.01507 36.5222 7.41735 36.5222 7.83335C38.0673 8.06649 39.5362 8.40781 40.9305 9.00209C41.7564 9.35409 42.5579 9.76856 43.3564 10.1785C43.5697 10.2882 43.6977 10.279 43.8409 10.0962C43.9735 9.92703 44.1304 9.77618 44.263 9.60704C45.4119 8.13658 47.4538 8.25239 48.7018 9.34495C50.0367 10.5137 50.2606 12.5464 49.0447 13.8203C48.4458 14.4481 48.4611 14.4695 48.9883 15.178C50.7345 17.5277 51.9201 20.1364 52.3894 23.0194C53.3722 29.0704 51.8423 34.4311 47.7129 38.9903C45.3236 41.6295 42.3644 43.3925 38.9267 44.3357C36.6121 44.9711 34.2578 45.1068 31.87 44.8721C29.1668 44.607 26.6267 43.7384 24.088 42.8531C22.4728 42.2893 20.8667 41.7011 19.2439 41.1602C18.4104 40.8828 18.4241 40.2002 18.9331 39.7522C19.4938 39.2585 20.0089 38.7114 20.5147 38.1613C20.6397 38.0257 20.7235 37.7743 20.6961 37.5945C20.6458 37.2562 20.3776 37.2196 20.0789 37.3095C19.3887 37.5198 18.706 37.7728 18.002 37.9221C15.8672 38.3731 13.8284 38.2025 12.0333 36.8174C10.6863 35.7781 9.85431 34.3671 9.2387 32.8128C9.0848 32.4243 8.95528 32.0266 8.81661 31.6334C8.70995 31.3287 8.75719 31.0544 9.01318 30.8426C9.26766 30.6292 9.54041 30.6384 9.82536 30.7953C11.6432 31.7904 13.4505 31.5877 15.2013 30.6536C15.6203 30.4296 15.9449 29.9801 16.2299 29.5748C16.4996 29.1923 16.3198 28.8342 15.8519 28.8464C15.2013 28.8632 14.5293 28.9241 13.9122 29.1131C9.95184 30.3275 6.70007 29.1771 3.99382 26.2011C2.62698 24.6987 1.72185 22.9158 1.03462 21.0187C0.935573 20.7459 0.943192 20.464 1.18395 20.2461C1.42776 20.0237 1.69899 20.0084 1.99461 20.1456C2.88145 20.56 3.78201 20.9242 4.774 21.0141C5.75075 21.1025 6.67569 20.9181 7.53663 20.4701C8.48138 19.9795 9.39565 19.434 10.3343 18.9311C11.9099 18.0869 13.5861 17.7441 15.3704 17.9635C15.4527 17.9742 15.538 17.9635 15.6737 17.9635L15.6798 17.9681ZM20.4157 40.0447C20.6214 40.1712 20.6702 40.2139 20.7281 40.2337C23.2972 41.1007 25.8495 42.018 28.44 42.8165C31.1036 43.6378 33.8479 43.8527 36.6121 43.4428C39.7694 42.9735 42.599 41.7209 45.0508 39.6775C50.7163 34.9522 52.7825 27.4049 50.3368 20.4808C47.9902 13.834 41.5933 9.19257 34.5382 9.0219C31.8015 8.95638 29.1958 9.52323 26.7196 10.6798C25.6042 11.2009 24.4918 11.748 23.2728 11.9628C21.5387 12.2691 19.7925 12.519 18.0477 12.7628C16.5879 12.9655 15.1327 13.1727 13.7735 13.7883C13.1655 14.0641 12.591 14.3933 12.0501 14.9083C12.2253 14.9266 12.3229 14.9296 12.4173 14.9479C13.1487 15.0927 13.9045 15.1719 14.607 15.4035C16.1948 15.9277 17.0588 17.1361 17.4489 18.7071C17.5921 19.2816 17.167 19.6641 16.5803 19.5437C16.4188 19.5101 16.2588 19.4721 16.0973 19.4385C14.6512 19.1429 13.2082 19.1048 11.8413 19.7311C10.8646 20.1791 9.92746 20.717 8.9949 21.2534C7.39187 22.1768 5.71265 22.6553 3.85668 22.2423C3.56868 22.1783 3.28373 22.1006 2.96069 22.0198C2.98812 22.1204 2.99421 22.1707 3.01402 22.2149C3.80487 23.9322 4.85933 25.4499 6.38312 26.6034C8.37472 28.1119 10.5751 28.6468 13.0162 27.9535C13.9823 27.6792 14.9377 27.3942 15.9647 27.4765C17.3148 27.5862 18.0508 28.7062 17.5616 29.9603C17.2508 30.7557 16.7068 31.3713 15.9784 31.8026C14.4638 32.7001 12.8211 32.9225 11.0977 32.6681C10.9667 32.6483 10.8356 32.633 10.7046 32.6147C10.6787 32.6437 10.6543 32.6726 10.6284 32.7016C10.9133 33.2029 11.1709 33.721 11.4863 34.201C12.748 36.1255 14.5171 37.0535 16.8272 36.7396C17.7232 36.6177 18.5917 36.2977 19.4816 36.1057C19.893 36.0174 20.3517 35.9076 20.7403 36.0021C22.0873 36.3343 22.5521 37.9084 21.6302 38.9537C21.2888 39.3408 20.8622 39.6516 20.4203 40.0432L20.4157 40.0447ZM34.0094 4.57091C35.038 4.57091 36.065 4.57701 37.0936 4.56787C37.604 4.56329 37.8189 4.35453 37.8296 3.85778C37.8402 3.36407 37.8418 2.86884 37.8235 2.37513C37.8098 1.99723 37.6071 1.80219 37.2307 1.758C37.1058 1.74428 36.9778 1.74733 36.8513 1.74733C34.974 1.74733 33.0952 1.74733 31.2178 1.74733C30.4102 1.74733 30.2518 1.90276 30.2518 2.69208C30.2518 3.05931 30.2487 3.42655 30.2518 3.7953C30.2579 4.35758 30.4666 4.56787 31.0411 4.57091C32.0316 4.57548 33.0205 4.57091 34.011 4.57091H34.0094ZM44.8314 11.044C45.7624 11.8501 46.6599 12.6257 47.5559 13.4013C48.3544 12.7659 48.6378 12.1045 48.4397 11.3457C48.2447 10.599 47.5483 9.99865 46.762 9.87827C45.7883 9.73046 45.3358 10.4116 44.8314 11.0424V11.044ZM34.0399 7.64897C34.3066 7.66268 34.5854 7.6703 34.8612 7.69468C35.0608 7.71144 35.1751 7.66725 35.1706 7.43716C35.1629 7.02117 35.1629 6.60365 35.1706 6.18765C35.1736 5.98651 35.0822 5.92709 34.8948 5.92861C34.3264 5.9347 33.7565 5.93623 33.1881 5.92861C32.9656 5.92556 32.9062 6.02918 32.9108 6.2288C32.9184 6.62041 32.9214 7.01202 32.9108 7.40364C32.9047 7.6444 33.0113 7.71144 33.2338 7.69163C33.4974 7.66725 33.7641 7.66268 34.0399 7.65049V7.64897Z" fill="url(#paint0_linear_625_1248)"/>
<path d="M20.472 26.3382C20.4522 18.8793 26.5336 12.7796 34.0108 12.7582C41.4957 12.7369 47.6015 18.8183 47.6198 26.3123C47.6381 33.7637 41.5506 39.871 34.0764 39.903C26.6113 39.935 20.4933 33.8338 20.4735 26.3382H20.472ZM34.055 14.1144C27.3214 14.1022 21.8449 19.5498 21.819 26.2864C21.7931 33.0246 27.2696 38.5331 34.0124 38.5469C40.7688 38.5606 46.2499 33.1008 46.2606 26.3489C46.2697 19.5863 40.8237 14.1266 34.0566 14.1144H34.055Z" fill="url(#paint1_linear_625_1248)"/>
<path d="M33.9958 23.9306C34.2762 23.9855 34.5261 23.9962 34.744 24.0845C34.9802 24.1805 35.1143 24.1074 35.2728 23.9474C36.1809 23.027 37.0922 22.1097 38.0156 21.2046C38.1619 21.0614 38.3798 20.8815 38.5489 20.8968C38.7775 20.9166 39.0472 21.0614 39.1996 21.2381C39.3992 21.4713 39.32 21.776 39.1127 22.0015C38.8308 22.3093 38.5276 22.5989 38.232 22.8945C37.5965 23.5314 36.9657 24.1745 36.3181 24.7977C36.1154 24.9943 36.0834 25.1466 36.1977 25.4179C36.7219 26.6476 36.1581 27.9976 34.9391 28.5066C33.7581 28.9988 32.3471 28.4167 31.8656 27.2388C31.3642 26.0137 31.9189 24.6605 33.1501 24.1516C33.4259 24.0373 33.7322 23.9977 33.9958 23.9306ZM35.0503 26.3413C35.0594 25.7851 34.6069 25.3264 34.0461 25.3234C33.4854 25.3203 33.0252 25.776 33.0282 26.3291C33.0313 26.867 33.4732 27.315 34.0156 27.3317C34.5703 27.347 35.0396 26.8975 35.0503 26.3413Z" fill="url(#paint2_linear_625_1248)"/>
<path d="M23.9312 25.6678C24.108 25.6678 24.2864 25.6571 24.4631 25.6693C24.8426 25.6983 25.1109 25.9756 25.1185 26.3307C25.1261 26.6858 24.867 26.9891 24.4891 27.015C24.1233 27.0394 23.7529 27.0394 23.3872 27.0166C23.0199 26.9952 22.7379 26.6782 22.7425 26.3384C22.7471 25.9939 23.0275 25.6998 23.3978 25.6708C23.5746 25.6571 23.7529 25.6678 23.9297 25.6678H23.9312Z" fill="url(#paint3_linear_625_1248)"/>
<path d="M43.7725 27.0211C43.5957 27.0211 43.4159 27.0348 43.2406 27.0181C42.8627 26.9846 42.6036 26.7026 42.6021 26.3445C42.6021 25.9863 42.8627 25.6922 43.2376 25.6723C43.6049 25.6525 43.9737 25.651 44.3395 25.6739C44.6946 25.6967 44.9567 25.9878 44.9689 26.3231C44.9811 26.6691 44.7129 26.9754 44.341 27.015C44.1535 27.0348 43.9615 27.0181 43.771 27.0181C43.771 27.0181 43.771 27.0196 43.771 27.0211H43.7725Z" fill="url(#paint4_linear_625_1248)"/>
<path d="M39.8105 32.8663C39.9264 32.7306 40.0422 32.4853 40.2281 32.4106C40.4171 32.3344 40.7311 32.3466 40.8881 32.4609C41.2218 32.7017 41.5068 33.0187 41.7766 33.3357C42.0037 33.6024 41.9595 33.9042 41.7293 34.1632C41.5053 34.4162 41.1761 34.4757 40.9383 34.2958C40.5604 34.0093 40.2449 33.639 39.9203 33.2869C39.8532 33.2153 39.8608 33.0751 39.8105 32.8678V32.8663Z" fill="url(#paint5_linear_625_1248)"/>
<path d="M39.7664 19.7512C39.8837 19.5226 39.9294 19.3595 40.0315 19.2437C40.2662 18.98 40.5177 18.7286 40.7814 18.4923C41.0633 18.2393 41.4596 18.2531 41.708 18.5015C41.9747 18.7682 41.9945 19.1187 41.7293 19.419C41.487 19.6933 41.2234 19.9509 40.9536 20.1977C40.7387 20.3944 40.4598 20.4599 40.2205 20.2877C40.0361 20.1566 39.9157 19.9341 39.7664 19.7512Z" fill="url(#paint6_linear_625_1248)"/>
<path d="M34.5186 36.2462C34.5186 36.4473 34.5369 36.6516 34.514 36.8512C34.4729 37.2124 34.1925 37.4425 33.8389 37.4334C33.499 37.4242 33.2338 37.2048 33.211 36.8497C33.1851 36.4489 33.1866 36.0419 33.2156 35.6411C33.2415 35.2982 33.5265 35.0742 33.8602 35.0742C34.1894 35.0742 34.4683 35.3043 34.511 35.6426C34.5354 35.8408 34.5156 36.045 34.5156 36.2462C34.5156 36.2462 34.5171 36.2462 34.5186 36.2462Z" fill="url(#paint7_linear_625_1248)"/>
<path d="M34.5187 16.4247C34.5187 16.6259 34.537 16.8301 34.5141 17.0297C34.4745 17.3864 34.1849 17.6256 33.8405 17.6165C33.5067 17.6074 33.2324 17.3803 33.211 17.0313C33.1851 16.6289 33.1851 16.2235 33.2156 15.8212C33.243 15.4691 33.5158 15.2557 33.8588 15.2542C34.1971 15.2542 34.4669 15.4752 34.5111 15.8196C34.537 16.0178 34.5156 16.222 34.5156 16.4247C34.5156 16.4247 34.5187 16.4247 34.5202 16.4247H34.5187Z" fill="url(#paint8_linear_625_1248)"/>
<path d="M27.9436 32.9272C27.8399 33.1436 27.7988 33.3128 27.6982 33.4271C27.4559 33.7014 27.1952 33.962 26.924 34.2074C26.6664 34.4406 26.264 34.4269 26.0263 34.2028C25.7611 33.9544 25.723 33.5704 25.9745 33.2823C26.2244 32.9988 26.4987 32.7337 26.7807 32.4807C26.9971 32.2856 27.2745 32.2277 27.5138 32.4045C27.689 32.534 27.8033 32.7474 27.9451 32.9257L27.9436 32.9272Z" fill="url(#paint9_linear_625_1248)"/>
<path d="M27.8719 19.6399C27.8749 20.216 27.2973 20.5711 26.8812 20.2663C26.52 20.0026 26.2061 19.6582 25.918 19.3107C25.7092 19.0577 25.7763 18.7559 25.9988 18.5167C26.2259 18.2728 26.552 18.2088 26.7913 18.3963C27.1647 18.6874 27.4756 19.0607 27.8002 19.4113C27.8612 19.4768 27.8597 19.5987 27.8719 19.6399Z" fill="url(#paint10_linear_625_1248)"/>
<defs>
<linearGradient id="paint0_linear_625_1248" x1="0.974853" y1="20.9699" x2="52.6771" y2="20.9699" gradientUnits="userSpaceOnUse">
<stop stop-color="#BE6552"/>
<stop offset="0.490144" stop-color="#ECA9A0"/>
<stop offset="1" stop-color="#BE6552"/>
</linearGradient>
<linearGradient id="paint1_linear_625_1248" x1="20.4719" y1="25.2866" x2="47.6199" y2="25.2866" gradientUnits="userSpaceOnUse">
<stop stop-color="#BE6552"/>
<stop offset="0.490144" stop-color="#ECA9A0"/>
<stop offset="1" stop-color="#BE6552"/>
</linearGradient>
<linearGradient id="paint2_linear_625_1248" x1="31.6816" y1="24.4894" x2="39.3149" y2="24.4894" gradientUnits="userSpaceOnUse">
<stop stop-color="#BE6552"/>
<stop offset="0.490144" stop-color="#ECA9A0"/>
<stop offset="1" stop-color="#BE6552"/>
</linearGradient>
<linearGradient id="paint3_linear_625_1248" x1="22.7424" y1="26.2958" x2="25.1187" y2="26.2958" gradientUnits="userSpaceOnUse">
<stop stop-color="#BE6552"/>
<stop offset="0.490144" stop-color="#ECA9A0"/>
<stop offset="1" stop-color="#BE6552"/>
</linearGradient>
<linearGradient id="paint4_linear_625_1248" x1="42.6021" y1="26.2891" x2="44.9693" y2="26.2891" gradientUnits="userSpaceOnUse">
<stop stop-color="#BE6552"/>
<stop offset="0.490144" stop-color="#ECA9A0"/>
<stop offset="1" stop-color="#BE6552"/>
</linearGradient>
<linearGradient id="paint5_linear_625_1248" x1="39.8105" y1="33.3027" x2="41.9261" y2="33.3027" gradientUnits="userSpaceOnUse">
<stop stop-color="#BE6552"/>
<stop offset="0.490144" stop-color="#ECA9A0"/>
<stop offset="1" stop-color="#BE6552"/>
</linearGradient>
<linearGradient id="paint6_linear_625_1248" x1="39.7664" y1="19.268" x2="41.9184" y2="19.268" gradientUnits="userSpaceOnUse">
<stop stop-color="#BE6552"/>
<stop offset="0.490144" stop-color="#ECA9A0"/>
<stop offset="1" stop-color="#BE6552"/>
</linearGradient>
<linearGradient id="paint7_linear_625_1248" x1="33.1926" y1="36.1632" x2="34.5255" y2="36.1632" gradientUnits="userSpaceOnUse">
<stop stop-color="#BE6552"/>
<stop offset="0.490144" stop-color="#ECA9A0"/>
<stop offset="1" stop-color="#BE6552"/>
</linearGradient>
<linearGradient id="paint8_linear_625_1248" x1="33.1921" y1="16.3446" x2="34.5256" y2="16.3446" gradientUnits="userSpaceOnUse">
<stop stop-color="#BE6552"/>
<stop offset="0.490144" stop-color="#ECA9A0"/>
<stop offset="1" stop-color="#BE6552"/>
</linearGradient>
<linearGradient id="paint9_linear_625_1248" x1="25.8052" y1="33.2577" x2="27.9451" y2="33.2577" gradientUnits="userSpaceOnUse">
<stop stop-color="#BE6552"/>
<stop offset="0.490144" stop-color="#ECA9A0"/>
<stop offset="1" stop-color="#BE6552"/>
</linearGradient>
<linearGradient id="paint10_linear_625_1248" x1="25.792" y1="19.2523" x2="27.8719" y2="19.2523" gradientUnits="userSpaceOnUse">
<stop stop-color="#BE6552"/>
<stop offset="0.490144" stop-color="#ECA9A0"/>
<stop offset="1" stop-color="#BE6552"/>
</linearGradient>
</defs>
</svg>
