<svg width="174" height="166" viewBox="0 0 174 166" fill="none" xmlns="http://www.w3.org/2000/svg">
<path d="M84.9053 28C84.9053 28 84.8595 28.6462 84.6624 29.0404C84.5157 29.3842 84.1215 29.6271 84.172 29.8746C84.2178 30.1221 84.4653 30.42 84.8595 30.6171C85.2536 30.8142 85.3957 30.9562 85.7899 31.0571C86.1336 31.1533 86.6332 31.4054 86.7295 31.1075C86.8807 30.8142 86.6836 30.4154 86.4361 30.0717C86.042 29.43 85.8403 29.2833 85.2995 28.3987C85.1986 28.2017 85.1024 28 84.9053 28ZM88.0128 28C87.912 28.0504 87.7653 28.7975 87.5178 29.4346C87.2245 30.1725 87.417 30.5162 87.5636 30.8096C87.7607 31.1075 88.0128 31.3046 87.5178 31.6025C87.0274 31.8958 86.3811 31.7996 86.3811 31.7996C86.3811 31.7996 85.8403 31.6942 85.3957 31.4512C84.9387 31.2495 84.4804 31.0509 84.0207 30.8554C84.0207 30.8554 83.1315 30.6125 82.5403 30.6629C81.949 30.7087 81.8986 30.7637 81.4586 30.8142C81.2111 30.8142 81.1149 30.8096 80.8674 30.86C80.6703 30.9058 80.4274 30.7683 80.4274 31.0112C80.4274 31.2542 80.9178 31.2587 81.2615 31.4054C81.6053 31.5521 82.3936 31.5475 82.247 31.7446C82.0499 31.9417 81.312 31.9921 81.2615 31.9417C81.2157 31.9417 80.7253 31.8454 80.3311 31.8454C79.6895 31.8912 79.6436 31.8912 78.7132 32.3358C78.562 32.3817 78.6124 32.73 78.9057 32.6292C79.3545 32.5011 79.8186 32.4348 80.2853 32.4321C80.8811 32.4321 81.2157 32.6337 81.807 32.785C82.302 32.9317 82.3478 33.0233 83.0903 33.1242C83.237 33.1242 83.5257 33.0233 83.5257 33.2204C83.5257 33.3212 83.3286 33.4725 83.3286 33.4725C83.3286 33.4725 82.8886 33.5642 82.9345 33.7154C83.0353 33.9125 83.4295 33.7154 83.622 33.7154C83.8236 33.7154 84.1261 33.7704 84.0711 33.9629L83.9749 34.1096C83.5209 34.2281 83.0754 34.3766 82.6411 34.5542C81.4082 35.0492 80.9224 35.6404 79.7399 36.2317C78.6078 36.7725 76.7882 37.4554 76.7882 37.4554C76.7882 37.4554 76.2474 37.7533 75.459 37.9458C74.6753 38.1475 74.6249 38.1017 74.084 38.1979C73.645 38.2232 73.2194 38.3588 72.8465 38.5921C72.5863 38.727 72.3533 38.9088 72.159 39.1283L71.4715 40.1687L71.0728 40.7508C70.9765 40.9479 70.8803 41.0442 70.8345 41.2412C70.7336 41.4887 70.6832 41.5896 70.6374 41.8371C70.4907 42.4237 70.6374 42.7721 70.7336 43.3633C70.784 43.51 70.784 43.6108 70.8345 43.7575C70.8803 43.9042 71.0728 44.0554 71.0728 44.0554L71.2699 44.1012C71.2699 44.1012 71.9665 44.0554 72.4065 43.9546C72.8511 43.8583 73.4928 43.7025 73.4928 43.7025L74.3224 43.4642L74.8724 43.2671C74.8724 43.2671 75.2161 43.2671 75.2665 43.4642C75.3124 43.6108 75.1657 43.8583 75.1657 43.8583C75.1657 43.8583 74.8678 43.9958 74.6203 44.0967C74.3728 44.1975 73.7815 44.3442 73.7357 44.3946L73.094 44.5917L72.5532 44.6421C72.5532 44.6421 72.4524 44.6925 72.3561 44.8392C72.2553 44.9904 72.2553 44.9858 72.2553 45.0821C72.3561 45.1829 72.4065 45.2792 72.5074 45.38C72.7045 45.5267 72.8007 45.6229 73.0436 45.6733C73.3874 45.82 73.5845 45.7742 73.9282 45.7742C74.3586 45.7753 74.783 45.6731 75.1657 45.4762C75.5599 45.2287 75.7065 45.2333 76.2474 45.0362C76.4235 44.9843 76.6049 44.952 76.7882 44.94C77.7232 44.8392 78.2549 44.9858 79.1945 45.1371C80.1295 45.2837 80.5786 45.5817 81.5136 45.7283C82.499 45.875 83.0857 46.1683 84.117 45.9254C84.612 45.8246 84.9099 45.5771 85.1574 46.0675C85.4003 46.5121 85.3545 46.755 85.3545 46.755C85.3545 46.755 85.3499 47.0575 85.0061 47.9925C84.6578 48.9275 83.5807 51.2421 83.5807 51.2421L82.8382 52.7179C82.8382 52.7179 82.2424 53.8958 80.8674 55.4221C80.3809 55.9635 79.892 56.5028 79.4007 57.04C79.4007 57.04 78.6628 57.5854 77.9249 58.5204C77.187 59.4554 77.1778 59.7992 76.4903 60.4912C76.0457 60.9312 75.8028 61.1787 75.262 61.5271C74.7211 61.8708 74.0795 61.77 72.3561 62.9479C70.8803 63.9837 70.092 64.8271 69.9911 64.7767C69.8949 64.7308 69.3999 64.3275 69.2028 64.2267C69.0561 64.135 66.2053 62.2146 66.2053 62.2146L65.0228 61.4263L64.4774 61.0779L64.3811 60.8808L64.0924 60.4867C64.0924 60.4867 63.6478 59.9458 63.107 59.5058C62.5466 58.9639 61.8469 58.5879 61.0857 58.4196C60.247 58.1767 59.7107 58.0254 58.8765 58.3233C58.4044 58.4781 57.9789 58.7492 57.639 59.1117C57.1486 59.6021 57.0478 59.9962 56.6536 60.5875C56.2595 61.1787 55.8653 61.7242 55.6682 62.0175C55.4711 62.3154 55.077 63.1037 55.077 63.1037C55.077 63.1037 54.0961 64.6758 53.5553 65.7071C52.9136 66.8392 52.6707 67.5358 52.0795 68.6175C51.1445 70.3408 49.8107 72.11 49.467 72.8937L49.082 73.7829C49.082 73.7829 48.9765 74.2183 48.9307 74.5162C48.8803 74.8096 48.8803 75.3046 48.8299 75.5017C48.7882 75.6985 48.7054 75.8844 48.587 76.0471C48.5411 76.0929 47.9957 77.225 47.7986 77.9629C47.6015 78.6962 47.157 81.0154 47.7024 81.3087C48.2432 81.6067 52.2261 79.8879 52.767 78.2104C53.1153 77.1287 51.6853 76.5833 52.0795 75.5979C52.2261 75.2542 52.327 75.2083 52.5699 74.8646C52.964 74.2229 52.8174 72.8983 53.5553 71.67C54.0961 70.7854 55.1778 69.6442 56.6536 67.9712C57.5886 66.94 58.4778 65.2671 58.4778 65.2671C58.4778 65.2671 58.6749 64.6758 59.0736 64.7767C59.5136 64.8729 59.9032 64.8225 59.9032 64.8225L60.1003 64.9738L60.4945 65.3679L61.0857 66.2525C61.0857 66.2525 62.0757 67.6733 62.4149 68.0721C62.7632 68.4662 63.107 68.7596 63.602 69.1537C64.1428 69.6442 64.3353 69.8917 65.0228 70.4371C66.0082 71.2208 65.6599 71.5187 64.3811 70.8267C63.8492 70.5568 63.2899 70.3447 62.7128 70.1942C62.1261 70.0429 59.9078 69.4517 58.7757 69.305C57.694 69.1583 57.4924 69.2087 57.4924 69.2087C57.4924 69.2087 56.9515 69.1537 56.3145 69.5479C55.6728 69.9421 55.329 70.2354 55.329 70.2354C55.329 70.2354 54.5911 71.0742 54.5407 71.2208C54.4949 71.3675 54.1465 71.9542 54.1465 71.9542C54.1465 71.9542 53.9449 72.2567 53.899 72.5958C53.7982 72.9442 53.8532 73.2879 53.8532 73.2879L53.899 74.0212L53.9495 74.7087C53.9495 74.7087 54.1007 76.4367 54.4445 78.16C54.5407 78.6504 54.6415 79.4387 54.6415 79.4387L54.8799 81.2125C54.8799 81.2125 55.0311 83.0871 55.1778 83.7242C55.3245 84.32 55.4253 84.3658 55.5261 84.7554C55.7232 85.4933 55.3795 85.8371 55.7232 86.7262C56.067 87.6108 56.3649 87.5054 56.7086 88.0508C56.9561 88.445 57.0478 88.5412 57.2449 89.0362C57.442 89.5267 58.0836 91.1583 58.8215 92.3362C59.6099 93.5692 60.6457 95.0908 61.3378 94.9442C62.0253 94.7929 62.5157 93.7158 62.5157 93.7158C62.5157 93.7158 63.304 91.5937 62.8136 89.5267C62.3186 87.4092 60.0545 88.4037 59.7611 86.8775C59.7153 86.5337 59.7611 85.9929 59.7611 85.9929C59.7611 85.9929 59.7061 85.3467 59.6099 85.1496C59.509 84.9525 58.7207 83.4812 58.4274 82.2483C58.1799 81.3133 58.2303 78.3067 58.0332 77.4679C57.4924 75.3046 57.442 75.4971 57.7353 75.1075C58.0836 74.7133 58.3815 74.8096 58.3815 74.8096L58.8215 74.8646L59.1699 75.0067L59.807 75.4008C60.004 75.5475 60.6915 76.0883 60.6915 76.0883L62.3645 77.1746C62.3645 77.1746 63.304 77.72 63.6982 77.9171C64.0924 78.1142 64.4315 78.3571 64.4315 78.3571L64.8715 78.6504L65.614 79.2004L65.7561 79.3379L65.857 79.535C65.857 79.535 66.2053 80.3279 67.6811 81.1667C68.8636 81.8542 69.8995 81.6525 70.3395 82.1979C70.4403 82.2942 71.2699 83.4354 71.6686 84.1229C72.159 84.9067 72.7503 85.8371 72.9474 86.135C73.1445 86.4283 74.3774 87.95 74.3774 87.95L75.9999 89.7237L78.122 91.6946L80.0378 93.3217L81.2615 94.3071C81.2615 94.3071 82.3478 95.3429 83.5807 96.1771C84.7632 96.9654 84.809 97.0617 85.5974 97.5979C86.184 97.9967 86.9724 98.5421 87.7607 99.1333C88.549 99.775 89.4382 100.948 89.0945 101.342C88.847 101.489 88.4024 100.857 87.5636 100.119C87.0169 99.6272 86.4431 99.1666 85.8449 98.7392C84.9603 98.0517 84.5111 97.6987 83.5257 97.1075C83.0353 96.8142 82.1507 96.2779 82.1049 96.3742C81.7611 97.41 81.8024 98.3908 81.8528 99.6696C81.8986 100.554 82.0499 101.439 82.3432 102.571C82.5907 103.652 82.8382 104.248 83.2324 105.28C83.6265 106.315 84.369 107.938 84.369 107.938L85.4965 110.207L86.5324 111.925L87.0732 112.81L87.2703 113.103C87.2703 113.103 87.5132 113.699 87.2703 114.089C87.0274 114.478 86.7249 115.322 86.2849 115.372C85.8403 115.468 84.809 115.523 84.809 115.523L78.9515 115.422L75.899 115.175C75.899 115.175 75.5599 114.978 73.7907 114.978C72.7549 114.978 71.9161 115.418 71.3249 115.468C70.8345 115.514 68.419 115.322 66.7965 115.959C65.2703 116.6 64.5782 116.747 64.0374 117.732C63.6432 118.47 65.9624 119.657 67.8782 120.097C70.9811 120.785 70.092 119.456 71.2699 118.622C71.4211 118.521 71.4715 118.429 71.6228 118.379C72.4065 118.131 72.8465 118.764 73.6395 118.764C74.5195 118.764 75.0145 118.47 75.899 118.324C80.377 117.732 87.3665 119.845 87.3665 119.845C87.3665 119.845 89.0945 120.386 89.8828 120.24C90.8178 120.042 90.6161 119.699 90.9095 119.158C91.157 118.713 91.0607 118.622 91.1065 118.127C91.1065 117.833 91.0607 117.687 91.0103 117.393C90.8132 116.555 90.277 115.372 90.277 115.372C90.277 115.372 89.8782 114.487 89.727 114.043C89.5345 113.406 89.3374 113.007 89.2365 112.32C88.9432 110.495 88.9936 110.647 88.9936 109.615C88.9936 107.745 89.1907 106.71 89.6811 104.89C90.4236 102.232 91.8032 101.1 92.8345 98.5421C93.1324 97.8546 93.1278 96.8692 93.4761 96.7683C93.8657 96.7225 93.8199 98.0012 93.6228 98.7392C92.9811 101.297 91.409 102.378 90.6711 104.986C90.1303 107.003 89.8324 108.181 89.9836 110.248C90.0295 111.38 90.474 113.158 90.474 113.158C90.474 113.158 91.0653 115.125 91.3586 115.862C91.6565 116.6 92.2432 117.833 92.2432 117.833L93.5724 120.194L94.2599 121.321C94.2599 121.321 94.7457 121.766 94.5028 122.504C94.2553 123.242 93.7695 123.695 93.1736 124.332C91.5053 126.303 87.6186 129.2 86.6332 129.887C85.2582 130.923 85.2995 131.221 85.1986 131.519C84.6578 133.096 83.0811 133.142 81.3624 135.012C80.9682 135.406 79.937 136.483 80.134 137.418C80.2303 137.762 84.4653 138.504 86.9265 137.473C88.8515 136.634 87.174 135.695 87.7149 134.76C88.109 134.072 89.0899 134.072 89.5345 133.476C90.2678 132.495 89.7774 132.546 90.419 131.762C92.5365 129.2 93.9161 127.729 97.7065 125.414C98.0503 125.217 98.692 124.924 98.692 124.924C98.692 124.924 99.2282 124.672 99.4253 124.374C99.6728 123.98 99.6224 123.64 99.6224 123.196C99.6224 122.898 99.5765 122.756 99.5765 122.462C99.5765 122.114 99.6224 121.917 99.5215 121.573C99.4253 121.032 99.0861 120.588 98.889 120.29C98.5063 119.82 98.2506 119.26 98.1465 118.663C97.8782 117.756 97.9316 116.785 98.2978 115.913C98.692 114.882 99.5765 114.047 99.5765 114.047L101.786 112.567C101.786 112.567 103.711 111.187 104.307 110.642C104.944 110.101 106.172 108.969 107.057 107.69C108.092 106.265 108.633 105.376 109.073 103.657C109.22 103.015 109.371 102.035 109.371 102.035C109.371 102.035 109.371 101.347 109.765 101.301C110.155 101.251 110.256 101.393 110.256 101.393C110.256 101.393 110.595 101.585 110.696 102.571C110.742 103.556 110.453 104.693 110.453 104.693C110.453 104.693 110.155 105.82 110.059 106.508C110.013 106.952 110.004 107.195 110.004 107.69C110.004 108.529 110.352 109.221 110.352 109.221C110.352 109.221 110.549 109.368 110.549 109.024C110.575 108.491 110.66 107.962 110.801 107.447C110.948 106.957 111.044 107.049 111.337 106.21C111.732 105.128 111.383 105.234 111.58 104.592C111.681 104.299 111.929 104.001 112.222 104.001C112.52 104.001 112.566 104.395 112.566 104.395C112.566 104.395 112.864 105.678 112.621 106.856C112.373 108.039 111.484 109.661 111.484 109.661L110.801 110.839C110.801 110.839 110.311 111.678 110.114 112.219C109.917 112.81 109.862 113.057 109.962 113.594C110.109 114.19 110.558 114.982 110.801 114.831C110.998 114.685 110.508 114.19 111.099 113.007C111.69 111.825 112.465 111.091 112.465 111.091C112.465 111.091 113.551 109.808 114.042 108.827C114.486 107.942 114.931 106.508 114.931 106.508C114.931 106.508 115.279 105.225 115.178 104.143C115.132 103.112 114.931 102.571 114.931 102.571L114.491 101.782L114.239 101.2L114.339 100.852C114.436 100.802 114.784 101.049 115.082 101.443C115.441 101.906 115.692 102.443 115.815 103.015C115.95 103.463 116.016 103.928 116.012 104.395C116.012 104.789 115.87 106.412 116.457 107.447C116.704 107.942 117.296 109.07 117.346 108.575C117.442 107.443 116.947 106.907 116.998 105.871C117.044 104.693 117.346 104.986 117.442 104.395C117.543 103.753 117.685 103.602 117.589 102.768C117.49 102.151 117.343 101.543 117.149 100.948L116.801 100.16L116.654 99.8667C116.654 99.8667 116.75 99.7246 116.897 99.7246L118.079 99.3304C118.079 99.3304 119.61 98.6429 120.202 98.1479C120.843 97.7033 121.577 96.9104 121.577 96.9104C121.577 96.9104 122.562 95.6867 123.057 94.8021C124.239 92.5837 124.235 89.7787 124.184 88.4954C124.139 87.2671 123.79 85.64 123.79 85.64C123.79 85.64 123.396 83.6692 123.497 82.3904C123.593 81.1117 123.694 80.5204 123.694 80.5204C123.694 80.5204 123.648 79.2417 124.73 77.8621C125.812 76.4871 126.297 75.6025 126.494 74.5667C126.692 73.6821 126.394 72.2567 125.999 72.7975C125.559 73.3887 125.372 74.5712 124.73 75.5521C123.845 76.9317 122.557 78.6046 121.92 78.6046C121.577 78.6046 121.48 77.8162 121.48 77.8162C121.48 77.8162 121.04 76.4871 121.778 74.8096C122.319 73.6271 122.608 73.2879 123.3 72.4033C123.942 71.5646 124.331 71.12 124.776 70.2354C125.17 69.4471 125.262 69.3004 125.509 68.0721C125.555 67.7742 125.463 67.1371 125.17 67.1829C124.776 67.1829 123.694 69.5525 122.562 70.8817C121.48 72.11 119.459 73.6821 119.459 73.6821C119.459 73.6821 119.262 73.8242 119.262 73.43C119.216 73.0862 119.161 72.055 119.358 71.1246C119.605 69.9548 120.057 68.8377 120.692 67.8246C121.627 66.2021 122.805 65.0746 123.396 64.4787C123.644 64.2358 124.382 63.7867 123.992 63.5392C123.644 63.3421 122.608 64.2267 121.819 64.8225C120.839 65.5558 120.495 65.7621 119.514 66.9446C118.529 68.1225 118.277 68.6175 118.277 68.6175C118.277 68.6175 117.342 70.1392 117.094 71.615C116.847 73.0908 116.851 73.925 116.851 73.925C116.851 73.925 116.851 75.2587 116.998 76.0471C117.094 76.8812 117.442 78.1554 117.442 78.1554C117.442 78.1554 117.937 79.59 118.13 80.4792C118.332 81.3637 118.671 83.9671 118.671 83.9671C118.671 83.9671 118.918 85.8417 118.767 87.6108C118.62 89.3846 118.474 90.4158 118.277 90.9567C118.079 91.5021 117.543 92.9275 116.654 93.9129C115.82 94.8479 115.618 94.9946 115.618 94.9946C115.618 94.9946 114.734 95.7279 113.996 96.1221C113.251 96.5256 112.477 96.8733 111.681 97.1625C111.275 97.2348 110.865 97.2823 110.453 97.3046H109.816L109.619 97.1671L109.513 96.7683C109.513 96.7683 109.027 94.8479 108.441 93.6196C107.946 92.5837 106.91 91.1583 106.91 91.1583C106.91 91.1583 105.136 88.7429 103.757 87.4137C102.18 85.8417 100.411 84.6637 99.3245 83.825C98.9303 83.5317 98.0457 82.9817 98.0457 82.9817C98.0457 82.9817 94.457 79.3929 93.1782 76.5375C92.289 74.5667 91.7024 73.1458 91.9499 70.9779C91.9957 70.4875 92.1928 69.5479 92.289 69.5479L92.9307 69.745C92.9857 69.7908 93.5724 70.3362 94.1178 70.5333C94.4111 70.6296 94.9474 70.7304 94.9474 70.7304C94.9474 70.7304 95.392 70.7762 95.6349 70.8267C95.8824 70.9275 96.327 71.0742 96.6203 71.2208C96.9182 71.3675 97.3536 71.67 97.3536 71.67L98.197 72.3025L99.0861 72.99C99.0861 72.99 99.572 73.3383 99.7186 73.3887C99.8653 73.4346 99.9661 73.485 100.017 73.485H100.214C100.214 73.485 100.415 73.43 100.461 73.2329C100.512 72.99 100.218 73.1871 99.7736 72.6967C99.4992 72.461 99.2667 72.1805 99.0861 71.8671C99.0861 71.8671 98.9853 71.4683 98.5911 71.0237C98.197 70.5792 97.7065 70.1896 97.7065 70.1896C97.7065 70.1896 97.3582 69.9467 96.8632 69.7954C96.3728 69.6488 96.2215 69.6442 96.1757 69.4471C96.1299 69.25 96.767 69.3508 96.767 69.3508C96.767 69.3508 97.5095 69.4471 98.0961 69.745C98.692 70.0383 99.0311 70.3867 99.0311 70.3867L99.4253 70.7304L99.6774 70.9779L99.9157 71.1246C99.9157 71.1246 100.163 71.3675 100.214 71.0237C100.259 70.7304 100.163 70.4829 100.113 70.4325L99.8699 70.1896L98.889 69.3508C98.6514 69.0944 98.3871 68.8639 98.1007 68.6633C97.7026 68.3827 97.2716 68.1518 96.8174 67.9758C96.327 67.7742 96.0336 67.8246 95.5386 67.5771C95.1949 67.4304 94.897 67.3342 94.6999 67.0408C94.6495 66.995 94.4065 66.7887 94.8511 66.8896C95.2911 66.9858 95.5845 67.1371 96.0749 67.2379C96.8632 67.435 97.3582 67.4304 98.1007 67.6779C98.394 67.7742 98.7882 67.9712 98.7882 67.9712L99.7186 68.3654C99.7186 68.3654 101.002 69.0575 101.887 69.1079C102.542 69.1586 103.201 69.0583 103.812 68.8146C104.169 68.6682 104.501 68.4672 104.797 68.2187C104.887 68.1304 104.967 68.032 105.035 67.9254L105.136 67.6779V67.4808C104.889 67.1829 104.403 67.9758 103.614 68.1225C102.776 68.2737 102.822 68.3654 102.281 68.2692C101.754 68.214 101.266 67.9697 100.906 67.5817C100.113 66.8392 99.824 66.1517 98.7882 65.7071C98.3482 65.51 97.5507 65.3129 97.5507 65.3129C97.5507 65.3129 96.469 64.9692 95.8778 64.6254C95.4378 64.3779 94.512 64.2312 94.8053 63.8371C94.952 63.64 96.1345 64.3275 97.0145 64.4283C97.6561 64.5246 98.1007 64.4787 98.5911 64.4787C99.0815 64.4787 99.7736 64.3275 99.8745 64.3275C99.9707 64.2817 100.36 64.3275 100.704 64.4283C101.048 64.5246 101.245 64.6712 101.589 64.8225C101.937 64.9692 102.336 65.2167 102.432 65.2167L102.629 65.2671L102.73 65.1708L102.776 65.07L102.73 64.9738L102.574 64.8729L102.281 64.6758C102.281 64.6758 101.841 64.4283 101.447 64.0342C101.052 63.64 100.704 63.2 100.117 63.0029C99.5215 62.8058 98.834 62.7096 98.834 62.7096L98.1465 62.6546L97.8486 62.6087C97.8486 62.6087 97.3582 62.4575 97.7524 62.3612C97.9769 62.2926 98.2069 62.2435 98.4399 62.2146C98.8165 62.1331 99.2077 62.1489 99.5765 62.2604C99.9707 62.4071 100.612 62.7508 100.658 62.7508C100.709 62.8012 101.3 63.2504 101.942 63.3971C102.583 63.5437 103.417 63.5942 103.417 63.5942L103.812 63.4979L104.009 63.4429L104.151 63.3421L104.105 63.1037C104.105 63.1037 104.105 62.9021 103.812 62.8517C103.297 62.7919 102.805 62.6078 102.377 62.3154C101.836 61.9212 101.447 61.5271 101.447 61.5271C101.447 61.5271 101.052 61.1787 100.264 60.9771C99.5307 60.7846 99.2832 60.7846 99.2832 60.7846L99.0311 60.6837L98.4949 60.4454C98.4949 60.4454 98.2428 60.2942 98.0457 60.0512C97.8486 59.8037 97.5599 59.3546 98.394 59.6021C99.2328 59.8496 99.4253 59.9962 99.4253 59.9962C99.4253 59.9962 99.8699 60.4408 100.264 60.4867C100.512 60.5371 100.709 60.5875 100.86 60.3904C101.103 60.1429 100.411 59.8496 99.9157 59.5012C99.6021 59.256 99.335 58.9564 99.1274 58.6167C99.1274 58.6167 98.8386 58.3737 99.2832 58.4746C99.7232 58.5708 100.507 59.0658 100.507 59.0658C100.507 59.0658 100.901 59.2583 101.103 59.3087C101.245 59.3546 101.644 59.6021 101.841 59.6983C101.987 59.7487 102.437 59.8496 102.725 59.9962C103.119 60.2437 103.321 60.6379 103.514 60.7846C103.711 60.9312 103.862 61.1833 104.109 61.2292C104.352 61.2796 104.398 61.3758 104.545 61.275C104.614 61.2319 104.679 61.1844 104.742 61.1329C104.742 61.1329 104.788 61.0275 104.545 60.8808C104.302 60.7342 104.009 60.3446 104.009 60.3446L103.908 60.1475L103.857 59.9504L103.614 59.5562L103.165 58.9146C103.165 58.9146 102.478 57.9796 101.841 57.6312C101.249 57.2875 100.805 57.095 100.805 57.095C100.805 57.095 100.512 56.9529 100.365 56.8521C100.117 56.655 100.017 56.4992 99.8149 56.2562C99.572 55.9583 99.4803 55.7704 99.1824 55.4771C98.6415 54.9362 96.9686 54.6337 97.6057 54.2396C97.954 54.0425 98.394 54.1479 98.5911 54.1937C98.7882 54.2442 99.2328 54.4321 99.6774 54.5787C99.9707 54.6796 100.168 54.6887 100.461 54.785C100.759 54.8858 101.103 54.9271 101.249 55.0279C101.396 55.1242 101.547 55.3258 101.644 55.3762C101.694 55.4221 102.084 56.0637 102.771 56.4075C103.459 56.7512 103.812 56.9942 104.499 57.04C105.04 57.0904 105.92 56.9025 105.92 56.9025C105.92 56.9025 106.172 56.7971 105.975 56.5496C105.732 56.3021 105.727 56.2562 105.53 56.2104C104.742 55.9125 104.109 56.0133 103.514 55.4221C103.271 55.1746 103.165 55.1242 102.968 54.7346C102.771 54.3404 102.877 54.2442 102.73 54.0012C102.629 53.7537 102.377 53.4054 102.377 53.4054C102.377 53.4054 101.644 52.5162 100.855 52.0762C100.313 51.8006 99.8 51.4704 99.3245 51.0908C99.1778 50.99 98.889 50.5958 98.889 50.5958L98.637 50.2017L98.4949 49.9083C98.394 49.3675 99.3749 50.0596 99.9157 50.2567C100.805 50.55 101.249 50.9442 102.139 51.2421C102.629 51.3887 102.927 51.3842 103.417 51.5812C104.252 51.925 104.499 52.7638 105.388 52.8646C105.879 52.9104 106.864 53.1075 106.667 52.6629C106.47 52.1725 105.484 52.1725 104.994 51.5812C104.747 51.3337 104.747 51.0954 104.499 50.8479C104.105 50.3529 103.17 49.9083 103.17 49.9083C103.17 49.9083 102.877 49.6654 102.528 48.9779C102.235 48.2904 101.497 47.7862 100.168 47.1492C99.2832 46.7092 97.5095 46.6083 98.197 46.1637C98.5911 45.8704 98.9349 45.9208 99.4803 46.0675C100.021 46.2646 100.214 46.5167 100.658 46.7092C101.103 46.9108 101.3 46.9567 101.392 47.0071C101.492 47.0529 101.836 47.2042 101.987 47.2042C102.079 47.25 102.826 47.3508 103.023 47.4012L104.009 47.6442L104.797 47.9375C104.797 47.9375 105.187 48.0887 105.429 48.0887C105.672 48.0887 106.076 47.9925 106.076 47.9925L106.369 47.7954L106.415 47.6946C106.415 47.6946 106.566 47.4517 106.172 47.4012C105.978 47.3702 105.782 47.3518 105.585 47.3462L105.232 47.25L105.095 47.2042C105.095 47.2042 104.403 46.6633 103.812 46.4158C103.562 46.3225 103.315 46.2247 103.069 46.1225L102.826 46.0675L102.533 46.0217C102.533 46.0217 102.281 46.0217 101.887 45.6733C101.492 45.3296 101.346 45.1325 101.002 44.7887L100.562 44.3487C100.562 44.3487 100.168 44.0462 100.168 43.7987C100.214 43.4092 101.052 44.2479 101.052 44.2479L101.648 44.6421C101.648 44.6421 102.139 44.9904 103.023 45.0362C103.908 45.0867 104.994 44.7887 104.994 44.7887C104.994 44.7887 105.136 44.6971 105.627 44.8392C106.117 44.9812 106.516 45.2792 106.516 45.2792L106.91 45.6275L107.501 46.2646L107.597 46.2187C107.643 46.1729 107.895 45.9208 107.455 45.38C107.011 44.8346 106.273 44.3487 106.273 44.3487C106.273 44.3487 105.287 43.7575 104.302 43.5604C103.321 43.3633 102.872 43.3633 102.872 43.3633C102.872 43.3633 102.134 43.3633 101.689 42.8729C101.245 42.3779 100.956 41.8875 100.956 41.8875L100.805 41.2C100.805 41.2 100.562 40.9021 100.072 40.705C99.627 40.5079 99.1274 40.2146 99.1274 40.2146C99.1274 40.2146 98.394 39.9671 98.339 39.6187C98.1924 38.9817 99.5765 39.6187 100.31 39.7654C100.997 39.9121 101.295 40.1642 101.983 40.3154C102.495 40.4609 103.03 40.5076 103.559 40.4529C103.903 40.4529 104.1 40.4162 104.444 40.3612C104.792 40.3612 105.04 40.3154 105.388 40.3612C105.879 40.4621 106.076 40.705 106.566 40.9021C106.864 41.0487 107.011 41.1908 107.354 41.2412C107.652 41.2917 108.244 41.4933 108.143 41.1954L107.992 40.9983C107.744 40.6546 107.455 40.6546 107.157 40.4117C106.516 39.9167 106.222 39.5271 105.484 39.1833C105.069 38.9614 104.62 38.8096 104.155 38.7342C103.757 38.6883 103.463 38.7892 103.069 38.6883C102.624 38.5417 102.482 38.3446 102.038 38.1017C101.35 37.7075 100.952 37.3592 100.214 37.0612C99.7784 36.9048 99.3346 36.7732 98.8845 36.6671L98.5361 36.6212L98.3986 36.5708C97.7065 36.3233 99.6224 35.7871 100.507 35.5396C100.952 35.4433 101.149 35.3379 101.589 35.3883C101.983 35.4342 102.427 35.9842 102.872 35.7367C103.514 35.3929 102.134 34.4533 101.689 34.3067C101.098 34.0592 100.067 34.2608 100.067 34.2608L97.8028 34.2058L97.1611 34.1096C97.1611 34.1096 96.767 34.1096 96.4736 33.7658C96.1757 33.4221 95.0482 32.0379 93.7695 31.8408C92.4403 31.6437 92.0461 31.8408 91.9499 31.7492C90.8178 29.9708 89.6307 29.5812 88.7415 28.7471C88.4986 28.4996 88.109 27.9542 88.0082 28.0046L88.0128 28ZM93.389 33.225C93.4669 33.2212 93.5449 33.2212 93.6228 33.225L93.8657 33.3762C94.0674 33.5756 94.2332 33.8082 94.3561 34.0637C94.4065 34.2608 93.7695 34.0179 93.5265 33.9629C93.2767 33.8932 93.0431 33.7748 92.839 33.6146C92.839 33.6146 92.7336 33.4679 92.9765 33.3212C93.1041 33.2553 93.2455 33.2253 93.389 33.225ZM94.544 35.6542C94.6632 35.6542 94.7503 35.6817 94.7503 35.6817L94.9932 35.8375C95.195 36.0368 95.3609 36.2693 95.4836 36.525C95.534 36.7221 94.897 36.4792 94.654 36.4242C94.4042 36.3544 94.1706 36.2361 93.9665 36.0758C93.9665 36.0758 93.8657 35.9292 94.1636 35.7825C94.2729 35.6996 94.4069 35.656 94.544 35.6587V35.6542ZM85.9182 35.7183C86.0407 35.7121 86.1636 35.7182 86.2849 35.7367C86.2849 35.7367 86.482 35.7367 86.7753 35.8787C87.0732 36.0758 87.2703 36.6671 87.2703 36.6671C87.2703 36.6671 87.3161 36.7679 87.0732 36.7679C86.922 36.7679 86.922 36.525 86.7753 36.4242C86.5782 36.2775 86.4315 36.2271 86.184 36.1308C85.9411 36.0346 85.5974 36.1767 85.5515 35.9337C85.5515 35.7871 85.7349 35.7321 85.9182 35.7183ZM82.0499 36.2912C82.2424 36.2362 82.0499 36.6212 82.0499 36.6212C82.0499 36.6212 81.4128 37.6525 80.5282 38.0467C79.6436 38.4408 79.0524 38.6425 77.3749 38.7892C77.132 38.7892 77.2374 38.6379 77.2374 38.6379C77.2374 38.6379 79.1486 38.1017 80.2349 37.5104C80.753 37.2229 81.2466 36.8933 81.7107 36.525C81.8091 36.4289 81.924 36.3467 82.0499 36.2912ZM85.4965 36.5662C85.4965 36.5662 85.7945 36.5754 86.1382 36.8183C86.4865 37.0658 86.7799 37.9046 86.7799 37.9046C86.7799 37.9046 86.8807 38.4408 86.6332 38.6379C86.3857 38.835 85.9915 38.4958 85.7899 38.1979C85.6143 37.9496 85.3531 37.7749 85.0565 37.7075C84.6624 37.5608 84.0711 38.0008 83.9749 37.7075C83.9749 37.6067 84.0207 37.3592 84.0207 37.3592C84.0207 37.3592 84.1215 37.0658 84.5661 36.8229C84.9603 36.5754 85.4965 36.5708 85.4965 36.5708V36.5662ZM94.654 38.4683C94.8511 38.4867 95.1261 38.6379 95.3415 38.6379C95.9832 38.6379 96.5195 38.6379 96.964 38.7342C97.3582 38.835 97.4545 39.0779 97.2574 39.0779C97.114 39.1162 96.9657 39.1332 96.8174 39.1283C96.3774 39.1283 96.4232 38.9312 95.8365 39.2292C95.2407 39.5225 95.6853 39.3804 94.8511 39.6737C94.0628 39.9717 94.2553 39.1833 94.2553 39.1833C94.2553 39.1833 94.3149 39.0321 94.4111 38.6333C94.4478 38.4912 94.5349 38.4546 94.654 38.4683ZM72.4524 40.7508C72.7503 40.7508 73.2957 40.9525 73.2957 41.3925C73.3415 41.8371 72.9932 41.64 72.7457 41.7867C72.6036 41.8875 72.5074 41.9379 72.3103 42.0846C72.0628 42.2817 71.8153 42.7721 71.6686 42.6208C71.467 42.4742 71.5678 41.9333 71.5678 41.9333C71.5678 41.9333 71.719 41.5392 71.9161 41.145C72.1636 40.7508 72.4524 40.7508 72.4524 40.7508ZM95.997 41.2596C96.0745 41.2633 96.1513 41.2756 96.2261 41.2962C96.2261 41.2962 96.3728 41.3421 96.469 41.4383C96.5699 41.5392 96.964 41.8875 96.964 42.08C96.964 42.2312 96.327 41.9792 96.0336 41.9333C95.7357 41.8829 95.3461 41.5896 95.3461 41.5896C95.3461 41.5896 95.2453 41.4979 95.5386 41.3512C95.6815 41.2835 95.839 41.252 95.997 41.2596ZM87.3115 41.6629C87.3574 41.6629 87.3528 41.7317 87.2657 41.8875C87.0732 42.2817 86.482 42.7721 86.482 42.7721C86.482 42.7721 85.7945 43.7529 85.6478 43.8996C85.0061 44.3946 84.2178 44.1012 83.874 44.1517C83.5807 44.1975 83.7778 43.8996 83.7778 43.8996C83.7778 43.8996 84.6165 43.5604 85.1528 43.2671C85.877 42.905 87.1099 41.6629 87.3115 41.6629ZM77.1915 42.5292C77.297 42.5292 77.3795 42.575 77.3795 42.7262C77.4299 43.07 76.7928 43.3129 76.7928 43.3129C76.7928 43.3129 76.6003 43.3633 76.5499 43.0196C76.504 42.6758 76.7928 42.6254 76.7928 42.6254C76.7928 42.6254 77.022 42.5154 77.1915 42.5292ZM89.3832 43.0654C89.4657 43.0196 89.397 43.51 89.397 43.51C89.397 43.51 89.2457 44.1562 88.902 44.3533C88.462 44.6008 87.3711 44.8942 87.2749 44.7475C87.2749 44.6467 88.7003 44.1975 89.3374 43.1204C89.3482 43.0988 89.3639 43.0799 89.3832 43.0654ZM96.0474 43.2442C96.1276 43.2446 96.2075 43.2538 96.2857 43.2717C96.2857 43.2717 96.4232 43.3175 96.5745 43.4092C96.7211 43.5604 97.0695 43.9592 97.1199 44.1562C97.1657 44.3533 96.4782 44.1104 96.1345 44.06C95.8411 44.0096 95.392 43.6658 95.392 43.6658C95.392 43.6658 95.3003 43.5146 95.5982 43.3679C95.7324 43.2831 95.8887 43.2401 96.0474 43.2442ZM90.0845 44.3625C90.1761 44.335 90.0295 44.7475 90.0295 44.7475C90.0295 44.7475 89.8324 45.3892 89.4382 45.5358C88.9478 45.6825 87.0824 45.7283 87.032 45.5817C86.9861 45.4304 89.1953 45.2333 90.0295 44.3992C90.044 44.382 90.063 44.3693 90.0845 44.3625ZM96.1986 45.2104C96.291 45.2103 96.3831 45.2195 96.4736 45.2379C96.4736 45.2379 96.6249 45.2837 96.7715 45.3846C96.9182 45.5312 97.3124 45.9804 97.3628 46.2233C97.4086 46.5212 96.6753 46.2233 96.3315 46.1271C96.0237 46.0341 95.7371 45.8815 95.4882 45.6779C95.4882 45.6779 95.392 45.5358 95.6853 45.3387C95.8408 45.2482 96.0188 45.2036 96.1986 45.2104ZM96.1986 47.6717C96.291 47.6716 96.3831 47.6808 96.4736 47.6992C96.4736 47.6992 96.6249 47.745 96.7715 47.8458C96.9182 47.9925 97.3124 48.4417 97.3628 48.6846C97.4086 48.9321 96.6753 48.6342 96.3315 48.5333C96.024 48.4442 95.7372 48.2947 95.4882 48.0933C95.4882 48.0933 95.392 47.9971 95.6853 47.8C95.8412 47.711 96.0192 47.6681 96.1986 47.6763V47.6717ZM89.012 50.0275C89.3924 50.1375 89.044 52.9104 88.3107 54.1983C87.366 55.7795 86.2231 57.2335 84.9099 58.525C84.2224 59.0154 84.667 58.1308 84.667 58.1308C84.667 58.1308 86.5828 55.4771 87.472 53.6071C88.1136 52.2779 88.5078 50.5087 88.8011 50.1604C88.8928 50.0596 88.957 50.0138 89.012 50.0275ZM96.1161 50.0642C96.2229 50.0677 96.329 50.083 96.4324 50.11C96.4324 50.11 96.6249 50.1558 96.7715 50.3071C96.9182 50.4537 97.4132 50.9992 97.459 51.2467C97.459 51.54 96.6249 51.1412 96.2353 51.0954C95.8932 50.9991 95.5759 50.8303 95.3049 50.6004C95.3049 50.6004 95.1995 50.4033 95.5432 50.2062C95.7141 50.0989 95.9149 50.0491 96.1161 50.0642ZM95.8045 52.4475C95.8967 52.4459 95.9888 52.4536 96.0795 52.4704C96.0795 52.4704 96.2307 52.5254 96.3774 52.6262C96.524 52.7729 96.9182 53.2129 96.9686 53.4558C97.0145 53.7033 96.2811 53.41 95.9374 53.3596C95.6331 53.2693 95.3496 53.1197 95.1032 52.9196C95.1032 52.9196 95.0115 52.7683 95.3003 52.5712C95.453 52.4825 95.628 52.4396 95.8045 52.4475ZM95.6624 54.5833C95.7357 54.5797 95.8091 54.5797 95.8824 54.5833L96.1345 54.7346C96.3376 54.9337 96.505 55.1663 96.6295 55.4221C96.6295 55.6237 96.0336 55.3762 95.7403 55.3304C95.447 55.28 95.0528 54.9867 95.0528 54.9867C95.0528 54.9867 94.952 54.84 95.2499 54.6933C95.3768 54.6247 95.5181 54.587 95.6624 54.5833ZM95.392 56.6779C95.4613 56.6822 95.5302 56.6914 95.5982 56.7054L95.7953 56.8062C95.8915 56.9025 96.1803 57.1958 96.1803 57.3425C96.1803 57.5396 95.644 57.2967 95.447 57.2967C95.2496 57.2376 95.0669 57.1377 94.9107 57.0033C94.9107 57.0033 94.8557 56.8979 95.0482 56.7512C95.149 56.6779 95.2774 56.6733 95.392 56.6779ZM94.9795 58.6121C95.0361 58.6118 95.0927 58.6148 95.149 58.6212L95.3461 58.7221C95.447 58.8183 95.6853 59.0658 95.6853 59.2125C95.6395 59.3133 95.1949 59.1162 94.9978 59.1162C94.8248 59.0562 94.66 58.9746 94.5074 58.8733C94.5074 58.8733 94.4615 58.7725 94.6586 58.6762C94.7596 58.6317 94.8691 58.6098 94.9795 58.6121ZM60.1049 59.5608C60.6457 59.6617 60.7465 59.7075 60.6961 59.955C60.742 60.2025 60.059 60.1979 60.059 60.1979C60.059 60.1979 59.069 60.3996 59.2203 60.0558C59.4174 59.7075 60.1049 59.5608 60.1049 59.5608ZM94.5303 60.1337C94.6311 60.1337 94.7136 60.1521 94.7136 60.1521L94.9107 60.2529C95.007 60.3492 95.2499 60.5967 95.2499 60.7433C95.1995 60.89 94.7549 60.6975 94.5624 60.6471C94.3607 60.5967 94.0674 60.395 94.0674 60.395C94.0674 60.395 94.0215 60.2942 94.2186 60.1979C94.3164 60.1534 94.4229 60.1315 94.5303 60.1337ZM93.9803 61.8617C94.0263 61.8616 94.0722 61.8646 94.1178 61.8708L94.2645 61.9717C94.3103 62.0175 94.5578 62.265 94.5578 62.3658C94.5578 62.5125 94.2095 62.3658 94.0124 62.32C93.8657 62.2742 93.6274 62.1229 93.6274 62.1229C93.6274 62.1229 93.5815 62.0221 93.7282 61.9258C93.803 61.8814 93.8934 61.8591 93.9803 61.8617ZM79.9507 62.4117C80.2295 62.4115 80.5081 62.4284 80.7849 62.4621C82.1599 62.6592 83.489 63.8921 83.2874 64.0387C83.0903 64.1854 82.797 64.0387 82.6961 64.0387L82.2057 63.7958L81.4632 63.5987C81.4632 63.5987 80.134 63.3008 79.1532 63.3467C78.1678 63.3971 77.2832 63.7408 77.2832 63.7408C77.2832 63.7408 76.889 63.9425 76.7928 63.695C76.7424 63.4017 76.944 63.2504 76.944 63.2504L76.9899 63.1496C76.9899 63.1496 78.1174 62.4025 79.9507 62.4117ZM56.5161 62.9983C56.5482 62.9983 56.562 63.0075 56.562 63.0075L56.6582 63.1083C56.6124 63.1083 56.8049 63.5987 56.3649 64.0892C55.9203 64.5842 54.5453 67.1921 54.252 66.7475C53.954 66.4038 55.5811 63.9379 55.9249 63.4475C56.1815 63.0396 56.4153 62.9983 56.5161 62.9983ZM93.412 63.5346C93.4807 63.5346 93.5311 63.5437 93.5311 63.5437L93.6732 63.5987L93.9253 63.9379C93.8749 64.0846 93.577 63.9883 93.4303 63.9379C93.2836 63.9379 93.082 63.7408 93.082 63.7408C93.082 63.7408 93.0361 63.695 93.1828 63.6033C93.2512 63.5592 93.3306 63.5354 93.412 63.5346ZM62.3232 64.9233C62.4011 64.8958 62.4561 64.96 62.5203 64.9783L62.7632 65.0746L62.9145 65.2212L63.4095 65.7117C63.6065 66.005 64.1428 66.995 64.042 67.0867C63.602 67.5312 63.4553 66.94 62.8182 66.2021C62.1765 65.5146 62.3232 64.9233 62.3232 64.9233ZM92.7245 65.1525C92.7636 65.1539 92.8023 65.1616 92.839 65.1754L92.9857 65.2212L93.2332 65.5696C93.2332 65.6658 92.9353 65.5146 92.7886 65.5146C92.6374 65.5146 92.4449 65.3175 92.4449 65.3175C92.4449 65.3175 92.344 65.2717 92.4907 65.2212C92.5609 65.1779 92.642 65.1557 92.7245 65.1571V65.1525ZM70.4999 66.9446C70.6603 66.9583 70.4403 67.2425 70.4403 67.2425C70.4403 67.2425 69.597 68.37 69.1065 69.0621C68.4649 69.9925 67.6765 71.4179 67.5299 71.2712C67.3832 71.1246 68.222 69.5571 68.6665 68.7183C69.157 67.6871 69.8949 67.1462 70.1882 67.0454C70.2843 66.9921 70.3904 66.9593 70.4999 66.9492V66.9446ZM56.5115 70.6342L56.6078 70.735C56.6078 70.735 56.6582 70.9275 56.3145 71.4683C55.9707 72.0092 55.7186 72.0137 55.7186 72.0137C55.7186 71.9679 55.627 71.7708 55.9203 71.1796C56.2136 70.5883 56.5115 70.6342 56.5115 70.6342ZM50.4753 72.5592C50.5038 72.5667 50.5293 72.5827 50.5486 72.605C50.6953 72.8021 50.2553 73.6867 50.2553 73.6867C50.2553 73.6867 49.8107 74.6171 49.6595 74.2229C49.5128 73.8792 49.8153 73.2421 49.8153 73.2421C50.159 72.9396 50.3103 72.5271 50.4753 72.5592ZM89.7315 73.8287C90.1715 73.8792 90.1257 74.7179 90.1257 74.915C90.2724 76.3404 90.8682 77.775 91.9499 79.4983C93.4761 81.9092 95.9374 83.7792 95.8365 83.9304C95.589 84.1733 93.1324 82.2529 92.2432 81.1712C90.7674 79.3975 89.6765 77.4771 89.3374 75.0662C89.2365 74.5254 89.2365 73.7325 89.7315 73.8287ZM60.7465 74.5162C60.8428 74.5162 61.2828 74.6721 61.2828 74.6721L62.3645 75.1121C62.4103 75.1121 62.9603 75.3596 63.4049 75.6025L64.4774 76.29L64.7799 76.5421C64.7799 76.6429 65.1236 77.1837 64.4315 77.0371C63.744 76.8858 62.2682 75.7537 61.677 75.4604C61.0811 75.1671 60.1049 75.0662 60.5495 74.6721C60.5953 74.6262 60.6457 74.5162 60.7465 74.5162ZM55.5215 77.2342C55.5548 77.2277 55.5891 77.2277 55.6224 77.2342C55.9203 77.2342 55.9203 77.4725 55.9203 77.4725V77.6237C55.9203 77.6237 55.9157 78.5129 55.9661 79.2004C55.9661 79.3975 56.5115 81.6112 56.5115 81.6112C56.5115 81.6112 56.6078 81.8083 56.4107 81.8083C56.264 81.8083 56.1174 81.5104 56.1174 81.5104C56.1174 81.5104 55.7186 80.9237 55.5674 80.4837C55.4253 80.0896 55.3749 79.4433 55.3749 79.4433C55.3749 79.4433 55.274 78.6092 55.274 78.3158C55.3245 77.9217 55.3245 77.5733 55.3749 77.3762C55.3816 77.341 55.3987 77.3087 55.4241 77.2834C55.4494 77.258 55.4863 77.2409 55.5215 77.2342ZM48.6924 78.4121C48.7375 78.4004 48.7848 78.4004 48.8299 78.4121C49.1232 78.4625 48.972 78.9987 48.972 79.2462C48.972 79.4937 48.6878 79.9337 48.587 79.9337C48.4907 79.9337 48.289 79.4937 48.3395 79.2462C48.3853 79.0308 48.4174 78.4808 48.6924 78.4121ZM73.6349 82.505C74.194 82.4592 75.812 84.7829 78.1632 87.3175C80.8215 90.1775 83.9199 92.8862 84.0207 93.23C84.2178 93.8212 81.8528 91.9467 80.574 90.9658C77.1778 88.3533 73.0436 83.0412 73.5386 82.5508C73.5647 82.5253 73.5986 82.5092 73.6349 82.505ZM120.719 84.9021C120.811 84.8929 120.889 85.0121 120.889 85.0121L120.99 85.1542C120.99 85.255 121.577 87.565 121.526 89.0408C121.425 91.1033 121.334 92.5837 120.105 94.1604C118.625 96.0808 116.063 98.0562 116.604 96.4796C116.947 95.5446 119.216 94.3621 120.101 91.7542C120.596 90.1775 120.697 88.6971 120.697 88.6971L120.596 85.6996C120.596 85.6996 120.541 85.4567 120.541 85.1083C120.596 84.9617 120.66 84.9112 120.719 84.9021ZM95.612 90.0354C96.0703 90.0858 96.2765 90.3746 95.7357 90.7687C95.094 91.2087 94.8511 91.1583 94.4524 91.5983C94.0124 92.1392 93.8703 93.9679 93.4257 93.23C92.9857 92.4921 93.279 91.4562 94.0215 90.6679C94.219 90.4456 94.4655 90.2723 94.7416 90.1617C95.0176 90.0511 95.3156 90.0109 95.612 90.0354ZM59.8665 92.0475C60.0545 92.0108 60.5495 92.3867 60.5495 92.3867C60.7924 92.4325 61.0399 92.8817 61.0399 92.8817C61.0399 92.8817 61.1407 93.23 60.8428 93.3262C60.5495 93.4729 60.3524 93.175 60.3524 93.175C60.3524 93.175 59.7107 92.2904 59.8024 92.0933C59.8087 92.0812 59.8178 92.0707 59.829 92.0627C59.8401 92.0548 59.853 92.0495 59.8665 92.0475ZM107.107 99.0371C107.203 99.0371 107.405 99.1379 107.652 99.6329C107.9 100.128 107.258 103.611 106.47 103.116C106.025 102.823 106.713 101.943 106.713 101.205C106.713 100.614 106.612 100.165 106.612 99.6742C106.612 99.1837 107.107 99.0371 107.107 99.0371ZM92.4999 105.11C92.674 105.128 92.7199 105.376 92.4815 105.871C92.1378 106.609 92.0415 106.856 91.9911 107.548C91.8903 108.282 92.3395 110.344 91.652 109.565C91.4045 109.217 91.157 107.594 91.354 106.806C91.5695 105.697 92.2065 105.087 92.4999 105.11ZM88.7415 114.817C88.9065 114.795 88.989 114.877 88.989 114.877C89.0899 115.074 88.8882 115.276 88.8378 115.326C88.6523 115.423 88.4527 115.489 88.2465 115.523C87.9532 115.569 88.109 115.326 88.109 115.326C88.109 115.326 88.297 115.024 88.5445 114.877C88.6063 114.846 88.673 114.826 88.7415 114.817ZM75.5553 115.862C75.9495 115.862 75.9495 116.06 75.9495 116.06C75.9495 116.206 75.7982 116.261 75.3995 116.211C75.0603 116.165 75.0145 116.064 75.0649 116.014C75.0649 115.968 75.1611 115.862 75.5553 115.862ZM78.5436 116.005C78.5805 116.001 78.6179 116.004 78.6536 116.014C78.6536 116.014 80.3265 116.307 81.4082 116.353C82.1965 116.403 82.5907 116.458 83.379 116.408C83.8236 116.408 83.5761 116.353 84.2636 116.353C84.5111 116.307 84.3645 116.655 84.1674 116.706C83.4295 116.903 83.1315 116.797 82.4945 116.848C81.949 116.894 81.7015 116.944 81.1607 116.944C80.2257 116.944 80.134 116.999 78.8049 116.605C78.5574 116.509 78.2549 116.211 78.3557 116.115C78.3768 116.083 78.4047 116.057 78.4372 116.038C78.4697 116.019 78.5061 116.008 78.5436 116.005ZM67.3832 116.302C67.9607 116.316 67.7774 116.509 67.7774 116.509C67.7774 116.509 67.7728 116.701 67.429 116.944C67.0807 117.192 66.9386 117.045 66.8882 117.045C66.8424 117.045 66.494 116.848 66.494 116.651C66.5445 116.454 67.0899 116.312 67.0899 116.312C67.1873 116.302 67.2853 116.299 67.3832 116.302ZM98.3711 123.086C98.4111 123.085 98.451 123.088 98.4903 123.095L98.5865 123.292C98.5865 123.338 98.1924 123.888 97.9953 123.888C97.7524 123.833 97.844 123.544 97.844 123.544C97.844 123.544 97.7478 123.246 98.0411 123.15C98.147 123.111 98.2584 123.09 98.3711 123.086ZM94.6953 124.543C94.732 124.543 94.7778 124.548 94.8007 124.571V124.768C94.8465 124.919 93.5632 126.349 92.6786 127.188C91.8445 127.976 90.4145 129.058 90.4145 129.058H90.2174V128.806L90.2724 128.71L90.3686 128.563L90.4695 128.412L90.5657 128.274L90.8636 127.921L91.5511 127.284L92.2386 126.642L93.3249 125.556C93.3249 125.556 93.7145 125.121 93.8611 125.02C94.0078 124.924 94.1086 124.823 94.2553 124.727C94.402 124.653 94.5761 124.552 94.6953 124.543ZM87.5774 130.47C87.6179 130.464 87.6593 130.466 87.6988 130.477C87.7382 130.488 87.7749 130.508 87.8065 130.534C87.9578 130.877 87.7149 130.974 87.7149 130.974L87.2657 131.322C87.2153 131.322 86.922 131.57 86.8257 131.418C86.7249 131.272 86.8715 131.075 86.8715 131.024C86.8715 130.978 87.1695 130.635 87.417 130.534C87.4655 130.502 87.5201 130.48 87.5774 130.47ZM82.7786 135.025C82.9803 135.002 83.127 135.305 83.127 135.305C83.127 135.305 83.2278 135.447 83.2278 135.644C83.2278 135.795 82.7832 135.745 82.5403 135.942C82.2424 136.139 82.8382 136.735 81.8986 136.685C81.3624 136.639 81.6557 136.144 81.7061 136.093L82.0453 135.603C82.2928 135.255 82.444 135.204 82.687 135.053C82.715 135.037 82.7464 135.027 82.7786 135.025Z" fill="white"/>
</svg>
