<svg width="73" height="73" viewBox="0 0 73 73" fill="none" xmlns="http://www.w3.org/2000/svg">
<path d="M5.21373 51.2699V49.3239L14.7166 38.6421C15.9571 37.2405 16.9562 36.0426 17.7137 35.0483C18.4713 34.054 19.0206 33.1354 19.3615 32.2926C19.7118 31.4498 19.887 30.5739 19.887 29.6648C19.887 28.5568 19.6266 27.5909 19.1058 26.7671C18.5944 25.9337 17.8889 25.285 16.9893 24.821C16.0897 24.357 15.0764 24.125 13.9495 24.125C12.7563 24.125 11.7099 24.3807 10.8103 24.8921C9.92017 25.4034 9.22889 26.1042 8.73646 26.9943C8.24404 27.8845 7.99783 28.9072 7.99783 30.0625H5.45521C5.45521 28.4527 5.82453 27.0275 6.56317 25.7869C7.31127 24.5369 8.32926 23.5568 9.61714 22.8466C10.9145 22.1364 12.3823 21.7813 14.0206 21.7813C15.6399 21.7813 17.0793 22.1316 18.3387 22.8324C19.5982 23.5237 20.5878 24.4659 21.3075 25.6591C22.0272 26.8523 22.387 28.1875 22.387 29.6648C22.387 30.7349 22.1976 31.7718 21.8188 32.7756C21.4495 33.7794 20.8103 34.8968 19.9012 36.1279C18.9921 37.3589 17.7327 38.8646 16.1228 40.6449L8.90692 48.6989V48.8835H23.2961V51.2699H5.21373ZM38.6619 51.6676C36.6164 51.6676 34.8693 51.0805 33.4204 49.9063C31.981 48.7225 30.8731 47.0133 30.0965 44.7784C29.3295 42.5436 28.946 39.8589 28.946 36.7244C28.946 33.5994 29.3295 30.9243 30.0965 28.6989C30.8731 26.464 31.9858 24.7547 33.4346 23.571C34.8929 22.3779 36.6354 21.7813 38.6619 21.7813C40.6884 21.7813 42.4261 22.3779 43.875 23.571C45.3333 24.7547 46.446 26.464 47.213 28.6989C47.9895 30.9243 48.3778 33.5994 48.3778 36.7244C48.3778 39.8589 47.9895 42.5436 47.213 44.7784C46.446 47.0133 45.338 48.7225 43.8892 49.9063C42.4498 51.0805 40.7073 51.6676 38.6619 51.6676ZM38.6619 49.2813C40.9062 49.2813 42.6581 48.1875 43.9176 46C45.177 43.803 45.8068 40.7112 45.8068 36.7244C45.8068 34.0729 45.5179 31.8097 44.9403 29.9347C44.3721 28.0502 43.553 26.6108 42.4829 25.6165C41.4223 24.6222 40.1486 24.125 38.6619 24.125C36.4365 24.125 34.6893 25.233 33.4204 27.4489C32.1515 29.6553 31.517 32.7472 31.517 36.7244C31.517 39.376 31.8011 41.6392 32.3693 43.5142C32.9469 45.3892 33.7661 46.8191 34.8267 47.804C35.8967 48.7888 37.1751 49.2813 38.6619 49.2813Z" fill="url(#paint0_linear_1510_1855)"/>
<path d="M60.4296 46.3722V31.9858H62.3728V46.3722H60.4296ZM54.2024 40.1449V38.2131H68.6001V40.1449H54.2024Z" fill="url(#paint1_linear_1510_1855)"/>
<defs>
<linearGradient id="paint0_linear_1510_1855" x1="1.9751" y1="35.6545" x2="50.9751" y2="35.6545" gradientUnits="userSpaceOnUse">
<stop stop-color="#BE6552"/>
<stop offset="0.490144" stop-color="#ECA9A0"/>
<stop offset="1" stop-color="#BE6552"/>
</linearGradient>
<linearGradient id="paint1_linear_1510_1855" x1="50.9751" y1="35.8853" x2="71.9751" y2="35.8853" gradientUnits="userSpaceOnUse">
<stop stop-color="#BE6552"/>
<stop offset="0.490144" stop-color="#ECA9A0"/>
<stop offset="1" stop-color="#BE6552"/>
</linearGradient>
</defs>
</svg>
