<svg width="50" height="51" viewBox="0 0 50 51" fill="none" xmlns="http://www.w3.org/2000/svg">
<path d="M49.2254 50.39C44.9131 49.1458 40.6573 47.8875 36.3874 46.6998C35.7653 46.5302 34.9453 46.6008 34.3514 46.8553C32.7255 47.5623 31.142 48.3823 29.5726 49.2306C28.8232 49.6407 28.2011 49.6548 27.4376 49.2306C25.8824 48.3682 24.2988 47.5623 22.6587 46.8553C22.0649 46.6008 21.2449 46.5019 20.6228 46.6715C16.6922 47.7602 12.7899 48.9337 8.87348 50.079C8.49173 50.1921 8.09586 50.2345 7.64342 50.3193C7.51617 49.9376 7.4172 49.5983 7.24754 49.1034C9.18454 48.5378 11.065 47.9723 12.9454 47.4209C15.2359 46.7564 17.5122 46.0636 19.8168 45.4415C20.7359 45.187 21.1459 44.7487 21.1176 43.7448C21.0611 40.7615 21.259 41.214 18.5868 41.1857C15.6318 41.1716 12.6768 41.1574 9.70766 41.1857C8.74623 41.1857 8.42103 40.8181 8.42103 39.8991C8.44931 37.6652 8.39277 35.4454 8.43518 33.2115C8.44932 32.2218 8.09584 31.8824 7.09199 31.8966C3.82594 31.939 4.15114 32.2642 4.137 28.885C4.137 24.8696 4.05215 20.8542 4.16526 16.853C4.22182 14.9725 4.67427 13.1062 4.88635 11.2257C4.92877 10.7874 4.85807 10.1653 4.5753 9.86843C2.41207 7.62037 1.16786 4.99057 0.814389 1.89419C0.658863 0.508596 0.842694 0.225821 2.25657 0.225821C9.26937 0.225821 16.2822 0.324792 23.2808 0.197543C29.7847 0.0702945 35.9208 5.40059 35.8926 12.8376C35.8643 22.8902 35.8926 32.9428 35.8926 42.9813C35.8926 45.1163 35.8926 45.088 37.9427 45.6818C41.5198 46.6998 45.0686 47.7885 48.6598 48.7641C49.6637 49.0327 49.8758 49.4286 49.2113 50.3759L49.2254 50.39ZM27.0559 31.0624L26.5893 31.2462C26.5893 31.9955 26.5893 32.7449 26.5893 33.4942C26.5893 34.729 25.9908 35.3464 24.7937 35.3464C22.8143 35.3464 20.8207 35.3747 18.8413 35.3464C17.9505 35.3323 17.2719 35.4737 16.6498 36.2513C15.8156 37.2834 14.5997 37.2551 13.412 36.8734C12.4081 36.5623 11.8992 35.8413 11.8285 34.795C11.7719 33.7629 12.1537 32.8721 13.1292 32.5328C14.2745 32.1369 15.6459 31.8966 16.5366 32.9428C17.286 33.8194 18.0919 33.9043 19.0816 33.876C20.0996 33.8477 21.1035 33.876 22.1215 33.876C25.3592 33.876 25.331 33.876 25.3168 30.5958C25.3168 29.7616 25.0765 29.3799 24.2423 29.1678C21.9659 28.5598 20.3965 27.0894 19.7037 24.8413C18.5585 21.1511 20.4814 17.6165 24.2988 16.5136C25.7834 16.0895 25.2178 15.0291 25.2603 14.1807C25.3027 13.1628 24.4543 13.4879 23.9312 13.4738C20.7359 13.4172 17.5264 13.3607 14.331 13.389C11.8143 13.4031 9.39662 13.1062 7.20512 11.7913C6.55474 11.4096 6.21538 11.5934 6.11641 12.2862C5.96089 13.2759 5.69227 14.2797 5.69227 15.2694C5.63571 19.3555 5.664 23.4557 5.664 27.5418C5.664 30.4403 5.66398 30.4686 8.50586 30.5675C9.49557 30.5958 9.84903 30.9775 9.82075 31.9673C9.7642 34.1163 9.86317 36.2654 9.77834 38.4145C9.72178 39.6305 10.1884 39.9274 11.3195 39.9132C14.5573 39.8567 17.8091 39.9132 21.0469 39.8708C22.079 39.8567 22.5456 40.1394 22.4608 41.2423C22.3901 42.2037 22.4749 43.1934 22.4325 44.1548C22.4042 44.8476 22.6305 45.2718 23.2808 45.5829C24.822 46.3039 26.3065 47.1381 27.8618 47.8309C28.2577 48.0147 28.8939 47.944 29.3039 47.7602C30.7743 47.0957 32.2024 46.3039 33.6587 45.6253C34.3515 45.3001 34.5635 44.8476 34.5494 44.1124C34.507 41.5533 34.4929 39.0083 34.5494 36.4492C34.5635 35.5726 34.2384 35.2333 33.4042 35.1202C31.3682 34.8233 29.6574 33.8901 28.2294 32.4197C27.8194 31.9955 27.4517 31.5148 27.0559 31.0624ZM13.6948 1.569C10.2449 1.569 6.80924 1.569 3.35939 1.569C2.65245 1.569 2.18586 1.65383 2.28483 2.57285C2.8221 7.32346 7.601 11.862 12.3233 11.9468C16.2963 12.0175 20.2693 11.9468 24.2281 11.9751C25.0199 11.9751 25.2885 11.7206 25.2885 10.9288C25.2602 8.45456 25.2885 5.98028 25.2885 3.52014C25.2885 1.63969 25.2461 1.58314 23.295 1.58314C20.0996 1.58314 16.8901 1.58314 13.6948 1.58314V1.569ZM34.5353 33.6922C34.5353 33.2822 34.5353 32.8439 34.5353 32.4197C34.5353 25.8169 34.606 19.2141 34.507 12.6113C34.4363 7.98798 32.1741 4.6371 28.0173 2.61526C26.8297 2.03558 26.6035 2.17696 26.6035 3.506C26.6035 7.30932 26.6176 11.1268 26.5751 14.9301C26.5751 15.8491 26.8579 16.2874 27.7628 16.5419C30.5764 17.3478 32.4286 19.61 32.5558 22.5791C32.6407 24.7848 31.6651 27.457 28.7101 28.8143C28.3991 28.9557 28.1021 29.1395 27.8052 29.295C28.7525 31.8259 32.0327 34.0032 34.5353 33.6922ZM31.1278 22.8054C31.1278 19.9069 28.7667 17.5882 25.8824 17.6165C23.0829 17.6447 20.7359 20.0342 20.75 22.8478C20.75 25.7179 23.1394 28.0508 26.0379 28.0226C28.8939 27.9943 31.142 25.7038 31.1278 22.8195V22.8054ZM14.628 36.0816C15.2218 35.403 15.5894 34.9788 15.9711 34.5688C15.5187 34.2719 15.1087 33.8194 14.6138 33.6922C13.9493 33.5225 13.1716 33.7911 13.2848 34.6253C13.3413 35.0636 14.0058 35.4312 14.6421 36.0958L14.628 36.0816Z" fill="url(#paint0_linear_625_1615)"/>
<defs>
<linearGradient id="paint0_linear_625_1615" x1="0.768555" y1="23.3621" x2="49.5938" y2="23.3621" gradientUnits="userSpaceOnUse">
<stop stop-color="#BE6552"/>
<stop offset="0.490144" stop-color="#ECA9A0"/>
<stop offset="1" stop-color="#BE6552"/>
</linearGradient>
</defs>
</svg>
