<svg width="124" height="124" viewBox="0 0 124 124" fill="none" xmlns="http://www.w3.org/2000/svg">
<path d="M43.4999 86.9302C54.9855 86.9302 65.7835 82.4572 73.9054 74.3356C82.027 66.2139 86.5 55.4157 86.5 43.9301C86.5 32.4446 82.027 21.6465 73.9054 13.5247C65.7837 5.40301 54.9855 0.930176 43.4999 0.930176C19.7896 0.930176 0.5 20.2198 0.5 43.9301C0.5 55.4157 4.97284 66.2139 13.0946 74.3356C21.2163 82.4572 32.0145 86.9302 43.4999 86.9302Z" fill="black"/>
<path d="M2.6626 63.4302C2.6626 47.3139 8.93889 32.1618 20.3353 20.7654C31.7316 9.36881 46.8835 3.09277 63 3.09277C79.1165 3.09277 94.2686 9.36881 105.665 20.7654C117.061 32.1618 123.337 47.3137 123.337 63.4302C123.337 96.7006 96.2701 123.768 63 123.768C46.8835 123.768 31.7316 117.492 20.3353 106.095C8.93889 94.6986 2.6626 79.5467 2.6626 63.4302Z" fill="white"/>
<path d="M63.0001 5.57935C31.0505 5.57935 5.14941 31.4804 5.14941 63.4301C5.14941 95.3797 31.0505 121.281 63.0001 121.281C94.9498 121.281 120.851 95.3797 120.851 63.4301C120.851 31.4804 94.9498 5.57935 63.0001 5.57935Z" fill="black"/>
<path d="M63 100.383C42.5917 100.383 26.0469 83.8388 26.0469 63.4302C26.0469 43.0218 42.5917 26.4771 63 26.4771C83.4084 26.4771 99.9532 43.0218 99.9532 63.4302C99.9532 83.8388 83.4086 100.383 63 100.383Z" fill="white"/>
<path d="M28.4243 63.43H63.0001V28.8542C43.9047 28.8542 28.4243 44.3348 28.4243 63.43ZM63.0001 63.43V98.006C82.0955 98.006 97.5759 82.5257 97.5759 63.43H63.0001Z" fill="black"/>
<path d="M35.8438 28.1725C34.6189 26.9819 32.7255 26.6231 30.9479 27.7251C31.2874 26.8453 31.1488 25.9473 30.9685 25.4518C30.2027 24.0554 29.9354 23.8806 29.3042 23.351C27.2611 21.6367 25.1109 23.1003 23.5731 24.933L16.1428 33.7878L27.823 43.5889L35.6588 34.2509C37.4491 32.1173 37.7259 30.002 35.8438 28.1725ZM64.9354 23.9649L68.9467 13.3328V23.9649H71.9953V8.73779H67.4148L63.2486 19.6402H63.2917L59.1255 8.73779H54.5453V23.9649H57.5937V13.3328L61.6052 23.9649H64.9354ZM105.923 30.2998L100.183 38.4259L109.082 34.2015L111.438 37.111L97.4322 43.9001L94.6672 40.458L100.176 32.4031L100.143 32.3628L91.119 36.0764L88.3269 32.6562L97.8798 20.3684L100.236 23.2778L94.2537 31.1033L103.396 27.1785L105.923 30.2998Z" fill="white"/>
<path d="M25.1967 27.1244C25.7138 26.5081 26.8823 26.5334 27.6338 27.1638C28.46 27.8571 28.462 28.8401 27.9071 29.501L23.4947 34.7595L20.7339 32.4428L25.1967 27.1244ZM33.0475 33.3277L28.3953 38.8718L25.4781 36.424L30.1679 30.8348C30.6975 30.2036 31.8783 30.0198 32.6746 30.6883C33.5761 31.4444 33.6654 32.5915 33.0475 33.3277Z" fill="black"/>
</svg>
