<svg width="126" height="126" viewBox="0 0 126 126" fill="none" xmlns="http://www.w3.org/2000/svg">
<path fill-rule="evenodd" clip-rule="evenodd" d="M89.9311 105.894C82.7912 112.408 76.6448 115.919 63.6965 122.72C51.6437 117.231 43.7769 111.82 36.9548 106.49C27.527 99.1405 20.7549 87.2057 20.1674 79.8862L15.4639 10.2198C47.3273 1.92561 81.2193 2.11432 110.537 10.7768L105.765 79.7377C105.157 85.9833 99.5773 98.1262 89.9311 105.894ZM100.306 77.4531L104.612 15.872C79.3808 7.82621 49.1587 7.70688 21.3126 15.0264L25.708 77.4135C26.1659 83.8971 30.8298 93.8132 39.7705 101.411C45.151 105.987 55.6928 113.665 63.4786 116.608C72.4498 112.064 80.6039 106.415 87.0686 100.836C95.084 93.5246 99.8179 84.4347 100.306 77.4531ZM86.0337 99.2092C79.8373 104.561 71.4946 110.558 63.4786 114.386C56.3186 112.169 45.7372 103.993 40.6453 99.5977C31.7643 91.9196 28.1541 83.8848 27.6075 76.2852L23.2911 16.7332C49.8046 9.76194 78.7446 9.76194 102.791 17.429L98.5248 76.1859C97.9081 84.0028 94.2779 91.4715 86.0337 99.2092ZM25.2729 17.8907L26.1283 28.1544C51.4381 21.8193 77.9522 22.4561 99.9599 29.1193L100.905 18.6767C78.1001 11.675 50.4141 11.2969 25.2729 17.8907ZM88.2126 21.7L82.5039 20.7551L82.2848 23.4405L80.4255 23.1617L80.8626 16.0413L82.7627 16.3201L82.5636 19.0548L88.352 19.9893L88.5407 17.2546L90.4797 17.6223L89.8935 24.7628L88.0038 24.4152L88.2126 21.7ZM60.6629 19.2837C59.9664 19.2837 59.4093 19.095 59.0416 18.4783C58.7239 17.9712 58.7239 16.3201 59.0416 15.7734C59.3899 15.1373 60.0163 14.9583 60.5338 14.9583L68.6289 14.968L68.6477 16.7183L60.991 16.7079C60.6129 16.7079 60.6032 17.5535 61.0208 17.5535H67.0569C67.7638 17.5535 68.3896 17.9809 68.588 18.5379C68.8072 19.1345 68.7677 20.4873 68.588 21.0443C68.4194 21.6014 67.7826 21.9094 66.9869 21.9094H59.0021L58.9917 20.1189H66.1017C66.2068 20.1107 66.3049 20.0631 66.3764 19.9857C66.448 19.9083 66.4877 19.8067 66.4877 19.7013C66.4877 19.5959 66.448 19.4944 66.3764 19.417C66.3049 19.3396 66.2068 19.292 66.1017 19.2837H60.6629ZM55.9795 19.9951C55.9778 19.906 55.9584 19.8182 55.9223 19.7367C55.8863 19.6552 55.8343 19.5818 55.7695 19.5207C55.7047 19.4595 55.6284 19.412 55.5449 19.3807C55.4615 19.3495 55.3727 19.3353 55.2836 19.3388L49.9129 19.7266L50.0218 22.3919L48.2813 22.5709L47.9129 15.54L55.9094 14.9427C56.9438 14.8636 57.5501 15.6392 57.5994 16.2857C57.6591 17.0516 57.6889 18.036 57.0916 18.4439C57.5897 18.8116 57.7187 19.3589 57.7284 20.1248L57.7485 21.925L56.008 21.9944L55.9795 19.9951ZM54.8388 17.7131C55.5249 17.6735 55.4652 16.6087 54.8388 16.669L49.7267 17.0568L49.7864 18.0315L54.8388 17.7131ZM38.0922 16.7792C39.7329 16.3914 43.094 15.8545 44.8547 15.7248C45.6601 15.6658 46.2865 16.0834 46.3961 16.7098C46.6549 18.1521 46.8144 19.6436 46.6354 21.6429C46.5855 22.2194 46.0881 22.6772 45.4318 22.8167C43.1751 23.314 40.6382 23.5825 38.7582 23.7615C38.2809 23.8114 37.5254 23.4334 37.3957 22.8368C37.0676 21.3841 36.9483 19.3557 37.0475 17.9634C37.0877 17.4452 37.565 16.8986 38.0922 16.7792ZM44.4798 21.0618C44.7081 21.0126 44.808 20.7635 44.8281 20.5846C44.9078 20.0372 44.8378 18.6054 44.7081 18.1274C44.6685 17.9387 44.5097 17.8194 44.1517 17.8492C43.177 17.9089 40.6006 18.2772 39.3282 18.5554C38.9904 18.6352 38.8607 18.8336 38.8412 19.0126C38.7816 19.4802 38.9203 20.7629 39.0403 21.4795C39.0701 21.6487 39.2893 21.7674 39.4579 21.7583C41.1777 21.6189 43.2068 21.3407 44.4798 21.0618ZM72.6819 17.0756C72.3032 17.0652 72.0451 17.2941 72.0159 17.4932C71.9258 18.0801 71.8953 18.8356 71.8953 19.8206C71.8953 19.9497 72.1145 20.3077 72.3032 20.3375C74.0146 20.5761 77.3355 20.8751 79.1454 20.9944L79.0365 22.8342C76.6591 22.7252 74.1728 22.3472 71.5977 22.1675C70.7527 22.1079 70.136 21.6507 70.1055 20.8355C70.0562 19.4925 70.136 17.4634 70.374 16.2805C70.5335 15.5542 71.2287 15.1768 72.0153 15.1963C74.3913 15.2858 76.281 15.4946 79.3944 15.9122L79.2751 17.7429C77.7635 17.6125 74.8998 17.1651 72.6819 17.0756ZM33.7649 17.6093C36.1714 17.0425 36.5391 21.3187 34.5301 21.816L28.9213 23.2187L29.1898 25.9832L27.4298 26.4514L26.8033 19.25L33.7649 17.6093ZM33.7357 20.4101C34.3122 20.2811 34.2331 19.2474 33.6157 19.3764L28.5536 20.5995L28.6736 21.6643L33.7357 20.4101ZM93.2507 22.7661L93.1314 23.9197L98.6902 25.3218L98.541 26.9333L91.0821 25.1733L91.7293 17.9225L99.2375 19.7428L99.0689 21.4334L93.4796 20.0807L93.3707 21.3044L98.9198 22.6565L98.7803 24.0883L93.2507 22.7661ZM39.4534 43.4016C38.6778 44.436 37.9619 46.0273 37.624 47.3794C37.504 47.8373 37.504 48.0059 37.5845 48.3042C38.3198 47.9761 39.2751 47.6576 39.8315 47.4787C40.0507 46.9923 40.1693 46.4346 40.3587 45.9871C40.6563 45.2913 40.8457 44.9924 41.1544 44.5053C42.0396 43.1331 43.9092 41.7804 45.2911 41.8102C44.8333 42.2078 43.8787 43.2025 43.5013 43.7991C43.1932 44.2965 42.9047 44.8335 42.6855 45.3905C42.4968 45.8886 42.4371 46.2556 42.3872 46.6635C43.1031 46.4547 43.8093 46.3056 44.2665 46.2757C44.5752 46.1065 44.6744 45.7777 44.8436 45.4696C45.3702 44.4852 46.4045 43.3809 47.0615 43.0236C47.588 42.735 48.3643 42.4568 48.9207 42.6358C48.3241 43.0832 47.6976 43.7991 47.4194 44.2271C47.1308 44.6843 46.6633 45.5702 46.6834 45.9871C47.1711 46.0274 47.8669 45.9871 48.1457 45.9178L48.1153 44.5449L62.406 44.5345L62.3963 24.982C51.2773 24.982 39.0948 26.0364 26.1762 29.6465L28.8415 66.3737H48.1049V59.1949C47.3293 58.6184 43.7289 58.2001 41.5117 59.0652C40.9747 59.274 39.2245 60.0302 38.4288 60.6559L36.1915 62.427C35.9723 62.6059 35.9529 62.9937 35.9529 63.2914C35.9529 63.9477 35.187 64.4451 34.7596 64.3056C34.4114 64.1863 33.9341 64.1169 33.4964 64.2168C33.0288 64.3154 32.6118 63.7278 32.5716 63.3913C32.512 62.973 32.8408 62.427 32.8602 62.2473C32.8803 62.0781 32.7707 61.4114 33.3868 61.0042C33.665 60.8259 34.0528 60.8349 34.3316 60.9847C34.4127 61.032 34.5088 61.0463 34.6001 61.0249C34.7 60.9847 34.9684 60.7467 35.0378 60.6871C35.0677 60.2896 35.008 59.6625 35.0482 59.3149C35.1377 58.6385 35.1773 58.2507 35.3861 57.5938C35.5651 57.027 35.9529 56.2021 36.2408 55.7339C36.7583 54.8889 37.7822 54.0731 38.5488 54.1425C38.2498 54.5407 38.1506 54.7495 37.932 55.1574C37.5241 55.9032 37.1461 57.1366 36.9677 57.9719C36.8478 58.5088 36.7888 58.9271 36.8186 59.4932C37.4055 59.0561 38.0215 58.6975 38.4294 58.4692C38.6181 57.4842 39.0066 56.4207 39.4236 55.6353C39.921 54.6899 41.2633 53.6652 42.1394 53.745C41.3139 54.6399 40.7264 55.8831 40.5078 56.6788C40.4183 56.9965 40.3088 57.3655 40.3593 57.564C40.6868 57.385 41.3638 57.206 41.6913 57.1762C41.9105 56.6295 42.2088 55.9726 42.4578 55.5848C43.2334 54.3909 44.4565 53.6652 45.153 53.6951C44.6056 54.4311 44.1381 55.0971 43.8002 56.0822C43.7003 56.3701 43.6511 56.6788 43.6511 56.8279C44.0784 56.7585 44.7451 56.7585 45.0135 56.7585C45.5109 56.3111 45.8682 55.7735 46.4655 55.3163C46.9629 54.9278 47.8876 54.4013 48.1062 54.3611V48.3243C48.1062 48.1946 46.5252 48.0759 45.7392 48.1751C43.6511 48.4242 38.4301 50.0648 36.222 51.5868C36.172 51.7165 36.1824 52.4422 36.0326 52.7801C35.9036 53.0881 35.5754 53.4065 35.2577 53.5459C34.6909 53.7949 34.034 53.0388 33.7454 53.1484C33.4471 53.258 32.8109 53.5161 32.1242 53.0291C31.8161 52.8105 31.6573 52.1932 31.7662 51.7366C31.8661 51.4079 32.1443 51.1498 32.3628 50.9409C32.5619 50.7419 32.4225 49.976 33.1378 49.5188C33.6358 49.2004 34.3213 49.4591 34.8491 49.7374C34.9564 49.7032 35.0548 49.6456 35.1371 49.5687C35.2064 49.3593 35.316 48.7231 35.4159 48.2257C35.5352 47.6881 35.5754 47.3405 35.7343 46.8438C36.1325 45.6409 37.0864 43.91 38.0818 43.0047C38.8672 42.3083 40.0902 41.7519 40.9955 41.8115C40.9054 41.949 39.7822 42.9542 39.4534 43.4016ZM41.7523 31.629C42.5084 30.5752 44.4973 28.9838 46.0291 29.0739C45.1932 29.7996 44.4571 30.605 43.9403 31.4604C43.2646 32.5647 42.7172 33.9467 42.5979 35.0115C43.105 34.8221 44.2983 34.4843 44.9844 34.3351C45.5913 33.0122 46.387 31.5505 47.3721 30.7645C48.0776 30.1978 49.0919 29.7107 50.0374 29.8197C49.8182 30.1284 49.4602 30.367 49.1917 30.6154C48.7047 31.0427 48.3669 31.6199 48.0977 32.2068C47.8987 32.6438 47.5608 33.957 47.5504 34.0167C48.2365 34.007 49.4498 34.0861 49.7086 34.1658C50.5147 33.1114 52.2753 31.5797 54.3829 31.9279C53.4679 32.4247 51.7974 33.876 51.8972 34.6723C53.2694 35.5582 55.318 37.4174 55.4075 39.1385C54.473 38.1638 52.9316 37.1988 52.1553 36.9304C50.2955 36.2741 48.0776 36.1846 46.2282 36.5225C42.3696 37.2488 38.9586 38.9193 35.687 40.879C35.6079 41.4056 35.3186 42.2013 35.08 42.4704C34.8413 42.7389 34.4834 42.997 34.0956 43.0566C33.6086 43.1364 33.1105 42.9373 32.6936 42.7188C32.4244 42.5696 31.7189 42.759 31.2714 42.5197C30.9634 42.3601 30.4854 41.9127 30.6151 41.2071C30.7241 40.5807 31.3505 40.2026 31.44 39.606C31.5691 38.7306 32.2059 38.3525 32.534 38.2935C32.892 38.2241 33.2603 38.3434 33.5878 38.4926C33.7272 38.562 33.8757 38.6813 34.0061 38.7215C34.1351 38.6813 34.3239 38.5224 34.4334 38.4731C34.4633 38.3732 34.7921 36.5536 34.9704 35.7579C35.1494 34.9622 35.4574 34.2852 35.7162 33.5401C36.4924 31.3326 38.8886 29.1044 40.8087 29.2237C40.7089 29.3631 40.0922 29.8106 39.2368 30.8054C37.8549 32.426 37.5066 34.147 36.9891 37.1009C38.0533 36.6035 38.9781 36.2456 39.943 35.8973C40.1731 34.9817 40.4791 34.087 40.858 33.2223C41.1064 32.6633 41.4047 32.1166 41.7523 31.629ZM99.7116 34.0744L64.1692 34.1049L64.1997 44.567L98.9165 44.5469L99.7116 34.0744ZM68.2502 88.2433C67.8423 88.4521 67.3358 88.323 67.127 88.2329C66.7684 88.0838 66.5304 87.7148 66.4999 87.2881C66.4707 86.9502 66.7989 86.5423 66.8682 86.1733C66.8974 86.0242 66.7392 85.2894 67.365 84.9107C67.4856 84.8413 67.8423 84.7116 68.0906 84.7525C68.3403 84.8018 68.5387 84.9613 68.7871 85.0008C69.125 84.8811 69.4487 84.7243 69.7521 84.5333C69.9512 83.7668 70.1003 82.8829 70.1989 82.0963C68.4194 82.9815 66.0914 83.5781 64.1128 83.6578L64.1232 112.271C72.4271 108.053 81.5364 101.152 85.4144 97.3623C91.6904 91.2458 95.9166 85.0501 96.5625 76.1191L97.1488 67.9839L78.2842 67.9638C78.2842 72.5778 76.7428 77.3921 72.3363 80.8726C72.0879 81.8771 71.9692 83.5677 71.9881 83.6085C72.595 83.3589 73.1625 83.141 73.6599 82.9918C73.6994 82.9322 74.4056 81.3907 74.724 80.9731C75.4698 79.8194 76.4743 78.8337 77.6967 78.1775C78.4632 77.7897 79.3977 77.4317 80.2232 77.7404C79.1389 78.2572 78.2927 79.1917 77.7862 79.7286C77.3186 80.2267 76.772 80.9621 76.5236 81.7182C76.4897 81.8491 76.4631 81.9818 76.4438 82.1157C76.9516 81.9562 78.5715 81.7182 79.2479 81.6281C79.3276 81.6177 79.5365 81.1709 79.696 80.9517C79.8938 80.6832 80.0137 80.5146 80.3315 80.156C81.1473 79.2708 82.5292 78.326 83.8716 78.5348C83.1369 79.0023 82.3301 79.7481 81.6842 80.9212C81.5941 81.1008 81.4754 81.3492 81.5247 81.4582C81.7238 81.4984 82.7089 81.4783 83.3055 81.5483C83.9909 81.1216 84.7179 80.7429 85.5032 80.5743C86.3884 80.3752 87.5427 80.5341 87.9999 80.9517C87.4629 80.9212 86.9552 81.0211 86.4688 81.2098C86.1899 81.32 85.6329 81.5781 85.4241 81.9354C85.9507 82.0846 86.817 82.652 87.3631 83.1098C87.7418 83.4276 88.199 83.8861 88.4875 84.3031C89.2132 85.2888 89.363 87.0578 88.9739 87.5857C88.865 87.2764 88.7456 86.969 88.5764 86.6804C88.2281 86.0942 87.6808 85.4567 87.2133 85.1085C84.9565 83.3887 81.705 83.2986 79.0488 83.8355C76.7713 84.3031 72.6638 85.1591 69.979 87.0676C70.0484 87.4054 69.8396 87.9729 69.5322 88.1908C69.125 88.491 68.5491 88.0838 68.2502 88.2433ZM72.6819 91.4591C72.9796 91.002 73.3382 90.336 73.5165 90.0467C74.1436 89.0422 75.0489 88.2965 75.6643 88.0072C76.5106 87.5993 77.8718 87.3613 78.4788 87.659C77.8128 87.8185 77.3057 88.1265 76.8387 88.4547C76.3615 88.7841 75.425 89.6388 75.187 89.9974C74.9186 90.395 74.7402 90.7523 74.6702 90.9423C75.425 90.7724 76.331 90.633 76.7979 90.633C77.1358 90.205 78.0313 89.1816 78.698 88.7037C79.2349 88.325 80.3788 87.9476 81.0941 88.2556C80.4087 88.4748 79.1954 89.43 78.7472 90.1161C78.6487 90.2744 78.5585 90.4443 78.5384 90.5331C78.9068 90.5636 79.6026 90.633 79.9813 90.6822C80.0209 90.6822 81.0552 90.0467 81.5228 89.917C82.1298 89.7471 83.1239 89.5292 83.751 90.1959C83.2938 90.205 82.8658 90.2452 82.5273 90.395C82.0396 90.6129 81.8308 90.7724 81.6129 91.0804C82.5668 91.5882 83.5623 92.1154 84.1485 93.0499C84.3573 93.378 84.6751 94.1543 84.4967 94.6607C84.1978 94.2833 83.7899 93.915 83.4618 93.7262C82.9942 93.4578 82.6563 93.1997 82.0889 92.9805C80.3095 92.3145 77.9827 92.1355 76.1222 92.3839C73.7156 92.6919 70.7618 93.8858 69.2508 94.9195C69.3494 95.387 69.1217 95.9337 68.8533 96.0634C68.2858 96.352 67.7398 95.8643 67.6399 95.8948C67.4908 95.9441 67.033 96.1036 66.7055 95.9642C66.376 95.8351 66.1685 95.2573 66.2976 94.8903C66.3961 94.6114 66.7956 94.2139 66.7956 94.2139C66.7347 93.6069 67.1328 93.2399 67.6795 93.1692C67.9888 93.14 68.2061 93.378 68.4557 93.4286C68.684 93.3183 68.8435 93.2399 68.9622 93.1789C69.1016 92.6822 69.3104 92.1744 69.4499 91.7568C69.6781 91.0512 70.016 90.4241 70.444 89.7685C71.0607 88.8237 72.1554 87.9281 73.4569 87.9093C73.0594 88.2173 72.8298 88.3866 72.5814 88.6946C72.1547 89.2316 71.8253 89.7192 71.5276 90.2957C71.2592 90.8035 71.0095 91.5584 70.9706 92.225C71.5335 91.9532 72.1042 91.6978 72.6819 91.4591ZM72.4893 96.8383C72.8272 96.6989 73.1845 96.6003 73.5431 96.6406C72.7072 97.1762 71.942 97.9615 71.7332 98.8973C71.7131 98.9959 71.7131 99.195 71.8026 99.2546C72.0406 99.195 72.6476 99.0659 72.8071 98.9861C72.9057 98.7773 73.154 98.4492 73.3239 98.23C73.9205 97.4356 74.7766 96.6406 75.9594 96.9382C75.1832 97.2864 74.7357 97.7728 74.3978 98.3895C74.3382 98.4998 74.2993 98.7086 74.3777 98.7086C74.5768 98.7086 75.333 98.6781 75.4419 98.6781C75.7901 98.3701 76.805 97.7825 77.5015 98.0017C77.1534 98.1645 76.8342 98.3831 76.5567 98.6489C76.4873 98.7274 76.3971 98.8273 76.3783 98.9466C76.9937 99.2546 77.5411 99.6029 78.0488 100.041C78.3173 100.27 78.7051 100.697 78.9431 101.433C78.3465 100.916 76.3971 99.99 75.3336 99.9407C74.6371 99.9115 73.7733 100.041 73.335 100.14C71.6541 100.519 69.9239 101.275 68.4421 102.12C68.4525 102.408 68.4019 102.755 68.0751 103.024C67.8559 103.204 67.3786 103.293 67.1983 103.035C67.0997 102.895 66.4526 103.045 66.3144 102.866C66.3144 102.866 66.1445 102.608 66.1244 102.299C66.1056 101.97 66.3235 101.772 66.5031 101.602C66.5524 101.542 66.5427 100.987 66.9603 100.797C67.2184 100.677 67.4772 100.718 67.6964 100.858C67.7865 100.807 67.8559 100.758 67.9155 100.718C67.9648 100.071 68.0842 99.4745 68.3234 98.8286C68.6516 97.9129 69.7255 96.7994 70.6502 96.839C70.0231 97.5154 69.5167 98.4498 69.3468 99.2267C69.2975 99.4751 69.2787 99.9628 69.2787 100.19C69.4999 100.055 69.7325 99.9388 69.9738 99.8434C70.0737 99.6042 70.3616 99.0075 70.5108 98.7391C70.8869 98.0413 71.7332 97.147 72.4893 96.8383ZM29.7929 77.1716C29.9122 80.632 31.3246 84.8102 33.2636 87.7031H62.1933L62.1336 83.6663C58.4145 83.6663 52.7357 81.2091 50.4881 77.1917L29.7929 77.1716ZM49.6814 68.146C49.6814 86.5442 76.5917 86.5442 76.5917 68.3347L76.602 46.1966L49.6814 46.1869V68.146ZM58.351 59.3285C58.6694 58.9803 58.9482 58.5231 59.0073 58.1353C59.0572 57.8169 58.1623 57.837 57.8341 58.0361C57.6552 58.145 57.4859 58.3642 57.3465 58.5633C57.2473 58.7124 56.8893 58.8317 56.7103 58.6631C56.521 58.4842 56.8595 58.1755 56.8491 57.9868C56.8491 57.6684 56.2421 58.1456 55.9639 58.0159C55.7752 57.9265 55.7648 57.6385 55.8945 57.4693C55.9639 57.3798 56.163 57.4193 56.2525 57.3208C56.342 57.2209 56.342 57.0718 56.3718 56.9427C56.412 56.7935 56.5709 56.7235 56.6701 56.6146C57.0482 56.2469 57.7641 55.6198 57.9035 55.6302C58.231 55.66 58.6992 55.8293 58.9872 55.6794C59.0468 55.6496 59.1564 55.5504 59.0565 55.4907L58.281 54.9823C58.2775 54.9022 58.2917 54.8223 58.3227 54.7483C58.3536 54.6744 58.4005 54.6081 58.4599 54.5543C58.8179 54.2359 59.375 54.4551 59.8425 54.3851C60.1707 54.3351 60.4787 54.2061 60.7173 53.9778C60.777 54.2165 60.6278 54.4551 60.6278 54.7035C60.9261 54.9823 61.2348 55.2203 61.5234 55.4894C62.3788 56.3442 62.7464 57.5879 62.8061 58.6819C62.856 59.1891 62.856 59.7059 62.856 60.5515C62.9955 60.1936 63.085 59.6664 63.1148 59.2085C63.2438 57.8558 63.035 56.6528 62.2698 55.6282C61.9588 55.1963 61.6056 54.7963 61.2154 54.4343C61.2556 54.0368 61.5934 53.3605 61.9118 53.6095C62.1207 53.7684 61.8126 54.007 62.0312 54.1464C62.2705 54.2949 62.618 54.2755 62.7672 54.245C63.1154 54.1561 63.4533 54.0667 63.7711 54.0368C63.9202 54.0271 64.1686 53.9571 64.2192 54.1062C64.2587 54.2054 64.1498 54.2755 64.0395 54.315C63.9105 54.3552 63.7114 54.3254 63.6025 54.4343C63.5123 54.5238 63.4241 54.6237 63.4533 54.7528C63.4929 54.9019 63.6524 54.9817 63.8119 54.9317C64.4117 54.7659 65.0291 54.6723 65.651 54.6529C65.9805 54.6529 65.9091 54.8922 65.7509 54.981C65.6419 55.0407 65.472 55.0906 65.3631 55.101C64.7769 55.1697 64.3385 55.2099 64.4079 55.5478C64.4572 55.7767 64.8261 55.5575 64.9046 55.7268C64.9948 55.9058 64.7464 56.005 64.7665 56.125C64.8261 56.503 65.5518 56.4233 65.8897 56.3435C66.138 56.2838 66.5356 56.0854 66.6549 56.2443C66.7651 56.3831 66.675 56.6022 66.5356 56.6425C66.177 56.7417 65.5615 56.9207 65.3916 57.1191C65.2321 57.3085 65.4221 57.6962 65.6108 57.7164C66.0388 57.7656 66.5064 57.7656 66.8442 57.8648C66.972 57.9051 67.0822 57.9945 67.0822 58.1333C67.0822 58.2825 66.9331 58.3324 66.8138 58.372C66.5842 58.4414 66.1971 58.4414 65.9882 58.5315C65.9188 58.5613 65.7794 58.6113 65.7995 58.6904C65.8592 58.8395 66.1581 58.7993 66.4065 58.8292C66.5459 58.8395 66.8144 58.9491 66.8144 59.0983C66.8144 59.2578 66.675 59.3071 66.4266 59.2876C66.0388 59.2578 65.6809 59.3071 65.5122 59.3771C65.4617 59.3966 65.164 59.4361 65.1731 59.5762C65.1932 59.7448 65.5122 59.6359 65.5914 59.8051C65.6608 59.9647 65.4429 60.0535 65.4228 60.2526C65.4228 60.3323 65.4623 60.3719 65.5421 60.4017C65.8002 60.5107 66.0978 60.5003 66.3579 60.4517C66.6264 60.4017 66.7249 60.7604 66.6555 60.7999C66.3086 60.9886 65.5323 60.7902 65.3534 60.8991C65.105 61.058 65.7704 61.416 65.7509 61.4957C65.7308 61.5852 65.651 61.6747 65.5914 61.6948C65.2535 61.8239 64.8164 61.5749 64.5681 61.7149C64.3592 61.844 64.4474 62.1721 64.3184 62.3414C64.1589 62.5502 63.8015 62.4607 63.642 62.58C63.4345 62.7285 63.4241 63.0871 63.6524 63.3063C63.832 63.4749 64.0006 63.5936 64.2289 63.7038C65.2639 64.2207 66.3378 64.7375 67.3423 64.6675C67.8591 64.6383 68.7054 64.6091 69.1723 64.7285C69.7793 64.877 70.396 65.3439 70.7138 65.5443C70.9719 65.7025 71.3901 65.7433 71.7183 65.6227C71.9563 65.5443 72.1158 65.2654 72.0665 65.0261C71.9174 64.2304 70.6035 63.9827 70.5847 63.187C70.5646 62.272 70.4849 61.7746 70.1872 61.1974C70.077 60.9789 70.0582 60.4718 70.3162 60.4024C70.5251 60.3525 70.5951 60.641 70.7631 60.5716C71.5296 60.2733 71.5601 59.06 72.3551 58.8305C72.8214 58.7014 74.3933 58.6819 74.2636 58.4829C73.9355 58.0147 74.0853 57.4784 74.2636 57.2293C74.3829 57.0705 74.7104 56.9109 74.8414 57.0705C75.0197 57.2793 74.5716 57.5276 74.6021 57.8363C74.6313 58.1249 75.0502 58.6819 74.7312 58.9803C74.5424 59.1592 73.1203 59.2195 72.702 59.8557C72.4439 60.2429 72.4148 60.5515 72.7221 60.5217C72.9705 60.4919 73.1793 60.1936 73.4089 60.0243C73.8168 59.7267 74.1449 59.6067 74.3738 59.8252C74.4932 59.9342 74.3336 60.1436 74.1144 60.2033C73.9361 60.263 73.499 60.7305 73.6177 60.8498C73.796 61.0386 74.7908 60.1741 75.0398 60.3525C75.1689 60.4517 74.5522 61.0885 74.6611 61.2571C74.7902 61.4659 75.2084 61.1378 75.3375 61.2973C75.5262 61.5359 75.0094 62.0035 74.7104 62.2123C74.4821 62.3608 74.571 62.9185 74.2428 63.0878C73.8758 63.2668 73.7059 63.5839 73.7461 63.6345C73.7857 63.7129 73.8752 63.7739 74.0146 63.6837C74.4225 63.4256 74.9289 63.117 75.1378 63.1967C75.2571 63.2467 75.0885 63.8128 74.9387 64.0813C74.7889 64.3497 75.5457 64.2006 75.4354 64.4295C75.3569 64.5994 75.3064 64.8575 75.3569 65.0955C75.4166 65.4048 74.5412 65.4729 74.4614 65.6817C74.3725 65.921 74.5515 65.9807 74.6397 65.9911C75.1676 66.0708 75.0982 66.5572 74.8894 66.766C74.6105 67.0449 74.1333 67.1538 73.715 67.0838C73.3564 67.0241 72.5522 66.8762 72.075 66.5176C71.9258 66.4087 71.7066 66.4872 71.6774 66.637C71.6469 66.8069 71.8259 67.1142 71.9057 67.373C72.0159 67.7608 71.955 68.2484 71.8259 68.6272C71.5484 69.4125 70.8026 70.0687 70.5938 71.0136C70.5432 71.262 70.6139 71.5707 70.7131 71.8093C70.9323 72.3274 71.2501 72.8138 71.6074 73.2522C71.658 73.3916 71.728 73.5498 71.6684 73.6789C71.5886 73.878 70.9719 74.306 70.7929 74.4759C70.2255 75.0024 69.7378 75.6892 69.6289 76.435C69.5886 76.7034 69.0121 76.9719 68.6243 77.0809C68.3371 77.1606 68.0381 77.2404 67.8001 77.4291C67.7696 77.647 67.8987 77.837 67.9279 78.0549C67.9784 78.4336 67.5012 78.6223 67.1322 78.7416C66.9636 78.8013 66.7839 78.8519 66.5848 78.8519C66.5155 78.8519 66.496 78.7313 66.5064 78.6722C66.6153 78.1554 66.7139 77.7378 66.913 77.3104C66.9927 77.1509 67.1218 77.0218 67.2521 76.9116L68.673 75.7184L69.7877 74.1173C69.8863 73.9681 69.9272 73.8384 69.9272 73.7295C69.9272 73.4201 69.7981 73.1329 69.5789 72.9338C69.3001 72.6841 68.8922 72.6452 68.5848 72.4857C68.1873 72.2866 67.6095 71.7308 67.5297 71.69C67.3118 71.581 67.1828 71.9786 67.1523 72.2068C67.103 72.5551 67.2119 72.8832 67.2016 73.2314C67.2016 73.391 67.1828 73.4798 67.103 73.5797C66.1685 74.1166 65.0045 74.3157 64.3177 75.1704C64.1984 75.3196 64.0895 75.4797 63.9299 75.5887C63.5421 75.8572 62.8962 75.5491 62.607 75.9661C62.478 76.1561 62.6271 76.4045 62.5778 76.6133C62.548 76.7326 62.3191 76.8922 62.1401 76.9803C61.9008 77.0906 61.6434 77.1502 61.384 77.1703C61.0954 77.0309 61.2744 76.623 61.3736 76.3344C61.4728 76.0355 61.6129 75.7378 61.8412 75.5387C62.179 75.2398 62.6064 74.8624 62.8755 74.7333C63.1038 74.6231 63.4514 74.6231 63.7302 74.5141C64.0239 74.4242 64.3022 74.2901 64.5557 74.1166C64.9623 73.8585 65.341 73.5401 65.57 73.1024C65.8281 72.6043 65.7982 71.9396 65.4701 71.5116C65.1711 71.1238 64.8242 70.7451 64.6251 70.3087C64.5149 70.0694 64.5946 69.7413 64.7645 69.5221C64.7542 69.513 64.6342 69.4319 64.5655 69.4527C63.1427 69.5136 61.7011 69.3541 60.3782 68.8269C60.0299 68.6875 59.672 68.2394 59.4229 68.2102C59.1947 68.1797 59.0553 68.4683 58.8263 68.5279C58.4586 68.6278 57.9807 68.5682 57.5533 68.5279C57.056 68.4787 56.0216 68.2595 55.2759 68.0215C55.1565 68.0403 55.0275 68.061 54.9179 68.1304C54.7584 68.2394 54.7285 68.4787 54.7188 68.6777C54.6987 68.9462 54.7785 69.1946 54.748 69.4734C54.7383 69.6129 54.6585 69.762 54.6987 69.8917C54.7389 70.0499 54.8978 70.12 55.0067 70.2198C55.1857 70.3885 55.2156 70.7367 55.2156 71.0155C55.2156 71.3236 55.1066 71.7321 55.3647 71.9416C55.5242 72.0693 55.7428 71.9014 55.9419 71.9416C56.1604 71.9811 56.2298 72.2496 56.2402 72.4584C56.2505 72.6964 56.0515 73.2029 55.9218 73.3339C55.8323 73.4227 55.6831 73.3527 55.5735 73.3034C55.2856 73.1744 55.0165 72.9656 54.8576 72.6867C54.7882 72.5674 54.7882 72.4182 54.7182 72.2892C54.6086 72.07 54.4095 71.9422 54.211 71.7924C53.9724 71.6128 53.9231 71.2847 53.8829 70.9967C53.8531 70.727 53.903 70.4689 53.9231 70.1997C53.9747 69.6676 53.9409 69.1306 53.8232 68.609C53.7338 68.2115 53.5146 67.8133 53.6144 67.4158C53.6644 67.2271 53.7934 67.0474 53.973 66.9677C54.9349 66.9228 55.8872 66.7559 56.8069 66.4709L56.2103 65.8834C56.0612 65.8834 55.9419 66.0326 55.7927 66.0326C55.6332 66.0326 55.4146 65.8043 55.355 65.7245C55.0463 65.2673 54.8479 64.7388 54.7084 64.2019C54.5794 63.9931 54.4205 63.7849 54.1812 63.685C54.0153 63.613 53.8354 63.5789 53.6546 63.5852C53.1573 63.8044 52.7001 64.2324 52.6599 64.7797C52.6501 64.9191 52.7292 65.0378 52.7098 65.1772C52.6806 65.4152 52.501 65.5747 52.3317 65.7446C52.1625 65.9132 52.0036 66.0825 51.9342 66.3211C51.8739 66.5202 51.9439 66.729 52.0328 66.9177C52.0924 67.0468 52.1625 67.1758 52.1125 67.3153C51.9932 67.6434 51.2079 67.9813 50.979 67.9813C50.8992 67.9813 50.8298 67.8723 50.8 67.7822C50.7105 67.4832 50.7306 67.1655 50.7903 66.8678C51.0003 66.6402 51.1566 66.3682 51.2475 66.0721C51.3674 65.6746 51.3071 65.2466 51.4965 64.8776C51.9932 64.0326 53.2662 62.342 53.5146 62.0936C53.6242 61.9847 53.8926 61.9244 54.0022 61.9944C54.5392 62.3427 54.8576 62.77 55.3744 63.0385C55.6533 63.1779 56.0009 63.3874 56.2499 63.1883C56.4983 62.9892 56.5378 61.6566 56.6973 61.3181C56.9885 60.7312 57.7939 59.9549 58.351 59.3285ZM68.2502 51.0441L68.031 51.8793H67.2353L68.2703 47.9611H69.1749L70.1703 51.8495H69.3733L69.1743 51.0441H68.2502ZM69.0653 50.3327L68.7067 48.7614L68.3688 50.3327H69.0653ZM66.1601 49.0876C66.1705 48.8288 66.0907 48.491 65.8825 48.4112C65.6633 48.3314 65.4344 48.4015 65.3352 48.5506C65.1653 48.8288 65.1653 49.2069 65.1757 49.7834C65.1757 50.1316 65.1861 50.6186 65.2555 50.8482C65.4241 51.3748 65.8722 51.4053 66.09 51.0765C66.2003 50.9176 66.2003 50.6089 66.1899 50.3307H65.7314V49.7536H66.9156V51.8618H66.3494V51.5739C66.3391 51.594 66.0901 51.7827 65.9707 51.843C65.7716 51.9318 65.3942 51.9318 65.0868 51.8028C64.8274 51.6932 64.5791 51.3456 64.4701 50.8975C64.3599 50.4299 64.4092 49.8229 64.4092 49.3061C64.4195 48.7588 64.7081 48.1524 65.1056 47.9235C65.3845 47.7647 65.9013 47.7646 66.2288 47.884C66.6277 48.0234 66.9357 48.5999 66.876 49.0876H66.1601ZM52.8375 48.0202C53.156 48.2192 53.3246 48.5876 53.2662 49.0149H52.6391C52.6391 48.6174 52.4705 48.4281 52.132 48.4183C51.9232 48.4086 51.6644 48.6472 51.6644 48.8262C51.6541 49.3528 52.1216 49.4624 52.44 49.5616C52.6787 49.6316 52.9672 49.7808 53.1067 49.9896C53.3648 50.3677 53.3952 50.7652 53.1864 51.2827C53.0872 51.5311 52.7091 51.8294 52.3907 51.8994C52.0328 51.9792 51.595 51.9396 51.2371 51.6705C50.9485 51.452 50.8188 51.024 50.8785 50.6362H51.5847C51.5847 50.8255 51.6145 50.9643 51.6943 51.0836C51.7539 51.1634 51.8635 51.2924 52.0522 51.3022C52.1272 51.3076 52.2024 51.2966 52.2726 51.2697C52.3428 51.2429 52.4062 51.201 52.4584 51.1469C52.5106 51.0928 52.5502 51.0279 52.5745 50.9568C52.5988 50.8857 52.6071 50.8101 52.5989 50.7354C52.5593 50.1284 51.5451 50.0888 51.1969 49.701C50.7786 49.2237 50.9083 48.4579 51.2462 48.1492C51.7144 47.7121 52.3512 47.7121 52.8375 48.0202ZM72.9186 50.6141C72.929 50.7633 72.9387 51.2905 72.9582 51.6283C72.9686 51.7276 73.0684 51.8573 73.0684 51.867H72.3227C72.2228 51.867 72.2124 51.688 72.2034 51.5395C72.1832 51.142 72.2222 50.1971 71.835 50.1971H71.3577V51.8579H70.612V47.9793H71.9543C72.6307 47.9793 72.9686 48.3677 72.9686 48.8943C72.9686 49.2425 72.9582 49.6505 72.5607 49.8191C72.7688 50.0175 72.8882 50.3158 72.9186 50.6141ZM71.8966 48.5389H71.3396V49.5837H71.7475C72.4232 49.5837 72.4135 48.5389 71.8966 48.5389ZM55.1053 51.8741H54.3595V48.6018H53.5042V47.9456H55.9704V48.6018H55.1053V51.8741ZM59.9067 51.8741V48.6018H59.0514V47.9456H61.5273V48.6018H60.6518V51.8741H59.9067ZM61.8632 47.9462H64.3391V48.6122H63.4637V51.8741H62.7186V48.6122H61.8632V47.9462ZM74.8005 48.6129V51.8845H74.0548V48.6129H73.2001V47.9469H75.6663V48.6129H74.8005ZM57.921 50.747V47.9527H58.6467V50.6777C58.6467 52.3086 56.2797 52.3086 56.2797 50.7276V47.9527H57.0054V50.7574C57.006 51.3644 57.921 51.3644 57.921 50.747ZM59.5954 53.6815C59.8146 53.4927 60.122 53.2346 60.48 53.0057C60.7984 52.7969 60.4404 53.2749 60.4203 53.4733C60.3607 54.0102 59.9528 54.0699 59.5053 53.9707C59.4268 53.9506 59.4567 53.8008 59.5954 53.6815ZM78.2978 66.22L97.2927 66.2096L98.1377 55.7073L78.2978 55.7177V66.22ZM62.2782 98.9278L42.6868 98.8882C46.7242 102.518 56.0729 109.311 62.2186 112.066L62.2782 98.9278ZM48.0958 55.4304C47.7177 55.7683 46.9622 56.6042 46.8124 56.9816C47.1412 57.1009 47.7871 57.3895 48.0958 57.5983V55.4304Z" fill="white"/>
</svg>
