<svg width="28" height="29" viewBox="0 0 28 29" fill="none" xmlns="http://www.w3.org/2000/svg">
<g id="mdi-light:account" opacity="0.6">
<path id="Vector" d="M13.418 16.5257C18.248 16.5257 22.168 18.3574 22.168 20.609V23.5257H4.66797V20.609C4.66797 18.3574 8.58797 16.5257 13.418 16.5257ZM21.0013 20.609C21.0013 18.999 17.6063 17.6924 13.418 17.6924C9.22964 17.6924 5.83464 18.999 5.83464 20.609V22.359H21.0013V20.609ZM13.418 6.02571C14.5009 6.02571 15.5395 6.45592 16.3053 7.22169C17.0711 7.98747 17.5013 9.02608 17.5013 10.109C17.5013 11.192 17.0711 12.2306 16.3053 12.9964C15.5395 13.7622 14.5009 14.1924 13.418 14.1924C12.335 14.1924 11.2964 13.7622 10.5306 12.9964C9.76484 12.2306 9.33464 11.192 9.33464 10.109C9.33464 9.02608 9.76484 7.98747 10.5306 7.22169C11.2964 6.45592 12.335 6.02571 13.418 6.02571ZM13.418 7.19238C12.6444 7.19238 11.9026 7.49967 11.3556 8.04665C10.8086 8.59363 10.5013 9.3355 10.5013 10.109C10.5013 10.8826 10.8086 11.6245 11.3556 12.1714C11.9026 12.7184 12.6444 13.0257 13.418 13.0257C14.1915 13.0257 14.9334 12.7184 15.4804 12.1714C16.0273 11.6245 16.3346 10.8826 16.3346 10.109C16.3346 9.3355 16.0273 8.59363 15.4804 8.04665C14.9334 7.49967 14.1915 7.19238 13.418 7.19238Z" fill="white" fill-opacity="0.8"/>
</g>
</svg>
