<svg width="18" height="19" viewBox="0 0 18 19" fill="none" xmlns="http://www.w3.org/2000/svg">
<g id="ic-search">
<path id="Vector" d="M16.1479 15.5444L12.6273 12.0246C13.6477 10.7995 14.1566 9.22823 14.048 7.63758C13.9394 6.04693 13.2217 4.55938 12.0443 3.48439C10.8668 2.40939 9.32029 1.82971 7.72635 1.86594C6.13241 1.90216 4.6138 2.5515 3.48642 3.67888C2.35904 4.80626 1.7097 6.32487 1.67348 7.91881C1.63725 9.51275 2.21693 11.0593 3.29193 12.2367C4.36692 13.4142 5.85447 14.1318 7.44512 14.2404C9.03577 14.349 10.6071 13.8402 11.8321 12.8198L15.3519 16.3403C15.4042 16.3926 15.4663 16.4341 15.5345 16.4623C15.6028 16.4906 15.676 16.5052 15.7499 16.5052C15.8238 16.5052 15.897 16.4906 15.9653 16.4623C16.0336 16.4341 16.0956 16.3926 16.1479 16.3403C16.2001 16.2881 16.2416 16.226 16.2699 16.1578C16.2982 16.0895 16.3127 16.0163 16.3127 15.9424C16.3127 15.8685 16.2982 15.7953 16.2699 15.727C16.2416 15.6587 16.2001 15.5967 16.1479 15.5444ZM2.81242 8.06738C2.81242 7.06611 3.10933 6.08732 3.6656 5.2548C4.22188 4.42228 5.01253 3.7734 5.93758 3.39024C6.86263 3.00707 7.88053 2.90681 8.86256 3.10215C9.84459 3.29749 10.7466 3.77964 11.4546 4.48765C12.1626 5.19565 12.6448 6.0977 12.8401 7.07973C13.0355 8.06176 12.9352 9.07966 12.5521 10.0047C12.1689 10.9298 11.52 11.7204 10.6875 12.2767C9.85497 12.833 8.87618 13.1299 7.87492 13.1299C6.53271 13.1284 5.24591 12.5945 4.29683 11.6455C3.34775 10.6964 2.81391 9.40958 2.81242 8.06738Z" fill="white" fill-opacity="0.6"/>
</g>
</svg>
