<svg width="214" height="166" viewBox="0 0 214 166" fill="none" xmlns="http://www.w3.org/2000/svg">
<g clip-path="url(#clip0_2061_4019)">
<path d="M127.062 111.779C126.161 115.515 123.343 117.088 118.625 117.088C115.423 117.088 112.607 116.445 111.158 114.993C109.587 113.452 109.35 111.326 109.35 109.054V97.9143H112.935V108.864C112.935 111.337 113.138 112.813 114.105 113.899C115.202 115.173 117.098 115.546 118.697 115.546C122.079 115.546 124.331 114.451 124.943 111.475C125.084 110.79 125.194 109.95 125.194 108.653V97.9141H127.401V107.903C127.401 109.768 127.293 110.821 127.062 111.779Z" fill="white"/>
<path d="M127.062 111.779C126.161 115.515 123.343 117.088 118.625 117.088C115.423 117.088 112.607 116.445 111.158 114.993C109.587 113.452 109.35 111.326 109.35 109.054V97.9143H112.935V108.864C112.935 111.337 113.138 112.813 114.105 113.899C115.202 115.173 117.098 115.546 118.697 115.546C122.079 115.546 124.331 114.451 124.943 111.475C125.084 110.79 125.194 109.95 125.194 108.653V97.9141H127.401V107.903C127.401 109.768 127.293 110.821 127.062 111.779Z" stroke="white" stroke-width="0.184142"/>
<path d="M145.226 101.471L141.073 110.129H149.173L145.226 101.471ZM152.129 116.673L149.765 111.404H140.461L137.929 116.673H135.653L145.011 97.9141H147.24L156.397 116.673H152.129Z" fill="white"/>
<path d="M145.226 101.471L141.073 110.129H149.173L145.226 101.471ZM152.129 116.673L149.765 111.404H140.461L137.929 116.673H135.653L145.011 97.9141H147.24L156.397 116.673H152.129Z" stroke="white" stroke-width="0.184142"/>
<path d="M59.826 101.471L55.6772 110.129H63.7785L59.826 101.471ZM66.7327 116.673L64.3723 111.404H55.0658L52.5304 116.673H50.2563L59.614 97.9141H61.842L71.0018 116.673H66.7327Z" fill="white"/>
<path d="M59.826 101.471L55.6772 110.129H63.7785L59.826 101.471ZM66.7327 116.673L64.3723 111.404H55.0658L52.5304 116.673H50.2563L59.614 97.9141H61.842L71.0018 116.673H66.7327Z" stroke="white" stroke-width="0.184142"/>
<path d="M90.5295 117.087C84.3347 117.087 78.4473 114.956 78.4473 107.752C78.4473 105.411 79.4862 103.011 81.0554 101.294C83.515 98.6238 87.2499 97.5591 90.7768 97.5591C92.9095 97.5591 95.3799 98.0428 97.302 99.02V101.248C95.56 99.9489 93.2665 99.0531 91.0299 99.0531C85.9339 99.0531 82.4195 102.241 82.4195 107.515C82.4195 112.289 85.5208 115.556 90.2912 115.556C91.5052 115.556 93.1855 115.34 94.3411 114.897V108.049H97.9259V115.696C95.8229 116.643 92.8385 117.087 90.5295 117.087Z" fill="white"/>
<path d="M90.5295 117.087C84.3347 117.087 78.4473 114.956 78.4473 107.752C78.4473 105.411 79.4862 103.011 81.0554 101.294C83.515 98.6238 87.2499 97.5591 90.7768 97.5591C92.9095 97.5591 95.3799 98.0428 97.302 99.02V101.248C95.56 99.9489 93.2665 99.0531 91.0299 99.0531C85.9339 99.0531 82.4195 102.241 82.4195 107.515C82.4195 112.289 85.5208 115.556 90.2912 115.556C91.5052 115.556 93.1855 115.34 94.3411 114.897V108.049H97.9259V115.696C95.8229 116.643 92.8385 117.087 90.5295 117.087Z" stroke="white" stroke-width="0.184142"/>
<path d="M171.745 99.2162H169.109V108.19H171.414C173.348 108.19 174.504 107.83 175.404 107.104C176.355 106.34 176.924 105.169 176.924 103.586C176.924 100.416 174.62 99.2162 171.745 99.2162ZM177.838 116.673L172.867 109.469H169.109V116.673H165.522V97.9141H172.307C175.06 97.9141 177.814 98.3133 179.348 100.008C180.15 100.893 180.587 102.125 180.587 103.71C180.587 106.609 178.401 108.365 176.454 109.056L181.967 116.673L177.838 116.673Z" fill="white"/>
<path d="M171.745 99.2162H169.109V108.19H171.414C173.348 108.19 174.504 107.83 175.404 107.104C176.355 106.34 176.924 105.169 176.924 103.586C176.924 100.416 174.62 99.2162 171.745 99.2162ZM177.838 116.673L172.867 109.469H169.109V116.673H165.522V97.9141H172.307C175.06 97.9141 177.814 98.3133 179.348 100.008C180.15 100.893 180.587 102.125 180.587 103.71C180.587 106.609 178.401 108.365 176.454 109.056L181.967 116.673L177.838 116.673Z" stroke="white" stroke-width="0.184142"/>
<path d="M35.1046 120.529C34.1579 120.974 33.1206 121.269 32.0532 121.269C34.511 119.492 35.5499 117.684 35.9051 114.691C36.1136 113.03 36.1136 111.369 36.1136 109.71V97.9146H39.7004V112.112C39.7008 115.578 38.3666 118.93 35.1046 120.529Z" fill="white"/>
<path d="M35.1046 120.529C34.1579 120.974 33.1206 121.269 32.0532 121.269C34.511 119.492 35.5499 117.684 35.9051 114.691C36.1136 113.03 36.1136 111.369 36.1136 109.71V97.9146H39.7004V112.112C39.7008 115.578 38.3666 118.93 35.1046 120.529Z" stroke="white" stroke-width="0.184142"/>
<path d="M57.6543 47.8366C58.9423 47.8755 60.0484 47.3949 60.0522 47.326C60.0557 47.2571 58.6261 47.1211 58.6261 47.1211C57.3169 47.1758 56.7831 47.6616 56.776 47.7183C56.7673 47.7728 57.1172 47.8187 57.6543 47.8366Z" fill="#241F20"/>
<path d="M48.8992 50.0539C48.8992 50.0539 48.977 49.78 49.0106 49.7201C49.0442 49.6581 49.2316 49.0256 50.136 48.9567C50.136 48.9567 50.5918 48.9161 51.1167 49.0786C51.1167 49.0786 50.8146 49.8578 49.578 49.9868C49.5778 49.9868 49.0916 50.0594 48.8992 50.0539ZM169.991 85.1819C169.683 85.9411 168.367 86.9082 166.821 87.4254C165.188 87.9711 161.78 87.9853 160.036 87.406C160.036 87.406 159.669 87.0064 158.442 86.6462C155.59 85.8073 154.668 85.2224 153.221 83.8742C152.198 82.922 151.072 81.7276 149.981 80.6018C149.495 80.1001 148.312 78.9162 146.235 78.5558C144.067 78.1812 138.746 77.7747 136.787 77.0821C135.469 76.6141 133.907 75.7253 131.946 72.7923C131.006 71.3841 130.294 70.9741 128.937 70.1083C128.937 70.1083 129.972 70.9263 130.517 71.9194C131.303 73.3613 131.679 74.3986 132.109 75.1651C132.541 75.9374 133.042 76.6249 133.822 77.252C134.791 78.0295 135.416 78.2008 136.51 78.4216C137.556 78.6338 141.127 78.7911 144.191 78.9111C147.203 79.0278 148.491 79.9607 149.433 80.7507C150.299 81.482 151.679 83.5709 152.647 84.4257C153.942 85.5638 153.976 85.5796 155.479 86.523C156.239 86.9999 156.909 87.3123 157.526 87.5338C158.906 88.3446 158.335 89.76 158.335 89.76C157.939 90.8876 156.515 91.2916 154.853 91.0565C152.34 90.8344 150.177 88.7385 148.35 87.2348C147.345 86.406 146.989 85.9925 145.051 84.6459C142.102 82.6003 135.173 82.7697 135.173 82.7697L130.094 82.7378C120.203 82.8828 116.584 74.9247 115.597 73.2547C115.256 72.6736 114.94 72.2053 114.639 71.8218C114.178 71.1997 111.696 67.9595 109.036 66.8022C109.036 66.8022 111.589 69.0107 111.333 70.2194C110.785 70.2123 110.163 70.2475 109.421 70.2688C99.4559 70.5605 97.3851 70.009 95.8108 69.6946C94.2346 69.3782 91.5932 68.5938 89.0261 67.4117C89.0261 67.4117 89.3124 64.9558 88.2928 62.915C88.2928 62.915 96.518 65.8197 103.062 64.9965C103.062 64.9965 92.4998 64.4805 85.9112 59.2296C85.9112 59.2296 87.5369 64.7795 86.2522 67.1099C86.2522 67.1099 84.5208 71.3416 75.6419 68.518C75.6419 68.518 71.5584 66.9296 68.3832 66.9296C68.3832 66.9296 65.9927 67.0285 65.7068 68.2743C65.7068 68.2743 65.5509 68.8697 66.1748 69.1524C66.1748 69.1524 66.8674 69.3504 66.5405 69.8644C66.0016 70.7143 65.2538 71.3716 64.512 71.7425C62.0348 71.6206 62.2185 69.5869 62.2185 69.5869C62.2627 68.8659 62.496 68.3624 62.7168 67.866C64.2733 64.3834 69.7436 63.878 69.7436 63.878C75.5639 63.2969 81.665 64.6944 81.665 64.6944C77.3006 63.6535 75.8166 62.8902 74.5689 61.8496C72.8885 60.4466 71.318 55.7327 71.318 55.7327C70.6484 58.0438 71.4772 60.3796 72.0373 61.5793C71.2101 60.2595 70.0317 59.1447 68.9805 58.3017C66.293 56.1476 62.3915 55.4517 62.3915 55.4517C61.264 55.2589 60.8171 54.0911 60.8171 54.0911C59.3716 51.4302 57.7356 51.3047 57.7356 51.3047C58.5411 52.409 58.4564 53.9198 58.4564 53.9198C58.4564 56.7045 54.8751 57.6287 54.8751 57.6287C52.1962 60.2914 51.7317 60.2346 51.2086 60.2736C50.6854 60.3108 50.2987 59.7682 50.2987 59.7682C50.1289 59.5137 50.4117 59.2858 50.4117 59.2858C50.8639 59.0031 51.2916 58.6339 51.2916 58.6339C53.9031 56.5366 54.2706 55.4642 54.0586 54.001C53.6327 51.0784 51.2758 51.2941 51.2758 51.2941C50.1677 51.2941 49.6202 52.1386 49.6202 52.1386C49.1926 52.6475 48.2578 54.2393 48.2578 54.2393C47.4343 55.6 46.6977 55.4002 46.6977 55.4002C45.7896 55.4586 45.1322 54.6527 45.1322 54.6527C45.0968 54.6212 45.0703 54.5838 45.0404 54.5521C44.3674 53.8293 44.9467 52.9566 44.9467 52.9566C46.055 50.9988 47.9664 50.8064 48.2262 50.7904C48.4875 50.7745 49.3693 50.709 49.3693 50.709C51.5281 50.5519 52.9383 48.4881 52.9383 48.4881C52.0284 48.0482 50.4031 48.2815 50.4031 48.2815C48.8199 48.3875 48.4028 50.0677 48.3994 50.0677C47.0282 50.2693 47.0971 49.2162 47.3905 48.9388C47.6219 48.6667 48.438 47.345 53.6876 46.557C53.6876 46.557 56.4723 46.0057 61.4178 46.5483C61.5998 46.5677 61.7763 46.7269 61.5432 47.0023C60.9212 47.7323 58.9759 49.3505 55.8555 48.5678C55.8555 48.5678 55.7991 49.8152 59.2021 50.439C59.2021 50.439 62.2713 51.0925 67.2821 55.1176C67.2821 55.1176 64.8528 50.6245 60.6528 49.255C60.6528 49.255 60.3417 49.0571 60.6244 48.7727C60.6244 48.7727 62.6121 46.9915 66.1194 47.1789C66.1194 47.1789 77.7174 47.7744 84.2373 54.5786C84.2373 54.5786 84.0113 53.4443 83.0182 51.7993C83.0182 51.7993 82.8186 51.6032 82.9333 51.4602C82.9333 51.4602 83.0182 51.1756 84.1526 51.4035C84.1526 51.4035 88.2924 52.0839 97.9024 55.5999C97.9024 55.5999 105.106 58.1248 109.034 59.7539C114.939 62.201 129.733 68.2015 139.077 73.3732C140.745 74.2956 147.694 77.7286 147.694 77.7286C152.889 80.953 157.668 83.2872 157.668 83.2872C162.375 85.4624 165.798 84.4658 165.798 84.4658C166.891 84.0539 168.98 82.9199 169.795 83.7253C170.209 84.1375 170.234 84.6743 169.991 85.1819ZM171.162 83.3565C170.546 81.9237 168.566 82.2751 168.566 82.2751C167.66 82.33 166.517 83.2785 164.928 83.6053C161.511 84.3103 158.898 83.148 158.898 83.148C153.862 80.8935 150.454 78.4375 148.236 77.1687C146.019 75.9002 137.812 71.5889 129.603 67.4632C129.603 67.4632 120.199 62.6431 106.286 56.8917C106.286 56.8917 79.4435 44.7124 60.1368 44.7124C60.1368 44.7124 50.1362 44.5868 46.7492 48.4353C46.7492 48.4353 46.152 48.93 46.4433 49.5396C46.4433 49.5396 46.484 49.7076 46.3586 49.8152C46.3586 49.8152 44.8691 50.7941 43.6567 52.1987C43.6567 52.1987 43.0069 52.8631 43.5295 53.8543C43.5295 53.8543 44.1761 54.9815 44.5845 55.4659C44.9962 55.9481 45.8194 56.7928 47.0773 56.6674C47.6338 56.6108 47.6497 56.4714 47.6497 56.4714C48.2275 57.0545 49.2364 57.0897 49.2364 57.0897C49.1357 56.7312 48.7505 56.0207 48.7169 55.6073C48.6797 55.1445 48.8598 54.715 48.8598 54.715C49.0702 54.2061 49.4643 53.5753 49.8656 53.2608C50.2224 52.9816 51.1074 52.692 51.7683 53.1548C52.2987 53.526 52.8619 54.715 52.2261 56.2805C52.2261 56.2805 51.5105 57.5173 50.8497 57.655L50.6662 57.6638C50.2879 57.6567 49.4453 57.1922 49.4453 57.1922C49.4453 57.1922 49.41 57.293 49.5035 57.7189C49.5582 57.9607 49.636 58.2295 49.7015 58.4361L49.5265 58.5774C49.5265 58.5774 48.9946 59.0051 49.2297 59.6217C49.2297 59.6217 49.7474 61.5689 51.1927 61.5689C52.4704 61.6114 53.5338 60.3992 53.5338 60.3992C56.2745 57.4432 60.1368 57.0457 60.1368 57.0457C64.4177 56.754 70.5353 61.1377 72.2013 62.4029C65.8617 62.334 63.3032 64.767 63.3032 64.767C59.7324 67.5464 61.1226 70.9 61.1226 70.9C61.3825 71.6295 62.1139 72.1614 62.5805 72.3664C63.2533 72.6596 63.8067 72.6719 64.3279 72.6137C64.7044 72.573 65.1174 72.4334 65.3277 72.2885C65.8137 72.0021 66.6812 71.4351 67.1 70.8325C67.3794 70.5303 67.66 69.7901 67.4745 69.085C67.4745 69.085 67.3618 68.5179 67.8722 68.4029C67.8722 68.4029 69.5523 67.9772 72.9451 69.4756C72.9451 69.4756 76.6308 71.6241 81.4119 72.05C81.4119 72.05 86.8488 72.6013 88.1618 69.6576C88.1618 69.6576 91.2854 70.9351 95.8566 71.4582C95.8566 71.4582 100.311 71.9192 107.536 71.3752C108.958 71.2673 110.628 71.3858 110.628 71.3858C112.941 71.6631 114.411 72.8665 114.99 73.8083C117.358 77.6529 120.183 85.1959 131.751 84.8975L136.987 84.7538C140.169 84.7538 142.761 84.7805 145.305 86.1408C146.416 86.7364 149.352 89.6497 151.159 90.6338C156.511 94.2404 159.603 92.5637 159.603 92.5637C161.424 91.502 161.281 89.6127 160.838 88.5549C160.29 88.3811 167.469 89.6075 170.529 85.5882C171.254 84.6922 171.381 83.8708 171.162 83.3565Z" fill="white"/>
</g>
<defs>
<clipPath id="clip0_2061_4019">
<rect width="150" height="150" fill="white" transform="translate(32 8)"/>
</clipPath>
</defs>
</svg>
