<svg width="73" height="72" viewBox="0 0 73 72" fill="none" xmlns="http://www.w3.org/2000/svg">
<path d="M37.0002 59.6486C32.323 59.6486 27.7507 58.2617 23.8617 55.6631C19.9727 53.0646 16.9416 49.3711 15.1517 45.0499C13.3618 40.7287 12.8935 35.9737 13.806 31.3864C14.7185 26.799 16.9708 22.5852 20.2781 19.2779C23.5854 15.9705 27.7992 13.7182 32.3866 12.8057C36.974 11.8932 41.7289 12.3616 46.0502 14.1515C50.3714 15.9414 54.0648 18.9725 56.6633 22.8615C59.2619 26.7505 60.6489 31.3227 60.6489 36C60.6417 42.2698 58.1479 48.2808 53.7144 52.7142C49.281 57.1476 43.27 59.6415 37.0002 59.6486ZM37.0002 13.7027C32.5902 13.7027 28.2793 15.0104 24.6125 17.4605C20.9457 19.9105 18.0878 23.3929 16.4002 27.4672C14.7126 31.5415 14.271 36.0247 15.1314 40.35C15.9917 44.6752 18.1153 48.6482 21.2337 51.7665C24.352 54.8849 28.325 57.0085 32.6502 57.8688C36.9755 58.7292 41.4587 58.2876 45.533 56.6C49.6073 54.9124 53.0897 52.0545 55.5397 48.3877C57.9898 44.7209 59.2975 40.41 59.2975 36C59.2909 30.0884 56.9396 24.4208 52.7595 20.2407C48.5794 16.0606 42.9118 13.7093 37.0002 13.7027Z" fill="url(#paint0_linear_468_1604)"/>
<path d="M37 54.9189C33.2582 54.9189 29.6004 53.8093 26.4892 51.7305C23.378 49.6517 20.9531 46.6969 19.5212 43.2399C18.0893 39.783 17.7146 35.979 18.4446 32.3091C19.1746 28.6392 20.9764 25.2681 23.6223 22.6223C26.2681 19.9764 29.6392 18.1746 33.3091 17.4446C36.979 16.7146 40.783 17.0893 44.2399 18.5212C47.6969 19.9531 50.6517 22.378 52.7305 25.4892C54.8093 28.6004 55.9189 32.2582 55.9189 36C55.9134 41.0159 53.9183 45.8248 50.3716 49.3716C46.8248 52.9183 42.0159 54.9134 37 54.9189ZM37 18.4324C33.5254 18.4324 30.1289 19.4627 27.24 21.3931C24.351 23.3234 22.0993 26.0671 20.7697 29.2772C19.44 32.4872 19.0921 36.0195 19.77 39.4272C20.4478 42.835 22.121 45.9653 24.5778 48.4221C27.0347 50.879 30.1649 52.5521 33.5727 53.23C36.9805 53.9078 40.5127 53.5599 43.7228 52.2303C46.9329 50.9007 49.6765 48.649 51.6069 45.76C53.5372 42.871 54.5676 39.4745 54.5676 36C54.5624 31.3424 52.7098 26.877 49.4164 23.5836C46.123 20.2901 41.6576 18.4376 37 18.4324Z" fill="url(#paint1_linear_468_1604)"/>
<path d="M41.0542 54.4595C40.875 54.4595 40.7031 54.3883 40.5764 54.2616C40.4497 54.1349 40.3785 53.963 40.3785 53.7838V48.8379C40.3821 45.6134 41.6646 42.522 43.9447 40.2419C46.2247 37.9618 49.3162 36.6793 52.5407 36.6757H55.1893C55.3685 36.6757 55.5404 36.7469 55.6671 36.8736C55.7938 37.0003 55.865 37.1722 55.865 37.3514C55.865 37.5306 55.7938 37.7025 55.6671 37.8292C55.5404 37.9559 55.3685 38.0271 55.1893 38.0271H52.5407C49.6744 38.0303 46.9265 39.1703 44.8998 41.197C42.8731 43.2238 41.7331 45.9717 41.7298 48.8379V53.7838C41.7298 53.963 41.6587 54.1349 41.5319 54.2616C41.4052 54.3883 41.2334 54.4595 41.0542 54.4595ZM32.9461 54.4595C32.7669 54.4595 32.595 54.3883 32.4683 54.2616C32.3416 54.1349 32.2704 53.963 32.2704 53.7838V48.8379C32.2672 45.9717 31.1271 43.2238 29.1004 41.197C27.0737 39.1703 24.3258 38.0303 21.4596 38.0271H18.8109C18.6317 38.0271 18.4599 37.9559 18.3332 37.8292C18.2064 37.7025 18.1353 37.5306 18.1353 37.3514C18.1353 37.1722 18.2064 37.0003 18.3332 36.8736C18.4599 36.7469 18.6317 36.6757 18.8109 36.6757H21.4596C24.6841 36.6793 27.7755 37.9618 30.0556 40.2419C32.3356 42.522 33.6182 45.6134 33.6217 48.8379V53.7838C33.6217 53.963 33.5506 54.1349 33.4238 54.2616C33.2971 54.3883 33.1253 54.4595 32.9461 54.4595ZM54.7839 32.6217C54.717 32.6217 54.6505 32.6116 54.5866 32.5919C43.13 29.0452 30.8688 29.0452 19.4123 32.5919C19.3268 32.6199 19.2367 32.6305 19.1471 32.6231C19.0574 32.6158 18.9702 32.5906 18.8905 32.5491C18.8107 32.5076 18.74 32.4506 18.6826 32.3815C18.6251 32.3123 18.5821 32.2324 18.5559 32.1464C18.5297 32.0604 18.521 31.97 18.5302 31.8806C18.5394 31.7911 18.5663 31.7044 18.6095 31.6255C18.6526 31.5467 18.711 31.4772 18.7814 31.4212C18.8517 31.3652 18.9325 31.3237 19.019 31.2994C30.7316 27.6722 43.2673 27.6722 54.9798 31.2994C55.1349 31.3464 55.2679 31.4475 55.3546 31.5844C55.4413 31.7213 55.476 31.8847 55.4522 32.045C55.4285 32.2053 55.3479 32.3517 55.2252 32.4576C55.1026 32.5634 54.9459 32.6216 54.7839 32.6217ZM37.0001 40.3075C36.0372 40.3064 35.1141 39.9234 34.4333 39.2426C33.7524 38.5617 33.3694 37.6386 33.3684 36.6757V33.7196C33.3684 33.5404 33.4395 33.3686 33.5663 33.2419C33.693 33.1151 33.8648 33.044 34.044 33.044H39.9562C40.1354 33.044 40.3073 33.1151 40.434 33.2419C40.5607 33.3686 40.6319 33.5404 40.6319 33.7196V36.6757C40.6308 37.6386 40.2478 38.5617 39.567 39.2426C38.8861 39.9234 37.963 40.3064 37.0001 40.3075ZM34.7197 34.3953V36.6757C34.7197 37.2805 34.96 37.8605 35.3876 38.2882C35.8153 38.7159 36.3953 38.9561 37.0001 38.9561C37.6049 38.9561 38.185 38.7159 38.6126 38.2882C39.0403 37.8605 39.2805 37.2805 39.2805 36.6757V34.3953H34.7197Z" fill="url(#paint2_linear_468_1604)"/>
<defs>
<linearGradient id="paint0_linear_468_1604" x1="13.3516" y1="34.1808" x2="60.6489" y2="34.1808" gradientUnits="userSpaceOnUse">
<stop stop-color="#BE6552"/>
<stop offset="0.490144" stop-color="#ECA9A0"/>
<stop offset="1" stop-color="#BE6552"/>
</linearGradient>
<linearGradient id="paint1_linear_468_1604" x1="18.0811" y1="34.5446" x2="55.9189" y2="34.5446" gradientUnits="userSpaceOnUse">
<stop stop-color="#BE6552"/>
<stop offset="0.490144" stop-color="#ECA9A0"/>
<stop offset="1" stop-color="#BE6552"/>
</linearGradient>
<linearGradient id="paint2_linear_468_1604" x1="18.1353" y1="40.5238" x2="55.865" y2="40.5238" gradientUnits="userSpaceOnUse">
<stop stop-color="#BE6552"/>
<stop offset="0.490144" stop-color="#ECA9A0"/>
<stop offset="1" stop-color="#BE6552"/>
</linearGradient>
</defs>
</svg>
