<svg width="140" height="130" viewBox="0 0 140 130" fill="none" xmlns="http://www.w3.org/2000/svg">
<path d="M67.5339 7.97583C74.1241 8.03165 80.6878 8.39402 87.2248 9.19864C93.6553 9.99037 100.002 11.202 106.194 13.1444C109.51 14.1852 112.741 15.4449 115.875 16.9545C117.199 17.5925 118.06 18.6453 118.485 20.0021C118.769 20.908 118.965 21.881 118.976 22.8264C119.05 29.0898 118.737 35.3378 118.055 41.5643C116.847 52.5911 114.448 63.3378 110.419 73.6939C107.067 82.3085 102.682 90.3589 97.1685 97.7842C91.5433 105.361 84.9771 112.023 77.5257 117.803C75.2188 119.593 72.8208 121.267 70.4435 122.963C68.9161 124.054 67.5545 124.03 66.0228 122.988C61.0818 119.629 56.3624 115.989 51.9803 111.92C47.7442 107.987 43.8455 103.748 40.3194 99.1659C34.5835 91.7114 30.0074 83.5966 26.4924 74.8781C23.9477 68.5648 22.0117 62.0652 20.5968 55.4102C19.1338 48.5311 18.1765 41.5789 17.8073 34.5581C17.5944 30.5119 17.4914 26.4553 17.4742 22.403C17.4656 20.4143 18.1464 18.568 19.8773 17.3847C20.7753 16.7708 21.8228 16.362 22.8299 15.9206C29.3265 13.0731 36.1314 11.2965 43.1037 10.102C47.6146 9.32916 52.1529 8.76584 56.7187 8.48075C60.3203 8.25577 63.9288 8.1407 67.5347 7.97669L67.5339 7.97583ZM68.2576 10.6224C64.941 10.7555 61.6219 10.8353 58.3087 11.0311C50.8445 11.4734 43.454 12.46 36.1829 14.2453C31.2694 15.4509 26.4959 17.0576 21.9258 19.2481C21.1977 19.5976 20.6903 20.1111 20.4671 20.8591C20.2851 21.4679 20.1168 22.1085 20.11 22.7362C20.0584 27.5579 20.2482 32.3718 20.6354 37.1798C21.063 42.4918 21.7695 47.7651 22.8041 52.9921C24.5203 61.6651 27.1012 70.0676 30.768 78.1249C35.2548 87.9846 41.1832 96.8783 48.5796 104.794C54.2478 110.86 60.6071 116.105 67.466 120.759C68.1426 121.218 68.3031 121.216 68.9865 120.75C73.8983 117.401 78.5869 113.772 82.9354 109.71C88.6405 104.382 93.6794 98.4884 97.9988 91.9845C103.383 83.8757 107.437 75.1357 110.362 65.8633C113.116 57.1354 114.779 48.1884 115.645 39.0895C116.161 33.6788 116.38 28.2517 116.345 22.8161C116.343 22.6023 116.346 22.3859 116.317 22.1755C116.121 20.7663 115.603 19.6182 114.133 19.0592C111.633 18.1086 109.199 16.9794 106.671 16.1147C99.6051 13.6966 92.2894 12.4162 84.8869 11.597C79.3621 10.9856 73.8185 10.7005 68.2568 10.6232L68.2576 10.6224Z" fill="white"/>
<path d="M65.6768 83.9531C65.7618 83.99 65.7798 83.9918 65.7893 84.0021C66.5199 84.8118 66.6083 84.8015 67.1114 83.8217C67.2497 83.553 67.3596 83.2696 67.4128 82.8857C67.1621 82.9768 66.9114 83.0686 66.5963 83.1837C67.0419 82.495 67.4566 81.8518 67.8747 81.2113C68.0498 80.9433 68.2585 80.6934 68.4079 80.4118C68.5572 80.1284 68.4783 79.8553 68.1254 79.8562C67.5716 79.8579 67.1827 79.5608 66.7723 79.2637C66.3147 78.9322 66.2143 78.9898 65.8365 79.4329C65.1247 80.2684 64.3615 81.0601 63.6532 81.8974C63.3836 82.2159 63.1793 82.5989 62.9921 82.9759C62.5877 83.7934 62.2692 84.659 61.8124 85.4447C61.2175 86.4674 60.6474 87.4592 60.9256 88.7147C60.9633 88.8847 60.8543 89.15 60.7247 89.284C59.6686 90.372 57.7592 90.5437 56.5418 89.6842C55.4609 88.9216 55.4154 87.7744 56.4293 86.9217C56.522 86.8435 56.6328 86.7663 56.686 86.6632C57.1033 85.8577 57.8021 85.3296 58.5165 84.8299C59.9605 83.8192 60.8148 82.4658 61.0741 80.7149C61.172 80.0528 61.3377 79.3908 61.5626 78.7613C61.7249 78.3062 61.6081 77.9559 61.3179 77.6828C60.7118 77.1135 60.5744 76.4274 60.7315 75.6691C60.8981 74.8662 60.8449 74.0908 60.5907 73.3214C60.5392 73.166 60.4748 73.0157 60.3847 72.7778C60.1984 72.9951 60.0361 73.1333 59.9365 73.3077C59.4815 74.1037 59.0376 74.9066 58.6023 75.7138C58.3696 76.144 58.1954 76.6086 57.9369 77.0216C57.3505 77.9584 57.1831 78.9726 57.087 80.0649C56.9651 81.4517 56.4001 82.7037 55.084 83.4319C53.6236 84.2399 52.4482 85.3236 52.0473 86.9878C51.8403 87.8482 51.8781 88.7713 51.8395 89.6678C51.8051 90.4604 51.8215 91.2556 51.8069 92.049C51.8009 92.3676 51.6437 92.5669 51.3055 92.5789C50.9389 92.5918 50.8771 92.815 50.8693 93.1319C50.8504 93.9202 50.8427 93.9339 50.0614 94.1555C48.8191 94.5084 47.6334 94.3873 46.5585 93.6299C45.8305 93.1173 45.688 92.5025 46.0966 91.7107C46.4564 91.0143 47.0325 90.5223 47.7296 90.1419C47.5982 90.2887 47.46 90.4295 47.3372 90.5832C47.09 90.8932 46.8333 91.1989 46.6186 91.5312C46.5345 91.6618 46.5525 91.8576 46.5242 92.0241C46.7071 91.9941 46.8994 91.9872 47.0702 91.9245C47.1741 91.8859 47.2651 91.7725 47.3295 91.6721C47.7794 90.9782 48.4216 90.7919 49.202 90.9301C49.4424 90.9731 49.688 90.9963 49.9318 91.0023C50.4443 91.0143 50.6804 90.8331 50.7577 90.3986C50.853 89.8593 50.7637 89.6936 50.252 89.4961C49.8554 89.3424 49.4553 89.1973 49.0526 89.047C48.8981 89.2539 48.7581 89.4403 48.6173 89.6275C48.5753 89.6146 48.5323 89.6009 48.4903 89.588C48.4448 88.7662 48.1675 87.9839 48.7856 87.1484C49.6081 86.0363 50.2726 84.8058 50.9835 83.6139C51.3166 83.0558 51.5991 82.4675 51.9082 81.8862C51.9159 81.8862 51.9605 81.8785 51.9674 81.8913C52.2911 82.4478 52.6208 82.5362 53.2097 82.2211C53.9086 81.8467 54.2941 80.7724 53.9515 80.0692C53.8683 79.8974 53.6785 79.7008 53.512 79.6742C53.4003 79.6561 53.2295 79.9069 53.1144 80.0597C53.044 80.1525 53.0209 80.2847 52.9908 80.4023C52.8826 80.8265 52.5993 80.945 52.1159 80.8746C52.1692 80.6874 52.2112 80.5234 52.2645 80.3637C52.2834 80.3079 52.3297 80.2615 52.3632 80.2091C53.3016 78.7339 53.8605 77.2114 53.4124 75.3952C53.0569 73.9551 53.2475 72.4927 53.8734 71.1317C54.8367 69.0399 55.1578 66.8021 55.4317 64.5531C55.6394 62.8503 56.0747 61.2187 57.2226 59.9143C58.8582 58.0552 59.5905 55.8664 59.9571 53.4723C60.2164 51.7815 60.5933 50.0941 61.4768 48.5939C61.7472 48.1345 62.1456 47.7189 62.5663 47.3866C63.4755 46.6687 64.3933 45.9405 65.3909 45.3609C66.5723 44.6739 67.7305 43.9809 68.741 43.0492C69.3394 42.4979 70.1035 42.2532 70.8848 42.06C71.0591 42.0171 71.2737 41.8737 71.345 41.7182C72.261 39.7355 74.2271 38.912 76.2602 39.7226C76.8672 39.9647 77.4613 40.2704 78.003 40.6345C79.1775 41.422 80.468 41.8015 81.8554 41.9939C82.8959 42.1381 83.9185 42.4207 84.9462 42.6542C85.5858 42.7993 85.5763 42.8088 85.718 42.1665C85.8554 41.5405 85.9945 40.9136 86.1602 40.2945C86.2761 39.8591 86.21 39.4804 85.9352 39.1292C84.7942 37.6694 83.3664 36.7557 81.4544 36.7222C78.9621 36.6776 76.468 36.6578 73.9781 36.5462C71.8721 36.4517 69.7609 36.3195 67.6729 36.0499C66.7113 35.9254 65.7575 35.5166 64.8732 35.0864C63.6429 34.4879 63.4746 33.6257 64.2344 32.4922C65.4647 30.6563 67.2445 29.7821 69.396 29.5597C71.6085 29.3322 73.7515 29.7504 75.8936 30.2192C76.3031 30.3085 76.7393 30.3343 77.1582 30.3094C77.7214 30.2759 78.2125 30.3463 78.6281 30.7739C79.035 31.193 79.5759 31.2866 80.1383 31.3441C80.5916 31.3905 81.0363 31.5176 81.4742 31.6799C80.9754 32.0715 80.4413 31.9899 79.9168 31.9306C79.3853 31.8705 78.859 31.7649 78.3276 31.7134C78.0503 31.6868 77.7652 31.734 77.4759 31.8078C77.9988 32.4914 78.7998 32.2604 79.5244 32.5506C79.2874 32.6794 79.0591 32.828 78.8118 32.9327C78.0554 33.2513 77.2793 33.5253 76.5358 33.8687C75.6944 34.2569 74.8453 34.2474 73.9824 34.0216C72.935 33.7477 71.8859 33.4746 70.8539 33.1509C70.5027 33.0409 70.1653 32.8177 69.882 32.5755C69.0998 31.9083 68.2361 31.7331 67.2737 32.0543C66.8693 32.19 66.4667 32.3497 66.0932 32.5523C65.8605 32.6786 65.6416 32.8778 65.4905 33.095C65.2209 33.4849 65.3059 33.7245 65.7352 33.9151C67.3827 34.645 69.1402 34.876 70.9114 35.034C74.2263 35.3303 77.5463 35.1946 80.8655 35.1233C82.1078 35.0967 83.3656 35.0684 84.5272 35.5724C86.5173 36.4371 87.7957 37.9648 88.3108 40.0643C88.4413 40.5967 88.4044 41.2554 88.2112 41.7672C87.4531 43.774 87.8979 45.5567 89.0664 47.2312C89.5034 47.8563 89.9936 48.4488 90.4993 49.0207C91.0822 49.6793 91.5047 50.4075 91.6412 51.28C91.861 52.6814 92.0996 54.082 92.2636 55.4902C92.3606 56.3215 92.1563 57.1373 91.8069 57.8998C91.1355 59.3656 91.254 60.8529 91.7073 62.3333C91.9399 63.0916 92.298 63.812 92.5263 64.572C92.6397 64.9472 92.6337 65.3766 92.5976 65.7733C92.5736 66.0404 92.6156 66.1692 92.8354 66.3332C93.1325 66.5556 93.4227 66.8295 93.615 67.143C94.2743 68.2172 95.199 68.6964 96.4594 68.6139C97.1419 68.5693 97.8313 68.6122 98.5165 68.6363C98.95 68.6517 99.096 68.9523 98.9414 69.2966C98.7397 69.7457 98.519 70.236 98.1696 70.5615C96.856 71.7852 95.3072 72.1287 93.5755 71.5971C92.6963 71.3275 92.7178 71.3541 92.1348 72.078C91.7691 72.5314 91.6635 72.971 91.8798 73.512C91.9812 73.7654 92.0121 74.0462 92.0893 74.3098C92.2636 74.8997 92.2018 75.4579 91.8902 75.9894C90.9681 77.5634 90.9277 79.1521 91.697 80.8154C91.9065 81.2679 91.9348 81.8673 91.8627 82.3722C91.7648 83.0592 91.7897 83.7049 91.9674 84.3653C92.0747 84.7629 92.1675 85.1682 92.2173 85.5769C92.3151 86.3695 91.8592 86.9294 91.0728 86.883C90.331 86.8392 89.5764 86.7371 88.8655 86.5301C87.8747 86.2416 87.5235 85.1175 88.1718 84.3181C88.7152 83.6483 88.7393 83.024 88.3555 82.2924C87.9923 81.5994 87.988 80.9433 88.4688 80.2306C89.1711 79.1898 89.117 77.9988 88.8157 76.8249C88.7135 76.4274 88.5195 76.0547 88.389 75.664C88.0739 74.7194 87.8292 74.5751 86.786 74.7786C86.865 75.1573 86.6109 75.2775 86.3061 75.3179C84.6388 75.536 83.6695 76.6875 82.7972 77.955C82.6384 78.186 82.592 78.4926 82.4873 78.7613C82.3053 79.2268 82.1061 79.6862 81.9404 80.1576C81.8914 80.2959 81.8674 80.5269 81.9455 80.6119C82.4358 81.1494 82.3868 82.2185 81.7704 82.6393C81.1857 83.0394 80.7281 83.5186 80.4036 84.1489C80.3186 84.3138 80.0953 84.4641 79.9082 84.5113C79.0196 84.7354 78.1275 84.9561 77.2243 85.1004C76.9505 85.1441 76.6088 84.987 76.3512 84.8333C76.1391 84.7071 76 84.6865 75.7742 84.7809C74.1979 85.4464 74.0048 85.1905 73.2879 83.5186C73.1153 83.1159 73.0938 82.6504 72.9367 82.2391C72.7152 81.6586 72.4748 81.0773 72.1623 80.544C71.9279 80.1447 71.4583 80.2452 71.0694 80.2778C70.6933 80.3096 70.3782 80.4985 70.3018 80.8909C70.2477 81.1674 70.2537 81.4689 70.2984 81.7479C70.386 82.2898 70.2786 82.7475 69.8597 83.1193C69.1677 83.7333 68.8174 84.4907 68.8363 85.4301C68.8414 85.6946 68.7624 85.9797 68.6534 86.2253C68.3641 86.8787 68.0704 87.0505 67.3733 86.9354C66.8333 86.8461 66.2838 86.7388 65.7772 86.5413C64.7401 86.1368 64.5504 85.3554 65.2261 84.4666C65.3626 84.2872 65.5231 84.1257 65.6742 83.954L65.6768 83.9531ZM75.363 75.3222C74.6873 75.3368 74.3619 75.5807 74.2804 76.1775C74.2185 76.63 74.2821 77.1066 74.1773 77.5454C74.1035 77.8545 73.8425 78.1182 73.6648 78.4024C73.4733 78.1826 73.2192 77.9911 73.0998 77.7369C72.5074 76.4789 72.5744 75.1573 72.771 73.822C72.9444 72.6473 73.4424 71.6813 74.3834 70.9359C74.7526 70.6431 75.1243 70.3193 75.3862 69.9355C75.6437 69.5585 75.8507 69.1017 75.9262 68.6534C76.0438 67.9579 75.7442 67.6762 75.041 67.6462C74.3688 67.6178 74.2143 67.4487 74.0683 66.7961C73.8863 65.9803 73.6536 65.1757 73.4338 64.3693C73.3291 63.9863 73.1797 63.6145 73.0921 63.2281C73.0157 62.8958 72.9977 62.5497 72.9419 62.1221C73.2475 62.1891 73.4587 62.2105 73.6502 62.2827C73.9644 62.4003 74.2658 62.5523 74.574 62.688C75.2299 62.9782 75.6583 62.9061 76.1366 62.3685C76.4405 62.0268 76.6809 61.6292 76.9788 61.2814C77.2149 61.0049 77.4776 60.7447 77.7592 60.5163C78.064 60.269 78.3696 60.2947 78.6384 60.6159C78.9526 60.9912 79.2926 61.3441 79.6034 61.7219C79.8343 62.0036 80.0722 62.1624 80.4697 62.0723C80.6113 62.0396 80.9058 62.1839 80.947 62.3084C81.0423 62.5918 80.8277 62.7592 80.5504 62.7996C80.2181 62.8477 79.8764 62.8494 79.5493 62.9207C78.7792 63.0899 77.9764 63.1972 77.2604 63.5012C76.4388 63.8498 76.1898 64.6063 76.4671 65.4633C76.5839 65.8223 76.7496 66.1812 76.9633 66.4903C77.7378 67.6092 78.6873 68.5521 79.8738 69.2408C80.8474 69.8058 81.8828 69.9527 82.9724 69.6916C83.5338 69.5577 84.0498 69.3258 84.5512 68.8046C83.9477 68.6947 83.4506 68.6354 82.9706 68.51C82.0735 68.2756 81.1351 68.1116 80.3083 67.7192C79.254 67.2177 79.2831 66.3014 80.2679 65.6806C80.3838 65.6076 80.5057 65.5415 80.6268 65.4771C81.2072 65.1696 81.7841 64.8562 82.3722 64.5668C82.471 64.5187 82.6212 64.5728 82.7466 64.5831C83.1784 64.6201 83.6137 64.7145 84.0404 64.6828C84.5547 64.645 85.0586 64.4329 85.5712 64.4148C87.0737 64.3616 88.4963 64.5668 89.3677 66.0206C89.6819 66.5444 89.9249 67.1163 90.2726 67.6144C90.6083 68.0944 91.0033 68.5461 91.436 68.9403C91.885 69.3499 92.4036 69.6848 92.9032 70.036C94.3439 71.0492 95.8901 71.2227 97.5068 70.5323C98.0863 70.285 98.4864 69.8273 98.6822 69.142C98.4813 69.118 98.3207 69.0837 98.1602 69.0837C97.6244 69.0837 97.0887 69.0802 96.5547 69.106C95.3252 69.1644 94.2675 68.7625 93.3737 67.933C92.8809 67.4762 92.3881 67.0124 91.9425 66.5101C90.3542 64.718 88.298 63.5475 86.3422 62.2414C86.0477 62.0448 85.8554 62.0783 85.7163 62.4312C85.6244 62.6639 85.5274 62.9009 85.1823 62.9112C84.1735 62.9421 83.2024 62.8219 82.2821 62.372C81.7764 62.1247 81.2544 61.9074 80.7272 61.709C80.1031 61.4737 79.6609 61.0865 79.4257 60.445C79.3681 60.2879 79.1621 60.1445 78.9921 60.0775C78.5379 59.8997 78.0606 59.7821 77.6047 59.6095C77.4424 59.5485 77.2527 59.43 77.1788 59.2849C76.9522 58.8435 76.7642 58.3815 76.583 57.9187C76.401 57.4541 76.4903 57.3305 76.9711 57.1476C77.8245 56.823 78.6693 56.4752 79.5167 56.1334C80.5718 55.7084 81.3239 55.8209 81.4433 57.1613C81.4673 57.4352 81.4931 57.7117 81.5532 57.9797C81.6373 58.3506 81.7266 58.725 81.8657 59.0771C82.0056 59.4309 82.3061 59.6207 82.6942 59.6258C82.7886 59.6267 82.9174 59.5949 82.9715 59.5288C83.1269 59.3407 83.0093 58.7439 82.8659 58.5378C82.6384 58.2106 82.3971 57.8697 82.2726 57.4979C82.0451 56.8187 81.9601 56.0888 81.7051 55.4216C80.9402 53.4165 80.3246 51.3727 79.8824 49.2732C79.6 47.9301 78.9088 46.8499 77.7309 46.0959C77.0586 45.6657 76.9247 44.9264 76.6362 44.1355C77.4252 44.3107 78.0855 44.4936 78.7586 44.5992C79.8756 44.7744 80.559 45.439 80.9788 46.4343C81.1333 46.8001 81.2681 47.1745 81.4098 47.5454C81.6596 48.2024 81.8743 48.8747 82.167 49.5119C82.4452 50.1164 82.8616 50.6334 83.4952 50.9159C84.0747 51.1744 84.5744 50.9666 84.783 50.3723C84.8577 50.1602 84.9341 49.9129 84.8955 49.7025C84.7401 48.8524 84.5976 47.992 84.3392 47.1702C84.1297 46.5055 83.7528 45.8941 83.466 45.2527C83.2677 44.8087 83.3261 44.7117 83.8069 44.5898C84.0301 44.5331 84.2559 44.4867 84.4808 44.4361C84.4894 44.3759 84.4971 44.315 84.5057 44.2549C83.8549 44.0161 83.217 43.731 82.5508 43.549C81.0088 43.1257 79.3862 42.9745 77.9721 42.1364C77.9206 42.1055 77.8588 42.0849 77.7996 42.0754C77.1059 41.9647 76.5675 41.5826 76.0507 41.1317C75.7571 40.8758 75.4179 40.6285 75.0565 40.5031C74.2701 40.2301 73.3866 40.6251 72.844 41.4907C72.3478 42.2833 71.6961 42.8689 70.8616 43.2742C70.574 43.4142 70.2967 43.5799 70.0271 43.7542C67.9477 45.0973 65.894 46.4824 63.7854 47.7782C62.2992 48.6918 61.3505 49.9584 60.9736 51.6278C60.6405 53.1022 60.3769 54.5946 60.1477 56.0888C60.0035 57.0299 59.7373 57.8156 59.0316 58.5524C57.3857 60.2724 56.2799 62.3247 56.2301 64.7686C56.1898 66.7359 55.7579 68.6122 55.2634 70.4937C55.0316 71.3773 54.9123 72.2927 54.7792 73.1986C54.7225 73.585 54.7929 73.9646 55.3252 74.0934C55.4274 73.7903 55.5416 73.5077 55.6163 73.2158C55.9391 71.9578 56.1975 70.6791 56.583 69.4409C56.935 68.3074 57.3978 67.2065 57.8597 66.1108C58.0331 65.6995 58.3499 65.3543 58.8315 65.1619C58.9638 65.465 59.0685 65.7338 59.1956 65.9914C59.4068 66.4225 59.891 66.6879 60.3641 66.6509C60.8629 66.6114 61.2604 66.3057 61.3969 65.8111C61.4948 65.4582 61.542 65.0924 61.6201 64.7343C61.7171 64.2895 61.8794 63.8833 62.3164 63.6566C62.5688 63.5252 62.7654 63.5286 62.9191 63.824C63.6515 65.2323 64.9299 65.7235 66.4049 65.8197C67.715 65.9047 68.7573 65.4814 69.22 64.1246C69.2492 64.0387 69.3025 63.9606 69.342 63.8781C69.6811 63.1706 70.2237 62.8185 71.0264 62.858C71.8584 62.8984 72.4448 63.2375 72.7375 64.055C73.1522 65.2126 73.1514 66.3942 73.008 67.5886C72.8878 68.5908 72.5564 69.4838 71.7322 70.145C71.448 70.3726 71.2222 70.6723 70.9655 70.9342C69.8519 72.0754 69.7627 73.3283 70.3954 74.7683C71.2548 76.7253 72.0052 78.7304 72.8028 80.7149C72.8938 80.9416 72.9367 81.2112 73.0887 81.3856C73.6485 82.0296 73.7936 82.787 73.8107 83.6019C73.821 84.124 74.0992 84.5053 74.5637 84.7182C74.7225 84.7912 74.9655 84.8075 75.1123 84.7337C75.193 84.6933 75.199 84.4022 75.1604 84.2434C75.0522 83.7985 74.8848 83.3683 74.7775 82.9244C74.7302 82.7277 74.7697 82.5105 74.7697 82.3027C74.8255 82.2949 74.8805 82.2864 74.9363 82.2786C75.0496 82.4521 75.1681 82.623 75.2746 82.7999C75.4883 83.1554 75.7948 83.3589 76.2112 83.364C76.5366 83.3683 76.7298 83.2035 76.7367 82.8626C76.7444 82.5139 76.5469 82.4006 76.2327 82.4487C75.8386 82.5088 75.6343 82.3078 75.5132 81.9643C75.4016 81.6475 75.3201 81.3109 75.1535 81.024C74.6925 80.228 74.6229 79.4457 74.9612 78.5699C75.3621 77.5317 75.3802 76.4239 75.363 75.3196V75.3222ZM59.0136 88.0509C59.7751 88.0724 60.0206 87.8869 60.1426 87.3802C60.2679 86.8616 60.3692 86.3369 60.5117 85.8234C60.7049 85.1253 60.1846 84.5147 59.4849 84.701C58.5104 84.9604 57.7678 85.558 57.3119 86.4648C57.0561 86.9749 57.2029 87.418 57.7257 87.6413C58.2117 87.8482 58.7362 87.965 59.0136 88.05V88.0509ZM90.1713 70.5667C90.1713 70.8346 90.1713 71.0424 90.1713 71.2502C90.1722 71.6074 90.3284 71.8564 90.6641 71.999C91.2394 72.2429 91.8464 72.084 92.1108 71.6091C92.3709 71.1411 92.219 70.5787 91.6892 70.2189C91.0522 69.7869 90.3207 69.6161 89.5618 69.6315C88.9642 69.6435 88.7341 69.963 88.6714 70.5744C88.6165 71.1145 88.4843 71.6461 88.3855 72.1819C88.3649 72.2918 88.3417 72.4017 88.3091 72.5683C88.9831 72.3648 89.445 72.0565 89.5472 71.3687C89.5961 71.0398 89.6502 70.698 90.1705 70.5667H90.1713ZM61.1316 81.3349C61.1479 81.6913 61.1041 82.0846 61.5678 82.185C62.0022 82.2795 62.3053 82.1172 62.434 81.6621C62.4692 81.5393 62.5628 81.3933 62.671 81.3366C63.3578 80.976 63.4703 80.3165 63.606 79.6527C63.7433 78.9786 63.3347 78.5604 62.6762 78.7811C62.3714 78.8833 62.064 79.0791 61.8459 79.3135C61.3222 79.8742 61.1797 80.5964 61.1316 81.3349ZM60.3624 88.8658C59.0213 88.6923 57.8185 88.53 56.6139 88.3884C56.4662 88.3712 56.3065 88.4579 56.152 88.4966C56.231 88.6494 56.2791 88.834 56.3941 88.9508C57.0732 89.6361 59.1277 89.8705 59.9365 89.351C60.1031 89.2436 60.2104 89.0427 60.3624 88.8658ZM89.0518 84.7972C88.9307 85.522 89.2741 86.0922 89.9146 86.2948C90.5912 86.5095 91.3699 86.2459 91.6343 85.7118C91.7631 85.4507 91.7923 85.2704 91.4008 85.2154C90.7723 85.127 90.1516 84.9827 89.5274 84.8651C89.3694 84.835 89.2089 84.8187 89.0518 84.7964V84.7972ZM78.0443 72.9487C78.0082 72.9582 77.9721 72.9676 77.9361 72.9771C78.137 73.4949 78.3156 74.023 78.5482 74.527C78.6547 74.7572 78.8856 74.9976 79.1612 74.8018C79.2583 74.7323 79.2402 74.3948 79.1724 74.2188C78.9449 73.6262 79.0007 73.3849 79.5536 73.0775C79.8627 72.9049 79.8249 72.6842 79.569 72.5778C79.2471 72.4447 78.8813 72.3794 78.5311 72.3622C78.1791 72.3459 77.9507 72.5322 78.0443 72.9487ZM67.8713 85.7289C67.266 85.473 66.732 85.2283 66.1825 85.0256C66.0176 84.9647 65.7317 84.9424 65.6373 85.0368C65.4227 85.2532 65.4596 85.5383 65.688 85.7693C66.1584 86.2442 67.2814 86.2639 67.8721 85.7289H67.8713Z" fill="white"/>
<path d="M31.8677 72.4016C31.7475 72.2453 31.5878 72.1062 31.5157 71.931C31.2942 71.3951 31.0899 70.8499 30.9078 70.2994C29.7488 66.8019 28.5228 63.325 27.4625 59.7974C26.0218 55.0015 25.0688 50.0914 24.3202 45.1417C23.6677 40.8284 23.2118 36.4937 23.0229 32.1348C22.9036 29.3844 22.8486 26.6305 22.7859 23.8775C22.7756 23.4232 22.8452 22.9612 22.9259 22.5121C23.0006 22.0956 23.1594 22.0441 23.4762 22.324C24.1467 22.9174 24.5202 23.68 24.6061 24.5644C24.6902 25.4317 24.7306 26.3042 24.7812 27.1749C25.0577 31.9554 25.268 36.7401 25.6234 41.5145C25.9952 46.5054 26.7482 51.4507 27.757 56.3548C28.7812 61.3345 30.1343 66.2231 31.769 71.0353C31.9089 71.4484 31.9673 71.8898 32.0635 72.3174C31.9982 72.3457 31.933 72.3741 31.8677 72.4024V72.4016Z" fill="white"/>
<path d="M51.5208 28.1007C51.0108 28.1565 50.5129 28.2106 49.9316 28.2742V21.6028C49.8801 21.5951 49.8278 21.5874 49.7762 21.5788C49.0456 23.9677 48.315 26.3558 47.5844 28.7447C47.5165 28.7413 47.4478 28.737 47.38 28.7336C46.6648 26.6392 45.9488 24.5448 45.2336 22.4512C45.1959 22.4547 45.1572 22.4581 45.1195 22.4615C45.1109 22.6153 45.0954 22.769 45.0954 22.9235C45.0954 24.7895 45.0843 26.6555 45.1091 28.5215C45.1143 28.9113 44.989 29.0693 44.6206 29.1148C44.2472 29.1604 43.878 29.2411 43.4401 29.3184C43.4401 29.0908 43.4401 28.9276 43.4401 28.7636C43.4401 25.2609 43.447 21.7583 43.4324 18.2556C43.4307 17.882 43.5217 17.7223 43.9072 17.6476C45.2362 17.3908 45.2397 17.3728 45.6603 18.6592C46.2158 20.3586 46.7593 22.0622 47.3113 23.7633C47.3611 23.9153 47.4341 24.0596 47.5998 24.1996C47.8582 23.3151 48.1175 22.4306 48.3734 21.5453C48.8018 20.0623 49.2354 18.5802 49.6483 17.0937C49.7342 16.7863 49.8655 16.6352 50.2029 16.6197C50.6245 16.6 51.0435 16.5158 51.52 16.4514V28.1033L51.5208 28.1007Z" fill="white"/>
<path d="M108.359 32.2165C107.357 32.1607 106.974 31.849 106.64 31.0306C105.843 29.0779 105.011 27.139 104.202 25.1914C103.934 24.5474 103.693 23.8922 103.439 23.2421C103.396 23.2507 103.352 23.2593 103.309 23.267V30.7395C102.778 30.6142 102.311 30.5317 101.869 30.378C101.754 30.3385 101.656 30.0766 101.654 29.9152C101.636 28.7224 101.643 27.5297 101.642 26.3361C101.641 24.0115 101.639 21.6861 101.638 19.3616C101.638 19.1967 101.638 19.0319 101.638 18.8739C102.673 18.7365 103.322 19.116 103.683 19.9971C104.595 22.2168 105.518 24.4323 106.437 26.6486C106.472 26.7311 106.514 26.8101 106.659 26.8822V20.1636C107.224 20.3165 107.698 20.4195 108.149 20.5853C108.25 20.6222 108.319 20.8807 108.319 21.0378C108.336 22.9802 108.336 24.9226 108.342 26.865C108.347 28.4708 108.354 30.0766 108.36 31.6824C108.36 31.8473 108.36 32.013 108.36 32.2148L108.359 32.2165Z" fill="white"/>
<path d="M59.011 21.3882C59.8549 21.8382 60.3246 22.5295 60.4259 23.432C60.5675 24.6977 60.346 25.887 59.3973 26.8101C59.1097 27.0901 58.6864 27.3331 58.2967 27.388C56.9977 27.5718 55.6849 27.6568 54.3791 27.7908C53.9996 27.8294 53.8785 27.6843 53.8794 27.3056C53.8906 23.7445 53.8871 20.1835 53.8863 16.6232C53.8863 16.3296 53.9541 16.1192 54.3061 16.0951C55.266 16.0307 56.2241 15.932 57.1848 15.883C58.4031 15.8212 59.4394 16.1698 59.9846 17.366C60.5478 18.6026 60.2739 20.0804 59.3544 21.0198C59.2497 21.1272 59.1501 21.2388 59.011 21.3882ZM55.6618 26.2391C56.176 26.2039 56.6628 26.2116 57.135 26.1318C58.5534 25.8922 59.266 24.1739 58.4306 22.982C58.2623 22.7424 57.9412 22.4985 57.6656 22.4668C57.0105 22.3921 56.3409 22.4427 55.6609 22.4427V26.2391H55.6618ZM55.6351 20.9245C56.3555 20.7777 57.0329 20.7262 57.6424 20.4952C58.513 20.1654 58.841 18.7073 58.2477 17.986C58.088 17.7911 57.8081 17.6116 57.566 17.585C57.038 17.5275 56.4988 17.5567 55.9665 17.5901C55.8506 17.597 55.6515 17.7662 55.6497 17.8641C55.6257 18.837 55.6351 19.8108 55.6351 20.9254V20.9245Z" fill="white"/>
<path d="M77.7798 27.3735C77.2011 27.3735 76.6671 27.4001 76.1391 27.3546C76.0128 27.3434 75.8575 27.1116 75.8008 26.9518C75.2857 25.5135 74.7937 24.0666 74.2811 22.6274C74.221 22.4582 74.0948 22.2075 73.9678 22.1877C73.6123 22.1319 73.2397 22.1611 72.8783 22.1997C72.831 22.2049 72.7855 22.4659 72.7847 22.6093C72.7787 24.0159 72.7727 25.4233 72.7898 26.8299C72.7941 27.1785 72.6963 27.3056 72.3331 27.3271C71.0556 27.4018 71.053 27.413 71.053 26.1696C71.053 22.7596 71.0521 19.3497 71.0513 15.9397C71.0513 15.7731 71.0513 15.6057 71.0513 15.3867C71.2547 15.3704 71.4325 15.3403 71.6093 15.3438C72.7237 15.367 73.845 15.3369 74.9517 15.4434C76.1992 15.5636 77.1625 16.2076 77.566 17.4382C77.9952 18.7477 77.9454 20.0384 77.0311 21.1701C76.8645 21.3771 76.6198 21.5377 76.382 21.6656C76.0704 21.8339 75.9905 22.0177 76.1116 22.3663C76.6542 23.9249 77.1702 25.492 77.6948 27.0566C77.7274 27.1545 77.7471 27.2575 77.778 27.376L77.7798 27.3735ZM72.7881 18.7168H72.7933C72.7933 19.1899 72.7735 19.664 72.8062 20.1345C72.8147 20.2608 72.9796 20.4746 73.0817 20.4797C73.6278 20.5081 74.1833 20.5321 74.7242 20.466C75.6153 20.3561 76.0103 19.846 76.0412 18.8911C76.0729 17.9062 75.6729 17.2776 74.8169 17.1213C74.252 17.0183 73.6647 17.0372 73.0878 17.0011C72.8388 16.9856 72.7813 17.1247 72.7855 17.3437C72.7941 17.8014 72.7881 18.2591 72.7881 18.7168Z" fill="white"/>
<path d="M95.0994 28.9432C94.6092 28.8736 94.2194 28.7963 93.8262 28.7697C93.4604 28.7448 93.3428 28.5954 93.3488 28.2244C93.3703 26.8333 93.3411 25.4413 93.3694 24.0502C93.378 23.6243 93.2475 23.468 92.8251 23.4165C91.9185 23.3066 91.0196 23.1417 90.0417 22.9871V28.2141C89.4879 28.1274 89.0028 28.0742 88.5332 27.9591C88.4285 27.9333 88.3151 27.692 88.3117 27.5478C88.2911 26.6461 88.3014 25.7436 88.3014 24.8411C88.3014 22.2263 88.3014 19.6107 88.3014 16.9959C88.3014 16.8164 88.3014 16.637 88.3014 16.3879C88.8363 16.4523 89.3188 16.4876 89.7884 16.5863C89.8863 16.6069 89.9936 16.8602 89.997 17.0088C90.0237 18.2926 90.0417 19.5781 90.028 20.8618C90.0237 21.2216 90.1516 21.3358 90.4839 21.3788C91.4205 21.4999 92.3529 21.6493 93.3497 21.7961V17.135C93.8897 17.2106 94.3714 17.2492 94.8341 17.3634C94.9457 17.3909 95.0591 17.6674 95.0642 17.8323C95.1054 19.0697 95.1381 20.3088 95.1381 21.5471C95.1381 23.7952 95.1132 26.0433 95.0986 28.2905C95.0977 28.4855 95.0986 28.6804 95.0986 28.9432H95.0994Z" fill="white"/>
<path d="M69.1916 21.3281C69.153 22.9442 68.9787 24.4736 68.1794 25.8561C67.1302 27.6697 64.977 28.13 63.5123 26.7707C63.0006 26.2958 62.5928 25.5942 62.3936 24.9201C61.7317 22.678 61.6655 20.3921 62.3721 18.1397C62.5696 17.5103 62.8821 16.8774 63.2891 16.3622C64.6696 14.613 67.1414 14.8586 68.2223 16.8079C68.8139 17.8753 69.0079 19.05 69.1332 20.241C69.1736 20.6206 69.1745 21.0044 69.1908 21.329L69.1916 21.3281ZM63.5604 21.2234C63.5853 21.2285 63.6093 21.2328 63.6342 21.238C63.6634 21.7566 63.6291 22.289 63.7364 22.7905C63.9072 23.59 64.0764 24.4152 64.4215 25.1468C64.8894 26.1404 66.0141 26.1421 66.6168 25.2121C66.8048 24.921 66.9508 24.5895 67.0512 24.2572C67.4934 22.7991 67.5672 21.3032 67.3131 19.8125C67.1843 19.0568 66.9611 18.2857 66.616 17.6056C66.1498 16.6859 65.0989 16.6645 64.4799 17.4991C64.2661 17.7877 64.0678 18.1294 63.9974 18.4746C63.8119 19.3823 63.7012 20.3054 63.5604 21.2225V21.2234Z" fill="white"/>
<path d="M83.0892 23.1398C83.0892 22.7809 83.0754 22.3541 83.1003 21.9299C83.1055 21.8414 83.26 21.686 83.339 21.6903C84.1615 21.735 84.9849 21.7856 85.8022 21.8861C85.9507 21.9041 86.1705 22.1411 86.1894 22.2974C86.3491 23.6173 86.2761 24.9225 85.8503 26.196C85.5558 27.077 84.9419 27.612 84.0336 27.6317C83.1562 27.6515 82.2538 27.6 81.4064 27.3956C80.9823 27.2934 80.571 26.8391 80.3032 26.4433C79.6739 25.515 79.4326 24.4262 79.2832 23.3296C79.0257 21.4439 79.0402 19.5736 79.752 17.7677C80.3203 16.3251 81.3944 15.5651 82.7801 15.6063C84.2147 15.6493 85.7447 16.921 85.9808 18.2658C86.0804 18.8351 86.0426 18.8909 85.4837 18.9888C85.4682 18.9914 85.4536 18.9948 85.439 18.9974C84.4577 19.1648 84.4612 19.1631 84.0482 18.2486C83.8095 17.7196 83.4146 17.3933 82.8136 17.3693C82.2066 17.3444 81.7516 17.632 81.5472 18.1756C81.318 18.7853 81.1368 19.4259 81.0364 20.0682C80.814 21.4868 80.8492 22.9131 81.2562 24.2974C81.4038 24.7971 81.6691 25.2849 81.9739 25.7108C82.3259 26.202 82.878 26.3162 83.4601 26.1651C84.043 26.0139 84.3015 25.5682 84.359 25.0161C84.4062 24.5618 84.5436 24.0002 84.3401 23.6722C84.1546 23.3725 83.5648 23.3244 83.0909 23.1407L83.0892 23.1398Z" fill="white"/>
<path d="M41.8666 29.6592C41.3283 29.7855 40.8354 29.8894 40.3495 30.019C40.0636 30.0954 39.9692 29.9735 39.9159 29.7185C39.7811 29.0753 39.6094 28.4399 39.4927 27.7941C39.4334 27.4704 39.3089 27.3467 38.9775 27.3931C38.4787 27.4626 37.9765 27.5056 37.4751 27.5528C36.9737 27.6 36.6689 27.8181 36.6157 28.3669C36.5599 28.9431 36.419 29.5115 36.3478 30.0869C36.2611 30.7901 35.9365 31.2427 35.2008 31.3578C34.9217 31.4015 34.6513 31.5037 34.2812 31.6059C34.3834 31.0606 34.4487 30.5969 34.5577 30.1444C35.3862 26.6838 36.2284 23.2266 37.0501 19.7634C37.1814 19.2104 37.5309 19.0043 38.0374 18.8978C38.9604 18.7029 38.9775 18.6832 39.2102 19.5754C39.7914 21.8072 40.3401 24.0475 40.9273 26.2785C41.1952 27.296 41.5249 28.2973 41.8219 29.3072C41.8511 29.4059 41.8485 29.5132 41.8666 29.6601V29.6592ZM38.1507 22.2142L38.0366 22.2108C37.7507 23.522 37.4639 24.8324 37.1583 26.233C37.7464 26.1007 38.2478 25.9994 38.7397 25.8637C38.8127 25.844 38.8994 25.6473 38.8797 25.5529C38.6479 24.4374 38.3963 23.3262 38.1507 22.2142Z" fill="white"/>
<path d="M27.8866 33.7683C27.8866 33.5733 27.8866 33.3776 27.8866 33.1826C27.8875 29.7246 27.8883 26.2657 27.8892 22.8077C27.8892 22.1422 27.963 22.0211 28.582 21.8038C28.8817 21.6991 29.195 21.6347 29.5874 21.5291V31.497C30.9018 31.0599 32.1176 30.6563 33.4414 30.2158C33.4414 30.7018 33.4861 31.0874 33.4243 31.454C33.3899 31.661 33.2208 31.9461 33.0431 32.0114C31.3964 32.6245 29.7351 33.1981 28.0772 33.7812C28.0386 33.7949 27.9879 33.776 27.8857 33.7674L27.8866 33.7683Z" fill="white"/>
<path d="M99.2316 29.7375C98.6778 29.6396 98.215 29.5485 97.7488 29.4798C97.4183 29.4309 97.4947 29.1879 97.4947 28.9887C97.4904 26.221 97.4913 23.4543 97.4904 20.6866C97.4904 19.7721 97.4904 18.8576 97.4904 17.8572C98.0442 17.9585 98.5507 18.0281 99.041 18.1603C99.1354 18.1861 99.2135 18.4548 99.2152 18.6128C99.2298 19.8666 99.2247 21.1203 99.2255 22.374C99.2273 24.6367 99.229 26.8994 99.2316 29.1621C99.2316 29.3261 99.2316 29.4901 99.2316 29.7375Z" fill="white"/>
<path d="M111.61 32.9756C111.053 32.8734 110.583 32.8098 110.129 32.6871C110.022 32.6579 109.903 32.4312 109.9 32.2938C109.882 31.0246 109.89 29.7554 109.889 28.4862C109.889 26.2227 109.887 23.96 109.886 21.6964C109.886 21.5169 109.886 21.3366 109.886 21.0781C110.454 21.1923 110.964 21.2722 111.456 21.4139C111.547 21.4405 111.61 21.7153 111.611 21.8759C111.625 24.2459 111.626 26.6168 111.629 28.9869C111.631 30.1487 111.632 31.3114 111.632 32.4732C111.632 32.6209 111.619 32.7678 111.609 32.9756H111.61Z" fill="white"/>
<path d="M76.7907 42.9127C76.7821 43.0037 76.7855 43.0973 76.7632 43.1849C76.7057 43.4116 76.6379 43.6349 76.5735 43.8599C76.3253 43.7577 76.0523 43.6933 75.8351 43.5456C75.4153 43.2605 75.1878 42.832 75.2891 42.3271C75.3363 42.0926 75.5192 41.7801 75.7141 41.7114C75.9098 41.6427 76.2798 41.7603 76.4241 41.926C76.6456 42.1811 76.7383 42.5478 76.8851 42.8663C76.8534 42.8818 76.8216 42.8964 76.7898 42.9119L76.7907 42.9127Z" fill="white"/>
</svg>
