<svg width="214" height="166" viewBox="0 0 214 166" fill="none" xmlns="http://www.w3.org/2000/svg">
<g clip-path="url(#clip0_2061_4138)">
<path d="M95.6375 79.8188H100.119L104.025 68.2563L106.306 79.8188H110.794L116.906 61.9563L112.219 61.9626L108.956 71.6751L107.088 61.9626H100.775L100.619 62.4251L100.931 62.7251C101.263 63.0563 101.244 63.4376 100.963 64.2626L95.6375 79.8188ZM119.069 64.2626L113.738 79.8251H121.606C124.981 79.8251 126.9 79.0751 128.469 77.4063C130.425 75.3313 132.219 69.9376 132.156 66.9688C132.1 63.9376 130.144 61.9688 126.031 61.9688H118.875L118.725 62.4251L119.037 62.7251C119.362 63.0563 119.356 63.4376 119.069 64.2626ZM123.344 66.2001H125.3C126.631 66.2001 127.362 66.6438 127.381 67.6751C127.394 68.3376 127.212 69.2501 126.525 71.2063C125.912 72.9563 125.425 73.9751 124.731 74.7188C124.181 75.3063 123.438 75.5626 121.744 75.5626H120.112L123.344 66.2001ZM148.756 68.3688H136.875L135.331 72.6188H143.569L134.213 75.8001L133.631 77.3188L147.112 72.8813L148.756 68.3688ZM63.5188 79.8251H75.7062L77.1813 75.5626H70.0938L74.7812 61.9626H68.6625L68.5125 62.4251L68.8187 62.7251C69.15 63.0563 69.1375 63.4376 68.85 64.2626L63.5188 79.8251ZM76.975 79.8188H82.1625L84.4062 75.8688H89.775L89.825 79.8188H94.5312L93.5188 61.9626H86.475L86.3187 62.4251L86.5438 62.6501C86.9188 63.0126 86.7625 63.5376 85.3938 65.7126L76.975 79.8188ZM89.45 66.9001H89.6125L89.7 72.3001H86.4062L89.45 66.9001ZM82.0625 83.6876H74.35L74.1937 84.1501L74.5063 84.4626C74.8375 84.7813 74.8187 85.1688 74.5312 85.9938L69.1437 101.556H74.0687L76.175 95.3751H77.8438L79.6937 101.55H84.6438L82.3187 95.2376C83.3271 95.1326 84.2754 94.7077 85.025 94.0251C85.9563 93.1751 86.6 91.9876 87.1313 90.2313C87.9062 87.6876 87.4375 86.2313 86.9375 85.4813C86.25 84.4563 84.8 83.6876 82.0625 83.6876ZM82.4875 90.1751C82.175 90.9376 81.8375 91.1188 81.3937 91.3001C80.894 91.4288 80.3781 91.4835 79.8625 91.4626H77.5L78.7812 87.7688H81.625C82.475 87.7688 82.825 88.2063 82.8375 88.7188C82.7967 89.2201 82.6764 89.7116 82.4812 90.1751M147.706 83.6876H140L139.85 84.1501L140.162 84.4626C140.494 84.7813 140.475 85.1688 140.194 85.9938L134.8 101.556H139.731L141.831 95.3813H143.5L145.356 101.55H150.294L147.981 95.2376C148.985 95.1309 149.929 94.706 150.675 94.0251C151.613 93.1751 152.256 91.9876 152.787 90.2313C153.562 87.6876 153.1 86.2313 152.6 85.4813C151.912 84.4563 150.45 83.6876 147.706 83.6876ZM148.144 90.1751C147.831 90.9376 147.494 91.1188 147.056 91.3001C146.556 91.4284 146.041 91.4832 145.525 91.4626H143.175L144.444 87.7688H147.287C148.137 87.7688 148.488 88.2063 148.494 88.7188C148.456 89.2199 148.338 89.7117 148.144 90.1751ZM156.688 60.5376C141.906 52.9001 123.5 49.9751 107 49.9751C90.5 49.9751 72.0938 52.9001 57.3125 60.5376C49 64.8313 38.4688 72.5688 38.4688 83.0001C38.4688 93.4313 49.0063 101.169 57.3125 105.463C72.0938 113.1 90.5 116.025 107 116.025C123.5 116.025 141.906 113.106 156.688 105.463C164.994 101.169 175.531 93.4313 175.531 83.0001C175.531 72.5626 165 64.8313 156.688 60.5376ZM155.938 104C141.375 111.519 123.269 114.375 107 114.375C90.7313 114.375 72.625 111.519 58.0625 104C50.3688 100.006 40.125 92.6626 40.125 83.0001C40.125 73.3251 50.3625 65.9876 58.0625 62.0063C72.625 54.4876 90.7375 51.6313 107 51.6313C123.269 51.6313 141.375 54.4813 155.938 62.0063C163.644 65.9876 173.875 73.3188 173.875 83.0063C173.875 92.6751 163.637 100.013 155.938 104ZM159.656 54.7938C145.569 47.5126 126.875 43.5063 107 43.5063C87.1313 43.5063 68.4375 47.5126 54.3438 54.7938C46 59.1063 32 68.5063 32 83.0001C32 97.4938 46 106.894 54.3438 111.206C68.4313 118.488 87.1313 122.5 107 122.5C126.875 122.5 145.569 118.494 159.656 111.213C168 106.894 182 97.5001 182 83.0001C182 68.5001 168 59.1063 159.656 54.7938ZM157.825 107.669C144.294 114.65 126.25 118.5 107 118.5C87.75 118.5 69.7125 114.65 56.175 107.656C43.1625 100.938 35.9875 92.1751 35.9875 83.0001C35.9875 73.8188 43.1625 65.0626 56.175 58.3376C69.7125 51.3501 87.7562 47.5001 107 47.5001C126.25 47.5001 144.294 51.3563 157.825 58.3438C170.844 65.0626 178.012 73.8251 178.012 83.0063C178.012 92.1813 170.844 100.944 157.825 107.669ZM99.0125 83.4813H98.4437C95.075 83.4813 93.1562 84.3813 91.575 86.0563C89.6125 88.1376 87.7687 93.7438 87.8062 96.7188C87.8438 99.7438 89.8062 101.844 93.9187 101.844H94.5188C97.8938 101.844 99.8187 100.938 101.394 99.2626C103.356 97.1813 105.162 91.5751 105.125 88.6001C105.088 85.5751 103.125 83.4751 99.0062 83.4751M99.2938 92.9438C98.6813 94.7001 98.2 95.8313 97.4938 96.5751C96.9313 97.1626 96.2 97.5813 94.4937 97.5813C93.1687 97.5813 92.4312 97.0376 92.4312 96.0126C92.4187 95.3438 92.6 94.3376 93.3125 92.3751C93.925 90.6251 94.4062 89.4876 95.1188 88.7438C95.6688 88.1563 96.4125 87.7376 98.1062 87.7376C99.4375 87.7376 100.175 88.2813 100.169 89.3001C100.188 89.9751 100.006 90.9876 99.2938 92.9438ZM69.7188 86.0001L56.2375 90.4313L54.5938 94.9501H66.4813L68.0312 90.6938H59.7875L69.1437 87.5251L69.7188 86.0001ZM118.756 83.6938L112.219 96.5376H112.081L111.75 83.6938H106.281L106.069 84.1563L106.537 84.4438C106.994 84.7626 107.119 85.0876 107.175 85.9813L107.919 101.556H114.012L123.844 83.6938H118.756ZM133.731 94.3938L135.1 90.6626H128.812L129.787 87.8063H136.587L138.088 83.6813H125.25L125.069 84.2063L125.381 84.5126C125.713 84.8313 125.694 85.2126 125.406 86.0501L120.062 101.55H132.062L133.513 97.4063H126.512L127.537 94.3938H133.731Z" fill="white"/>
</g>
<defs>
<clipPath id="clip0_2061_4138">
<rect width="150" height="150" fill="white" transform="translate(32 8)"/>
</clipPath>
</defs>
</svg>
