<svg width="150" height="151" viewBox="0 0 150 151" fill="none" xmlns="http://www.w3.org/2000/svg">
<g clip-path="url(#clip0_2003_2598)">
<path d="M62.1163 89.3669C62.8588 87.9719 63.5728 86.7149 64.2088 85.4204C67.5073 78.7064 69.4903 71.5799 70.7908 64.2434C71.9788 57.5369 72.5158 50.7659 72.7768 43.9679C72.8608 41.7749 72.3448 41.4284 70.3393 42.3224C68.9308 42.9494 67.5268 43.5839 66.0433 44.1644C70.1593 36.8639 73.4533 29.2664 74.9983 20.9639C76.5463 29.2529 79.8253 36.8429 84.0883 44.2349C83.7643 44.1284 83.5918 44.0879 83.4328 44.0174C81.9718 43.3694 80.5258 42.6854 79.0513 42.0719C77.8033 41.5529 77.1853 41.9504 77.2273 43.2749C77.6248 55.8644 78.9598 68.3069 83.5378 80.1719C84.6478 83.0519 86.1523 85.7789 87.4783 88.5749C87.5833 88.7969 87.7153 89.0069 87.8863 89.3174C87.5773 89.3369 87.3463 89.3639 87.1153 89.3639C84.5158 89.3669 81.9163 89.3459 79.3183 89.3804C78.7243 89.3879 78.4153 89.2259 78.2233 88.6484C77.2618 85.7594 76.2673 82.8809 75.2833 79.9994C75.2128 79.7909 75.1468 79.5809 75.0013 79.1399C74.8633 79.5539 74.7928 79.7684 74.7193 79.9814C73.7278 82.8869 72.7288 85.7894 71.7493 88.6994C71.5813 89.1974 71.3233 89.3864 70.7728 89.3804C67.9258 89.3504 65.0773 89.3669 62.1133 89.3669H62.1163Z" fill="white"/>
<path d="M57.5893 89.3635C54.9808 89.3635 52.5118 89.377 50.0413 89.335C49.8688 89.332 49.6003 88.936 49.5493 88.687C48.9253 85.681 48.4033 82.6525 47.7238 79.66C45.3433 69.187 42.1888 58.9645 37.6603 49.1995C37.1998 48.2065 36.7063 47.2285 36.2788 46.186C43.6453 50.2 49.8073 55.72 55.7578 61.72C52.8568 61.111 50.0833 60.5305 47.3098 59.9485C47.2573 60.016 47.2063 60.085 47.1538 60.1525C51.1828 69.643 54.4873 79.3885 57.5893 89.3635Z" fill="white"/>
<path d="M100.336 89.3336H92.4238C95.4973 79.4231 98.8078 69.6656 102.844 60.1601C102.798 60.0896 102.75 60.0176 102.703 59.9471C99.9328 60.5276 97.1623 61.1081 94.4278 61.6811C96.0673 58.7381 110.572 47.1086 113.814 46.2026C110.311 52.9871 107.749 60.0896 105.528 67.3226C103.312 74.5361 101.641 81.8831 100.338 89.3336H100.336Z" fill="white"/>
<path d="M47.8784 100.819H102.114C102.114 101.739 102.129 102.63 102.097 103.519C102.093 103.648 101.89 103.833 101.745 103.878C101.539 103.941 101.299 103.9 101.076 103.9C83.6864 103.9 66.2954 103.9 48.9059 103.9C48.2219 103.9 47.8794 103.568 47.8784 102.903C47.8784 102.232 47.8784 101.562 47.8784 100.818V100.819Z" fill="white"/>
<path d="M75 94.5252C66.303 94.5252 57.6061 94.5252 48.9106 94.5252C47.8801 94.5252 47.8696 94.5252 47.8831 93.5352C47.8921 92.8662 47.6851 91.9122 48.0331 91.6062C48.4411 91.2477 49.3456 91.4187 50.0356 91.4187C67.0291 91.4127 84.0225 91.4142 101.016 91.4142C101.753 91.4142 102.122 91.7717 102.123 92.4867C102.123 93.8467 101.455 94.5267 100.118 94.5267C91.746 94.5267 83.3745 94.5267 75.0016 94.5267L75 94.5252Z" fill="white"/>
<path d="M68.2875 115.425C68.202 111.823 67.3605 108.613 64.5435 106.074H85.446C84.069 107.341 83.0265 108.723 82.557 110.403C82.1055 112.021 81.858 113.698 81.504 115.425H68.2875Z" fill="white"/>
<path d="M50.5381 99.1153V96.1558H99.4636V99.1153H50.5381Z" fill="white"/>
<path d="M64.3619 117.652H85.6259C85.6259 118.938 85.6364 120.201 85.6079 121.462C85.6049 121.567 85.3514 121.728 85.1954 121.753C84.9029 121.801 84.5984 121.77 84.2984 121.77C77.9534 121.77 71.6069 121.758 65.2619 121.786C64.5419 121.789 64.3049 121.599 64.3469 120.871C64.4069 119.829 64.3619 118.78 64.3619 117.651V117.652Z" fill="white"/>
<path d="M68.2949 130.321V123.97H81.6749V130.321H68.2949Z" fill="white"/>
<path d="M60.6688 106.083C58.3063 108.216 55.7428 109.53 52.7053 110.241C52.5253 108.829 52.3528 107.487 52.1743 106.083H60.6688Z" fill="white"/>
<path d="M97.8241 106.08C97.6501 107.472 97.4836 108.801 97.3021 110.248C94.2856 109.542 91.7056 108.228 89.3311 106.08H97.8241Z" fill="white"/>
</g>
<defs>
<clipPath id="clip0_2003_2598">
<rect width="150" height="150" fill="white" transform="translate(0 0.430176)"/>
</clipPath>
</defs>
</svg>
