<svg width="150" height="151" viewBox="0 0 150 151" fill="none" xmlns="http://www.w3.org/2000/svg">
<g clip-path="url(#clip0_2003_2635)">
<path d="M12.7803 122.327V99.6492H27.8845V107.133H64.3161V83.1045H49.9022V88.9967H34.7845V59.2375H49.8618V65.1193H64.3161V43.8428H27.9354V51.3372H12.8028V28.6832C12.9929 28.6742 13.1966 28.6562 13.4017 28.6562C45.2318 28.6562 77.062 28.6397 108.892 28.6622C122.885 28.6727 134.626 39.4345 135.848 53.3363C136.512 60.8727 134.381 67.566 129.568 73.4043C129.469 73.5241 129.378 73.6469 129.273 73.7802C129.821 74.4091 130.387 75.0021 130.887 75.6459C137.533 84.1976 139.273 93.6806 135.459 103.801C131.645 113.924 124.074 119.912 113.438 121.924C111.801 122.234 110.1 122.311 108.429 122.312C76.7745 122.335 45.121 122.329 13.4661 122.329C13.2565 122.329 13.0468 122.329 12.7788 122.329L12.7803 122.327ZM84.3498 107.136C84.5474 107.151 84.7002 107.174 84.8529 107.174C92.831 107.174 100.811 107.18 108.789 107.171C111.174 107.168 113.446 106.673 115.482 105.378C118.85 103.234 120.498 100.056 120.775 96.1543C121.06 92.1502 119.949 88.6104 116.867 85.8836C114.515 83.8023 111.673 83.064 108.585 83.067C100.724 83.0775 92.861 83.07 84.9996 83.0715C84.7915 83.0715 84.5849 83.0895 84.3498 83.1V107.135V107.136ZM84.3603 43.8308V65.1283C84.5699 65.1402 84.7406 65.1597 84.9113 65.1597C92.8699 65.1597 100.83 65.1822 108.789 65.1372C109.963 65.1312 111.179 64.9635 112.302 64.6251C120.462 62.1694 121.337 51.6637 116.5 46.8271C114.293 44.6199 111.569 43.7964 108.522 43.7994C100.68 43.8054 92.837 43.8009 84.9951 43.8024C84.787 43.8024 84.5774 43.8203 84.3603 43.8308Z" fill="white"/>
</g>
<defs>
<clipPath id="clip0_2003_2635">
<rect width="150" height="150" fill="white" transform="translate(0 0.430176)"/>
</clipPath>
</defs>
</svg>
