<svg width="162" height="109" viewBox="0 0 162 109" fill="none" xmlns="http://www.w3.org/2000/svg">
<g clip-path="url(#clip0_2003_2506)">
<path d="M80.6761 108.376C76.2568 99.3303 71.8083 90.3004 67.4375 81.2284C66.5821 79.4561 65.4157 78.1601 63.7342 77.1298C54.2669 71.3367 44.9098 65.3589 35.3745 59.6824C31.5707 57.4176 28.875 54.5438 27.9905 50.2119C27.5272 47.9342 26.2409 46.6252 24.2645 45.5592C20.8042 43.6962 17.4735 41.5902 14.0779 39.6074C11.5896 38.1526 9.87566 36.0628 9.08186 33.3056C6.14642 23.0639 3.25634 12.8061 0.343576 2.55472C0.272296 2.30524 0.132976 2.0752 0.0260559 1.83544C0.0519759 1.1842 -0.304424 0.241364 0.994816 0.542684C5.21654 2.91112 9.4739 5.22448 13.6567 7.66096C18.7792 10.645 23.8627 13.7003 28.9107 16.814C29.7142 17.3097 30.4529 18.1715 30.8385 19.0334C35.368 29.2005 34.0914 26.9843 42.2173 32.0873C49.4328 36.6168 56.6451 41.1561 63.88 45.65C66.1188 47.0399 67.6449 48.9677 68.7691 51.3135C72.6571 59.4264 76.5873 67.5232 80.5044 75.6232C80.6113 75.8468 80.7604 76.0509 81.0358 76.5012C82.8275 72.8109 84.5155 69.3441 86.1939 65.874C88.5623 60.9752 90.9437 56.0828 93.2862 51.1709C94.4332 48.7668 96.0921 46.8941 98.3795 45.4815C107.144 40.0739 115.901 34.6534 124.572 29.0936C126.043 28.1507 127.212 26.615 128.262 25.1667C129.098 24.01 129.71 22.6168 130.122 21.2366C130.932 18.5247 132.678 16.8204 135.098 15.4596C143.464 10.7649 151.758 5.94376 160.079 1.168C160.403 0.983324 160.698 0.750044 161.005 0.542684C162.308 0.241364 161.948 1.1842 161.977 1.83868C160.785 6.0766 159.619 10.321 158.397 14.5492C156.606 20.757 154.785 26.9519 152.964 33.15C152.118 36.0239 150.372 38.1882 147.783 39.6981C143.876 41.979 139.958 44.2535 136.103 46.6187C135.448 47.0205 134.943 47.8046 134.59 48.5206C134.165 49.3792 133.948 50.3447 133.689 51.2778C132.746 54.6604 130.747 57.1228 127.711 58.9664C117.674 65.0705 107.698 71.2719 97.7574 77.5348C96.6007 78.2638 95.538 79.4561 94.9257 80.6808C90.3216 89.876 85.8439 99.1359 81.3274 108.373H80.6794L80.6761 108.376ZM140.441 22.6265C139.45 23.1708 138.873 23.4592 138.322 23.7929C126.438 31.0116 114.534 38.2012 102.702 45.5074C101.454 46.2785 100.32 47.5778 99.6561 48.8932C94.4235 59.2288 89.5375 69.7426 84.0717 79.9486C81.7356 84.3129 82.6039 88.6253 82.4387 93.035C85.3547 87.6598 88.0763 82.2296 90.9113 76.8576C91.407 75.9148 92.2429 75.0108 93.1469 74.4406C104.924 67.0404 116.731 59.6856 128.557 52.3665C130.443 51.2001 131.7 49.7 132.354 47.5648C133.666 43.2912 135.098 39.0566 136.482 34.8024C137.758 30.8756 139.035 26.9487 140.441 22.6265ZM79.3931 93.0771C79.4968 93.0512 79.6005 93.0285 79.7041 93.0026C79.7041 90.4689 79.7722 87.932 79.6717 85.4015C79.6329 84.368 79.4222 83.2534 78.9687 82.3332C73.4542 71.1164 67.9073 59.9124 62.2729 48.7539C61.6541 47.5259 60.5979 46.3174 59.4347 45.5981C48.2535 38.671 37.0107 31.8443 25.7776 25.0014C24.5172 24.2336 23.2018 23.5499 21.6239 22.6654C21.8183 23.349 21.9058 23.699 22.0159 24.0424C24.5755 31.9318 27.1675 39.8082 29.6818 47.7106C30.3265 49.7324 31.5221 51.1644 33.3009 52.2693C45.1204 59.6014 56.9334 66.9465 68.7043 74.3596C69.7314 75.0076 70.6548 76.0638 71.2283 77.1428C74.0244 82.4142 76.6877 87.757 79.3963 93.0771H79.3931ZM135.96 17.5527C135.996 17.7017 136.032 17.8508 136.067 17.9966C138.15 17.9966 140.231 17.9868 142.314 17.9966C144.012 18.0063 144.196 18.2558 143.675 19.9211C143.046 21.9234 142.382 23.916 141.737 25.9151C140.182 30.7103 138.63 35.5088 136.981 40.5988C137.655 40.2456 138.066 40.048 138.462 39.8212C141.676 37.9485 144.861 36.0304 148.104 34.2128C149.659 33.3412 150.647 32.1586 151.143 30.4414C153.498 22.2669 155.896 14.1053 158.271 5.93404C158.375 5.5744 158.362 5.17912 158.449 4.36588C150.718 8.89864 143.344 13.224 135.967 17.5494L135.96 17.5527ZM25.0129 40.7252C24.7635 39.8925 24.6241 39.3903 24.4654 38.8978C22.4274 32.596 20.3765 26.3007 18.3547 19.9956C17.7845 18.2169 17.953 18.0063 19.7706 17.9966C21.828 17.9868 23.8822 17.9966 25.9396 17.9966L26.0335 17.5494C18.6301 13.2111 11.2267 8.87596 3.59978 4.40476C3.59978 5.04628 3.55118 5.2666 3.60626 5.45776C6.10106 14.0405 8.5829 22.6233 11.1457 31.1866C11.392 32.0031 11.9914 32.92 12.6977 33.3606C16.6602 35.8328 20.707 38.172 25.0162 40.7284L25.0129 40.7252Z" fill="white"/>
<path d="M119.488 41.3052C119.387 42.2253 119.31 42.9057 119.199 43.9134C122.161 42.099 124.902 40.4174 127.646 38.7358C127.721 38.8136 127.792 38.8914 127.866 38.9659C126.797 41.1108 125.906 43.3755 124.584 45.3552C123.897 46.3822 122.472 46.9363 121.341 47.6458C119.783 48.6243 117.832 49.2561 118.127 51.7185C118.153 51.9453 117.845 52.3017 117.599 52.4572C115.072 54.0675 112.528 55.6486 109.846 57.327V54.8127C107.036 56.5494 104.363 58.205 101.69 59.8574C103.246 56.3614 104.069 52.4281 108.145 50.7724C109.742 50.1244 111.235 49.2075 111.103 47.0594C111.086 46.8034 111.326 46.4276 111.559 46.2818C114.132 44.6424 116.727 43.0353 119.488 41.3149V41.3052Z" fill="white"/>
<path d="M52.1512 48.4072C56.3567 50.8178 60.5622 53.2251 64.7645 55.6389C64.9492 55.7458 65.1695 55.8722 65.257 56.0471C66.8899 59.2904 68.5067 62.5433 70.1267 65.7931C70.023 65.887 69.9226 65.9777 69.8189 66.0717C65.406 63.4441 60.9899 60.8132 56.1558 57.9328C57.6786 61.513 59.0297 64.6915 60.3808 67.8667C60.3062 67.9379 60.2285 68.0125 60.154 68.0837C58.9876 67.3709 57.8212 66.6614 56.6612 65.9389C53.269 63.8361 49.8734 61.7398 46.5038 59.6047C46.034 59.3066 45.4994 58.8854 45.3115 58.4026C44.2132 55.5449 43.2055 52.6484 42.1687 49.768L42.1201 49.7907C43.3384 50.4387 44.5793 51.0511 45.7748 51.7444C49.0375 53.6333 52.284 55.5547 55.8901 57.6736C55.5337 56.7988 55.3361 56.3161 55.1417 55.8365C54.147 53.3612 53.1523 50.8891 52.1576 48.4137L52.1512 48.4072Z" fill="white"/>
<path d="M42.1621 49.7681C37.9566 47.3576 33.7349 44.9762 29.5715 42.5008C28.9105 42.1088 28.3014 41.3474 28.0325 40.6216C27.122 38.1689 26.3736 35.6514 25.4502 32.81C29.8728 35.3598 33.9584 37.7121 38.4718 40.3106C37.3054 37.1807 36.2912 34.4526 35.1151 31.2969C36.0871 31.8639 36.7124 32.2106 37.3183 32.5799C40.5389 34.5466 43.7594 36.5068 46.9606 38.4994C47.4433 38.8007 48.0168 39.1766 48.2306 39.6593C49.478 42.4587 50.6315 45.3002 51.8141 48.1287C47.5632 45.689 43.3123 43.2492 38.7796 40.6475C39.9622 43.8875 41.0346 46.8392 42.1103 49.7876L42.1589 49.7649L42.1621 49.7681Z" fill="white"/>
<path d="M150.913 16.7101C151.399 16.6226 152.419 16.2208 152.594 16.4509C152.976 16.9595 152.931 17.7922 153.057 18.4856C150.676 18.8258 149.186 20.1866 148.67 22.3185C148.657 22.3703 148.612 22.4384 148.632 22.4708C149.701 24.3532 147.692 25.0725 147.161 26.4203C146.713 26.1287 146.289 25.8469 145.761 25.5002C146.24 24.823 146.863 24.1945 147.164 23.4363C147.449 22.73 147.397 21.8876 147.549 20.6499C146.386 21.5506 145.567 22.1824 144.688 22.8628C145.139 19.8982 146.438 18.343 148.136 18.3916C148.907 16.6582 149.646 14.9961 150.384 13.334C150.666 13.4053 150.951 13.4765 151.233 13.5478C151.117 14.6721 151.003 15.7964 150.909 16.7068L150.913 16.7101Z" fill="white"/>
<path d="M149.876 27.1757C149.293 27.8205 148.81 28.6305 148.104 29.0776C146.244 30.2505 144.284 31.2646 142.362 32.3403C142.233 32.2496 142.103 32.1588 141.97 32.0681C142.378 31.4558 142.651 30.6231 143.218 30.2667C145.217 29.0063 147.319 27.908 149.383 26.748C149.545 26.8906 149.711 27.0364 149.873 27.179L149.876 27.1757Z" fill="white"/>
<path d="M7.02414 14.1699C10.4099 16.1593 13.8055 18.1357 17.1718 20.1574C17.5477 20.3842 17.9008 20.8216 18.0401 21.2364C18.9279 23.8802 19.7541 26.5467 20.7423 29.6474C19.6569 29.0188 18.8955 28.5847 18.1438 28.144C15.4935 26.5888 12.8367 25.0466 10.2026 23.4655C9.76518 23.203 9.20466 22.8531 9.06534 22.4254C8.2035 19.7751 7.44535 17.0924 6.65479 14.4226L7.02414 14.1764V14.1699Z" fill="white"/>
<path d="M23.9793 17.4815C22.0288 17.4815 20.0783 17.5074 18.1278 17.4524C17.8621 17.4459 17.4701 17.083 17.3664 16.8011C16.8545 15.4176 16.4203 14.0018 15.8145 12.1582C18.8179 13.9629 21.4391 15.5375 24.0635 17.1154C24.0343 17.2385 24.0084 17.3616 23.9793 17.4815Z" fill="white"/>
</g>
<defs>
<clipPath id="clip0_2003_2506">
<rect width="162" height="107.892" fill="white" transform="translate(0 0.484375)"/>
</clipPath>
</defs>
</svg>
