<svg width="264" height="117" viewBox="0 0 264 117" fill="none" xmlns="http://www.w3.org/2000/svg">
<g clip-path="url(#clip0_2003_2497)">
<path d="M130.223 116.231C129.294 116.166 128.36 116.097 127.431 116.032C120.221 115.502 113.362 113.665 106.847 110.537C101.088 107.771 95.9324 104.144 91.3718 99.6658C88.3619 96.7123 85.7037 93.4765 83.4104 89.9366C83.1933 89.6022 82.9631 89.4893 82.5722 89.4936C76.0614 89.5067 69.5464 89.498 63.0357 89.511C62.6404 89.511 62.3581 89.4024 62.0801 89.1201C59.5653 86.5792 57.0331 84.0514 54.5096 81.5192C54.4141 81.4236 54.3272 81.3237 54.1622 81.1413H78.5198C77.4904 77.9793 76.4741 74.8608 75.4316 71.6554H74.8931C64.9945 71.6554 55.096 71.6554 45.1974 71.6641C44.8065 71.6641 44.5242 71.5685 44.2419 71.2819C41.7401 68.7497 39.2253 66.2349 36.7105 63.7114C36.5932 63.5941 36.489 63.4681 36.2935 63.2553H74.1547V53.7867C73.9549 53.7867 73.6986 53.7867 73.4467 53.7867C58.132 53.7867 42.8129 53.7867 27.4982 53.7954C27.0074 53.7954 26.6642 53.6521 26.3211 53.3046C23.8671 50.8246 21.3914 48.3619 18.9244 45.8948C18.7941 45.7645 18.6681 45.6255 18.4336 45.378H19.2501C37.7268 45.378 56.2035 45.378 74.6802 45.378C75.5446 45.378 75.5446 45.378 75.7531 44.5484C76.4567 41.7165 77.3601 38.9541 78.472 36.2569C78.5024 36.1787 78.5328 36.1005 78.598 35.9268C78.3374 35.9268 78.1245 35.9268 77.9117 35.9268C55.1437 35.9268 32.3801 35.9268 9.61216 35.9355C9.16045 35.9355 8.84338 35.8095 8.52632 35.4881C6.0115 32.9429 3.48366 30.4151 0.955817 27.8829C0.860263 27.7873 0.773395 27.6874 0.604004 27.5006C0.899353 27.5006 1.09915 27.5006 1.2946 27.5006C28.3321 27.5006 55.3739 27.5006 82.4115 27.5093C82.8718 27.5093 83.1411 27.3834 83.4104 26.9881C92.3361 13.6627 104.589 5.13661 120.325 1.9008C133.359 -0.779062 145.903 0.958288 157.825 6.89568C163.116 9.53211 167.854 12.9547 172.089 17.0765C175.225 20.1299 177.983 23.4874 180.35 27.1619C180.528 27.4355 180.719 27.5093 181.028 27.505C184.589 27.4963 188.147 27.5006 191.708 27.5006C215.571 27.5006 239.429 27.5006 263.291 27.5006C263.361 27.5006 263.43 27.4963 263.5 27.492V27.5962C263.356 27.7135 263.2 27.8221 263.07 27.9567C260.568 30.4628 258.062 32.9646 255.573 35.4838C255.256 35.8052 254.939 35.9311 254.487 35.9311C231.58 35.9224 208.673 35.9225 185.766 35.9225C185.549 35.9225 185.328 35.9225 185.189 35.9225C186.201 39.0714 187.208 42.1943 188.238 45.391H245.631C245.427 45.6082 245.31 45.7472 245.179 45.8775C242.699 48.3575 240.211 50.8289 237.748 53.3264C237.413 53.6651 237.079 53.7867 236.61 53.7867C221.134 53.7737 205.663 53.7781 190.188 53.7781C189.936 53.7781 189.688 53.7781 189.441 53.7781C189.493 55.4285 189.584 56.9878 189.584 58.5427C189.584 60.0933 189.489 61.6483 189.432 63.2727H227.789C227.602 63.4725 227.498 63.5854 227.389 63.6983C224.878 66.2175 222.359 68.7366 219.858 71.2688C219.575 71.5511 219.297 71.6597 218.906 71.6597C208.834 71.651 198.762 71.651 188.689 71.651C188.485 71.651 188.281 71.651 188.22 71.651C187.174 74.8651 186.157 77.9837 185.132 81.1413H209.937C209.768 81.3281 209.668 81.4454 209.564 81.5496C207.062 84.0601 204.556 86.5618 202.067 89.081C201.763 89.3894 201.463 89.5197 201.025 89.5197C194.375 89.5067 187.721 89.511 181.071 89.5023C180.706 89.5023 180.476 89.5892 180.263 89.9149C176.706 95.3963 172.35 100.152 167.172 104.135C158.017 111.176 147.684 115.167 136.152 116.045C135.218 116.114 134.289 116.179 133.355 116.244H130.228L130.223 116.231ZM132.065 9.25413C105.014 9.27151 82.9327 30.9927 82.7329 58.1736C82.5287 85.6671 104.654 107.731 131.817 107.849C159.124 107.966 181.288 86.0015 181.362 58.6774C181.44 31.3836 159.307 9.24979 132.061 9.24979L132.065 9.25413Z" fill="white"/>
<path d="M97.9264 52.5619V71.4339H92.4277V45.4953C92.6232 45.4866 92.7926 45.4692 92.962 45.4692C95.1163 45.4692 97.2706 45.4822 99.4206 45.4562C99.8549 45.4518 100.05 45.5778 100.189 46.0034C102.265 52.3404 104.363 58.6731 106.457 65.0013C106.513 65.1751 106.578 65.3445 106.687 65.6615C107.165 64.2152 107.595 62.9252 108.02 61.6309C109.74 56.3797 111.46 51.1286 113.176 45.8775C113.259 45.6299 113.332 45.4562 113.658 45.4562C116.004 45.4692 118.345 45.4648 120.69 45.4692C120.755 45.4692 120.82 45.4953 120.912 45.5126V71.4295H115.413V52.6575C115.365 52.6444 115.322 52.6358 115.274 52.6227C115.217 52.7878 115.161 52.9528 115.109 53.1179C113.302 59.0509 111.495 64.984 109.706 70.9214C109.58 71.3383 109.406 71.4903 108.959 71.4817C107.395 71.4513 105.831 71.4599 104.272 71.4817C103.903 71.486 103.738 71.3818 103.625 71.0082C101.84 65.0665 100.033 59.1334 98.2348 53.2004C98.1653 52.9789 98.0872 52.7617 98.009 52.5402C97.9786 52.5489 97.9525 52.5532 97.9221 52.5619H97.9264Z" fill="white"/>
<path d="M138.458 45.4739H139.058C140.691 45.4739 142.324 45.4912 143.953 45.4608C144.396 45.4521 144.626 45.5911 144.839 45.982C148.023 51.8282 151.219 57.6657 154.416 63.5032C154.555 63.7551 154.698 64.007 154.842 64.2546C154.889 64.2459 154.937 64.2416 154.981 64.2329V45.5043H160.132V71.482C159.211 71.5037 158.299 71.5254 157.387 71.5515C156.431 71.5775 155.48 71.5819 154.525 71.6383C154.125 71.6644 153.908 71.5515 153.708 71.1953C150.642 65.7574 147.562 60.3325 144.483 54.899C144.213 54.4212 143.935 53.9434 143.571 53.4874V71.4385H138.454V45.4695L138.458 45.4739Z" fill="white"/>
<path d="M166.204 71.4166V45.4736H171.455V71.4166H166.204Z" fill="white"/>
<path d="M127.009 71.4122V45.4648H132.243V71.4122H127.009Z" fill="white"/>
</g>
<defs>
<clipPath id="clip0_2003_2497">
<rect width="263" height="115.603" fill="white" transform="translate(0.5 0.628418)"/>
</clipPath>
</defs>
</svg>
