<svg width="52" height="151" viewBox="0 0 52 151" fill="none" xmlns="http://www.w3.org/2000/svg">
<g clip-path="url(#clip0_2003_2611)">
<path d="M47.5134 72.2809C47.3927 84.3164 47.1997 93.5949 46.3671 102.831C45.6372 110.933 44.8107 119.035 43.8635 127.119C43.2663 132.211 42.3855 137.266 41.5771 142.328C41.1246 145.139 40.4067 145.821 37.4808 146.34C29.4451 147.77 21.4094 147.739 13.3857 146.225C11.1837 145.809 10.3633 145.073 10.0013 142.871C9.18083 137.906 8.37847 132.941 7.69676 127.958C7.05728 123.306 6.50829 118.643 6.04377 113.968C5.54908 109.057 5.07248 104.134 4.82514 99.2114C4.44507 91.6342 4.14343 84.0509 4.03484 76.4737C3.95641 70.821 4.16756 65.1562 4.36664 59.5034C4.67432 50.7377 5.2957 41.9901 6.37557 33.2908C7.42528 24.8811 8.68011 16.5015 9.84444 8.10983C9.85651 8.03743 9.86254 7.96504 9.87461 7.89264C10.4236 5.11151 11.0148 4.45997 13.802 3.95925C21.9342 2.48724 30.0604 2.52947 38.1806 4.04974C40.0749 4.40567 41.1729 5.44332 41.4685 7.34969C42.1804 11.9407 42.9827 16.5196 43.6041 21.1226C44.3522 26.709 45.0218 32.3014 45.5889 37.9059C46.0836 42.7925 46.5059 47.6911 46.7532 52.5958C47.1393 60.0765 47.3444 67.5632 47.5254 72.2869L47.5134 72.2809ZM5.21124 72.667C5.2595 72.7334 5.30776 72.8058 5.35603 72.8721C5.57321 72.8721 5.78436 72.8842 6.00154 72.8721C9.04811 72.655 12.0947 72.4559 15.1352 72.2085C16.3297 72.112 17.5303 71.9732 18.6946 71.7138C20.245 71.37 21.2585 70.3806 21.4275 68.7457C21.5662 67.4064 21.6205 66.055 21.6386 64.7097C21.7351 58.2064 21.7894 51.703 21.892 45.1996C21.9825 39.3236 22.0971 33.4477 22.2298 27.5717C22.3686 21.2614 22.5496 14.9571 22.7004 8.64675C22.7305 7.41002 22.7004 6.17329 22.7004 4.9064C22.0669 5.09945 21.7653 5.55794 21.6627 6.20345C21.4275 7.69959 21.1499 9.1897 20.9388 10.6919C20.8423 11.3856 20.5406 11.6994 19.8227 11.7175C19.1772 11.7355 18.5377 11.9105 17.8922 11.9527C15.9979 12.0734 14.9663 13.1472 14.6104 14.9329C14.0553 17.7201 13.434 20.4952 13.0298 23.3005C12.0826 29.8762 11.1113 36.452 10.4055 43.0579C9.75998 49.1571 9.41008 55.2985 9.00588 61.4218C8.81283 64.3538 8.7887 67.2918 8.71631 70.2298C8.70424 70.7546 8.47499 71.0261 8.0165 71.189C7.35892 71.4243 6.68928 71.6294 6.06187 71.925C5.73609 72.0818 5.49478 72.4136 5.21124 72.667ZM22.815 145.344C22.815 145.043 22.821 144.783 22.815 144.524C22.634 138.678 22.4349 132.826 22.2781 126.98C22.1514 122.408 22.0609 117.835 21.9885 113.256C21.8739 106.463 21.7894 99.6699 21.6929 92.883C21.6386 89.3176 21.6265 85.7522 21.5179 82.1928C21.4516 79.9788 20.426 78.8748 18.2602 78.3982C17.9526 78.3318 17.6449 78.2655 17.3372 78.2413C14.8215 78.0423 12.3058 77.8552 9.79015 77.6682C8.31211 77.5596 6.83407 77.4571 5.34999 77.3485C5.30776 77.4148 5.26553 77.4812 5.2233 77.5476C5.47065 77.7949 5.68783 78.1086 5.98344 78.2775C6.37557 78.5007 6.82803 78.6214 7.25636 78.7722C8.74647 79.3092 8.71631 79.3092 8.7525 80.8535C8.8249 83.7915 8.84903 86.7295 9.05414 89.6615C9.51867 96.2915 9.89874 102.934 10.6408 109.534C11.419 116.441 12.5592 123.313 13.5908 130.19C13.8623 132.018 14.3087 133.822 14.7069 135.632C15.0689 137.272 16.1367 138.129 17.7957 138.28C18.4653 138.34 19.129 138.527 19.7986 138.527C20.6251 138.527 20.8543 138.956 20.9509 139.674C21.156 141.152 21.4214 142.618 21.6688 144.09C21.7774 144.723 22.073 145.2 22.815 145.35V145.344ZM28.6246 4.8883C28.6246 5.22614 28.6186 5.46142 28.6246 5.70273C28.7513 9.33449 28.9021 12.9662 28.9986 16.604C29.1615 22.9566 29.3184 29.3152 29.433 35.6738C29.5657 43.2872 29.6442 50.8946 29.7527 58.508C29.795 61.639 29.8131 64.7701 29.9096 67.9011C29.982 70.2056 30.9231 71.3036 33.101 71.8345C33.4991 71.931 33.9033 72.0094 34.3075 72.0396C37.3963 72.2809 40.4912 72.5162 43.58 72.7454C44.4246 72.8058 45.2631 72.8601 46.1077 72.9144C46.1499 72.8299 46.1861 72.7515 46.2284 72.667C45.9207 72.4076 45.6553 72.0758 45.3053 71.9069C44.6779 71.6052 44.0083 71.4062 43.3507 71.1648C42.9164 71.008 42.7293 70.7184 42.7173 70.2358C42.6569 67.7563 42.6388 65.2768 42.4699 62.8034C42.0054 55.8596 41.6796 48.9037 40.9255 41.9901C40.1171 34.5999 38.9106 27.258 37.8186 19.898C37.5471 18.0459 37.0947 16.2179 36.6543 14.396C36.3225 13.0205 35.3995 12.2182 33.9757 12.0251C33.1915 11.9165 32.4072 11.7597 31.6169 11.7355C30.8929 11.7114 30.6094 11.3917 30.5068 10.71C30.2836 9.18367 30.0061 7.66943 29.7588 6.14916C29.6562 5.52778 29.3546 5.09342 28.6186 4.89433L28.6246 4.8883ZM46.2163 77.5596C46.1741 77.5053 46.1258 77.4571 46.0836 77.4028C45.7035 77.4028 45.3234 77.3786 44.9434 77.4028C42.6449 77.5717 40.3403 77.7346 38.0418 77.9276C36.4371 78.0604 34.8203 78.1327 33.2457 78.4103C30.9895 78.8084 30.0423 79.9909 29.9036 82.2773C29.8915 82.4945 29.8794 82.7117 29.8794 82.9288C29.8131 88.1291 29.7527 93.3354 29.6864 98.5357C29.6442 101.932 29.608 105.329 29.5356 108.725C29.3847 116.115 29.2279 123.506 29.0529 130.896C28.9805 134.099 28.8478 137.297 28.7754 140.5C28.7392 142.105 28.7694 143.703 28.7694 145.338C29.3304 145.181 29.6562 144.765 29.7588 144.144C30.0303 142.557 30.3017 140.965 30.5551 139.372C30.6396 138.829 30.8809 138.588 31.448 138.551C32.2141 138.503 32.9743 138.358 33.7404 138.274C35.2969 138.099 36.3104 137.291 36.7026 135.746C36.793 135.396 36.9077 135.052 36.9801 134.702C39.2122 123.843 40.7023 112.87 41.559 101.83C42.12 94.5601 42.3553 87.2664 42.7173 79.9848C42.7414 79.4962 42.9465 79.2307 43.3809 79.0799C44.0385 78.8507 44.7081 78.6516 45.3355 78.3499C45.6734 78.187 45.9267 77.8371 46.2163 77.5717V77.5596Z" fill="white"/>
</g>
<defs>
<clipPath id="clip0_2003_2611">
<rect width="51.3996" height="150" fill="white" transform="translate(0.300293 0.430176)"/>
</clipPath>
</defs>
</svg>
