<svg width="96" height="121" viewBox="0 0 96 121" fill="none" xmlns="http://www.w3.org/2000/svg">
<g clip-path="url(#clip0_2003_2490)">
<path d="M41.3203 0.430176C41.8447 0.465332 42.3691 0.504004 42.8935 0.534473C45.2449 0.670996 47.581 0.939941 49.8849 1.42744C54.9527 2.49912 59.2986 4.90088 62.9097 8.61396C66.399 12.2017 68.5482 16.5013 69.6187 21.3669C70.2949 24.4407 70.5222 27.5462 70.2515 30.6792C69.7523 36.4601 67.8275 41.7294 64.3886 46.4058C62.4386 49.0571 60.1324 51.3944 57.6357 53.5401C56.0642 54.8907 54.426 56.1511 52.6178 57.2386C52.6886 57.3505 52.7467 57.4466 52.8082 57.5403C57.0047 63.9306 60.498 70.6841 63.2613 77.812C65.659 83.9977 67.4707 90.3599 68.8547 96.8438C69.2801 98.8366 69.6592 100.841 70.0002 102.849C70.2287 104.196 70.4162 105.548 70.8474 106.85C71.0877 107.575 71.3801 108.275 71.8312 108.898C72.1095 109.283 72.4336 109.614 72.8707 109.822C72.934 109.852 73.0013 109.938 73.009 110.006C73.0289 110.177 73.0154 110.352 73.0154 110.542H51.1142C51.1142 110.392 51.1271 110.257 51.1113 110.125C51.0873 109.928 51.1763 109.834 51.3463 109.746C53.0812 108.841 54.4693 107.551 55.5345 105.915C56.6396 104.218 57.2549 102.342 57.5531 100.35C57.8051 98.6667 57.7822 96.9792 57.6158 95.2958C57.4107 93.2187 57.2168 91.1374 56.9103 89.0743C56.2822 84.8479 55.1877 80.7341 53.741 76.714C51.7711 71.2407 49.5451 65.8782 46.8322 60.7255C46.7871 60.6394 46.7414 60.5538 46.6793 60.4378C46.2545 60.6007 45.832 60.7647 45.4084 60.9259C40.947 62.6222 36.3633 63.8614 31.6564 64.6577C28.5474 65.1839 25.4244 65.597 22.2849 65.8835C20.3894 66.0563 18.4916 66.197 16.5949 66.3528C16.5381 66.3575 16.4818 66.3687 16.4009 66.3804C16.3957 66.4917 16.3869 66.5966 16.3869 66.7009C16.3863 78.8392 16.3834 90.9774 16.3898 103.116C16.3904 104.744 16.6775 106.32 17.4111 107.791C17.833 108.636 18.4136 109.347 19.2345 109.842C19.5509 110.033 19.3207 110.334 19.4051 110.603H2.52184C2.47965 110.23 2.45739 109.944 2.8611 109.688C3.91462 109.021 4.47301 107.964 4.87262 106.82C5.30798 105.574 5.50485 104.286 5.50485 102.968C5.50602 71.5337 5.50426 40.0987 5.51071 8.66436C5.51071 7.30381 5.48962 5.95088 5.16676 4.6208C4.91598 3.58662 4.53805 2.60986 3.82321 1.796C3.71423 1.67178 3.60993 1.52471 3.47047 1.44795C3.05212 1.22002 2.94137 0.869043 2.99997 0.430176C15.7734 0.430176 28.5468 0.430176 41.3203 0.430176ZM16.316 6.66631V59.5126C16.3998 59.5126 16.4666 59.5179 16.5328 59.512C18.4564 59.3333 20.3836 59.1886 22.3019 58.9665C25.3277 58.6161 28.3265 58.0782 31.265 57.2813C35.5465 56.12 39.5689 54.344 43.2715 51.8831C48.2209 48.5931 52.0769 44.3403 54.5133 38.8853C57.0486 33.2081 57.8209 27.2685 56.949 21.122C56.5635 18.405 55.7021 15.8386 54.3269 13.4468C52.6172 10.4731 50.2008 8.39482 46.8791 7.42393C44.8734 6.83799 42.8127 6.67451 40.7402 6.671C32.7433 6.65811 24.747 6.66689 16.7502 6.66689C16.6148 6.66689 16.4795 6.66689 16.316 6.66689V6.66631Z" fill="white"/>
<path d="M71.9647 120.43C71.9688 120.421 71.977 120.411 71.9759 120.403C71.8745 119.855 72.2196 119.658 72.6409 119.427C75.1733 118.045 76.7847 115.894 77.6981 113.194C78.3497 111.267 78.5542 109.277 78.4751 107.249C78.3333 103.604 77.8874 99.9966 77.1515 96.4241C76.3312 92.4403 75.0966 88.5849 73.6194 84.7985C71.8774 80.3331 69.911 75.9731 67.6786 71.7327C67.6423 71.6642 67.6019 71.5985 67.5685 71.5405C66.1171 72.0644 64.6739 72.5847 63.2765 73.0892C62.0712 70.6071 60.8882 68.1714 59.6929 65.7099C59.9214 65.6026 60.1845 65.4837 60.444 65.3565C68.9905 61.1782 74.5235 54.4962 77.029 45.3251C77.8423 42.3474 78.0942 39.2987 77.9688 36.2155C77.8634 33.6175 77.4825 31.0704 76.6024 28.6136C75.689 26.0642 74.3196 23.8095 72.2882 21.9872C72.1651 21.8771 72.0433 21.7429 71.8956 21.6884C71.5124 21.5472 71.37 21.2718 71.2798 20.8915C70.6757 18.355 69.7183 15.9503 68.5136 13.6417C68.4737 13.5661 68.4392 13.4876 68.3741 13.354C68.6296 13.3845 68.8382 13.3979 69.0427 13.4349C71.438 13.8726 73.7894 14.4638 75.9983 15.5179C82.9153 18.819 87.4669 24.1511 89.6519 31.4929C90.6321 34.7876 91.0118 38.1638 90.819 41.5933C90.481 47.6015 88.579 53.0794 85.0112 57.9286C82.821 60.9063 80.2013 63.5003 77.3062 65.8001C76.1384 66.7276 74.8974 67.5632 73.6903 68.4403C73.6206 68.4907 73.5515 68.5417 73.487 68.5886C74.2265 69.7704 74.97 70.9276 75.6837 72.1024C80.3208 79.7343 83.9026 87.836 86.4972 96.3796C88.1794 101.919 89.5405 107.534 90.5149 113.241C90.7335 114.52 90.894 115.807 91.3024 117.044C91.5755 117.873 91.9024 118.679 92.5089 119.328C92.7058 119.539 92.9349 119.755 93.1939 119.862C93.4886 119.984 93.5706 120.148 93.5278 120.429H71.9653L71.9647 120.43Z" fill="white"/>
<path d="M24.2695 120.43C24.2028 119.986 24.3639 119.71 24.7582 119.441C25.7039 118.796 26.2295 117.818 26.6092 116.764C27.0528 115.533 27.2725 114.262 27.2725 112.949C27.2695 97.7633 27.2707 82.5781 27.2707 67.3924C27.2707 66.926 27.2695 66.9184 27.7336 66.8551C31.0506 66.4039 34.3412 65.8092 37.6026 65.0527C37.6588 65.0398 37.7162 65.0305 37.7965 65.0146V70.5453C37.8903 70.5512 37.9641 70.5635 38.0373 70.5582C41.0672 70.3549 44.0836 70.0303 47.0801 69.5328C47.6672 69.4355 48.2543 69.3377 48.8385 69.227C49.0278 69.1912 49.1121 69.2457 49.1842 69.425C49.9711 71.3779 50.7686 73.3268 51.559 75.2779C51.6082 75.3992 51.6182 75.5357 51.6533 75.6945C47.0736 76.4727 42.4957 76.9221 37.8633 77.1969C37.8633 77.3188 37.8633 77.4225 37.8633 77.5262C37.8633 89.3814 37.8621 101.237 37.8651 113.093C37.8651 114.573 38.1229 116.006 38.7457 117.358C39.1793 118.3 39.7957 119.09 40.7063 119.626C40.7795 119.67 40.8404 119.785 40.8504 119.874C40.8709 120.056 40.8533 120.244 40.8516 120.429H24.2695V120.43Z" fill="white"/>
<path d="M24.5488 12.6376C24.7744 12.6376 24.8898 12.6376 25.0059 12.6376C33.8242 12.6376 42.642 12.6388 51.4604 12.6323C51.7088 12.6323 51.8664 12.6991 52.0193 12.9036C53.2709 14.5794 54.1914 16.4163 54.7475 18.4337C54.7727 18.5251 54.7896 18.6194 54.8189 18.7489H37.8039V19.148C37.8039 30.3388 37.8027 41.5302 37.8104 52.721C37.8104 52.994 37.7295 53.1218 37.4787 53.2355C34.4236 54.623 31.2713 55.7151 27.9842 56.4071C27.7551 56.4552 27.5248 56.4979 27.2951 56.5413C27.2781 56.5448 27.2582 56.5331 27.2107 56.522C27.2107 56.4229 27.2107 56.3175 27.2107 56.212C27.2107 44.2888 27.2061 32.3649 27.2172 20.4417C27.2184 18.9282 27.1223 17.4376 26.6119 16.0003C26.2387 14.9491 25.6686 14.0415 24.7451 13.3665C24.5986 13.2593 24.6191 12.9224 24.5494 12.6382L24.5488 12.6376Z" fill="white"/>
</g>
<defs>
<clipPath id="clip0_2003_2490">
<rect width="95.9766" height="120" fill="white" transform="translate(0.0117188 0.430176)"/>
</clipPath>
</defs>
</svg>
