<svg width="150" height="151" viewBox="0 0 150 151" fill="none" xmlns="http://www.w3.org/2000/svg">
<g clip-path="url(#clip0_2003_2618)">
<path d="M149.01 75.8962C148.966 116.569 115.714 149.631 74.8947 149.587C34.1222 149.546 1.06653 116.294 1.13977 75.3981C1.21301 34.8747 34.588 1.77802 75.2872 1.86884C115.834 1.95673 149.054 35.3171 149.007 75.8962H149.01ZM145.163 75.8464C145.222 37.447 113.821 5.74189 75.6359 5.64228C36.6622 5.54267 5.04504 36.8259 4.95715 75.5768C4.86926 114.111 36.2902 145.758 74.7042 145.831C113.558 145.904 145.102 114.571 145.16 75.8464H145.163Z" fill="white"/>
<path d="M73.881 118.435C60.0324 118.324 46.6906 115.989 34.1193 109.98C28.5412 107.314 23.4904 103.872 18.7501 99.8931C14.4757 96.3072 12.5246 91.6461 11.672 86.3521C10.7345 80.5338 12.2755 75.5035 16.2511 71.0972C29.0714 56.8853 41.7394 42.5357 54.63 28.3912C60.1847 22.2945 67.0636 18.4244 75.6037 18.6558C83.0949 18.858 89.505 21.6236 94.632 27.275C107.593 41.5572 120.677 55.7252 133.6 70.0426C138.589 75.5709 141.712 84.398 135.618 93.3072C130.327 101.045 123.1 106.347 114.75 110.273C105.826 114.468 96.3576 116.677 86.5841 117.612C82.3624 118.016 78.1173 118.169 73.881 118.438V118.435ZM73.9015 113.859C80.7072 113.877 87.4572 113.282 94.1398 112.028C103.275 110.314 111.985 107.42 119.836 102.325C125.136 98.8853 129.771 94.7574 132.803 89.0738C134.83 85.274 134.977 81.3863 133.116 77.5455C132.191 75.6353 131.054 73.7427 129.651 72.1578C117.027 57.899 104.408 43.6343 91.5968 29.5426C86.4142 23.8414 79.588 21.8785 72.0177 22.8658C66.0265 23.6451 61.2804 26.8795 57.3634 31.3062C44.9357 45.3482 32.5431 59.4166 20.2296 73.5582C18.8263 75.1695 17.5753 77.1763 17.0216 79.2095C15.2667 85.6636 17.2501 91.2652 21.9054 95.8912C25.9191 99.8785 30.6271 102.943 35.672 105.471C47.7013 111.501 60.5451 113.859 73.8986 113.856L73.9015 113.859Z" fill="white"/>
<path d="M54.9872 65.4691C54.3544 66.5912 53.5312 67.5082 54.9374 68.5629C55.2421 68.7914 55.2743 69.3832 55.5556 70.1449C53.6396 70.1449 52.0048 70.1449 50.373 70.1449C48.7411 70.1449 47.165 70.1449 45.5155 70.1449C45.1171 68.9467 45.4042 68.3256 46.6786 68.2582C49.0253 68.1352 50.5312 66.8842 51.8085 64.9154C53.0126 63.0551 53.5107 61.3588 53.121 59.1029C51.9726 52.476 53.8212 46.4408 57.4071 40.892C60.4687 36.1605 65.121 34.0248 70.4911 33.2221C75.287 32.5043 80.0273 32.7562 84.6474 34.3529C85.8251 34.7601 86.8681 34.5404 87.7353 33.6439C88.7167 32.6273 89.3642 32.9613 89.956 34.0775C90.7763 35.6273 91.7021 37.1244 92.5136 38.6771C92.7157 39.0609 92.8593 39.8432 92.6747 39.9838C92.3349 40.2475 91.6581 40.3646 91.2538 40.2064C89.8505 39.6557 88.5263 38.9144 87.1347 38.3285C83.2382 36.6908 79.1982 35.7211 74.9442 35.5863C67.1747 35.3402 60.4775 41.0971 59.1767 49.2709C59.0097 50.3227 58.9247 51.3861 59.0917 52.5785C60.6474 50.3754 62.2323 48.1928 63.7265 45.9486C63.9374 45.6322 63.7118 45.0228 63.6767 44.5512C63.6357 44.0297 63.5771 43.5111 63.498 42.6762C66.9433 42.6762 70.245 42.685 73.5497 42.6762C76.7226 42.6644 79.8954 42.6205 83.0712 42.6029C86.3524 42.5853 88.2948 43.8451 88.9189 46.3734C89.6982 49.5375 88.5292 52.3588 85.7138 53.8998C88.1191 54.8695 89.9706 56.3432 90.7704 58.8451C92.5194 64.309 88.4062 69.8871 82.661 69.8373C78.6093 69.8051 74.5575 69.7963 70.5058 69.6967C69.8759 69.682 69.2577 69.2396 68.6366 68.9965C69.1083 68.5922 69.5683 68.1732 70.0546 67.7865C70.3886 67.5199 70.9716 67.3529 71.0595 67.0365C71.162 66.6644 70.9335 65.8617 70.6933 65.7914C65.5605 64.3295 63.7763 60.6498 63.8583 55.6869C63.8583 55.599 63.7909 55.5111 63.7558 55.4203C60.5888 54.7113 58.7607 56.6654 59.3437 59.891C60.2812 65.0619 63.1171 68.8969 67.3153 71.8559C70.6317 74.1908 74.4081 74.431 78.2607 74.1498C82.5526 73.8363 86.6015 72.6117 90.3368 70.4789C91.4648 69.8344 92.3905 68.8441 93.4921 68.141C93.9696 67.8363 94.6552 67.8568 95.2441 67.7309C95.1884 68.2992 95.3495 69.0726 95.039 69.4008C93.5419 70.9828 92.1269 72.8051 90.2987 73.892C82.8134 78.3275 74.9091 80.1059 66.6181 76.2035C61.8866 73.977 58.1425 70.4994 55.3886 66.0082C55.2948 65.8559 55.1776 65.7182 54.9843 65.4574L54.9872 65.4691ZM75.8407 62.9935C78.3837 63.392 80.2353 62.5248 81.911 60.9955C82.3124 60.6293 83.0097 60.5912 83.5692 60.4008C83.4901 61.0219 83.4784 61.6664 83.3026 62.2582C83.2001 62.598 82.8397 62.8734 82.5673 63.1517C81.0702 64.684 79.1747 65.3637 77.121 65.7533C76.7753 65.8178 76.4823 66.1664 76.163 66.3832C76.4648 66.6879 76.7343 67.2152 77.0712 67.2562C78.4569 67.435 79.872 67.6254 81.2548 67.517C83.748 67.3207 85.7431 65.4135 86.3319 62.9408C86.9853 60.2045 86.0448 57.7435 83.8564 56.2699C81.3046 54.5473 78.5185 55.4877 75.8437 55.2885V62.9935H75.8407ZM75.5888 46.6693C76.8017 46.6693 77.8769 46.7748 78.9257 46.6459C80.6923 46.4262 81.498 46.7426 82.1601 48.3656C82.33 48.7846 82.1396 49.35 82.1132 49.848C81.6737 49.725 81.2138 49.6488 80.8007 49.4701C79.661 48.975 78.5858 48.2367 77.3993 47.9643C75.8524 47.6127 75.5478 48.0082 75.5448 49.5961C75.5448 50.4545 75.5448 51.3158 75.5448 52.2738C77.6747 52.2738 79.6142 52.3324 81.5536 52.2562C83.0917 52.1976 84.2548 50.6303 84.3515 48.6879C84.4482 46.7514 83.5341 45.1371 81.9784 45.017C79.8661 44.8559 77.7362 44.976 75.5917 44.976V46.6693H75.5888ZM63.1376 52.2416C63.2548 52.3764 63.372 52.5111 63.4921 52.6459C63.9169 52.3676 64.4296 52.1654 64.7489 51.7934C65.2821 51.1752 65.5517 50.2582 66.1786 49.8041C67.5761 48.7904 69.1288 47.9994 70.6025 47.0883C70.8954 46.9066 71.2646 46.6078 71.3056 46.3236C71.3524 46.0131 71.0243 45.348 70.9159 45.3598C69.5214 45.5121 67.5907 45.266 66.8671 46.0775C65.2968 47.8383 64.3446 50.1527 63.1405 52.2416H63.1376ZM71.1122 52.2357V48.9428C69.2841 49.3881 68.6396 50.7328 67.8983 52.2357H71.1122Z" fill="white"/>
<path d="M52.664 102.404C51.0234 101.973 49.3124 101.709 47.7538 101.077C41.9794 98.7328 40.1073 92.4985 43.579 87.102C48.6562 79.2065 58.6611 81.4008 62.4257 86.5688C63.9052 88.602 64.1044 90.9867 63.5478 93.4389C62.3788 98.6039 57.7382 102.369 52.6611 102.404H52.664ZM58.8954 89.226C58.8808 86.9467 58.831 85.3354 57.3105 84.2485C55.3183 82.8246 52.8779 83.0678 51.0409 85.2299C48.2226 88.5434 46.8896 92.4662 47.08 96.8344C47.1532 98.4867 48.0351 99.6586 49.6171 100.265C51.2812 100.901 52.8368 100.678 54.0878 99.4389C57.0937 96.4594 58.4003 92.6918 58.8984 89.2289L58.8954 89.226Z" fill="white"/>
<path d="M113.725 93.9341C112.556 91.8628 111.507 90.0024 110.441 88.1128C110.98 87.3599 111.486 87.4009 112.298 87.7671C113.877 88.4761 115.515 89.2231 117.202 89.4868C119.59 89.8618 121.57 88.7222 123.094 86.8882C123.902 85.9155 124.137 84.7466 123.533 83.604C122.947 82.4936 121.805 82.3179 120.718 82.5376C118.573 82.9712 116.461 83.5718 114.325 84.0552C112.36 84.5005 110.452 84.5063 108.794 83.0767C106.509 81.1079 106.761 78.2925 109.011 75.5269C110.947 73.145 113.608 71.8003 116.572 71.0737C117.53 70.8394 118.623 70.9155 118.957 69.5913C119.033 69.2925 119.622 69.1226 120.094 68.812C121.125 70.6489 122.098 72.3774 123.068 74.1001C122.253 75.269 121.488 74.7095 120.692 74.1792C117.735 72.2104 115.318 72.0874 112.875 73.9829C112.163 74.5337 111.548 75.4565 111.314 76.3237C110.88 77.9145 111.829 79.0747 113.482 78.9956C114.926 78.9253 116.359 78.5591 117.785 78.2603C119.165 77.9702 120.513 77.5161 121.902 77.2817C123.982 76.9302 125.801 77.4751 127.026 79.312C128.209 81.0874 128.036 82.9624 127.052 84.7231C125.309 87.8462 122.599 89.8442 119.241 90.9722C118.228 91.312 117.082 91.3501 116.153 91.8306C115.289 92.2759 114.63 93.1226 113.728 93.9311L113.725 93.9341Z" fill="white"/>
<path d="M36.9551 96.6997C31.0225 92.4224 25.2568 88.2681 19.4941 84.1108L19.5908 83.5952C20.0186 83.6187 20.5137 83.5103 20.8682 83.686C22.8926 84.688 23.291 84.6001 24.542 82.6753C26.7715 79.2388 29.001 75.8022 31.2275 72.3628C32.3584 70.6167 32.3027 70.3267 30.8437 68.7417C30.5391 68.4106 30.4482 67.8862 30.2607 67.4526C30.4102 67.3647 30.5596 67.2769 30.7119 67.189C34.1396 69.6646 37.5674 72.1401 40.9922 74.6187C40.9746 74.7886 40.96 74.9556 40.9424 75.1255C40.5146 75.1255 40.0283 75.2632 39.6738 75.1021C37.292 74.0298 37.3008 74.0122 35.8799 76.1509C33.8027 79.2798 31.7197 82.4028 29.6455 85.5347C27.9082 88.1567 28.1162 88.4468 30.5303 90.5327C33.2871 92.9116 36.0088 93.1284 39.0674 91.3237C39.5039 91.0659 40.1279 91.1274 40.667 91.0396C40.7461 91.1948 40.8223 91.3472 40.9014 91.5024C39.6211 93.1899 38.3379 94.8774 36.9551 96.7026V96.6997Z" fill="white"/>
<path d="M83.5488 83.9349C86.8623 83.015 90.1787 82.098 93.4922 81.1781C93.6094 81.2865 93.7236 81.3978 93.8408 81.5062C93.5801 81.8314 93.3838 82.2884 93.0439 82.4583C91.8428 83.0619 91.5176 83.8558 91.8955 85.1947C92.707 88.0511 93.3047 90.9691 94.0781 93.8372C95.1328 97.7425 97.6758 98.9466 101.426 97.4085C103.512 96.5531 104.839 94.6107 104.382 92.4105C103.699 89.1263 102.753 85.8978 101.856 82.6605C101.484 81.3187 100.433 80.9466 99.1172 80.9876C98.6865 81.0023 98.2471 80.7005 97.8105 80.5423C98.165 80.2875 98.4873 79.9212 98.8828 79.7953C100.969 79.1273 103.072 78.5062 105.182 77.9144C105.483 77.8294 105.855 78.0052 106.195 78.0609C106.005 78.3392 105.876 78.7113 105.615 78.8871C103.491 80.2962 103.307 80.6654 103.948 83.2113C104.534 85.5257 105.205 87.8167 105.835 90.1195C106.764 93.5296 105.973 96.0375 103.119 98.0736C100.277 100.101 97.0664 100.722 93.6621 99.9544C91.377 99.4388 89.9326 97.9564 89.335 95.6654C88.5586 92.6947 87.7236 89.7415 86.9941 86.7621C86.666 85.4232 86.0332 84.7054 84.5742 84.8285C84.2109 84.8578 83.8213 84.5882 83.4434 84.4564C83.4785 84.2835 83.5137 84.1107 83.5459 83.9378L83.5488 83.9349Z" fill="white"/>
<path d="M72.0352 85.7104C68.8799 85.3237 68.2676 85.6489 67.1221 88.0366C66.5811 89.1636 65.9951 89.7856 65.3643 89.9028V84.1899H82.6523V89.8062C82.2978 89.5454 81.9199 89.3814 81.7207 89.0942C81.4189 88.6607 81.2344 88.145 81.0117 87.6587C80.1357 85.7397 78.6855 85.0103 76.4121 85.6021C76.4121 86.0386 76.4033 86.5513 76.4121 87.064C76.5059 91.4556 76.6611 95.8442 76.6641 100.233C76.6641 101.63 77.1709 102.292 78.4775 102.553C78.8145 102.621 79.0928 102.963 79.3975 103.18C79.0664 103.362 78.7353 103.699 78.4014 103.705C75.4336 103.746 72.4658 103.728 69.2754 103.4C69.6299 103.163 69.9639 102.773 70.3447 102.714C71.3203 102.568 72.0381 102.278 72.0381 101.124C72.0322 96.0083 72.0381 90.8901 72.0381 85.7075L72.0352 85.7104Z" fill="white"/>
</g>
<defs>
<clipPath id="clip0_2003_2618">
<rect width="150" height="150" fill="white" transform="translate(0 0.430176)"/>
</clipPath>
</defs>
</svg>
