<svg width="73" height="73" viewBox="0 0 73 73" fill="none" xmlns="http://www.w3.org/2000/svg">
<path d="M27.7837 37.1245C27.7837 35.1511 27.7837 33.5059 27.7837 31.8606C27.7837 29.3627 27.756 26.8625 27.7952 24.3646C27.8207 22.8095 28.4076 21.4901 29.8587 20.7599C31.1435 20.1152 32.4745 20.1475 33.6946 20.9493C34.9169 21.7535 35.4184 22.9689 35.423 24.4016C35.4299 26.6245 35.423 28.8474 35.423 31.2622C37.8169 30.4141 39.7741 30.733 40.8809 32.6255C42.4523 32.6255 43.8271 32.406 45.0911 32.6833C46.5099 32.9952 47.0899 34.3539 47.4642 35.7658C47.8802 35.6503 48.1991 35.5486 48.5249 35.4723C51.032 34.8785 53.3335 36.4428 53.3774 39.0054C53.4398 42.6888 53.4745 46.3929 53.1625 50.0577C52.7212 55.243 47.9379 59.9269 42.7758 60.6455C36.5275 61.5166 31.8437 59.0072 28.4723 53.8912C25.7063 49.6949 23.0559 45.4201 20.4425 41.1244C19.7169 39.9321 19.0699 38.5988 18.7995 37.247C18.3305 34.8969 20.2206 33.254 22.5129 33.968C23.7307 34.347 24.8398 35.1003 25.9628 35.745C26.5151 36.0616 26.9888 36.5145 27.7814 37.1199L27.7837 37.1245ZM29.4289 41.0065C28.128 39.7911 27.0974 38.638 25.8796 37.7392C24.6688 36.8449 23.3401 36.0038 21.9329 35.5185C20.7128 35.098 19.9364 36.0962 20.357 37.3533C20.6574 38.2545 21.0687 39.1395 21.5701 39.9459C24.2806 44.3155 26.9911 48.6874 29.7894 53.0016C32.4514 57.1078 36.0654 59.4439 41.1998 59.2521C46.4752 59.0557 51.6767 54.0899 51.7576 48.803C51.8061 45.6904 51.7784 42.5778 51.7738 39.4653C51.7738 37.8686 51.0621 36.972 49.7634 36.8842C48.4948 36.7987 47.7184 37.6005 47.3903 39.151C47.3302 39.4399 46.8334 39.7819 46.5076 39.8211C46.295 39.8466 45.8398 39.3775 45.8144 39.1025C45.7289 38.1112 45.7959 37.106 45.7728 36.1078C45.7404 34.7745 44.8808 33.8964 43.6377 33.8825C42.4407 33.871 41.491 34.8022 41.4378 36.0593C41.417 36.5584 41.5372 37.0945 41.387 37.5451C41.283 37.8547 40.8463 38.1921 40.5205 38.236C40.3102 38.2637 39.8457 37.8015 39.818 37.5266C39.7279 36.6138 39.7926 35.6849 39.781 34.7629C39.7626 33.3049 38.8567 32.3274 37.5674 32.3575C36.3403 32.3852 35.4576 33.3534 35.4392 34.7421C35.4184 36.1632 35.4022 37.5867 35.4415 39.0078C35.4669 39.8812 34.9239 40.0268 34.3392 39.8234C34.0689 39.7287 33.8124 39.1533 33.8078 38.7929C33.7731 33.9126 33.7916 29.0323 33.7777 24.152C33.7731 22.8118 32.9158 21.9222 31.6796 21.8875C30.4295 21.8528 29.4867 22.7956 29.4382 24.1405C29.4243 24.5633 29.4312 24.9862 29.4312 25.4091C29.4312 30.5181 29.4312 35.6271 29.4312 41.0089L29.4289 41.0065Z" fill="url(#paint0_linear_436_3060)"/>
<path d="M30.7788 15.8657C30.7788 15.1379 30.795 14.4123 30.7719 13.6844C30.7557 13.1437 30.8759 12.8133 31.5206 12.8156C32.1237 12.8156 32.4518 12.9658 32.4379 13.6497C32.4079 15.1032 32.4125 16.559 32.4379 18.0124C32.4495 18.6548 32.1976 18.8951 31.5552 18.8905C30.9359 18.8859 30.7557 18.6109 30.7742 18.0471C30.7996 17.3215 30.7811 16.5936 30.7811 15.8657H30.7788Z" fill="url(#paint1_linear_436_3060)"/>
<path d="M40.4233 16.6929C40.7768 17.0904 41.0703 17.4208 41.4538 17.8506C39.8733 19.1354 38.369 20.3578 36.7769 21.6518C36.4395 21.2566 36.153 20.9216 35.7764 20.4779C37.3454 19.1978 38.8496 17.9731 40.4233 16.6906V16.6929Z" fill="url(#paint2_linear_436_3060)"/>
<path d="M19.8021 26.7585C21.415 26.3911 22.8869 26.13 24.3081 25.7048C25.4033 25.379 25.9325 25.5731 25.817 26.9549C23.9638 27.387 22.0574 27.8307 20.0378 28.2998C19.9477 27.7175 19.8807 27.2807 19.7998 26.7585H19.8021Z" fill="url(#paint3_linear_436_3060)"/>
<path d="M43.5079 26.7862C43.3577 27.3592 43.2514 27.7567 43.1151 28.2766C41.1579 27.8306 39.2747 27.3985 37.4053 26.9733C37.4577 25.9258 37.966 25.5122 38.9304 25.7325C40.4139 26.0721 41.8997 26.4164 43.5079 26.7885V26.7862Z" fill="url(#paint4_linear_436_3060)"/>
<path d="M26.4669 21.6564C24.8517 20.3508 23.3659 19.1515 21.7969 17.8853C22.1319 17.4763 22.4138 17.132 22.7789 16.6883C24.3456 17.9569 25.8522 19.177 27.4536 20.4733C27.1139 20.8823 26.8343 21.2196 26.4692 21.6587L26.4669 21.6564Z" fill="url(#paint5_linear_436_3060)"/>
<defs>
<linearGradient id="paint0_linear_436_3060" x1="18.7275" y1="39.0043" x2="53.4191" y2="39.0043" gradientUnits="userSpaceOnUse">
<stop stop-color="#BE6552"/>
<stop offset="0.490144" stop-color="#ECA9A0"/>
<stop offset="1" stop-color="#BE6552"/>
</linearGradient>
<linearGradient id="paint1_linear_436_3060" x1="30.7705" y1="15.6194" x2="32.4383" y2="15.6194" gradientUnits="userSpaceOnUse">
<stop stop-color="#BE6552"/>
<stop offset="0.490144" stop-color="#ECA9A0"/>
<stop offset="1" stop-color="#BE6552"/>
</linearGradient>
<linearGradient id="paint2_linear_436_3060" x1="35.7764" y1="18.9804" x2="41.4538" y2="18.9804" gradientUnits="userSpaceOnUse">
<stop stop-color="#BE6552"/>
<stop offset="0.490144" stop-color="#ECA9A0"/>
<stop offset="1" stop-color="#BE6552"/>
</linearGradient>
<linearGradient id="paint3_linear_436_3060" x1="19.7998" y1="26.8287" x2="25.8325" y2="26.8287" gradientUnits="userSpaceOnUse">
<stop stop-color="#BE6552"/>
<stop offset="0.490144" stop-color="#ECA9A0"/>
<stop offset="1" stop-color="#BE6552"/>
</linearGradient>
<linearGradient id="paint4_linear_436_3060" x1="37.4053" y1="26.8758" x2="43.5079" y2="26.8758" gradientUnits="userSpaceOnUse">
<stop stop-color="#BE6552"/>
<stop offset="0.490144" stop-color="#ECA9A0"/>
<stop offset="1" stop-color="#BE6552"/>
</linearGradient>
<linearGradient id="paint5_linear_436_3060" x1="21.7969" y1="18.9823" x2="27.4536" y2="18.9823" gradientUnits="userSpaceOnUse">
<stop stop-color="#BE6552"/>
<stop offset="0.490144" stop-color="#ECA9A0"/>
<stop offset="1" stop-color="#BE6552"/>
</linearGradient>
</defs>
</svg>
