<svg width="304" height="167" viewBox="0 0 304 167" fill="none" xmlns="http://www.w3.org/2000/svg">
<g clip-path="url(#clip0_2003_2459)">
<path d="M173.513 80.2809C173.393 92.3164 173.2 101.595 172.367 110.831C171.637 118.933 170.811 127.035 169.864 135.119C169.266 140.211 168.385 145.266 167.577 150.328C167.125 153.139 166.407 153.821 163.481 154.34C155.445 155.77 147.409 155.739 139.386 154.225C137.184 153.809 136.363 153.073 136.001 150.871C135.181 145.906 134.378 140.941 133.697 135.958C133.057 131.306 132.508 126.643 132.044 121.968C131.549 117.057 131.072 112.134 130.825 107.211C130.445 99.6342 130.143 92.0509 130.035 84.4737C129.956 78.821 130.168 73.1562 130.367 67.5034C130.674 58.7377 131.296 49.9901 132.376 41.2908C133.425 32.8811 134.68 24.5015 135.844 16.1098C135.857 16.0374 135.863 15.965 135.875 15.8926C136.424 13.1115 137.015 12.46 139.802 11.9592C147.934 10.4872 156.06 10.5295 164.181 12.0497C166.075 12.4057 167.173 13.4433 167.468 15.3497C168.18 19.9407 168.983 24.5196 169.604 29.1226C170.352 34.709 171.022 40.3014 171.589 45.9059C172.084 50.7925 172.506 55.6911 172.753 60.5958C173.139 68.0765 173.344 75.5633 173.525 80.2869L173.513 80.2809ZM131.211 80.667C131.26 80.7334 131.308 80.8058 131.356 80.8721C131.573 80.8721 131.784 80.8842 132.002 80.8721C135.048 80.655 138.095 80.4559 141.135 80.2085C142.33 80.112 143.53 79.9732 144.695 79.7138C146.245 79.37 147.259 78.3806 147.427 76.7457C147.566 75.4064 147.621 74.055 147.639 72.7097C147.735 66.2064 147.789 59.703 147.892 53.1996C147.982 47.3236 148.097 41.4477 148.23 35.5717C148.369 29.2614 148.55 22.9571 148.7 16.6467C148.731 15.41 148.7 14.1733 148.7 12.9064C148.067 13.0994 147.765 13.5579 147.663 14.2035C147.427 15.6996 147.15 17.1897 146.939 18.6919C146.842 19.3856 146.541 19.6994 145.823 19.7175C145.177 19.7355 144.538 19.9105 143.892 19.9527C141.998 20.0734 140.966 21.1472 140.61 22.9329C140.055 25.7201 139.434 28.4952 139.03 31.3005C138.083 37.8762 137.111 44.452 136.405 51.0579C135.76 57.1571 135.41 63.2985 135.006 69.4218C134.813 72.3538 134.789 75.2918 134.716 78.2298C134.704 78.7546 134.475 79.0261 134.016 79.189C133.359 79.4243 132.689 79.6294 132.062 79.925C131.736 80.0818 131.495 80.4136 131.211 80.667ZM148.815 153.344C148.815 153.043 148.821 152.783 148.815 152.524C148.634 146.678 148.435 140.826 148.278 134.98C148.151 130.408 148.061 125.835 147.989 121.256C147.874 114.463 147.789 107.67 147.693 100.883C147.639 97.3176 147.627 93.7522 147.518 90.1928C147.452 87.9788 146.426 86.8748 144.26 86.3982C143.953 86.3318 143.645 86.2655 143.337 86.2413C140.822 86.0423 138.306 85.8552 135.79 85.6682C134.312 85.5596 132.834 85.4571 131.35 85.3485C131.308 85.4148 131.266 85.4812 131.223 85.5476C131.471 85.7949 131.688 86.1086 131.983 86.2775C132.376 86.5007 132.828 86.6214 133.256 86.7722C134.746 87.3091 134.716 87.3091 134.753 88.8535C134.825 91.7915 134.849 94.7295 135.054 97.6615C135.519 104.292 135.899 110.934 136.641 117.534C137.419 124.441 138.559 131.313 139.591 138.19C139.862 140.018 140.309 141.822 140.707 143.632C141.069 145.272 142.137 146.129 143.796 146.28C144.465 146.34 145.129 146.527 145.799 146.527C146.625 146.527 146.854 146.956 146.951 147.674C147.156 149.152 147.421 150.618 147.669 152.09C147.777 152.723 148.073 153.2 148.815 153.35V153.344ZM154.625 12.8883C154.625 13.2261 154.619 13.4614 154.625 13.7027C154.751 17.3345 154.902 20.9662 154.999 24.604C155.162 30.9566 155.318 37.3152 155.433 43.6738C155.566 51.2872 155.644 58.8946 155.753 66.508C155.795 69.639 155.813 72.7701 155.91 75.9011C155.982 78.2056 156.923 79.3036 159.101 79.8345C159.499 79.931 159.903 80.0094 160.308 80.0396C163.396 80.2809 166.491 80.5162 169.58 80.7454C170.425 80.8058 171.263 80.8601 172.108 80.9144C172.15 80.8299 172.186 80.7515 172.228 80.667C171.921 80.4076 171.655 80.0758 171.305 79.9069C170.678 79.6052 170.008 79.4062 169.351 79.1648C168.916 79.008 168.729 78.7184 168.717 78.2358C168.657 75.7563 168.639 73.2768 168.47 70.8034C168.005 63.8596 167.68 56.9037 166.926 49.9901C166.117 42.5999 164.911 35.258 163.819 27.898C163.547 26.0459 163.095 24.2179 162.654 22.396C162.322 21.0205 161.399 20.2182 159.976 20.0251C159.191 19.9165 158.407 19.7597 157.617 19.7355C156.893 19.7114 156.609 19.3917 156.507 18.71C156.284 17.1837 156.006 15.6694 155.759 14.1492C155.656 13.5278 155.355 13.0934 154.619 12.8943L154.625 12.8883ZM172.216 85.5596C172.174 85.5053 172.126 85.4571 172.084 85.4028C171.704 85.4028 171.323 85.3786 170.943 85.4028C168.645 85.5717 166.34 85.7346 164.042 85.9276C162.437 86.0604 160.82 86.1327 159.246 86.4103C156.989 86.8084 156.042 87.9909 155.904 90.2773C155.891 90.4945 155.879 90.7117 155.879 90.9288C155.813 96.1291 155.753 101.335 155.686 106.536C155.644 109.932 155.608 113.329 155.536 116.725C155.385 124.115 155.228 131.506 155.053 138.896C154.981 142.099 154.848 145.297 154.775 148.5C154.739 150.105 154.769 151.703 154.769 153.338C155.33 153.181 155.656 152.765 155.759 152.144C156.03 150.557 156.302 148.965 156.555 147.372C156.64 146.829 156.881 146.588 157.448 146.551C158.214 146.503 158.974 146.358 159.74 146.274C161.297 146.099 162.31 145.291 162.703 143.746C162.793 143.396 162.908 143.052 162.98 142.702C165.212 131.843 166.702 120.87 167.559 109.83C168.12 102.56 168.355 95.2664 168.717 87.9848C168.741 87.4962 168.947 87.2307 169.381 87.0799C170.038 86.8507 170.708 86.6516 171.336 86.3499C171.673 86.187 171.927 85.8371 172.216 85.5717V85.5596Z" fill="white"/>
</g>
<defs>
<clipPath id="clip0_2003_2459">
<rect width="51.3996" height="150" fill="white" transform="translate(126.3 8.43018)"/>
</clipPath>
</defs>
</svg>
