<svg width="174" height="166" viewBox="0 0 174 166" fill="none" xmlns="http://www.w3.org/2000/svg">
<path d="M101.451 80.5298C101.302 60.3947 99.4822 37.7334 96.4359 30.6378L86.7027 28.2603L76.9695 30.6378C73.9232 37.7334 72.1029 60.3575 71.9543 80.4926L67.7192 80.827V85.0992L71.9543 85.4335C72.1029 105.569 73.9232 128.23 76.9695 135.288L86.7027 137.666L96.4359 135.288C99.4822 128.193 101.302 105.569 101.451 85.3964L105.575 85.062V80.7898L101.451 80.5298ZM79.9786 129.604C77.2295 117.791 76.6723 98.2873 76.4494 85.6564L83.3592 86.1765L84.5852 129.604H79.9786ZM83.3592 79.8239L76.4494 80.344C76.6723 67.7131 77.2295 48.2096 79.9786 36.396H84.548L83.3592 79.8239ZM93.4268 129.604H88.7459L89.9719 86.1765L96.956 85.6564C96.7331 98.2873 96.213 117.791 93.4268 129.604ZM89.9719 79.8239L88.7459 36.396H93.4268C96.1758 48.2096 96.7331 67.7131 96.956 80.344L89.9719 79.8239Z" fill="white"/>
</svg>
