<svg width="72" height="72" viewBox="0 0 72 72" fill="none" xmlns="http://www.w3.org/2000/svg">
<path d="M54.8971 57.9989C54.447 57.6607 53.9521 57.3673 53.5534 56.9777C51.8559 55.3171 50.1863 53.6284 48.5089 51.9477C48.4014 51.8391 48.3185 51.7069 48.2189 51.5782C48.0509 51.6823 47.9457 51.7416 47.8449 51.81C44.8932 53.8099 41.6313 54.6542 38.0873 54.3675C37.2441 54.2992 36.4155 54.073 35.5768 53.9353C35.0449 53.8479 34.5096 53.7281 33.9744 53.727C28.4293 53.7113 22.8843 53.7192 17.3381 53.7169C16.2217 53.7169 15.3785 53.0719 15.1321 52.0339C15.0907 51.8603 15.0851 51.6745 15.0851 51.4942C15.0829 40.0961 15.0829 28.6981 15.084 17.3C15.0862 15.9966 15.9932 15.0862 17.2944 15.0862C24.0544 15.084 30.8155 15.0873 37.5755 15.0806C38.0559 15.0806 38.4378 15.2396 38.7714 15.5756C40.2495 17.0604 41.7299 18.5441 43.2169 20.0188C43.5696 20.3693 43.7051 20.7813 43.7018 21.264C43.6962 22.3815 43.7085 23.499 43.6939 24.6165C43.6906 24.892 43.76 25.0252 44.041 25.1238C49.4002 27.0027 52.8121 30.6968 54.0741 36.2329C55.0058 40.3167 54.204 44.1519 51.9264 47.6724C51.8279 47.8247 51.7249 47.9725 51.511 48.2525C51.6465 48.3286 51.8077 48.3779 51.913 48.4831C53.5971 50.1572 55.2857 51.8268 56.9463 53.5243C57.3461 53.933 57.6495 54.438 57.9966 54.8983V55.737C57.5219 56.7705 56.7716 57.5297 55.7336 58H54.8949L54.8971 57.9989ZM39.3974 52.9779C46.9502 52.9532 53.0003 46.8886 52.9767 39.3649C52.9544 31.8737 46.855 25.8035 39.3604 25.8113C31.8793 25.8191 25.7811 31.9722 25.8102 39.4836C25.8393 46.92 31.9633 53.0025 39.3974 52.979V52.9779ZM37.2396 16.5262C37.0817 16.5195 36.9989 16.5128 36.916 16.5128C30.4214 16.5128 23.9279 16.5117 17.4332 16.5128C16.7614 16.5128 16.5117 16.7737 16.5117 17.468C16.5117 28.7529 16.5117 40.0379 16.5117 51.3217C16.5117 52.0283 16.758 52.2735 17.4758 52.2735C22.0567 52.2758 26.6377 52.2747 31.2186 52.2735C31.3172 52.2735 31.4146 52.2534 31.5669 52.2355C25.1999 48.2995 23.0724 40.7288 25.1395 34.6586C26.164 31.6498 27.9243 29.1684 30.4953 27.3006C34.0113 24.7453 37.9417 23.9055 42.2483 24.6367V21.5305C42.0568 21.5305 41.9202 21.5305 41.7825 21.5305C41.0423 21.5305 40.3022 21.5316 39.562 21.5305C38.1791 21.5271 37.2642 20.6458 37.2418 19.2741C37.2273 18.3694 37.2385 17.4646 37.2385 16.5251L37.2396 16.5262ZM49.3465 50.7159C49.4271 50.8022 49.5167 50.9052 49.613 51.0015C51.2198 52.6095 52.8267 54.2163 54.4336 55.8232C55.41 56.7996 55.2566 56.8276 56.2476 55.8232C56.6641 55.401 56.6675 55.2745 56.2577 54.8647C54.494 53.0988 52.7304 51.3329 50.9645 49.5682C50.8783 49.482 50.7831 49.4058 50.7227 49.3521C50.2535 49.8157 49.8101 50.2557 49.3454 50.7159H49.3465ZM41.0143 20.0703C40.2462 19.3055 39.4579 18.5217 38.7087 17.777C38.7087 18.254 38.7009 18.824 38.711 19.3951C38.7188 19.7892 38.9484 20.0389 39.3257 20.0613C39.9181 20.096 40.5127 20.0703 41.0143 20.0703Z" fill="url(#paint0_linear_1745_1901)"/>
<path d="M51.6084 39.412C51.5412 45.4542 47.2122 50.4831 41.2103 51.4393C34.9094 52.4438 28.7003 48.1058 27.4898 41.8542C26.2446 35.4223 30.0149 29.3285 36.3192 27.6545C37.2396 27.4104 38.2138 27.3454 39.1678 27.2513C39.7602 27.1931 40.1095 27.4876 40.1275 27.9333C40.1454 28.3778 39.8061 28.6544 39.2115 28.6757C36.2273 28.7798 33.6429 29.847 31.6184 32.0484C28.8358 35.074 27.9646 38.6404 29.1795 42.5652C30.3889 46.4721 33.0965 48.9613 37.0907 49.856C43.0366 51.1885 48.7967 47.3556 49.9399 41.4186C50.9332 36.2621 47.9893 31.0966 43.0456 29.324C42.9146 29.277 42.7802 29.2333 42.6581 29.1684C42.3267 28.9926 42.1766 28.6499 42.2908 28.3263C42.4185 27.9646 42.6772 27.79 43.0635 27.8258C43.1587 27.8347 43.255 27.8639 43.3445 27.8974C47.7575 29.5446 50.4416 32.6766 51.3676 37.2934C51.5065 37.9865 51.53 38.7043 51.6073 39.4097L51.6084 39.412Z" fill="url(#paint1_linear_1745_1901)"/>
<path d="M37.16 42.6167C38.0894 41.3794 38.9864 40.1857 39.8822 38.9921C40.9213 37.6069 41.947 36.2128 43.0086 34.8456C43.1754 34.6306 43.4934 34.4201 43.7498 34.4089C44.312 34.3854 44.5964 35.0539 44.2605 35.5477C43.9704 35.9743 43.6479 36.3796 43.3378 36.7928C41.5708 39.1499 39.8038 41.5059 38.0357 43.863C37.496 44.5819 37.15 44.6065 36.5195 43.975C35.9182 43.3714 35.3124 42.7724 34.7134 42.1666C34.3293 41.778 34.2934 41.3816 34.6003 41.0603C34.9205 40.7243 35.3359 40.7512 35.7357 41.1521C36.2082 41.6257 36.6707 42.1117 37.16 42.6167Z" fill="url(#paint2_linear_1745_1901)"/>
<path d="M27.2256 22.2202C29.5289 22.2202 31.8323 22.2191 34.1367 22.2236C34.3148 22.2236 34.5051 22.2359 34.6675 22.2986C34.9889 22.4218 35.1434 22.6838 35.1065 23.0276C35.0717 23.3489 34.8892 23.5707 34.5645 23.6378C34.4021 23.6714 34.2319 23.6793 34.0662 23.6793C29.5144 23.6815 24.9636 23.6804 20.4118 23.6804C20.3558 23.6804 20.2998 23.6815 20.2438 23.6804C19.6896 23.6614 19.357 23.3792 19.3682 22.9369C19.3783 22.4957 19.7164 22.2225 20.273 22.2225C22.5909 22.2202 24.9077 22.2225 27.2256 22.2225V22.2202Z" fill="url(#paint3_linear_1745_1901)"/>
<path d="M27.2244 20.1038C24.9345 20.1038 22.6457 20.105 20.3558 20.1005C20.1777 20.1005 19.9885 20.0893 19.8239 20.0288C19.5003 19.9101 19.339 19.6459 19.376 19.3055C19.4118 18.9706 19.6055 18.7377 19.9538 18.6806C20.1173 18.6538 20.2875 18.6526 20.4543 18.6526C24.977 18.6515 29.5009 18.6515 34.0236 18.6526C34.1636 18.6526 34.3035 18.6493 34.4413 18.6661C34.8556 18.7142 35.1154 18.9975 35.1109 19.3827C35.1064 19.7567 34.8253 20.0546 34.4267 20.0982C34.3024 20.1117 34.1759 20.1038 34.0505 20.1038C31.7751 20.1038 29.4998 20.1038 27.2244 20.1038Z" fill="url(#paint4_linear_1745_1901)"/>
<path d="M24.0566 25.8147C25.3119 25.8147 26.5671 25.8135 27.8213 25.8147C28.3644 25.8147 28.6611 26.0666 28.6656 26.519C28.6701 26.9747 28.3756 27.239 27.8381 27.239C25.3007 27.2412 22.7622 27.2412 20.2248 27.239C19.6974 27.239 19.3727 26.9658 19.3671 26.5347C19.3615 26.0924 19.6985 25.8147 20.2494 25.8135C21.5181 25.8124 22.7868 25.8135 24.0566 25.8135V25.8147Z" fill="url(#paint5_linear_1745_1901)"/>
<path d="M22.208 30.8334C21.5529 30.8334 20.8967 30.8368 20.2417 30.8323C19.703 30.8278 19.3593 30.53 19.3694 30.0888C19.3794 29.6588 19.6952 29.3889 20.2338 29.3856C21.573 29.3777 22.9123 29.3777 24.2515 29.3856C24.7789 29.3889 25.1037 29.6756 25.1048 30.1022C25.1059 30.5457 24.7666 30.829 24.2179 30.8323C23.5483 30.8368 22.8787 30.8323 22.2091 30.8323L22.208 30.8334Z" fill="url(#paint6_linear_1745_1901)"/>
<path d="M22.2225 48.6981C21.5394 48.6981 20.8552 48.7026 20.1722 48.697C19.6862 48.6925 19.3648 48.4014 19.3671 47.9837C19.3682 47.5671 19.6929 47.2749 20.1767 47.2738C21.5573 47.2704 22.938 47.2693 24.3187 47.2738C24.7778 47.2749 25.0902 47.5604 25.1025 47.9658C25.1148 48.3846 24.7934 48.6914 24.3142 48.6959C23.6166 48.7037 22.9201 48.6981 22.2225 48.6981Z" fill="url(#paint7_linear_1745_1901)"/>
<path d="M21.5249 34.4077C21.0792 34.4077 20.6335 34.4189 20.1879 34.4044C19.6705 34.3876 19.3503 34.083 19.3671 33.6541C19.3839 33.241 19.7064 32.9565 20.1957 32.9521C21.087 32.9442 21.9784 32.942 22.8697 32.9521C23.3557 32.9577 23.6659 33.2578 23.6647 33.6821C23.6636 34.0897 23.3736 34.3809 22.9033 34.401C22.4442 34.4212 21.984 34.4055 21.5249 34.4055C21.5249 34.4055 21.5249 34.4066 21.5249 34.4077Z" fill="url(#paint8_linear_1745_1901)"/>
<path d="M21.5405 43.6783C21.9862 43.6783 22.4318 43.6693 22.8775 43.6805C23.3444 43.6928 23.6479 43.9705 23.6647 44.377C23.6826 44.798 23.3803 45.1205 22.8954 45.1295C21.9761 45.1474 21.0568 45.1474 20.1386 45.1295C19.6683 45.1205 19.3726 44.8193 19.3671 44.4173C19.3626 44.0019 19.6839 43.7029 20.161 43.6794C20.189 43.6783 20.217 43.6794 20.2449 43.6794C20.6772 43.6794 21.1083 43.6794 21.5405 43.6794V43.6783Z" fill="url(#paint9_linear_1745_1901)"/>
<path d="M21.1408 41.5608C20.8071 41.5608 20.4723 41.5708 20.1386 41.5585C19.6896 41.5417 19.375 41.2416 19.3671 40.843C19.3604 40.4388 19.656 40.132 20.1196 40.1196C20.815 40.1017 21.5115 40.1006 22.2068 40.1196C22.6727 40.132 22.9627 40.4365 22.9548 40.8452C22.947 41.2461 22.6357 41.5429 22.1833 41.5585C21.8362 41.5708 21.4879 41.5608 21.1397 41.5608H21.1408Z" fill="url(#paint10_linear_1745_1901)"/>
<path d="M21.1833 36.5431C21.5316 36.5431 21.8787 36.5353 22.2269 36.5454C22.6491 36.5577 22.9503 36.8544 22.957 37.2452C22.9637 37.6394 22.6692 37.9563 22.2493 37.963C21.526 37.9764 20.8026 37.9764 20.0792 37.963C19.6627 37.9551 19.3626 37.6349 19.3682 37.2463C19.3738 36.8578 19.6795 36.5577 20.0994 36.5454C20.4611 36.5353 20.8228 36.5431 21.1844 36.5431H21.1833Z" fill="url(#paint11_linear_1745_1901)"/>
<defs>
<linearGradient id="paint0_linear_1745_1901" x1="15.0833" y1="34.8895" x2="57.9966" y2="34.8895" gradientUnits="userSpaceOnUse">
<stop stop-color="#BE6552"/>
<stop offset="0.490144" stop-color="#ECA9A0"/>
<stop offset="1" stop-color="#BE6552"/>
</linearGradient>
<linearGradient id="paint1_linear_1745_1901" x1="27.253" y1="38.4778" x2="51.6084" y2="38.4778" gradientUnits="userSpaceOnUse">
<stop stop-color="#BE6552"/>
<stop offset="0.490144" stop-color="#ECA9A0"/>
<stop offset="1" stop-color="#BE6552"/>
</linearGradient>
<linearGradient id="paint2_linear_1745_1901" x1="34.3947" y1="39.0322" x2="44.4046" y2="39.0322" gradientUnits="userSpaceOnUse">
<stop stop-color="#BE6552"/>
<stop offset="0.490144" stop-color="#ECA9A0"/>
<stop offset="1" stop-color="#BE6552"/>
</linearGradient>
<linearGradient id="paint3_linear_1745_1901" x1="19.3679" y1="22.8943" x2="35.1118" y2="22.8943" gradientUnits="userSpaceOnUse">
<stop stop-color="#BE6552"/>
<stop offset="0.490144" stop-color="#ECA9A0"/>
<stop offset="1" stop-color="#BE6552"/>
</linearGradient>
<linearGradient id="paint4_linear_1745_1901" x1="19.3708" y1="19.323" x2="35.1109" y2="19.323" gradientUnits="userSpaceOnUse">
<stop stop-color="#BE6552"/>
<stop offset="0.490144" stop-color="#ECA9A0"/>
<stop offset="1" stop-color="#BE6552"/>
</linearGradient>
<linearGradient id="paint5_linear_1745_1901" x1="19.367" y1="26.472" x2="28.6656" y2="26.472" gradientUnits="userSpaceOnUse">
<stop stop-color="#BE6552"/>
<stop offset="0.490144" stop-color="#ECA9A0"/>
<stop offset="1" stop-color="#BE6552"/>
</linearGradient>
<linearGradient id="paint6_linear_1745_1901" x1="19.3691" y1="30.0512" x2="25.1048" y2="30.0512" gradientUnits="userSpaceOnUse">
<stop stop-color="#BE6552"/>
<stop offset="0.490144" stop-color="#ECA9A0"/>
<stop offset="1" stop-color="#BE6552"/>
</linearGradient>
<linearGradient id="paint7_linear_1745_1901" x1="19.3671" y1="47.9305" x2="25.1028" y2="47.9305" gradientUnits="userSpaceOnUse">
<stop stop-color="#BE6552"/>
<stop offset="0.490144" stop-color="#ECA9A0"/>
<stop offset="1" stop-color="#BE6552"/>
</linearGradient>
<linearGradient id="paint8_linear_1745_1901" x1="19.3665" y1="33.6222" x2="23.6647" y2="33.6222" gradientUnits="userSpaceOnUse">
<stop stop-color="#BE6552"/>
<stop offset="0.490144" stop-color="#ECA9A0"/>
<stop offset="1" stop-color="#BE6552"/>
</linearGradient>
<linearGradient id="paint9_linear_1745_1901" x1="19.367" y1="44.3524" x2="23.6655" y2="44.3524" gradientUnits="userSpaceOnUse">
<stop stop-color="#BE6552"/>
<stop offset="0.490144" stop-color="#ECA9A0"/>
<stop offset="1" stop-color="#BE6552"/>
</linearGradient>
<linearGradient id="paint10_linear_1745_1901" x1="19.367" y1="40.7791" x2="22.955" y2="40.7791" gradientUnits="userSpaceOnUse">
<stop stop-color="#BE6552"/>
<stop offset="0.490144" stop-color="#ECA9A0"/>
<stop offset="1" stop-color="#BE6552"/>
</linearGradient>
<linearGradient id="paint11_linear_1745_1901" x1="19.3681" y1="37.2015" x2="22.9571" y2="37.2015" gradientUnits="userSpaceOnUse">
<stop stop-color="#BE6552"/>
<stop offset="0.490144" stop-color="#ECA9A0"/>
<stop offset="1" stop-color="#BE6552"/>
</linearGradient>
</defs>
</svg>
