<svg width="73" height="73" viewBox="0 0 73 73" fill="none" xmlns="http://www.w3.org/2000/svg">
<path d="M36.9915 16.0019C48.1051 16.0886 56.9944 24.9308 56.9793 36.033C56.9642 47.1239 48.0787 55.9981 36.9878 56C25.8893 56 16.9887 47.09 17 35.984C17.0132 24.9006 25.9063 16.0811 36.9896 16L36.9915 16.0019ZM24.4323 22.8102C24.453 22.8611 24.4737 22.912 24.4945 22.9648C24.7263 22.9761 24.9563 22.995 25.1881 22.995C28.7619 22.9968 32.3358 22.9912 35.9096 22.9987C37.1404 23.0006 36.9802 22.8347 36.9896 24.0637C36.9953 24.7121 36.9878 24.7121 36.345 24.7121C31.972 24.7121 27.5989 24.7178 23.224 24.7027C22.7943 24.7027 22.5379 24.8554 22.2967 25.189C20.3853 27.826 19.2412 30.7439 18.8699 33.9935C18.5287 36.9849 18.9264 39.8537 19.997 42.6528C20.9452 45.1353 22.406 47.2709 24.2984 49.1181C26.9826 51.7401 30.202 53.3536 33.8814 54.0058C36.1659 54.411 38.458 54.3507 40.7463 53.8663C42.8989 53.4101 44.9176 52.6373 46.7479 51.4404C51.006 48.6526 53.7579 44.7979 54.8342 39.784C55.3752 37.262 55.3601 34.7588 54.8399 32.233C54.3272 29.743 53.3565 27.4472 51.8598 25.4171C48.3784 20.6972 43.6792 18.1319 37.8134 17.7681C35.6966 17.638 33.6288 17.9848 31.6025 18.5748C31.0276 18.7426 30.4753 18.9876 29.9118 19.1968L29.908 19.3702C30.0984 19.4061 30.2869 19.4739 30.4772 19.4739C32.2641 19.4815 34.051 19.472 35.838 19.4815C37.0782 19.489 36.9953 19.2779 36.9934 20.635C36.9934 21.2401 36.9651 21.2627 36.3488 21.2627C33.2914 21.2627 30.2341 21.3079 27.1786 21.242C25.8592 21.2137 25.2522 22.1335 24.4342 22.8102H24.4323Z" fill="url(#paint0_linear_1848_3221)"/>
<path d="M24.1482 26.4914C24.3273 26.4725 24.5063 26.4386 24.6854 26.4386C28.6023 26.4348 32.521 26.4423 36.4379 26.4273C36.8865 26.4254 37.0053 26.5856 36.9958 26.9984C36.9657 28.3669 37.1561 28.1557 35.8687 28.1614C33.4559 28.1727 31.0414 28.1652 28.6287 28.1652C28.4439 28.1652 28.2592 28.1652 27.9369 28.1652C28.131 28.3932 28.2272 28.5478 28.361 28.6534C28.8285 29.019 29.2903 29.3998 29.7973 29.7051C30.0461 29.8559 30.3873 29.9106 30.6889 29.9144C32.5851 29.9332 34.4813 29.9219 36.3776 29.9238C36.9506 29.9238 36.9883 29.9615 36.9902 30.5402C36.994 31.8973 37.0505 31.6692 35.8705 31.6843C35.0562 31.6937 34.2401 31.6805 33.4258 31.69C33.2392 31.6919 33.0545 31.7484 32.8547 31.8577C33.8537 32.508 34.5699 33.6673 35.9949 33.4222C36.1778 33.3902 36.37 33.4279 36.5585 33.4166C36.8469 33.3996 37.0147 33.5052 36.9902 33.8162C36.9657 34.1291 37.1485 34.2007 37.4011 34.3609C38.2286 34.8849 38.9411 34.4589 39.6762 34.2233C41.3255 33.6936 42.9654 33.1357 44.6053 32.5815C45.0049 32.4477 45.3951 32.2856 45.7909 32.1386C46.232 31.9746 46.4318 32.0745 46.5599 32.5269C46.5769 32.5872 46.5845 32.6494 46.5995 32.7097C46.8333 33.6296 46.8389 33.6503 45.9398 33.9538C44.3866 34.4759 42.8221 34.966 41.2652 35.4787C40.4792 35.7369 39.6951 36.0027 38.9203 36.2948C38.7903 36.3439 38.6942 36.5248 38.6131 36.6643C38.2569 37.2807 37.8007 37.718 37.0279 37.7274C36.2833 37.7368 35.7895 37.3749 35.4332 36.7661C35.4087 36.7265 35.3673 36.6831 35.371 36.6417C35.4182 35.6822 34.6133 35.3844 34.0252 34.949C31.9028 33.377 29.7615 31.8332 27.6278 30.2782C27.0717 29.8729 26.5213 29.462 25.9615 29.0662C25.7278 28.9003 25.6448 28.7306 25.8465 28.4894C26.0859 28.2029 26.003 27.9993 25.7127 27.7957C25.1698 27.4131 24.6458 27.0022 24.1143 26.6026C24.1275 26.5667 24.1388 26.529 24.152 26.4932L24.1482 26.4914Z" fill="url(#paint1_linear_1848_3221)"/>
<defs>
<linearGradient id="paint0_linear_1848_3221" x1="17" y1="34.4615" x2="56.9793" y2="34.4615" gradientUnits="userSpaceOnUse">
<stop stop-color="#BE6552"/>
<stop offset="0.490144" stop-color="#ECA9A0"/>
<stop offset="1" stop-color="#BE6552"/>
</linearGradient>
<linearGradient id="paint1_linear_1848_3221" x1="24.1143" y1="31.6428" x2="46.7322" y2="31.6428" gradientUnits="userSpaceOnUse">
<stop stop-color="#BE6552"/>
<stop offset="0.490144" stop-color="#ECA9A0"/>
<stop offset="1" stop-color="#BE6552"/>
</linearGradient>
</defs>
</svg>
