<svg width="73" height="73" viewBox="0 0 73 73" fill="none" xmlns="http://www.w3.org/2000/svg">
<path d="M22.1419 50.5909V52.6818H8.04271V50.5909H14.1176V22.6818C13.8456 23.0455 13.4376 23.4545 12.8936 23.9091C12.3798 24.3333 11.7753 24.7576 11.0802 25.1818C10.385 25.5758 9.67477 25.9091 8.94941 26.1818C8.25427 26.4545 7.60447 26.5909 7 26.5909V24.4545C7.78581 24.4545 8.58673 24.2424 9.40276 23.8182C10.249 23.3636 11.0197 22.8636 11.7148 22.3182C12.41 21.7424 12.9691 21.2273 13.3922 20.7727C13.8456 20.2879 14.0874 20.0303 14.1176 20H16.3844V50.5909H22.1419Z" fill="url(#paint0_linear_625_1480)"/>
<path d="M47.328 43.8636C47.328 45.7121 46.8142 47.3333 45.7866 48.7273C44.759 50.0909 43.399 51.1515 41.7064 51.9091C40.0139 52.6364 38.1703 53 36.1756 53C34.0297 53 32.1408 52.5758 30.5087 51.7273C28.8766 50.8788 27.5921 49.7576 26.6552 48.3636C25.7485 46.9394 25.2952 45.3939 25.2952 43.7273C25.2952 42.303 25.6276 41.0303 26.2925 39.9091C26.9877 38.7879 27.849 37.8485 28.8766 37.0909C29.9344 36.303 31.0225 35.7273 32.1408 35.3636C31.1132 34.9697 30.1611 34.4545 29.2846 33.8182C28.4384 33.1515 27.7433 32.3636 27.1992 31.4545C26.6854 30.5455 26.4285 29.5455 26.4285 28.4545C26.4285 27.1515 26.7157 26 27.2899 25C27.8642 24 28.6348 23.1667 29.602 22.5C30.5691 21.803 31.627 21.2879 32.7754 20.9545C33.9542 20.5909 35.148 20.4091 36.3569 20.4091C37.5356 20.4091 38.6992 20.5909 39.8477 20.9545C41.0264 21.2879 42.0993 21.803 43.0665 22.5C44.0336 23.1667 44.8043 24 45.3786 25C45.9528 25.9697 46.2399 27.1061 46.2399 28.4091C46.2399 29.5303 45.9679 30.5455 45.4239 31.4545C44.9101 32.3636 44.215 33.1515 43.3385 33.8182C42.462 34.4545 41.51 34.9697 40.4824 35.3636C41.7518 35.7879 42.9003 36.4091 43.9279 37.2273C44.9555 38.0152 45.7715 38.9697 46.376 40.0909C47.0106 41.2121 47.328 42.4697 47.328 43.8636ZM45.0612 43.6818C45.0612 42.5303 44.7892 41.5 44.2452 40.5909C43.7314 39.6818 43.0363 38.9242 42.1598 38.3182C41.3135 37.6818 40.3766 37.197 39.349 36.8636C38.3214 36.5303 37.2938 36.3636 36.2662 36.3636C34.8457 36.3636 33.4706 36.6818 32.1408 37.3182C30.8412 37.9242 29.7531 38.7727 28.8766 39.8636C28.0304 40.9545 27.6073 42.2424 27.6073 43.7273C27.6073 44.8788 27.8642 45.9091 28.3779 46.8182C28.922 47.697 29.6171 48.4545 30.4634 49.0909C31.3096 49.7273 32.2465 50.2121 33.2741 50.5455C34.3319 50.8485 35.3747 51 36.4022 51C37.7925 51 39.1526 50.697 40.4824 50.0909C41.8122 49.4848 42.9003 48.6364 43.7465 47.5455C44.623 46.4242 45.0612 45.1364 45.0612 43.6818ZM28.7406 28.5455C28.7406 29.8182 29.1184 30.9091 29.874 31.8182C30.6598 32.697 31.6421 33.3636 32.8208 33.8182C33.9995 34.2727 35.1631 34.5 36.3116 34.5C37.4903 34.5 38.6539 34.2727 39.8024 33.8182C40.9811 33.3333 41.9633 32.6364 42.7491 31.7273C43.535 30.8182 43.9279 29.7273 43.9279 28.4545C43.9279 27.1818 43.5501 26.1061 42.7945 25.2273C42.0691 24.3485 41.1171 23.6818 39.9384 23.2273C38.7899 22.7424 37.5658 22.5 36.2662 22.5C34.9969 22.5 33.7728 22.7424 32.5941 23.2273C31.4456 23.7121 30.5087 24.4091 29.7833 25.3182C29.0882 26.197 28.7406 27.2727 28.7406 28.5455Z" fill="url(#paint1_linear_625_1480)"/>
<path d="M66 35.5909V37.5H60.1064V43.9091H58.021V37.5H52.0821V35.5909H58.021V29.1818H60.1064V35.5909H66Z" fill="url(#paint2_linear_625_1480)"/>
<defs>
<linearGradient id="paint0_linear_625_1480" x1="7" y1="35.2307" x2="66" y2="35.2307" gradientUnits="userSpaceOnUse">
<stop stop-color="#BE6552"/>
<stop offset="0.490144" stop-color="#ECA9A0"/>
<stop offset="1" stop-color="#BE6552"/>
</linearGradient>
<linearGradient id="paint1_linear_625_1480" x1="7" y1="35.2307" x2="66" y2="35.2307" gradientUnits="userSpaceOnUse">
<stop stop-color="#BE6552"/>
<stop offset="0.490144" stop-color="#ECA9A0"/>
<stop offset="1" stop-color="#BE6552"/>
</linearGradient>
<linearGradient id="paint2_linear_625_1480" x1="7" y1="35.2307" x2="66" y2="35.2307" gradientUnits="userSpaceOnUse">
<stop stop-color="#BE6552"/>
<stop offset="0.490144" stop-color="#ECA9A0"/>
<stop offset="1" stop-color="#BE6552"/>
</linearGradient>
</defs>
</svg>
