<svg width="73" height="72" viewBox="0 0 73 72" fill="none" xmlns="http://www.w3.org/2000/svg">
<path d="M47.2455 47.5814C46.8126 47.5558 46.4663 47.5216 46.12 47.5216C39.4885 47.5216 32.8482 47.5387 26.2167 47.496C25.2817 47.496 24.9267 47.7609 24.8488 48.6925C24.719 50.1625 23.7753 50.9487 22.3035 50.9744C20.7885 50.9915 19.2735 51 17.7671 50.9744C16.252 50.9487 15.1785 49.9317 15.2218 48.4361C15.3343 44.6158 15.4642 40.7956 15.7066 36.9754C15.8018 35.4199 16.6243 34.0952 17.9748 33.2662C19.1436 32.5483 19.1696 31.5398 19.1955 30.3519C18.9791 30.4117 18.7886 30.4374 18.7886 30.4801C18.6501 31.9757 17.7411 31.9501 16.581 31.6766C15.5681 31.4373 14.5205 31.3347 13.4903 31.1809C12.6073 31.0527 12.1484 30.6767 12.1744 29.6767C12.261 26.0958 11.7761 26.5829 15.343 26.5573C15.7326 26.5573 16.1222 26.5573 16.5031 26.5573C18.3038 26.5573 18.2865 26.5573 18.6328 28.2666C18.6847 28.5315 19.0051 28.7452 19.2042 28.9845C19.4206 28.7452 19.7496 28.5401 19.8189 28.2666C20.1046 27.1983 20.3037 26.1043 20.5461 25.0275C21.0915 22.6089 23.0048 21.0278 25.5154 21.0192C32.6145 20.9936 39.7136 20.9936 46.8126 21.0192C49.4098 21.0192 51.2798 22.5832 51.8512 25.0959C52.085 26.1385 52.2841 27.1897 52.5611 28.2239C52.6304 28.4888 52.968 28.6768 53.1845 28.899C53.3403 28.6512 53.6173 28.4119 53.6433 28.1555C53.8164 26.5658 53.7991 26.5658 55.3748 26.5658C56.5349 26.5658 57.7036 26.5573 58.8637 26.5658C59.1667 26.5658 59.7121 26.6086 59.7294 26.7026C59.9199 27.8734 60.1363 29.0614 60.1104 30.2408C60.1104 30.5656 59.3485 31.0442 58.8724 31.1553C57.5564 31.4629 56.2145 31.668 54.8726 31.8048C54.5437 31.839 54.1195 31.4971 53.8511 31.2151C53.652 31.0185 53.6346 30.6425 53.3663 30.3946C53.1238 31.292 53.1065 32.3432 53.8511 32.8218C56.3358 34.3943 56.8292 36.7959 56.9418 39.3769C57.0716 42.2399 57.1322 45.1115 57.1755 47.9831C57.2015 50.0599 56.2232 50.9915 54.1281 51C52.9247 51 51.7214 51 50.518 51C48.4489 51 47.6091 50.2394 47.358 48.1626C47.3407 48.0088 47.2974 47.8635 47.2455 47.6071V47.5814ZM42.9687 46.0944C43.618 46.0944 44.0769 46.0944 44.5271 46.0944C46.4663 46.0944 48.4142 46.0602 50.3448 46.1286C50.6825 46.1371 51.0028 46.5901 51.3318 46.8464C51.0201 47.0687 50.7344 47.3421 50.3881 47.496C50.163 47.5985 49.8514 47.5387 49.583 47.5216C48.951 47.4789 48.7605 47.8036 48.8038 48.3592C48.8644 49.1283 49.2713 49.5813 50.0505 49.5984C51.5222 49.624 53.0026 49.624 54.4744 49.5984C55.3055 49.5813 55.7644 49.1112 55.7297 48.2737C55.5912 44.6842 55.5393 41.0862 55.2709 37.4967C55.0718 34.9413 53.2624 33.5055 50.6392 33.5055C41.0122 33.5055 31.3851 33.5055 21.7581 33.5055C19.109 33.5055 17.1957 34.9755 17.0052 37.5651C16.7282 41.146 16.7368 44.7526 16.6503 48.3506C16.633 49.1198 17.0485 49.5898 17.845 49.6069C19.3167 49.6326 20.7885 49.624 22.2689 49.6069C23.1866 49.5898 23.6021 49.0514 23.5675 48.1882C23.5242 47.2396 22.7277 47.684 22.2429 47.5216C21.8274 47.3763 21.4465 47.1114 21.0569 46.8977C21.4465 46.6413 21.836 46.1798 22.2429 46.1627C23.9831 46.0773 25.7319 46.1286 27.4807 46.1286C29.7143 46.1286 29.4199 46.2909 29.4113 44.2313C29.4113 43.4535 29.619 42.9407 30.4848 42.9322C34.2854 42.9236 38.0946 42.9236 41.8952 42.9322C42.6571 42.9322 43.0207 43.3424 42.986 44.103C42.9601 44.7098 42.986 45.3166 42.986 46.12L42.9687 46.0944ZM51.782 32.0184C51.782 31.7279 51.8166 31.5313 51.782 31.3518C51.3404 29.2238 50.9595 27.0786 50.4054 24.9762C49.9552 23.2755 48.5008 22.2414 46.6827 22.2328C39.7049 22.2072 32.7184 22.2072 25.7405 22.2328C23.6887 22.2328 22.2256 23.4977 21.8101 25.4805C21.5157 26.865 21.2127 28.2409 20.9357 29.6255C20.7885 30.3861 20.6846 31.1638 20.5547 32.0099H51.7906L51.782 32.0184ZM30.9436 46.0174H41.3758C41.6961 44.4022 41.6268 44.3082 40.1897 44.3082C37.5579 44.3082 34.926 44.3082 32.2942 44.3082C30.7705 44.3082 30.7705 44.3167 30.9436 46.0174ZM15.4382 27.6769C14.8495 27.8564 14.1396 27.9076 13.7154 28.2837C13.5163 28.4546 13.802 29.6511 14.0098 29.6938C15.04 29.8989 16.1222 29.8818 17.187 29.9246C17.2043 29.9246 17.239 29.7195 17.2563 29.5998C17.5333 28.1469 17.2216 27.8307 15.4382 27.6769ZM55.1843 30.2921C56.1886 30.1468 57.0803 30.0015 57.9806 29.8904C58.7771 29.7878 58.7771 29.258 58.7771 28.6426C58.7685 27.8478 58.2057 27.9845 57.7209 27.9675C57.34 27.9589 56.9504 27.9675 56.5608 27.9675C55.5508 27.9675 55.0631 28.4745 55.0977 29.4887C55.0977 29.6767 55.1324 29.8562 55.1843 30.3006V30.2921Z" fill="url(#paint0_linear_432_2124)"/>
<path d="M49.0981 41.7785C48.241 41.7785 47.3493 41.9409 46.5528 41.7358C45.7217 41.5136 44.778 41.0948 44.2586 40.4623C43.2457 39.2488 43.895 37.719 45.4447 37.3771C47.2887 36.9583 49.15 36.5908 51.0114 36.249C52.7169 35.9328 54.2839 37.0267 54.4051 38.5565C54.5696 40.488 53.4614 41.7529 51.5481 41.787C50.7343 41.8041 49.9205 41.787 49.1067 41.787L49.0981 41.7785ZM49.1414 40.3427C49.9985 40.3427 50.8728 40.4538 51.6953 40.3C52.1455 40.2145 52.7948 39.7103 52.8467 39.3257C52.9247 38.83 52.639 38.0608 52.2407 37.7788C51.8598 37.5053 51.1239 37.6249 50.5698 37.719C49.1587 37.9583 47.7562 38.2317 46.371 38.5821C45.9641 38.6847 45.6265 39.0778 45.2542 39.3342C45.6957 39.6675 46.1026 40.206 46.5961 40.3C47.4185 40.4623 48.2929 40.3427 49.15 40.3427H49.1414Z" fill="url(#paint1_linear_432_2124)"/>
<path d="M23.6801 41.7871C22.7883 41.7871 21.8966 41.8213 21.0049 41.7871C19.3427 41.7102 18.3904 40.5308 18.4683 38.7275C18.5376 37.2233 19.6803 36.0439 21.204 36.2405C23.377 36.5225 25.5414 36.9925 27.6798 37.4968C28.5801 37.7104 29.0823 38.4625 28.9697 39.4283C28.8312 40.5906 27.7231 41.6931 26.5889 41.7614C25.628 41.8213 24.6497 41.77 23.6801 41.77V41.7871ZM23.6801 40.5051C23.6801 40.5051 23.6801 40.5649 23.6801 40.5906C24.6757 40.5137 25.6886 40.5051 26.6669 40.3085C27.0045 40.2402 27.3248 39.7274 27.4893 39.3513C27.5412 39.2402 27.0738 38.736 26.7794 38.6762C25.0912 38.2916 23.3944 37.9412 21.6889 37.6592C20.5461 37.4711 19.9401 37.9241 19.8448 38.8471C19.7496 39.7958 20.3383 40.4197 21.4724 40.4966C22.2083 40.5478 22.9442 40.5051 23.6801 40.5051Z" fill="url(#paint2_linear_432_2124)"/>
<defs>
<linearGradient id="paint0_linear_432_2124" x1="12.1733" y1="34.8461" x2="60.1125" y2="34.8461" gradientUnits="userSpaceOnUse">
<stop stop-color="#BE6552"/>
<stop offset="0.490144" stop-color="#ECA9A0"/>
<stop offset="1" stop-color="#BE6552"/>
</linearGradient>
<linearGradient id="paint1_linear_432_2124" x1="43.7715" y1="38.7998" x2="54.4211" y2="38.7998" gradientUnits="userSpaceOnUse">
<stop stop-color="#BE6552"/>
<stop offset="0.490144" stop-color="#ECA9A0"/>
<stop offset="1" stop-color="#BE6552"/>
</linearGradient>
<linearGradient id="paint2_linear_432_2124" x1="18.4639" y1="38.7959" x2="28.9853" y2="38.7959" gradientUnits="userSpaceOnUse">
<stop stop-color="#BE6552"/>
<stop offset="0.490144" stop-color="#ECA9A0"/>
<stop offset="1" stop-color="#BE6552"/>
</linearGradient>
</defs>
</svg>
