<svg width="73" height="73" viewBox="0 0 73 73" fill="none" xmlns="http://www.w3.org/2000/svg">
<path d="M44.4397 49.1116C46.2633 41.7689 50.4015 36.8192 57.591 34.7555C50.39 32.7171 46.288 27.7206 44.4378 20.5143C43.5584 23.9051 42.1669 26.9977 39.8446 29.5856C37.5243 32.1715 34.6367 33.8045 31.3379 34.8022C31.5225 34.8724 31.7034 34.9543 31.8918 35.0088C34.1494 35.6538 36.1918 36.7295 38.0287 38.2164C38.2095 38.3625 38.3961 38.5496 38.4798 38.7581C38.6283 39.1303 38.5541 39.5025 38.2286 39.7656C37.8536 40.0696 37.4576 40.0189 37.0846 39.7598C36.4298 39.3057 35.8035 38.801 35.1278 38.382C33.1614 37.1641 31.0124 36.4236 28.7415 36.1586C27.1083 35.9676 25.4541 35.9793 23.8095 35.9013C23.5088 35.8877 23.2042 35.9111 22.9073 35.8682C22.2962 35.7805 21.906 35.2816 21.9479 34.6814C21.9898 34.089 22.3971 33.6798 23.0158 33.6642C24.2683 33.6291 25.5227 33.6623 26.7714 33.5863C30.8049 33.3407 34.4882 32.1306 37.549 29.3205C39.799 27.2529 41.2666 24.669 42.1936 21.7498C43.0178 19.1541 43.3813 16.4844 43.3433 13.7562C43.3395 13.4327 43.328 13.1053 43.3604 12.7838C43.4232 12.1524 43.882 11.7529 44.4873 11.7705C45.0717 11.788 45.5076 12.244 45.5285 12.8734C45.5685 14.0563 45.5418 15.2431 45.6465 16.4201C45.9968 20.3623 47.0875 24.0551 49.4611 27.2471C51.8177 30.4177 55.0041 32.2475 58.7712 33.1049C60.8784 33.5843 63.0122 33.6369 65.1555 33.6252C65.4239 33.6252 65.698 33.6194 65.9626 33.6564C66.5641 33.7383 66.9448 34.1845 66.9448 34.773C66.9448 35.344 66.5413 35.8117 65.9455 35.876C65.5838 35.915 65.2164 35.8994 64.8529 35.8896C62.0776 35.8175 59.3365 36.0572 56.6983 36.9984C51.8557 38.7269 48.6731 42.1645 46.9238 47.0421C45.913 49.8599 45.5209 52.7849 45.5304 55.7743C45.5304 56.0666 45.5418 56.3589 45.5209 56.6492C45.4695 57.3352 45.0317 57.7795 44.4359 57.7697C43.8058 57.76 43.3718 57.302 43.349 56.6005C43.3147 55.5969 43.33 54.5894 43.2576 53.5878C42.9854 49.8307 42.0527 46.284 39.995 43.1057C39.8998 42.9576 39.8028 42.8075 39.7285 42.6458C39.5172 42.1879 39.6486 41.6909 40.0312 41.4493C40.4309 41.1979 40.962 41.3031 41.2456 41.7377C41.632 42.3301 42.0127 42.9323 42.342 43.5578C43.1624 45.1168 43.8115 46.7498 44.2265 48.4744C44.2665 48.642 44.3331 48.8018 44.4397 49.1175V49.1116Z" fill="url(#paint0_linear_625_1498)"/>
<path d="M19.9806 19.7506C18.0643 18.8435 16.7943 17.4389 15.9533 15.4727C15.0897 17.4163 13.816 18.851 12.0252 19.6942C12.8082 20.3158 13.6474 20.8473 14.3105 21.5458C14.9642 22.2369 15.4381 23.097 16.0095 23.9101C16.0713 23.7881 16.1518 23.6115 16.2473 23.4425C16.5115 22.9768 16.9573 22.8078 17.3881 23.005C17.8302 23.2078 18.0512 23.666 17.8302 24.1411C17.1409 25.634 16.9105 27.2077 16.8936 28.834C16.888 29.3823 16.4834 29.7504 15.9701 29.7692C15.4662 29.788 15.0504 29.4405 14.9923 28.8903C14.9193 28.2086 14.9268 27.5176 14.8425 26.8378C14.3966 23.2867 12.0908 20.9412 8.44553 20.7627C7.93041 20.7383 7.41528 20.7289 6.90203 20.7027C6.31572 20.6726 5.94296 20.3027 5.94483 19.7693C5.94483 19.2229 6.35131 18.8417 6.93949 18.8003C7.9173 18.7346 8.91758 18.7665 9.86541 18.5562C12.2369 18.0323 13.7766 16.5487 14.5053 14.2126C14.8537 13.0953 14.9642 11.9554 14.9923 10.7948C15.0054 10.224 15.3126 9.84838 15.7772 9.78265C16.4084 9.69063 16.8486 10.1038 16.9048 10.7892C16.9779 11.6737 17.0154 12.5695 17.1914 13.4352C17.7834 16.3497 19.6809 18.3065 22.7023 18.6877C23.3954 18.7759 24.1016 18.7797 24.8022 18.8022C25.5046 18.8229 25.9448 19.1797 25.9448 19.7656C25.9448 20.3571 25.5234 20.7158 24.8003 20.7233C23.6446 20.7365 22.4888 20.7552 21.3817 21.1477C21.0296 21.2717 20.6905 21.435 20.344 21.5702C19.7895 21.7862 19.2988 21.6379 19.0946 21.2003C18.8848 20.7534 19.0777 20.282 19.5872 19.9891C19.6921 19.929 19.7952 19.8632 19.9844 19.7468L19.9806 19.7506Z" fill="url(#paint1_linear_625_1498)"/>
<path d="M21.849 52.271C23.812 53.2514 25.0806 54.731 25.9419 56.7885C26.7958 54.7329 28.0569 53.2337 29.9917 52.2946C29.789 52.1704 29.6633 52.0954 29.5375 52.0165C29.0909 51.7344 28.9276 51.255 29.119 50.7993C29.3048 50.3574 29.7721 50.172 30.2732 50.3495C30.9356 50.5843 31.583 50.9117 32.2642 51.04C33.12 51.2037 34.002 51.2156 34.8746 51.2767C35.5783 51.3241 35.9612 51.6772 35.9443 52.2966C35.9274 52.9101 35.5145 53.285 34.8333 53.283C33.5478 53.279 32.2774 53.3461 31.0519 53.8452C29.089 54.6442 27.8842 56.1652 27.3625 58.2444C27.0792 59.3748 27.0041 60.5663 26.8802 61.7362C26.8108 62.3951 26.5162 62.7699 25.9344 62.7699C25.3545 62.7699 24.9905 62.3951 24.9867 61.7382C24.9773 60.0968 24.7578 58.5108 24.0728 57.0095C23.0951 54.8632 21.4118 53.7683 19.248 53.4132C18.5124 53.2928 17.7524 53.3145 17.0036 53.285C16.3449 53.2593 15.9583 52.9121 15.9452 52.3025C15.932 51.6713 16.2792 51.3142 16.9548 51.2866C18.2347 51.2333 19.5164 51.2353 20.7418 50.7401C22.6935 49.951 23.9658 48.4872 24.4913 46.3942C24.7784 45.248 24.8572 44.0407 24.9811 42.8551C25.0487 42.2041 25.3902 41.7602 25.9494 41.7701C26.4993 41.7799 26.8877 42.1942 26.8765 42.8334C26.8502 44.5023 27.1598 46.0884 27.8073 47.6133C28.0475 48.1756 27.8598 48.6924 27.4038 48.9074C26.9422 49.1244 26.4918 48.9153 26.2103 48.3551C26.1333 48.2012 26.0583 48.0434 25.9344 47.7889C25.0787 49.7991 23.8138 51.3063 21.8471 52.271H21.849Z" fill="url(#paint2_linear_625_1498)"/>
<defs>
<linearGradient id="paint0_linear_625_1498" x1="21.9448" y1="33.0006" x2="66.9448" y2="33.0006" gradientUnits="userSpaceOnUse">
<stop stop-color="#BE6552"/>
<stop offset="0.490144" stop-color="#ECA9A0"/>
<stop offset="1" stop-color="#BE6552"/>
</linearGradient>
<linearGradient id="paint1_linear_625_1498" x1="5.94482" y1="19.0007" x2="25.9448" y2="19.0007" gradientUnits="userSpaceOnUse">
<stop stop-color="#BE6552"/>
<stop offset="0.490144" stop-color="#ECA9A0"/>
<stop offset="1" stop-color="#BE6552"/>
</linearGradient>
<linearGradient id="paint2_linear_625_1498" x1="15.9448" y1="51.4622" x2="35.9448" y2="51.4622" gradientUnits="userSpaceOnUse">
<stop stop-color="#BE6552"/>
<stop offset="0.490144" stop-color="#ECA9A0"/>
<stop offset="1" stop-color="#BE6552"/>
</linearGradient>
</defs>
</svg>
