<svg width="73" height="72" viewBox="0 0 73 72" fill="none" xmlns="http://www.w3.org/2000/svg">
<path d="M55.4708 33.422C55.6188 33.5631 55.7904 33.7246 55.999 33.9235C56.1521 33.7773 56.3119 33.6277 56.4683 33.4764C56.9039 33.0548 57.4069 33.0259 57.7685 33.4016C58.1032 33.7501 58.0662 34.272 57.6609 34.6817C55.4742 36.8951 53.2875 39.1085 51.0907 41.3117C50.8822 41.5208 50.8082 41.7265 50.8082 42.0155C50.8166 46.6973 50.8149 51.3807 50.8132 56.0625C50.8132 57.7812 49.7653 58.8386 48.0647 58.8386C38.1271 58.8386 28.1912 58.8386 18.2536 58.8386C16.5295 58.8386 15.49 57.7846 15.49 56.0336C15.49 42.6241 15.49 29.2128 15.49 15.8033C15.49 14.0489 16.5245 13 18.2536 13C28.1912 13 38.1271 13 48.0647 13C49.7686 13 50.8132 14.0557 50.8149 15.7761C50.8149 19.3121 50.8149 22.8498 50.8149 26.3857C50.8149 26.4945 50.825 26.6033 50.8351 26.7801C51.9553 26.061 53.1176 25.8519 54.3539 26.2446C55.1529 26.4979 55.8039 26.9739 56.3001 27.6556C56.724 28.237 56.9813 28.8847 57.0469 29.6089C57.1125 30.3297 57.0553 31.0437 56.697 31.6693C56.3522 32.2728 55.9031 32.8168 55.4742 33.4237L55.4708 33.422ZM49.0908 39.7477C48.9613 39.8667 48.8587 39.9517 48.7645 40.0469C45.476 43.367 42.191 46.6905 38.8941 50.0037C38.7057 50.1941 38.4484 50.3692 38.1944 50.4304C37.0388 50.7126 35.8715 50.9506 34.7109 51.2073C33.7521 51.4198 32.7227 51.4844 32.107 52.4381C32.0852 52.4721 32.0431 52.4925 32.0095 52.518C31.6445 52.7747 31.1987 52.7373 30.901 52.4228C30.6083 52.1151 30.5865 51.6459 30.8724 51.3025C31.0423 51.0968 31.2694 50.9353 31.4208 50.7194C31.5991 50.4644 31.7942 50.1873 31.8615 49.8915C32.1895 48.4754 32.4586 47.0441 32.7883 45.6297C32.8842 45.2183 33.017 44.744 33.2946 44.4618C38.4467 39.2224 43.6207 34.0051 48.7981 28.7912C49.0353 28.5515 49.1362 28.3203 49.1362 27.9803C49.1244 23.9344 49.1295 19.8901 49.1295 15.8441C49.1295 14.972 48.862 14.7 48.0042 14.7C38.0952 14.7 28.1878 14.7 18.2788 14.7C17.4479 14.7 17.1704 14.9788 17.1704 15.8169C17.1704 29.2264 17.1704 42.636 17.1704 56.0455C17.1704 56.8564 17.453 57.142 18.2587 57.142C28.1811 57.142 38.1036 57.142 48.026 57.142C48.8519 57.142 49.1278 56.8598 49.1278 56.0166C49.1278 51.9145 49.1278 47.8125 49.1278 43.7104V43.282C49.0252 43.2939 48.9697 43.2973 48.9175 43.3058C48.5088 43.3789 48.1909 43.2293 47.9974 42.8723C47.7973 42.5034 47.8932 42.16 48.1724 41.8642C48.3069 41.7214 48.4314 41.5582 48.5912 41.4477C49.1967 41.0295 49.1917 40.4379 49.0908 39.7511V39.7477ZM38.3424 47.9739C42.445 43.8447 46.5643 39.6984 50.6467 35.5895C49.6425 34.5712 48.608 33.5223 47.6307 32.5312C43.5333 36.6571 39.4139 40.8034 35.3248 44.9191C36.334 45.9408 37.3685 46.988 38.3424 47.9739ZM48.9209 31.1525C49.9604 32.2082 50.9898 33.2554 51.9789 34.2584C52.9376 33.3217 53.9704 32.4071 54.8905 31.3888C55.6424 30.5558 55.4927 29.2264 54.6937 28.424C53.8964 27.6233 52.5844 27.4941 51.7568 28.2574C50.7476 29.189 49.8292 30.2175 48.9209 31.1525ZM36.6738 49.2455C35.7857 48.3547 34.9329 47.5014 34.0835 46.6514C33.8597 47.6986 33.6276 48.7899 33.3753 49.9714C34.5376 49.7164 35.6074 49.4801 36.6738 49.2455ZM50.8384 39.0048C52.1235 37.7145 53.4187 36.4157 54.7257 35.1033C54.5844 34.9486 54.4179 34.7667 54.2345 34.5661C54.1016 34.6851 54.0057 34.7633 53.9183 34.85C53.0655 35.7068 52.248 36.601 51.3515 37.4068C50.8149 37.8896 50.7341 38.4183 50.8401 39.0031L50.8384 39.0048Z" fill="url(#paint0_linear_625_1356)"/>
<path d="M32.9896 22.1639C29.4901 22.1639 25.9924 22.1639 22.493 22.1639C22.3546 22.1639 22.2146 22.1722 22.0762 22.1572C21.636 22.1073 21.3126 21.7363 21.3243 21.3088C21.336 20.8978 21.6594 20.5535 22.0828 20.5085C22.2062 20.4952 22.3329 20.5035 22.458 20.5035C29.4835 20.5035 36.509 20.5035 43.5328 20.5035C43.6579 20.5035 43.7846 20.4969 43.9079 20.5102C44.3314 20.5568 44.6515 20.9061 44.6598 21.3171C44.6682 21.743 44.3397 22.1123 43.8996 22.1589C43.7629 22.1738 43.6228 22.1655 43.4828 22.1655C39.9834 22.1655 36.4856 22.1655 32.9862 22.1655L32.9896 22.1639Z" fill="url(#paint1_linear_625_1356)"/>
<path d="M32.9611 26.3294C29.4617 26.3294 25.9639 26.3294 22.4644 26.3294C22.326 26.3294 22.1843 26.3377 22.0493 26.3194C21.6308 26.2629 21.319 25.9005 21.324 25.4899C21.329 25.0776 21.6458 24.7268 22.0676 24.6769C22.191 24.662 22.3177 24.6703 22.4427 24.6703C29.4817 24.6703 36.5206 24.6703 43.5596 24.6703C43.6713 24.6703 43.783 24.6636 43.893 24.6753C44.3348 24.7201 44.6649 25.0809 44.6599 25.5098C44.6549 25.9188 44.3365 26.2729 43.9164 26.3244C43.7796 26.3411 43.6396 26.3327 43.4996 26.3327C39.9868 26.3327 36.4739 26.3327 32.9611 26.3327V26.3294Z" fill="url(#paint2_linear_625_1356)"/>
<path d="M32.9944 30.4998C29.495 30.4998 25.9973 30.4998 22.4979 30.4998C22.3595 30.4998 22.2195 30.5081 22.0811 30.4931C21.641 30.4448 21.3142 30.077 21.3242 29.6493C21.3342 29.2365 21.6543 28.8904 22.0778 28.8438C22.2011 28.8304 22.3278 28.8371 22.4529 28.8371C29.4784 28.8371 36.5039 28.8371 43.5277 28.8371C43.6527 28.8371 43.7794 28.8304 43.9028 28.8421C44.3263 28.887 44.648 29.2332 44.6597 29.6443C44.6714 30.0704 44.3446 30.4432 43.9061 30.4914C43.7694 30.5064 43.6294 30.4981 43.4893 30.4981C39.9899 30.4981 36.4922 30.4981 32.9928 30.4981L32.9944 30.4998Z" fill="url(#paint3_linear_625_1356)"/>
<path d="M26.7304 34.6674C25.2879 34.6674 23.8438 34.6674 22.4013 34.6674C21.7193 34.6674 21.3307 34.3687 21.3241 33.8448C21.3174 33.3175 21.7093 33.0022 22.3796 33.0022C25.2946 33.0022 28.2079 33.0022 31.1229 33.0022C31.7666 33.0022 32.1518 33.3109 32.1585 33.8248C32.1651 34.3504 31.7699 34.6674 31.1012 34.6691C29.6437 34.6691 28.1862 34.6691 26.7304 34.6691V34.6674Z" fill="url(#paint4_linear_625_1356)"/>
<defs>
<linearGradient id="paint0_linear_625_1356" x1="15.49" y1="34.1562" x2="57.9949" y2="34.1562" gradientUnits="userSpaceOnUse">
<stop stop-color="#BE6552"/>
<stop offset="0.490144" stop-color="#ECA9A0"/>
<stop offset="1" stop-color="#BE6552"/>
</linearGradient>
<linearGradient id="paint1_linear_625_1356" x1="21.324" y1="21.2703" x2="44.66" y2="21.2703" gradientUnits="userSpaceOnUse">
<stop stop-color="#BE6552"/>
<stop offset="0.490144" stop-color="#ECA9A0"/>
<stop offset="1" stop-color="#BE6552"/>
</linearGradient>
<linearGradient id="paint2_linear_625_1356" x1="21.324" y1="25.4373" x2="44.66" y2="25.4373" gradientUnits="userSpaceOnUse">
<stop stop-color="#BE6552"/>
<stop offset="0.490144" stop-color="#ECA9A0"/>
<stop offset="1" stop-color="#BE6552"/>
</linearGradient>
<linearGradient id="paint3_linear_625_1356" x1="21.324" y1="29.6045" x2="44.66" y2="29.6045" gradientUnits="userSpaceOnUse">
<stop stop-color="#BE6552"/>
<stop offset="0.490144" stop-color="#ECA9A0"/>
<stop offset="1" stop-color="#BE6552"/>
</linearGradient>
<linearGradient id="paint4_linear_625_1356" x1="21.324" y1="33.7715" x2="32.1586" y2="33.7715" gradientUnits="userSpaceOnUse">
<stop stop-color="#BE6552"/>
<stop offset="0.490144" stop-color="#ECA9A0"/>
<stop offset="1" stop-color="#BE6552"/>
</linearGradient>
</defs>
</svg>
