<svg width="72" height="72" viewBox="0 0 72 72" fill="none" xmlns="http://www.w3.org/2000/svg">
<g clip-path="url(#clip0_1745_1927)">
<path d="M51.4776 56C50.7329 55.713 49.9891 55.4244 49.2436 55.1415C48.856 54.9948 48.4643 54.8603 48.075 54.7177C47.3436 54.4497 47.2347 54.2155 47.4953 53.4815C47.5291 53.385 47.558 53.2861 47.6157 53.1038C47.3625 53.1038 47.1333 53.051 46.9395 53.1129C45.8534 53.4584 44.783 53.8526 43.692 54.1825C43.405 54.2699 43.0372 54.2748 42.7576 54.1751C38.3828 52.6024 34.0171 51.0034 29.6464 49.4168C28.5587 49.0218 27.8569 48.3159 27.6747 47.1374C27.4363 45.5928 28.7607 44.1184 30.34 44.2124C30.6962 44.2338 31.0599 44.3154 31.398 44.4325C32.597 44.849 33.787 45.291 34.977 45.7306C35.1625 45.799 35.3019 45.8493 35.4347 45.6324C35.8957 44.8795 36.6214 44.5439 37.4576 44.3963C40.2391 43.9056 43.0191 43.4058 45.8039 42.9341C46.1181 42.8805 46.481 42.921 46.7844 43.0249C48.1064 43.4784 49.4151 43.9716 50.7601 44.4622C50.8335 44.275 50.8978 44.0953 50.9729 43.9204C51.1576 43.49 51.4718 43.3267 51.9138 43.4825C53.1228 43.9089 54.3292 44.3443 55.5258 44.8036C55.7122 44.8754 55.8433 45.0898 56 45.2382V45.7058C55.9439 45.8163 55.8763 45.9227 55.8342 46.0382C54.716 49.1001 53.606 52.1662 52.4746 55.2232C52.369 55.5077 52.1249 55.7411 51.946 55.9984H51.4784L51.4776 56ZM45.5054 48.3299C45.3504 48.3695 45.2522 48.4016 45.1508 48.4189C42.8154 48.8313 40.4799 49.2436 38.1445 49.6535C36.6255 49.9198 35.2574 48.9195 35.0191 47.3823C35.0034 47.2784 34.9127 47.1358 34.8228 47.1028C33.4266 46.5841 32.0313 46.0596 30.6203 45.5829C30.1041 45.4081 29.6143 45.5772 29.2621 46.02C28.9199 46.4505 28.9009 46.9172 29.1409 47.4054C29.3454 47.8202 29.705 48.0239 30.1206 48.1748C34.3948 49.7252 38.6665 51.2822 42.9432 52.8259C43.1188 52.8894 43.3506 52.8902 43.5303 52.835C44.3715 52.5736 45.2036 52.2833 46.0381 52.0013C46.6937 51.7794 47.3378 51.405 48.0561 51.9369C48.8238 49.8283 49.566 47.7897 50.309 45.7487C50.2587 45.7174 50.229 45.691 50.1944 45.6786C48.9046 45.2069 47.6165 44.7335 46.3226 44.2726C46.1998 44.2289 46.0439 44.2478 45.9087 44.2709C44.5034 44.5117 43.099 44.7558 41.6955 45.0049C40.2532 45.2597 38.8084 45.5021 37.3726 45.7858C36.6288 45.9326 36.2099 46.622 36.3558 47.3362C36.4935 48.0066 37.1797 48.4684 37.8897 48.3447C39.5497 48.0561 41.2073 47.7559 42.8665 47.4623C43.6648 47.3213 44.4639 47.1836 45.2852 47.0409C45.3619 47.4879 45.432 47.8928 45.507 48.3299H45.5054ZM52.0169 44.9348C50.9589 47.8425 49.9181 50.7041 48.8675 53.592C49.7144 53.8996 50.5102 54.1882 51.3332 54.4868C52.3921 51.5741 53.4328 48.7133 54.481 45.832C53.6406 45.526 52.8531 45.2391 52.0169 44.9348Z" fill="url(#paint0_linear_1745_1927)"/>
<path d="M34.6472 34.5622C33.6667 34.4294 33.0003 33.9717 32.7513 33.0267C32.6993 32.8296 32.6903 32.6168 32.6886 32.4115C32.6828 31.3073 32.6894 30.203 32.6812 29.0988C32.6804 28.9529 32.6482 28.7888 32.5756 28.6634C32.2219 28.0507 31.8499 27.4487 31.4772 26.8318C30.3103 28.0746 28.8135 28.755 26.9944 28.5727C25.2147 28.3938 23.7097 27.7464 22.796 26.0204C22.796 26.3428 22.796 26.6644 22.796 26.9869C22.7936 27.7497 22.6113 27.9394 21.865 27.9394C20.2668 27.941 18.6694 27.9418 17.0713 27.9394C16.4198 27.9385 16.2012 27.7291 16.2004 27.0776C16.1963 23.6998 16.1963 20.3228 16.2004 16.945C16.2029 16.2919 16.4247 16.08 17.0688 16.08C18.6925 16.0783 20.3163 16.0783 21.94 16.08C22.58 16.08 22.7894 16.2952 22.796 16.95C22.7993 17.2749 22.801 17.599 22.8059 17.9239C22.8059 17.947 22.8249 17.9701 22.8686 18.0682C23.1061 18.0229 23.3807 18.0154 23.6174 17.9173C24.9327 17.3697 26.2365 16.7925 27.5518 16.2433C27.7836 16.1459 28.0499 16.0882 28.3006 16.0866C30.509 16.075 32.7175 16.0866 34.9259 16.0775C36.2256 16.0725 37.3438 16.5137 38.2616 17.4225C40.0437 19.1856 41.8209 20.9553 43.5799 22.7415C44.9043 24.0874 44.6115 26.2026 42.9968 26.9242C42.5746 27.1131 42.0782 27.1378 41.6139 27.2384C41.317 27.6944 40.9871 28.1884 40.6729 28.6923C40.6177 28.7805 40.6061 28.9075 40.6053 29.0164C40.6012 30.1338 40.6136 31.2512 40.602 32.3678C40.5897 33.594 39.9984 34.29 38.7952 34.5308C38.7449 34.5407 38.6954 34.5556 38.6129 34.5762C38.6129 34.7403 38.6129 34.9069 38.6129 35.0735C38.6129 37.0221 38.6039 38.9708 38.6195 40.9195C38.6237 41.3722 38.4571 41.6542 38.0464 41.8282C37.7487 41.9544 37.4593 42.1053 37.178 42.2661C36.8185 42.4723 36.4746 42.483 36.1109 42.2744C35.819 42.107 35.518 41.9503 35.2088 41.82C34.7931 41.6443 34.6381 41.345 34.6406 40.903C34.6513 38.9411 34.6455 36.9801 34.6455 35.0182C34.6455 34.8764 34.6455 34.7354 34.6455 34.563L34.6472 34.5622ZM41.8835 25.8109C42.4517 25.8109 42.8236 25.5611 42.9944 25.0819C43.2112 24.4733 42.9688 24.0033 42.5449 23.5811C40.8709 21.9119 39.1919 20.2478 37.5326 18.563C36.7484 17.7672 35.8248 17.3871 34.7115 17.3953C32.6721 17.4101 30.6327 17.3945 28.5934 17.4068C28.3435 17.4085 28.0837 17.4753 27.8462 17.5611C26.1647 18.1672 24.6358 19.1799 22.8199 19.4644V24.6498C22.9824 24.6498 23.1218 24.649 23.2611 24.6498C23.8532 24.6556 24.0116 24.7719 24.1254 25.3656C24.2169 25.8456 24.4808 26.2002 24.8667 26.4624C26.2835 27.4248 27.786 27.513 29.3356 26.831C30.0646 26.5102 30.6245 26.0262 30.7432 25.1594C30.7993 24.7529 31.1242 24.6473 31.5003 24.6482C32.903 24.6523 34.3058 24.6523 35.7085 24.6465C35.9147 24.6457 36.1266 24.63 36.3245 24.5797C37.0412 24.3983 37.4485 23.6371 37.2201 22.9362C37.023 22.3309 36.5447 22.0109 35.8017 22.0101C33.5933 22.0068 31.3857 22.0084 29.1772 22.0084C29.0288 22.0084 28.8803 22.0084 28.7443 22.0084V20.6832H29.1945C30.7144 20.6832 32.2342 20.689 33.7541 20.6766C33.9776 20.675 34.2184 20.6222 34.4212 20.5282C36.8234 19.4058 39.7114 20.2585 41.1084 22.5098C41.731 23.5134 41.985 24.6036 41.8835 25.8109ZM21.4378 26.5993V17.4258H17.5726V26.5985H21.4386L21.4378 26.5993ZM34.5771 28.6816C34.8789 28.811 35.1197 28.9405 35.3778 29.0131C35.4966 29.0461 35.6788 29.0089 35.777 28.9323C36.3897 28.4523 37.2234 28.5216 37.6811 29.1096C38.1478 29.7091 38.0489 30.5255 37.4551 30.9733C36.8292 31.445 36.0103 31.3031 35.5469 30.65C35.4825 30.5593 35.4034 30.457 35.3069 30.4166C34.8921 30.2451 34.4682 30.0942 34.0147 29.9235C34.0147 30.8314 33.9973 31.7229 34.0229 32.6127C34.0336 32.9896 34.3148 33.2056 34.7577 33.2097C36.0037 33.2221 37.2506 33.2238 38.4967 33.2097C39.022 33.204 39.2496 32.9582 39.2545 32.437C39.262 31.6577 39.257 30.8793 39.257 30.1C39.257 28.8259 39.2488 28.8457 38.0819 28.3294C36.8597 27.7893 35.7291 27.9493 34.5763 28.6807L34.5771 28.6816ZM32.6672 25.9759C32.9476 26.6051 33.195 27.1609 33.4704 27.7794C35.6038 26.3288 37.6794 26.3346 39.7691 27.753C39.9497 27.419 40.1221 27.1452 40.2425 26.85C40.2829 26.7502 40.2326 26.5581 40.1534 26.4739C39.699 25.994 39.2232 25.5338 38.754 25.0671C38.6039 24.9178 38.4521 24.7694 38.2847 24.6045C37.6646 25.6114 36.7962 26.0055 35.6953 25.98C34.7255 25.9577 33.7549 25.975 32.6663 25.975L32.6672 25.9759ZM35.9815 34.5622V34.9481C35.9815 36.7533 35.9815 38.5585 35.9815 40.3628C35.9815 40.6663 36.3377 41.0217 36.6379 41.0225C36.9389 41.0225 37.2902 40.6696 37.2902 40.3645C37.2902 38.5461 37.2902 36.7286 37.2902 34.9102C37.2902 34.798 37.2762 34.6859 37.2679 34.5622H35.9823H35.9815ZM38.1718 21.7223C38.3919 23.1869 39.5761 23.9587 40.5435 24.9797C40.3884 23.412 39.3131 21.9944 38.1718 21.7223Z" fill="url(#paint1_linear_1745_1927)"/>
</g>
<defs>
<linearGradient id="paint0_linear_1745_1927" x1="27.6468" y1="48.9518" x2="56" y2="48.9518" gradientUnits="userSpaceOnUse">
<stop stop-color="#BE6552"/>
<stop offset="0.490144" stop-color="#ECA9A0"/>
<stop offset="1" stop-color="#BE6552"/>
</linearGradient>
<linearGradient id="paint1_linear_1745_1927" x1="16.1973" y1="28.2382" x2="44.4148" y2="28.2382" gradientUnits="userSpaceOnUse">
<stop stop-color="#BE6552"/>
<stop offset="0.490144" stop-color="#ECA9A0"/>
<stop offset="1" stop-color="#BE6552"/>
</linearGradient>
<clipPath id="clip0_1745_1927">
<rect width="40" height="40" fill="white" transform="translate(16 16)"/>
</clipPath>
</defs>
</svg>
