<svg width="73" height="73" viewBox="0 0 73 73" fill="none" xmlns="http://www.w3.org/2000/svg">
<path d="M45.1485 54.4868C45.0365 54.4868 44.9245 54.4868 44.8125 54.4868C38.6255 54.4868 32.4394 54.4868 26.2524 54.4868C24.1713 54.4868 22.0893 54.4886 20.0081 54.4825C19.8241 54.4825 19.6252 54.4651 19.4603 54.3939C19.0887 54.2333 18.9845 53.9025 18.9854 53.5205C18.988 52.1183 18.9871 50.7161 18.9871 49.3139C18.9871 40.1924 18.9871 31.0708 18.9871 21.9483C18.9871 20.3221 18.9871 18.696 18.9897 17.0698C18.9906 16.5532 19.2745 16.2041 19.7355 16.1729C19.8866 16.1625 20.055 16.1972 20.1939 16.2597C20.569 16.4264 20.9284 16.6296 21.3044 16.7945C21.406 16.8397 21.5614 16.8379 21.6638 16.7928C22.0398 16.6278 22.4027 16.4334 22.7726 16.2536C23.0217 16.1329 23.277 16.1356 23.5253 16.2536C23.896 16.4316 24.259 16.6261 24.6349 16.7911C24.7374 16.8362 24.8928 16.8379 24.9943 16.7937C25.3703 16.6287 25.7341 16.4342 26.1031 16.2545C26.3523 16.133 26.6066 16.1329 26.855 16.2519C27.2196 16.4264 27.5825 16.6018 27.9411 16.7885C28.0826 16.8623 28.2033 16.8718 28.3474 16.7945C28.6591 16.6278 28.9838 16.4854 29.2938 16.3161C29.6411 16.1269 29.9762 16.1234 30.3244 16.3092C30.6422 16.4785 30.9721 16.627 31.2907 16.7954C31.427 16.8675 31.5416 16.8657 31.6779 16.7954C32.0426 16.6061 32.4125 16.4264 32.7832 16.2484C33.0254 16.1312 33.2737 16.1338 33.5151 16.2484C33.8858 16.4255 34.2557 16.6053 34.6204 16.7945C34.7558 16.8649 34.8704 16.8701 35.0076 16.798C35.3262 16.6287 35.6553 16.4802 35.9731 16.3101C36.3134 16.1277 36.6442 16.1251 36.9854 16.3057C37.291 16.4681 37.6071 16.6105 37.9118 16.7746C38.0733 16.8614 38.2105 16.8718 38.378 16.7806C38.7271 16.5922 39.0865 16.4238 39.4434 16.251C39.6925 16.1303 39.9469 16.1329 40.1952 16.2528C40.5651 16.4316 40.928 16.6261 41.3048 16.7902C41.4073 16.8353 41.5627 16.8353 41.6643 16.7902C42.0402 16.6252 42.4031 16.4308 42.773 16.251C43.0222 16.1295 43.2766 16.1303 43.5249 16.2493C43.8956 16.4273 44.2577 16.6226 44.6336 16.7876C44.7361 16.8327 44.8915 16.8362 44.9939 16.7911C45.3699 16.6261 45.7328 16.4325 46.1026 16.2519C46.3596 16.1269 46.6192 16.1312 46.8754 16.2554C47.2322 16.429 47.5899 16.6001 47.9416 16.7841C48.0822 16.8579 48.2029 16.8709 48.3479 16.7928C48.6717 16.6192 49.0095 16.4716 49.3316 16.2936C49.9888 15.9298 50.666 16.3491 50.6522 17.1036C50.6296 18.419 50.6469 19.7343 50.6469 21.0497C50.6469 25.9717 50.6469 30.8945 50.6461 35.8165C50.6461 36.0324 50.5404 36.1403 50.3292 36.1403C49.9749 36.1403 49.6207 36.1299 49.2673 36.1438C49.0581 36.1525 48.9817 36.1021 48.9826 35.8721C48.9904 32.5329 48.9878 29.1937 48.9878 25.8536C48.9878 23.4538 48.9878 21.0541 48.9878 18.6543C48.9878 18.5631 48.9799 18.4728 48.9739 18.3391C48.8315 18.4068 48.723 18.4537 48.6179 18.5093C48.3062 18.6725 48.0006 18.6734 47.6872 18.5058C47.3624 18.333 47.0282 18.1776 46.7026 18.0066C46.5567 17.9302 46.4308 17.9224 46.2806 18.004C45.9577 18.1794 45.6225 18.333 45.2969 18.5032C44.9774 18.6699 44.6675 18.6742 44.3471 18.5032C44.0354 18.3365 43.7107 18.1941 43.4016 18.0222C43.2323 17.9284 43.0925 17.9232 42.9215 18.0179C42.6124 18.1889 42.2885 18.3322 41.976 18.4971C41.6504 18.669 41.3352 18.6769 41.007 18.498C40.6841 18.3217 40.348 18.1707 40.0225 17.9988C39.8818 17.9241 39.7611 17.9241 39.6196 18.0005C39.2958 18.1741 38.9606 18.3278 38.6359 18.4997C38.3095 18.6725 37.9952 18.6742 37.6678 18.4945C37.3518 18.3209 37.021 18.1741 36.7024 18.0057C36.5556 17.9284 36.4306 17.9232 36.2813 18.0048C35.9583 18.1802 35.624 18.3348 35.2976 18.5041C34.9789 18.669 34.6681 18.676 34.3469 18.5041C34.023 18.3296 33.687 18.1776 33.3623 18.004C33.2138 17.925 33.0879 17.9293 32.9412 18.0083C32.6174 18.182 32.284 18.3382 31.9566 18.5067C31.6371 18.6708 31.3281 18.6751 31.0068 18.4989C30.6847 18.3217 30.3487 18.1707 30.0222 17.9996C29.8825 17.9267 29.7618 17.9224 29.6194 17.9996C29.2895 18.1776 28.9509 18.3382 28.6175 18.5093C28.3058 18.669 27.9993 18.6734 27.6858 18.5067C27.3672 18.3374 27.0399 18.1854 26.7212 18.017C26.5632 17.9328 26.4269 17.918 26.2602 18.0118C25.9459 18.188 25.6169 18.3374 25.2965 18.5032C24.9779 18.6682 24.6679 18.6769 24.3467 18.5032C24.0228 18.3287 23.6868 18.1768 23.3621 18.004C23.2136 17.925 23.0869 17.9293 22.9393 18.0083C22.6154 18.182 22.282 18.3382 21.9547 18.5067C21.6352 18.6716 21.3226 18.6821 21.0066 18.498C20.9102 18.4416 20.8026 18.4034 20.6671 18.3417C20.6593 18.4737 20.6489 18.5709 20.6489 18.6682C20.6489 26.0846 20.6489 33.5001 20.6489 40.9165C20.6489 44.7835 20.6489 48.6506 20.6489 52.5177C20.6489 52.8268 20.6489 52.8268 20.9502 52.8268C28.5393 52.8268 36.1276 52.8276 43.7168 52.8216C43.9251 52.8216 44.0293 52.8945 44.1439 53.0629C44.4278 53.4788 44.7473 53.8704 45.053 54.2715C45.0912 54.321 45.1337 54.3679 45.1745 54.4156L45.1528 54.4842L45.1485 54.4868Z" fill="url(#paint0_linear_1848_3287)"/>
<path d="M48.9859 56.1582C48.9859 55.6598 48.9903 55.1918 48.9851 54.7239C48.9807 54.3123 49.0537 54.3991 48.6378 54.3019C46.6678 53.8417 45.4332 52.6462 44.9843 50.664C44.9131 50.348 44.8801 50.0233 44.8297 49.7029C44.8046 49.5449 44.8645 49.4841 45.0303 49.4885C45.4132 49.4989 45.7978 49.5093 46.179 49.485C46.4203 49.4694 46.4959 49.5649 46.5106 49.7828C46.5445 50.2716 46.6877 50.7318 46.8961 51.172C47.3224 52.0723 48.0101 52.621 49.012 52.7617C49.9297 52.8902 50.8318 52.8615 51.6922 52.4925C52.8773 51.9846 53.4668 50.4982 52.9659 49.327C52.7974 48.9337 52.491 48.6593 52.1506 48.4205C51.5177 47.9769 50.7953 47.719 50.0816 47.4455C49.2412 47.1225 48.3799 46.8473 47.5985 46.3846C46.7077 45.8575 46.0522 45.1439 45.7709 44.122C45.5252 43.2303 45.6875 42.3898 46.0713 41.5772C46.4724 40.7289 47.2078 40.2775 48.0456 39.9623C48.2948 39.8685 48.5544 39.7999 48.814 39.7409C48.9503 39.7105 48.9859 39.6489 48.9851 39.5204C48.9799 39.0289 48.9885 38.5375 48.9799 38.0461C48.9773 37.8872 49.0241 37.8282 49.1882 37.8317C49.5998 37.8403 50.0122 37.8412 50.4237 37.8317C50.6008 37.8273 50.646 37.9011 50.6434 38.0635C50.6364 38.5332 50.6512 39.0038 50.6373 39.4726C50.6312 39.6845 50.7198 39.7557 50.9125 39.8051C51.8441 40.0439 52.675 40.4667 53.2489 41.2672C53.7195 41.9236 53.9105 42.6868 53.9583 43.4847C53.9609 43.5342 53.8654 43.634 53.8133 43.6358C53.3653 43.6479 52.9173 43.6392 52.4693 43.6436C52.3408 43.6444 52.3286 43.5741 52.3034 43.4708C52.2192 43.1218 52.148 42.7641 52.0152 42.4324C51.7434 41.7552 51.2425 41.3185 50.5088 41.2099C49.8837 41.117 49.2603 41.1231 48.6439 41.315C47.8025 41.5781 47.3051 42.5374 47.3129 43.3301C47.3198 43.9804 47.6185 44.4675 48.1629 44.7679C48.7663 45.1004 49.3957 45.3939 50.0348 45.6526C50.9829 46.0373 51.9657 46.3385 52.8409 46.8864C53.828 47.5054 54.5 48.3598 54.7319 49.5162C55.0349 51.0278 54.3767 52.924 52.6481 53.7106C52.0655 53.9763 51.4612 54.1586 50.8335 54.2663C50.6868 54.2915 50.6399 54.3531 50.6416 54.492C50.6451 54.9765 50.6382 55.461 50.6442 55.9446C50.646 56.1017 50.5974 56.1625 50.4333 56.1599C49.9584 56.1512 49.4834 56.1573 48.9833 56.1573L48.9859 56.1582Z" fill="url(#paint1_linear_1848_3287)"/>
<path d="M31.0532 25.3092C28.9799 25.3092 26.9057 25.3101 24.8324 25.3083C24.3696 25.3083 24.0197 25.0001 23.9859 24.5773C23.9442 24.0633 24.2854 23.6735 24.8003 23.6683C25.566 23.6604 26.3318 23.6648 27.0976 23.6648C30.4646 23.6648 33.8315 23.6665 37.1985 23.6613C37.5666 23.6613 37.874 23.756 38.0529 24.0954C38.3446 24.6485 37.9669 25.2953 37.3392 25.3049C36.4649 25.3179 35.5906 25.3101 34.7163 25.3101C33.4955 25.3101 32.2739 25.3101 31.0532 25.3101V25.3083V25.3092Z" fill="url(#paint2_linear_1848_3287)"/>
<path d="M31.0652 35.3164C28.9919 35.3164 26.9177 35.3181 24.8443 35.3155C24.3147 35.3155 23.9561 34.9353 23.9839 34.4187C24.003 34.0627 24.2861 33.7432 24.6394 33.6859C24.7384 33.6694 24.8409 33.6668 24.9416 33.6668C29.024 33.6659 33.1064 33.665 37.1879 33.665C37.7809 33.665 38.1508 33.9819 38.1499 34.4829C38.1499 34.9509 37.7939 35.3112 37.3069 35.3147C36.4473 35.3216 35.5869 35.3173 34.7274 35.3181C33.5066 35.3181 32.285 35.3181 31.0643 35.3181L31.0652 35.3164Z" fill="url(#paint3_linear_1848_3287)"/>
<path d="M29.3906 28.6527C30.8944 28.6527 32.3973 28.651 33.901 28.6527C34.4706 28.6536 34.8405 29.0217 34.8136 29.5479C34.7962 29.8987 34.5279 30.2121 34.1832 30.2807C34.0912 30.2989 33.9974 30.3111 33.9037 30.3111C30.89 30.3119 27.8756 30.3128 24.8619 30.3093C24.3306 30.3093 23.9798 29.9664 23.9824 29.475C23.9842 29.0026 24.348 28.6554 24.8585 28.6545C26.232 28.651 27.6047 28.6527 28.9782 28.6527C29.1154 28.6527 29.2526 28.6527 29.3906 28.6527Z" fill="url(#paint4_linear_1848_3287)"/>
<path d="M29.3976 38.6599C30.9083 38.6599 32.419 38.6573 33.9297 38.6608C34.4819 38.6617 34.8431 39.0341 34.8144 39.5568C34.7944 39.9223 34.5027 40.2592 34.1372 40.2896C33.7856 40.3191 33.4296 40.313 33.0762 40.313C30.3873 40.3139 27.6993 40.3148 25.0104 40.3096C24.8324 40.3096 24.6423 40.3017 24.4791 40.2392C24.1049 40.096 23.9156 39.6957 23.9989 39.2989C24.0745 38.9395 24.4105 38.6634 24.8012 38.6625C26.3336 38.6591 27.866 38.6608 29.3976 38.6608V38.6591V38.6599Z" fill="url(#paint5_linear_1848_3287)"/>
<path d="M43.5573 28.6554C43.9836 28.6554 44.4099 28.6467 44.8362 28.658C45.2339 28.6692 45.5646 28.9471 45.6341 29.3031C45.7096 29.6885 45.5369 30.0654 45.1878 30.2234C45.0602 30.2807 44.9091 30.3076 44.7685 30.3093C43.9593 30.3171 43.1501 30.3171 42.3409 30.3102C41.9181 30.3067 41.589 30.0532 41.5031 29.6894C41.418 29.33 41.5665 28.9514 41.8929 28.7821C42.0344 28.7083 42.2055 28.6762 42.367 28.6597C42.5675 28.6389 42.7707 28.6545 42.9739 28.6536C43.1692 28.6536 43.3637 28.6536 43.559 28.6536V28.6562L43.5573 28.6554Z" fill="url(#paint6_linear_1848_3287)"/>
<path d="M43.5768 38.6625C44.0031 38.6625 44.4294 38.6547 44.8557 38.6651C45.2342 38.6738 45.5633 38.9543 45.6319 39.305C45.71 39.7009 45.5303 40.076 45.1674 40.2349C45.058 40.2827 44.9304 40.307 44.8106 40.3078C43.9727 40.313 43.134 40.3209 42.2962 40.3061C41.8048 40.2974 41.4826 39.9484 41.4844 39.4769C41.487 39.0376 41.8317 38.6747 42.2762 38.6651C42.7094 38.6556 43.1436 38.6634 43.5768 38.6634V38.6625Z" fill="url(#paint7_linear_1848_3287)"/>
<path d="M43.5613 35.3164C43.1567 35.3164 42.7521 35.319 42.3475 35.3156C41.8422 35.3112 41.4862 34.9657 41.4854 34.4838C41.4845 34.0149 41.8335 33.6703 42.3345 33.6668C43.1515 33.6607 43.9676 33.659 44.7846 33.6668C45.3038 33.6711 45.6511 34.0132 45.6468 34.4933C45.6424 34.9743 45.2891 35.3112 44.7759 35.3164C44.3713 35.3208 43.9667 35.3164 43.5622 35.3164H43.5613Z" fill="url(#paint8_linear_1848_3287)"/>
<path d="M43.5674 25.3092C43.148 25.3092 42.7287 25.3136 42.3102 25.3083C41.8344 25.3023 41.488 24.9532 41.4854 24.4879C41.4828 24.0294 41.8162 23.6743 42.285 23.6691C43.1376 23.6596 43.9902 23.6605 44.8437 23.6691C45.2561 23.6735 45.5817 23.9591 45.6381 24.3325C45.7032 24.7614 45.4879 25.1373 45.0798 25.2675C44.9461 25.3101 44.795 25.3066 44.6518 25.3092C44.2906 25.3144 43.9294 25.3109 43.5674 25.3109V25.3092Z" fill="url(#paint9_linear_1848_3287)"/>
<path d="M43.1333 44.4779C43.1359 44.9424 42.7799 45.3114 42.3232 45.3192C41.8813 45.327 41.4967 44.9433 41.4932 44.4927C41.4897 44.0403 41.8691 43.6609 42.3189 43.6661C42.7721 43.6713 43.1315 44.0299 43.1341 44.4779H43.1333Z" fill="url(#paint10_linear_1848_3287)"/>
<path d="M33.1326 44.484C33.1326 44.9459 32.7697 45.3166 32.3147 45.3192C31.8728 45.3218 31.4882 44.9346 31.4873 44.4857C31.4864 44.0473 31.858 43.6731 32.3017 43.6661C32.7601 43.6592 33.1335 44.0264 33.1335 44.484H33.1326Z" fill="url(#paint11_linear_1848_3287)"/>
<path d="M26.4971 44.4744C26.5006 44.0264 26.8696 43.6618 27.315 43.667C27.7751 43.6722 28.1415 44.0421 28.1363 44.497C28.1311 44.9476 27.7482 45.3253 27.3019 45.3201C26.8487 45.3149 26.4936 44.9424 26.4971 44.4744Z" fill="url(#paint12_linear_1848_3287)"/>
<path d="M33.997 44.4779C33.997 44.0325 34.366 43.6652 34.8105 43.6652C35.2706 43.6652 35.6362 44.0325 35.6327 44.4909C35.6292 44.9493 35.2594 45.3209 34.8079 45.3192C34.359 45.3175 33.9961 44.9398 33.9961 44.4779H33.997Z" fill="url(#paint13_linear_1848_3287)"/>
<path d="M30.645 44.4883C30.6432 44.9346 30.2569 45.3201 29.8115 45.3201C29.3661 45.3201 28.9884 44.9364 28.9893 44.4823C28.9893 44.0395 29.3626 43.6679 29.8063 43.6661C30.2612 43.6653 30.6458 44.0421 30.6441 44.4883H30.645Z" fill="url(#paint14_linear_1848_3287)"/>
<path d="M39.8 45.3192C39.358 45.3123 38.9751 44.9138 38.9856 44.4701C38.9951 44.0317 39.3789 43.6609 39.8191 43.6661C40.2792 43.6713 40.6508 44.0482 40.6395 44.4996C40.6282 44.9563 40.2497 45.3262 39.8008 45.3192H39.8Z" fill="url(#paint15_linear_1848_3287)"/>
<path d="M38.1425 44.4883C38.1407 44.9355 37.7578 45.3184 37.3124 45.3192C36.861 45.3192 36.4972 44.9459 36.498 44.4823C36.498 44.0325 36.8627 43.6661 37.309 43.667C37.7665 43.6679 38.1442 44.0395 38.1425 44.4883Z" fill="url(#paint16_linear_1848_3287)"/>
<path d="M25.628 44.5126C25.6168 44.9711 25.2373 45.3349 24.7859 45.3192C24.3396 45.3045 23.981 44.9164 23.9914 44.4588C24.001 44.0186 24.3839 43.6583 24.8293 43.6705C25.2964 43.6835 25.6393 44.0455 25.6289 44.5135L25.628 44.5126Z" fill="url(#paint17_linear_1848_3287)"/>
<defs>
<linearGradient id="paint0_linear_1848_3287" x1="18.9854" y1="33.8494" x2="50.6524" y2="33.8494" gradientUnits="userSpaceOnUse">
<stop stop-color="#BE6552"/>
<stop offset="0.490144" stop-color="#ECA9A0"/>
<stop offset="1" stop-color="#BE6552"/>
</linearGradient>
<linearGradient id="paint1_linear_1848_3287" x1="44.8242" y1="46.2908" x2="54.8031" y2="46.2908" gradientUnits="userSpaceOnUse">
<stop stop-color="#BE6552"/>
<stop offset="0.490144" stop-color="#ECA9A0"/>
<stop offset="1" stop-color="#BE6552"/>
</linearGradient>
<linearGradient id="paint2_linear_1848_3287" x1="23.9824" y1="24.4234" x2="38.1531" y2="24.4234" gradientUnits="userSpaceOnUse">
<stop stop-color="#BE6552"/>
<stop offset="0.490144" stop-color="#ECA9A0"/>
<stop offset="1" stop-color="#BE6552"/>
</linearGradient>
<linearGradient id="paint3_linear_1848_3287" x1="23.9824" y1="34.4283" x2="38.1499" y2="34.4283" gradientUnits="userSpaceOnUse">
<stop stop-color="#BE6552"/>
<stop offset="0.490144" stop-color="#ECA9A0"/>
<stop offset="1" stop-color="#BE6552"/>
</linearGradient>
<linearGradient id="paint4_linear_1848_3287" x1="23.9824" y1="29.4181" x2="34.8149" y2="29.4181" gradientUnits="userSpaceOnUse">
<stop stop-color="#BE6552"/>
<stop offset="0.490144" stop-color="#ECA9A0"/>
<stop offset="1" stop-color="#BE6552"/>
</linearGradient>
<linearGradient id="paint5_linear_1848_3287" x1="23.9795" y1="39.4227" x2="34.816" y2="39.4227" gradientUnits="userSpaceOnUse">
<stop stop-color="#BE6552"/>
<stop offset="0.490144" stop-color="#ECA9A0"/>
<stop offset="1" stop-color="#BE6552"/>
</linearGradient>
<linearGradient id="paint6_linear_1848_3287" x1="41.4795" y1="29.418" x2="45.6516" y2="29.418" gradientUnits="userSpaceOnUse">
<stop stop-color="#BE6552"/>
<stop offset="0.490144" stop-color="#ECA9A0"/>
<stop offset="1" stop-color="#BE6552"/>
</linearGradient>
<linearGradient id="paint7_linear_1848_3287" x1="41.4844" y1="39.4235" x2="45.6499" y2="39.4235" gradientUnits="userSpaceOnUse">
<stop stop-color="#BE6552"/>
<stop offset="0.490144" stop-color="#ECA9A0"/>
<stop offset="1" stop-color="#BE6552"/>
</linearGradient>
<linearGradient id="paint8_linear_1848_3287" x1="41.4854" y1="34.4262" x2="45.6468" y2="34.4262" gradientUnits="userSpaceOnUse">
<stop stop-color="#BE6552"/>
<stop offset="0.490144" stop-color="#ECA9A0"/>
<stop offset="1" stop-color="#BE6552"/>
</linearGradient>
<linearGradient id="paint9_linear_1848_3287" x1="41.4854" y1="24.4237" x2="45.6496" y2="24.4237" gradientUnits="userSpaceOnUse">
<stop stop-color="#BE6552"/>
<stop offset="0.490144" stop-color="#ECA9A0"/>
<stop offset="1" stop-color="#BE6552"/>
</linearGradient>
<linearGradient id="paint10_linear_1848_3287" x1="41.4932" y1="44.4291" x2="43.1341" y2="44.4291" gradientUnits="userSpaceOnUse">
<stop stop-color="#BE6552"/>
<stop offset="0.490144" stop-color="#ECA9A0"/>
<stop offset="1" stop-color="#BE6552"/>
</linearGradient>
<linearGradient id="paint11_linear_1848_3287" x1="31.4873" y1="44.429" x2="33.1335" y2="44.429" gradientUnits="userSpaceOnUse">
<stop stop-color="#BE6552"/>
<stop offset="0.490144" stop-color="#ECA9A0"/>
<stop offset="1" stop-color="#BE6552"/>
</linearGradient>
<linearGradient id="paint12_linear_1848_3287" x1="26.4971" y1="44.4299" x2="28.1364" y2="44.4299" gradientUnits="userSpaceOnUse">
<stop stop-color="#BE6552"/>
<stop offset="0.490144" stop-color="#ECA9A0"/>
<stop offset="1" stop-color="#BE6552"/>
</linearGradient>
<linearGradient id="paint13_linear_1848_3287" x1="33.9961" y1="44.4286" x2="35.6327" y2="44.4286" gradientUnits="userSpaceOnUse">
<stop stop-color="#BE6552"/>
<stop offset="0.490144" stop-color="#ECA9A0"/>
<stop offset="1" stop-color="#BE6552"/>
</linearGradient>
<linearGradient id="paint14_linear_1848_3287" x1="28.9893" y1="44.4295" x2="30.645" y2="44.4295" gradientUnits="userSpaceOnUse">
<stop stop-color="#BE6552"/>
<stop offset="0.490144" stop-color="#ECA9A0"/>
<stop offset="1" stop-color="#BE6552"/>
</linearGradient>
<linearGradient id="paint15_linear_1848_3287" x1="38.9854" y1="44.4291" x2="40.6398" y2="44.4291" gradientUnits="userSpaceOnUse">
<stop stop-color="#BE6552"/>
<stop offset="0.490144" stop-color="#ECA9A0"/>
<stop offset="1" stop-color="#BE6552"/>
</linearGradient>
<linearGradient id="paint16_linear_1848_3287" x1="36.498" y1="44.4296" x2="38.1425" y2="44.4296" gradientUnits="userSpaceOnUse">
<stop stop-color="#BE6552"/>
<stop offset="0.490144" stop-color="#ECA9A0"/>
<stop offset="1" stop-color="#BE6552"/>
</linearGradient>
<linearGradient id="paint17_linear_1848_3287" x1="23.9912" y1="44.4315" x2="25.6291" y2="44.4315" gradientUnits="userSpaceOnUse">
<stop stop-color="#BE6552"/>
<stop offset="0.490144" stop-color="#ECA9A0"/>
<stop offset="1" stop-color="#BE6552"/>
</linearGradient>
</defs>
</svg>
