<svg width="73" height="72" viewBox="0 0 73 72" fill="none" xmlns="http://www.w3.org/2000/svg">
<path d="M25.7741 59.4874C22.0097 59.4874 18.2452 59.5117 14.4808 59.4631C13.9829 59.4631 13.4972 59.0624 12.9993 58.8438C13.2179 58.4309 13.3514 57.9209 13.6793 57.6052C15.3308 55.9658 17.0066 54.3507 18.7188 52.7721C19.3381 52.2014 19.3867 51.8006 18.8038 51.157C15.8044 47.769 13.8979 43.7981 13.2543 39.3294C12.0278 30.829 14.5658 23.5551 20.8682 17.6778C24.3655 14.4233 28.5671 12.4561 33.2787 11.7639C46.1992 9.88171 57.7112 18.3335 60.3098 30.3554C63.1878 43.7131 54.5296 56.2208 42.0219 58.8438C40.0668 59.2567 38.0268 59.3902 36.0231 59.451C32.6108 59.5481 29.1985 59.4752 25.7862 59.4752L25.7741 59.4874ZM15.9987 57.7145C16.6423 57.763 16.9094 57.8116 17.1766 57.8116C24.0012 57.8116 30.8379 57.9087 37.6625 57.7509C39.8726 57.7023 42.1434 57.2287 44.2442 56.5244C54.1289 53.2214 60.9049 42.7174 58.8648 31.4726C57.1404 21.9765 49.0165 13.7676 38.1968 13.1847C30.7165 12.784 24.4626 15.577 19.6538 21.3451C15.7437 26.0324 14.1165 31.5333 14.6751 37.5807C15.1486 42.6202 17.1523 47.0526 20.6617 50.7684C21.7304 51.8978 21.7061 52.1164 20.5646 53.2214C19.3988 54.3507 18.2088 55.4679 17.0309 56.5973C16.7394 56.8766 16.4723 57.1801 15.9865 57.7023L15.9987 57.7145Z" fill="url(#paint0_linear_625_1363)"/>
<path d="M36.849 49.809C28.8586 49.7847 22.3376 43.3123 22.4834 35.3584C22.6412 27.4895 28.5793 21.0657 36.934 21.0657C45.7379 21.0657 51.3117 28.3881 51.2753 35.5527C51.2389 43.0452 44.9607 49.9669 36.849 49.7969V49.809ZM24.1591 35.3948C24.1591 42.4137 29.8544 48.2182 36.8004 48.2425C43.8071 48.279 49.6966 42.438 49.6845 35.4799C49.6845 28.5338 43.88 22.705 36.934 22.6929C29.9515 22.6686 24.1591 28.4246 24.1591 35.3948Z" fill="url(#paint1_linear_625_1363)"/>
<path d="M36.9459 37.071C38.1481 37.071 39.3381 37.0953 40.5403 37.071C41.3175 37.0589 41.6332 37.3989 41.6697 38.1761C41.8154 41.0298 39.921 43.337 37.2859 43.4342C34.3108 43.5434 32.0764 41.4426 32.0157 38.5039C31.9914 37.4718 32.3921 37.0103 33.4607 37.0589C34.6143 37.1075 35.7801 37.071 36.9337 37.071H36.9459ZM33.8493 38.759C34.0558 40.9448 35.5373 42.0498 37.5652 41.7219C39.0103 41.4912 40.0546 40.1312 39.7874 38.759H33.8493Z" fill="url(#paint2_linear_625_1363)"/>
<path d="M41.7184 29.8576C43.297 29.8819 44.8514 31.2177 44.8514 32.6992C44.8514 33.0756 44.4142 33.4642 44.1713 33.8406C43.8556 33.5613 43.3335 33.3306 43.2606 33.0028C43.0542 32.1284 42.6534 31.5698 41.7427 31.5334C40.7469 31.497 40.3705 32.1649 40.079 33.0028C39.9576 33.3428 39.484 33.5613 39.1804 33.8285C38.9618 33.4642 38.5854 33.112 38.5733 32.7477C38.5125 31.2055 40.0669 29.8212 41.7305 29.8333L41.7184 29.8576Z" fill="url(#paint3_linear_625_1363)"/>
<path d="M32.0886 29.8574C33.6793 29.8452 35.1608 31.0717 35.2822 32.6503C35.3065 33.0268 34.8815 33.4397 34.6629 33.8404C34.3229 33.5489 33.8008 33.3182 33.6915 32.9539C33.4729 32.1403 33.0964 31.606 32.2464 31.5331C31.3235 31.4603 30.8985 32.0432 30.5342 32.8082C30.3521 33.2089 29.8785 33.4882 29.5384 33.8282C29.3563 33.3304 28.992 32.8203 29.0284 32.3589C29.1499 30.9867 30.6071 29.8574 32.0886 29.8452V29.8574Z" fill="url(#paint4_linear_625_1363)"/>
<defs>
<linearGradient id="paint0_linear_625_1363" x1="12.9546" y1="33.6553" x2="60.8643" y2="33.6553" gradientUnits="userSpaceOnUse">
<stop stop-color="#BE6552"/>
<stop offset="0.490144" stop-color="#ECA9A0"/>
<stop offset="1" stop-color="#BE6552"/>
</linearGradient>
<linearGradient id="paint1_linear_625_1363" x1="22.481" y1="34.3318" x2="51.2755" y2="34.3318" gradientUnits="userSpaceOnUse">
<stop stop-color="#BE6552"/>
<stop offset="0.490144" stop-color="#ECA9A0"/>
<stop offset="1" stop-color="#BE6552"/>
</linearGradient>
<linearGradient id="paint2_linear_625_1363" x1="32.0146" y1="40.0013" x2="41.6775" y2="40.0013" gradientUnits="userSpaceOnUse">
<stop stop-color="#BE6552"/>
<stop offset="0.490144" stop-color="#ECA9A0"/>
<stop offset="1" stop-color="#BE6552"/>
</linearGradient>
<linearGradient id="paint3_linear_625_1363" x1="38.5715" y1="31.6828" x2="44.8514" y2="31.6828" gradientUnits="userSpaceOnUse">
<stop stop-color="#BE6552"/>
<stop offset="0.490144" stop-color="#ECA9A0"/>
<stop offset="1" stop-color="#BE6552"/>
</linearGradient>
<linearGradient id="paint4_linear_625_1363" x1="29.0259" y1="31.6891" x2="35.2832" y2="31.6891" gradientUnits="userSpaceOnUse">
<stop stop-color="#BE6552"/>
<stop offset="0.490144" stop-color="#ECA9A0"/>
<stop offset="1" stop-color="#BE6552"/>
</linearGradient>
</defs>
</svg>
