<svg width="73" height="73" viewBox="0 0 73 73" fill="none" xmlns="http://www.w3.org/2000/svg">
<path d="M61.2249 60.7699C56.9126 59.5257 52.6568 58.2674 48.3869 57.0797C47.7648 56.91 46.9448 56.9807 46.351 57.2352C44.725 57.9422 43.1415 58.7622 41.5721 59.6105C40.8227 60.0205 40.2006 60.0347 39.4371 59.6105C37.8819 58.7481 36.2983 57.9422 34.6582 57.2352C34.0644 56.9807 33.2444 56.8818 32.6223 57.0514C28.6917 58.1401 24.7894 59.3136 20.873 60.4589C20.4912 60.572 20.0954 60.6144 19.6429 60.6992C19.5157 60.3175 19.4167 59.9781 19.247 59.4833C21.1841 58.9177 23.0645 58.3522 24.945 57.8008C27.2354 57.1362 29.5117 56.4434 31.8164 55.8213C32.7354 55.5668 33.1454 55.1285 33.1171 54.1247C33.0606 51.1414 33.2585 51.5939 30.5863 51.5656C27.6313 51.5515 24.6763 51.5373 21.7072 51.5656C20.7457 51.5656 20.4205 51.198 20.4205 50.279C20.4488 48.045 20.3923 45.8253 20.4347 43.5913C20.4488 42.6016 20.0953 42.2623 19.0915 42.2764C15.8255 42.3189 16.1506 42.6441 16.1365 39.2649C16.1365 35.2495 16.0517 31.2341 16.1648 27.2328C16.2213 25.3524 16.6738 23.4861 16.8859 21.6056C16.9283 21.1673 16.8576 20.5452 16.5748 20.2483C14.4116 18.0003 13.1674 15.3705 12.8139 12.2741C12.6584 10.8885 12.8422 10.6057 14.2561 10.6057C21.2689 10.6057 28.2817 10.7047 35.2804 10.5774C41.7842 10.4502 47.9204 15.7805 47.8921 23.2174C47.8638 33.2701 47.8921 43.3227 47.8921 53.3612C47.8921 55.4962 47.8921 55.4679 49.9422 56.0617C53.5193 57.0797 57.0681 58.1684 60.6593 59.144C61.6632 59.4126 61.8753 59.8085 61.2108 60.7558L61.2249 60.7699ZM39.0554 41.4423L38.5888 41.6261C38.5888 42.3754 38.5888 43.1248 38.5888 43.8741C38.5888 45.1089 37.9903 45.7263 36.7932 45.7263C34.8138 45.7263 32.8202 45.7546 30.8408 45.7263C29.95 45.7122 29.2714 45.8535 28.6493 46.6312C27.8151 47.6633 26.5992 47.635 25.4115 47.2533C24.4077 46.9422 23.8987 46.2212 23.828 45.1749C23.7714 44.1428 24.1532 43.252 25.1288 42.9127C26.274 42.5168 27.6454 42.2764 28.5362 43.3227C29.2855 44.1993 30.0914 44.2841 31.0812 44.2559C32.0991 44.2276 33.103 44.2559 34.121 44.2559C37.3587 44.2559 37.3305 44.2559 37.3163 40.9757C37.3163 40.1415 37.076 39.7598 36.2418 39.5477C33.9654 38.9397 32.3961 37.4693 31.7033 35.2212C30.558 31.531 32.4809 27.9963 36.2983 26.8935C37.7829 26.4694 37.2174 25.4089 37.2598 24.5606C37.3022 23.5426 36.4539 23.8678 35.9307 23.8537C32.7354 23.7971 29.5259 23.7406 26.3305 23.7689C23.8138 23.783 21.3961 23.4861 19.2046 22.1712C18.5543 21.7894 18.2149 21.9732 18.1159 22.666C17.9604 23.6557 17.6918 24.6596 17.6918 25.6493C17.6352 29.7354 17.6635 33.8356 17.6635 37.9217C17.6635 40.8202 17.6635 40.8484 20.5054 40.9474C21.4951 40.9757 21.8485 41.3574 21.8203 42.3471C21.7637 44.4962 21.8627 46.6453 21.7778 48.7944C21.7213 50.0103 22.1879 50.3072 23.319 50.2931C26.5568 50.2365 29.8086 50.2931 33.0464 50.2507C34.0785 50.2365 34.5451 50.5193 34.4603 51.6221C34.3896 52.5836 34.4744 53.5733 34.432 54.5347C34.4037 55.2275 34.63 55.6517 35.2804 55.9627C36.8215 56.6838 38.306 57.518 39.8613 58.2108C40.2572 58.3946 40.8934 58.3239 41.3034 58.1401C42.7739 57.4756 44.2019 56.6838 45.6582 56.0052C46.351 55.68 46.5631 55.2275 46.5489 54.4923C46.5065 51.9332 46.4924 49.3882 46.5489 46.8291C46.5631 45.9525 46.2379 45.6132 45.4037 45.5001C43.3677 45.2032 41.6569 44.27 40.2289 42.7996C39.8189 42.3754 39.4513 41.8947 39.0554 41.4423ZM25.6943 11.9489C22.2445 11.9489 18.8087 11.9489 15.3589 11.9489C14.652 11.9489 14.1854 12.0337 14.2843 12.9527C14.8216 17.7033 19.6005 22.2419 24.3228 22.3267C28.2958 22.3974 32.2688 22.3267 36.2276 22.355C37.0194 22.355 37.288 22.1005 37.288 21.3087C37.2598 18.8344 37.288 16.3602 37.288 13.9C37.288 12.0196 37.2456 11.963 35.2945 11.963C32.0991 11.963 28.8897 11.963 25.6943 11.963V11.9489ZM46.5348 44.0721C46.5348 43.662 46.5348 43.2237 46.5348 42.7996C46.5348 36.1968 46.6055 29.594 46.5065 22.9912C46.4358 18.3679 44.1736 15.017 40.0168 12.9951C38.8292 12.4155 38.603 12.5568 38.603 13.8859C38.603 17.6892 38.6171 21.5067 38.5747 25.31C38.5747 26.229 38.8574 26.6673 39.7623 26.9218C42.5759 27.7277 44.4281 29.9899 44.5554 32.959C44.6402 35.1647 43.6646 37.8369 40.7096 39.1942C40.3986 39.3356 40.1016 39.5194 39.8047 39.6749C40.752 42.2057 44.0322 44.3831 46.5348 44.0721ZM43.1273 33.1852C43.1273 30.2868 40.7662 27.9681 37.8819 27.9963C35.0824 28.0246 32.7354 30.4141 32.7495 33.2277C32.7495 36.0978 35.1389 38.4307 38.0374 38.4024C40.8934 38.3742 43.1415 36.0837 43.1273 33.1994V33.1852ZM26.6275 46.4615C27.2213 45.7829 27.5889 45.3587 27.9706 44.9487C27.5182 44.6518 27.1082 44.1993 26.6133 44.0721C25.9488 43.9024 25.1712 44.171 25.2843 45.0052C25.3408 45.4435 26.0053 45.8111 26.6416 46.4756L26.6275 46.4615Z" fill="url(#paint0_linear_468_1620)"/>
<defs>
<linearGradient id="paint0_linear_468_1620" x1="12.7681" y1="33.7419" x2="61.5933" y2="33.7419" gradientUnits="userSpaceOnUse">
<stop stop-color="#BE6552"/>
<stop offset="0.490144" stop-color="#ECA9A0"/>
<stop offset="1" stop-color="#BE6552"/>
</linearGradient>
</defs>
</svg>
