<svg width="195" height="166" viewBox="0 0 195 166" fill="none" xmlns="http://www.w3.org/2000/svg">
<g clip-path="url(#clip0_2055_3692)">
<path d="M161.642 83.4038C161.604 118.654 132.786 147.307 97.4088 147.269C62.0727 147.233 33.4244 118.415 33.4879 82.9721C33.5514 47.8518 62.4764 19.168 97.749 19.2467C132.89 19.3229 161.68 48.2352 161.639 83.4038H161.642ZM158.308 83.3606C158.359 50.0811 131.145 22.6034 98.0512 22.5171C64.274 22.4307 36.8725 49.5428 36.7963 83.127C36.7201 116.523 63.9516 143.95 97.2438 144.014C130.917 144.077 158.255 116.922 158.306 83.3606H158.308Z" fill="white"/>
<path d="M96.53 120.271C84.5278 120.175 72.9649 118.151 62.0698 112.943C57.2354 110.633 52.8581 107.649 48.7499 104.201C45.0454 101.093 43.3544 97.0538 42.6155 92.4658C41.803 87.4232 43.1386 83.0636 46.5841 79.2449C57.695 66.9279 68.6739 54.4915 79.8458 42.2329C84.6599 36.9492 90.6216 33.595 98.0229 33.7956C104.515 33.9708 110.071 36.3677 114.514 41.2656C125.747 53.6435 137.086 65.9224 148.286 78.3308C152.61 83.122 155.317 90.7722 150.036 98.4935C145.45 105.199 139.186 109.795 131.95 113.197C124.216 116.833 116.01 118.748 107.539 119.558C103.881 119.908 100.201 120.04 96.53 120.274V120.271ZM96.5477 116.305C102.446 116.32 108.296 115.805 114.088 114.718C122.004 113.233 129.553 110.724 136.358 106.309C140.951 103.328 144.968 99.7503 147.596 94.8245C149.353 91.5314 149.48 88.162 147.867 84.8333C147.065 83.1779 146.08 81.5376 144.864 80.164C133.923 67.8064 122.987 55.4437 111.884 43.2308C107.392 38.2898 101.476 36.5886 94.9151 37.4443C89.7227 38.1197 85.6095 40.9228 82.2147 44.7593C71.444 56.929 60.7038 69.1216 50.0321 81.3777C48.8159 82.7742 47.7317 84.5134 47.2518 86.2755C45.7309 91.8691 47.4499 96.7238 51.4845 100.733C54.963 104.189 59.0433 106.844 63.4155 109.036C73.8409 114.261 84.9722 116.305 96.5452 116.302L96.5477 116.305Z" fill="white"/>
<path d="M80.1557 74.3672C79.6072 75.3397 78.8938 76.1344 80.1125 77.0485C80.3766 77.2465 80.4045 77.7594 80.6483 78.4196C78.9877 78.4196 77.5709 78.4196 76.1567 78.4196C74.7424 78.4196 73.3764 78.4196 71.9469 78.4196C71.6016 77.3811 71.8504 76.8428 72.9549 76.7844C74.9887 76.6778 76.2938 75.5936 77.4008 73.8873C78.4444 72.275 78.876 70.8049 78.5383 68.8498C77.543 63.1065 79.1451 57.876 82.253 53.067C84.9063 48.9664 88.9383 47.1155 93.5924 46.4198C97.7489 45.7977 101.857 46.0161 105.861 47.3998C106.882 47.7528 107.786 47.5623 108.537 46.7854C109.388 45.9043 109.949 46.1938 110.462 47.1612C111.173 48.5043 111.975 49.8018 112.679 51.1475C112.854 51.4801 112.978 52.158 112.818 52.2799C112.524 52.5084 111.937 52.61 111.587 52.4729C110.371 51.9955 109.223 51.3532 108.017 50.8454C104.64 49.426 101.139 48.5856 97.4518 48.4688C90.7182 48.2555 84.9139 53.2448 83.7865 60.3288C83.6418 61.2403 83.5682 62.162 83.7129 63.1954C85.0612 61.286 86.4348 59.3944 87.7297 57.4495C87.9125 57.1752 87.717 56.6471 87.6865 56.2383C87.651 55.7864 87.6002 55.337 87.5317 54.6133C90.5176 54.6133 93.3791 54.6209 96.2432 54.6133C98.993 54.6032 101.743 54.5651 104.495 54.5498C107.339 54.5346 109.022 55.6264 109.563 57.8176C110.239 60.5598 109.225 63.0049 106.785 64.3405C108.87 65.1809 110.475 66.458 111.168 68.6264C112.684 73.3618 109.119 78.1961 104.14 78.153C100.628 78.125 97.1166 78.1174 93.6051 78.0311C93.0592 78.0184 92.5235 77.635 91.9852 77.4243C92.394 77.0739 92.7926 76.7108 93.2141 76.3756C93.5035 76.1446 94.0088 75.9998 94.085 75.7256C94.1739 75.4032 93.9758 74.7075 93.7676 74.6465C89.3192 73.3795 87.7729 70.1905 87.844 65.8893C87.844 65.8131 87.7856 65.737 87.7551 65.6582C85.0104 65.0438 83.426 66.7373 83.9313 69.5329C84.7438 74.0143 87.2016 77.3379 90.8401 79.9024C93.7143 81.926 96.9871 82.1342 100.326 81.8905C104.046 81.6188 107.555 80.5575 110.792 78.709C111.77 78.1504 112.572 77.2922 113.527 76.6828C113.94 76.4188 114.535 76.4366 115.045 76.3274C114.997 76.82 115.136 77.4903 114.867 77.7746C113.57 79.1457 112.343 80.725 110.759 81.667C104.272 85.5112 97.4213 87.0524 90.2358 83.6704C86.1352 81.7407 82.8903 78.7268 80.5035 74.8344C80.4223 74.7024 80.3207 74.583 80.1531 74.3571L80.1557 74.3672ZM98.2287 72.2217C100.433 72.567 102.037 71.8155 103.49 70.4901C103.838 70.1727 104.442 70.1397 104.927 69.9746C104.858 70.5129 104.848 71.0715 104.696 71.5844C104.607 71.8789 104.295 72.1176 104.058 72.3588C102.761 73.6868 101.118 74.2758 99.3383 74.6135C99.0387 74.6694 98.7848 74.9715 98.508 75.1594C98.7696 75.4235 99.0032 75.8805 99.2951 75.9161C100.496 76.0709 101.722 76.236 102.921 76.142C105.082 75.9719 106.811 74.319 107.321 72.176C107.887 69.8045 107.072 67.6717 105.176 66.3946C102.964 64.9016 100.549 65.7166 98.2313 65.544V72.2217H98.2287ZM98.0104 58.0741C99.0615 58.0741 99.9934 58.1655 100.902 58.0538C102.433 57.8633 103.132 58.1375 103.705 59.5442C103.853 59.9073 103.688 60.3973 103.665 60.8289C103.284 60.7223 102.885 60.6563 102.527 60.5014C101.54 60.0723 100.608 59.4325 99.5795 59.1963C98.2389 58.8916 97.9748 59.2344 97.9723 60.6106C97.9723 61.3545 97.9723 62.101 97.9723 62.9313C99.8182 62.9313 101.499 62.9821 103.18 62.9161C104.513 62.8653 105.521 61.5069 105.605 59.8235C105.689 58.1452 104.896 56.7461 103.548 56.642C101.717 56.5024 99.8715 56.6065 98.0129 56.6065V58.0741H98.0104ZM87.2194 62.9034C87.3209 63.0202 87.4225 63.137 87.5266 63.2537C87.8948 63.0125 88.3391 62.8373 88.6158 62.5149C89.0779 61.9791 89.3115 61.1844 89.8549 60.7909C91.066 59.9123 92.4117 59.2268 93.6889 58.4371C93.9428 58.2797 94.2627 58.0207 94.2983 57.7745C94.3389 57.5053 94.0545 56.9289 93.9606 56.9391C92.752 57.0711 91.0787 56.8579 90.4516 57.5612C89.0906 59.0871 88.2655 61.093 87.2219 62.9034H87.2194ZM94.1307 62.8983V60.0444C92.5463 60.4303 91.9877 61.5957 91.3453 62.8983H94.1307Z" fill="white"/>
<path d="M78.1424 106.377C76.7205 106.004 75.2377 105.775 73.887 105.227C68.8825 103.196 67.26 97.7927 70.2688 93.1157C74.669 86.273 83.3399 88.1747 86.6026 92.6536C87.8848 94.4157 88.0575 96.4825 87.575 98.6077C86.562 103.084 82.5401 106.347 78.1399 106.377H78.1424ZM83.543 94.9565C83.5303 92.9812 83.4871 91.5847 82.1694 90.6427C80.4428 89.4087 78.3278 89.6194 76.7358 91.4933C74.2932 94.3649 73.1379 97.7647 73.303 101.55C73.3664 102.983 74.1307 103.998 75.5018 104.524C76.944 105.075 78.2922 104.882 79.3764 103.808C81.9815 101.225 83.1139 97.9603 83.5455 94.9591L83.543 94.9565Z" fill="white"/>
<path d="M131.061 99.0366C130.048 97.2415 129.139 95.6292 128.215 93.9915C128.682 93.339 129.122 93.3745 129.825 93.6919C131.193 94.3063 132.613 94.9538 134.075 95.1823C136.145 95.5073 137.861 94.5196 139.181 92.9302C139.882 92.0872 140.085 91.0741 139.562 90.0839C139.054 89.1216 138.064 88.9692 137.122 89.1597C135.264 89.5355 133.433 90.056 131.582 90.4749C129.878 90.8608 128.225 90.8659 126.788 89.6269C124.808 87.9206 125.026 85.4806 126.976 83.0837C128.654 81.0194 130.96 79.854 133.529 79.2243C134.36 79.0212 135.307 79.0872 135.596 77.9396C135.662 77.6806 136.173 77.5333 136.581 77.2642C137.475 78.8562 138.318 80.3542 139.159 81.8472C138.453 82.8603 137.79 82.3753 137.099 81.9157C134.537 80.2095 132.443 80.1028 130.325 81.7456C129.708 82.2229 129.175 83.0227 128.972 83.7743C128.596 85.153 129.419 86.1585 130.851 86.0899C132.102 86.029 133.344 85.7116 134.581 85.4526C135.776 85.2013 136.944 84.8077 138.148 84.6046C139.951 84.2999 141.527 84.7722 142.589 86.3642C143.615 87.9028 143.465 89.5278 142.612 91.0538C141.101 93.7604 138.752 95.4921 135.843 96.4696C134.964 96.7642 133.971 96.7972 133.166 97.2136C132.417 97.5995 131.846 98.3333 131.064 99.0341L131.061 99.0366Z" fill="white"/>
<path d="M64.5278 101.433C59.3862 97.7264 54.3894 94.126 49.395 90.523L49.4788 90.0762C49.8495 90.0965 50.2786 90.0025 50.5858 90.1549C52.3403 91.0232 52.6856 90.9471 53.7698 89.2789C55.7021 86.3006 57.6343 83.3223 59.564 80.3414C60.544 78.8281 60.4958 78.5768 59.2313 77.2031C58.9673 76.9162 58.8886 76.4617 58.7261 76.0859C58.8556 76.0098 58.9851 75.9336 59.1171 75.8574C62.0878 78.0029 65.0585 80.1484 68.0267 82.2965C68.0114 82.4438 67.9987 82.5885 67.9835 82.7357C67.6128 82.7357 67.1913 82.8551 66.8841 82.7154C64.8198 81.7861 64.8274 81.7709 63.596 83.6244C61.7958 86.3361 59.9905 89.0428 58.1929 91.757C56.6872 94.0295 56.8675 94.2809 58.9597 96.0887C61.3489 98.1504 63.7077 98.3383 66.3585 96.7742C66.7368 96.5508 67.2776 96.6041 67.7448 96.5279C67.8134 96.6625 67.8794 96.7945 67.948 96.9291C66.8384 98.3916 65.7263 99.8541 64.5278 101.436V101.433Z" fill="white"/>
<path d="M104.909 90.3708C107.78 89.5736 110.655 88.7788 113.526 87.9816C113.628 88.0755 113.727 88.172 113.829 88.2659C113.603 88.5478 113.432 88.9439 113.138 89.0911C112.097 89.6142 111.815 90.3023 112.143 91.4626C112.846 93.9382 113.364 96.4671 114.034 98.9529C114.948 102.337 117.152 103.381 120.402 102.048C122.21 101.307 123.36 99.6232 122.964 97.7163C122.372 94.8701 121.552 92.072 120.775 89.2663C120.453 88.1034 119.541 87.781 118.401 87.8165C118.028 87.8292 117.647 87.5677 117.269 87.4306C117.576 87.2097 117.855 86.8923 118.198 86.7831C120.006 86.2042 121.829 85.666 123.657 85.1531C123.919 85.0794 124.241 85.2318 124.536 85.28C124.371 85.5212 124.259 85.8437 124.033 85.996C122.192 87.2173 122.032 87.5372 122.588 89.7437C123.096 91.7495 123.678 93.7351 124.223 95.7308C125.028 98.6863 124.343 100.86 121.87 102.624C119.407 104.381 116.624 104.92 113.674 104.254C111.693 103.808 110.441 102.523 109.923 100.537C109.251 97.9626 108.527 95.4033 107.895 92.821C107.61 91.6607 107.062 91.0386 105.797 91.1452C105.483 91.1706 105.145 90.937 104.817 90.8228C104.848 90.673 104.878 90.5232 104.906 90.3734L104.909 90.3708Z" fill="white"/>
<path d="M94.9304 91.9096C92.1958 91.5744 91.6651 91.8563 90.6724 93.9256C90.2035 94.9023 89.6957 95.4414 89.1489 95.543V90.5918H104.132V95.4592C103.825 95.2332 103.497 95.091 103.325 94.8422C103.063 94.4664 102.903 94.0195 102.71 93.598C101.951 91.935 100.694 91.3027 98.7237 91.8156C98.7237 92.1939 98.7161 92.6383 98.7237 93.0826C98.805 96.8887 98.9395 100.692 98.9421 104.496C98.9421 105.707 99.3813 106.281 100.514 106.507C100.806 106.565 101.047 106.862 101.311 107.05C101.024 107.207 100.737 107.499 100.448 107.504C97.8757 107.54 95.3036 107.525 92.5386 107.24C92.8458 107.035 93.1353 106.697 93.4653 106.646C94.3108 106.519 94.9329 106.268 94.9329 105.268C94.9278 100.834 94.9329 96.3986 94.9329 91.907L94.9304 91.9096Z" fill="white"/>
</g>
<defs>
<clipPath id="clip0_2055_3692">
<rect width="130" height="130" fill="white" transform="translate(32.5 18)"/>
</clipPath>
</defs>
</svg>
