<svg width="304" height="167" viewBox="0 0 304 167" fill="none" xmlns="http://www.w3.org/2000/svg">
<g clip-path="url(#clip0_2003_2523)">
<path d="M226.01 83.8962C225.966 124.569 192.714 157.631 151.895 157.587C111.122 157.546 78.0665 124.294 78.1398 83.3981C78.213 42.8747 111.588 9.77802 152.287 9.86884C192.834 9.95673 226.054 43.3171 226.007 83.8962H226.01ZM222.163 83.8464C222.222 45.447 190.821 13.7419 152.636 13.6423C113.662 13.5427 82.045 44.8259 81.9572 83.5768C81.8693 122.111 113.29 153.758 151.704 153.831C190.558 153.904 222.102 122.571 222.16 83.8464H222.163Z" fill="white"/>
<path d="M150.881 126.435C137.032 126.324 123.691 123.989 111.119 117.98C105.541 115.314 100.49 111.872 95.7501 107.893C91.4757 104.307 89.5246 99.6461 88.672 94.3521C87.7345 88.5338 89.2755 83.5035 93.2511 79.0972C106.071 64.8853 118.739 50.5357 131.63 36.3912C137.185 30.2945 144.064 26.4244 152.604 26.6558C160.095 26.858 166.505 29.6236 171.632 35.275C184.593 49.5572 197.677 63.7252 210.6 78.0426C215.589 83.5709 218.712 92.398 212.618 101.307C207.327 109.045 200.1 114.347 191.75 118.273C182.826 122.468 173.358 124.677 163.584 125.612C159.362 126.016 155.117 126.169 150.881 126.438V126.435ZM150.902 121.859C157.707 121.877 164.457 121.282 171.14 120.028C180.275 118.314 188.985 115.42 196.836 110.325C202.136 106.885 206.771 102.757 209.803 97.0738C211.83 93.274 211.977 89.3863 210.116 85.5455C209.191 83.6353 208.054 81.7427 206.651 80.1578C194.027 65.899 181.408 51.6344 168.597 37.5426C163.414 31.8414 156.588 29.8785 149.018 30.8658C143.027 31.6451 138.28 34.8795 134.363 39.3062C121.936 53.3482 109.543 67.4166 97.2296 81.5582C95.8263 83.1695 94.5753 85.1763 94.0216 87.2095C92.2667 93.6636 94.2501 99.2652 98.9054 103.891C102.919 107.878 107.627 110.943 112.672 113.471C124.701 119.501 137.545 121.859 150.899 121.856L150.902 121.859Z" fill="white"/>
<path d="M131.987 73.4691C131.354 74.5912 130.531 75.5082 131.937 76.5629C132.242 76.7914 132.274 77.3832 132.556 78.1449C130.64 78.1449 129.005 78.1449 127.373 78.1449C125.741 78.1449 124.165 78.1449 122.516 78.1449C122.117 76.9467 122.404 76.3256 123.679 76.2582C126.025 76.1351 127.531 74.8842 128.809 72.9154C130.013 71.0551 130.511 69.3588 130.121 67.1029C128.973 60.476 130.821 54.4408 134.407 48.892C137.469 44.1605 142.121 42.0248 147.491 41.2221C152.287 40.5043 157.027 40.7562 161.647 42.3529C162.825 42.7601 163.868 42.5404 164.735 41.6439C165.717 40.6273 166.364 40.9613 166.956 42.0775C167.776 43.6273 168.702 45.1244 169.514 46.6771C169.716 47.0609 169.859 47.8432 169.675 47.9838C169.335 48.2475 168.658 48.3646 168.254 48.2064C166.851 47.6557 165.526 46.9144 164.135 46.3285C160.238 44.6908 156.198 43.7211 151.944 43.5863C144.175 43.3402 137.477 49.0971 136.177 57.2709C136.01 58.3227 135.925 59.3861 136.092 60.5785C137.647 58.3754 139.232 56.1928 140.726 53.9486C140.937 53.6322 140.712 53.0228 140.677 52.5512C140.636 52.0297 140.577 51.5111 140.498 50.6762C143.943 50.6762 147.245 50.685 150.55 50.6762C153.723 50.6644 156.895 50.6205 160.071 50.6029C163.352 50.5853 165.295 51.8451 165.919 54.3734C166.698 57.5375 165.529 60.3588 162.714 61.8998C165.119 62.8695 166.971 64.3432 167.77 66.8451C169.519 72.309 165.406 77.8871 159.661 77.8373C155.609 77.8051 151.558 77.7963 147.506 77.6967C146.876 77.682 146.258 77.2396 145.637 76.9965C146.108 76.5922 146.568 76.1732 147.055 75.7865C147.389 75.5199 147.972 75.3529 148.059 75.0365C148.162 74.6644 147.934 73.8617 147.693 73.7914C142.56 72.3295 140.776 68.6498 140.858 63.6869C140.858 63.599 140.791 63.5111 140.756 63.4203C137.589 62.7113 135.761 64.6654 136.344 67.891C137.281 73.0619 140.117 76.8969 144.315 79.8559C147.632 82.1908 151.408 82.431 155.261 82.1498C159.553 81.8363 163.601 80.6117 167.337 78.4789C168.465 77.8344 169.391 76.8441 170.492 76.141C170.97 75.8363 171.655 75.8568 172.244 75.7309C172.188 76.2992 172.35 77.0726 172.039 77.4008C170.542 78.9828 169.127 80.8051 167.299 81.892C159.813 86.3275 151.909 88.1059 143.618 84.2035C138.887 81.9769 135.142 78.4994 132.389 74.0082C132.295 73.8559 132.178 73.7182 131.984 73.4574L131.987 73.4691ZM152.841 70.9935C155.384 71.392 157.235 70.5248 158.911 68.9955C159.312 68.6293 160.01 68.5912 160.569 68.4008C160.49 69.0219 160.478 69.6664 160.303 70.2582C160.2 70.598 159.84 70.8734 159.567 71.1517C158.07 72.684 156.175 73.3637 154.121 73.7533C153.775 73.8178 153.482 74.1664 153.163 74.3832C153.465 74.6879 153.734 75.2152 154.071 75.2562C155.457 75.435 156.872 75.6254 158.255 75.517C160.748 75.3207 162.743 73.4135 163.332 70.9408C163.985 68.2045 163.045 65.7435 160.856 64.2699C158.305 62.5473 155.518 63.4877 152.844 63.2885V70.9935H152.841ZM152.589 54.6693C153.802 54.6693 154.877 54.7748 155.926 54.6459C157.692 54.4262 158.498 54.7426 159.16 56.3656C159.33 56.7846 159.14 57.35 159.113 57.848C158.674 57.725 158.214 57.6488 157.801 57.4701C156.661 56.975 155.586 56.2367 154.399 55.9643C152.852 55.6127 152.548 56.0082 152.545 57.5961C152.545 58.4545 152.545 59.3158 152.545 60.2738C154.675 60.2738 156.614 60.3324 158.554 60.2562C160.092 60.1976 161.255 58.6303 161.351 56.6879C161.448 54.7514 160.534 53.1371 158.978 53.017C156.866 52.8559 154.736 52.976 152.592 52.976V54.6693H152.589ZM140.138 60.2416C140.255 60.3764 140.372 60.5111 140.492 60.6459C140.917 60.3676 141.43 60.1654 141.749 59.7934C142.282 59.1752 142.552 58.2582 143.179 57.8041C144.576 56.7904 146.129 55.9994 147.602 55.0883C147.895 54.9066 148.265 54.6078 148.306 54.3236C148.352 54.0131 148.024 53.348 147.916 53.3598C146.521 53.5121 144.591 53.266 143.867 54.0775C142.297 55.8383 141.345 58.1527 140.141 60.2416H140.138ZM148.112 60.2357V56.9428C146.284 57.3881 145.64 58.7328 144.898 60.2357H148.112Z" fill="white"/>
<path d="M129.664 110.404C128.023 109.973 126.312 109.709 124.754 109.077C118.979 106.733 117.107 100.498 120.579 95.102C125.656 87.2065 135.661 89.4008 139.426 94.5688C140.905 96.602 141.104 98.9867 140.548 101.439C139.379 106.604 134.738 110.369 129.661 110.404H129.664ZM135.895 97.226C135.881 94.9467 135.831 93.3354 134.31 92.2485C132.318 90.8246 129.878 91.0678 128.041 93.2299C125.223 96.5434 123.89 100.466 124.08 104.834C124.153 106.487 125.035 107.659 126.617 108.265C128.281 108.901 129.837 108.678 131.088 107.439C134.094 104.459 135.4 100.692 135.898 97.2289L135.895 97.226Z" fill="white"/>
<path d="M190.725 101.934C189.556 99.8628 188.507 98.0024 187.441 96.1128C187.98 95.3599 188.486 95.4009 189.298 95.7671C190.877 96.4761 192.515 97.2231 194.202 97.4868C196.59 97.8618 198.57 96.7222 200.094 94.8882C200.902 93.9155 201.137 92.7466 200.533 91.604C199.947 90.4936 198.805 90.3179 197.718 90.5376C195.573 90.9712 193.461 91.5718 191.325 92.0552C189.36 92.5005 187.452 92.5063 185.794 91.0767C183.509 89.1079 183.761 86.2925 186.011 83.5269C187.947 81.145 190.608 79.8003 193.572 79.0737C194.53 78.8394 195.623 78.9155 195.957 77.5913C196.033 77.2925 196.622 77.1226 197.094 76.812C198.125 78.6489 199.098 80.3774 200.068 82.1001C199.253 83.269 198.488 82.7095 197.692 82.1792C194.735 80.2104 192.318 80.0874 189.875 81.9829C189.163 82.5337 188.548 83.4565 188.314 84.3237C187.88 85.9145 188.829 87.0747 190.482 86.9956C191.926 86.9253 193.359 86.5591 194.785 86.2603C196.165 85.9702 197.513 85.5161 198.902 85.2817C200.982 84.9302 202.801 85.4751 204.026 87.312C205.209 89.0874 205.036 90.9624 204.052 92.7231C202.309 95.8462 199.599 97.8442 196.241 98.9722C195.228 99.312 194.082 99.3501 193.153 99.8306C192.289 100.276 191.63 101.123 190.728 101.931L190.725 101.934Z" fill="white"/>
<path d="M113.955 104.7C108.022 100.422 102.257 96.2681 96.4941 92.1108L96.5908 91.5952C97.0186 91.6187 97.5137 91.5103 97.8682 91.686C99.8926 92.688 100.291 92.6001 101.542 90.6753C103.771 87.2388 106.001 83.8022 108.228 80.3628C109.358 78.6167 109.303 78.3267 107.844 76.7417C107.539 76.4106 107.448 75.8862 107.261 75.4526C107.41 75.3647 107.56 75.2769 107.712 75.189C111.14 77.6646 114.567 80.1401 117.992 82.6187C117.975 82.7886 117.96 82.9556 117.942 83.1255C117.515 83.1255 117.028 83.2632 116.674 83.1021C114.292 82.0298 114.301 82.0122 112.88 84.1509C110.803 87.2798 108.72 90.4028 106.646 93.5347C104.908 96.1567 105.116 96.4468 107.53 98.5327C110.287 100.912 113.009 101.128 116.067 99.3237C116.504 99.0659 117.128 99.1274 117.667 99.0396C117.746 99.1948 117.822 99.3472 117.901 99.5024C116.621 101.19 115.338 102.877 113.955 104.703V104.7Z" fill="white"/>
<path d="M160.549 91.9349C163.862 91.015 167.179 90.098 170.492 89.1781C170.609 89.2865 170.724 89.3978 170.841 89.5062C170.58 89.8314 170.384 90.2884 170.044 90.4583C168.843 91.0619 168.518 91.8558 168.896 93.1947C169.707 96.0511 170.305 98.9691 171.078 101.837C172.133 105.743 174.676 106.947 178.426 105.409C180.512 104.553 181.839 102.611 181.382 100.41C180.699 97.1263 179.753 93.8978 178.856 90.6605C178.484 89.3187 177.433 88.9466 176.117 88.9876C175.687 89.0023 175.247 88.7005 174.811 88.5423C175.165 88.2875 175.487 87.9212 175.883 87.7953C177.969 87.1273 180.072 86.5062 182.182 85.9144C182.483 85.8294 182.855 86.0052 183.195 86.0609C183.005 86.3392 182.876 86.7113 182.615 86.8871C180.491 88.2962 180.307 88.6654 180.948 91.2113C181.534 93.5257 182.205 95.8167 182.835 98.1195C183.764 101.53 182.973 104.037 180.119 106.074C177.277 108.101 174.066 108.722 170.662 107.954C168.377 107.439 166.933 105.956 166.335 103.665C165.559 100.695 164.724 97.7415 163.994 94.7621C163.666 93.4232 163.033 92.7054 161.574 92.8285C161.211 92.8578 160.821 92.5882 160.443 92.4564C160.479 92.2835 160.514 92.1107 160.546 91.9378L160.549 91.9349Z" fill="white"/>
<path d="M149.035 93.7104C145.88 93.3237 145.268 93.6489 144.122 96.0366C143.581 97.1636 142.995 97.7856 142.364 97.9028V92.1899H159.652V97.8062C159.298 97.5454 158.92 97.3814 158.721 97.0942C158.419 96.6607 158.234 96.145 158.012 95.6587C157.136 93.7397 155.686 93.0103 153.412 93.6021C153.412 94.0386 153.403 94.5513 153.412 95.064C153.506 99.4556 153.661 103.844 153.664 108.233C153.664 109.63 154.171 110.292 155.478 110.553C155.814 110.621 156.093 110.963 156.397 111.18C156.066 111.362 155.735 111.699 155.401 111.705C152.434 111.746 149.466 111.728 146.275 111.4C146.63 111.163 146.964 110.773 147.345 110.714C148.32 110.568 149.038 110.278 149.038 109.124C149.032 104.008 149.038 98.8901 149.038 93.7075L149.035 93.7104Z" fill="white"/>
</g>
<defs>
<clipPath id="clip0_2003_2523">
<rect width="150" height="150" fill="white" transform="translate(77 8.43018)"/>
</clipPath>
</defs>
</svg>
