<svg width="304" height="167" viewBox="0 0 304 167" fill="none" xmlns="http://www.w3.org/2000/svg">
<g clip-path="url(#clip0_2003_2434)">
<path d="M139.116 97.3669C139.859 95.9719 140.573 94.7149 141.209 93.4204C144.507 86.7064 146.49 79.5799 147.791 72.2434C148.979 65.5369 149.516 58.7659 149.777 51.9679C149.861 49.7749 149.345 49.4284 147.339 50.3224C145.931 50.9494 144.527 51.5839 143.043 52.1644C147.159 44.8639 150.453 37.2664 151.998 28.9639C153.546 37.2529 156.825 44.8429 161.088 52.2349C160.764 52.1284 160.592 52.0879 160.433 52.0174C158.972 51.3694 157.526 50.6854 156.051 50.0719C154.803 49.5529 154.185 49.9504 154.227 51.2749C154.625 63.8644 155.96 76.3069 160.538 88.1719C161.648 91.0519 163.152 93.7789 164.478 96.5749C164.583 96.7969 164.715 97.0069 164.886 97.3174C164.577 97.3369 164.346 97.3639 164.115 97.3639C161.516 97.3669 158.916 97.3459 156.318 97.3804C155.724 97.3879 155.415 97.2259 155.223 96.6484C154.262 93.7594 153.267 90.8809 152.283 87.9994C152.213 87.7909 152.147 87.5809 152.001 87.1399C151.863 87.5539 151.793 87.7684 151.719 87.9814C150.728 90.8869 149.729 93.7894 148.749 96.6994C148.581 97.1974 148.323 97.3864 147.773 97.3804C144.926 97.3504 142.077 97.3669 139.113 97.3669H139.116Z" fill="white"/>
<path d="M134.589 97.3635C131.981 97.3635 129.512 97.377 127.041 97.335C126.869 97.332 126.6 96.936 126.549 96.687C125.925 93.681 125.403 90.6525 124.724 87.66C122.343 77.187 119.189 66.9645 114.66 57.1995C114.2 56.2065 113.706 55.2285 113.279 54.186C120.645 58.2 126.807 63.72 132.758 69.72C129.857 69.111 127.083 68.5305 124.31 67.9485C124.257 68.016 124.206 68.085 124.154 68.1525C128.183 77.643 131.487 87.3885 134.589 97.3635Z" fill="white"/>
<path d="M177.336 97.3336H169.424C172.497 87.4231 175.808 77.6656 179.844 68.1601C179.798 68.0896 179.75 68.0176 179.703 67.9471C176.933 68.5276 174.162 69.1081 171.428 69.6811C173.067 66.7381 187.572 55.1086 190.814 54.2026C187.311 60.9871 184.749 68.0896 182.528 75.3226C180.312 82.5361 178.641 89.8831 177.338 97.3336H177.336Z" fill="white"/>
<path d="M124.878 108.819H179.114C179.114 109.739 179.129 110.63 179.097 111.519C179.093 111.648 178.89 111.833 178.745 111.878C178.539 111.941 178.299 111.9 178.076 111.9C160.686 111.9 143.295 111.9 125.906 111.9C125.222 111.9 124.879 111.568 124.878 110.903C124.878 110.232 124.878 109.562 124.878 108.818V108.819Z" fill="white"/>
<path d="M152 102.525C143.303 102.525 134.606 102.525 125.911 102.525C124.88 102.525 124.87 102.525 124.883 101.535C124.892 100.866 124.685 99.9122 125.033 99.6062C125.441 99.2477 126.346 99.4187 127.036 99.4187C144.029 99.4127 161.023 99.4142 178.016 99.4142C178.753 99.4142 179.122 99.7717 179.123 100.487C179.123 101.847 178.455 102.527 177.118 102.527C168.746 102.527 160.375 102.527 152.002 102.527L152 102.525Z" fill="white"/>
<path d="M145.287 123.425C145.202 119.823 144.36 116.613 141.543 114.074H162.446C161.069 115.341 160.026 116.723 159.557 118.403C159.105 120.021 158.858 121.698 158.504 123.425H145.287Z" fill="white"/>
<path d="M127.538 107.115V104.156H176.464V107.115H127.538Z" fill="white"/>
<path d="M141.362 125.652H162.626C162.626 126.938 162.636 128.201 162.608 129.462C162.605 129.567 162.351 129.728 162.195 129.753C161.903 129.801 161.598 129.77 161.298 129.77C154.953 129.77 148.607 129.758 142.262 129.786C141.542 129.789 141.305 129.599 141.347 128.871C141.407 127.829 141.362 126.78 141.362 125.651V125.652Z" fill="white"/>
<path d="M145.295 138.321V131.97H158.675V138.321H145.295Z" fill="white"/>
<path d="M137.669 114.083C135.306 116.216 132.743 117.53 129.705 118.241C129.525 116.829 129.353 115.487 129.174 114.083H137.669Z" fill="white"/>
<path d="M174.824 114.08C174.65 115.472 174.484 116.801 174.302 118.248C171.286 117.542 168.706 116.228 166.331 114.08H174.824Z" fill="white"/>
</g>
<defs>
<clipPath id="clip0_2003_2434">
<rect width="150" height="150" fill="white" transform="translate(77 8.43018)"/>
</clipPath>
</defs>
</svg>
