<svg width="174" height="166" viewBox="0 0 174 166" fill="none" xmlns="http://www.w3.org/2000/svg">
<path d="M88.8115 113.165C90.3382 110.973 91.8648 108.937 93.274 106.784C95.8576 102.83 98.0889 98.7202 99.0283 94.0619C100.281 87.7988 97.8931 83.1405 92.0605 80.4787C88.8115 79.0303 85.3668 78.3257 81.8437 78.0125C73.1927 77.1905 64.62 78.0125 56.0864 79.4218C48.688 80.6353 41.4071 82.3968 34.3219 84.8629C33.5781 85.1369 32.7952 85.4109 32.0123 85.6849C31.934 85.2543 32.2472 85.2152 32.4429 85.0978C46.4568 76.2902 61.2535 68.9701 76.794 63.2549C86.7368 59.5753 96.8754 56.522 107.288 54.5648C113.199 53.4687 119.11 52.6467 125.138 52.7641C129.131 52.8424 133.084 53.1947 136.764 54.8779C139.543 56.1306 141.501 58.0487 141.931 61.2194C142.166 63.0201 141.775 64.7424 141.148 66.3865C139.7 70.3402 137.195 73.6283 134.494 76.7991C129.366 82.7882 123.455 87.9553 117.348 92.8876C108.462 100.09 99.1066 106.627 89.5161 112.93C89.3204 113.047 89.1247 113.282 88.7332 113.243L88.8115 113.165Z" fill="white"/>
</svg>
