<svg width="214" height="166" viewBox="0 0 214 166" fill="none" xmlns="http://www.w3.org/2000/svg">
<path d="M173.083 72.7238C174.346 72.5009 175.631 72.4691 176.905 72.4478C178.178 72.4372 179.505 72.5752 180.641 73.2015C181.682 73.6262 182.255 74.9001 181.873 75.9722C181.374 77.6177 180.195 78.934 178.996 80.1124C175.96 83.244 172.191 85.4945 168.571 87.8725C169.176 86.9914 169.675 86.0253 170.047 85.0274C170.333 84.2419 170.609 83.4245 170.641 82.5752C170.684 81.7047 170.503 80.7705 169.941 80.0805C169.378 79.4436 168.571 79.0614 167.764 78.8385C166.597 78.5094 165.365 78.4775 164.155 78.4775C161.406 78.4988 158.677 78.9446 155.992 79.4967C155.047 79.6665 154.123 79.9531 153.157 79.9956C153.975 79.7302 154.696 79.2525 155.471 78.8703C159.091 77.0338 162.839 75.4415 166.713 74.2313C168.794 73.5731 170.928 73.0954 173.083 72.7238Z" fill="white"/>
<path d="M47.5096 81.2165C47.6476 81.0679 47.8493 81.0997 48.0298 81.0891C49.5797 81.0997 51.1295 81.0997 52.6794 81.0891C52.7113 83.2866 52.7537 85.484 52.7856 87.6815C55.5775 85.5583 58.189 83.2016 60.9703 81.0679C62.6688 81.1316 64.3673 81.0679 66.0659 81.1103C66.0552 85.2717 66.0552 89.4437 66.0659 93.605C63.8578 93.6263 61.6603 93.5838 59.4629 93.6263H59.4204C59.3992 91.673 59.4098 89.7197 59.4098 87.777C57.1274 89.6666 55.0043 91.726 52.7325 93.6263H52.4034C50.3228 93.5838 48.2527 93.6369 46.172 93.605C46.2039 91.6517 46.1614 89.6878 46.1932 87.7345C43.9321 89.656 41.7665 91.6942 39.516 93.6263H32.085C32.2973 93.4033 32.5414 93.2229 32.7962 93.0424C34.0701 92.0976 35.2484 91.036 36.5117 90.07C40.1847 87.1188 43.8578 84.1783 47.5096 81.2165Z" fill="white"/>
<path d="M86.0445 81.0786C88.2314 81.0998 90.4288 81.0892 92.6157 81.0892C92.6475 84.2952 92.6263 87.5011 92.6263 90.7071C94.1019 90.7071 95.5881 90.7071 97.0637 90.7071C97.0424 91.6731 97.0318 92.6285 97.0637 93.5945C93.38 93.5945 89.6963 93.6158 86.0127 93.5839C86.0339 89.4226 86.0021 85.2506 86.0445 81.0786Z" fill="white"/>
<path d="M68.327 85.2611C68.9108 84.1465 70.0998 83.3078 71.3843 83.3185C75.758 83.3185 80.1423 83.3185 84.5159 83.3185C84.4947 84.2951 84.5159 85.2611 84.5159 86.2378C81.6285 86.2696 78.7304 86.2165 75.8429 86.259C75.0998 86.2909 74.5053 86.9172 74.293 87.5966C74.0064 88.5095 74.1656 89.6348 74.9087 90.293C75.1741 90.5053 75.4926 90.6751 75.8429 90.6751C78.7304 90.7495 81.6285 90.6751 84.5265 90.707C84.5053 91.6624 84.5053 92.6178 84.5372 93.5732C80.0892 93.6157 75.6306 93.5838 71.1826 93.5945C70.2059 93.5626 69.3036 93.0212 68.7197 92.2569C67.2972 90.2505 67.2123 87.4374 68.327 85.2611Z" fill="white"/>
<path d="M99.3038 83.3076C103.624 83.3288 107.934 83.3076 112.255 83.3182C113.147 83.3182 114.038 83.6685 114.675 84.3055C115.737 85.3352 116.225 86.8426 116.236 88.3076C116.246 89.677 115.96 91.1102 115.089 92.2036C114.505 92.9679 113.624 93.4881 112.669 93.6261H100.28C99.3568 93.4775 98.8367 92.5539 98.6668 91.7153C98.4545 90.6855 98.5394 89.5603 99.0702 88.6261C99.3675 88.0953 99.9619 87.7556 100.567 87.7556C103.582 87.7768 106.597 87.745 109.612 87.7768C109.612 87.2673 109.612 86.7577 109.612 86.2482C106.172 86.2694 102.733 86.2482 99.3038 86.2588C99.2719 85.2715 99.2825 84.2843 99.3038 83.3076ZM104.41 89.2312C104.41 89.7301 104.41 90.2184 104.41 90.7174C106.14 90.7174 107.881 90.6962 109.612 90.7386C109.622 90.2291 109.633 89.7301 109.633 89.2206C107.892 89.2099 106.151 89.1993 104.41 89.2312Z" fill="white"/>
<path d="M117.775 84.9106C117.711 84.072 118.518 83.2333 119.367 83.3289C122.276 83.2864 125.185 83.3289 128.083 83.3182C128.062 84.2949 128.072 85.2609 128.072 86.2376C126.841 86.2482 125.599 86.2376 124.367 86.2482C124.378 88.7004 124.367 91.1526 124.378 93.5943C122.181 93.6049 119.983 93.5943 117.775 93.5943C117.775 90.7068 117.775 87.8087 117.775 84.9106Z" fill="white"/>
<path d="M130.885 83.9128C131.512 83.467 132.297 83.3184 133.061 83.3184C136.989 83.329 140.917 83.329 144.845 83.3184C145.62 83.4988 146.129 84.2632 146.352 84.985C146.639 86.0041 146.618 87.1506 146.129 88.106C145.832 88.7111 145.238 89.2419 144.526 89.2101C141.501 89.2101 138.475 89.2101 135.461 89.2101C135.461 89.709 135.461 90.208 135.461 90.7069C138.911 90.7281 142.361 90.6963 145.811 90.7175C145.8 91.6835 145.811 92.6496 145.79 93.6156H132.456C131.416 93.4988 130.45 92.8937 129.877 92.0232C128.921 90.5901 128.645 88.7536 128.985 87.0869C129.229 85.8555 129.834 84.6347 130.885 83.9128ZM135.461 86.2589C135.461 86.7472 135.471 87.2356 135.461 87.7239C137.18 87.777 138.9 87.7239 140.62 87.7557C140.62 87.2568 140.62 86.7472 140.63 86.2483C138.9 86.2589 137.18 86.2377 135.461 86.2589Z" fill="white"/>
<path d="M148.019 83.308C152.446 83.3186 156.872 83.3186 161.299 83.308C161.968 83.2761 162.647 83.4035 163.242 83.7008C164.155 84.136 164.94 85.0277 164.983 86.0681C165.047 88.5734 164.972 91.0787 165.015 93.5946C163.04 93.584 161.066 93.6158 159.091 93.584C159.112 91.8643 159.102 90.1339 159.102 88.4141C159.112 87.756 158.709 87.119 158.114 86.8324C157.053 86.3122 155.843 86.2804 154.686 86.2167C154.686 88.6689 154.654 91.1105 154.696 93.5628C154.293 93.5734 153.879 93.5734 153.475 93.6158H149.686C149.134 93.5734 148.571 93.5946 148.008 93.584C148.03 90.1657 148.019 86.7369 148.019 83.308Z" fill="white"/>
</svg>
