<svg width="165" height="164" viewBox="0 0 165 164" fill="none" xmlns="http://www.w3.org/2000/svg">
<path fill-rule="evenodd" clip-rule="evenodd" d="M82.4873 132C54.6559 131.988 32.1001 109.6 32.1001 81.9941C32.1001 54.3758 54.6687 31.9877 82.4873 32C110.344 32 132.9 54.3887 132.9 81.9941C132.9 109.612 110.331 132 82.4873 132ZM41.1602 105.979L42.0625 105.275C39.4559 100.486 38.4539 97.2926 37.3133 93.748C37.213 93.4837 37.1506 93.3072 37.0376 93.1563C36.9624 93.3569 37.0002 93.534 37.0125 93.7598C37.7393 97.6317 39.4938 102.51 41.1602 105.979ZM83.1891 36.9654L90.0436 76.9533L82.876 81.1644L82.6382 36.9782C82.6382 36.4502 82.2873 36.4502 82.2122 36.9782L78.1642 78.8893L75.1571 77.1422L81.5978 36.9788C56.6359 37.1291 36.9245 57.2298 36.9245 82.0696C36.9245 89.9135 39.3807 98.1603 42.9141 104.583L74.3673 78.3485L77.3866 80.0827L42.0747 105.539C41.2226 106.142 41.4732 106.432 42.4128 105.916L81.8479 83.0624V91.284L43.7657 105.866C51.7352 118.927 65.8703 127.249 82.3614 127.249C98.8152 127.249 113.188 118.915 121.158 105.879L83.1384 91.3092V83.0876L121.07 105.036C121.934 105.514 122.185 105.25 121.37 104.672L87.6002 80.0961L90.62 78.3613L122.048 104.621C125.657 98.1603 128.038 89.9012 128.038 81.9941C128.038 57.4684 107.713 37.6319 83.1891 36.9654ZM130.482 72.9428C130.569 73.1819 130.644 73.3831 130.757 73.5211C130.832 73.3199 130.77 73.1439 130.757 72.9176C126.609 50.1898 106.961 33.2069 82.5875 33.2069C55.3076 33.2069 33.2402 55.3944 33.2402 82.7479C33.2402 89.2089 34.8821 95.3694 37.1128 101.013C38.1403 103.615 41.4231 109.549 42.2251 110.718C42.4005 110.968 42.4757 111.094 42.6762 111.246C42.664 111.006 42.6517 110.893 42.5259 110.604C42.3877 110.365 39.5935 105.023 37.9772 101.05C36.5987 97.6312 34.8821 90.8186 34.8821 82.9233C34.8821 56.3867 56.348 34.8529 82.8003 34.8529C96.6352 34.8651 109.643 41.6408 117.612 50.4156C123.665 57.0789 126.797 61.5543 130.482 72.9428ZM42.7136 106.255L41.6236 106.658C48.7037 120.234 63.5528 130.103 82.4873 130.103C109.354 130.115 130.832 108.304 130.832 81.9941C130.832 75.5576 128.977 71.6108 127.938 68.7574C127.174 66.6203 125.532 63.3389 124.805 61.994C124.654 61.7297 124.555 61.6169 124.354 61.4537C124.366 61.6923 124.379 61.8309 124.529 62.0951C125.094 63.2137 126.346 66.0297 127.235 68.858C128.438 72.6165 129.19 76.8276 129.19 81.9947C129.19 90.2029 126.622 98.6006 122.837 105.287C123.051 105.841 122.849 106.118 122.211 106.294C113.952 119.619 99.2284 128.343 82.4745 128.33C66.7353 128.33 54.1541 119.87 50.1819 115.483C46.9492 111.912 44.556 109.26 42.7136 106.255ZM79.9938 79.9576L82.074 81.1767L82.3375 48.7316C82.3375 48.0779 82.1375 48.0527 82.0868 48.7064L79.9938 79.9576ZM83.6274 82.4087L111.609 98.8386C112.11 99.128 112.211 98.952 111.736 98.638L85.7583 81.1767L83.6274 82.4087ZM79.3672 81.2773L72.3372 87.0478C71.949 87.3741 72.1245 87.5249 72.5879 87.2618L81.3594 82.3841L79.3672 81.2773Z" fill="white"/>
</svg>
