<svg width="264" height="166" viewBox="0 0 264 166" fill="none" xmlns="http://www.w3.org/2000/svg">
<g clip-path="url(#clip0_2061_4288)">
<path d="M130.649 126.955C129.942 126.906 129.232 126.853 128.525 126.804C123.042 126.401 117.827 125.003 112.872 122.625C108.493 120.521 104.572 117.763 101.104 114.358C98.8151 112.112 96.7937 109.651 95.0498 106.959C94.8846 106.705 94.7096 106.619 94.4123 106.623C89.4612 106.632 84.5068 106.626 79.5556 106.636C79.2551 106.636 79.0404 106.553 78.829 106.338C76.9166 104.406 74.991 102.484 73.072 100.558C72.9993 100.486 72.9332 100.41 72.8077 100.271H91.3306C90.5478 97.8664 89.775 95.4949 88.9823 93.0573H88.5727C81.0453 93.0573 73.5179 93.0573 65.9904 93.0639C65.6932 93.0639 65.4785 92.9913 65.2638 92.7733C63.3613 90.8477 61.4489 88.9353 59.5365 87.0163C59.4473 86.9271 59.368 86.8313 59.2194 86.6694H88.0112V79.469C87.8592 79.469 87.6644 79.469 87.4728 79.469C75.8266 79.469 64.1771 79.469 52.5309 79.4756C52.1577 79.4756 51.8968 79.3666 51.6358 79.1024C49.7697 77.2164 47.887 75.3436 46.0109 73.4676C45.9118 73.3685 45.8161 73.2628 45.6377 73.0745H46.2586C60.3094 73.0745 74.3601 73.0745 88.4108 73.0745C89.0681 73.0745 89.0681 73.0745 89.2267 72.4437C89.7617 70.2901 90.4488 68.1895 91.2943 66.1383C91.3174 66.0789 91.3406 66.0194 91.3901 65.8873C91.1919 65.8873 91.0301 65.8873 90.8682 65.8873C73.5542 65.8873 56.2435 65.8873 38.9294 65.8939C38.5859 65.8939 38.3448 65.7981 38.1037 65.5537C36.1913 63.6182 34.269 61.6959 32.3466 59.7702C32.274 59.6976 32.2079 59.6216 32.0791 59.4796C32.3037 59.4796 32.4556 59.4796 32.6043 59.4796C53.1651 59.4796 73.7292 59.4796 94.2901 59.4862C94.6402 59.4862 94.845 59.3904 95.0498 59.0898C101.837 48.9564 111.155 42.4727 123.122 40.012C133.034 37.9741 142.573 39.2953 151.639 43.8104C155.662 45.8153 159.266 48.418 162.486 51.5525C164.871 53.8745 166.968 56.4277 168.768 59.222C168.904 59.43 169.049 59.4862 169.283 59.4829C171.992 59.4763 174.697 59.4796 177.405 59.4796C195.552 59.4796 213.695 59.4796 231.841 59.4796C231.894 59.4796 231.947 59.4763 232 59.473V59.5523C231.891 59.6414 231.772 59.724 231.673 59.8264C229.77 61.7322 227.865 63.6347 225.972 65.5504C225.731 65.7948 225.49 65.8906 225.146 65.8906C207.726 65.884 190.307 65.884 172.887 65.884C172.722 65.884 172.553 65.884 172.448 65.884C173.217 68.2786 173.984 70.6535 174.766 73.0844H218.411C218.256 73.2496 218.167 73.3553 218.068 73.4544C216.182 75.3403 214.289 77.2197 212.417 79.1189C212.162 79.3765 211.908 79.469 211.551 79.469C199.783 79.4591 188.018 79.4624 176.249 79.4624C176.058 79.4624 175.87 79.4624 175.681 79.4624C175.721 80.7175 175.79 81.9033 175.79 83.0857C175.79 84.2649 175.718 85.4473 175.675 86.6827H204.843C204.701 86.8346 204.622 86.9205 204.539 87.0063C202.63 88.9221 200.714 90.8378 198.812 92.7634C198.597 92.9781 198.386 93.0606 198.088 93.0606C190.429 93.054 182.769 93.054 175.11 93.054C174.955 93.054 174.799 93.054 174.753 93.054C173.957 95.4982 173.184 97.8697 172.405 100.271H191.268C191.139 100.413 191.063 100.502 190.984 100.581C189.081 102.491 187.176 104.393 185.283 106.309C185.052 106.543 184.824 106.642 184.49 106.642C179.433 106.632 174.373 106.636 169.316 106.629C169.039 106.629 168.864 106.695 168.702 106.943C165.997 111.111 162.684 114.728 158.747 117.757C151.784 123.111 143.927 126.146 135.157 126.813C134.447 126.866 133.74 126.916 133.03 126.965H130.652L130.649 126.955ZM132.049 45.6039C111.479 45.6171 94.6864 62.1352 94.5345 82.805C94.3793 103.713 111.204 120.492 131.861 120.581C152.627 120.67 169.482 103.967 169.538 83.1881C169.597 62.4324 152.765 45.6006 132.046 45.6006L132.049 45.6039Z" fill="white"/>
<path d="M106.088 78.538V92.8893H101.907V73.1641C102.055 73.1575 102.184 73.1443 102.313 73.1443C103.951 73.1443 105.59 73.1542 107.224 73.1344C107.555 73.1311 107.703 73.2268 107.809 73.5505C109.388 78.3695 110.983 83.1852 112.575 87.9976C112.618 88.1297 112.668 88.2585 112.75 88.4997C113.114 87.3998 113.441 86.4188 113.764 85.4345C115.072 81.4413 116.38 77.448 117.685 73.4547C117.748 73.2665 117.804 73.1344 118.052 73.1344C119.835 73.1443 121.615 73.141 123.399 73.1443C123.449 73.1443 123.498 73.1641 123.567 73.1773V92.886H119.386V78.6106C119.35 78.6007 119.317 78.5941 119.28 78.5842C119.237 78.7097 119.194 78.8352 119.155 78.9608C117.781 83.4726 116.407 87.9844 115.046 92.4995C114.95 92.8166 114.818 92.9322 114.478 92.9256C113.289 92.9025 112.1 92.9091 110.914 92.9256C110.633 92.9289 110.508 92.8496 110.422 92.5656C109.064 88.0472 107.69 83.5353 106.323 79.0235C106.27 78.8551 106.21 78.6899 106.151 78.5215C106.128 78.5281 106.108 78.5314 106.085 78.538H106.088Z" fill="white"/>
<path d="M136.912 73.1474H137.367C138.609 73.1474 139.851 73.1606 141.09 73.1375C141.427 73.1309 141.602 73.2366 141.764 73.5338C144.185 77.9796 146.616 82.4188 149.047 86.8579C149.152 87.0495 149.261 87.2411 149.37 87.4293C149.407 87.4227 149.443 87.4194 149.476 87.4128V73.1705H153.393V92.9254C152.693 92.942 151.999 92.9585 151.306 92.9783C150.579 92.9981 149.856 93.0014 149.129 93.0444C148.825 93.0642 148.66 92.9783 148.508 92.7075C146.176 88.5722 143.834 84.4468 141.493 80.3148C141.288 79.9515 141.077 79.5881 140.799 79.2413V92.8924H136.908V73.1441L136.912 73.1474Z" fill="white"/>
<path d="M158.011 92.876V73.1475H162.004V92.876H158.011Z" fill="white"/>
<path d="M128.205 92.8724V73.1406H132.185V92.8724H128.205Z" fill="white"/>
</g>
<defs>
<clipPath id="clip0_2061_4288">
<rect width="200" height="87.9112" fill="white" transform="translate(32 39.0444)"/>
</clipPath>
</defs>
</svg>
