<svg width="304" height="167" viewBox="0 0 304 167" fill="none" xmlns="http://www.w3.org/2000/svg">
<g clip-path="url(#clip0_2003_2384)">
<path d="M150.223 141.231C149.294 141.166 148.36 141.097 147.431 141.032C140.221 140.502 133.362 138.665 126.847 135.537C121.088 132.771 115.932 129.144 111.372 124.666C108.362 121.712 105.704 118.476 103.41 114.937C103.193 114.602 102.963 114.489 102.572 114.494C96.0614 114.507 89.5464 114.498 83.0357 114.511C82.6404 114.511 82.3581 114.402 82.0801 114.12C79.5653 111.579 77.0331 109.051 74.5096 106.519C74.4141 106.424 74.3272 106.324 74.1622 106.141H98.5198C97.4904 102.979 96.4741 99.8608 95.4317 96.6554H94.8931C84.9945 96.6554 75.096 96.6554 65.1974 96.6641C64.8065 96.6641 64.5242 96.5685 64.2419 96.2819C61.7401 93.7497 59.2253 91.2349 56.7105 88.7114C56.5932 88.5941 56.489 88.4681 56.2935 88.2553H94.1547V78.7867C93.9549 78.7867 93.6986 78.7867 93.4467 78.7867C78.132 78.7867 62.8129 78.7867 47.4982 78.7954C47.0074 78.7954 46.6642 78.6521 46.3211 78.3046C43.8671 75.8246 41.3914 73.3619 38.9244 70.8948C38.7941 70.7645 38.6681 70.6255 38.4336 70.378H39.2501C57.7268 70.378 76.2035 70.378 94.6802 70.378C95.5446 70.378 95.5446 70.378 95.7531 69.5484C96.4567 66.7165 97.3601 63.9541 98.472 61.2569C98.5024 61.1787 98.5328 61.1005 98.598 60.9268C98.3374 60.9268 98.1245 60.9268 97.9117 60.9268C75.1437 60.9268 52.3801 60.9268 29.6122 60.9355C29.1605 60.9355 28.8434 60.8095 28.5263 60.4881C26.0115 57.9429 23.4837 55.4151 20.9558 52.8829C20.8603 52.7873 20.7734 52.6874 20.604 52.5006C20.8994 52.5006 21.0991 52.5006 21.2946 52.5006C48.3321 52.5006 75.3739 52.5006 102.411 52.5093C102.872 52.5093 103.141 52.3834 103.41 51.9881C112.336 38.6627 124.589 30.1366 140.325 26.9008C153.359 24.2209 165.903 25.9583 177.825 31.8957C183.116 34.5321 187.854 37.9547 192.089 42.0765C195.225 45.1299 197.983 48.4874 200.35 52.1619C200.528 52.4355 200.719 52.5093 201.028 52.505C204.589 52.4963 208.147 52.5006 211.708 52.5006C235.571 52.5006 259.429 52.5006 283.291 52.5006C283.361 52.5006 283.43 52.4963 283.5 52.492V52.5962C283.356 52.7135 283.2 52.8221 283.07 52.9567C280.568 55.4628 278.062 57.9646 275.573 60.4838C275.256 60.8052 274.939 60.9311 274.487 60.9311C251.58 60.9224 228.673 60.9225 205.766 60.9225C205.549 60.9225 205.328 60.9225 205.189 60.9225C206.201 64.0714 207.208 67.1943 208.238 70.391H265.631C265.427 70.6082 265.31 70.7472 265.179 70.8775C262.699 73.3575 260.211 75.8289 257.748 78.3264C257.413 78.6651 257.079 78.7867 256.61 78.7867C241.134 78.7737 225.663 78.7781 210.188 78.7781C209.936 78.7781 209.688 78.7781 209.441 78.7781C209.493 80.4285 209.584 81.9878 209.584 83.5427C209.584 85.0933 209.489 86.6483 209.432 88.2727H247.789C247.602 88.4725 247.498 88.5854 247.389 88.6983C244.878 91.2175 242.359 93.7366 239.858 96.2688C239.575 96.5511 239.297 96.6597 238.906 96.6597C228.834 96.651 218.762 96.651 208.689 96.651C208.485 96.651 208.281 96.651 208.22 96.651C207.174 99.8651 206.157 102.984 205.132 106.141H229.937C229.768 106.328 229.668 106.445 229.564 106.55C227.062 109.06 224.556 111.562 222.067 114.081C221.763 114.389 221.463 114.52 221.025 114.52C214.375 114.507 207.721 114.511 201.071 114.502C200.706 114.502 200.476 114.589 200.263 114.915C196.706 120.396 192.35 125.152 187.172 129.135C178.017 136.176 167.684 140.167 156.152 141.045C155.218 141.114 154.289 141.179 153.355 141.244H150.228L150.223 141.231ZM152.065 34.2541C125.014 34.2715 102.933 55.9927 102.733 83.1736C102.529 110.667 124.654 132.731 151.817 132.849C179.124 132.966 201.288 111.002 201.362 83.6774C201.44 56.3836 179.307 34.2498 152.061 34.2498L152.065 34.2541Z" fill="white"/>
<path d="M117.926 77.5619V96.4339H112.428V70.4953C112.623 70.4866 112.793 70.4692 112.962 70.4692C115.116 70.4692 117.271 70.4822 119.421 70.4562C119.855 70.4518 120.05 70.5778 120.189 71.0034C122.265 77.3404 124.363 83.6731 126.457 90.0013C126.513 90.1751 126.578 90.3445 126.687 90.6615C127.165 89.2152 127.595 87.9252 128.02 86.6309C129.74 81.3797 131.46 76.1286 133.176 70.8775C133.259 70.6299 133.332 70.4562 133.658 70.4562C136.004 70.4692 138.345 70.4648 140.69 70.4692C140.755 70.4692 140.82 70.4953 140.912 70.5126V96.4295H135.413V77.6575C135.365 77.6444 135.322 77.6358 135.274 77.6227C135.217 77.7878 135.161 77.9528 135.109 78.1179C133.302 84.0509 131.495 89.984 129.706 95.9214C129.58 96.3383 129.406 96.4903 128.959 96.4817C127.395 96.4513 125.831 96.4599 124.272 96.4817C123.903 96.486 123.738 96.3818 123.625 96.0082C121.84 90.0665 120.033 84.1334 118.235 78.2004C118.165 77.9789 118.087 77.7617 118.009 77.5402C117.979 77.5489 117.953 77.5532 117.922 77.5619H117.926Z" fill="white"/>
<path d="M158.458 70.4739H159.058C160.691 70.4739 162.324 70.4912 163.953 70.4608C164.396 70.4521 164.626 70.5911 164.839 70.982C168.023 76.8282 171.219 82.6657 174.416 88.5032C174.555 88.7551 174.698 89.007 174.842 89.2546C174.889 89.2459 174.937 89.2416 174.981 89.2329V70.5043H180.132V96.482C179.211 96.5037 178.299 96.5254 177.387 96.5515C176.431 96.5775 175.48 96.5819 174.525 96.6383C174.125 96.6644 173.908 96.5515 173.708 96.1953C170.642 90.7574 167.562 85.3325 164.483 79.899C164.213 79.4212 163.935 78.9434 163.571 78.4874V96.4385H158.454V70.4695L158.458 70.4739Z" fill="white"/>
<path d="M186.204 96.4166V70.4736H191.455V96.4166H186.204Z" fill="white"/>
<path d="M147.009 96.4122V70.4648H152.243V96.4122H147.009Z" fill="white"/>
</g>
<defs>
<clipPath id="clip0_2003_2384">
<rect width="263" height="115.603" fill="white" transform="translate(20.5 25.6284)"/>
</clipPath>
</defs>
</svg>
