<svg width="73" height="72" viewBox="0 0 73 72" fill="none" xmlns="http://www.w3.org/2000/svg">
<path d="M36.9098 13.0016C43.3237 12.9847 49.0065 17.2653 50.7495 23.4334C51.3856 25.6823 51.4389 27.9573 51.0123 30.2492C50.3528 33.7923 48.9883 37.0818 47.3871 40.2829C44.6413 45.7694 41.2777 50.8682 37.5732 55.7485C37.144 56.3143 36.6731 56.3091 36.2608 55.7329C32.62 50.6627 29.2694 45.413 26.4559 39.8329C25.3009 37.5423 24.2733 35.1958 23.5098 32.7413C22.849 30.6199 22.3951 28.4646 22.5941 26.226C22.9596 22.1144 24.7533 18.7495 27.9518 16.1389C29.5165 14.8616 31.2972 13.9875 33.2457 13.4672C34.4437 13.1473 35.6676 12.9925 36.9098 13.0003V13.0016ZM36.9384 54.2943C37.0087 54.2124 37.0672 54.1512 37.1166 54.0849C37.676 53.3136 38.2444 52.5487 38.7907 51.7683C41.7914 47.4798 44.5711 43.0587 46.8057 38.3149C48.0349 35.707 49.0781 33.034 49.6322 30.188C50.1382 27.5853 50.0393 25.0203 48.9974 22.5697C46.9774 17.8182 43.3627 15.0697 38.2353 14.4402C35.4491 14.0981 32.7917 14.6886 30.375 16.1454C26.5444 18.4555 24.4047 21.8595 23.9637 26.3067C23.7517 28.4477 24.2317 30.5041 24.8781 32.5254C25.6677 34.9942 26.7252 37.3498 27.9049 39.6534C30.483 44.6924 33.5032 49.4608 36.7615 54.0836C36.8097 54.1512 36.8695 54.2111 36.941 54.293L36.9384 54.2943Z" fill="url(#paint0_linear_625_1443)"/>
<path d="M36.201 59.9082C33.8011 59.8562 31.413 59.6715 29.0405 59.3307C27.0673 59.0472 25.1084 58.6817 23.2627 57.8817C22.624 57.6047 22.014 57.273 21.5314 56.7566C20.7796 55.9501 20.79 54.9655 21.5613 54.1799C22.2143 53.5139 23.0481 53.1432 23.9039 52.8258C25.5155 52.2275 27.2 51.9231 28.8909 51.6578C29.3709 51.5823 29.726 51.8347 29.7741 52.2483C29.8196 52.6424 29.5348 52.9416 29.0665 53.0157C27.2468 53.3019 25.4323 53.6231 23.7361 54.3802C23.3355 54.5584 22.9531 54.8003 22.6084 55.0709C22.2455 55.3557 22.2338 55.6822 22.6162 55.9254C23.2041 56.2987 23.8233 56.659 24.4763 56.8893C26.8084 57.7126 29.2421 58.0534 31.6953 58.2836C34.2369 58.5217 36.7811 58.5464 39.3279 58.4618C42.1479 58.3682 44.947 58.0768 47.6941 57.3991C48.7243 57.1442 49.7415 56.8411 50.6767 56.3221C50.8653 56.2181 51.0474 56.0945 51.2087 55.954C51.5768 55.6341 51.6067 55.3466 51.2139 55.0735C50.7209 54.7314 50.1902 54.4231 49.6361 54.1955C48.2782 53.6362 46.8409 53.3552 45.3984 53.1159C44.8859 53.0313 44.3695 52.9702 43.8544 52.8947C43.4278 52.8323 43.1871 52.6242 43.152 52.2951C43.1 51.8034 43.4304 51.4731 43.9533 51.5368C44.6843 51.6252 45.4153 51.7241 46.1385 51.8555C47.5771 52.1182 49.0118 52.4174 50.3541 53.0144C50.942 53.2759 51.5287 53.5867 52.032 53.9821C53.1624 54.8718 53.1325 56.127 52.0125 57.0336C51.1098 57.7646 50.0406 58.1523 48.9454 58.4709C46.2256 59.2631 43.4304 59.5844 40.6156 59.7521C39.1458 59.8393 37.6708 59.8614 36.1984 59.9121L36.201 59.9082Z" fill="url(#paint1_linear_625_1443)"/>
<path d="M36.9775 35.6043C32.4393 35.6355 28.6854 31.9649 28.6555 27.4618C28.6243 22.8429 32.2975 19.1007 36.9255 19.1046C41.4572 19.1072 45.1382 22.7141 45.1824 27.3447C45.2254 31.8387 41.5131 35.5731 36.9775 35.6043ZM36.9112 34.2385C40.6507 34.2723 43.7777 31.1896 43.8154 27.4344C43.8531 23.6441 40.7756 20.4912 37.0074 20.4626C33.169 20.434 30.055 23.492 30.0238 27.3226C29.9926 31.1168 33.0662 34.2034 36.9112 34.2385Z" fill="url(#paint2_linear_625_1443)"/>
<defs>
<linearGradient id="paint0_linear_625_1443" x1="22.5469" y1="32.9241" x2="51.2882" y2="32.9241" gradientUnits="userSpaceOnUse">
<stop stop-color="#BE6552"/>
<stop offset="0.490144" stop-color="#ECA9A0"/>
<stop offset="1" stop-color="#BE6552"/>
</linearGradient>
<linearGradient id="paint1_linear_625_1443" x1="20.9751" y1="55.3981" x2="52.8662" y2="55.3981" gradientUnits="userSpaceOnUse">
<stop stop-color="#BE6552"/>
<stop offset="0.490144" stop-color="#ECA9A0"/>
<stop offset="1" stop-color="#BE6552"/>
</linearGradient>
<linearGradient id="paint2_linear_625_1443" x1="28.6553" y1="26.7199" x2="45.1828" y2="26.7199" gradientUnits="userSpaceOnUse">
<stop stop-color="#BE6552"/>
<stop offset="0.490144" stop-color="#ECA9A0"/>
<stop offset="1" stop-color="#BE6552"/>
</linearGradient>
</defs>
</svg>
