<svg width="21" height="22" viewBox="0 0 21 22" fill="none" xmlns="http://www.w3.org/2000/svg">
<path d="M10.5 2.63916C8.81268 2.63916 7.16325 3.13951 5.7603 4.07694C4.35734 5.01436 3.26387 6.34676 2.61816 7.90564C1.97245 9.46452 1.8035 11.1799 2.13268 12.8348C2.46186 14.4897 3.27438 16.0098 4.4675 17.2029C5.66062 18.396 7.18074 19.2086 8.83564 19.5377C10.4905 19.8669 12.2059 19.698 13.7648 19.0523C15.3237 18.4065 16.6561 17.3131 17.5935 15.9101C18.5309 14.5072 19.0313 12.8577 19.0313 11.1704C19.0289 8.90851 18.1293 6.73995 16.5299 5.14054C14.9305 3.54114 12.7619 2.64155 10.5 2.63916ZM10.5 18.3892C9.07227 18.3892 7.6766 17.9658 6.48948 17.1726C5.30236 16.3794 4.37712 15.252 3.83075 13.9329C3.28438 12.6139 3.14142 11.1624 3.41996 9.7621C3.6985 8.3618 4.38602 7.07554 5.39558 6.06598C6.40514 5.05642 7.6914 4.3689 9.0917 4.09037C10.492 3.81183 11.9434 3.95478 13.2625 4.50115C14.5816 5.04752 15.709 5.97277 16.5022 7.15989C17.2954 8.347 17.7188 9.74268 17.7188 11.1704C17.7166 13.0843 16.9553 14.9191 15.602 16.2724C14.2487 17.6257 12.4139 18.387 10.5 18.3892ZM15.75 11.1704C15.75 11.3445 15.6809 11.5114 15.5578 11.6344C15.4347 11.7575 15.2678 11.8267 15.0938 11.8267H10.5C10.326 11.8267 10.159 11.7575 10.036 11.6344C9.91289 11.5114 9.84375 11.3445 9.84375 11.1704V6.57666C9.84375 6.40261 9.91289 6.23569 10.036 6.11262C10.159 5.98955 10.326 5.92041 10.5 5.92041C10.6741 5.92041 10.841 5.98955 10.964 6.11262C11.0871 6.23569 11.1563 6.40261 11.1563 6.57666V10.5142H15.0938C15.2678 10.5142 15.4347 10.5833 15.5578 10.7064C15.6809 10.8294 15.75 10.9964 15.75 11.1704Z" fill="url(#paint0_linear_471_1726)"/>
<defs>
<linearGradient id="paint0_linear_471_1726" x1="1.96875" y1="10.5141" x2="19.0313" y2="10.5141" gradientUnits="userSpaceOnUse">
<stop stop-color="#BE6552"/>
<stop offset="0.490144" stop-color="#ECA9A0"/>
<stop offset="1" stop-color="#BE6552"/>
</linearGradient>
</defs>
</svg>
