<svg width="21" height="22" viewBox="0 0 21 22" fill="none" xmlns="http://www.w3.org/2000/svg">
<path d="M10.5 5.92041C9.85103 5.92041 9.21663 6.11285 8.67704 6.4734C8.13744 6.83395 7.71687 7.34641 7.46852 7.94598C7.22017 8.54555 7.15519 9.2053 7.2818 9.8418C7.40841 10.4783 7.72091 11.063 8.17981 11.5219C8.6387 11.9807 9.22336 12.2933 9.85986 12.4199C10.4964 12.5465 11.1561 12.4815 11.7557 12.2331C12.3553 11.9848 12.8677 11.5642 13.2283 11.0246C13.5888 10.485 13.7812 9.85063 13.7812 9.20166C13.7812 8.33142 13.4355 7.49682 12.8202 6.88147C12.2048 6.26611 11.3702 5.92041 10.5 5.92041ZM10.5 11.1704C10.1106 11.1704 9.72998 11.0549 9.40622 10.8386C9.08246 10.6223 8.83012 10.3148 8.68111 9.95507C8.5321 9.59533 8.49311 9.19948 8.56908 8.81758C8.64504 8.43568 8.83255 8.08488 9.10788 7.80954C9.38322 7.53421 9.73402 7.3467 10.1159 7.27074C10.4978 7.19477 10.8937 7.23376 11.2534 7.38277C11.6131 7.53178 11.9206 7.78412 12.137 8.10788C12.3533 8.43164 12.4688 8.81228 12.4688 9.20166C12.4688 9.72381 12.2613 10.2246 11.8921 10.5938C11.5229 10.963 11.0221 11.1704 10.5 11.1704ZM10.5 1.98291C8.58613 1.98508 6.75128 2.74632 5.39797 4.09963C4.04466 5.45294 3.28342 7.2878 3.28125 9.20166C3.28125 11.7774 4.47152 14.5074 6.72656 17.0972C7.73983 18.2674 8.88025 19.3212 10.1268 20.239C10.2371 20.3163 10.3686 20.3577 10.5033 20.3577C10.638 20.3577 10.7695 20.3163 10.8798 20.239C12.124 19.3208 13.2622 18.267 14.2734 17.0972C16.5252 14.5074 17.7188 11.7774 17.7188 9.20166C17.7166 7.2878 16.9553 5.45294 15.602 4.09963C14.2487 2.74632 12.4139 1.98508 10.5 1.98291ZM10.5 18.8813C9.14402 17.8149 4.59375 13.898 4.59375 9.20166C4.59375 7.63523 5.21601 6.13295 6.32365 5.02531C7.43129 3.91767 8.93357 3.29541 10.5 3.29541C12.0664 3.29541 13.5687 3.91767 14.6763 5.02531C15.784 6.13295 16.4062 7.63523 16.4062 9.20166C16.4062 13.8963 11.856 17.8149 10.5 18.8813Z" fill="url(#paint0_linear_471_1721)"/>
<defs>
<linearGradient id="paint0_linear_471_1721" x1="3.28125" y1="10.4636" x2="17.7187" y2="10.4636" gradientUnits="userSpaceOnUse">
<stop stop-color="#BE6552"/>
<stop offset="0.490144" stop-color="#ECA9A0"/>
<stop offset="1" stop-color="#BE6552"/>
</linearGradient>
</defs>
</svg>
