<svg width="21" height="22" viewBox="0 0 21 22" fill="none" xmlns="http://www.w3.org/2000/svg">
<path d="M18.1773 13.8199L14.3022 12.0833C14.1266 12.0081 13.935 11.9778 13.7448 11.9953C13.5546 12.0128 13.3717 12.0774 13.2128 12.1834C13.1967 12.1937 13.1813 12.2053 13.1668 12.2178L11.1415 13.9405C11.1205 13.952 11.0971 13.9584 11.0732 13.9592C11.0492 13.9601 11.0255 13.9554 11.0037 13.9454C9.70184 13.3171 8.35325 11.9767 7.72243 10.6929C7.71193 10.6714 7.70647 10.6479 7.70647 10.624C7.70647 10.6001 7.71193 10.5765 7.72243 10.5551L9.45083 8.50429C9.46323 8.48911 9.47473 8.47323 9.48528 8.45671C9.58978 8.29716 9.6529 8.1141 9.66894 7.92406C9.68498 7.73401 9.65344 7.54296 9.57716 7.36816L7.85286 3.49956C7.75494 3.27119 7.58559 3.08075 7.37024 2.9568C7.15488 2.83285 6.90514 2.78209 6.65849 2.81214C5.58652 2.95307 4.60255 3.4795 3.89044 4.29305C3.17834 5.10661 2.78682 6.15162 2.78907 7.2328C2.78907 13.6559 8.01446 18.8812 14.4375 18.8812C15.5186 18.8833 16.5636 18.4917 17.3771 17.7797C18.1906 17.0676 18.7171 16.0837 18.8582 15.0118C18.8882 14.7663 18.8381 14.5177 18.7154 14.303C18.5927 14.0882 18.404 13.9188 18.1773 13.8199ZM14.4375 17.8969C8.55751 17.8969 3.77345 13.1128 3.77345 7.2328C3.7707 6.39111 4.0745 5.5772 4.62809 4.94316C5.18167 4.30911 5.94716 3.89831 6.78153 3.78749H6.8004C6.83346 3.78811 6.86556 3.7987 6.89249 3.81788C6.91942 3.83705 6.93994 3.86392 6.95134 3.89495L8.6822 7.75945C8.69207 7.78093 8.69718 7.8043 8.69718 7.82794C8.69718 7.85159 8.69207 7.87495 8.6822 7.89644L6.95052 9.95214C6.9376 9.96682 6.92581 9.98245 6.91524 9.9989C6.80688 10.1643 6.74308 10.3549 6.73 10.5522C6.71692 10.7496 6.75502 10.9469 6.8406 11.1252C7.56821 12.6149 9.06938 14.1046 10.5755 14.8322C10.7548 14.9173 10.9531 14.9545 11.1511 14.9401C11.349 14.9257 11.5399 14.8603 11.705 14.7501C11.7206 14.7395 11.7362 14.728 11.751 14.7157L13.7755 12.993C13.7955 12.9823 13.8176 12.976 13.8402 12.9746C13.8629 12.9732 13.8856 12.9767 13.9068 12.9848L17.7827 14.7214C17.8144 14.7349 17.841 14.758 17.8588 14.7875C17.8766 14.8169 17.8848 14.8512 17.882 14.8855C17.7718 15.7203 17.3613 16.4863 16.7274 17.0405C16.0935 17.5947 15.2795 17.8991 14.4375 17.8969Z" fill="url(#paint0_linear_471_1730)"/>
<defs>
<linearGradient id="paint0_linear_471_1730" x1="2.78906" y1="10.2241" x2="18.8666" y2="10.2241" gradientUnits="userSpaceOnUse">
<stop stop-color="#BE6552"/>
<stop offset="0.490144" stop-color="#ECA9A0"/>
<stop offset="1" stop-color="#BE6552"/>
</linearGradient>
</defs>
</svg>
