<svg width="73" height="73" viewBox="0 0 73 73" fill="none" xmlns="http://www.w3.org/2000/svg">
<path d="M56.6017 23.6142C55.755 22.666 54.9874 21.8757 54.3213 21.0177C54.0955 20.7242 54.1068 20.2388 54.0165 19.8324C54.4342 19.9566 54.8632 20.0807 55.2809 20.2049C55.3148 20.2049 55.326 20.2614 55.3486 20.2839C57.6403 22.0789 58.0919 24.4383 58.0354 27.2719C57.8548 35.6936 57.979 44.1153 57.9564 52.537C57.9564 53.124 57.9 53.7788 57.6516 54.2981C57.1549 55.3593 55.8228 55.8786 54.739 55.5851C53.5198 55.2577 52.7408 54.2304 52.7408 52.8531C52.7295 49.0148 52.7408 45.1878 52.7408 41.3495C52.7408 40.1302 52.7634 38.911 52.7408 37.6918C52.707 36.4048 52.0635 35.5807 50.6523 35.1066C50.6185 35.8742 50.5282 36.5967 50.5507 37.3192C50.5846 38.2675 50.2233 38.753 49.2299 38.6514C49.1283 38.6401 49.0154 38.6514 48.9025 38.6514C47.2618 38.6514 46.4415 39.4943 46.4415 41.1801C46.4415 44.9394 46.4641 48.71 46.4302 52.4693C46.4302 53.395 46.656 53.903 47.6833 53.8127C48.4735 53.7449 48.7332 54.1514 48.7219 54.919C48.6767 57.7865 48.9703 57.3688 46.3625 57.3688C36.7554 57.38 27.1597 57.3688 17.5526 57.3688C16.4237 57.3688 15.8592 56.7855 15.8592 55.6189C15.8592 55.4383 15.8705 55.2577 15.8592 55.0771C15.7915 54.1852 16.1527 53.7111 17.101 53.7788C17.8687 53.8353 18.1509 53.5079 18.1396 52.7063C18.1058 48.3713 18.1058 44.0363 18.1396 39.7013C18.1396 38.832 17.8574 38.6062 17.0333 38.6175C13.5675 38.6514 14.0755 38.9788 14.0417 35.5694C14.0304 34.1018 14.0868 32.6343 14.0191 31.1667C13.9739 30.2071 14.3691 29.8684 15.2722 29.9249C15.8818 29.9587 16.4914 29.9023 17.101 29.9249C17.88 29.9587 18.1509 29.6426 18.1396 28.8524C18.1058 25.3076 18.117 21.7515 18.1283 18.2067C18.1283 15.4522 19.5395 14.0072 22.2602 13.9959C28.9208 13.9846 35.5926 13.9846 42.2532 13.9959C45.0868 13.9959 46.3851 15.3167 46.3963 18.139C46.4076 21.5822 46.4302 25.0254 46.385 28.4573C46.3738 29.4507 46.6221 29.8458 47.7059 29.8233C50.4266 29.7555 50.4378 29.8233 50.483 32.5327C50.483 33.1536 50.5959 33.6051 51.2845 33.8535C53.3053 34.5986 54.0729 36.2016 54.0729 38.2337C54.0842 43.1106 54.0729 47.9762 54.0955 52.8531C54.0955 53.3272 54.31 53.9256 54.6374 54.2417C55.247 54.8287 56.2743 54.5239 56.5791 53.7224C56.7485 53.2708 56.7823 52.7402 56.7936 52.2548C56.8049 45.4474 56.7936 38.6401 56.8162 31.8327C56.8162 30.986 56.7485 30.4667 55.6986 30.3426C54.4455 30.1845 53.8472 29.2927 53.8246 27.9831C53.8246 27.5541 53.8246 27.1252 53.8246 26.6962C53.8246 24.6867 54.3778 24.0094 56.6243 23.5691L56.6017 23.6142ZM19.4266 35.2082C19.4266 40.9769 19.4492 46.7457 19.404 52.5144C19.404 53.4966 19.675 53.824 20.6571 53.824C28.3902 53.7901 36.1345 53.7901 43.8676 53.824C44.8836 53.824 45.211 53.4966 45.211 52.458C45.1771 41.1011 45.1884 29.7442 45.1884 18.3874C45.1884 16.1634 44.274 15.249 42.0839 15.249C35.5588 15.249 29.0449 15.249 22.5198 15.249C20.2168 15.249 19.4266 16.0279 19.4266 18.3422C19.4266 23.9642 19.4266 29.5975 19.4266 35.2195V35.2082ZM32.3301 55.0319C27.7467 55.0319 23.1633 55.0319 18.5799 55.0319C18.2525 55.0319 17.9138 54.9755 17.6203 55.0771C17.4171 55.1448 17.1913 55.4157 17.1462 55.6302C17.1236 55.7657 17.3832 56.0366 17.5752 56.1044C17.8348 56.1947 18.1396 56.1721 18.4218 56.1721C27.6676 56.1721 36.9022 56.1721 46.148 56.1721C46.4302 56.1721 46.7463 56.1947 46.9947 56.1044C47.1866 56.0366 47.4575 55.7431 47.4237 55.6189C47.3785 55.4044 47.1414 55.1335 46.9382 55.0658C46.6447 54.9642 46.306 55.0206 45.9787 55.0206C41.4291 55.0206 36.8796 55.0206 32.3301 55.0206V55.0319ZM49.2864 34.3163C49.2864 33.5713 49.2638 32.8149 49.2864 32.0698C49.3202 31.3699 49.0154 31.0989 48.3381 31.1441C47.9881 31.1667 47.6269 31.1667 47.2656 31.1441C46.6898 31.1102 46.3963 31.3586 46.3963 31.9456C46.3963 33.4809 46.3738 35.0163 46.4302 36.5403C46.4302 36.7999 46.7237 37.2289 46.9495 37.2967C48.7445 37.7821 49.2864 37.3418 49.2864 35.4904C49.2864 35.0953 49.2864 34.7115 49.2864 34.3163ZM15.2948 37.3305C16.1753 37.3305 16.8188 37.3983 17.4397 37.2967C17.6881 37.2515 18.0719 36.8451 18.0719 36.5967C18.1283 35.0276 18.1283 33.4471 18.0719 31.8779C18.0719 31.6295 17.6881 31.257 17.4171 31.178C16.9881 31.0651 16.4801 31.0651 16.0398 31.178C15.7576 31.257 15.3286 31.6069 15.3286 31.844C15.2722 33.6277 15.2948 35.4001 15.2948 37.3305ZM56.7823 27.1364C56.7823 26.7413 56.8614 26.3236 56.7598 25.9624C56.6582 25.6463 56.2743 25.1157 56.1501 25.1496C55.7776 25.2512 55.247 25.556 55.2019 25.8495C55.0664 26.651 55.0664 27.4977 55.2019 28.2992C55.2583 28.6153 55.8002 28.8524 56.1276 29.1233C56.3534 28.8185 56.6469 28.5476 56.7598 28.2089C56.8727 27.8928 56.7823 27.509 56.7823 27.1477V27.1364Z" fill="url(#paint0_linear_436_3087)"/>
<path d="M32.3078 17.5519C35.4914 17.5519 38.6749 17.5745 41.8584 17.5406C42.7841 17.5406 43.1341 17.8455 43.1228 18.7825C43.0777 21.2886 43.0889 23.7948 43.1228 26.301C43.1228 27.1816 42.7728 27.509 41.9036 27.509C35.5026 27.4977 29.0904 27.4977 22.6895 27.509C21.8879 27.509 21.5154 27.2606 21.5267 26.4026C21.5606 23.8287 21.5606 21.2435 21.5267 18.6696C21.5154 17.8342 21.7976 17.5406 22.6443 17.5406C25.8617 17.5745 29.0904 17.5519 32.3078 17.5519ZM32.3417 26.1655C35.164 26.1655 37.9976 26.143 40.8198 26.1768C41.5762 26.1768 41.8133 25.9398 41.7907 25.1947C41.7455 23.3658 41.7455 21.5483 41.7907 19.7195C41.8133 18.9405 41.4746 18.726 40.7747 18.726C35.0849 18.7373 29.3952 18.7373 23.7055 18.726C22.983 18.726 22.6782 19.0082 22.7008 19.7533C22.7346 21.537 22.7346 23.332 22.7008 25.127C22.6895 25.9059 22.9491 26.1994 23.7507 26.1881C26.6181 26.1543 29.4742 26.1768 32.3417 26.1768V26.1655Z" fill="url(#paint1_linear_436_3087)"/>
<path d="M35.8299 45.6393C35.8977 47.1859 35.2655 48.3713 33.8882 49.0599C32.6013 49.7034 31.3143 49.6131 30.1515 48.7325C28.9323 47.8068 28.4469 46.5425 28.7517 45.041C29.0339 43.6411 29.3839 42.2639 29.7338 40.8753C29.8354 40.4689 30.0048 40.0625 30.208 39.6787C30.6821 38.7868 31.145 37.7821 32.319 37.7934C33.448 37.7934 34.0124 38.7529 34.3172 39.6448C34.9946 41.5865 35.5139 43.5734 36.1009 45.549C36.0106 45.5716 35.9203 45.6054 35.8299 45.628V45.6393ZM29.7451 45.2668C29.9709 46.8924 30.9305 48.0439 32.2626 48.0552C33.4931 48.0778 34.8252 46.8924 34.5994 45.628C34.2382 43.6411 33.6399 41.6881 32.9738 39.7915C32.6464 38.8545 31.9578 38.8771 31.5852 39.8254C30.8853 41.5978 30.3547 43.4492 29.7451 45.2668Z" fill="url(#paint2_linear_436_3087)"/>
<path d="M32.3186 31.1553C30.5688 31.1553 28.8077 31.1779 27.0579 31.1328C26.7192 31.1328 26.3918 30.7941 26.0645 30.6134C26.4031 30.399 26.7305 29.9925 27.0692 29.9925C30.5688 29.9474 34.0797 29.9474 37.5794 29.9925C37.9068 29.9925 38.2228 30.3651 38.5502 30.557C38.2228 30.7602 37.9068 31.1215 37.5681 31.1328C35.8183 31.1892 34.0684 31.1553 32.3073 31.1553H32.3186Z" fill="url(#paint3_linear_436_3087)"/>
<path d="M32.2288 34.1695C30.5128 34.1695 28.7969 34.2034 27.0809 34.147C26.7422 34.147 26.4148 33.8083 26.0762 33.6277C26.4036 33.4019 26.7309 32.9729 27.0696 32.9729C30.5354 32.9277 34.0124 32.9277 37.4782 32.9729C37.8395 32.9729 38.2007 33.3454 38.562 33.5486C38.2007 33.7518 37.8507 34.1244 37.4895 34.1357C35.7397 34.2034 33.9899 34.1583 32.2288 34.1695Z" fill="url(#paint4_linear_436_3087)"/>
<defs>
<linearGradient id="paint0_linear_436_3087" x1="14.0156" y1="34.0194" x2="58.0399" y2="34.0194" gradientUnits="userSpaceOnUse">
<stop stop-color="#BE6552"/>
<stop offset="0.490144" stop-color="#ECA9A0"/>
<stop offset="1" stop-color="#BE6552"/>
</linearGradient>
<linearGradient id="paint1_linear_436_3087" x1="21.5264" y1="22.1414" x2="43.1231" y2="22.1414" gradientUnits="userSpaceOnUse">
<stop stop-color="#BE6552"/>
<stop offset="0.490144" stop-color="#ECA9A0"/>
<stop offset="1" stop-color="#BE6552"/>
</linearGradient>
<linearGradient id="paint2_linear_436_3087" x1="28.6631" y1="43.1864" x2="36.1009" y2="43.1864" gradientUnits="userSpaceOnUse">
<stop stop-color="#BE6552"/>
<stop offset="0.490144" stop-color="#ECA9A0"/>
<stop offset="1" stop-color="#BE6552"/>
</linearGradient>
<linearGradient id="paint3_linear_436_3087" x1="26.0645" y1="30.5156" x2="38.5502" y2="30.5156" gradientUnits="userSpaceOnUse">
<stop stop-color="#BE6552"/>
<stop offset="0.490144" stop-color="#ECA9A0"/>
<stop offset="1" stop-color="#BE6552"/>
</linearGradient>
<linearGradient id="paint4_linear_436_3087" x1="26.0762" y1="33.5116" x2="38.562" y2="33.5116" gradientUnits="userSpaceOnUse">
<stop stop-color="#BE6552"/>
<stop offset="0.490144" stop-color="#ECA9A0"/>
<stop offset="1" stop-color="#BE6552"/>
</linearGradient>
</defs>
</svg>
