<svg width="175" height="166" viewBox="0 0 175 166" fill="none" xmlns="http://www.w3.org/2000/svg">
<path fill-rule="evenodd" clip-rule="evenodd" d="M111.199 120.368C104.916 126.101 99.5072 129.19 88.1127 135.175C77.5062 130.345 70.5834 125.583 64.58 120.893C56.2836 114.425 50.3241 103.923 49.807 97.4816L45.668 36.1751C73.7078 28.8762 103.533 29.0423 129.332 36.6653L125.133 97.3509C124.598 102.847 119.688 113.533 111.199 120.368ZM120.329 95.3404L124.118 41.149C101.915 34.0687 75.3194 33.9637 50.8148 40.4049L54.6828 95.3056C55.0857 101.011 59.19 109.737 67.0578 116.424C71.7927 120.45 81.0695 127.207 87.9209 129.797C95.8156 125.798 102.991 120.827 108.68 115.917C115.734 109.483 119.9 101.484 120.329 95.3404ZM107.769 114.486C102.317 119.195 94.975 124.473 87.9209 127.842C81.6202 125.89 72.3085 118.696 67.8276 114.828C60.0123 108.071 56.8354 101 56.3543 94.3126L52.556 41.9069C75.8878 35.7722 101.355 35.7722 122.515 42.5192L118.762 94.2253C118.219 101.104 115.024 107.677 107.769 114.486ZM54.2999 42.9255L55.0526 51.9575C77.3253 46.3826 100.658 46.943 120.025 52.8067L120.856 43.6172C100.788 37.4557 76.4242 37.123 54.2999 42.9255ZM109.687 46.2776L104.663 45.4462L104.47 47.8093L102.834 47.5639L103.219 41.298L104.891 41.5434L104.716 43.9499L109.81 44.7722L109.976 42.3657L111.682 42.6893L111.166 48.9729L109.503 48.667L109.687 46.2776ZM85.4431 44.1513C84.8302 44.1513 84.34 43.9853 84.0164 43.4426C83.7368 42.9963 83.7368 41.5434 84.0164 41.0623C84.3228 40.5025 84.8741 40.345 85.3295 40.345L92.4532 40.3535L92.4697 41.8938L85.7318 41.8846C85.3991 41.8846 85.3906 42.6288 85.7581 42.6288H91.0699C91.6919 42.6288 92.2426 43.0049 92.4172 43.4951C92.6101 44.0201 92.5753 45.2105 92.4172 45.7007C92.2689 46.1909 91.7085 46.462 91.0082 46.462H83.9816L83.9725 44.8864H90.2293C90.3218 44.8791 90.4081 44.8372 90.471 44.7691C90.534 44.7009 90.5689 44.6116 90.5689 44.5188C90.5689 44.4261 90.534 44.3367 90.471 44.2686C90.4081 44.2005 90.3218 44.1586 90.2293 44.1513H85.4431ZM81.3217 44.7774C81.3202 44.699 81.3032 44.6217 81.2714 44.55C81.2397 44.4783 81.194 44.4137 81.1369 44.3599C81.0799 44.3061 81.0127 44.2642 80.9393 44.2367C80.8659 44.2093 80.7877 44.1967 80.7094 44.1998L75.9831 44.5411L76.079 46.8866L74.5473 47.0441L74.2231 40.8569L81.2601 40.3313C82.1703 40.2616 82.7039 40.9442 82.7472 41.5131C82.7997 42.1871 82.826 43.0534 82.3004 43.4123C82.7387 43.7359 82.8522 44.2175 82.8608 44.8915L82.8785 46.4757L81.3468 46.5367L81.3217 44.7774ZM80.3179 42.7692C80.9217 42.7344 80.8692 41.7973 80.3179 41.8504L75.8193 42.1917L75.8718 43.0494L80.3179 42.7692ZM65.5809 41.9474C67.0247 41.6061 69.9825 41.1336 71.5319 41.0195C72.2406 40.9676 72.7919 41.3351 72.8883 41.8863C73.116 43.1555 73.2564 44.4681 73.0989 46.2274C73.055 46.7348 72.6173 47.1376 72.0398 47.2603C70.0538 47.698 67.8214 47.9343 66.167 48.0918C65.747 48.1357 65.0821 47.803 64.968 47.278C64.6793 45.9997 64.5743 44.2147 64.6616 42.9894C64.6969 42.5335 65.117 42.0524 65.5809 41.9474ZM71.202 45.7161C71.4029 45.6727 71.4908 45.4536 71.5085 45.2961C71.5787 44.8145 71.517 43.5544 71.4029 43.1338C71.3681 42.9678 71.2283 42.8628 70.9133 42.889C70.0555 42.9415 67.7883 43.2657 66.6686 43.5105C66.3713 43.5807 66.2572 43.7553 66.24 43.9128C66.1875 44.3242 66.3097 45.453 66.4152 46.0836C66.4415 46.2326 66.6344 46.337 66.7827 46.329C68.2962 46.2063 70.0818 45.9615 71.202 45.7161ZM96.0199 42.2082C95.6866 42.1991 95.4595 42.4005 95.4338 42.5757C95.3545 43.0922 95.3276 43.757 95.3276 44.6238C95.3276 44.7374 95.5205 45.0524 95.6866 45.0787C97.1926 45.2887 100.115 45.5518 101.708 45.6568L101.612 47.2757C99.5198 47.1799 97.3318 46.8472 95.0657 46.6891C94.3221 46.6366 93.7794 46.2343 93.7526 45.5169C93.7092 44.3351 93.7794 42.5495 93.9889 41.5086C94.1292 40.8694 94.741 40.5373 95.4332 40.5544C97.5242 40.6332 99.1871 40.8169 101.927 41.1844L101.822 42.7954C100.492 42.6807 97.9716 42.287 96.0199 42.2082ZM61.7728 42.6779C63.8906 42.1791 64.2142 45.9421 62.4462 46.3798L57.5105 47.6142L57.7468 50.0469L56.198 50.4589L55.6467 44.1217L61.7728 42.6779ZM61.7472 45.1426C62.2545 45.029 62.1849 44.1194 61.6416 44.2329L57.1869 45.3092L57.2925 46.2463L61.7472 45.1426ZM114.12 47.2158L114.015 48.231L118.907 49.4648L118.776 50.8829L112.212 49.3342L112.782 42.9535L119.389 44.5554L119.24 46.0431L114.322 44.8527L114.226 45.9295L119.109 47.1194L118.986 48.3794L114.12 47.2158ZM66.7788 65.3751C66.0962 66.2853 65.4662 67.6857 65.1689 68.8756C65.0633 69.2785 65.0633 69.4269 65.1341 69.6894C65.7812 69.4006 66.6218 69.1204 67.1115 68.9629C67.3043 68.5349 67.4088 68.0441 67.5754 67.6504C67.8373 67.038 68.004 66.775 68.2756 66.3464C69.0546 65.1388 70.6998 63.9484 71.9159 63.9747C71.513 64.3245 70.673 65.1999 70.3409 65.7249C70.0698 66.1626 69.8159 66.6351 69.623 67.1253C69.4569 67.5636 69.4044 67.8866 69.3605 68.2456C69.9905 68.0618 70.6119 67.9306 71.0143 67.9043C71.2859 67.7554 71.3732 67.466 71.5222 67.195C71.9855 66.3287 72.8958 65.3568 73.4739 65.0424C73.9372 64.7885 74.6203 64.5436 75.11 64.7011C74.5849 65.0949 74.0337 65.7249 73.7889 66.1016C73.5349 66.5039 73.1235 67.2834 73.1411 67.6504C73.5703 67.6857 74.1826 67.6504 74.428 67.5893L74.4012 66.3812L86.977 66.3721L86.9685 49.1658C77.1838 49.1658 66.4632 50.0937 55.0949 53.2706L57.4403 85.5905H74.3921V79.2732C73.7095 78.7659 70.5412 78.3978 68.5901 79.1591C68.1175 79.3428 66.5773 80.0082 65.8771 80.5589L63.9083 82.1174C63.7154 82.2749 63.6983 82.6162 63.6983 82.8781C63.6983 83.4556 63.0243 83.8933 62.6482 83.7706C62.3418 83.6656 61.9218 83.6046 61.5366 83.6925C61.1251 83.7792 60.7582 83.2622 60.7228 82.966C60.6703 82.5979 60.9596 82.1174 60.9768 81.9593C60.9944 81.8104 60.898 81.2237 61.4401 80.8654C61.685 80.7084 62.0262 80.7164 62.2716 80.8482C62.3429 80.8898 62.4275 80.9025 62.5079 80.8836C62.5957 80.8482 62.832 80.6388 62.8931 80.5863C62.9193 80.2365 62.8668 79.6846 62.9022 79.3788C62.9809 78.7836 63.0158 78.4423 63.1995 77.8642C63.357 77.3654 63.6983 76.6396 63.9517 76.2275C64.407 75.4839 65.3081 74.766 65.9827 74.8271C65.7196 75.1775 65.6323 75.3613 65.44 75.7202C65.081 76.3765 64.7483 77.4619 64.5914 78.1969C64.4858 78.6694 64.4339 79.0375 64.4601 79.5357C64.9766 79.1511 65.5187 78.8355 65.8777 78.6346C66.0437 77.7678 66.3856 76.8319 66.7525 76.1408C67.1902 75.3088 68.3715 74.4071 69.1425 74.4773C68.416 75.2648 67.899 76.3588 67.7067 77.059C67.6279 77.3386 67.5315 77.6633 67.576 77.838C67.8642 77.6805 68.4599 77.523 68.7481 77.4967C68.941 77.0156 69.2035 76.4375 69.4227 76.0963C70.1052 75.0457 71.1815 74.4071 71.7944 74.4333C71.3127 75.0811 70.9013 75.6671 70.6039 76.534C70.5161 76.7874 70.4727 77.059 70.4727 77.1903C70.8488 77.1292 71.4354 77.1292 71.6717 77.1292C72.1094 76.7354 72.4238 76.2623 72.9494 75.86C73.3871 75.5182 74.2009 75.0548 74.3932 75.0194V69.7071C74.3932 69.5929 73.0019 69.4885 72.3103 69.5758C70.4727 69.7949 65.8782 71.2387 63.9351 72.5781C63.8912 72.6922 63.9003 73.3308 63.7685 73.6281C63.6549 73.8992 63.3661 74.1794 63.0865 74.3021C62.5878 74.5212 62.0097 73.8558 61.7557 73.9523C61.4932 74.0487 60.9334 74.2758 60.329 73.8473C60.058 73.6549 59.9182 73.1117 60.014 72.7099C60.1019 72.4206 60.3467 72.1935 60.539 72.0097C60.7142 71.8345 60.5916 71.1606 61.221 70.7582C61.6593 70.478 62.2625 70.7057 62.727 70.9506C62.8214 70.9205 62.908 70.8698 62.9804 70.8022C63.0414 70.6178 63.1379 70.058 63.2258 69.6203C63.3308 69.1472 63.3661 68.8414 63.506 68.4042C63.8564 67.3456 64.6958 65.8225 65.5718 65.0259C66.2629 64.413 67.3391 63.9233 68.1358 63.9758C68.0565 64.0968 67.0681 64.9813 66.7788 65.3751ZM68.8018 55.0152C69.4672 54.0878 71.2174 52.6874 72.5653 52.7667C71.8298 53.4053 71.182 54.1141 70.7272 54.8668C70.1326 55.8386 69.6509 57.0547 69.5459 57.9918C69.9922 57.8251 71.0422 57.5278 71.646 57.3966C72.1801 56.2324 72.8804 54.9461 73.7472 54.2545C74.3681 53.7557 75.2606 53.3271 76.0927 53.423C75.8998 53.6946 75.5848 53.9046 75.3485 54.1232C74.9199 54.4993 74.6226 55.0072 74.3858 55.5236C74.2106 55.9083 73.9133 57.0639 73.9041 57.1164C74.5079 57.1078 75.5756 57.1774 75.8033 57.2476C76.5127 56.3197 78.062 54.9718 79.9167 55.2782C79.1115 55.7154 77.6414 56.9925 77.7293 57.6933C78.9369 58.4729 80.7396 60.109 80.8184 61.6235C79.996 60.7658 78.6395 59.9167 77.9565 59.6804C76.3198 59.1029 74.3681 59.0241 72.7405 59.3214C69.3451 59.9606 66.3433 61.4306 63.4643 63.1552C63.3947 63.6186 63.1402 64.3188 62.9302 64.5556C62.7201 64.7919 62.4051 65.019 62.0639 65.0715C61.6353 65.1417 61.197 64.9665 60.8301 64.7742C60.5933 64.6429 59.9724 64.8096 59.5786 64.599C59.3075 64.4586 58.887 64.0648 59.0011 63.444C59.097 62.8927 59.6482 62.56 59.727 62.035C59.8405 61.2646 60.4009 60.9319 60.6897 60.8799C61.0047 60.8189 61.3289 60.9239 61.617 61.0551C61.7397 61.1162 61.8704 61.2212 61.9851 61.2566C62.0987 61.2212 62.2648 61.0814 62.3612 61.038C62.3874 60.9501 62.6768 59.3488 62.8337 58.6486C62.9912 57.9484 63.2623 57.3526 63.49 56.6969C64.1731 54.7544 66.2817 52.7936 67.9715 52.8986C67.8836 53.0212 67.3409 53.415 66.5882 54.2904C65.3721 55.7165 65.0656 57.2311 64.6102 59.8305C65.5467 59.3928 66.3605 59.0778 67.2096 58.7713C67.4121 57.9656 67.6814 57.1782 68.0148 56.4173C68.2334 55.9254 68.4959 55.4443 68.8018 55.0152ZM119.806 57.1672L88.5287 57.194L88.5555 66.4006L119.106 66.3829L119.806 57.1672ZM92.1199 104.836C91.761 105.02 91.3153 104.906 91.1315 104.827C90.8159 104.695 90.6065 104.371 90.5797 103.995C90.554 103.698 90.8428 103.339 90.9038 103.014C90.9295 102.883 90.7902 102.236 91.3409 101.903C91.4471 101.842 91.761 101.728 91.9795 101.764C92.1992 101.807 92.3739 101.948 92.5924 101.982C92.8898 101.877 93.1746 101.739 93.4416 101.571C93.6168 100.896 93.748 100.119 93.8348 99.4264C92.2689 100.205 90.2201 100.73 88.479 100.801L88.4882 125.98C95.7956 122.269 103.812 116.196 107.224 112.861C112.747 107.478 116.466 102.026 117.035 94.1665L117.551 87.0075L100.95 86.9898C100.95 91.0501 99.5934 95.2868 95.7157 98.3495C95.4971 99.2335 95.3927 100.721 95.4092 100.757C95.9434 100.537 96.4427 100.346 96.8804 100.214C96.9152 100.162 97.5367 98.8055 97.8169 98.438C98.4732 97.4228 99.3571 96.5554 100.433 95.9778C101.107 95.6366 101.93 95.3216 102.656 95.5932C101.702 96.048 100.957 96.8704 100.512 97.3429C100.1 97.7812 99.6191 98.4283 99.4005 99.0937C99.3707 99.2089 99.3472 99.3257 99.3303 99.4435C99.7772 99.3031 101.203 99.0937 101.798 99.0144C101.868 99.0052 102.052 98.6121 102.192 98.4192C102.366 98.1829 102.472 98.0345 102.751 97.7189C103.469 96.94 104.685 96.1085 105.867 96.2923C105.22 96.7037 104.51 97.36 103.942 98.3923C103.863 98.5504 103.758 98.769 103.802 98.8649C103.977 98.9002 104.844 98.8825 105.369 98.9442C105.972 98.5687 106.611 98.2354 107.303 98.087C108.082 97.9118 109.097 98.0517 109.5 98.4192C109.027 98.3923 108.58 98.4802 108.152 98.6463C107.907 98.7433 107.417 98.9704 107.233 99.2849C107.696 99.4161 108.459 99.9155 108.939 100.318C109.273 100.598 109.675 101.001 109.929 101.368C110.567 102.236 110.699 103.793 110.357 104.257C110.261 103.985 110.156 103.714 110.007 103.46C109.701 102.945 109.219 102.384 108.807 102.077C106.821 100.564 103.96 100.484 101.623 100.957C99.6185 101.368 96.0039 102.122 93.6413 103.801C93.7024 104.098 93.5186 104.598 93.2481 104.79C92.8897 105.054 92.383 104.695 92.1199 104.836ZM96.0199 107.666C96.2818 107.263 96.5974 106.677 96.7543 106.423C97.3062 105.539 98.1028 104.883 98.6444 104.628C99.3891 104.269 100.587 104.06 101.121 104.322C100.535 104.462 100.089 104.733 99.6779 105.022C99.2578 105.312 98.4338 106.064 98.2244 106.379C97.9881 106.729 97.8312 107.044 97.7695 107.211C98.4338 107.061 99.231 106.939 99.6419 106.939C99.9392 106.562 100.727 105.662 101.314 105.241C101.786 104.908 102.793 104.576 103.423 104.847C102.819 105.04 101.752 105.88 101.357 106.484C101.271 106.623 101.191 106.773 101.174 106.851C101.498 106.878 102.11 106.939 102.443 106.982C102.478 106.982 103.388 106.423 103.8 106.309C104.334 106.159 105.209 105.967 105.761 106.554C105.358 106.562 104.982 106.597 104.684 106.729C104.255 106.921 104.071 107.061 103.879 107.332C104.719 107.779 105.595 108.243 106.11 109.066C106.294 109.354 106.574 110.037 106.417 110.483C106.154 110.151 105.795 109.827 105.506 109.661C105.095 109.425 104.797 109.197 104.298 109.005C102.732 108.418 100.685 108.261 99.0473 108.479C96.9295 108.751 94.3301 109.801 93.0005 110.711C93.0872 111.122 92.8869 111.603 92.6506 111.717C92.1513 111.971 91.6708 111.542 91.5829 111.569C91.4517 111.612 91.0488 111.753 90.7606 111.63C90.4707 111.517 90.2881 111.008 90.4016 110.685C90.4884 110.44 90.8399 110.09 90.8399 110.09C90.7863 109.556 91.1366 109.233 91.6177 109.171C91.8899 109.145 92.0811 109.354 92.3008 109.399C92.5017 109.302 92.6421 109.233 92.7465 109.179C92.8692 108.742 93.053 108.295 93.1756 107.928C93.3765 107.307 93.6738 106.755 94.0505 106.178C94.5932 105.347 95.5565 104.558 96.7018 104.542C96.352 104.813 96.15 104.962 95.9314 105.233C95.5559 105.705 95.266 106.135 95.0041 106.642C94.7678 107.089 94.5481 107.753 94.5139 108.34C95.0092 108.101 95.5114 107.876 96.0199 107.666ZM95.8504 112.399C96.1477 112.277 96.4621 112.19 96.7777 112.225C96.0421 112.697 95.3687 113.388 95.185 114.211C95.1673 114.298 95.1673 114.473 95.246 114.526C95.4555 114.473 95.9896 114.36 96.13 114.289C96.2167 114.106 96.4353 113.817 96.5848 113.624C97.1098 112.925 97.8631 112.225 98.904 112.487C98.2209 112.794 97.8272 113.222 97.5299 113.764C97.4774 113.861 97.4431 114.045 97.5122 114.045C97.6874 114.045 98.3528 114.018 98.4486 114.018C98.7551 113.747 99.6482 113.23 100.261 113.423C99.9547 113.566 99.6738 113.759 99.4296 113.993C99.3686 114.062 99.2892 114.15 99.2727 114.255C99.8143 114.526 100.296 114.832 100.743 115.218C100.979 115.419 101.32 115.795 101.53 116.443C101.005 115.988 99.2892 115.173 98.3533 115.13C97.7404 115.104 96.9803 115.217 96.5945 115.305C95.1154 115.638 93.5928 116.303 92.2888 117.047C92.298 117.301 92.2534 117.606 91.9658 117.843C91.7729 118.001 91.3529 118.079 91.1943 117.852C91.1075 117.729 90.538 117.861 90.4165 117.704C90.4165 117.704 90.2669 117.477 90.2493 117.204C90.2327 116.916 90.4244 116.741 90.5825 116.592C90.6259 116.539 90.6173 116.05 90.9848 115.883C91.212 115.778 91.4397 115.814 91.6326 115.936C91.7119 115.892 91.7729 115.849 91.8254 115.814C91.8688 115.244 91.9738 114.719 92.1844 114.151C92.4732 113.345 93.4182 112.365 94.232 112.4C93.6801 112.995 93.2344 113.818 93.0849 114.501C93.0415 114.72 93.025 115.149 93.025 115.349C93.2197 115.23 93.4244 115.128 93.6367 115.044C93.7246 114.833 93.978 114.308 94.1093 114.072C94.4403 113.458 95.185 112.671 95.8504 112.399ZM58.2775 95.0927C58.3825 98.1378 59.6254 101.815 61.3317 104.36H86.7899L86.7374 100.808C83.4646 100.808 78.4672 98.6457 76.4893 95.1104L58.2775 95.0927ZM75.7794 87.1502C75.7794 103.341 99.4604 103.341 99.4604 87.3162L99.4696 67.8347L75.7794 67.8261V87.1502ZM83.4086 79.3908C83.6888 79.0843 83.9342 78.682 83.9862 78.3407C84.0301 78.0605 83.2426 78.0782 82.9538 78.2534C82.7963 78.3493 82.6474 78.5422 82.5247 78.7174C82.4374 78.8486 82.1223 78.9536 81.9648 78.8052C81.7982 78.6477 82.0961 78.3761 82.087 78.21C82.087 77.9298 81.5528 78.3498 81.308 78.2357C81.1419 78.157 81.1328 77.9036 81.2469 77.7546C81.308 77.6759 81.4832 77.7107 81.562 77.624C81.6407 77.5361 81.6407 77.4048 81.667 77.2913C81.7023 77.16 81.8421 77.0984 81.9295 77.0025C82.2622 76.6789 82.8922 76.1271 83.0149 76.1362C83.3031 76.1625 83.7151 76.3114 83.9685 76.1796C84.021 76.1533 84.1174 76.066 84.0295 76.0135L83.347 75.5661C83.344 75.4956 83.3565 75.4253 83.3837 75.3602C83.4109 75.2951 83.4522 75.2368 83.5045 75.1895C83.8195 74.9093 84.3097 75.1022 84.7212 75.0405C85.0099 74.9966 85.281 74.883 85.491 74.6822C85.5435 74.8922 85.4123 75.1022 85.4123 75.3207C85.6748 75.5661 85.9464 75.7756 86.2004 76.0124C86.9531 76.7645 87.2766 77.8591 87.3291 78.8218C87.3731 79.2681 87.3731 79.7229 87.3731 80.467C87.4958 80.152 87.5745 79.6881 87.6008 79.2852C87.7143 78.0948 87.5306 77.0362 86.8572 76.1345C86.5835 75.7544 86.2727 75.4025 85.9293 75.0839C85.9647 74.7341 86.262 74.1389 86.5422 74.358C86.7259 74.4978 86.4549 74.7078 86.6472 74.8305C86.8578 74.9612 87.1636 74.9441 87.2949 74.9173C87.6013 74.8391 87.8987 74.7603 88.1783 74.7341C88.3095 74.7255 88.5281 74.6639 88.5726 74.7952C88.6074 74.8825 88.5116 74.9441 88.4146 74.9789C88.301 75.0143 88.1258 74.988 88.0299 75.0839C87.9506 75.1627 87.873 75.2505 87.8987 75.3641C87.9335 75.4954 88.0739 75.5656 88.2142 75.5216C88.742 75.3757 89.2853 75.2933 89.8327 75.2762C90.1226 75.2762 90.0598 75.4868 89.9206 75.565C89.8247 75.6175 89.6752 75.6614 89.5793 75.6706C89.0634 75.731 88.6776 75.7664 88.7387 76.0637C88.7821 76.2652 89.1068 76.0723 89.1758 76.2213C89.2551 76.3788 89.0366 76.4661 89.0543 76.5716C89.1068 76.9043 89.7454 76.8342 90.0427 76.764C90.2612 76.7115 90.6111 76.5368 90.7161 76.6766C90.8131 76.7988 90.7338 76.9917 90.6111 77.027C90.2955 77.1144 89.7539 77.2719 89.6044 77.4465C89.464 77.6131 89.6312 77.9544 89.7973 77.9721C90.1739 78.0154 90.5854 78.0154 90.8827 78.1027C90.9951 78.1381 91.0921 78.2169 91.0921 78.339C91.0921 78.4703 90.9609 78.5142 90.8559 78.549C90.6539 78.6101 90.3132 78.6101 90.1294 78.6894C90.0684 78.7156 89.9457 78.7596 89.9633 78.8292C90.0159 78.9605 90.2789 78.9251 90.4975 78.9513C90.6202 78.9605 90.8564 79.0569 90.8564 79.1882C90.8564 79.3285 90.7338 79.3719 90.5152 79.3548C90.1739 79.3285 89.8589 79.3719 89.7105 79.4336C89.666 79.4507 89.4041 79.4855 89.4121 79.6087C89.4298 79.7571 89.7105 79.6613 89.7802 79.8102C89.8412 79.9506 89.6495 80.0288 89.6318 80.204C89.6318 80.2741 89.6666 80.309 89.7368 80.3352C89.9639 80.4311 90.2259 80.422 90.4547 80.3792C90.691 80.3352 90.7777 80.6508 90.7166 80.6856C90.4113 80.8517 89.7282 80.677 89.5707 80.7729C89.3522 80.9127 89.9377 81.2277 89.9206 81.2979C89.9029 81.3767 89.8327 81.4554 89.7802 81.4731C89.4828 81.5867 89.0982 81.3676 88.8796 81.4908C88.6959 81.6044 88.7735 81.8931 88.6599 82.0421C88.5196 82.2258 88.2051 82.1471 88.0647 82.2521C87.8821 82.3828 87.873 82.6984 88.0739 82.8912C88.2319 83.0396 88.3803 83.144 88.5812 83.2411C89.492 83.6959 90.437 84.1507 91.321 84.0891C91.7758 84.0634 92.5205 84.0377 92.9314 84.1427C93.4655 84.2734 94.0083 84.6843 94.2879 84.8606C94.515 84.9999 94.8831 85.0358 95.1718 84.9297C95.3813 84.8606 95.5217 84.6152 95.4783 84.4047C95.347 83.7044 94.1909 83.4864 94.1743 82.7862C94.1566 81.981 94.0864 81.5433 93.8245 81.0354C93.7275 80.8431 93.7109 80.3968 93.9381 80.3358C94.1218 80.2918 94.1834 80.5458 94.3313 80.4847C95.0058 80.2222 95.0326 79.1545 95.7323 78.9525C96.1426 78.8389 97.5259 78.8218 97.4117 78.6466C97.123 78.2346 97.2548 77.7626 97.4117 77.5435C97.5167 77.4037 97.8049 77.2633 97.9202 77.4037C98.0771 77.5874 97.6828 77.806 97.7096 78.0776C97.7353 78.3316 98.104 78.8218 97.8232 79.0843C97.6571 79.2418 96.4056 79.2949 96.0376 79.8547C95.8104 80.1954 95.7848 80.467 96.0552 80.4408C96.2738 80.4145 96.4576 80.152 96.6596 80.0031C97.0185 79.7411 97.3073 79.6356 97.5087 79.8279C97.6137 79.9238 97.4734 80.1081 97.2805 80.1606C97.1235 80.2131 96.7389 80.6245 96.8433 80.7295C97.0003 80.8956 97.8757 80.1349 98.0948 80.2918C98.2084 80.3792 97.6657 80.9395 97.7616 81.0879C97.8751 81.2717 98.2432 80.9829 98.3568 81.1233C98.5228 81.3333 98.068 81.7448 97.8049 81.9285C97.604 82.0592 97.6822 82.55 97.3935 82.6989C97.0705 82.8564 96.921 83.1355 96.9563 83.18C96.9911 83.2491 97.0699 83.3027 97.1926 83.2234C97.5515 82.9962 97.9972 82.7246 98.181 82.7948C98.286 82.8387 98.1376 83.3369 98.0058 83.5732C97.874 83.8094 98.5399 83.6782 98.4429 83.8796C98.3739 84.0292 98.3294 84.2563 98.3739 84.4657C98.4264 84.7379 97.656 84.7978 97.5858 84.9816C97.5076 85.1922 97.6651 85.2447 97.7427 85.2538C98.2072 85.324 98.1462 85.752 97.9624 85.9358C97.717 86.1812 97.297 86.277 96.9289 86.2154C96.6134 86.1629 95.9057 86.0328 95.4857 85.7172C95.3545 85.6213 95.1616 85.6904 95.1359 85.8222C95.1091 85.9717 95.2666 86.2422 95.3368 86.4699C95.4338 86.8112 95.3801 87.2403 95.2666 87.5736C95.0223 88.2647 94.3661 88.8422 94.1823 89.6736C94.1378 89.8922 94.2 90.1639 94.2873 90.3739C94.4802 90.8298 94.7598 91.2578 95.0743 91.6436C95.1188 91.7663 95.1804 91.9055 95.1279 92.0191C95.0577 92.1943 94.515 92.5709 94.3575 92.7205C93.8582 93.1838 93.429 93.7882 93.3332 94.4444C93.2978 94.6807 92.7904 94.917 92.4492 95.0128C92.1964 95.083 91.9333 95.1532 91.7239 95.3193C91.697 95.511 91.8106 95.6782 91.8363 95.87C91.8808 96.2033 91.4608 96.3693 91.1361 96.4743C90.9877 96.5268 90.8296 96.5713 90.6544 96.5713C90.5934 96.5713 90.5762 96.4652 90.5854 96.4133C90.6812 95.9584 90.768 95.5909 90.9432 95.2149C91.0134 95.0745 91.1269 94.9609 91.2416 94.8639L92.492 93.8139L93.473 92.4049C93.5597 92.2736 93.5957 92.1595 93.5957 92.0636C93.5957 91.7914 93.4821 91.5386 93.2892 91.3634C93.0438 91.1437 92.6849 91.1095 92.4144 90.9691C92.0646 90.7939 91.5561 90.3048 91.4859 90.2689C91.2942 90.173 91.1806 90.5228 91.1538 90.7237C91.1104 91.0301 91.2063 91.3189 91.1971 91.6253C91.1971 91.7657 91.1806 91.8439 91.1104 91.9318C90.2881 92.4043 89.2637 92.5795 88.6594 93.3316C88.5544 93.4629 88.4585 93.6039 88.3181 93.6997C87.9768 93.936 87.4085 93.6649 87.1539 94.0319C87.0404 94.1991 87.1716 94.4176 87.1283 94.6014C87.102 94.7064 86.9006 94.8468 86.7431 94.9244C86.5325 95.0214 86.3059 95.0739 86.0777 95.0916C85.8237 94.9689 85.9812 94.6099 86.0685 94.356C86.1558 94.0929 86.2791 93.831 86.48 93.6558C86.7773 93.3927 87.1534 93.0606 87.3902 92.947C87.5911 92.85 87.897 92.85 88.1423 92.7541C88.4008 92.6749 88.6457 92.557 88.8688 92.4043C89.2266 92.1772 89.5599 91.897 89.7613 91.5118C89.9885 91.0735 89.9622 90.4886 89.6734 90.1119C89.4104 89.7707 89.1051 89.4374 88.9299 89.0533C88.8329 88.8428 88.903 88.554 89.0526 88.3611C89.0434 88.3531 88.9379 88.2818 88.8774 88.3C87.6253 88.3537 86.3567 88.2133 85.1926 87.7493C84.8861 87.6267 84.5711 87.2323 84.352 87.2066C84.1511 87.1798 84.0284 87.4338 83.8269 87.4863C83.5034 87.5742 83.0828 87.5217 82.7067 87.4863C82.269 87.4429 81.3588 87.25 80.7025 87.0406C80.5975 87.0571 80.484 87.0754 80.3875 87.1365C80.2471 87.2323 80.2209 87.4429 80.2123 87.6181C80.1946 87.8544 80.2648 88.0729 80.238 88.3183C80.2294 88.441 80.1592 88.5723 80.1946 88.6864C80.23 88.8256 80.3698 88.8873 80.4657 88.9751C80.6232 89.1235 80.6494 89.43 80.6494 89.6754C80.6494 89.9464 80.5536 90.306 80.7807 90.4903C80.9211 90.6027 81.1134 90.4549 81.2886 90.4903C81.4809 90.5251 81.542 90.7613 81.5511 90.9451C81.5602 91.1545 81.385 91.6002 81.2709 91.7155C81.1922 91.7937 81.0609 91.7321 80.9645 91.6887C80.7111 91.5751 80.4743 91.3914 80.3344 91.146C80.2734 91.041 80.2734 90.9097 80.2117 90.7962C80.1153 90.6033 79.9401 90.4908 79.7655 90.359C79.5555 90.201 79.5121 89.9122 79.4767 89.6588C79.4505 89.4214 79.4944 89.1943 79.5121 88.9575C79.5575 88.4891 79.5278 88.0166 79.4242 87.5576C79.3455 87.2078 79.1526 86.8574 79.2405 86.5076C79.2844 86.3415 79.398 86.1834 79.556 86.1132C80.4025 86.0737 81.2405 85.9268 82.0499 85.6761L81.5249 85.1591C81.3936 85.1591 81.2886 85.2903 81.1573 85.2903C81.017 85.2903 80.8246 85.0895 80.7721 85.0193C80.5005 84.6169 80.3259 84.1519 80.2032 83.6793C80.0896 83.4956 79.9498 83.3124 79.7392 83.2245C79.5932 83.1611 79.4349 83.1311 79.2758 83.1366C78.8381 83.3295 78.4358 83.7062 78.4004 84.1878C78.3919 84.3105 78.4615 84.4149 78.4444 84.5376C78.4187 84.7471 78.2606 84.8874 78.1117 85.037C77.9627 85.1853 77.8229 85.3343 77.7619 85.5443C77.7088 85.7195 77.7704 85.9032 77.8486 86.0693C77.9011 86.1829 77.9627 86.2964 77.9188 86.4191C77.8138 86.7079 77.1227 87.0052 76.9213 87.0052C76.8511 87.0052 76.79 86.9093 76.7638 86.83C76.685 86.5669 76.7027 86.2873 76.7552 86.0254C76.94 85.825 77.0775 85.5857 77.1575 85.3251C77.2631 84.9753 77.21 84.5987 77.3767 84.274C77.8138 83.5304 78.934 82.0427 79.1526 81.8241C79.249 81.7282 79.4853 81.6751 79.5817 81.7368C80.0542 82.0432 80.3344 82.4193 80.7893 82.6556C81.0346 82.7782 81.3405 82.9626 81.5597 82.7874C81.7782 82.6122 81.813 81.4395 81.9534 81.1416C82.2097 80.6251 82.9184 79.942 83.4086 79.3908ZM92.1199 72.1004L91.927 72.8355H91.2268L92.1376 69.3875H92.9337L93.8097 72.8092H93.1083L92.9331 72.1004H92.1199ZM92.8372 71.4744L92.5217 70.0917L92.2243 71.4744H92.8372ZM90.2806 70.3787C90.2898 70.151 90.2196 69.8537 90.0364 69.7835C89.8435 69.7133 89.6421 69.775 89.5547 69.9062C89.4052 70.151 89.4052 70.4837 89.4144 70.9911C89.4144 71.2975 89.4235 71.7261 89.4846 71.9281C89.6329 72.3915 90.0273 72.4183 90.219 72.129C90.316 71.9892 90.316 71.7175 90.3069 71.4727H89.9034V70.9648H90.9455V72.8201H90.4473V72.5667C90.4381 72.5844 90.219 72.7504 90.114 72.8035C89.9388 72.8817 89.6067 72.8817 89.3362 72.7681C89.1079 72.6717 88.8893 72.3658 88.7935 71.9715C88.6965 71.56 88.7398 71.0259 88.7398 70.5711C88.749 70.0894 89.0029 69.5558 89.3527 69.3544C89.5981 69.2146 90.0529 69.2146 90.3411 69.3196C90.6921 69.4423 90.9632 69.9496 90.9107 70.3787H90.2806ZM78.5568 69.4394C78.837 69.6146 78.9854 69.9388 78.934 70.3148H78.3822C78.3822 69.965 78.2338 69.7984 77.9359 69.7898C77.7522 69.7812 77.5245 69.9913 77.5245 70.1488C77.5153 70.6121 77.9268 70.7086 78.207 70.7959C78.417 70.8575 78.6709 70.9888 78.7936 71.1725C79.0208 71.5052 79.0476 71.8551 78.8638 72.3105C78.7765 72.529 78.4438 72.7915 78.1636 72.8532C77.8486 72.9234 77.4634 72.8885 77.1484 72.6517C76.8944 72.4594 76.7803 72.0828 76.8328 71.7415H77.4543C77.4543 71.9081 77.4805 72.0303 77.5507 72.1353C77.6032 72.2054 77.6997 72.319 77.8657 72.3276C77.9317 72.3324 77.9979 72.3227 78.0597 72.2991C78.1214 72.2754 78.1772 72.2385 78.2231 72.1909C78.2691 72.1433 78.3039 72.0862 78.3253 72.0236C78.3467 71.9611 78.354 71.8945 78.3468 71.8288C78.312 71.2947 77.4195 71.2599 77.113 70.9186C76.7449 70.4986 76.8591 69.8246 77.1564 69.553C77.5684 69.1684 78.1288 69.1683 78.5568 69.4394ZM96.2282 71.7221C96.2373 71.8533 96.2459 72.3173 96.263 72.6146C96.2721 72.7019 96.36 72.8161 96.36 72.8246H95.7037C95.6158 72.8246 95.6067 72.6671 95.5987 72.5364C95.581 72.1866 95.6153 71.3552 95.2746 71.3552H94.8546V72.8166H94.1983V69.4035H95.3796C95.9748 69.4035 96.2721 69.7453 96.2721 70.2087C96.2721 70.5151 96.263 70.8741 95.9132 71.0225C96.0963 71.1971 96.2013 71.4596 96.2282 71.7221ZM95.3288 69.896H94.8386V70.8153H95.1975C95.7922 70.8153 95.7836 69.896 95.3288 69.896ZM80.5524 72.8309H79.8962V69.9513H79.1435V69.3738H81.3137V69.9513H80.5524V72.8309ZM84.7777 72.8309V69.9513H84.025V69.3738H86.2038V69.9513H85.4334V72.8309H84.7777ZM86.4994 69.3744H88.6782V69.9604H87.9078V72.8309H87.2521V69.9604H86.4994V69.3744ZM97.8842 69.961V72.84H97.228V69.961H96.4758V69.3749H98.6461V69.961H97.8842ZM83.0303 71.8391V69.3801H83.6689V71.778C83.6689 73.2133 81.5859 73.2133 81.5859 71.822V69.3801H82.2245V71.8482C82.2251 72.3824 83.0303 72.3824 83.0303 71.8391ZM84.5037 74.4214C84.6966 74.2553 84.9671 74.0282 85.2821 73.8267C85.5623 73.643 85.2473 74.0636 85.2296 74.2382C85.1771 74.7107 84.8182 74.7632 84.4244 74.6759C84.3554 74.6582 84.3816 74.5264 84.5037 74.4214ZM100.962 85.4553L117.677 85.4461L118.421 76.2041L100.962 76.2133V85.4553ZM86.8646 114.238L69.6241 114.203C73.1771 117.398 81.4039 123.375 86.8121 125.799L86.8646 114.238ZM74.3841 75.9605C74.0514 76.2578 73.3865 76.9934 73.2547 77.3255C73.544 77.4305 74.1124 77.6845 74.3841 77.8682V75.9605Z" fill="white"/>
</svg>
