<svg width="48" height="31" viewBox="0 0 48 31" fill="none" xmlns="http://www.w3.org/2000/svg">
<path d="M34.9475 26.9715C34.5201 26.9458 34.1783 26.9116 33.8364 26.9116C27.2899 26.9116 20.7348 26.9287 14.1882 26.886C13.2652 26.886 12.9148 27.1509 12.8379 28.0825C12.7097 29.5525 11.7782 30.3387 10.3253 30.3644C8.82966 30.3815 7.33404 30.39 5.84696 30.3644C4.35134 30.3387 3.29159 29.3217 3.33432 27.8261C3.44542 24.0059 3.57362 20.1856 3.81292 16.3654C3.90693 14.8099 4.71884 13.4852 6.05208 12.6562C7.20584 11.9383 7.23147 10.9299 7.25711 9.74191C7.04345 9.80174 6.85544 9.82738 6.85544 9.87011C6.7187 11.3657 5.82133 11.3401 4.67611 11.0666C3.67618 10.8273 2.64206 10.7247 1.62504 10.5709C0.753306 10.4427 0.300343 10.0667 0.325982 9.06675C0.411446 5.48581 -0.0671487 5.97295 3.45397 5.94731C3.83856 5.94731 4.22314 5.94731 4.59918 5.94731C6.37683 5.94731 6.35975 5.94731 6.7016 7.65659C6.75288 7.92153 7.0691 8.1352 7.26567 8.37449C7.47933 8.1352 7.80408 7.93007 7.87245 7.65659C8.15449 6.58829 8.35106 5.49435 8.59036 4.41751C9.12879 1.99888 11.0175 0.41779 13.496 0.409244C20.504 0.383605 27.5121 0.383605 34.5201 0.409244C37.0841 0.409244 38.9301 1.97324 39.4941 4.48588C39.7249 5.52854 39.9215 6.57975 40.1949 7.61387C40.2633 7.8788 40.5966 8.06682 40.8103 8.28903C40.9641 8.04118 41.2376 7.80188 41.2632 7.54549C41.4342 5.95586 41.4171 5.95586 42.9725 5.95586C44.1177 5.95586 45.2715 5.94732 46.4167 5.95586C46.7158 5.95586 47.2543 5.9986 47.2714 6.09261C47.4594 7.26346 47.673 8.45141 47.6474 9.63082C47.6474 9.95558 46.8953 10.4342 46.4253 10.5453C45.1262 10.8529 43.8015 11.0581 42.4768 11.1948C42.1521 11.229 41.7333 10.8871 41.4684 10.6051C41.2718 10.4085 41.2547 10.0325 40.9897 9.78465C40.7505 10.682 40.7334 11.7332 41.4684 12.2118C43.9212 13.7844 44.4083 16.1859 44.5194 18.7669C44.6476 21.6299 44.7074 24.5015 44.7502 27.3731C44.7758 29.4499 43.8101 30.3815 41.7418 30.39C40.5539 30.39 39.3659 30.39 38.178 30.39C36.1354 30.39 35.3064 29.6294 35.0586 27.5526C35.0415 27.3988 34.9987 27.2535 34.9475 26.9971V26.9715ZM30.7255 25.4844C31.3665 25.4844 31.8195 25.4844 32.2639 25.4844C34.1783 25.4844 36.1012 25.4502 38.0071 25.5186C38.3404 25.5271 38.6566 25.9801 38.9814 26.2365C38.6737 26.4587 38.3917 26.7321 38.0498 26.886C37.8276 26.9885 37.5199 26.9287 37.255 26.9116C36.6311 26.8689 36.4431 27.1937 36.4858 27.7492C36.5456 28.5184 36.9473 28.9713 37.7165 28.9884C39.1694 29.014 40.6308 29.014 42.0837 28.9884C42.9041 28.9713 43.3571 28.5013 43.3229 27.6637C43.1862 24.0742 43.1349 20.4762 42.87 16.8867C42.6734 14.3313 40.8872 12.8955 38.2976 12.8955C28.794 12.8955 19.2904 12.8955 9.78685 12.8955C7.17165 12.8955 5.2829 14.3655 5.09487 16.9551C4.82139 20.536 4.82995 24.1426 4.74448 27.7406C4.72739 28.5098 5.13761 28.9799 5.92388 28.9969C7.37676 29.0226 8.82965 29.014 10.2911 28.9969C11.197 28.9799 11.6072 28.4414 11.573 27.5783C11.5303 26.6296 10.744 27.074 10.2654 26.9116C9.85522 26.7663 9.47918 26.5014 9.0946 26.2877C9.47918 26.0313 9.86377 25.5698 10.2654 25.5527C11.9833 25.4673 13.7097 25.5186 15.436 25.5186C17.641 25.5186 17.3504 25.681 17.3419 23.6213C17.3419 22.8435 17.547 22.3308 18.4016 22.3222C22.1535 22.3137 25.9139 22.3137 29.6658 22.3222C30.4179 22.3222 30.7768 22.7324 30.7426 23.4931C30.717 24.0999 30.7426 24.7067 30.7426 25.51L30.7255 25.4844ZM39.4258 11.4085C39.4258 11.1179 39.4599 10.9213 39.4258 10.7418C38.9899 8.61378 38.6139 6.46865 38.0669 4.36623C37.6225 2.6655 36.1867 1.63138 34.3919 1.62283C27.5035 1.59719 20.6066 1.59719 13.7182 1.62283C11.6927 1.62283 10.2484 2.8877 9.83813 4.87047C9.54755 6.25498 9.24843 7.63096 8.97495 9.01547C8.82966 9.7761 8.7271 10.5538 8.5989 11.3999H39.4343L39.4258 11.4085ZM18.8546 25.4075H29.153C29.4692 23.7922 29.4008 23.6982 27.9821 23.6982C25.384 23.6982 22.7859 23.6982 20.1878 23.6982C18.6837 23.6982 18.6837 23.7067 18.8546 25.4075ZM3.54798 7.0669C2.96682 7.24637 2.26603 7.29764 1.84725 7.67368C1.65069 7.84461 1.93271 9.04112 2.13783 9.08385C3.15485 9.28896 4.22315 9.27186 5.27436 9.31459C5.29145 9.31459 5.32563 9.10949 5.34273 8.98984C5.61621 7.53695 5.30854 7.22073 3.54798 7.0669ZM42.7845 9.68209C43.7759 9.5368 44.6562 9.39151 45.545 9.28041C46.3313 9.17785 46.3313 8.64797 46.3313 8.03263C46.3227 7.23782 45.7672 7.37456 45.2886 7.35747C44.9125 7.34892 44.528 7.35747 44.1434 7.35747C43.1463 7.35747 42.6648 7.86456 42.699 8.87873C42.699 9.06675 42.7332 9.24622 42.7845 9.69063V9.68209Z" fill="url(#paint0_linear_424_2067)"/>
<path d="M36.7764 21.1686C35.9303 21.1686 35.05 21.331 34.2637 21.1258C33.4433 20.9036 32.5117 20.4849 31.9989 19.8524C30.999 18.6388 31.64 17.109 33.1698 16.7672C34.9902 16.3484 36.8276 15.9809 38.6651 15.6391C40.3488 15.3228 41.8957 16.4168 42.0153 17.9466C42.1777 19.8781 41.0838 21.1429 39.195 21.1771C38.3916 21.1942 37.5883 21.1771 36.7849 21.1771L36.7764 21.1686ZM36.8191 19.7328C37.6652 19.7328 38.5284 19.8439 39.3403 19.69C39.7847 19.6046 40.4257 19.1003 40.477 18.7157C40.5539 18.2201 40.2719 17.4509 39.8787 17.1689C39.5027 16.8954 38.7762 17.015 38.2293 17.109C36.8362 17.3483 35.4517 17.6218 34.0843 17.9722C33.6826 18.0748 33.3493 18.4679 32.9818 18.7243C33.4176 19.0576 33.8193 19.596 34.3065 19.69C35.1184 19.8524 35.9816 19.7328 36.8277 19.7328H36.8191Z" fill="url(#paint1_linear_424_2067)"/>
<path d="M11.6842 21.177C10.8039 21.177 9.92367 21.2112 9.04339 21.177C7.40249 21.1 6.46237 19.9206 6.53929 18.1174C6.60766 16.6132 7.73579 15.4338 9.23996 15.6303C11.3851 15.9124 13.5217 16.3824 15.6327 16.8867C16.5215 17.1003 17.0172 17.8524 16.9061 18.8182C16.7693 19.9805 15.6754 21.083 14.5558 21.1513C13.6072 21.2112 12.6414 21.1599 11.6842 21.1599V21.177ZM11.6842 19.895C11.6842 19.895 11.6842 19.9548 11.6842 19.9805C12.6671 19.9036 13.667 19.895 14.6327 19.6984C14.966 19.6301 15.2823 19.1173 15.4446 18.7412C15.4959 18.6301 15.0344 18.1259 14.7438 18.0661C13.0773 17.6815 11.4022 17.3311 9.71855 17.0491C8.59043 16.861 7.99218 17.314 7.89817 18.237C7.80416 19.1857 8.38532 19.8095 9.50489 19.8865C10.2313 19.9377 10.9578 19.895 11.6842 19.895Z" fill="url(#paint2_linear_424_2067)"/>
<defs>
<linearGradient id="paint0_linear_424_2067" x1="0.324951" y1="14.2361" x2="47.6495" y2="14.2361" gradientUnits="userSpaceOnUse">
<stop stop-color="#BE6552"/>
<stop offset="0.490144" stop-color="#ECA9A0"/>
<stop offset="1" stop-color="#BE6552"/>
</linearGradient>
<linearGradient id="paint1_linear_424_2067" x1="31.5181" y1="18.1899" x2="42.0312" y2="18.1899" gradientUnits="userSpaceOnUse">
<stop stop-color="#BE6552"/>
<stop offset="0.490144" stop-color="#ECA9A0"/>
<stop offset="1" stop-color="#BE6552"/>
</linearGradient>
<linearGradient id="paint2_linear_424_2067" x1="6.53491" y1="18.1858" x2="16.9215" y2="18.1858" gradientUnits="userSpaceOnUse">
<stop stop-color="#BE6552"/>
<stop offset="0.490144" stop-color="#ECA9A0"/>
<stop offset="1" stop-color="#BE6552"/>
</linearGradient>
</defs>
</svg>
