<svg width="304" height="167" viewBox="0 0 304 167" fill="none" xmlns="http://www.w3.org/2000/svg">
<g clip-path="url(#clip0_2003_2283)">
<path d="M145.32 23.4302C145.845 23.4653 146.369 23.504 146.894 23.5345C149.245 23.671 151.581 23.9399 153.885 24.4274C158.953 25.4991 163.299 27.9009 166.91 31.614C170.399 35.2017 172.548 39.5013 173.619 44.3669C174.295 47.4407 174.522 50.5462 174.252 53.6792C173.752 59.4601 171.828 64.7294 168.389 69.4058C166.439 72.0571 164.132 74.3944 161.636 76.5401C160.064 77.8907 158.426 79.1511 156.618 80.2386C156.689 80.3505 156.747 80.4466 156.808 80.5403C161.005 86.9306 164.498 93.6841 167.261 100.812C169.659 106.998 171.471 113.36 172.855 119.844C173.28 121.837 173.659 123.841 174 125.849C174.229 127.196 174.416 128.548 174.847 129.85C175.088 130.575 175.38 131.275 175.831 131.898C176.11 132.283 176.434 132.614 176.871 132.822C176.934 132.852 177.001 132.938 177.009 133.006C177.029 133.177 177.015 133.352 177.015 133.542H155.114C155.114 133.392 155.127 133.257 155.111 133.125C155.087 132.928 155.176 132.834 155.346 132.746C157.081 131.841 158.469 130.551 159.535 128.915C160.64 127.218 161.255 125.342 161.553 123.35C161.805 121.667 161.782 119.979 161.616 118.296C161.411 116.219 161.217 114.137 160.91 112.074C160.282 107.848 159.188 103.734 157.741 99.714C155.771 94.2407 153.545 88.8782 150.832 83.7255C150.787 83.6394 150.741 83.5538 150.679 83.4378C150.254 83.6007 149.832 83.7647 149.408 83.9259C144.947 85.6222 140.363 86.8614 135.656 87.6577C132.547 88.1839 129.424 88.597 126.285 88.8835C124.389 89.0563 122.492 89.197 120.595 89.3528C120.538 89.3575 120.482 89.3687 120.401 89.3804C120.396 89.4917 120.387 89.5966 120.387 89.7009C120.386 101.839 120.383 113.977 120.39 126.116C120.39 127.744 120.678 129.32 121.411 130.791C121.833 131.636 122.414 132.347 123.235 132.842C123.551 133.033 123.321 133.334 123.405 133.603H106.522C106.48 133.23 106.457 132.944 106.861 132.688C107.915 132.021 108.473 130.964 108.873 129.82C109.308 128.574 109.505 127.286 109.505 125.968C109.506 94.5337 109.504 63.0987 109.511 31.6644C109.511 30.3038 109.49 28.9509 109.167 27.6208C108.916 26.5866 108.538 25.6099 107.823 24.796C107.714 24.6718 107.61 24.5247 107.47 24.4479C107.052 24.22 106.941 23.869 107 23.4302C119.773 23.4302 132.547 23.4302 145.32 23.4302ZM120.316 29.6663V82.5126C120.4 82.5126 120.467 82.5179 120.533 82.512C122.456 82.3333 124.384 82.1886 126.302 81.9665C129.328 81.6161 132.327 81.0782 135.265 80.2813C139.546 79.12 143.569 77.344 147.271 74.8831C152.221 71.5931 156.077 67.3403 158.513 61.8853C161.049 56.2081 161.821 50.2685 160.949 44.122C160.563 41.405 159.702 38.8386 158.327 36.4468C156.617 33.4731 154.201 31.3948 150.879 30.4239C148.873 29.838 146.813 29.6745 144.74 29.671C136.743 29.6581 128.747 29.6669 120.75 29.6669C120.615 29.6669 120.479 29.6669 120.316 29.6669V29.6663Z" fill="white"/>
<path d="M175.965 143.43C175.969 143.421 175.977 143.411 175.976 143.403C175.875 142.855 176.22 142.658 176.641 142.427C179.173 141.045 180.785 138.894 181.698 136.194C182.35 134.267 182.554 132.277 182.475 130.249C182.333 126.604 181.887 122.997 181.151 119.424C180.331 115.44 179.097 111.585 177.619 107.799C175.877 103.333 173.911 98.9731 171.679 94.7327C171.642 94.6642 171.602 94.5985 171.568 94.5405C170.117 95.0644 168.674 95.5847 167.276 96.0892C166.071 93.6071 164.888 91.1714 163.693 88.7099C163.921 88.6026 164.184 88.4837 164.444 88.3565C172.991 84.1782 178.524 77.4962 181.029 68.3251C181.842 65.3474 182.094 62.2987 181.969 59.2155C181.863 56.6175 181.483 54.0704 180.602 51.6136C179.689 49.0642 178.32 46.8095 176.288 44.9872C176.165 44.8771 176.043 44.7429 175.896 44.6884C175.512 44.5472 175.37 44.2718 175.28 43.8915C174.676 41.355 173.718 38.9503 172.514 36.6417C172.474 36.5661 172.439 36.4876 172.374 36.354C172.63 36.3845 172.838 36.3979 173.043 36.4349C175.438 36.8726 177.789 37.4638 179.998 38.5179C186.915 41.819 191.467 47.1511 193.652 54.4929C194.632 57.7876 195.012 61.1638 194.819 64.5933C194.481 70.6015 192.579 76.0794 189.011 80.9286C186.821 83.9063 184.201 86.5003 181.306 88.8001C180.138 89.7276 178.897 90.5632 177.69 91.4403C177.621 91.4907 177.551 91.5417 177.487 91.5886C178.226 92.7704 178.97 93.9276 179.684 95.1024C184.321 102.734 187.903 110.836 190.497 119.38C192.179 124.919 193.541 130.534 194.515 136.241C194.733 137.52 194.894 138.807 195.302 140.044C195.575 140.873 195.902 141.679 196.509 142.328C196.706 142.539 196.935 142.755 197.194 142.862C197.489 142.984 197.571 143.148 197.528 143.429H175.965L175.965 143.43Z" fill="white"/>
<path d="M128.27 143.43C128.203 142.986 128.364 142.71 128.758 142.441C129.704 141.796 130.23 140.818 130.609 139.764C131.053 138.533 131.272 137.262 131.272 135.949C131.27 120.763 131.271 105.578 131.271 90.3924C131.271 89.926 131.27 89.9184 131.734 89.8551C135.051 89.4039 138.341 88.8092 141.603 88.0527C141.659 88.0398 141.716 88.0305 141.797 88.0146V93.5453C141.89 93.5512 141.964 93.5635 142.037 93.5582C145.067 93.3549 148.084 93.0303 151.08 92.5328C151.667 92.4355 152.254 92.3377 152.838 92.227C153.028 92.1912 153.112 92.2457 153.184 92.425C153.971 94.3779 154.769 96.3268 155.559 98.2779C155.608 98.3992 155.618 98.5357 155.653 98.6945C151.074 99.4727 146.496 99.9221 141.863 100.197C141.863 100.319 141.863 100.422 141.863 100.526C141.863 112.381 141.862 124.237 141.865 136.093C141.865 137.573 142.123 139.006 142.746 140.358C143.179 141.3 143.796 142.09 144.706 142.626C144.78 142.67 144.84 142.785 144.85 142.874C144.871 143.056 144.853 143.244 144.852 143.429H128.27V143.43Z" fill="white"/>
<path d="M128.549 35.6376C128.774 35.6376 128.89 35.6376 129.006 35.6376C137.824 35.6376 146.642 35.6388 155.46 35.6323C155.709 35.6323 155.866 35.6991 156.019 35.9036C157.271 37.5794 158.191 39.4163 158.747 41.4337C158.773 41.5251 158.79 41.6194 158.819 41.7489H141.804V42.1479C141.804 53.3388 141.803 64.5302 141.81 75.721C141.81 75.994 141.729 76.1218 141.479 76.2355C138.424 77.623 135.271 78.7151 131.984 79.4071C131.755 79.4552 131.525 79.4979 131.295 79.5413C131.278 79.5448 131.258 79.5331 131.211 79.522C131.211 79.4229 131.211 79.3175 131.211 79.212C131.211 67.2888 131.206 55.3649 131.217 43.4417C131.218 41.9282 131.122 40.4376 130.612 39.0003C130.239 37.9491 129.669 37.0415 128.745 36.3665C128.599 36.2593 128.619 35.9224 128.549 35.6382L128.549 35.6376Z" fill="white"/>
</g>
<defs>
<clipPath id="clip0_2003_2283">
<rect width="95.9766" height="120" fill="white" transform="translate(104.012 23.4302)"/>
</clipPath>
</defs>
</svg>
