<svg width="205" height="166" viewBox="0 0 205 166" fill="none" xmlns="http://www.w3.org/2000/svg">
<path d="M97.5267 25.5459C103.787 25.5989 110.022 25.9431 116.231 26.7075C122.34 27.4595 128.369 28.6105 134.25 30.4556C137.401 31.4443 140.47 32.6409 143.447 34.0749C144.704 34.681 145.522 35.681 145.926 36.9699C146.196 37.8304 146.382 38.7546 146.392 39.6527C146.463 45.6025 146.166 51.5375 145.517 57.4522C144.37 67.9267 142.091 78.1352 138.264 87.9726C135.08 96.1558 130.915 103.803 125.677 110.856C120.334 118.053 114.096 124.382 107.018 129.873C104.827 131.573 102.549 133.163 100.291 134.775C98.8398 135.81 97.5463 135.788 96.0914 134.798C91.3978 131.607 86.9147 128.149 82.7522 124.285C78.7282 120.549 75.0248 116.522 71.6753 112.169C66.2266 105.088 61.8797 97.3794 58.5408 89.0975C56.1235 83.1004 54.2844 76.9264 52.9404 70.6046C51.5507 64.07 50.6413 57.4661 50.2906 50.7969C50.0884 46.9533 49.9905 43.0999 49.9742 39.2506C49.966 37.3614 50.6128 35.6076 52.2569 34.4836C53.11 33.9004 54.105 33.5121 55.0616 33.0928C61.2329 30.3879 67.697 28.7002 74.3201 27.5656C78.6051 26.8314 82.9161 26.2963 87.2532 26.0255C90.6744 25.8118 94.1022 25.7025 97.5276 25.5467L97.5267 25.5459ZM98.2143 28.0599C95.0638 28.1863 91.9108 28.2622 88.7636 28.4482C81.6732 28.8683 74.6529 29.8055 67.7459 31.5014C63.0785 32.6466 58.544 34.1728 54.2028 36.2537C53.5113 36.5857 53.0293 37.0734 52.8172 37.7839C52.6443 38.3623 52.4845 38.9708 52.4779 39.5671C52.429 44.1472 52.6093 48.7201 52.9771 53.2872C53.3832 58.3332 54.0544 63.3424 55.0372 68.3076C56.6675 76.5462 59.119 84.5279 62.6022 92.1817C66.8643 101.548 72.4957 109.996 79.5217 117.515C84.906 123.277 90.9468 128.259 97.4623 132.681C98.105 133.116 98.2575 133.115 98.9067 132.672C103.572 129.491 108.026 126.043 112.157 122.185C117.576 117.123 122.363 111.525 126.466 105.347C131.58 97.6445 135.431 89.3422 138.21 80.5342C140.826 72.2434 142.406 63.7446 143.229 55.1013C143.718 49.9616 143.927 44.8063 143.893 39.6429C143.892 39.4398 143.894 39.2342 143.867 39.0344C143.681 37.6958 143.188 36.6052 141.792 36.0742C139.418 35.1712 137.105 34.0986 134.704 33.2772C127.992 30.9801 121.042 29.7639 114.011 28.9857C108.763 28.4049 103.497 28.1341 98.2134 28.0607L98.2143 28.0599Z" fill="white"/>
<path d="M98.1763 101.523C98.2613 101.56 98.2793 101.561 98.2888 101.572C99.0194 102.381 99.1078 102.371 99.6109 101.391C99.7492 101.123 99.8591 100.839 99.9123 100.455C99.6616 100.546 99.4109 100.638 99.0958 100.753C99.5414 100.065 99.9561 99.4214 100.374 98.7808C100.549 98.5129 100.758 98.263 100.907 97.9814C101.057 97.698 100.978 97.4249 100.625 97.4258C100.071 97.4275 99.6822 97.1304 99.2718 96.8333C98.8142 96.5018 98.7138 96.5593 98.336 97.0024C97.6243 97.838 96.861 98.6297 96.1527 99.4669C95.8831 99.7855 95.6788 100.169 95.4916 100.545C95.0872 101.363 94.7687 102.229 94.312 103.014C93.717 104.037 93.1469 105.029 93.4251 106.284C93.4628 106.454 93.3538 106.72 93.2242 106.854C92.1681 107.942 90.2587 108.113 89.0413 107.254C87.9604 106.491 87.9149 105.344 88.9288 104.491C89.0216 104.413 89.1323 104.336 89.1855 104.233C89.6028 103.427 90.3017 102.899 91.016 102.399C92.4601 101.389 93.3143 100.035 93.5736 98.2845C93.6715 97.6224 93.8372 96.9604 94.0621 96.3309C94.2244 95.8758 94.1076 95.5255 93.8174 95.2524C93.2113 94.6831 93.0739 93.9969 93.231 93.2387C93.3976 92.4358 93.3444 91.6604 93.0902 90.891C93.0387 90.7356 92.9743 90.5853 92.8842 90.3474C92.6979 90.5647 92.5356 90.7029 92.436 90.8772C91.981 91.6733 91.5371 92.4762 91.1018 93.2834C90.8692 93.7136 90.6949 94.1781 90.4364 94.5912C89.8501 95.528 89.6826 96.5422 89.5865 97.6344C89.4646 99.0213 88.8996 100.273 87.5835 101.001C86.1231 101.81 84.9477 102.893 84.5468 104.557C84.3399 105.418 84.3776 106.341 84.339 107.237C84.3047 108.03 84.321 108.825 84.3064 109.619C84.3004 109.937 84.1433 110.136 83.805 110.148C83.4384 110.161 83.3766 110.385 83.3688 110.701C83.3499 111.49 83.3422 111.504 82.5609 111.725C81.3186 112.078 80.1329 111.957 79.058 111.2C78.33 110.687 78.1875 110.072 78.5961 109.28C78.9559 108.584 79.532 108.092 80.2291 107.711C80.0977 107.858 79.9595 107.999 79.8367 108.153C79.5895 108.463 79.3328 108.769 79.1181 109.101C79.034 109.231 79.052 109.427 79.0237 109.594C79.2066 109.564 79.3989 109.557 79.5697 109.494C79.6736 109.455 79.7646 109.342 79.829 109.242C80.2789 108.548 80.9211 108.361 81.7015 108.5C81.9419 108.543 82.1875 108.566 82.4313 108.572C82.9439 108.584 83.18 108.403 83.2572 107.968C83.3525 107.429 83.2632 107.263 82.7515 107.066C82.3549 106.912 81.9548 106.767 81.5521 106.617C81.3976 106.824 81.2577 107.01 81.1169 107.197C81.0748 107.184 81.0319 107.17 80.9898 107.158C80.9443 106.336 80.667 105.553 81.2851 104.718C82.1076 103.606 82.7721 102.375 83.483 101.184C83.8161 100.625 84.0986 100.037 84.4077 99.4558C84.4154 99.4558 84.4601 99.448 84.4669 99.4609C84.7906 100.017 85.1203 100.106 85.7093 99.7907C86.4081 99.4163 86.7936 98.342 86.451 97.6387C86.3678 97.467 86.178 97.2704 86.0115 97.2437C85.8999 97.2257 85.729 97.4764 85.614 97.6293C85.5436 97.722 85.5204 97.8543 85.4903 97.9719C85.3821 98.3961 85.0988 98.5146 84.6155 98.4442C84.6687 98.257 84.7108 98.093 84.764 97.9333C84.7829 97.8775 84.8292 97.8311 84.8627 97.7787C85.8011 96.3034 86.36 94.7809 85.9119 92.9648C85.5564 91.5247 85.747 90.0623 86.3729 88.7013C87.3362 86.6094 87.6573 84.3716 87.9312 82.1227C88.139 80.4198 88.5742 78.7883 89.7221 77.4839C91.3577 75.6248 92.09 73.4359 92.4566 71.0419C92.7159 69.351 93.0928 67.6637 93.9763 66.1635C94.2467 65.7041 94.6451 65.2885 95.0658 64.9562C95.975 64.2383 96.8928 63.5101 97.8904 62.9305C99.0718 62.2435 100.23 61.5505 101.24 60.6188C101.839 60.0675 102.603 59.8228 103.384 59.6296C103.559 59.5866 103.773 59.4432 103.844 59.2878C104.761 57.305 106.727 56.4815 108.76 57.2922C109.367 57.5343 109.961 57.84 110.503 58.2041C111.677 58.9916 112.967 59.3711 114.355 59.5635C115.395 59.7077 116.418 59.9902 117.446 60.2238C118.085 60.3689 118.076 60.3784 118.218 59.7361C118.355 59.1101 118.494 58.4832 118.66 57.8641C118.776 57.4287 118.709 57.05 118.435 56.6988C117.294 55.239 115.866 54.3253 113.954 54.2918C111.462 54.2472 108.967 54.2274 106.478 54.1158C104.372 54.0213 102.26 53.8891 100.172 53.6194C99.2109 53.4949 98.257 53.0862 97.3727 52.656C96.1424 52.0575 95.9741 51.1953 96.7339 50.0618C97.9642 48.2259 99.744 47.3517 101.896 47.1293C104.108 46.9017 106.251 47.3199 108.393 47.7888C108.803 47.8781 109.239 47.9039 109.658 47.879C110.221 47.8455 110.712 47.9159 111.128 48.3435C111.535 48.7626 112.075 48.8562 112.638 48.9137C113.091 48.9601 113.536 49.0872 113.974 49.2495C113.475 49.641 112.941 49.5595 112.416 49.5002C111.885 49.4401 111.359 49.3345 110.827 49.283C110.55 49.2563 110.265 49.3036 109.975 49.3774C110.498 50.0609 111.299 49.83 112.024 50.1202C111.787 50.249 111.559 50.3976 111.311 50.5023C110.555 50.8209 109.779 51.0948 109.035 51.4383C108.194 51.8265 107.345 51.817 106.482 51.5912C105.435 51.3172 104.385 51.0442 103.353 50.7204C103.002 50.6105 102.665 50.3873 102.382 50.1451C101.599 49.4779 100.736 49.3027 99.7732 49.6239C99.3688 49.7595 98.9662 49.9193 98.5927 50.1219C98.36 50.2481 98.1411 50.4474 97.99 50.6646C97.7204 51.0545 97.8054 51.2941 98.2347 51.4847C99.8823 52.2146 101.64 52.4456 103.411 52.6036C106.726 52.8998 110.046 52.7642 113.365 52.6929C114.607 52.6663 115.865 52.6379 117.027 53.142C119.017 54.0067 120.295 55.5344 120.81 57.6339C120.941 58.1663 120.904 58.825 120.711 59.3368C119.953 61.3436 120.397 63.1262 121.566 64.8007C122.003 65.4259 122.493 66.0184 122.999 66.5903C123.582 67.2489 124.004 67.9771 124.141 68.8496C124.36 70.251 124.599 71.6515 124.763 73.0598C124.86 73.8911 124.656 74.7068 124.306 75.4694C123.635 76.9352 123.753 78.4225 124.207 79.9029C124.439 80.6611 124.797 81.3816 125.026 82.1416C125.139 82.5168 125.133 82.9462 125.097 83.3429C125.073 83.61 125.115 83.7388 125.335 83.9028C125.632 84.1252 125.922 84.3991 126.114 84.7125C126.774 85.7868 127.699 86.266 128.959 86.1835C129.641 86.1389 130.331 86.1818 131.016 86.2058C131.45 86.2213 131.596 86.5219 131.441 86.8662C131.239 87.3153 131.019 87.8056 130.669 88.1311C129.356 89.3547 127.807 89.6982 126.075 89.1667C125.196 88.8971 125.217 88.9237 124.634 89.6476C124.269 90.101 124.163 90.5406 124.379 91.0816C124.481 91.3349 124.512 91.6157 124.589 91.8794C124.763 92.4693 124.701 93.0275 124.39 93.559C123.468 95.133 123.427 96.7216 124.196 98.385C124.406 98.8375 124.434 99.4369 124.362 99.9418C124.264 100.629 124.289 101.275 124.467 101.935C124.574 102.332 124.667 102.738 124.717 103.147C124.815 103.939 124.359 104.499 123.572 104.453C122.831 104.409 122.076 104.307 121.365 104.1C120.374 103.811 120.023 102.687 120.671 101.888C121.215 101.218 121.239 100.594 120.855 99.8619C120.492 99.169 120.488 98.5129 120.968 97.8002C121.671 96.7594 121.617 95.5684 121.315 94.3945C121.213 93.9969 121.019 93.6243 120.888 93.2335C120.573 92.289 120.329 92.1447 119.286 92.3482C119.365 92.7269 119.11 92.8471 118.806 92.8875C117.138 93.1056 116.169 94.2571 115.297 95.5246C115.138 95.7556 115.092 96.0621 114.987 96.3309C114.805 96.7963 114.606 97.2558 114.44 97.7272C114.391 97.8654 114.367 98.0964 114.445 98.1814C114.935 98.719 114.886 99.7881 114.27 100.209C113.685 100.609 113.228 101.088 112.903 101.718C112.818 101.883 112.595 102.034 112.408 102.081C111.519 102.305 110.627 102.526 109.724 102.67C109.45 102.714 109.108 102.557 108.851 102.403C108.639 102.277 108.5 102.256 108.274 102.35C106.697 103.016 106.504 102.76 105.787 101.088C105.615 100.685 105.593 100.22 105.436 99.8087C105.215 99.2282 104.974 98.6469 104.662 98.1136C104.427 97.7143 103.958 97.8148 103.569 97.8474C103.193 97.8792 102.878 98.0681 102.801 98.4605C102.747 98.737 102.753 99.0384 102.798 99.3175C102.885 99.8594 102.778 100.317 102.359 100.689C101.667 101.303 101.317 102.06 101.336 103C101.341 103.264 101.262 103.549 101.153 103.795C100.864 104.448 100.57 104.62 99.8728 104.505C99.3328 104.416 98.7833 104.308 98.2768 104.111C97.2396 103.706 97.0499 102.925 97.7256 102.036C97.8621 101.857 98.0226 101.695 98.1737 101.524L98.1763 101.523ZM107.863 92.8918C107.187 92.9064 106.861 93.1503 106.78 93.7471C106.718 94.1996 106.782 94.6762 106.677 95.115C106.603 95.4241 106.342 95.6877 106.164 95.972C105.973 95.7522 105.719 95.5607 105.599 95.3065C105.007 94.0485 105.074 92.7269 105.271 91.3916C105.444 90.2169 105.942 89.2508 106.883 88.5055C107.252 88.2127 107.624 87.8889 107.886 87.5051C108.143 87.1281 108.35 86.6713 108.426 86.223C108.543 85.5275 108.244 85.2458 107.541 85.2158C106.868 85.1874 106.714 85.0183 106.568 84.3656C106.386 83.5499 106.153 82.7452 105.933 81.9389C105.829 81.5559 105.679 81.1841 105.592 80.7977C105.515 80.4654 105.497 80.1193 105.441 79.6917C105.747 79.7586 105.958 79.7801 106.15 79.8522C106.464 79.9699 106.765 80.1219 107.073 80.2575C107.729 80.5478 108.158 80.4757 108.636 79.9381C108.94 79.5963 109.18 79.1988 109.478 78.851C109.714 78.5745 109.977 78.3143 110.259 78.0859C110.564 77.8386 110.869 77.8643 111.138 78.1855C111.452 78.5607 111.792 78.9137 112.103 79.2915C112.334 79.5732 112.572 79.732 112.969 79.6419C113.111 79.6092 113.405 79.7535 113.447 79.878C113.542 80.1614 113.327 80.3288 113.05 80.3692C112.718 80.4173 112.376 80.419 112.049 80.4903C111.279 80.6594 110.476 80.7668 109.76 81.0707C108.938 81.4194 108.689 82.1759 108.967 83.0329C109.083 83.3918 109.249 83.7508 109.463 84.0599C110.237 85.1788 111.187 86.1217 112.373 86.8104C113.347 87.3754 114.382 87.5223 115.472 87.2612C116.033 87.1272 116.549 86.8954 117.051 86.3742C116.447 86.2642 115.95 86.205 115.47 86.0796C114.573 85.8452 113.635 85.6812 112.808 85.2887C111.753 84.7873 111.783 83.871 112.767 83.2502C112.883 83.1772 113.005 83.111 113.126 83.0466C113.707 82.7392 114.284 82.4258 114.872 82.1364C114.97 82.0883 115.121 82.1424 115.246 82.1527C115.678 82.1897 116.113 82.2841 116.54 82.2523C117.054 82.2146 117.558 82.0025 118.071 81.9844C119.573 81.9312 120.996 82.1364 121.867 83.5902C122.181 84.114 122.424 84.6859 122.772 85.184C123.108 85.664 123.503 86.1157 123.935 86.5098C124.385 86.9194 124.903 87.2543 125.403 87.6055C126.843 88.6188 128.39 88.7923 130.006 88.1019C130.586 87.8546 130.986 87.3969 131.182 86.7116C130.981 86.6876 130.82 86.6532 130.66 86.6532C130.124 86.6532 129.588 86.6498 129.054 86.6756C127.825 86.734 126.767 86.3321 125.873 85.5026C125.38 85.0457 124.888 84.582 124.442 84.0797C122.854 82.2875 120.797 81.1171 118.842 79.811C118.547 79.6144 118.355 79.6479 118.216 80.0008C118.124 80.2335 118.027 80.4705 117.682 80.4808C116.673 80.5117 115.702 80.3915 114.782 79.9415C114.276 79.6942 113.754 79.477 113.227 79.2786C112.603 79.0433 112.16 78.6561 111.925 78.0146C111.868 77.8575 111.662 77.714 111.492 77.6471C111.037 77.4693 110.56 77.3517 110.104 77.1791C109.942 77.1181 109.752 76.9996 109.678 76.8545C109.452 76.4131 109.264 75.9511 109.083 75.4883C108.9 75.0237 108.99 74.9 109.471 74.7171C110.324 74.3925 111.169 74.0448 112.016 73.703C113.071 73.2779 113.823 73.3904 113.943 74.7309C113.967 75.0048 113.993 75.2813 114.053 75.5492C114.137 75.9202 114.226 76.2946 114.365 76.6467C114.505 77.0005 114.806 77.1902 115.194 77.1954C115.288 77.1962 115.417 77.1645 115.471 77.0984C115.626 76.9103 115.509 76.3135 115.365 76.1074C115.138 75.7802 114.897 75.4393 114.772 75.0675C114.545 74.3883 114.46 73.6583 114.205 72.9911C113.44 70.986 112.824 68.9423 112.382 66.8428C112.099 65.4997 111.408 64.4195 110.23 63.6655C109.558 63.2353 109.424 62.496 109.136 61.7051C109.925 61.8803 110.585 62.0632 111.258 62.1688C112.375 62.344 113.058 63.0086 113.478 64.0038C113.633 64.3697 113.768 64.7441 113.909 65.115C114.159 65.7719 114.374 66.4443 114.667 67.0815C114.945 67.686 115.361 68.203 115.995 68.4855C116.574 68.7439 117.074 68.5361 117.283 67.9419C117.357 67.7298 117.434 67.4825 117.395 67.2721C117.24 66.422 117.097 65.5616 116.839 64.7398C116.629 64.0751 116.252 63.4637 115.966 62.8223C115.767 62.3783 115.826 62.2813 116.306 62.1593C116.53 62.1027 116.755 62.0563 116.98 62.0056C116.989 61.9455 116.997 61.8846 117.005 61.8244C116.354 61.5857 115.717 61.3006 115.05 61.1186C113.508 60.6952 111.886 60.5441 110.472 59.706C110.42 59.6751 110.358 59.6545 110.299 59.645C109.605 59.5343 109.067 59.1521 108.55 58.7013C108.257 58.4454 107.917 58.1981 107.556 58.0727C106.77 57.7997 105.886 58.1947 105.344 59.0602C104.847 59.8528 104.196 60.4385 103.361 60.8438C103.073 60.9838 102.796 61.1495 102.527 61.3238C100.447 62.6668 98.3935 64.0519 96.2849 65.3477C94.7988 66.2614 93.8501 67.528 93.4732 69.1973C93.14 70.6718 92.8765 72.1642 92.6472 73.6584C92.503 74.5995 92.2368 75.3852 91.5311 76.122C89.8853 77.842 88.7794 79.8943 88.7296 82.3382C88.6893 84.3055 88.2574 86.1818 87.7629 88.0632C87.5311 88.9469 87.4118 89.8622 87.2787 90.7682C87.222 91.1546 87.2924 91.5342 87.8247 91.663C87.9269 91.3598 88.0411 91.0773 88.1158 90.7854C88.4386 89.5273 88.697 88.2487 89.0825 87.0105C89.4345 85.877 89.8973 84.7761 90.3592 83.6804C90.5326 83.2691 90.8494 82.9239 91.3311 82.7315C91.4633 83.0346 91.568 83.3034 91.6951 83.561C91.9063 83.9921 92.3905 84.2574 92.8636 84.2205C93.3624 84.181 93.7599 83.8753 93.8964 83.3807C93.9943 83.0278 94.0415 82.6619 94.1196 82.3039C94.2167 81.8591 94.3789 81.4529 94.8159 81.2262C95.0683 81.0948 95.2649 81.0982 95.4186 81.3936C96.151 82.8019 97.4294 83.2931 98.9044 83.3893C100.215 83.4743 101.257 83.0509 101.72 81.6942C101.749 81.6083 101.802 81.5302 101.841 81.4477C102.181 80.7401 102.723 80.3881 103.526 80.4276C104.358 80.4679 104.944 80.8071 105.237 81.6246C105.652 82.7822 105.651 83.9638 105.507 85.1582C105.387 86.1603 105.056 87.0534 104.232 87.7146C103.948 87.9422 103.722 88.2419 103.465 88.5038C102.351 89.645 102.262 90.8979 102.895 92.3379C103.754 94.2949 104.505 96.3 105.302 98.2845C105.393 98.5112 105.436 98.7808 105.588 98.9551C106.148 99.5992 106.293 100.357 106.31 101.171C106.321 101.694 106.599 102.075 107.063 102.288C107.222 102.361 107.465 102.377 107.612 102.303C107.693 102.263 107.699 101.972 107.66 101.813C107.552 101.368 107.384 100.938 107.277 100.494C107.23 100.297 107.269 100.08 107.269 99.8722C107.325 99.8645 107.38 99.8559 107.436 99.8482C107.549 100.022 107.668 100.193 107.774 100.369C107.988 100.725 108.294 100.928 108.711 100.934C109.036 100.938 109.229 100.773 109.236 100.432C109.244 100.083 109.046 99.9701 108.732 100.018C108.338 100.078 108.134 99.8774 108.013 99.5339C107.901 99.2171 107.82 98.8804 107.653 98.5936C107.192 97.7976 107.122 97.0153 107.461 96.1394C107.862 95.1012 107.88 93.9935 107.863 92.8892V92.8918ZM91.5131 105.62C92.2746 105.642 92.5202 105.456 92.6421 104.95C92.7674 104.431 92.8687 103.906 93.0112 103.393C93.2044 102.695 92.6841 102.084 91.9844 102.271C91.01 102.53 90.2673 103.128 89.8114 104.034C89.5556 104.545 89.7024 104.988 90.2252 105.211C90.7112 105.418 91.2358 105.535 91.5131 105.62V105.62ZM122.671 88.1362C122.671 88.4042 122.671 88.612 122.671 88.8198C122.672 89.177 122.828 89.426 123.164 89.5686C123.739 89.8124 124.346 89.6536 124.61 89.1787C124.87 88.7107 124.718 88.1483 124.189 87.7885C123.552 87.3565 122.82 87.1856 122.061 87.2011C121.464 87.2131 121.234 87.5326 121.171 88.144C121.116 88.6841 120.984 89.2156 120.885 89.7515C120.864 89.8614 120.841 89.9713 120.809 90.1379C121.483 89.9344 121.944 89.6261 122.047 88.9383C122.096 88.6094 122.15 88.2676 122.67 88.1362H122.671ZM93.6311 98.9045C93.6474 99.2608 93.6037 99.6541 94.0673 99.7546C94.5017 99.8491 94.8048 99.6868 94.9336 99.2317C94.9688 99.1089 95.0623 98.9629 95.1705 98.9062C95.8574 98.5455 95.9698 97.8861 96.1055 97.2223C96.2428 96.5482 95.8342 96.13 95.1757 96.3507C94.8709 96.4529 94.5635 96.6486 94.3454 96.8831C93.8217 97.4438 93.6792 98.166 93.6311 98.9045ZM92.8619 106.435C91.5208 106.262 90.318 106.1 89.1134 105.958C88.9657 105.941 88.8061 106.027 88.6515 106.066C88.7305 106.219 88.7786 106.404 88.8936 106.52C89.5727 107.206 91.6273 107.44 92.436 106.921C92.6026 106.813 92.7099 106.612 92.8619 106.435ZM121.551 102.367C121.43 103.092 121.774 103.662 122.414 103.864C123.091 104.079 123.869 103.815 124.134 103.281C124.263 103.02 124.292 102.84 123.9 102.785C123.272 102.697 122.651 102.552 122.027 102.435C121.869 102.405 121.708 102.388 121.551 102.366V102.367ZM110.544 90.5183C110.508 90.5277 110.472 90.5372 110.436 90.5466C110.636 91.0644 110.815 91.5925 111.048 92.0966C111.154 92.3267 111.385 92.5672 111.661 92.3714C111.758 92.3018 111.74 91.9644 111.672 91.7883C111.444 91.1958 111.5 90.9545 112.053 90.6471C112.362 90.4745 112.324 90.2538 112.069 90.1473C111.747 90.0142 111.381 89.949 111.031 89.9318C110.679 89.9155 110.45 90.1018 110.544 90.5183ZM100.371 103.299C99.7655 103.043 99.2315 102.798 98.682 102.595C98.5172 102.534 98.2313 102.512 98.1368 102.606C97.9222 102.823 97.9591 103.108 98.1875 103.339C98.658 103.814 99.7809 103.833 100.372 103.299H100.371Z" fill="white"/>
<path d="M64.3679 89.9711C64.2478 89.8148 64.0881 89.6757 64.0159 89.5006C63.7944 88.9647 63.5901 88.4194 63.4081 87.869C62.249 84.3715 61.023 80.8946 59.9627 77.367C58.5221 72.5711 57.5691 67.6609 56.8204 62.7113C56.1679 58.398 55.712 54.0632 55.5231 49.7044C55.4038 46.954 55.3488 44.2001 55.2862 41.447C55.2759 40.9928 55.3454 40.5308 55.4261 40.0817C55.5008 39.6652 55.6596 39.6137 55.9765 39.8936C56.647 40.487 57.0205 41.2495 57.1063 42.134C57.1904 43.0013 57.2308 43.8738 57.2815 44.7445C57.5579 49.5249 57.7683 54.3097 58.1237 59.0841C58.4954 64.075 59.2484 69.0203 60.2572 73.9244C61.2814 78.9041 62.6345 83.7927 64.2692 88.6049C64.4092 89.018 64.4675 89.4593 64.5637 89.887C64.4984 89.9153 64.4332 89.9437 64.3679 89.972V89.9711Z" fill="white"/>
<path d="M84.0206 45.6708C83.5106 45.7266 83.0126 45.7807 82.4314 45.8442V39.1729C82.3799 39.1652 82.3275 39.1574 82.276 39.1489C81.5454 41.5378 80.8147 43.9259 80.0841 46.3148C80.0163 46.3114 79.9476 46.3071 79.8798 46.3036C79.1646 44.2092 78.4486 42.1148 77.7334 40.0213C77.6956 40.0247 77.657 40.0282 77.6192 40.0316C77.6106 40.1853 77.5952 40.339 77.5952 40.4936C77.5952 42.3596 77.584 44.2256 77.6089 46.0915C77.6141 46.4814 77.4887 46.6394 77.1204 46.6849C76.7469 46.7304 76.3777 46.8111 75.9399 46.8884C75.9399 46.6609 75.9399 46.4977 75.9399 46.3337C75.9399 42.831 75.9467 39.3283 75.9322 35.8256C75.9304 35.4521 76.0214 35.2924 76.4069 35.2177C77.736 34.9609 77.7394 34.9429 78.1601 36.2292C78.7156 37.9286 79.259 39.6323 79.8111 41.3334C79.8609 41.4854 79.9339 41.6297 80.0996 41.7696C80.358 40.8852 80.6173 40.0007 80.8731 39.1154C81.3015 37.6324 81.7351 36.1502 82.1481 34.6638C82.2339 34.3564 82.3653 34.2052 82.7027 34.1898C83.1243 34.17 83.5432 34.0859 84.0197 34.0215V45.6733L84.0206 45.6708Z" fill="white"/>
<path d="M140.859 49.7861C139.857 49.7303 139.474 49.4186 139.14 48.6002C138.343 46.6475 137.511 44.7085 136.702 42.761C136.434 42.1169 136.193 41.4618 135.939 40.8117C135.896 40.8203 135.852 40.8289 135.809 40.8366V48.3091C135.278 48.1838 134.811 48.1013 134.369 47.9476C134.254 47.9081 134.156 47.6462 134.154 47.4848C134.136 46.292 134.143 45.0993 134.142 43.9056C134.141 41.5811 134.139 39.2557 134.138 36.9312C134.138 36.7663 134.138 36.6014 134.138 36.4434C135.173 36.306 135.822 36.6856 136.183 37.5666C137.095 39.7864 138.018 42.0019 138.937 44.2182C138.972 44.3007 139.014 44.3797 139.159 44.4518V37.7332C139.724 37.8861 140.198 37.9891 140.649 38.1549C140.75 38.1918 140.819 38.4502 140.819 38.6074C140.836 40.5498 140.836 42.4922 140.842 44.4346C140.847 46.0404 140.854 47.6462 140.86 49.252C140.86 49.4169 140.86 49.5826 140.86 49.7844L140.859 49.7861Z" fill="white"/>
<path d="M91.511 38.9583C92.3549 39.4083 92.8246 40.0995 92.9259 41.002C93.0675 42.2678 92.846 43.4571 91.8973 44.3802C91.6097 44.6601 91.1864 44.9032 90.7967 44.9581C89.4977 45.1419 88.1849 45.2269 86.8791 45.3609C86.4996 45.3995 86.3785 45.2544 86.3794 44.8757C86.3906 41.3146 86.3871 37.7535 86.3863 34.1933C86.3863 33.8996 86.4541 33.6892 86.8061 33.6652C87.766 33.6008 88.7241 33.502 89.6848 33.4531C90.9031 33.3913 91.9394 33.7399 92.4846 34.9361C93.0478 36.1726 92.7739 37.6505 91.8544 38.5899C91.7497 38.6973 91.6501 38.8089 91.511 38.9583ZM88.1618 43.8092C88.676 43.774 89.1628 43.7817 89.635 43.7018C91.0534 43.4622 91.766 41.744 90.9306 40.5521C90.7623 40.3125 90.4412 40.0686 90.1656 40.0368C89.5105 39.9621 88.8409 40.0128 88.1609 40.0128V43.8092H88.1618ZM88.1351 38.4946C88.8555 38.3478 89.5329 38.2962 90.1424 38.0652C91.013 37.7355 91.341 36.2774 90.7477 35.5561C90.588 35.3612 90.3081 35.1817 90.066 35.1551C89.538 35.0975 88.9988 35.1267 88.4665 35.1602C88.3506 35.1671 88.1515 35.3363 88.1497 35.4341C88.1257 36.4071 88.1351 37.3808 88.1351 38.4955V38.4946Z" fill="white"/>
<path d="M110.28 44.9431C109.701 44.9431 109.167 44.9697 108.639 44.9242C108.513 44.913 108.357 44.6811 108.301 44.5214C107.786 43.0831 107.294 41.6362 106.781 40.197C106.721 40.0278 106.595 39.777 106.468 39.7573C106.112 39.7015 105.74 39.7307 105.378 39.7693C105.331 39.7745 105.286 40.0355 105.285 40.1789C105.279 41.5855 105.273 42.9929 105.29 44.3995C105.294 44.7481 105.196 44.8752 104.833 44.8967C103.556 44.9714 103.553 44.9826 103.553 43.7391C103.553 40.3292 103.552 36.9192 103.551 33.5093C103.551 33.3427 103.551 33.1753 103.551 32.9563C103.755 32.94 103.932 32.9099 104.109 32.9134C105.224 32.9365 106.345 32.9065 107.452 33.013C108.699 33.1332 109.662 33.7772 110.066 35.0078C110.495 36.3173 110.445 37.6079 109.531 38.7397C109.365 38.9467 109.12 39.1072 108.882 39.2352C108.57 39.4035 108.491 39.5873 108.612 39.9359C109.154 41.4945 109.67 43.0616 110.195 44.6262C110.227 44.7241 110.247 44.8271 110.278 44.9456L110.28 44.9431ZM105.288 36.2864H105.293C105.293 36.7595 105.274 37.2335 105.306 37.7041C105.315 37.8303 105.48 38.0442 105.582 38.0493C106.128 38.0777 106.683 38.1017 107.224 38.0356C108.115 37.9257 108.51 37.4156 108.541 36.4607C108.573 35.4758 108.173 34.8472 107.317 34.6909C106.752 34.5878 106.165 34.6067 105.588 34.5707C105.339 34.5552 105.281 34.6943 105.286 34.9133C105.294 35.371 105.288 35.8287 105.288 36.2864Z" fill="white"/>
<path d="M127.599 46.5123C127.109 46.4427 126.719 46.3654 126.326 46.3388C125.96 46.3139 125.842 46.1645 125.848 45.7935C125.87 44.4024 125.841 43.0104 125.869 41.6193C125.878 41.1934 125.747 41.0371 125.325 40.9856C124.418 40.8757 123.519 40.7108 122.541 40.5562V45.7832C121.987 45.6965 121.502 45.6432 121.033 45.5282C120.928 45.5024 120.815 45.2611 120.811 45.1169C120.791 44.2152 120.801 43.3127 120.801 42.4102C120.801 39.7954 120.801 37.1798 120.801 34.565C120.801 34.3855 120.801 34.2061 120.801 33.957C121.336 34.0214 121.818 34.0566 122.288 34.1554C122.386 34.176 122.493 34.4293 122.497 34.5779C122.523 35.8617 122.541 37.1471 122.527 38.4309C122.523 38.7907 122.651 38.9049 122.983 38.9479C123.92 39.0689 124.852 39.2184 125.849 39.3652V34.7041C126.389 34.7797 126.871 34.8183 127.334 34.9325C127.445 34.96 127.559 35.2365 127.564 35.4014C127.605 36.6388 127.638 37.8779 127.638 39.1162C127.638 41.3643 127.613 43.6124 127.598 45.8596C127.597 46.0546 127.598 46.2495 127.598 46.5123H127.599Z" fill="white"/>
<path d="M101.692 38.898C101.653 40.5141 101.479 42.0434 100.68 43.426C99.6307 45.2396 97.4775 45.6998 96.0128 44.3405C95.5011 43.8656 95.0933 43.164 94.8941 42.49C94.2321 40.2479 94.166 37.962 94.8726 35.7096C95.0701 35.0801 95.3826 34.4473 95.7896 33.932C97.1701 32.1828 99.6419 32.4284 100.723 34.3777C101.314 35.4451 101.508 36.6198 101.634 37.8108C101.674 38.1904 101.675 38.5742 101.691 38.8988L101.692 38.898ZM96.0609 38.7932C96.0858 38.7984 96.1098 38.8026 96.1347 38.8078C96.1639 39.3265 96.1295 39.8589 96.2369 40.3604C96.4077 41.1598 96.5768 41.985 96.922 42.7167C97.3899 43.7102 98.5146 43.7119 99.1173 42.7819C99.3053 42.4908 99.4513 42.1594 99.5517 41.827C99.9939 40.3689 100.068 38.8731 99.8136 37.3823C99.6848 36.6267 99.4616 35.8555 99.1165 35.1754C98.6503 34.2558 97.5994 34.2343 96.9804 35.069C96.7666 35.3575 96.5683 35.6993 96.4979 36.0445C96.3124 36.9521 96.2017 37.8752 96.0609 38.7923V38.7932Z" fill="white"/>
<path d="M115.589 40.7099C115.589 40.3509 115.575 39.9242 115.6 39.5C115.605 39.4115 115.76 39.2561 115.839 39.2604C116.661 39.305 117.485 39.3557 118.302 39.4562C118.45 39.4742 118.67 39.7112 118.689 39.8675C118.849 41.1873 118.776 42.4926 118.35 43.766C118.056 44.6471 117.442 45.182 116.533 45.2018C115.656 45.2215 114.754 45.17 113.906 44.9657C113.482 44.8635 113.071 44.4092 112.803 44.0133C112.174 43.0851 111.932 41.9962 111.783 40.8997C111.525 39.0139 111.54 37.1436 112.252 35.3378C112.82 33.8951 113.894 33.1352 115.28 33.1764C116.715 33.2193 118.244 34.4911 118.481 35.8358C118.58 36.4052 118.542 36.461 117.983 36.5589C117.968 36.5614 117.953 36.5649 117.939 36.5674C116.957 36.7349 116.961 36.7332 116.548 35.8187C116.309 35.2897 115.914 34.9634 115.313 34.9393C114.706 34.9144 114.251 35.2021 114.047 35.7457C113.818 36.3553 113.637 36.9959 113.536 37.6383C113.314 39.0569 113.349 40.4832 113.756 41.8674C113.904 42.3672 114.169 42.8549 114.474 43.2809C114.826 43.772 115.378 43.8863 115.96 43.7351C116.543 43.584 116.801 43.1383 116.859 42.5862C116.906 42.1319 117.043 41.5703 116.84 41.2423C116.654 40.9426 116.065 40.8945 115.591 40.7107L115.589 40.7099Z" fill="white"/>
<path d="M74.3661 47.229C73.8278 47.3553 73.335 47.4592 72.849 47.5888C72.5631 47.6653 72.4687 47.5433 72.4154 47.2883C72.2807 46.6451 72.1089 46.0097 71.9922 45.3639C71.9329 45.0402 71.8084 44.9165 71.477 44.9629C70.9782 45.0325 70.476 45.0754 69.9746 45.1226C69.4732 45.1699 69.1684 45.388 69.1152 45.9367C69.0594 46.5129 68.9186 47.0813 68.8473 47.6567C68.7606 48.36 68.4361 48.8125 67.7003 48.9276C67.4212 48.9714 67.1508 49.0736 66.7808 49.1757C66.8829 48.6305 66.9482 48.1668 67.0572 47.7142C67.8857 44.2536 68.728 40.7964 69.5496 37.3333C69.681 36.7802 70.0304 36.5742 70.5369 36.4677C71.4599 36.2727 71.477 36.253 71.7097 37.1452C72.291 39.377 72.8396 41.6174 73.4268 43.8483C73.6947 44.8659 74.0244 45.8671 74.3214 46.877C74.3506 46.9757 74.3481 47.0831 74.3661 47.2299V47.229ZM70.6503 39.784L70.5361 39.7806C70.2502 41.0918 69.9634 42.4022 69.6578 43.8028C70.2459 43.6705 70.7473 43.5692 71.2392 43.4335C71.3122 43.4138 71.3989 43.2171 71.3792 43.1227C71.1474 42.0072 70.8958 40.896 70.6503 39.784Z" fill="white"/>
<path d="M60.3866 51.3379C60.3866 51.1429 60.3866 50.9471 60.3866 50.7522C60.3875 47.2942 60.3883 43.8353 60.3892 40.3773C60.3892 39.7118 60.463 39.5907 61.082 39.3734C61.3817 39.2687 61.695 39.2043 62.0874 39.0986V49.0666C63.4018 48.6295 64.6176 48.2259 65.9414 47.7854C65.9414 48.2714 65.9861 48.657 65.9243 49.0236C65.8899 49.2306 65.7208 49.5157 65.5431 49.5809C63.8964 50.1941 62.2351 50.7677 60.5772 51.3507C60.5386 51.3645 60.4879 51.3456 60.3857 51.337L60.3866 51.3379Z" fill="white"/>
<path d="M131.731 47.307C131.178 47.2091 130.715 47.1181 130.249 47.0494C129.918 47.0005 129.994 46.7575 129.994 46.5582C129.99 43.7906 129.991 41.0238 129.99 38.2562C129.99 37.3417 129.99 36.4272 129.99 35.4268C130.544 35.5281 131.05 35.5976 131.541 35.7299C131.635 35.7556 131.713 36.0244 131.715 36.1824C131.73 37.4361 131.724 38.6899 131.725 39.9436C131.727 42.2063 131.729 44.469 131.731 46.7317C131.731 46.8957 131.731 47.0597 131.731 47.307Z" fill="white"/>
<path d="M144.11 50.5459C143.553 50.4437 143.083 50.3802 142.629 50.2574C142.522 50.2282 142.403 50.0015 142.4 49.8641C142.382 48.5949 142.39 47.3257 142.389 46.0565C142.389 43.793 142.387 41.5303 142.386 39.2667C142.386 39.0872 142.386 38.9069 142.386 38.6484C142.954 38.7626 143.464 38.8425 143.956 38.9842C144.047 39.0108 144.11 39.2856 144.111 39.4462C144.125 41.8162 144.126 44.1871 144.129 46.5572C144.131 47.719 144.132 48.8817 144.132 50.0435C144.132 50.1912 144.119 50.3381 144.109 50.5459H144.11Z" fill="white"/>
<path d="M109.291 60.482C109.282 60.5731 109.286 60.6667 109.263 60.7543C109.206 60.981 109.138 61.2042 109.073 61.4292C108.825 61.327 108.552 61.2626 108.335 61.1149C107.915 60.8298 107.688 60.4013 107.789 59.8964C107.836 59.662 108.019 59.3494 108.214 59.2807C108.41 59.212 108.78 59.3297 108.924 59.4954C109.146 59.7504 109.238 60.1171 109.385 60.4357C109.353 60.4511 109.322 60.4657 109.29 60.4812L109.291 60.482Z" fill="white"/>
</svg>
