<svg width="145" height="166" viewBox="0 0 145 166" fill="none" xmlns="http://www.w3.org/2000/svg">
<g clip-path="url(#clip0_2055_3656)">
<path d="M66.9337 33C67.3707 33.0293 67.8078 33.0615 68.2448 33.0869C70.2042 33.2007 72.151 33.4248 74.0709 33.8311C78.2941 34.7241 81.9157 36.7256 84.9249 39.8198C87.8327 42.8096 89.6237 46.3926 90.5158 50.4473C91.0792 53.0088 91.2687 55.5967 91.0431 58.2075C90.6271 63.0249 89.0231 67.416 86.1574 71.313C84.5324 73.5225 82.6105 75.4702 80.5299 77.2583C79.2204 78.3838 77.8551 79.4341 76.3483 80.3403C76.4074 80.4336 76.4557 80.5137 76.507 80.5918C80.004 85.917 82.9152 91.5449 85.2179 97.4849C87.216 102.64 88.7257 107.941 89.8791 113.345C90.2335 115.005 90.5495 116.675 90.8336 118.349C91.0241 119.472 91.1803 120.598 91.5397 121.683C91.7399 122.287 91.9835 122.871 92.3595 123.39C92.5914 123.71 92.8615 123.986 93.2257 124.16C93.2785 124.185 93.3346 124.257 93.341 124.313C93.3576 124.456 93.3463 124.602 93.3463 124.76H75.0954C75.0954 124.635 75.1061 124.522 75.0929 124.413C75.0729 124.248 75.1471 124.17 75.2887 124.096C76.7345 123.342 77.8913 122.268 78.779 120.904C79.6999 119.49 80.2125 117.927 80.4611 116.266C80.671 114.864 80.652 113.458 80.5133 112.055C80.3424 110.324 80.1808 108.589 79.9254 106.87C79.402 103.348 78.4899 99.9199 77.2843 96.5698C75.6427 92.0088 73.7877 87.54 71.527 83.2461C71.4894 83.1743 71.4513 83.103 71.3996 83.0063C71.0456 83.1421 70.6935 83.2788 70.3405 83.4131C66.6227 84.8267 62.8029 85.8594 58.8805 86.5229C56.2897 86.9614 53.6872 87.3057 51.0709 87.5444C49.4913 87.6885 47.9098 87.8057 46.3292 87.9355C46.2819 87.9394 46.235 87.9487 46.1676 87.9585C46.1632 88.0513 46.1559 88.1387 46.1559 88.2256C46.1554 98.3408 46.153 108.456 46.1583 118.571C46.1588 119.928 46.3981 121.242 47.0094 122.468C47.361 123.172 47.8449 123.764 48.5289 124.177C48.7926 124.336 48.6007 124.587 48.671 124.811H34.6017C34.5665 124.5 34.548 124.261 34.8844 124.048C35.7623 123.492 36.2277 122.612 36.5607 121.658C36.9235 120.62 37.0875 119.546 37.0875 118.448C37.0885 92.2529 37.087 66.0571 37.0924 39.8618C37.0924 38.728 37.0748 37.6006 36.8058 36.4922C36.5968 35.6304 36.2819 34.8164 35.6862 34.1382C35.5954 34.0347 35.5084 33.9121 35.3922 33.8481C35.0436 33.6582 34.9513 33.3657 35.0001 33C45.6447 33 56.2892 33 66.9337 33ZM46.0968 38.1968V82.2354C46.1666 82.2354 46.2223 82.2397 46.2775 82.2349C47.8805 82.0859 49.4865 81.9653 51.0851 81.7803C53.6066 81.4883 56.1056 81.04 58.5543 80.376C62.1222 79.4082 65.4743 77.9282 68.5597 75.8774C72.6842 73.1357 75.8976 69.5918 77.9279 65.0459C80.0407 60.3149 80.6842 55.3652 79.9577 50.2432C79.6364 47.979 78.9186 45.8403 77.7726 43.8472C76.3478 41.3691 74.3341 39.6372 71.5661 38.8281C69.8947 38.3398 68.1774 38.2036 66.4503 38.2007C59.7863 38.1899 53.1227 38.1973 46.4586 38.1973C46.3458 38.1973 46.233 38.1973 46.0968 38.1973V38.1968Z" fill="white"/>
<path d="M92.4707 133C92.4741 132.993 92.481 132.984 92.48 132.978C92.3955 132.521 92.6831 132.356 93.0342 132.165C95.1445 131.012 96.4873 129.22 97.2485 126.97C97.7915 125.364 97.9619 123.706 97.896 122.016C97.7778 118.978 97.4063 115.972 96.793 112.995C96.1094 109.675 95.0806 106.462 93.8496 103.307C92.3979 99.5859 90.7593 95.9526 88.8989 92.4189C88.8687 92.3618 88.835 92.3071 88.8071 92.2588C87.5977 92.6953 86.395 93.1289 85.2305 93.5493C84.2261 91.481 83.2402 89.4512 82.2441 87.3999C82.4346 87.3105 82.6538 87.2114 82.8701 87.1055C89.9922 83.6235 94.603 78.0552 96.6909 70.4126C97.3687 67.9312 97.5786 65.3906 97.4741 62.8213C97.3862 60.6562 97.0688 58.5337 96.3355 56.4863C95.5742 54.3618 94.4331 52.4829 92.7402 50.9644C92.6377 50.8726 92.5361 50.7607 92.4131 50.7153C92.0937 50.5977 91.9751 50.3682 91.8999 50.0513C91.3965 47.9375 90.5986 45.9336 89.5947 44.0098C89.5615 43.9468 89.5327 43.8813 89.4785 43.77C89.6914 43.7954 89.8652 43.8066 90.0356 43.8374C92.0317 44.2021 93.9912 44.6948 95.832 45.5732C101.596 48.3242 105.389 52.7676 107.21 58.8857C108.027 61.6313 108.343 64.4448 108.183 67.3027C107.901 72.3096 106.316 76.8745 103.343 80.9155C101.518 83.397 99.3345 85.5586 96.9219 87.4751C95.9487 88.248 94.9145 88.9443 93.9087 89.6753C93.8506 89.7173 93.793 89.7598 93.7393 89.7988C94.3555 90.7837 94.9751 91.748 95.5698 92.727C99.4341 99.0869 102.419 105.838 104.581 112.958C105.983 117.574 107.117 122.253 107.929 127.009C108.111 128.075 108.245 129.147 108.585 130.179C108.813 130.869 109.085 131.541 109.591 132.082C109.755 132.257 109.946 132.437 110.162 132.527C110.407 132.628 110.476 132.765 110.44 132.999H92.4712L92.4707 133Z" fill="white"/>
<path d="M52.7246 133C52.669 132.63 52.8032 132.399 53.1318 132.175C53.9199 131.638 54.3579 130.823 54.6743 129.945C55.044 128.919 55.2271 127.859 55.2271 126.766C55.2246 114.111 55.2256 101.457 55.2256 88.8018C55.2256 88.4131 55.2246 88.4067 55.6113 88.354C58.3755 87.978 61.1177 87.4824 63.8355 86.8521C63.8823 86.8413 63.9302 86.8335 63.9971 86.8203V91.4292C64.0752 91.4341 64.1367 91.4443 64.1978 91.4399C66.7227 91.2705 69.2363 91 71.7334 90.5854C72.2227 90.5044 72.7119 90.4229 73.1987 90.3306C73.3565 90.3008 73.4268 90.3462 73.4868 90.4956C74.1426 92.123 74.8071 93.7471 75.4658 95.373C75.5069 95.4741 75.5152 95.5879 75.5444 95.7202C71.728 96.3687 67.9131 96.7432 64.0527 96.9722C64.0527 97.0737 64.0527 97.1602 64.0527 97.2466C64.0527 107.126 64.0518 117.006 64.0542 126.885C64.0542 128.119 64.2691 129.313 64.7881 130.44C65.1494 131.225 65.6631 131.883 66.4219 132.33C66.4829 132.366 66.5337 132.462 66.542 132.536C66.5591 132.688 66.5444 132.845 66.543 132.999H52.7246V133Z" fill="white"/>
<path d="M52.9575 43.1729C53.1455 43.1729 53.2417 43.1729 53.3384 43.1729C60.687 43.1729 68.0352 43.1738 75.3838 43.1685C75.5908 43.1685 75.7222 43.2241 75.8496 43.3945C76.8926 44.791 77.6597 46.3218 78.123 48.0029C78.144 48.0791 78.1582 48.1577 78.1826 48.2656H64.0034V48.5981C64.0034 57.9238 64.0024 67.25 64.0088 76.5757C64.0088 76.8032 63.9414 76.9097 63.7324 77.0044C61.1865 78.1606 58.5596 79.0708 55.8203 79.6475C55.6294 79.6875 55.4375 79.7231 55.2461 79.7593C55.2319 79.7622 55.2153 79.7524 55.1758 79.7432C55.1758 79.6606 55.1758 79.5728 55.1758 79.4849C55.1758 69.5488 55.1719 59.6123 55.1812 49.6763C55.1821 48.415 55.1021 47.1729 54.6768 45.9751C54.3657 45.0991 53.8906 44.3428 53.1211 43.7803C52.999 43.6909 53.0161 43.4102 52.958 43.1733L52.9575 43.1729Z" fill="white"/>
</g>
<defs>
<clipPath id="clip0_2055_3656">
<rect width="79.9805" height="100" fill="white" transform="translate(32.5098 33)"/>
</clipPath>
</defs>
</svg>
