<svg width="126" height="126" viewBox="0 0 126 126" fill="none" xmlns="http://www.w3.org/2000/svg">
<path fill-rule="evenodd" clip-rule="evenodd" d="M62.984 125.93C28.1948 125.916 0 97.9297 0 63.4228C0 28.8999 28.2108 0.914817 62.984 0.930182C97.8052 0.930182 126 28.916 126 63.4228C126 97.945 97.7892 125.93 62.984 125.93ZM11.3251 93.404L12.453 92.524C9.19474 86.5373 7.94227 82.5459 6.51645 78.1152C6.39113 77.7849 6.31316 77.5642 6.17183 77.3756C6.07784 77.6263 6.12518 77.8477 6.1405 78.1299C7.04904 82.9698 9.24208 89.0676 11.3251 93.404ZM63.8612 7.13692L72.4294 57.1218L63.4699 62.3857L63.1727 7.15298C63.1727 6.49299 62.7341 6.49299 62.6401 7.15298L57.5801 59.5418L53.8213 57.3579L61.8722 7.15368C30.6698 7.34155 6.0305 32.4674 6.0305 63.5171C6.0305 73.322 9.10075 83.6305 13.5175 91.6594L52.8341 58.8657L56.6082 61.0336L12.4683 92.8537C11.4031 93.608 11.7164 93.9697 12.8909 93.3258L62.1847 64.7582V75.0352L14.5819 93.2622C24.5439 109.589 42.2128 119.991 62.8266 119.991C83.3938 119.991 101.36 109.574 111.322 93.2783L63.7978 75.0667V64.7896L111.213 92.2251C112.292 92.8222 112.606 92.4926 111.588 91.7697L69.3751 61.0504L73.1499 58.8818L112.435 91.7069C116.947 83.6305 119.922 73.3067 119.922 63.4228C119.922 32.7656 94.5157 7.97011 63.8612 7.13692ZM122.977 52.1087C123.086 52.4076 123.18 52.659 123.321 52.8315C123.415 52.5801 123.337 52.3601 123.321 52.0772C118.136 23.6675 93.5758 2.43874 63.1093 2.43874C29.0093 2.43874 1.42513 30.1731 1.42513 64.365C1.42513 72.4414 3.47753 80.142 6.26582 87.1966C7.55031 90.4484 11.6537 97.8661 12.6563 99.3272C12.8756 99.6408 12.9695 99.7979 13.2202 99.9872C13.2049 99.6883 13.1895 99.5465 13.0322 99.1854C12.8595 98.8865 9.3667 92.2083 7.34632 87.2427C5.62322 82.9691 3.47753 74.4535 3.47753 64.5843C3.47753 31.4135 30.3098 4.49624 63.3753 4.49624C80.6689 4.51161 96.928 12.9812 106.889 23.9496C114.456 32.2788 118.372 37.8731 122.977 52.1087ZM13.2668 93.749L11.9044 94.2526C20.7545 111.223 39.3159 123.558 62.984 123.558C96.5674 123.574 123.415 96.3108 123.415 63.4228C123.415 55.3772 121.097 50.4437 119.797 46.8769C118.842 44.2055 116.789 40.1038 115.881 38.4227C115.693 38.0924 115.568 37.9513 115.317 37.7473C115.332 38.0456 115.349 38.2188 115.536 38.5491C116.242 39.9473 117.807 43.4673 118.919 47.0026C120.423 51.7008 121.363 56.9647 121.363 63.4235C121.363 73.6838 118.152 84.1809 113.422 92.5394C113.688 93.2308 113.436 93.5772 112.639 93.7972C102.315 110.454 83.9104 121.358 62.968 121.343C43.294 121.343 27.5675 110.767 22.6022 105.284C18.5614 100.82 15.5699 97.5058 13.2668 93.749ZM59.8671 60.8772L62.4674 62.4011L62.7967 21.8446C62.7967 21.0275 62.5468 20.9961 62.4834 21.8132L59.8671 60.8772ZM64.4091 63.9411L99.3863 84.4784C100.013 84.8401 100.138 84.6202 99.5443 84.2277L67.0728 62.4011L64.4091 63.9411ZM59.0839 62.5268L50.2964 69.7399C49.8111 70.1478 50.0305 70.3364 50.6097 70.0074L61.5742 63.9103L59.0839 62.5268Z" fill="white"/>
</svg>
