<svg width="72" height="130" viewBox="0 0 72 130" fill="none" xmlns="http://www.w3.org/2000/svg">
<g clip-path="url(#clip0_413_1704)">
<path fill-rule="evenodd" clip-rule="evenodd" d="M70.4471 1.97488C69.7676 1.30151 68.864 0.931396 67.9051 0.931396H4.09494C2.11194 0.931396 0.5 2.52885 0.5 4.49404V126.366C0.5 127.319 0.873469 128.212 1.55294 128.886C2.23241 129.559 3.13597 129.929 4.09494 129.929H67.9051C68.8664 129.929 69.7676 129.559 70.4471 128.886C71.1265 128.212 71.5 127.317 71.5 126.366V4.49404C71.5 3.54129 71.1265 2.64824 70.4471 1.97488ZM69.2255 126.627C69.2255 127.348 68.6327 127.935 67.9051 127.935H4.09494C3.74315 127.935 3.41065 127.799 3.16247 127.553C2.91188 127.305 2.77695 126.978 2.77695 126.627V106.707H69.2255V126.627ZM69.2255 104.188H2.77454V25.5475L69.223 25.4878V104.188H69.2255ZM69.2255 22.971H2.77454V4.23137C2.77454 3.88275 2.91188 3.55323 3.16006 3.30729C3.40824 3.06134 3.74074 2.92523 4.09253 2.92523H67.9051C68.2568 2.92523 68.5893 3.06134 68.8375 3.30729C69.0881 3.55562 69.2255 3.88275 69.2255 4.23137V22.971Z" fill="white"/>
<path fill-rule="evenodd" clip-rule="evenodd" d="M36.9336 21.08C37.0468 20.7695 37.1336 20.4878 37.1601 19.9242V6.56196C37.1312 5.99843 37.0468 5.71667 36.9336 5.40625H38.9816C38.8684 5.71667 38.7817 5.99843 38.7527 6.56196V18.6563C38.7527 19.1076 39.2371 19.6425 40.29 19.6425C41.3429 19.6425 43.0199 19.6425 43.8175 19.2198L42.6513 21.08H36.9336Z" fill="white"/>
<path fill-rule="evenodd" clip-rule="evenodd" d="M47.7956 21.08C47.9089 20.7695 47.9956 20.4878 48.0221 19.9242V6.56196C47.9932 5.99843 47.9089 5.71667 47.7956 5.40625H49.8437C49.7304 5.71667 49.6437 5.99843 49.6148 6.56196V18.6563C49.6148 19.1076 50.0991 19.6425 51.1496 19.6425C52.2001 19.6425 53.8795 19.6425 54.6771 19.2198L53.5109 21.08H47.7932H47.7956Z" fill="white"/>
<path fill-rule="evenodd" clip-rule="evenodd" d="M64.2355 8.53664L64.9463 6.7601C64.633 6.70279 64.2355 6.59056 63.6957 6.36611C63.1922 6.15598 62.2742 5.77393 61.3923 5.77393C60.5104 5.77393 58.0889 6.28253 57.9491 8.87571C57.8359 11.0176 59.2864 12.0611 59.8261 12.4837C60.5948 13.0472 62.5561 14.542 63.4379 15.7527C64.3198 16.9657 64.7752 19.5015 61.6164 19.8693C60.5345 19.8693 59.3418 19.3344 58.6864 18.9118L58.9419 21.1109C59.5972 20.9987 59.9683 21.1348 60.2502 21.1683C60.7345 21.2256 61.3875 21.3664 62.0139 21.3378C62.6404 21.3091 65.8546 20.7743 65.8546 17.7011C65.8546 14.9957 63.9487 13.6705 63.1801 13.0496C62.6404 12.6556 60.8622 11.1131 60.1924 10.5973C59.6792 10.2033 58.8551 7.41198 61.3875 7.35467C62.6693 7.32601 63.8066 8.28592 64.2331 8.53903L64.2355 8.53664Z" fill="white"/>
<path fill-rule="evenodd" clip-rule="evenodd" d="M38.8564 124.184C38.8853 124.748 38.9697 125.03 39.0829 125.34H37.0349C37.1481 125.03 37.2349 124.748 37.2614 124.184V116.995L33.052 109.666H34.9001L38.1143 115.275L41.3285 109.666H43.1766L38.854 117.164V124.184H38.8564Z" fill="white"/>
<path fill-rule="evenodd" clip-rule="evenodd" d="M64.4931 115.39H61.7054C61.2211 115.39 60.8235 115.192 60.8235 114.571V112.09C60.8235 111.639 61.3078 111.104 62.3584 111.104C63.4089 111.104 64.351 111.104 65.1461 111.526L64.7196 109.666H59.002C59.1152 109.977 59.2019 110.258 59.2284 110.822V124.184C59.1995 124.748 59.1152 125.03 59.002 125.34H64.7196L65.8858 123.48C65.0883 123.902 63.4113 123.902 62.3584 123.902C61.3054 123.902 60.8235 123.368 60.8235 122.916V117.785C60.8235 117.164 61.2211 116.968 61.7054 116.968H64.4931V115.39Z" fill="white"/>
<path fill-rule="evenodd" clip-rule="evenodd" d="M55.4843 112.355C54.2723 111.417 52.7953 110.98 51.2002 110.98C47.6896 110.98 44.844 114.024 44.844 117.503C44.844 120.982 47.6896 124.141 51.2002 124.141C52.9543 124.141 54.5446 123.943 55.6939 122.804L55.7565 124.729C54.4699 125.634 52.8965 125.658 51.2002 125.658C46.8463 125.658 43.3164 121.82 43.3164 117.506C43.3164 113.191 46.8463 109.466 51.2002 109.466C52.7615 109.466 54.0458 109.69 55.2698 110.466L55.4818 112.355H55.4843Z" fill="white"/>
<path fill-rule="evenodd" clip-rule="evenodd" d="M25.7656 5.43018C21.4117 5.43018 17.8818 8.92834 17.8818 13.2431C17.8818 17.558 21.4117 21.0561 25.7656 21.0561C30.1196 21.0561 33.6494 17.558 33.6494 13.2431C33.6494 8.92834 30.1196 5.43018 25.7656 5.43018ZM25.7656 19.5422C22.255 19.5422 19.4094 16.7222 19.4094 13.2431C19.4094 9.76408 22.255 6.94406 25.7656 6.94406C29.2762 6.94406 32.1218 9.76408 32.1218 13.2431C32.1218 16.7222 29.2762 19.5422 25.7656 19.5422Z" fill="white"/>
<path fill-rule="evenodd" clip-rule="evenodd" d="M24.7368 109.69C20.3829 109.69 16.853 113.188 16.853 117.503C16.853 121.818 20.3829 125.316 24.7368 125.316C29.0907 125.316 32.6206 121.818 32.6206 117.503C32.6206 113.188 29.0907 109.69 24.7368 109.69ZM24.7368 123.802C21.2262 123.802 18.3806 120.982 18.3806 117.503C18.3806 114.024 21.2262 111.204 24.7368 111.204C28.2474 111.204 31.093 114.024 31.093 117.503C31.093 120.982 28.2474 123.802 24.7368 123.802Z" fill="white"/>
<path fill-rule="evenodd" clip-rule="evenodd" d="M11.3933 12.8491C11.2222 12.6509 11.2511 12.3429 11.5065 12.3429H12.2463C14.1787 12.3429 15.7472 10.7908 15.7472 8.87576C15.7472 6.96073 14.1811 5.40625 12.2463 5.40625H7.21045C7.32369 5.71667 7.41044 5.99843 7.43694 6.56196V19.9242C7.40803 20.4878 7.32369 20.7695 7.21045 21.08H9.2585C9.14526 20.7695 9.05852 20.4878 9.03201 19.9242V13.3267C9.03201 12.8181 9.34524 12.8467 9.57173 13.1285L16.3713 21.0776H18.4482L11.3933 12.8467V12.8491ZM9.02719 10.7407V6.95834H12.2414C13.2968 6.95834 14.1521 7.80602 14.1521 8.85188C14.1521 9.89775 13.2968 10.7454 12.2414 10.7454L9.02719 10.7407Z" fill="white"/>
<path fill-rule="evenodd" clip-rule="evenodd" d="M10.3645 116.882C10.1934 116.684 10.2223 116.374 10.4777 116.374H11.2174C13.1498 116.374 14.7184 114.822 14.7184 112.907C14.7184 110.991 13.1523 109.437 11.2174 109.437H6.18164C6.29489 109.747 6.38163 110.029 6.40813 110.593V123.955C6.37922 124.519 6.29489 124.8 6.18164 125.111H8.22969C8.11645 124.8 8.02971 124.519 8.0032 123.955V117.357C8.0032 116.851 8.31644 116.877 8.54293 117.159L15.3425 125.108H17.4194L10.3645 116.877V116.882ZM7.99838 114.774V110.991H11.2126C12.268 110.991 13.1233 111.839 13.1233 112.885C13.1233 113.931 12.268 114.779 11.2126 114.779L7.99838 114.774Z" fill="white"/>
<path fill-rule="evenodd" clip-rule="evenodd" d="M38.0204 92.8109H50.6509C48.7161 91.7961 48.0342 89.0907 47.9209 86.4952C46.6704 74.7688 40.0709 65.6355 38.4758 63.2668C45.9717 58.8088 49.2847 51.9821 49.2847 45.676C49.2847 35.1889 39.9552 30.2271 31.8762 30.2271H10.5982C11.3957 31.3541 11.9643 31.8054 11.9643 34.3985V87.8467C11.9643 90.4398 10.8271 91.679 10.0295 92.8085H19.7012C18.9036 91.6814 17.7664 90.4398 17.7664 87.8467V68.2239C24.284 68.1188 29.7318 67.0514 34.0978 65.3322C40.7503 72.3977 41.5479 82.658 41.6611 85.478C41.7744 88.2979 40.295 90.7765 38.0204 92.8085V92.8109ZM17.7664 63.3814V33.952H30.2836C38.9312 33.952 41.7768 39.3651 41.6611 45.1149C41.0925 61.0127 25.1635 63.3814 17.7664 63.3814Z" fill="white"/>
<path fill-rule="evenodd" clip-rule="evenodd" d="M29.1414 74.4298C32.1363 74.3845 35.0205 74.1361 37.5649 73.7135C37.2203 72.5697 35.9698 70.0888 35.3409 69.0644C33.0158 69.4536 30.8497 69.5825 29.1414 69.5825V68.3433C28.3438 68.625 24.8188 69.1312 23.3393 69.3008V94.053C23.3393 96.6462 22.2021 97.8878 21.4045 99.0149H31.0762C30.2786 97.8878 29.1414 96.6462 29.1414 94.053V74.4322V74.4298Z" fill="white"/>
<path fill-rule="evenodd" clip-rule="evenodd" d="M39.3865 39.9766H29.1462V60.1609C27.8379 60.6122 25.2212 61.4575 23.3442 61.627V40.4279C23.3442 37.8347 22.7756 37.3834 21.978 36.2563H36.1433C37.2806 36.9321 38.8178 38.5678 39.3865 39.9766Z" fill="white"/>
<path fill-rule="evenodd" clip-rule="evenodd" d="M50.8098 43.5725C52.5398 45.6356 53.2048 48.3935 53.1494 51.2349C52.8409 59.8477 48.0244 64.4919 42.4971 66.937C43.3067 68.15 44.3235 70.4423 44.9523 71.6935C45.1089 71.6338 45.6029 71.4618 45.7571 71.4021C52.4096 78.4676 53.0361 88.7852 53.1494 91.6052C53.2626 94.4251 51.7832 96.9061 49.5086 98.9357H62.1391C60.2043 97.9209 59.5224 95.2155 59.4092 92.62C58.1587 80.8936 51.5591 71.7603 49.964 69.3916C57.4599 64.936 60.7729 58.107 60.7729 51.8008C60.7729 43.5272 54.7926 38.6346 48.3738 36.9631C48.8822 37.818 50.2917 40.5926 50.8122 43.5749L50.8098 43.5725Z" fill="white"/>
</g>
<defs>
<clipPath id="clip0_413_1704">
<rect width="71" height="128.998" fill="white" transform="translate(0.5 0.931396)"/>
</clipPath>
</defs>
</svg>
