<svg width="21" height="21" viewBox="0 0 21 21" fill="none" xmlns="http://www.w3.org/2000/svg">
<path fill-rule="evenodd" clip-rule="evenodd" d="M19.9357 15.1324C19.4175 14.8666 16.8771 13.5859 16.4041 13.4075C15.9312 13.2309 15.5869 13.1435 15.2408 13.6751C14.8965 14.2031 13.9072 15.3982 13.6063 15.7513C13.3038 16.1063 13.003 16.1491 12.4865 15.8851C11.9701 15.6176 10.3043 15.0593 8.33073 13.2541C6.79534 11.8485 5.75726 10.1129 5.45645 9.58137C5.15563 9.0516 5.42341 8.76442 5.6825 8.50042C5.9155 8.26318 6.19893 7.88146 6.45801 7.57287C6.7171 7.2625 6.8023 7.04132 6.97444 6.68635C7.14833 6.33317 7.06139 6.02458 6.93097 5.7588C6.8023 5.49303 5.76944 2.88341 5.33821 1.82208C4.91915 0.78929 4.49314 0.930206 4.17667 0.912368C3.87411 0.898098 3.52982 0.894531 3.18554 0.894531C2.84125 0.894531 2.28134 1.02653 1.80838 1.55808C1.33368 2.08786 0 3.37037 0 5.97999C0 8.58783 1.85012 11.1083 2.1092 11.4632C2.36829 11.8164 5.75205 17.1712 10.9355 19.4669C12.1701 20.0127 13.1316 20.3391 13.8811 20.5817C15.1191 20.9866 16.2459 20.9296 17.1362 20.7922C18.1273 20.6406 20.193 19.5097 20.6243 18.2718C21.0537 17.0339 21.0537 15.9725 20.9251 15.7513C20.7964 15.5302 20.4538 15.3982 19.9357 15.1324Z" fill="#D3A188"/>
</svg>
